<svg width="80" height="119" viewBox="0 0 80 119" fill="none" xmlns="http://www.w3.org/2000/svg">
<path d="M30.546 20.6032L40.1248 20.5389L40.648 98.4596L31.0692 98.5239C29.926 98.5315 28.9896 97.6186 28.9819 96.4803L28.4864 22.6706C28.4787 21.5324 29.3989 20.607 30.546 20.5993L30.546 20.6032Z" fill="#F59E5D"/>
<path d="M40.1248 20.5378L49.7036 20.4735C50.8468 20.4658 51.7793 21.3788 51.7869 22.5171L52.2824 96.3228C52.2901 97.4572 51.366 98.3865 50.2268 98.3942L40.6479 98.4585L40.1248 20.5378Z" fill="#E28E62"/>
<path d="M50.3151 111.73C51.4582 111.722 52.3907 112.635 52.3983 113.769L52.4155 116.327C52.4231 117.462 51.5029 118.387 50.3598 118.395L31.1991 118.523C30.056 118.531 29.1196 117.618 29.1119 116.484L29.0948 113.926C29.0872 112.792 30.0073 111.866 31.1543 111.859L50.3151 111.73Z" fill="#237C82"/>
<path d="M50.2707 105.061C51.4138 105.053 52.3462 105.966 52.3539 107.1L52.371 109.658C52.3786 110.792 51.4585 111.718 50.3154 111.725L31.1547 111.854C30.0115 111.862 29.0751 110.949 29.0675 109.815L29.0503 107.257C29.0427 106.122 29.9629 105.197 31.1099 105.189L50.2707 105.061Z" fill="#7C992D"/>
<path d="M50.2257 98.3957C51.3688 98.388 52.3013 99.3009 52.3089 100.435L52.3261 102.993C52.3337 104.127 51.4136 105.053 50.2705 105.061L31.1097 105.189C29.9666 105.197 29.0302 104.284 29.0226 103.15L29.0054 100.592C28.9978 99.4574 29.9179 98.532 31.065 98.5243L50.2257 98.3957Z" fill="#237C82"/>
<path d="M49.6579 13.806C50.801 13.7983 51.7335 14.7113 51.7412 15.8495L51.7583 18.4075C51.7659 19.5418 50.8458 20.4711 49.7027 20.4787L30.542 20.6074C29.3989 20.615 28.4625 19.7021 28.4548 18.5639L28.4376 16.0059C28.43 14.8716 29.3501 13.9424 30.4972 13.9347L49.6579 13.806Z" fill="#237C82"/>
<path d="M49.613 7.14066C50.7561 7.13299 51.6886 8.04593 51.6963 9.18413L51.7134 11.7421C51.7211 12.8764 50.8009 13.8018 49.6578 13.8095L30.4971 13.9381C29.354 13.9458 28.4175 13.0329 28.4099 11.8986L28.3927 9.34058C28.3851 8.2063 29.3052 7.277 30.4523 7.2693L49.613 7.14066Z" fill="#7C992D"/>
<path d="M49.5683 0.471545C50.7114 0.463871 51.6439 1.37682 51.6516 2.51501L51.6687 5.07302C51.6763 6.2073 50.7562 7.1366 49.6131 7.14427L30.4524 7.27291C29.3093 7.28058 28.3729 6.36766 28.3652 5.22947L28.348 2.67146C28.3404 1.53718 29.2605 0.607883 30.4076 0.600182L49.5683 0.471545Z" fill="#237C82"/>
<path d="M47.5979 20.4896L40.2348 36.9791L32.6509 20.59L47.5979 20.4896Z" fill="#A85123"/>
<path d="M40.134 21.9308C42.1916 21.917 43.8701 23.5603 43.8838 25.602C43.8975 27.6437 42.2413 29.3094 40.1837 29.3232C38.1261 29.337 36.4476 27.6937 36.4339 25.652C36.4202 23.6103 38.0765 21.9446 40.134 21.9308Z" fill="#3E2C2C"/>
<path d="M79.2044 107.546C80.0453 108.315 80.0974 109.617 79.3185 110.452L74.9232 115.167C74.1483 116.002 72.8359 116.05 71.995 115.281L1.04832 49.3412C0.207436 48.5723 0.159272 47.27 0.934201 46.4356L5.32949 41.7199C6.10836 40.8854 7.41681 40.8375 8.25769 41.6064L79.2044 107.546Z" fill="#833E19"/>
</svg>
