<svg width="62" height="111" viewBox="0 0 62 111" fill="none" xmlns="http://www.w3.org/2000/svg">
<g clip-path="url(#clip0_93_14)">
<path d="M46.1392 19.8018C46.3754 20.7584 46.5722 21.7282 46.6902 22.6587C47.0576 25.1617 47.0313 27.5862 46.7952 29.8796C46.5197 32.6316 45.9556 35.2264 45.3521 37.6247C43.9484 43.1419 42.1773 46.8244 41.8756 50.5463C41.7444 52.0271 41.8493 53.508 42.3085 55.133C42.4397 55.6179 42.6102 56.129 42.8201 56.6532C50.4422 75.8522 60.9111 88.4724 61.8951 99.402C62.7347 108.798 58.576 110.279 57.3821 110.489C56.0571 111.197 52.1739 112.258 46.7558 105.352C46.0736 104.474 45.4308 103.517 44.8536 102.469C39.6847 93.3606 38.1629 78.4077 31.3149 61.1483C30.4359 58.9466 29.2814 57.374 27.8646 56.0897C25.0834 53.5604 21.2526 52.0927 16.4249 49.0261C14.3652 47.7156 12.1219 46.2347 9.99662 44.4524C8.18621 42.9453 6.45451 41.2285 4.95895 39.1842C4.39484 38.411 3.85697 37.6116 3.35845 36.7466C2.37453 35.0299 1.54804 33.1296 0.983923 30.9804C0.28862 28.4642 -0.0655905 25.6204 0.013123 22.4097C0.0524798 20.8764 0.236145 19.4086 0.564118 18.0064C4.04063 2.3851 23.3123 -5.26826 35.8278 4.03635C36.956 4.87507 38.0449 5.87106 39.0419 6.99809C41.1409 9.35701 42.7283 11.6766 43.909 13.97C44.9323 15.9489 45.6538 17.8884 46.1261 19.8018H46.1392Z" fill="#F59E5D"/>
<path d="M43.909 13.97L0.970812 30.9804C0.288628 28.4642 -0.0787017 25.6204 1.18371e-05 22.4097C0.0393686 20.8764 0.223033 19.4086 0.551006 18.0064L35.8278 4.03636C36.956 4.87509 38.0449 5.87107 39.0419 6.99811C41.1409 9.35702 42.7283 11.6766 43.909 13.97Z" fill="#237C82"/>
<path d="M46.1392 19.8018C46.3754 20.7584 46.5722 21.7282 46.6902 22.6587L4.94584 39.1842C4.38173 38.411 3.84386 37.6116 3.34534 36.7466L46.1392 19.8018Z" fill="#5E223E"/>
<path d="M46.7952 29.8796C46.5197 32.6316 45.9556 35.2264 45.3521 37.6247C43.9484 43.1419 42.1773 46.8244 41.8756 50.5463L27.8646 56.0897C25.0834 53.5605 21.2527 52.0927 16.4249 49.0261C14.3652 47.7156 12.1219 46.2347 9.99664 44.4524L46.8083 29.8796H46.7952Z" fill="#237C82"/>
<path d="M44.2763 49.6027L26.4477 56.6664C25.3195 57.1119 24.7554 58.3962 25.2014 59.5364C25.6475 60.6634 26.9331 61.2269 28.0745 60.7814L45.9031 53.7177C47.0313 53.2721 47.5954 51.9878 47.1494 50.8477C46.7033 49.7076 45.4177 49.1571 44.2763 49.6027Z" fill="#7C992D"/>
<path d="M10.1147 20.7847C9.51123 19.2514 7.76642 18.5044 6.2315 19.1072C4.69659 19.71 3.94881 21.453 4.55228 22.9863C5.15575 24.5196 6.90057 25.2666 8.43548 24.6638C9.9704 24.0478 10.7182 22.3179 10.1147 20.7847Z" fill="#FDD6D5"/>
<path d="M18.6814 17.3904C18.0779 15.8571 16.3331 15.1101 14.7982 15.713C13.2632 16.3158 12.5155 18.0588 13.1189 19.5921C13.7224 21.1254 15.4672 21.8724 17.0021 21.2695C18.537 20.6667 19.2848 18.9237 18.6814 17.3904Z" fill="#FDD6D5"/>
<path d="M27.248 14.0093C26.6445 12.476 24.8997 11.729 23.3648 12.3319C21.8299 12.9347 21.0821 14.6777 21.6856 16.211C22.2891 17.7443 24.0339 18.4913 25.5688 17.8884C27.1037 17.2856 27.8515 15.5426 27.248 14.0093Z" fill="#FDD6D5"/>
<path d="M35.8147 10.6151C35.2112 9.08182 33.4664 8.33483 31.9315 8.93766C30.3965 9.54049 29.6488 11.2835 30.2522 12.8168C30.8557 14.3501 32.6005 15.097 34.1354 14.4942C35.6703 13.8914 36.4181 12.1484 35.8147 10.6151Z" fill="#FDD6D5"/>
<path opacity="0.2" d="M61.8819 99.402C62.7215 108.798 58.5629 110.279 57.369 110.489C56.044 111.197 52.1608 112.258 46.7427 105.352C46.0605 104.474 45.4177 103.517 44.8405 102.469C48.3432 103.989 52.843 105.155 55.4537 102.731C60.1896 98.3405 38.5172 56.6139 38.5172 56.6139L42.2954 55.12C42.4266 55.6048 42.5971 56.1159 42.807 56.6401C50.416 75.8391 60.898 88.4593 61.8688 99.3889L61.8819 99.402Z" fill="#964E75"/>
</g>
<defs>
<clipPath id="clip0_93_14">
<rect width="62" height="111" fill="white"/>
</clipPath>
</defs>
</svg>
