<svg width="94" height="113" viewBox="0 0 94 113" fill="none" xmlns="http://www.w3.org/2000/svg">
<g clip-path="url(#clip0_53_2946)">
<path d="M83.646 76.8007C83.668 76.9915 82.6119 77.1924 80.7638 77.3431C78.9157 77.4938 76.2315 77.6244 72.9203 77.7249C66.298 77.9157 57.1564 77.986 47.0578 77.9157C36.9593 77.8454 27.8287 77.6646 21.2174 77.4436C14.606 77.2125 10.5137 77.0016 10.5027 76.6098C10.4807 76.2281 14.584 75.7559 21.2064 75.4847C27.8287 75.2034 36.9813 75.0728 47.0909 75.1431C57.1894 75.2134 66.342 75.4545 72.9533 75.766C76.2645 75.9166 78.9377 76.0874 80.7858 76.2682C82.6339 76.4491 83.635 76.6098 83.657 76.8007H83.646Z" fill="#61ADF2"/>
<g clip-path="url(#clip1_53_2946)">
<g clip-path="url(#clip2_53_2946)">
<path d="M85.3728 79.6009H8.18135C2.37301 79.6009 -1.2792 73.8749 1.59197 69.2539L42.2393 3.88673C45.1435 -0.784507 52.5249 -0.784507 55.4291 3.88673L93.0732 64.4219C93.9423 65.8182 93.0402 67.5863 91.3021 67.8776C90.2351 68.0584 89.168 67.5963 88.629 66.7424L50.6108 6.28764C49.6207 4.70042 48.6087 4.70042 47.6186 6.28764L7.90633 70.9415C6.92727 72.5187 8.17035 74.4675 10.1505 74.4675H85.3618C86.8909 74.4675 88.145 75.5826 88.178 76.979C88.211 78.4155 86.9459 79.6009 85.3618 79.6009H85.3728Z" fill="#798287"/>
<path d="M40.9302 6.37807C41.2933 6.5388 39.8192 10.2055 36.948 15.9516C34.0768 21.6877 29.7976 29.4831 24.6163 37.8712C19.435 46.2593 14.3197 53.6329 10.3375 58.7963C6.35524 63.9698 3.50608 66.9132 3.17606 66.6922C2.82404 66.4612 5.04616 63.1361 8.54437 57.7315C12.0426 52.3269 16.8278 44.853 21.9871 36.505C27.1354 28.1571 31.7007 20.5525 35.0449 15.0575C38.3891 9.56254 40.5452 6.19725 40.9302 6.36802V6.37807Z" fill="#A7AFB3"/>
<path d="M14.3287 112.487L12.0626 111.352C11.4575 111.05 11.2375 110.367 11.5676 109.815L28.2885 81.8677C28.4425 81.6165 28.7836 81.5261 29.0586 81.6567L32.5128 83.3745C32.7878 83.5152 32.8868 83.8266 32.7438 84.0777L16.0228 112.025C15.6928 112.577 14.9448 112.778 14.3397 112.477L14.3287 112.487Z" fill="#237C82"/>
<path d="M31.9847 83.1334L59.2883 38.2895C61.2684 34.6731 58.3862 33.6283 55.9331 36.7626C53.4799 39.8968 29.5756 81.9279 29.5756 81.9279L31.9847 83.1334Z" fill="#78848F"/>
</g>
<path d="M58.4632 35.9891C57.6602 35.738 55.8121 38.2795 54.844 39.706C53.436 41.7754 52.1599 43.9252 50.8948 46.0649C49.6847 48.1142 48.4747 50.1535 47.3306 52.233C46.6266 53.4987 45.0645 56.3215 45.5705 56.7435C46.1205 57.0649 50.0258 50.2138 51.0818 48.6868C53.2489 45.5626 59.2663 36.2503 58.4632 35.9992V35.9891Z" fill="#A7AFB3"/>
</g>
</g>
<defs>
<clipPath id="clip0_53_2946">
<rect width="92.8168" height="112.233" fill="white" transform="translate(0.591583 0.383301)"/>
</clipPath>
<clipPath id="clip1_53_2946">
<rect width="92.8168" height="112.233" fill="white" transform="translate(0.591583 0.383301)"/>
</clipPath>
<clipPath id="clip2_53_2946">
<rect width="92.8168" height="112.233" fill="white" transform="translate(0.591583 0.383301)"/>
</clipPath>
</defs>
</svg>
