<svg width="96" height="94" viewBox="0 0 96 94" fill="none" xmlns="http://www.w3.org/2000/svg">
<g clip-path="url(#clip0_428_714)">
<ellipse cx="48" cy="47" rx="48" ry="47" fill="#F95B37"/>
<path d="M48.5057 57.2765C51.3914 57.2765 53.8422 56.319 55.8582 54.4041C57.8742 52.4892 58.8822 50.1638 58.8822 47.428C58.8822 44.6922 57.8723 42.3687 55.8525 40.4574C53.8327 38.5461 51.3799 37.5904 48.4943 37.5904C45.6086 37.5904 43.1578 38.5479 41.1418 40.4628C39.1258 42.3777 38.1178 44.7031 38.1178 47.4389C38.1178 50.1747 39.1277 52.4982 41.1475 54.4095C43.1673 56.3208 45.6201 57.2765 48.5057 57.2765ZM48.5 53.952C46.5901 53.952 44.9667 53.3183 43.6297 52.0508C42.2928 50.7833 41.6243 49.2442 41.6243 47.4334C41.6243 45.6227 42.2928 44.0836 43.6297 42.8161C44.9667 41.5486 46.5901 40.9149 48.5 40.9149C50.4099 40.9149 52.0333 41.5486 53.3703 42.8161C54.7072 44.0836 55.3757 45.6227 55.3757 47.4334C55.3757 49.2442 54.7072 50.7833 53.3703 52.0508C52.0333 53.3183 50.4099 53.952 48.5 53.952ZM48.5032 64.3334C42.6474 64.3334 37.3118 62.802 32.4963 59.7391C27.6808 56.6765 24.1351 52.5747 21.8594 47.4334C24.1351 42.2922 27.6795 38.1904 32.4925 35.1278C37.3058 32.0649 42.6406 30.5334 48.4968 30.5334C54.3526 30.5334 59.6882 32.0649 64.5037 35.1278C69.3192 38.1904 72.8649 42.2922 75.1406 47.4334C72.8649 52.5747 69.3205 56.6765 64.5075 59.7391C59.6942 62.802 54.3594 64.3334 48.5032 64.3334ZM48.5 60.712C53.296 60.712 57.6994 59.5149 61.7102 57.1208C65.721 54.7266 68.7874 51.4975 70.9095 47.4334C68.7874 43.3694 65.721 40.1403 61.7102 37.7461C57.6994 35.352 53.296 34.1549 48.5 34.1549C43.704 34.1549 39.3006 35.352 35.2898 37.7461C31.279 40.1403 28.2126 43.3694 26.0905 47.4334C28.2126 51.4975 31.279 54.7266 35.2898 57.1208C39.3006 59.5149 43.704 60.712 48.5 60.712Z" fill="black"/>
</g>
<defs>
<clipPath id="clip0_428_714">
<rect width="96" height="94" fill="white"/>
</clipPath>
</defs>
</svg>
