<svg width="118" height="70" viewBox="0 0 118 70" fill="none" xmlns="http://www.w3.org/2000/svg">
<path d="M95.3599 14.75C95.0899 18.57 95.6199 22.54 95.6199 22.54L98.1799 22.28C98.1799 22.28 96.7699 18.7 97.2899 13.21C97.7999 7.72 100.75 4.91 102.15 5.03C103.94 5.19 104.32 1.61 101.77 1.71C99.5399 1.8 100.21 4.31 100.21 4.31C100.21 4.31 95.8499 8.11 95.3799 14.75H95.3599Z" fill="#C48353"/>
<path d="M115.2 8.36999C116.74 9.28999 118.64 6.23999 116.3 5.20999C114.26 4.31999 113.76 6.86999 113.76 6.86999C113.76 6.86999 108.18 8.39999 104.87 14.16C102.96 17.48 101.71 21.29 101.71 21.29L104.12 22.17C104.12 22.17 104.41 18.34 107.26 13.61C110.11 8.87999 113.99 7.63999 115.19 8.35999L115.2 8.36999Z" fill="#C48353"/>
<path d="M35.4599 68.55C42.5799 69.69 54.2599 68.83 66.7999 67.41C79.3399 65.99 83.6099 60.86 87.8799 57.15C92.1499 53.44 93.2899 48.03 97.5699 44.33C101.84 40.63 108.11 40.63 110.96 37.21C113.81 33.79 113.24 25.53 108.68 22.68C104.12 19.83 94.1499 19.83 91.2999 24.67C88.4499 29.51 82.6499 35.78 79.5099 37.2C76.3799 38.62 77.2399 37.82 68.1299 37.53C59.0099 37.25 41.1499 46.89 40.0199 53.44C40.0199 53.44 32.6099 59.14 25.7699 56.57C22.2599 55.25 16.9399 58.28 14.9399 59.42C12.9499 60.56 9.23994 63.41 6.95994 64.26C4.67994 65.11 4.96994 66.82 12.6599 67.68C20.3499 68.53 28.3299 67.4 35.4499 68.53L35.4599 68.55Z" fill="#E19E67"/>
<g style="mix-blend-mode:multiply" opacity="0.5">
<path d="M35.75 60.29C30.39 61.02 25.2 63.26 19.8 62.99C17.83 62.89 15.7 62.34 14.51 60.76C14.32 60.51 14.18 60.25 14.06 59.98C11.99 61.31 8.94996 63.54 6.97996 64.27C4.69996 65.12 4.98996 66.83 12.68 67.69C20.37 68.55 28.35 67.41 35.47 68.54C42.59 69.68 54.27 68.83 66.81 67.4C79.35 65.98 83.62 60.85 87.89 57.14C92.16 53.43 93.3 48.02 97.58 44.32C101.85 40.62 108.12 40.62 110.97 37.2C111.38 36.71 111.7 36.12 111.97 35.47C108.46 37.13 103.97 37.37 100.03 38.27C94.2 39.6 88.8299 42.89 84.99 47.48C82.4 50.57 80.48 54.25 77.44 56.91C73.79 60.11 69.01 61.43 64.09 61.75C60.28 62 57.89 57.58 60.33 54.65C60.35 54.63 60.37 54.61 60.38 54.59C63.63 50.77 69.54 47.72 76.99 44.85C81.38 43.16 83.6499 37.42 84.77 32.99C82.82 34.98 80.91 36.56 79.52 37.2C76.39 38.62 77.25 37.82 68.14 37.53C62.76 37.36 54.34 40.65 48.11 44.72C47.38 47.74 46.79 50.56 46.46 52.29C45.91 55.13 46.81 58.28 48.56 60.6C44.28 60.07 40.01 59.7 35.75 60.28V60.29Z" fill="#E19E67"/>
</g>
<path d="M11.3498 25.95C12.2698 19.83 8.89981 16.77 8.89981 16.77C8.89981 16.77 4.91981 15.24 1.55981 17.69C-1.81019 20.14 0.949814 27.79 3.39981 31.15C5.84981 34.52 10.4398 32.07 11.3598 25.95H11.3498Z" fill="#C06D2B"/>
<path d="M11.3498 25.95C12.2698 19.83 8.89981 16.77 8.89981 16.77C8.89981 16.77 4.91981 15.24 1.55981 17.69C-1.81019 20.14 0.949814 27.79 3.39981 31.15C5.84981 34.52 10.4398 32.07 11.3598 25.95H11.3498Z" fill="#726658"/>
<g style="mix-blend-mode:multiply" opacity="0.5">
<path d="M4.96965 24.2C3.32965 25.16 1.70965 24.97 0.389648 24.42C0.999648 26.95 2.22965 29.54 3.39965 31.15C5.84965 34.52 10.4396 32.07 11.3596 25.95C12.2796 19.83 8.90965 16.77 8.90965 16.77C8.90965 16.77 7.90965 16.38 6.47965 16.31C7.48965 18.47 8.45965 22.15 4.96965 24.19V24.2Z" fill="#726658"/>
</g>
<path d="M6.14971 32.07C1.86971 35.13 7.98971 43.08 13.7997 42.47C19.6097 41.86 25.7297 34.21 23.5897 25.95C21.4497 17.69 22.0597 15.55 15.9397 13.41C15.9397 13.41 9.50971 12.8 8.89971 16.78C8.28971 20.76 10.4297 29.02 6.14971 32.08V32.07Z" fill="#726658"/>
<g style="mix-blend-mode:multiply" opacity="0.5">
<path d="M4.71974 34.84C4.70974 38.38 9.33974 42.94 13.7997 42.47C19.6097 41.86 25.7297 34.21 23.5897 25.95C21.4497 17.69 22.0597 15.55 15.9397 13.41C15.9397 13.41 14.9597 13.32 13.7297 13.44C14.7997 16.27 16.1097 21.62 13.3497 26.59C9.75974 33.05 8.09974 35.31 4.71974 34.84Z" fill="#726658"/>
</g>
<path d="M11.0498 40.64C6.14983 41.86 12.8898 59 26.0398 57.47C39.1998 55.94 43.7898 34.83 39.8098 23.51C35.8298 12.19 23.2898 10.66 23.2898 10.66C23.2898 10.66 14.1998 11.28 15.9498 13.41C16.8198 14.48 21.0798 19.41 19.3198 26.57C17.9798 31.99 15.9498 39.42 11.0598 40.64H11.0498Z" fill="#726658"/>
<g style="mix-blend-mode:multiply" opacity="0.5">
<path d="M17.4298 50.18C15.5398 50.83 13.5098 50.85 11.5098 51.04C14.3298 54.89 19.0398 58.18 25.1198 57.47C38.2798 55.94 42.8698 34.83 38.8898 23.51C34.9098 12.19 22.3698 10.66 22.3698 10.66C22.3698 10.66 21.0798 10.66 19.5798 10.86C20.2898 12.64 21.3198 14.32 22.1298 16.07C24.0898 20.3 24.7198 25.01 25.1798 29.65C25.5698 33.59 25.8298 37.63 24.7898 41.46C23.7498 45.28 21.1698 48.89 17.4298 50.18Z" fill="#726658"/>
</g>
<path d="M26.0398 57.47C26.0398 57.47 34.2998 63.9 45.3198 64.2C56.3298 64.51 61.2298 40.03 74.6898 37.89C74.6898 37.89 79.2798 17.39 61.8398 5.45999C47.2398 -4.53001 34.9098 1.78999 29.7098 4.23999C24.5098 6.68999 23.2798 10.67 23.2798 10.67C23.2798 10.67 33.4598 14.89 34.5998 28.72C36.4998 51.64 26.0298 57.48 26.0298 57.48L26.0398 57.47Z" fill="#726658"/>
<g style="mix-blend-mode:soft-light">
<path d="M39.7198 31.66C39.7498 32.51 39.8498 33.42 40.4098 34.06C40.8198 34.54 41.4398 34.8 42.0598 34.91C43.6698 35.18 45.3398 34.46 46.4898 33.3C47.6398 32.14 48.3398 30.61 48.8098 29.04C50.1198 24.63 49.7298 19.74 47.7198 15.61C45.7098 11.47 42.1198 8.12998 37.8398 6.43998C36.2598 5.80998 34.5198 5.39998 32.8498 5.74998C31.1798 6.09998 29.6298 7.35998 29.3598 9.04998C29.0898 10.7 30.0898 12.31 31.3198 13.44C32.5598 14.56 34.0598 15.36 35.3098 16.48C37.0598 18.05 38.2398 20.19 38.9398 22.43C39.3598 23.77 39.6098 25.17 39.6998 26.57C39.8098 28.27 39.6698 29.97 39.7298 31.67L39.7198 31.66Z" fill="white"/>
</g>
<path d="M110.1 25.99C110.1 27.25 109.08 28.28 107.81 28.28C106.54 28.28 105.52 27.26 105.52 25.99C105.52 24.72 106.54 23.7 107.81 23.7C109.08 23.7 110.1 24.72 110.1 25.99Z" fill="#231F20"/>
<path d="M109.41 25.1C109.41 25.51 109.07 25.85 108.66 25.85C108.25 25.85 107.91 25.51 107.91 25.1C107.91 24.69 108.25 24.35 108.66 24.35C109.07 24.35 109.41 24.69 109.41 25.1Z" fill="white"/>
<path d="M102.55 26.64C102.55 27.9 101.53 28.93 100.26 28.93C98.9897 28.93 97.9697 27.91 97.9697 26.64C97.9697 25.37 98.9897 24.35 100.26 24.35C101.53 24.35 102.55 25.37 102.55 26.64Z" fill="#231F20"/>
<path d="M101.86 25.74C101.86 26.15 101.52 26.49 101.11 26.49C100.7 26.49 100.36 26.15 100.36 25.74C100.36 25.33 100.7 24.99 101.11 24.99C101.52 24.99 101.86 25.33 101.86 25.74Z" fill="white"/>
<g style="mix-blend-mode:multiply" opacity="0.5">
<path d="M74.6899 37.89C74.6899 37.89 79.2799 17.39 61.8399 5.46C52.5899 -0.870005 44.2599 -0.660005 38.0699 0.969995C43.5499 2.69 48.4099 6.06 51.2599 11.01C53.4999 14.89 54.3799 19.42 54.5699 23.9C55.2199 38.72 48.1899 53.64 36.4199 62.64C39.0499 63.48 42.0599 64.11 45.3099 64.2C56.3199 64.51 61.2199 40.03 74.6799 37.89H74.6899Z" fill="#726658"/>
</g>
</svg>
