<svg width="147" height="98" viewBox="0 0 147 98" fill="none" xmlns="http://www.w3.org/2000/svg">
<g clip-path="url(#clip0_157_2462)">
<path d="M144.74 73.4C144.555 73.7006 144.357 73.9969 144.152 74.2842C131.695 91.6709 82.9939 85.5342 60.5784 83.2086C41.335 81.2168 30.1405 76.1434 25.1732 70.294C24.182 69.129 23.4418 67.9353 22.9308 66.7283C19.8601 59.4575 18.4988 57.574 15.6859 58.8562C12.8707 60.1428 9.54894 59.7139 8.86608 55.0937C8.18322 50.4734 0.0880212 49.1912 -8.98532e-05 46.1118C-0.0837953 43.0302 13.0425 41.3214 19.6927 48.4241C19.6927 48.4241 23.5256 38.3281 32.5635 36.0158C41.5971 33.7079 38.7864 41.0627 35.8016 43.8879C32.8191 46.7087 34.4359 53.5219 30.6868 54.6648C28.7263 55.2661 24.8913 56.7207 25.1446 61.2525C25.4001 65.7887 39.5529 64.847 50.2915 47.226C61.03 29.6027 71.7906 14.3139 104.845 15.5718C145.251 17.1148 151.275 62.8287 144.74 73.4022V73.4Z" fill="#295C8E"/>
<path d="M125.371 69.3899C120.783 69.3899 117.044 65.6428 117.042 61.0381C117.042 58.8053 117.906 56.7052 119.476 55.1246C121.049 53.544 123.14 52.673 125.364 52.6708C129.962 52.6708 133.697 56.4178 133.702 61.0226C133.704 63.2553 132.838 65.3554 131.268 66.9361C129.695 68.5167 127.605 69.3877 125.38 69.3899H125.371Z" fill="#235D84"/>
<path d="M125.371 67.7805C120.783 67.7805 117.044 64.0335 117.042 59.4287C117.042 57.196 117.906 55.0959 119.476 53.5152C121.049 51.9346 123.14 51.0636 125.364 51.0614C129.962 51.0614 133.697 54.8085 133.702 59.4132C133.704 61.646 132.838 63.7461 131.268 65.3267C129.695 66.9073 127.605 67.7783 125.38 67.7805H125.371Z" fill="#6EAFE5"/>
<path d="M125.369 66.7106C129.379 66.7106 132.629 63.4484 132.629 59.4243C132.629 55.4002 129.379 52.138 125.369 52.138C121.359 52.138 118.108 55.4002 118.108 59.4243C118.108 63.4484 121.359 66.7106 125.369 66.7106Z" fill="#FCF3D9"/>
<path d="M129.399 61.1007C130.312 58.8666 129.248 56.3122 127.022 55.3955C124.795 54.4787 122.25 55.5467 121.337 57.7809C120.423 60.015 121.487 62.5694 123.714 63.4861C125.94 64.4029 128.485 63.3349 129.399 61.1007Z" fill="black"/>
<path d="M127.794 57.0788C127.794 57.9454 127.096 58.6506 126.23 58.6506C125.364 58.6506 124.664 57.9498 124.664 57.081C124.664 56.2122 125.362 55.5092 126.228 55.5092C127.093 55.5092 127.794 56.21 127.794 57.0788Z" fill="#FAFAFA"/>
<path d="M130.766 49.6709C130.585 49.6709 130.404 49.6113 130.255 49.4852C128.891 48.349 127.155 47.7211 125.371 47.7211C123.587 47.7211 121.855 48.3468 120.492 49.4852C120.15 49.7682 119.646 49.7218 119.364 49.3813C119.082 49.0387 119.128 48.5325 119.468 48.2495C121.12 46.8723 123.217 46.114 125.371 46.114C127.525 46.114 129.629 46.8723 131.279 48.2495C131.62 48.5325 131.667 49.0409 131.382 49.3813C131.224 49.5737 130.995 49.6709 130.766 49.6709Z" fill="#6EAFE5"/>
<path d="M144.15 74.2842C131.693 91.6709 82.9918 85.5342 60.5763 83.2086C41.3329 81.2168 30.1384 76.1434 25.1711 70.294C39.7601 79.2626 60.0212 76.6142 78.0796 71.1739C100.24 64.5021 101.433 66.3834 121.014 73.3978C130.345 76.7425 138.337 75.9864 144.15 74.282V74.2842Z" fill="#C0ECFF"/>
<g opacity="0.3">
<path d="M144.74 73.4C144.555 73.7006 144.357 73.9968 144.152 74.2842C131.695 91.6709 82.994 85.5342 60.5785 83.2086C41.3351 81.2168 30.1406 76.1434 25.1733 70.294C24.1821 69.129 23.4419 67.9353 22.9309 66.7283C22.4771 65.6517 22.0608 64.6945 21.6709 63.8456C27.7021 68.6847 38.7887 72.7125 56.1509 74.4346C79.5422 76.7602 130.358 82.8969 143.357 65.5102C143.572 65.2228 143.777 64.9266 143.971 64.6259C145.381 62.4396 146.231 58.7434 146.317 54.2492C147.689 62.5634 146.901 69.9027 144.74 73.3978V73.4Z" fill="white"/>
</g>
<path d="M132.897 34.5311C134.485 31.7694 130.452 26.447 123.887 22.6433C117.322 18.8395 110.712 17.9948 109.123 20.7566C107.535 23.5184 111.568 28.8407 118.133 32.6445C124.698 36.4482 131.308 37.2929 132.897 34.5311Z" fill="#5C9FD6"/>
<path d="M50.4061 59.8576C50.9559 59.8576 51.4017 59.4102 51.4017 58.8584C51.4017 58.3065 50.9559 57.8592 50.4061 57.8592C49.8562 57.8592 49.4104 58.3065 49.4104 58.8584C49.4104 59.4102 49.8562 59.8576 50.4061 59.8576Z" fill="#155375"/>
<path d="M47.3421 66.5271C48.4881 66.5271 49.4171 65.5948 49.4171 64.4447C49.4171 63.2946 48.4881 62.3622 47.3421 62.3622C46.1961 62.3622 45.2671 63.2946 45.2671 64.4447C45.2671 65.5948 46.1961 66.5271 47.3421 66.5271Z" fill="#155375"/>
<path d="M56.4571 57.6912C57.6031 57.6912 58.5321 56.7588 58.5321 55.6087C58.5321 54.4586 57.6031 53.5263 56.4571 53.5263C55.3111 53.5263 54.3821 54.4586 54.3821 55.6087C54.3821 56.7588 55.3111 57.6912 56.4571 57.6912Z" fill="#155375"/>
<path d="M54.3844 62.6231C54.3844 63.2841 53.8491 63.8213 53.1905 63.8213C52.5319 63.8213 51.9966 63.2841 51.9966 62.6231C51.9966 61.9621 52.5319 61.4249 53.1905 61.4249C53.8491 61.4249 54.3844 61.9621 54.3844 62.6231Z" fill="#155375"/>
<path d="M51.9964 69.6927C53.314 69.6927 54.3821 68.6208 54.3821 67.2986C54.3821 65.9764 53.314 64.9045 51.9964 64.9045C50.6789 64.9045 49.6108 65.9764 49.6108 67.2986C49.6108 68.6208 50.6789 69.6927 51.9964 69.6927Z" fill="#155375"/>
<path d="M53.5319 59.6852C53.673 59.6852 53.7874 59.5704 53.7874 59.4287C53.7874 59.2871 53.673 59.1723 53.5319 59.1723C53.3908 59.1723 53.2764 59.2871 53.2764 59.4287C53.2764 59.5704 53.3908 59.6852 53.5319 59.6852Z" fill="#155375"/>
<path d="M47.3377 60.4677C47.6747 60.4677 47.9479 60.1936 47.9479 59.8554C47.9479 59.5172 47.6747 59.243 47.3377 59.243C47.0007 59.243 46.7275 59.5172 46.7275 59.8554C46.7275 60.1936 47.0007 60.4677 47.3377 60.4677Z" fill="#155375"/>
<path d="M52.5076 55.6087C52.8847 55.6087 53.1904 55.3019 53.1904 54.9234C53.1904 54.5449 52.8847 54.2381 52.5076 54.2381C52.1304 54.2381 51.8247 54.5449 51.8247 54.9234C51.8247 55.3019 52.1304 55.6087 52.5076 55.6087Z" fill="#155375"/>
<path d="M104.654 14.4863C104.654 14.4863 104.579 7.97378 109.485 7.06521C114.39 6.15664 113.031 10.0938 110.013 11.1549C106.995 12.216 105.183 12.216 104.656 14.4863H104.654Z" fill="#48A3FF"/>
<path d="M102.235 11.7717C102.235 11.7717 102.31 5.2591 97.4046 4.34832C92.499 3.43753 93.8581 7.3769 96.8759 8.43801C99.8937 9.49911 101.704 9.49912 102.233 11.7717H102.235Z" fill="#48A3FF"/>
<path d="M104.035 6.30032C104.035 6.30032 103.971 0.870979 108.062 0.112728C112.15 -0.645522 111.018 2.63949 108.502 3.52154C105.987 4.4058 104.476 4.4058 104.035 6.30032Z" fill="#55B0FB"/>
<path d="M92.7963 74.2577C105.473 72.4052 109.636 85.8879 100.933 92.9155C92.2302 99.9432 78.4166 98.8025 78.9827 94.8145C79.551 90.8265 87.3092 90.2561 86.7409 81.3318C86.2915 74.2798 92.7963 74.2577 92.7963 74.2577Z" fill="#4685C4"/>
<g opacity="0.3">
<path d="M100.444 75.2989C99.0633 75.0491 97.5192 75.0226 95.8208 75.268C95.8208 75.268 89.3182 75.2879 89.7698 82.3442C90.3337 91.2686 82.5777 91.8367 82.0094 95.8247C81.8993 96.594 82.3266 97.2594 83.1527 97.7789C80.4785 97.3435 78.7757 96.2669 78.9828 94.8123C79.5511 90.8243 87.3071 90.2561 86.7432 81.3318C86.2916 74.2754 92.7942 74.2555 92.7942 74.2555C95.8649 73.8067 98.4333 74.2599 100.444 75.2989Z" fill="#4685C4"/>
</g>
</g>
<defs>
<clipPath id="clip0_157_2462">
<rect width="147" height="98" fill="white"/>
</clipPath>
</defs>
</svg>
