<svg width="120" height="87" viewBox="0 0 120 87" fill="none" xmlns="http://www.w3.org/2000/svg">
<path d="M44.4175 38.0911C45.0548 38.0911 45.5714 37.5754 45.5714 36.9392C45.5714 36.303 45.0548 35.7873 44.4175 35.7873C43.7803 35.7873 43.2637 36.303 43.2637 36.9392C43.2637 37.5754 43.7803 38.0911 44.4175 38.0911Z" fill="#11171E"/>
<path d="M43.2755 43.8608C44.5501 43.8608 45.5833 42.8294 45.5833 41.557C45.5833 40.2846 44.5501 39.2532 43.2755 39.2532C42.001 39.2532 40.9678 40.2846 40.9678 41.557C40.9678 42.8294 42.001 43.8608 43.2755 43.8608Z" fill="#11171E"/>
<path d="M50.4962 38.0911C50.4962 38.728 49.9787 39.243 49.3424 39.243C48.706 39.243 48.1885 38.7263 48.1885 38.0911C48.1885 37.4558 48.706 36.9392 49.3424 36.9392C49.9787 36.9392 50.4962 37.4542 50.4962 38.0911Z" fill="#11171E"/>
<path d="M48.6867 33.8663C48.6867 34.1424 48.4627 34.366 48.1861 34.366C47.9095 34.366 47.6855 34.1424 47.6855 33.8663C47.6855 33.5902 47.9095 33.3665 48.1861 33.3665C48.4627 33.3665 48.6867 33.5902 48.6867 33.8663Z" fill="#11171E"/>
<path d="M45.5716 32.5602C46.5491 32.5602 47.3415 31.7692 47.3415 30.7934C47.3415 29.8176 46.5491 29.0266 45.5716 29.0266C44.5941 29.0266 43.8018 29.8176 43.8018 30.7934C43.8018 31.7692 44.5941 32.5602 45.5716 32.5602Z" fill="#11171E"/>
<path d="M53.037 32.6734C53.0974 31.827 52.4589 31.092 51.6111 31.0318C50.7632 30.9715 50.027 31.6089 49.9667 32.4553C49.9063 33.3017 50.5448 34.0367 51.3926 34.0969C52.2405 34.1571 52.9767 33.5198 53.037 32.6734Z" fill="#11171E"/>
<path d="M40.822 37.6964C41.2409 37.6964 41.5805 37.3574 41.5805 36.9392C41.5805 36.521 41.2409 36.182 40.822 36.182C40.4031 36.182 40.0635 36.521 40.0635 36.9392C40.0635 37.3574 40.4031 37.6964 40.822 37.6964Z" fill="#11171E"/>
<g clip-path="url(#clip0_161_3301)">
<path d="M102.181 34.45C90.5506 19.56 64.0406 18.95 46.7006 20.99C46.7006 20.99 37.9306 21.81 26.5106 30.17C15.0906 38.53 11.6206 42.41 5.71059 41.39C-0.19941 40.37 1.83059 43.84 3.47059 46.49C4.58059 48.3 6.05059 49.94 7.42059 51.55C9.52059 54.02 11.9406 55.56 15.1506 56.27C15.4306 56.33 16.4006 56.67 15.8106 56.71C15.2706 56.59 11.2006 55.58 12.5906 57.12C12.9806 57.56 13.3706 57.99 13.7706 58.43C13.9006 58.58 14.0406 58.73 14.1906 58.87C15.0706 59.69 15.9606 60.5 16.8506 61.3C18.1106 62.43 19.4106 63.53 20.7606 64.56C23.1406 66.38 25.7206 68.1 28.5606 69.13C38.7606 72.8 42.6306 71.78 44.8806 73.01C47.1206 74.23 44.8806 80.35 43.0406 80.35C41.2006 80.35 39.5706 83 43.8606 83.61C48.1406 84.22 52.4306 76.68 52.4306 76.68C52.4306 76.68 54.6706 80.76 54.6706 81.37C54.6706 81.98 51.8106 82.8 54.0606 83.61C56.3006 84.43 60.3806 84.02 60.3806 81.98C60.3806 79.94 59.7706 76.07 59.7706 76.07C59.7706 76.07 77.3106 76.68 82.4106 76.48C87.5106 76.28 93.4206 80.15 93.6306 81.37C93.8306 82.59 90.1306 83.44 92.7806 84.67C95.4306 85.89 98.9306 85.45 99.3406 83.82C99.7506 82.19 100.421 76.97 100.421 76.97C100.421 76.97 102.481 80.07 102.691 80.89C102.891 81.71 99.9506 84.03 103.831 84.03C107.711 84.03 109.401 82.4 109.401 81.38C109.401 80.36 108.681 72.23 109.291 69.98C109.901 67.74 113.811 49.35 102.191 34.46L102.181 34.45Z" fill="#F9AE75"/>
<path d="M106.67 79.58C106.54 78.11 105.03 75.27 102.94 75.45C100.85 75.63 100.4 76.96 100.4 76.96C100.4 76.96 102.46 80.06 102.67 80.88C102.87 81.67 100.11 83.89 103.53 84.01C103.44 83.65 103.36 83.18 103.6 82.62C104.22 81.15 106.8 81.06 106.67 79.6V79.58Z" fill="#DD9362"/>
<path d="M102.18 34.45C90.5504 19.56 64.0404 18.95 46.7004 20.99C46.7004 20.99 37.9304 21.81 26.5104 30.17C24.0504 31.97 21.9704 33.55 20.1504 34.93C21.1104 35.46 26.8604 38.79 28.4604 43.6C30.2104 48.85 38.3804 54.98 40.4304 59.65C42.4804 64.32 59.9804 70.16 71.9504 72.49C80.5204 74.16 94.1704 76.58 107.88 73.96C107.72 72.53 107.67 71.17 107.9 70.34C108.51 68.1 113.81 49.33 102.19 34.44L102.18 34.45Z" fill="#DD9362"/>
<path d="M5.48035 40.49C5.48035 40.49 1.21035 37.85 0.270352 39.04C-0.469648 39.99 0.460352 44.83 1.55035 45.22C2.64035 45.61 7.07035 41.77 5.48035 40.49Z" fill="#682616"/>
<path d="M23.2903 32.52C23.8603 37.01 29.9203 40.29 29.9203 40.29L28.5603 37.18C28.5603 37.18 34.5903 42.82 35.3703 40.68C36.1503 38.54 41.7903 32.51 43.9303 37.18C46.0703 41.85 40.2303 45.74 40.2303 45.74C37.5103 55.47 49.1803 62.28 49.1803 62.28C47.2303 59.36 48.8903 55.28 48.8903 55.28C48.8903 55.28 50.3503 59.07 52.3903 61.7C54.4303 64.33 57.2103 65.49 57.2103 65.49C56.1903 63.74 57.0603 59.8 57.0603 59.8C57.0603 59.8 57.7903 62.13 61.5803 65.78C65.3703 69.43 68.2903 69.57 68.2903 69.57C68.2903 69.57 67.4103 69.13 66.1003 67.09C64.7903 65.05 64.2003 61.11 64.2003 61.11C64.2003 61.11 65.2203 63.01 67.9903 66.07C70.7603 69.13 77.6203 71.03 77.6203 71.03C75.7203 68.7 75.5803 64.9 75.5803 64.9C75.5803 64.9 76.3103 66.36 79.8103 69.42C83.3103 72.48 84.7703 72.48 84.7703 72.48C84.7703 72.48 84.1903 71.9 83.4603 70.58C82.7303 69.27 83.0203 67.95 83.0203 67.95C83.0203 67.95 87.8403 70.87 90.6103 72.04C93.3803 73.21 98.9303 74.23 98.9303 74.23C97.1803 73.5 94.4103 70.29 94.4103 70.29C94.4103 70.29 96.6003 71.31 104.04 73.5C111.48 75.69 115.13 73.06 115.13 73.06L113.09 70.43C111.05 67.8 111.05 63.81 111.05 63.81L117.86 66.92C117.86 63.13 112.22 56.02 112.22 56.02L119.03 59.33C117.28 51.45 110.58 46.54 110.58 46.54L119.61 50.38C118.05 42.01 109.2 37.45 109.2 37.45C113.06 38 118.84 40.2 118.84 40.2C115.54 29.74 106.72 27.26 106.72 27.26C111.95 26.71 119.66 28.36 119.66 28.36C113.05 20.37 104.51 19.55 104.51 19.55C108.09 17.07 117.18 15.69 117.18 15.69C101.76 9.36001 96.5203 11.99 96.5203 11.99C99.0003 8.69001 105.16 4.88001 105.16 4.88001C91.3903 3.78001 84.8403 6.66001 84.8403 6.66001C86.7703 2.25001 92.9703 -0.959989 92.9703 -0.959989C77.5503 -2.05999 67.3103 5.65001 67.3103 5.65001C70.0603 1.24001 72.9003 -1.96999 72.9003 -1.96999C59.1303 -0.589989 49.7703 10.15 49.7703 10.15C51.7003 4.92001 58.3103 -2.51999 58.3103 -2.51999C42.8903 3.81001 36.5003 15.43 36.5003 15.43C36.7803 12.95 39.8003 5.79001 39.8003 5.79001C24.6503 16.25 23.2803 32.5 23.2803 32.5L23.2903 32.52Z" fill="#682616"/>
<path d="M34.1308 37.83C34.1308 35.71 34.1308 33.59 34.1308 31.47C32.8008 32.98 31.4708 34.5 30.1408 36.01C29.9808 34.13 29.5208 32.28 28.7908 30.54C27.9808 32.15 26.9508 33.64 25.7308 34.96C25.1708 32.81 24.6208 30.66 24.0608 28.51C23.4308 30.97 23.3008 32.52 23.3008 32.52C23.8708 37.01 29.9308 40.29 29.9308 40.29L28.5708 37.18C28.5708 37.18 34.6008 42.82 35.3808 40.68C36.1608 38.54 41.8008 32.51 43.9408 37.18C46.0808 41.85 40.2408 45.74 40.2408 45.74C37.5208 55.47 49.1908 62.28 49.1908 62.28C47.2408 59.36 48.9008 55.28 48.9008 55.28C48.9008 55.28 50.3608 59.07 52.4008 61.7C54.4408 64.33 57.2208 65.49 57.2208 65.49C56.2008 63.74 57.0708 59.8 57.0708 59.8C57.0708 59.8 57.8008 62.13 61.5908 65.78C65.3808 69.43 68.3008 69.57 68.3008 69.57C68.3008 69.57 67.4208 69.13 66.1108 67.09C64.8008 65.05 64.2108 61.11 64.2108 61.11C64.2108 61.11 65.2308 63.01 68.0008 66.07C70.7708 69.13 77.6308 71.03 77.6308 71.03C75.7308 68.7 75.5908 64.9 75.5908 64.9C75.5908 64.9 76.3208 66.36 79.8208 69.42C83.3208 72.48 84.7808 72.48 84.7808 72.48C84.7808 72.48 84.2008 71.9 83.4708 70.58C82.7408 69.27 83.0308 67.95 83.0308 67.95C83.0308 67.95 87.8508 70.87 90.6208 72.04C93.3908 73.21 98.9408 74.23 98.9408 74.23C97.1908 73.5 94.4208 70.29 94.4208 70.29C94.4208 70.29 96.6108 71.31 104.051 73.5C111.491 75.69 115.141 73.06 115.141 73.06L113.101 70.43C111.061 67.8 111.061 63.81 111.061 63.81L117.871 66.92C117.871 63.13 112.231 56.02 112.231 56.02L119.041 59.33C117.291 51.45 110.591 46.54 110.591 46.54L119.621 50.38C118.061 42.01 109.211 37.45 109.211 37.45C113.071 38 118.851 40.2 118.851 40.2C115.551 29.74 106.731 27.26 106.731 27.26C111.961 26.71 119.671 28.36 119.671 28.36C118.451 26.89 117.171 25.67 115.891 24.64C109.131 22.17 102.051 20.59 94.8708 19.99C102.311 23.79 108.541 29.91 112.481 37.27C109.801 35.27 106.721 33.8 103.491 32.95C106.481 37.56 108.901 42.53 110.701 47.72C108.291 45.85 105.471 44.5 102.491 43.8C104.611 48.66 106.731 53.52 108.851 58.38C105.261 56.79 101.441 55.71 97.5508 55.17C98.8808 59.54 100.871 63.7 103.451 67.47C92.5908 64.35 82.6008 58.22 74.9008 49.95C74.5208 54.41 74.8808 58.92 75.9708 63.26C68.3308 58.72 63.7308 50.56 59.4708 42.75C58.4408 48.11 58.9008 53.74 60.7908 58.86C54.4508 54.45 49.9608 47.44 48.6108 39.83C47.0808 43.58 45.5608 47.33 44.0308 51.08C44.4008 45.22 45.2708 39.4 46.6308 33.69C44.9608 33.97 43.3008 34.25 41.6308 34.53C41.6908 33.69 41.7608 32.86 41.8208 32.02C38.8808 33.35 36.2308 35.32 34.1208 37.77L34.1308 37.83Z" fill="#561D11"/>
<path d="M41.8303 41.15C42.6503 40.53 42.7603 37.24 40.4903 38.06C38.2203 38.88 35.9603 43.31 35.9603 43.31C35.1403 45.47 36.6803 45.68 37.7103 46.19C38.7403 46.7 38.1203 45.47 38.2203 44.85C38.3203 44.23 39.3503 44.34 39.9703 44.13C40.5903 43.92 39.8703 43.1 39.8703 42.59C39.8703 42.08 41.0003 41.77 41.8303 41.15Z" fill="#DD9362"/>
<path d="M55.2502 70.59C55.1802 69.93 52.4102 76.67 52.4102 76.67C52.4102 76.67 55.2602 76.59 57.3202 77.39C58.7102 77.93 59.5102 78.52 60.2402 79.89C60.0602 78.02 59.7502 76.06 59.7502 76.06C59.7502 76.06 55.2502 75.77 55.0502 75.58C54.8502 75.38 55.3202 71.26 55.2502 70.6V70.59Z" fill="#DD9362"/>
<path d="M38.7708 17.47C37.6408 19.9 36.6408 22.58 37.0508 25.25C37.8808 22.71 39.1508 20.32 40.7708 18.25C41.4408 20.07 42.1108 21.89 42.7808 23.72C45.1608 20.09 48.3408 17.05 52.0108 14.93C51.4808 17.35 50.7308 19.72 49.7608 21.99C54.7608 19.44 59.7508 16.9 64.7508 14.35C64.4208 16.49 64.2808 18.66 64.3508 20.82C67.9308 18.83 71.8208 17.46 75.8108 16.77C75.1008 18.68 74.3908 20.58 73.6708 22.49C76.7908 21.91 79.9008 21.33 83.0208 20.75C82.3008 22.04 81.5908 23.34 80.8708 24.63C83.7908 23.95 86.8308 23.83 89.7908 24.28C88.7008 25.07 87.6908 25.96 86.7608 26.94C89.9508 27.54 93.0908 28.41 96.1508 29.53C94.0908 30.49 92.0208 31.46 89.9608 32.42C95.0508 35.1 99.9008 38.27 104.441 41.88C102.781 37.77 99.9708 34.19 96.4508 31.71C98.5408 32.3 100.621 32.89 102.711 33.48C101.011 29.7 97.8308 26.69 94.0908 25.33C96.0808 24.85 98.0808 24.37 100.071 23.9C95.7008 22.24 91.0808 21.33 86.4408 21.22C88.4708 19.7 90.5008 18.17 92.5308 16.65C87.4908 16.43 82.4108 16.99 77.5208 18.32C78.8108 15.83 80.1108 13.34 81.4008 10.84C76.3508 12.3 71.2908 13.76 66.2408 15.21C67.2008 12.96 68.4008 10.82 69.8008 8.85001C64.4408 10.71 59.2908 13.22 54.4708 16.32C55.3308 13.98 56.1908 11.64 57.0408 9.29001C53.5408 10.49 50.1908 12.16 47.0908 14.27C45.1908 15.56 43.3008 17.13 42.4308 19.34C42.4608 16.42 42.5008 13.49 42.5308 10.57C41.1208 12.78 39.8508 15.09 38.7308 17.48L38.7708 17.47Z" fill="#7F3121"/>
<path d="M38.7607 28.56C39.0707 28.39 39.3807 28.22 39.6907 28.04C39.7307 29.09 39.7807 30.14 39.8207 31.18C41.3907 30.23 42.9607 29.28 44.5307 28.33L44.0107 31.05C46.6307 29.82 49.3107 28.74 52.0507 27.82C51.2107 29.25 50.7207 30.9 50.6207 32.58C54.2607 31.38 58.0407 30.65 61.8507 30.42C60.4707 31.82 59.0807 33.21 57.7007 34.61C61.1407 33.29 64.8407 32.72 68.5007 32.95C67.2207 34.24 65.9507 35.53 64.6707 36.83C68.5707 36.42 72.4707 36.02 76.3707 35.61C75.8307 36.39 75.2807 37.16 74.7407 37.94C76.8907 38.43 79.0507 38.95 81.0507 39.91C82.7007 40.71 84.2107 41.8 85.7607 42.82C89.7907 45.47 94.3907 47.68 99.1007 47.17C94.7807 45.29 90.5407 43.18 86.4107 40.87C87.6007 40.53 88.8007 40.19 89.9907 39.85C85.9307 39 81.9607 37.64 78.1907 35.82C79.4107 34.97 80.6407 34.13 81.8607 33.28C78.3807 33.13 74.8907 33.2 71.4207 33.49C72.5007 32.47 73.5707 31.46 74.6507 30.44C71.3207 30.34 67.9907 30.55 64.7007 31.06C65.6507 29.56 66.6107 28.06 67.5607 26.56C63.6007 27.81 59.5607 28.78 55.4807 29.47C56.1707 27.52 56.8707 25.57 57.5607 23.62C54.0207 24.88 50.5507 26.39 47.2007 28.14C47.6107 26.83 48.0107 25.53 48.4207 24.22C46.0007 25.88 43.5407 27.47 41.0307 28.97C41.0407 27.58 41.0607 26.19 41.0707 24.79C40.3007 26.03 39.5407 27.28 38.7707 28.52L38.7607 28.56Z" fill="#7F3121"/>
<path d="M23.0402 45.59C23.0402 47.88 21.1802 49.74 18.8902 49.74C16.6002 49.74 14.7402 47.88 14.7402 45.59C14.7402 43.3 16.6002 41.44 18.8902 41.44C21.1802 41.44 23.0402 43.3 23.0402 45.59Z" fill="#231F20"/>
<path d="M20.4205 45.33C21.1717 45.33 21.7805 44.7211 21.7805 43.97C21.7805 43.2189 21.1717 42.61 20.4205 42.61C19.6694 42.61 19.0605 43.2189 19.0605 43.97C19.0605 44.7211 19.6694 45.33 20.4205 45.33Z" fill="white"/>
</g>
<defs>
<clipPath id="clip0_161_3301">
<rect width="119.67" height="91" fill="white" transform="translate(0 -2.5)"/>
</clipPath>
</defs>
</svg>
