<svg width="104" height="120" viewBox="0 0 104 120" fill="none" xmlns="http://www.w3.org/2000/svg">
<path d="M6.28151 71.317C8.32151 70.577 11.4815 76.147 17.6115 76.887C23.7415 77.627 28.3915 65.187 28.3915 65.187C30.6215 62.027 27.2815 55.717 25.2315 55.157C23.1915 54.597 22.0715 55.527 20.0315 58.127C17.9915 60.727 17.2415 65.557 14.6415 66.117C12.0415 66.677 5.72151 62.957 2.75151 64.627C-0.218489 66.297 -0.588489 72.427 0.711511 73.357C2.01151 74.287 4.24151 72.057 6.28151 71.317Z" fill="#D85B2A"/>
<path d="M47.4817 56.217C50.3017 64.677 63.4617 80.187 62.5217 88.637C61.5817 97.087 70.9817 106.967 70.9817 106.967C70.9817 106.967 73.8017 114.487 88.3717 110.257C102.942 106.027 108.112 85.347 97.7717 71.727C87.4317 58.097 81.7917 61.857 76.1517 51.987C70.5117 42.117 86.0217 36.007 92.6017 40.707V36.477C92.6017 36.477 102.472 38.357 103.882 41.177C103.882 41.177 99.1817 29.427 93.5417 25.667L87.9017 21.907L92.1317 19.557C92.1317 19.557 74.2717 12.037 60.1817 20.967C46.0817 29.897 49.3717 46.817 49.3717 46.817L46.0817 41.177C46.0817 41.177 45.4317 50.017 47.4917 56.217H47.4817Z" fill="#D85B2A"/>
<g style="mix-blend-mode:multiply" opacity="0.5">
<path d="M70.9716 106.967C70.9716 106.967 73.7916 114.487 88.3616 110.257C100.882 106.627 106.452 90.847 101.212 77.827C101.022 79.927 100.782 82.237 100.482 84.487C99.5316 91.467 91.9116 95.277 91.9116 95.277C91.9116 95.277 93.5016 90.837 93.5016 87.977C93.5016 85.117 91.2816 77.827 91.2816 77.827C91.2816 77.827 90.3316 81.957 89.0616 84.807C87.7916 87.667 83.3516 89.247 83.3516 89.247C83.3516 89.247 83.3516 87.347 82.0816 79.727C80.8116 72.107 70.0216 66.087 70.0216 66.087L70.6516 71.797C71.2816 77.507 66.8416 82.907 66.8416 82.907C66.8416 82.907 64.8716 84.657 62.5416 87.177C62.5716 87.687 62.5716 88.187 62.5216 88.657C61.5816 97.117 70.9816 106.987 70.9816 106.987L70.9716 106.967Z" fill="#D85B2A"/>
</g>
<path d="M47.4814 56.217C47.5714 56.477 47.6614 56.737 47.7714 57.007C49.9414 59.127 52.6914 61.407 55.7114 62.907C55.7114 62.907 52.8914 51.277 54.6514 44.937L58.5314 50.227C58.5314 50.227 57.8314 35.427 65.2314 29.437C72.6314 23.447 81.0914 25.917 81.0914 25.917C81.0914 25.917 74.0414 22.037 66.2914 22.397C66.2914 22.397 80.1614 17.697 91.9114 19.707L92.1414 19.577C92.1414 19.577 74.2814 12.057 60.1914 20.987C46.1014 29.917 49.3814 46.837 49.3814 46.837L46.0914 41.197C46.0914 41.197 45.4414 50.037 47.5014 56.237L47.4814 56.217Z" fill="#EC7136"/>
<path d="M11.4914 116.707C10.7814 120.937 53.4314 119.937 61.5414 118.177C69.6514 116.417 81.6614 105.777 76.7214 89.907C71.7814 74.037 57.3314 71.217 47.4514 64.867C37.5814 58.517 37.2214 43.357 37.2214 43.357C19.5914 39.477 14.6514 48.647 15.3614 61.697C16.0714 74.747 18.8914 86.027 18.8914 86.027C18.8914 86.027 16.4214 87.437 15.3614 95.897C14.3014 104.357 22.0614 112.117 22.0614 112.117C22.0614 112.117 12.1914 112.467 11.4814 116.697L11.4914 116.707Z" fill="#EC7136"/>
<path d="M11.4916 116.707C11.1616 118.687 20.2816 119.517 30.9216 119.667C28.7316 114.897 24.1516 102.147 23.6716 99.777C23.1216 97.047 22.3016 91.847 21.6216 89.387C21.2716 88.127 19.6716 87.267 18.2016 86.727C17.3916 87.777 16.0716 90.277 15.3716 95.897C14.3116 104.357 22.0716 112.117 22.0716 112.117C22.0716 112.117 12.2016 112.467 11.4916 116.697V116.707Z" fill="#C94C27"/>
<g style="mix-blend-mode:multiply" opacity="0.5">
<path d="M49.9314 66.347C49.0814 65.867 48.2514 65.387 47.4514 64.867C40.4714 60.387 38.2514 51.497 37.5514 46.677C34.4414 48.077 31.4614 51.347 31.4614 51.347C31.4614 51.347 32.6014 61.207 38.0314 65.637C43.1414 69.807 50.4014 69.927 49.9314 66.347Z" fill="#D85B2A"/>
</g>
<path d="M43.2515 85.117C36.6715 82.767 33.8515 79.007 30.5615 73.137C27.2715 67.267 27.0415 59.037 26.8015 52.227C26.6615 48.257 24.4515 45.567 22.4015 44.017C16.6915 46.897 14.9015 51.737 14.5615 59.907C14.0215 73.097 16.1215 89.107 21.1615 103.687C23.4115 110.217 30.2515 119.337 30.9715 119.337C30.3515 118.037 30.1215 116.527 31.2615 114.967C33.8415 111.447 43.0115 111.447 43.0115 111.447C43.0115 111.447 32.4415 110.747 33.1415 99.467C33.8415 88.187 43.2415 85.137 43.2415 85.137L43.2515 85.117Z" fill="#FFC9A1"/>
<path d="M25.9217 85.167C34.9217 84.667 32.1717 76.667 32.1717 76.667C32.1717 76.667 25.4217 75.167 24.4217 75.167C23.6517 75.167 17.6517 74.567 14.9717 74.297C15.2117 77.007 15.5517 79.757 15.9817 82.527C17.8817 83.947 21.0517 85.437 25.9217 85.167Z" fill="#E29052"/>
<path d="M13.8914 76.337C15.9314 75.597 19.0914 81.167 25.2214 81.907C31.3514 82.647 36.0014 70.207 36.0014 70.207C38.2314 67.047 34.8914 60.737 32.8414 60.177C30.8014 59.617 29.6814 60.547 27.6414 63.147C25.6014 65.747 24.8514 70.577 22.2514 71.137C19.6514 71.697 13.3314 67.977 10.3614 69.647C7.39137 71.317 7.02137 77.447 8.32137 78.377C9.62137 79.307 11.8514 77.077 13.8914 76.337Z" fill="#EC7136"/>
<path d="M4.57154 28.747C0.861537 32.067 -1.08846 40.947 2.29154 45.717C5.67154 50.487 16.9215 56.787 28.2915 57.527C39.6615 58.267 49.7515 53.487 50.4915 44.217C51.2215 34.947 47.6415 32.707 46.3115 25.837C44.9815 18.957 44.0915 18.287 44.1215 17.847C44.1515 17.407 47.6215 5.32699 43.5315 3.50699C39.4515 1.68699 33.1615 13.827 33.1615 13.827C33.1615 13.827 29.0215 12.747 26.0115 13.117C26.0115 13.117 23.2215 -1.31301 18.1015 0.0969886C12.9815 1.49699 14.7415 15.097 14.7415 15.097C14.7415 15.097 8.28154 25.427 4.58154 28.747H4.57154Z" fill="#EC7136"/>
<path d="M28.0513 57.507C28.1313 57.507 28.2113 57.517 28.2913 57.527C39.6613 58.267 49.7513 53.487 50.4913 44.217C51.2213 34.947 47.6413 32.707 46.3113 25.837C44.9813 18.957 44.0913 18.287 44.1213 17.847C44.1513 17.407 47.6213 5.32699 43.5313 3.50699C39.4513 1.68699 33.1613 13.827 33.1613 13.827C33.1613 13.827 32.5813 13.677 31.6913 13.507C33.7213 14.357 36.4613 15.657 38.4213 17.197C41.9213 19.947 40.4213 29.947 41.4213 31.937C42.4213 33.937 49.1713 37.687 46.4213 45.677C44.6013 50.957 36.9013 55.477 28.0613 57.507H28.0513Z" fill="#E2511E"/>
<path d="M26.6114 58.057C37.9814 58.797 50.7614 54.657 50.4814 44.217C50.4514 43.157 50.5914 42.207 50.5714 41.317C36.6914 32.057 23.3414 40.207 23.3414 40.207C14.7514 32.707 5.60139 34.467 0.851388 36.197C0.201388 39.567 0.371388 44.417 2.14139 46.927C5.52139 51.707 15.2214 57.317 26.6014 58.057H26.6114Z" fill="#FFC9A1"/>
<g style="mix-blend-mode:multiply" opacity="0.5">
<path d="M39.6615 50.927C32.1715 52.967 17.6815 57.897 4.0415 49.057C8.4215 53.237 16.9015 57.427 26.6115 58.057C37.9815 58.797 50.7615 54.657 50.4815 44.217C50.4515 43.157 50.5915 42.207 50.5715 41.317C49.4415 40.567 48.3215 39.937 47.2115 39.407C47.1915 39.417 47.1715 39.427 47.1515 39.437C47.1515 39.437 47.9015 48.687 39.6515 50.937L39.6615 50.927Z" fill="#FFC9A1"/>
</g>
<path d="M23.5013 41.557C24.5413 41.067 26.1713 40.097 26.4113 38.817C26.7613 36.907 23.6113 36.527 23.6113 36.527C23.6113 36.527 20.5213 35.827 20.1713 37.727C19.9413 39.007 21.1213 40.457 21.9313 41.277C22.3413 41.687 22.9713 41.797 23.5013 41.547V41.557Z" fill="#682616"/>
<path d="M22.1315 49.227C23.4115 49.607 24.1115 45.467 24.1115 45.467L22.3115 42.857L19.5615 44.457C19.5015 44.547 18.6515 47.677 19.1815 48.427C19.9015 49.427 20.8815 48.387 21.5815 45.737C21.5815 45.737 20.8415 48.847 22.1215 49.227H22.1315Z" fill="white"/>
<path d="M18.9714 44.307C16.6914 45.007 14.4414 43.587 14.4414 43.587C17.7314 47.017 22.1614 43.667 22.1614 43.667C24.2914 48.067 28.9714 46.627 28.9714 46.627C28.9714 46.627 26.9814 46.797 24.8414 45.317C22.7014 43.837 22.9214 40.907 22.9214 40.907C22.9214 40.907 21.2414 43.607 18.9614 44.307H18.9714Z" fill="#682616"/>
<path d="M24.0614 12.637C24.1514 11.767 22.7914 7.81698 22.5114 7.65698C22.2314 7.49698 21.9514 9.21698 21.9514 9.21698C21.9514 9.21698 21.7214 7.97698 21.0214 6.04698C20.3214 4.11698 18.8614 2.41698 18.5614 2.35698C18.2714 2.29698 17.5914 2.54698 16.9614 4.38698C16.3314 6.22698 16.6414 8.96698 16.4814 9.22698C16.3214 9.48698 15.6614 7.86698 15.6914 9.05698C15.7214 10.247 16.7214 14.027 16.7214 14.027C18.7214 12.967 20.2114 13.197 20.9414 13.157C21.6714 13.117 20.1514 12.097 20.1514 12.097C20.1514 12.097 23.9514 13.507 24.0514 12.637H24.0614Z" fill="#FFC9A1"/>
<path d="M37.4216 9.66699C37.1216 9.76699 35.0116 13.387 34.9416 14.267C34.8616 15.137 38.8716 14.477 38.8716 14.477C38.8716 14.477 37.1816 15.187 37.8916 15.367C38.6016 15.547 40.1016 15.597 41.8616 17.027C41.8616 17.027 43.5716 13.507 43.8416 12.347C44.1116 11.177 43.1416 12.647 43.0416 12.367C42.9316 12.077 43.7616 9.45699 43.5116 7.52699C43.2516 5.59699 42.6416 5.22699 42.3416 5.22699C42.0416 5.22699 40.2716 6.62699 39.2116 8.38699C38.1516 10.147 37.6816 11.317 37.6816 11.317C37.6816 11.317 37.7316 9.57699 37.4316 9.67699L37.4216 9.66699Z" fill="#FFC9A1"/>
<path d="M38.2816 30.457C38.2816 32.707 36.4616 34.527 34.2116 34.527C31.9616 34.527 30.1416 32.707 30.1416 30.457C30.1416 28.207 31.9616 26.387 34.2116 26.387C36.4616 26.387 38.2816 28.207 38.2816 30.457Z" fill="#231F20"/>
<path d="M37.0418 28.877C37.0418 29.617 36.4418 30.207 35.7118 30.207C34.9818 30.207 34.3818 29.607 34.3818 28.877C34.3818 28.147 34.9818 27.547 35.7118 27.547C36.4418 27.547 37.0418 28.147 37.0418 28.877Z" fill="white"/>
<path d="M21.5614 28.157C21.5614 30.407 19.7414 32.227 17.4914 32.227C15.2414 32.227 13.4214 30.407 13.4214 28.157C13.4214 25.907 15.2414 24.087 17.4914 24.087C19.7414 24.087 21.5614 25.907 21.5614 28.157Z" fill="#231F20"/>
<path d="M20.3216 26.567C20.3216 27.307 19.7216 27.897 18.9916 27.897C18.2616 27.897 17.6616 27.297 17.6616 26.567C17.6616 25.837 18.2616 25.237 18.9916 25.237C19.7216 25.237 20.3216 25.837 20.3216 26.567Z" fill="white"/>
</svg>
