<svg width="155" height="81" viewBox="0 0 155 81" fill="none" xmlns="http://www.w3.org/2000/svg">
<g clip-path="url(#clip0_49_368)">
<path d="M44.5325 47.522C44.5325 47.522 49.7824 55.1708 41.6174 63.0952C33.4498 71.0195 12.9544 67.5774 4.81673 62.055C-3.32094 56.5325 -0.24241 55.2275 7.36129 54.8439C18.4876 54.2819 28.4479 47.9786 26.9467 43.1261C25.4456 38.2737 44.5352 47.522 44.5352 47.522H44.5325Z" fill="#B3B821"/>
<path d="M41.6175 63.0925C33.4498 71.0168 12.9544 67.5747 4.81676 62.055C0.177172 58.9074 -0.817221 57.1296 0.591276 56.1164C1.36227 56.9729 2.62638 58.0023 4.4626 59.2478C12.6003 64.7676 33.0957 68.2124 41.2633 60.2853C44.8377 56.8216 45.843 53.4065 45.843 50.6615C46.5894 53.6199 46.5513 58.3103 41.6175 63.0925Z" fill="#7C992D"/>
<path d="M104.823 38.1494C104.823 38.1494 115.41 41.3538 113.794 54.7007C112.179 68.0476 90.6451 79.9706 78.9794 80.8622C67.3137 81.7538 69.1853 78.2793 75.9281 72.3191C85.7985 63.5977 90.2855 50.4291 85.2591 47.0491C80.2354 43.6665 104.82 38.1521 104.82 38.1521L104.823 38.1494Z" fill="#B3B821"/>
<path d="M113.797 54.7007C112.178 68.0448 90.6478 79.9706 78.982 80.8595C71.8605 81.4026 69.7846 80.3191 70.7817 78.0388C72.1221 78.236 74.0019 78.2415 76.5056 78.0523C88.1713 77.1634 109.702 65.2377 111.32 51.8935C111.936 46.8033 110.778 43.1883 109.105 40.6648C111.83 43.01 114.693 47.2923 113.799 54.7007H113.797Z" fill="#7C992D"/>
<path d="M103.678 44.8013C103.174 45.0904 102.66 45.3741 102.128 45.655C101.036 46.2278 99.8834 46.779 98.6765 47.2977C98.2869 47.4707 97.8919 47.6355 97.4887 47.8003C96.0638 48.3785 94.5627 48.9242 92.9935 49.4295C92.4649 49.6024 91.9282 49.7672 91.3834 49.9266C91.1954 49.9833 91.0047 50.0374 90.814 50.0914C90.2909 50.2454 89.7569 50.3886 89.2175 50.5291C89.0758 50.5723 88.9342 50.6101 88.7898 50.6426C88.6454 50.6804 88.5037 50.7155 88.3593 50.7533C88.0678 50.8263 87.779 50.8965 87.4848 50.9668C86.6893 51.1613 85.8774 51.3423 85.0547 51.518C84.6433 51.6071 84.2292 51.6909 83.8124 51.7692C83.3901 51.8503 82.9705 51.9313 82.5482 52.007C82.145 52.0799 81.7364 52.1502 81.3305 52.2204C81.2923 52.2285 81.2569 52.2312 81.216 52.2393C80.8373 52.3015 80.4559 52.3636 80.0691 52.4231C79.7476 52.4717 79.4207 52.5203 79.0965 52.5662C78.7695 52.6149 78.4454 52.6608 78.1157 52.704C77.9522 52.7284 77.7861 52.75 77.6199 52.7662C76.9687 52.8553 76.3149 52.931 75.6529 53.0012C75.3232 53.0391 74.9909 53.0742 74.6585 53.1066C74.4324 53.1282 74.2062 53.1498 73.9801 53.1688C73.3372 53.2309 72.6833 53.2876 72.0267 53.3336C71.6045 53.3687 71.1768 53.3957 70.7517 53.4254C70.3622 53.4497 69.9726 53.4714 69.583 53.493C69.0872 53.52 68.5859 53.547 68.0819 53.5632C67.8421 53.574 67.5969 53.5848 67.3517 53.5902C67.1392 53.5983 66.924 53.6037 66.7088 53.6118C66.4936 53.62 66.2783 53.6254 66.0604 53.6308C65.6572 53.6416 65.2567 53.6497 64.8617 53.6551C64.4612 53.6632 64.0689 53.6659 63.6738 53.6686C62.4397 53.6794 61.2274 53.6767 60.0423 53.6578C59.7153 53.6551 59.3911 53.647 59.0669 53.6389C57.9935 53.6145 56.9474 53.5794 55.9176 53.5335C55.3291 53.5065 54.7488 53.4741 54.1767 53.4416C54.0786 53.4389 53.9778 53.4308 53.8825 53.4227C53.5419 53.4011 53.2068 53.3795 52.8745 53.3606C52.6211 53.3417 52.3677 53.3255 52.1171 53.3038C50.8394 53.2093 49.5998 53.0958 48.3929 52.9661C47.3876 52.858 46.4041 52.7392 45.4478 52.6041C45.2381 52.5771 45.031 52.5473 44.8212 52.5149C44.1538 52.4204 43.4945 52.3177 42.8488 52.2123C42.2576 52.1151 41.6746 52.0124 41.1052 51.9043C29.2515 49.7077 21.9366 45.7307 19.5446 41.6267C19.1387 40.9269 18.8717 40.2271 18.7518 39.5274C18.7191 39.3625 18.6973 39.195 18.6891 39.0302C18.6292 38.2305 18.8553 37.1552 19.343 35.8745C19.3702 35.8043 19.4002 35.7313 19.4274 35.6584C20.5989 32.7242 23.1053 28.758 26.7124 24.5405C27.5651 23.5408 28.4805 22.5303 29.4558 21.5118C29.9408 21.0065 30.4393 20.4986 30.9569 19.9879C37.1794 13.8413 45.4669 7.73797 55.1493 3.92573C55.7132 3.70148 56.2772 3.48803 56.852 3.2827C57.6557 2.9909 58.4649 2.71802 59.2876 2.46135C59.9742 2.2425 60.6689 2.04257 61.3663 1.85344C62.0065 1.67783 62.6549 1.51572 63.3061 1.36442C64.4884 1.09154 65.6844 0.851077 66.894 0.656547C67.4771 0.561984 68.0682 0.478228 68.6594 0.405279C69.9344 0.24047 71.2203 0.124292 72.528 0.0567471C82.5864 -0.459297 91.2526 2.13443 98.1234 6.03853C98.6765 6.35194 99.2132 6.67076 99.7417 7.00038C100.796 7.65691 101.81 8.34857 102.768 9.05645C102.861 9.12669 102.956 9.19694 103.049 9.26719C103.994 9.97506 104.893 10.7072 105.738 11.4583C106.13 11.8069 106.514 12.1527 106.885 12.5066C107.776 13.3496 108.604 14.2061 109.361 15.0653C109.833 15.5894 110.271 16.1136 110.688 16.6377C113.492 20.1663 115.178 23.6516 115.598 26.3939C116.668 33.4348 112.132 39.9137 103.684 44.7932L103.678 44.8013Z" fill="#A3A932"/>
<path d="M28.0201 35.3017C28.0201 35.3017 18.6891 41.7077 6.84359 38.86C-4.99922 36.0123 12.7664 54.3413 28.9164 44.5554C45.0664 34.7668 28.0201 35.3017 28.0201 35.3017Z" fill="#B3B821"/>
<path d="M28.9138 44.5554C14.017 53.5848 -2.25568 38.6898 4.607 38.5574C7.25508 42.4048 18.9889 48.7567 29.9763 42.0995C32.9567 40.2947 34.8066 38.8384 35.8418 37.6712C36.1061 39.0356 34.4851 41.1835 28.9165 44.5581L28.9138 44.5554Z" fill="#7C992D"/>
<path d="M154.158 26.6749C153.417 28.8661 152.148 30.9735 150.205 32.835C144.217 38.5709 131.854 41.9563 108.953 38.1494L109.49 25.6941C109.49 25.6941 119.537 29.2524 125.64 19.4638C132.843 7.90818 139.637 2.02365 148.789 7.89467C152.981 10.5857 156.722 19.118 154.158 26.6749Z" fill="#B3B821"/>
<path d="M154.877 23.5057C154.747 24.5702 154.512 25.632 154.158 26.6749C153.417 28.8661 152.148 30.9735 150.205 32.835C144.217 38.5709 131.854 41.9563 108.953 38.1494L109.086 35.0072C132.006 38.1792 144.563 34.8316 150.764 29.3064C152.733 27.5476 154.063 25.5644 154.875 23.5057H154.877Z" fill="#7C992D"/>
<path d="M141.888 25.4483C137.837 25.4483 134.537 22.1791 134.535 18.1615C134.535 16.2135 135.295 14.3817 136.684 13.0011C138.071 11.6231 139.918 10.8612 141.882 10.8612C145.942 10.8612 149.241 14.1304 149.244 18.148C149.244 20.096 148.483 21.9278 147.094 23.3084C145.707 24.6864 143.86 25.4483 141.896 25.4483H141.888Z" fill="#353C2C"/>
<path d="M141.888 24.046C137.837 24.046 134.537 20.7769 134.535 16.7593C134.535 14.8113 135.295 12.9795 136.684 11.5988C138.071 10.2209 139.918 9.45901 141.882 9.45901C145.942 9.45901 149.241 12.7282 149.244 16.7458C149.244 18.6938 148.483 20.5256 147.094 21.9062C145.707 23.2841 143.86 24.046 141.896 24.046H141.888Z" fill="#7C992D"/>
<path d="M141.888 23.1085C145.428 23.1085 148.298 20.2622 148.298 16.7512C148.298 13.2401 145.428 10.3938 141.888 10.3938C138.347 10.3938 135.477 13.2401 135.477 16.7512C135.477 20.2622 138.347 23.1085 141.888 23.1085Z" fill="#FCF3D9"/>
<path d="M145.735 16.7485C145.735 18.8559 144.016 20.5634 141.891 20.5661C139.766 20.5661 138.044 18.8613 138.041 16.7539C138.041 14.6465 139.76 12.939 141.885 12.9362C144.01 12.9362 145.732 14.6411 145.735 16.7485Z" fill="black"/>
<path d="M144.111 14.6006C144.111 15.3571 143.492 15.9704 142.729 15.9731C141.967 15.9731 141.348 15.3598 141.345 14.6033C141.345 13.8468 141.964 13.2334 142.727 13.2307C143.49 13.2307 144.108 13.8441 144.111 14.6006Z" fill="#FAFAFA"/>
<path d="M146.65 9.64813C146.492 9.64813 146.331 9.5941 146.198 9.48602C144.993 8.49446 143.462 7.9487 141.885 7.9487C140.308 7.9487 138.782 8.49446 137.578 9.48602C137.275 9.73459 136.831 9.69136 136.581 9.39416C136.33 9.09696 136.371 8.65387 136.673 8.4053C138.131 7.203 139.983 6.54376 141.885 6.54376C143.787 6.54376 145.645 7.2057 147.102 8.4053C147.402 8.65387 147.445 9.09426 147.195 9.39416C147.056 9.56167 146.854 9.64813 146.65 9.64813Z" fill="#353C2C"/>
<path d="M154.158 26.6749C153.417 28.866 152.148 30.9734 150.205 32.835C147.636 32.4405 145.65 29.9089 145.65 26.8397V26.8127C145.653 26.0508 146.737 25.7049 147.271 26.2966C148.216 27.3395 149.497 27.9771 150.905 27.9771C152.134 27.9771 153.262 27.4935 154.158 26.6749Z" fill="#60612F"/>
<path d="M92.9934 49.4268C92.4649 49.5997 91.9282 49.7645 91.3833 49.9239C91.1953 49.9806 91.0046 50.0347 90.8139 50.0887C90.2908 50.2427 89.7569 50.3859 89.2174 50.5264C89.0758 50.5696 88.9341 50.6074 88.7897 50.6399C88.6453 50.6777 88.5036 50.7128 88.3592 50.7506C88.0677 50.8236 87.779 50.8938 87.4847 50.9641C86.6892 51.1613 85.8774 51.3423 85.0546 51.5152C84.6432 51.6044 84.2291 51.6882 83.8123 51.7665C83.39 51.8476 82.9705 51.9286 82.5482 52.0043C82.145 52.0772 81.7363 52.1475 81.3304 52.2177C81.2922 52.2258 81.2568 52.2285 81.216 52.2366C80.8373 52.2988 80.4559 52.3609 80.069 52.4204C79.7475 52.469 79.4206 52.5176 79.0964 52.5635C78.7695 52.6122 78.4453 52.6581 78.1156 52.7013C77.9522 52.7257 77.786 52.7473 77.6198 52.7635C76.9687 52.8526 76.3148 52.9283 75.6528 52.9985C75.3232 53.0364 74.9908 53.0715 74.6584 53.1039C74.4323 53.1255 74.2062 53.1471 73.9801 53.166C73.3371 53.2282 72.6833 53.2849 72.0267 53.3309C71.6044 53.366 71.1767 53.393 70.7517 53.4227C70.3621 53.447 69.9725 53.4687 69.5829 53.4903C69.0871 53.5173 68.5858 53.5443 68.0818 53.5605C67.8421 53.5713 67.5969 53.5821 67.3517 53.5875C67.1392 53.5956 66.924 53.601 66.7087 53.6091C66.4935 53.6173 66.2783 53.6227 66.0603 53.6281C65.6571 53.6389 65.2566 53.647 64.8616 53.6524C64.4611 53.6605 64.0688 53.6632 63.6738 53.6659C62.4396 53.6767 61.2273 53.674 60.0422 53.6551C59.7153 53.6524 59.3911 53.6443 59.0669 53.6362C57.9935 53.6118 56.9473 53.5767 55.9175 53.5308C55.3291 53.5038 54.7488 53.4714 54.1766 53.4389C54.0786 53.4362 53.9778 53.4281 53.8824 53.42C53.5419 53.3984 53.2068 53.3768 52.8744 53.3579C52.621 53.339 52.3677 53.3228 52.117 53.3011C50.8393 53.2066 49.5997 53.0931 48.3928 52.9634C48.7824 44.3582 50.1555 30.1035 54.9395 27.5989C61.8757 23.9623 78.6278 19.5935 83.4118 24.1514C87.2831 27.8394 92.7101 40.7053 92.9961 49.4187L92.9934 49.4268Z" fill="#60612F"/>
<path d="M81.5265 29.6712C77.0994 24.8674 62.7666 29.582 57.623 32.6567C54.667 34.4183 52.8172 41.3565 52.1116 53.3093C52.3622 53.3309 52.6156 53.3471 52.8689 53.366C53.2013 53.3876 53.5364 53.4092 53.877 53.4281C54.5308 42.6506 56.2335 35.5314 58.5302 34.1589C63.9925 30.8978 76.906 27.2585 80.2188 30.8519C82.9786 33.8482 86.6293 43.4882 87.482 50.9668C87.7762 50.8965 88.065 50.8263 88.3565 50.7534C88.5009 50.7155 88.6426 50.6804 88.787 50.6426C88.9314 50.6102 89.073 50.5723 89.2147 50.5291C88.2612 42.6236 84.458 32.8566 81.5238 29.6712H81.5265Z" fill="#A3A932"/>
<path d="M103.678 44.8013C103.174 45.0904 102.66 45.374 102.128 45.655C101.036 46.2278 99.8834 46.779 98.6765 47.2977C95.9903 41.9374 91.7349 32.4838 91.7349 26.2804C91.7349 19.7556 100.409 14.5465 106.874 12.5147C107.765 13.3577 108.593 14.2142 109.351 15.0733C109.822 15.5975 110.261 16.1216 110.677 16.6458C113.481 20.1743 115.167 23.6597 115.587 26.402C116.66 33.4429 112.121 39.9218 103.673 44.8013H103.678Z" fill="#60612F"/>
<path d="M110.555 16.5296L110.683 16.6458C110.266 16.1217 109.827 15.5975 109.356 15.0734C103.7 16.9862 96.2573 21.5469 96.2573 27.5692C96.2573 32.8701 99.6437 40.6567 102.128 45.655C102.66 45.3741 103.177 45.0904 103.678 44.8013C101.521 40.4352 98.0254 32.5945 98.0254 27.5692C98.0254 22.2926 105.517 18.0886 110.555 16.5296Z" fill="#A3A932"/>
<path d="M44.8186 52.523C44.1511 52.4285 43.4918 52.3258 42.8461 52.2204C42.2549 52.1232 41.6719 52.0205 41.1025 51.9124C29.2488 49.7158 21.9339 45.7388 19.5419 41.6348C19.136 40.935 18.869 40.2352 18.7491 39.5355C18.7164 39.3707 18.6946 39.2031 18.6864 39.0383C18.6265 38.2386 18.8526 37.1633 19.3403 35.8826C19.3675 35.8124 19.3975 35.7394 19.4248 35.6665C21.7704 32.1487 24.8762 28.7283 28.0392 28.8363C34.4987 29.0552 43.1131 29.6469 44.8976 31.9596C46.2271 33.6834 47.0144 44.5554 44.8186 52.523Z" fill="#60612F"/>
<path d="M42.0832 36.1393C40.7074 34.2372 36.0242 33.243 26.9085 32.9187C26.854 32.916 26.8022 32.916 26.7504 32.916C24.1895 32.916 21.5033 35.1423 18.7517 39.5382C18.8716 40.2379 19.1386 40.9377 19.5445 41.6375C22.1926 37.0606 24.778 34.6047 26.8458 34.6695C37.024 35.0343 39.9718 36.2285 40.6474 37.166C41.383 38.1792 42.0723 45.3551 41.1051 51.9151C41.6745 52.0232 42.2575 52.1259 42.8487 52.2231C43.8758 45.3957 43.2492 37.7415 42.0832 36.142V36.1393Z" fill="#A3A932"/>
<path d="M59.7236 18.1534C56.8521 21.5955 48.837 26.7316 44.4099 26.8343C40.6557 26.9234 33.5234 24.5459 26.7097 24.5459C27.5624 23.5462 28.4778 22.5357 29.4532 21.5171C29.9381 21.0119 30.4366 20.504 30.9543 19.9933C37.1767 13.8467 45.4642 7.74335 55.1466 3.93111C55.7106 3.70686 56.2745 3.49342 56.8494 3.28808C57.653 2.99629 58.4622 2.72341 59.2849 2.46674C60.3801 7.99462 61.5462 15.9649 59.7236 18.1507V18.1534Z" fill="#60612F"/>
<path d="M56.8494 3.2908C56.2773 3.49344 55.7106 3.70958 55.1466 3.93383C55.7651 8.72683 55.6561 11.9987 54.7925 13.0335C51.8801 16.5296 44.1021 21.3037 40.1408 21.3929C38.5825 21.428 36.3295 20.9984 33.7195 20.504C32.8232 20.3311 31.8996 20.1554 30.9516 19.9906C30.4339 20.4986 29.9354 21.0092 29.4504 21.5145C30.8072 21.736 32.1258 21.9846 33.3871 22.2277C35.978 22.7222 38.2311 23.1517 39.9529 23.1517C40.0319 23.1517 40.1082 23.149 40.1817 23.149C42.6473 23.0923 45.9192 21.709 48.9351 19.9069C51.9537 18.1021 54.7135 15.8812 56.1574 14.152C57.3997 12.6606 57.6258 9.01592 56.8467 3.2935L56.8494 3.2908Z" fill="#A3A932"/>
<path d="M103.041 9.27529C98.4966 12.9119 91.198 17.0781 89.8685 17.5644C86.6374 18.7532 68.011 19.9015 65.9432 18.5127C62.6985 16.3378 63.5267 8.0919 63.3005 1.37522C64.4829 1.10234 65.6789 0.86188 66.8885 0.66735C67.4715 0.572787 68.0627 0.489031 68.6539 0.416083C69.9289 0.251273 71.2148 0.135095 72.5225 0.0675503C82.5809 -0.448494 91.2471 2.14524 98.1179 6.04934C98.671 6.36275 99.2077 6.68156 99.7362 7.01118C100.791 7.66772 101.804 8.35938 102.763 9.06725C102.856 9.1375 102.951 9.20774 103.041 9.27799V9.27529Z" fill="#60612F"/>
<path d="M98.1181 6.04663C94.5764 8.75654 89.4083 11.6961 88.4847 12.0338C85.8312 13.0119 71.7517 13.663 70.3459 12.8795C68.6922 11.7717 68.6868 7.32999 68.6813 3.41238C68.6786 2.41541 68.6786 1.39683 68.6541 0.410675C68.0629 0.483624 67.4717 0.56738 66.8887 0.661943C66.9105 1.56434 66.9105 2.50187 66.9132 3.40967C66.9214 8.18646 66.9241 12.7012 69.3542 14.3277C70.0571 14.8005 72.2448 14.9869 74.9283 14.9869C80.2326 14.9869 87.4821 14.2709 89.0977 13.6738C90.3291 13.2253 96.1048 9.88589 99.7336 7.00037C99.2051 6.67075 98.6684 6.35194 98.1153 6.03853L98.1181 6.04663Z" fill="#A3A932"/>
<path d="M102 55.8787C102 56.4974 101.494 56.9999 100.87 56.9999C100.246 56.9999 99.739 56.4974 99.739 55.8787C99.739 55.26 100.246 54.7574 100.87 54.7574C101.494 54.7574 102 55.26 102 55.8787Z" fill="#60612F"/>
<path d="M99.7363 61.466C100.758 61.466 101.586 60.6446 101.586 59.6315C101.586 58.6183 100.758 57.7969 99.7363 57.7969C98.7147 57.7969 97.8865 58.6183 97.8865 59.6315C97.8865 60.6446 98.7147 61.466 99.7363 61.466Z" fill="#60612F"/>
<path d="M99.314 64.6595C99.314 65.0513 98.9925 65.3728 98.5947 65.3728C98.197 65.3728 97.8755 65.054 97.8755 64.6595C97.8755 64.265 98.197 63.9462 98.5947 63.9462C98.9925 63.9462 99.314 64.265 99.314 64.6595Z" fill="#60612F"/>
<path d="M94.5873 62.7007C94.5873 63.3897 94.0261 63.9462 93.3314 63.9462C92.6367 63.9462 92.0754 63.3897 92.0754 62.7007C92.0754 62.0117 92.6367 61.4552 93.3314 61.4552C94.0261 61.4552 94.5873 62.0117 94.5873 62.7007Z" fill="#60612F"/>
<path d="M98.2951 56.6514C98.2951 57.4754 97.6195 58.1455 96.7886 58.1455C95.9576 58.1455 95.282 57.4781 95.282 56.6514C95.282 55.8246 95.9576 55.1573 96.7886 55.1573C97.6195 55.1573 98.2951 55.8273 98.2951 56.6514Z" fill="#60612F"/>
<path d="M97.0393 62.7007C97.0393 62.9871 96.805 63.2195 96.5162 63.2195C96.2275 63.2195 95.9932 62.9871 95.9932 62.7007C95.9932 62.4143 96.2275 62.182 96.5162 62.182C96.805 62.182 97.0393 62.4143 97.0393 62.7007Z" fill="#60612F"/>
<path d="M96.083 67.0911C96.083 67.5288 95.7262 67.8828 95.2848 67.8828C94.8435 67.8828 94.4866 67.5288 94.4866 67.0911C94.4866 66.6534 94.8435 66.2995 95.2848 66.2995C95.7262 66.2995 96.083 66.6534 96.083 67.0911Z" fill="#60612F"/>
<path d="M104.109 57.4214C104.109 57.8213 103.782 58.1428 103.381 58.1428C102.981 58.1428 102.654 57.8186 102.654 57.4214C102.654 57.0242 102.981 56.7 103.381 56.7C103.782 56.7 104.109 57.0242 104.109 57.4214Z" fill="#60612F"/>
<path d="M125.789 32.1055C125.503 32.327 125.089 32.2784 124.866 31.9947C124.642 31.711 124.691 31.3004 124.977 31.0788C125.264 30.8573 125.678 30.9059 125.901 31.1896C126.124 31.4733 126.075 31.8839 125.789 32.1055Z" fill="#353C2C"/>
<path d="M123.912 33.2619C123.446 33.6239 122.771 33.5429 122.403 33.0808C122.035 32.6188 122.12 31.9488 122.585 31.584C123.051 31.222 123.727 31.3031 124.095 31.7651C124.46 32.2271 124.378 32.8971 123.912 33.2619Z" fill="#353C2C"/>
<path d="M120.779 34.0319C120.599 34.1724 120.335 34.1427 120.193 33.9617C120.052 33.7833 120.082 33.5213 120.264 33.3808C120.444 33.2403 120.708 33.27 120.85 33.451C120.992 33.632 120.962 33.8914 120.779 34.0319Z" fill="#353C2C"/>
<path d="M119.989 31.1896C119.673 31.4354 119.213 31.3814 118.965 31.0653C118.717 30.7492 118.771 30.2953 119.09 30.0494C119.409 29.8036 119.867 29.8576 120.114 30.1737C120.362 30.4898 120.308 30.9437 119.989 31.1896Z" fill="#353C2C"/>
<path d="M124.106 30.7006C123.724 30.9951 123.177 30.9302 122.877 30.552C122.577 30.1737 122.645 29.6307 123.027 29.3335C123.408 29.0363 123.956 29.1038 124.255 29.4821C124.552 29.8603 124.487 30.4061 124.106 30.7006Z" fill="#353C2C"/>
<path d="M120.866 32.3C120.735 32.4027 120.545 32.3784 120.441 32.2487C120.338 32.119 120.362 31.9299 120.493 31.8272C120.624 31.7246 120.814 31.7489 120.918 31.8786C121.022 32.0082 120.997 32.1974 120.866 32.3Z" fill="#353C2C"/>
<path d="M118.502 33.4402C118.3 33.5969 118.008 33.5618 117.85 33.3618C117.692 33.1619 117.728 32.8728 117.929 32.7161C118.131 32.5594 118.423 32.5945 118.581 32.7945C118.739 32.9944 118.703 33.2835 118.502 33.4402Z" fill="#353C2C"/>
<path d="M125.836 33.6131C125.653 33.7563 125.386 33.7239 125.242 33.5429C125.097 33.3618 125.13 33.0971 125.312 32.9539C125.495 32.8107 125.762 32.8431 125.906 33.0241C126.051 33.2078 126.018 33.4699 125.836 33.6131Z" fill="#353C2C"/>
<path d="M35.9489 62.1789C36.0661 61.5707 35.6639 60.9834 35.0506 60.8671C34.4373 60.7509 33.8451 61.1497 33.7279 61.7579C33.6106 62.3662 34.0128 62.9535 34.6261 63.0697C35.2395 63.186 35.8317 62.7871 35.9489 62.1789Z" fill="#60612F"/>
<path d="M32.1205 64.6649C31.2759 65.235 30.1262 65.0188 29.5514 64.184C28.9765 63.3464 29.1945 62.2063 30.0363 61.6362C30.8809 61.0661 32.0306 61.2823 32.6054 62.1171C33.1802 62.9547 32.965 64.0948 32.1205 64.6649Z" fill="#60612F"/>
<path d="M26.6525 65.6348C26.3256 65.8564 25.8788 65.7726 25.6554 65.4484C25.432 65.1242 25.5165 64.6811 25.8434 64.4596C26.1703 64.238 26.6171 64.3218 26.8405 64.646C27.0639 64.9702 26.9795 65.4133 26.6525 65.6348Z" fill="#60612F"/>
<path d="M25.6201 60.6608C25.0479 61.0472 24.2661 60.9013 23.8737 60.3339C23.4814 59.7665 23.6313 58.9911 24.2034 58.6021C24.7755 58.213 25.5574 58.3616 25.9497 58.929C26.3393 59.4964 26.1922 60.2718 25.6201 60.6608Z" fill="#60612F"/>
<path d="M32.7498 60.2907C32.0632 60.7554 31.1261 60.5798 30.6575 59.8989C30.1889 59.2181 30.366 58.2887 31.0525 57.8239C31.7391 57.3592 32.6762 57.5349 33.1448 58.2157C33.6134 58.8966 33.4363 59.826 32.7498 60.2907Z" fill="#60612F"/>
<path d="M27.0039 62.671C26.7642 62.8331 26.44 62.7709 26.2792 62.5359C26.1185 62.3008 26.1784 61.9766 26.4155 61.8145C26.6525 61.6524 26.9794 61.7145 27.1401 61.9496C27.3036 62.1874 27.2409 62.5089 27.0039 62.671Z" fill="#60612F"/>
<path d="M22.8058 64.3596C22.4407 64.6055 21.9449 64.5136 21.6942 64.1516C21.4436 63.7895 21.5389 63.2978 21.904 63.0492C22.2691 62.8034 22.7649 62.8952 23.0156 63.2573C23.2662 63.6193 23.1708 64.111 22.8058 64.3596Z" fill="#60612F"/>
<path d="M35.3843 65.4863C35.0519 65.7105 34.5997 65.6268 34.3708 65.2971C34.1447 64.9675 34.2292 64.519 34.5615 64.2921C34.8939 64.0678 35.3461 64.1516 35.575 64.4812C35.8011 64.8108 35.7167 65.262 35.3843 65.4863Z" fill="#60612F"/>
<g opacity="0.5">
<path d="M103.678 44.8013C103.174 45.0904 102.659 45.3741 102.128 45.655C101.036 46.2278 99.8833 46.779 98.6764 47.2977C98.2869 47.4707 97.8918 47.6355 97.4886 47.8003C96.0638 48.3785 94.5626 48.9242 92.9934 49.4295C92.4649 49.6024 91.9282 49.7672 91.3833 49.9266C91.1953 49.9833 91.0046 50.0374 90.8139 50.0914C90.2908 50.2454 89.7569 50.3886 89.2174 50.5291C89.0758 50.5723 88.9341 50.6102 88.7897 50.6426C88.6453 50.6804 88.5037 50.7155 88.3593 50.7561C88.0678 50.829 87.779 50.8992 87.4847 50.9695C86.6892 51.1613 85.8774 51.345 85.0546 51.5207C84.6432 51.6098 84.2291 51.6936 83.8123 51.7719C83.39 51.853 82.9705 51.934 82.5482 52.0097C82.145 52.0826 81.7363 52.1529 81.3304 52.2231C81.2923 52.2312 81.2568 52.2339 81.216 52.242C80.8373 52.3042 80.4559 52.3663 80.069 52.4258C79.7475 52.4744 79.4206 52.523 79.0964 52.569C78.7695 52.6176 78.4453 52.6635 78.1157 52.7067C77.9522 52.7311 77.786 52.7527 77.6198 52.7689C76.9687 52.8581 76.3148 52.9337 75.6528 53.0039C75.3232 53.0418 74.9908 53.0769 74.6584 53.1093L73.9801 53.1715C73.3371 53.2336 72.6833 53.2903 72.0267 53.3363C71.6044 53.3714 71.1767 53.3984 70.7517 53.4281C70.3621 53.4524 69.9725 53.4741 69.5829 53.4957C69.0871 53.5227 68.5858 53.5497 68.0818 53.5659C67.8421 53.5767 67.5969 53.5875 67.3517 53.5929C67.1392 53.601 66.924 53.6064 66.7087 53.6146C66.4935 53.6227 66.2783 53.6281 66.0603 53.6335C65.6571 53.6443 65.2567 53.6524 64.8616 53.6578C64.4611 53.6659 64.0688 53.6686 63.6738 53.6713C62.4397 53.6821 61.2273 53.6794 60.0422 53.6605C59.7153 53.6578 59.3911 53.6497 59.0669 53.6416C57.9935 53.6173 56.9473 53.5821 55.9175 53.5362C55.3291 53.5092 54.7488 53.4768 54.1767 53.4443C54.0786 53.4416 53.9778 53.4335 53.8824 53.4254C53.5419 53.4038 53.2068 53.3822 52.8744 53.3633C52.6211 53.3444 52.3677 53.3282 52.117 53.3065C50.8393 53.212 49.5997 53.0985 48.3928 52.9688C47.3875 52.8608 46.4041 52.7419 45.4478 52.6068C45.238 52.5798 45.031 52.55 44.8212 52.5176C44.1537 52.4231 43.4944 52.3204 42.8488 52.215C42.2576 52.1178 41.6746 52.0151 41.1052 51.907C29.2515 49.7104 21.9365 45.7334 19.5445 41.6294C19.1386 40.9296 18.8716 40.2298 18.7517 39.5301C18.7191 39.3653 18.6973 39.1977 18.6891 39.0329C18.67 38.7979 18.6782 38.5412 18.7109 38.2656C22.3833 41.1052 28.6003 43.6422 37.212 45.239C37.7814 45.347 38.3672 45.4497 38.9556 45.547C39.5986 45.6523 40.2579 45.755 40.9281 45.8496C41.1379 45.882 41.3449 45.909 41.5547 45.9387C42.5109 46.0711 43.4944 46.19 44.4997 46.3008C45.7066 46.4305 46.9462 46.5439 48.2239 46.6385C48.4746 46.6601 48.7279 46.6763 48.9813 46.6952C49.3137 46.7169 49.6488 46.7385 49.9893 46.7574C50.0847 46.7655 50.1827 46.7709 50.2835 46.7763C50.8584 46.8087 51.436 46.8384 52.0244 46.8682C53.0542 46.9141 54.1004 46.9492 55.1738 46.9735C55.5007 46.9816 55.8249 46.987 56.1491 46.9924C57.3342 47.0114 58.5465 47.0141 59.7807 47.0032C60.1757 47.0005 60.5707 46.9951 60.9685 46.9897C61.3635 46.9816 61.764 46.9762 62.1672 46.9654C62.3825 46.9627 62.5977 46.9546 62.8156 46.9465C63.0308 46.9384 63.2461 46.933 63.4586 46.9249C63.7038 46.9168 63.9462 46.906 64.1887 46.8979C64.6927 46.879 65.194 46.8547 65.6898 46.8276C66.0794 46.806 66.469 46.7844 66.8586 46.7601C67.2836 46.7331 67.7113 46.7033 68.1336 46.6682C68.7929 46.6223 69.444 46.5656 70.087 46.5034L70.7653 46.4413C71.0977 46.4089 71.4301 46.3737 71.7597 46.3359C72.4217 46.2657 73.0756 46.1873 73.7267 46.1008C73.8929 46.0819 74.0591 46.063 74.2225 46.0387C74.5522 45.9955 74.8764 45.9495 75.2033 45.9009C75.5302 45.855 75.8544 45.8064 76.1759 45.7577C76.5628 45.6983 76.9442 45.6388 77.3229 45.574C77.361 45.5659 77.3964 45.5632 77.4373 45.5551C77.8432 45.4848 78.2519 45.4146 78.6551 45.3416C79.0774 45.2633 79.4969 45.1849 79.9192 45.1039C80.336 45.0228 80.7501 44.9391 81.1615 44.8526C81.987 44.677 82.7961 44.4933 83.5916 44.3014C83.8859 44.2312 84.1746 44.161 84.4661 44.088C84.6105 44.0502 84.7522 44.0151 84.8966 43.9772C85.041 43.9448 85.1827 43.907 85.3243 43.8638C85.8637 43.7233 86.3977 43.5801 86.9208 43.4261C87.1115 43.372 87.3022 43.318 87.4902 43.2613C88.0351 43.0991 88.5745 42.9343 89.1003 42.7641C90.6695 42.2589 92.1679 41.7131 93.5955 41.1349C93.9987 40.9701 94.3965 40.8053 94.7833 40.6324C95.9902 40.1137 97.1399 39.5625 98.2351 38.9897C98.7663 38.7087 99.284 38.425 99.7852 38.1359C108.234 33.2565 112.77 26.7776 111.699 19.7367C111.568 18.8829 111.317 17.9616 110.944 16.9862C113.592 20.3986 115.189 23.7488 115.592 26.4074C116.665 33.4483 112.127 39.9272 103.678 44.8067V44.8013Z" fill="#A3A932"/>
</g>
</g>
<defs>
<clipPath id="clip0_49_368">
<rect width="155" height="81" fill="white"/>
</clipPath>
</defs>
</svg>
