<svg width="155" height="89" viewBox="0 0 155 89" fill="none" xmlns="http://www.w3.org/2000/svg">
<g clip-path="url(#clip0_49_463)">
<path d="M92.0988 33.0207L90.7451 38.5237L94.5752 39.3378L95.9289 33.8348L92.0988 33.0207Z" fill="#BC0A1B"/>
<path d="M62.4688 33.0351L58.6387 33.8492L59.9923 39.3522L63.8225 38.5381L62.4688 33.0351Z" fill="#BC0A1B"/>
<path d="M55.8459 47.9794C55.8459 47.9794 49.3947 44.1543 41.7674 44.9393L38.8778 46.6364L38.5889 48.9998C38.5889 48.9998 40.4951 53.512 48.0081 55.7692C55.5211 58.0264 55.8459 47.9794 55.8459 47.9794Z" fill="#BC0A1B"/>
<path d="M41.7673 44.9393C41.7673 44.9393 40.5533 39.5463 35.2377 38.1491C29.9222 36.7519 30.3254 40.1897 30.3254 40.1897C30.3254 40.1897 31.2505 48.2481 38.5888 48.9998C45.9271 49.7515 41.7673 44.9393 41.7673 44.9393Z" fill="#BC0A1B"/>
<path d="M99.1562 47.9794C99.1562 47.9794 105.607 44.1543 113.235 44.9393L116.124 46.6364L116.413 48.9998C116.413 48.9998 114.507 53.512 106.994 55.7692C99.481 58.0264 99.1562 47.9794 99.1562 47.9794Z" fill="#BC0A1B"/>
<path d="M113.235 44.9393C113.235 44.9393 114.449 39.5463 119.765 38.1491C125.08 36.7519 124.677 40.1897 124.677 40.1897C124.677 40.1897 123.752 48.2481 116.413 48.9998C109.075 49.7515 113.235 44.9393 113.235 44.9393Z" fill="#BC0A1B"/>
<path d="M130.416 76.3211C129.625 76.3211 128.915 75.8068 128.745 75.0593C127.462 69.3872 123.27 65.8369 116.293 64.5084C110.854 63.4736 105.778 64.2169 105.727 64.2232C104.793 64.3627 103.917 63.7734 103.767 62.9093C103.617 62.043 104.248 61.2268 105.18 61.0873C105.413 61.0519 110.932 60.2461 116.978 61.3955C125.295 62.978 130.521 67.4777 132.092 74.4033C132.287 75.2612 131.695 76.1045 130.77 76.2857C130.651 76.3086 130.533 76.319 130.416 76.319V76.3211Z" fill="#BC0A1B"/>
<path d="M124.119 82.5012C123.329 82.5012 122.618 81.9869 122.448 81.2394C121.169 75.5902 117.007 72.0462 110.079 70.7052C104.638 69.6516 99.4791 70.3971 99.4276 70.4054C98.4957 70.5428 97.6199 69.9535 97.4698 69.0894C97.3197 68.2232 97.9514 67.409 98.8833 67.2695C99.1162 67.2341 104.636 66.4283 110.681 67.5777C118.999 69.1602 124.225 73.66 125.795 80.5856C125.99 81.4435 125.398 82.2868 124.473 82.4679C124.354 82.4908 124.236 82.5012 124.119 82.5012Z" fill="#BC0A1B"/>
<path d="M118.275 89C117.484 89 116.774 88.4857 116.604 87.7381C115.325 82.089 111.163 78.545 104.235 77.204C98.7936 76.1504 93.6349 76.8958 93.5833 76.9041C92.6515 77.0437 91.7757 76.4544 91.6256 75.5882C91.4755 74.7219 92.1072 73.9078 93.039 73.7683C93.272 73.7329 98.7914 72.927 104.837 74.0764C113.154 75.659 118.38 80.1587 119.951 87.0843C120.145 87.9422 119.554 88.7855 118.629 88.9667C118.51 88.9896 118.391 89 118.275 89Z" fill="#BC0A1B"/>
<path d="M24.9312 76.3211C24.8147 76.3211 24.696 76.3107 24.5772 76.2857C23.6543 76.1045 23.063 75.2612 23.2556 74.4033C24.8236 67.4757 30.0496 62.978 38.369 61.3955C44.4148 60.2461 49.9342 61.0519 50.1672 61.0873C51.099 61.2268 51.7329 62.043 51.5806 62.9093C51.4305 63.7755 50.5524 64.3627 49.6206 64.2253C49.5511 64.2148 44.3991 63.4756 38.9693 64.5251C32.041 65.8661 27.879 69.4101 26.6 75.0593C26.4297 75.8068 25.7196 76.3211 24.9289 76.3211H24.9312Z" fill="#BC0A1B"/>
<path d="M31.228 82.5013C31.1116 82.5013 30.9928 82.4909 30.8741 82.4659C29.9512 82.2847 29.3599 81.4414 29.5525 80.5835C31.1205 73.6558 36.3465 69.1581 44.6659 67.5756C50.7117 66.4241 56.2311 67.232 56.464 67.2674C57.3959 67.4069 58.0298 68.2232 57.8775 69.0894C57.7274 69.9556 56.8493 70.5428 55.9175 70.4054C55.8458 70.395 50.6982 69.6537 45.2662 70.7053C38.3378 72.0462 34.1759 75.5902 32.8968 81.2394C32.7266 81.989 32.0165 82.5013 31.2258 82.5013H31.228Z" fill="#BC0A1B"/>
<path d="M37.0723 89C36.9558 89 36.8371 88.9896 36.7183 88.9646C35.7955 88.7834 35.2041 87.9401 35.3967 87.0822C36.9647 80.1545 42.1907 75.6568 50.5101 74.0743C56.5559 72.9228 62.0753 73.7308 62.3083 73.7662C63.2401 73.9057 63.874 74.7219 63.7217 75.5881C63.5716 76.4544 62.6958 77.0415 61.7617 76.9041C61.6743 76.8916 56.5335 76.1545 51.1104 77.204C44.1821 78.5449 40.0201 82.0889 38.7411 87.7381C38.5708 88.4877 37.8608 89 37.07 89H37.0723Z" fill="#BC0A1B"/>
<path d="M114.254 64.825C114.254 85.5559 41.0933 85.5559 41.0933 64.825C41.0933 47.9566 57.47 34.2823 77.6727 34.2823C97.8754 34.2823 114.252 47.9566 114.252 64.825H114.254Z" fill="#E86666"/>
<path d="M114.254 64.8229C114.254 84.5315 48.1314 85.5039 41.6152 67.738C58.0749 79.6277 109.81 76.8542 109.81 59.4194C109.81 54.1804 108.227 49.2476 105.44 44.9394C110.935 50.2824 114.254 57.2309 114.254 64.8229Z" fill="#C94444"/>
<path d="M155 22.7466C155 35.3339 144.456 45.539 131.442 45.539C118.427 45.539 107.888 35.3339 107.888 22.7466C107.888 10.1594 117.646 0.73712 129.968 0C129.993 0.306092 129.968 0.616349 129.876 0.922442C129.388 2.56326 127.39 2.78815 127.278 4.14578C127.141 5.74496 129.831 6.39254 129.706 7.9355C129.574 9.51593 126.664 9.6492 126.323 11.4004C125.974 13.1932 128.83 14.124 128.577 16.073C128.335 17.9387 125.582 18.1448 125.454 19.8627C125.342 21.414 127.441 23.4192 129.876 23.4858C131.469 23.5337 133.397 22.8112 133.951 21.4744C134.645 19.8002 132.66 18.4488 133.431 17.1224C134.217 15.7627 136.726 16.4415 137.333 15.1859C137.972 13.8512 135.487 12.3541 136.119 10.9173C136.666 9.66794 138.847 10.0886 139.757 8.73925C140.628 7.44825 138.332 5.78244 139.152 4.54974C139.553 3.94588 140.14 4.17702 140.711 3.58357C141.139 3.13797 141.229 2.57576 141.177 1.98439C149.333 5.57005 155 13.518 155 22.7487V22.7466Z" fill="#E86666"/>
<path d="M155 22.7466C155 35.3339 144.456 45.539 131.442 45.539C119.216 45.539 109.167 36.5249 108.002 24.9913C112.082 31.767 119.673 36.323 128.364 36.323C141.376 36.323 151.922 26.1178 151.922 13.5305C151.922 12.7705 151.884 12.0209 151.81 11.2796C153.838 14.6487 155 18.5675 155 22.7466Z" fill="#C94444"/>
<path d="M0 22.7466C0 35.3339 10.5437 45.539 23.5582 45.539C36.5727 45.539 47.112 35.3339 47.112 22.7466C47.112 10.1594 37.3545 0.73712 25.0322 0C25.0075 0.306092 25.0322 0.616349 25.124 0.922442C25.6123 2.56326 27.6104 2.78815 27.7224 4.14578C27.8591 5.74496 25.1688 6.39254 25.2942 7.9355C25.4264 9.51593 28.3362 9.6492 28.6767 11.4004C29.0261 13.1932 26.1701 14.124 26.4232 16.073C26.6651 17.9387 29.4181 18.1448 29.5458 19.8627C29.6578 21.414 27.5589 23.4192 25.124 23.4858C23.5313 23.5337 21.6027 22.8112 21.0494 21.4744C20.355 19.8002 22.3397 18.4488 21.5691 17.1224C20.7828 15.7627 18.274 16.4415 17.667 15.1859C17.0286 13.8512 19.5128 12.3541 18.8811 10.9173C18.3345 9.66794 16.1527 10.0886 15.2433 8.73925C14.3719 7.44825 16.6679 5.78244 15.8481 4.54974C15.4471 3.94588 14.8603 4.17702 14.289 3.58357C13.8612 3.13797 13.7716 2.57576 13.8231 1.98439C5.66947 5.56797 0 13.518 0 22.7466Z" fill="#E86666"/>
<path d="M0 22.7466C0 35.3339 10.5437 45.539 23.5582 45.539C35.7842 45.539 45.8329 36.5249 46.9977 24.9913C42.9187 31.767 35.3273 36.323 26.636 36.323C13.6238 36.323 3.07778 26.1178 3.07778 13.5305C3.07778 12.7705 3.11586 12.0209 3.18978 11.2796C1.16257 14.6487 0 18.5675 0 22.7466Z" fill="#C94444"/>
<path d="M102.122 27.4421C102.122 27.6983 102.109 27.9606 102.077 28.2167C101.893 30.1012 101.013 31.8482 99.5571 33.2079C97.9018 34.7467 95.7043 35.5942 93.368 35.6004H93.3545C90.5456 35.6004 88.0435 34.3615 86.4351 32.4458C85.4383 31.2568 84.7887 29.7972 84.6297 28.2167V28.2105C84.6028 27.9669 84.5894 27.7108 84.5894 27.4609C84.5894 25.2828 85.4943 23.2381 87.1497 21.6951C88.8051 20.1563 91.0025 19.3088 93.3456 19.3026C95.3481 19.3026 97.1917 19.9314 98.6701 20.9809C100.764 22.4697 102.115 24.8122 102.122 27.4421Z" fill="#BC0A1B"/>
<path d="M102.122 26.2282C102.122 26.4843 102.109 26.7467 102.077 27.0028C101.893 28.8872 101.013 30.6342 99.5571 31.994C97.9018 33.5327 95.7043 34.3802 93.368 34.3865H93.3545C90.5456 34.3865 88.0435 33.1475 86.4351 31.2319C85.4383 30.0429 84.7887 28.5832 84.6297 27.0028V26.9965C84.6028 26.7529 84.5894 26.4968 84.5894 26.2469C84.5894 24.0689 85.4943 22.0241 87.1497 20.4811C88.8051 18.9423 91.0025 18.0949 93.3456 18.0886C95.3481 18.0886 97.1917 18.7175 98.6701 19.7669C100.764 21.2557 102.115 23.5983 102.122 26.2282Z" fill="#E86666"/>
<path d="M100.069 29.6645C102.097 26.2245 100.741 21.9077 97.04 20.0227C93.3393 18.1378 88.6954 19.3985 86.6677 22.8385C84.6399 26.2786 85.9961 30.5954 89.6968 32.4804C93.3975 34.3653 98.0413 33.1046 100.069 29.6645Z" fill="#FCF3D9"/>
<path d="M93.3726 30.4968C95.9038 30.4968 97.9557 28.5894 97.9557 26.2365C97.9557 23.8836 95.9038 21.9762 93.3726 21.9762C90.8415 21.9762 88.7896 23.8836 88.7896 26.2365C88.7896 28.5894 90.8415 30.4968 93.3726 30.4968Z" fill="black"/>
<path d="M96.327 23.9668C96.327 24.8122 95.5923 25.4973 94.6828 25.4994C93.7734 25.4994 93.0364 24.8164 93.0342 23.971C93.0342 23.1256 93.7689 22.4405 94.6784 22.4385C95.5878 22.4364 96.3248 23.1214 96.327 23.9668Z" fill="#FAFAFA"/>
<path d="M99.0288 18.3031C98.8384 18.3031 98.648 18.2448 98.4912 18.1219C97.0553 17.0142 95.232 16.4041 93.3526 16.4041C91.4732 16.4041 89.6543 17.0142 88.2185 18.1219C87.8601 18.3989 87.327 18.3531 87.0313 18.0199C86.7334 17.6867 86.7826 17.1932 87.141 16.9163C88.8793 15.5753 91.0835 14.8361 93.3526 14.8361C95.6217 14.8361 97.8304 15.5753 99.5686 16.9163C99.927 17.1932 99.9763 17.6867 99.6784 18.0199C99.5126 18.2073 99.2707 18.3031 99.0288 18.3031Z" fill="#BC0A1B"/>
<path d="M52.4502 27.4421C52.4502 27.6983 52.4636 27.9606 52.495 28.2167C52.6787 30.1012 53.559 31.8482 55.015 33.2079C56.6704 34.7467 58.8678 35.5942 61.2042 35.6004H61.2176C64.0266 35.6004 66.5287 34.3615 68.137 32.4458C69.1338 31.2568 69.7834 29.7972 69.9425 28.2167V28.2105C69.9693 27.9669 69.9828 27.7108 69.9828 27.4609C69.9828 25.2828 69.0778 23.2381 67.4224 21.6951C65.7671 20.1563 63.5696 19.3088 61.2266 19.3026C59.224 19.3026 57.3805 19.9314 55.9021 20.9809C53.8076 22.4697 52.4547 24.8122 52.4502 27.4421Z" fill="#BC0A1B"/>
<path d="M52.4502 26.2282C52.4502 26.4843 52.4636 26.7467 52.495 27.0028C52.6787 28.8872 53.559 30.6342 55.015 31.994C56.6704 33.5327 58.8678 34.3802 61.2042 34.3865H61.2176C64.0266 34.3865 66.5287 33.1475 68.137 31.2319C69.1338 30.0429 69.7834 28.5832 69.9425 27.0028V26.9965C69.9693 26.7529 69.9828 26.4968 69.9828 26.2469C69.9828 24.0689 69.0778 22.0241 67.4224 20.4811C65.7671 18.9423 63.5696 18.0949 61.2266 18.0886C59.224 18.0886 57.3805 18.7175 55.9021 19.7669C53.8076 21.2557 52.4547 23.5983 52.4502 26.2282Z" fill="#E86666"/>
<path d="M66.6165 31.2612C69.6004 28.4874 69.6004 23.9903 66.6165 21.2166C63.6327 18.4429 58.7949 18.4429 55.811 21.2166C52.8271 23.9903 52.8271 28.4874 55.811 31.2612C58.7949 34.0349 63.6327 34.0349 66.6165 31.2612Z" fill="#FCF3D9"/>
<path d="M61.2129 30.4989C63.7441 30.4989 65.796 28.5915 65.796 26.2386C65.796 23.8857 63.7441 21.9783 61.2129 21.9783C58.6818 21.9783 56.6299 23.8857 56.6299 26.2386C56.6299 28.5915 58.6818 30.4989 61.2129 30.4989Z" fill="black"/>
<path d="M58.2451 23.9668C58.2451 24.8122 58.9798 25.4973 59.8893 25.4994C60.7987 25.4994 61.5357 24.8164 61.5379 23.971C61.5379 23.1256 60.8032 22.4405 59.8938 22.4385C58.9843 22.4364 58.2474 23.1214 58.2451 23.9668Z" fill="#FAFAFA"/>
<path d="M55.5412 18.3031C55.7316 18.3031 55.922 18.2448 56.0788 18.1219C57.5147 17.0142 59.3381 16.4041 61.2174 16.4041C63.0968 16.4041 64.9157 17.0142 66.3515 18.1219C66.7099 18.3989 67.2431 18.3531 67.5387 18.0199C67.8367 17.6867 67.7874 17.1932 67.429 16.9163C65.6907 15.5753 63.4866 14.8361 61.2174 14.8361C58.9483 14.8361 56.7396 15.5753 55.0014 16.9163C54.643 17.1932 54.5937 17.6867 54.8916 18.0199C55.0574 18.2073 55.2993 18.3031 55.5412 18.3031Z" fill="#BC0A1B"/>
<path d="M85.0609 41.3741C85.0573 40.5934 83.498 40.2415 82.7274 40.843C81.3726 41.9084 79.5285 42.5611 77.5018 42.5611C75.475 42.5611 73.6272 41.9052 72.2688 40.8398C71.4983 40.2351 69.9426 40.5902 69.939 41.3709V41.3997C69.939 44.8135 73.3278 47.5842 77.5018 47.5842C81.6757 47.5842 85.0609 44.8135 85.0609 41.3997V41.3741Z" fill="#F90101"/>
</g>
<defs>
<clipPath id="clip0_49_463">
<rect width="155" height="89" fill="white"/>
</clipPath>
</defs>
</svg>
