<svg width="107" height="107" viewBox="0 0 107 107" fill="none" xmlns="http://www.w3.org/2000/svg">
<g clip-path="url(#clip0_161_3466)">
<path d="M12.8895 33.33C15.2095 32.64 17.1495 31.7 17.1495 31.7C17.1495 31.7 20.5295 35.33 22.8495 36.4C25.1695 37.46 29.1695 36.34 29.1695 36.34L28.7895 34.96C28.7895 34.96 25.9695 36.27 23.3395 35.15C20.7095 34.02 18.1395 30.96 17.7095 30.64C17.2695 30.33 12.6395 30.45 10.8195 32.02C8.99953 33.59 10.5695 34.02 12.8895 33.33Z" fill="#4F1008"/>
<path d="M28.4197 34.58C29.0497 34.33 30.1097 31.76 30.1097 31.76L29.7997 31.95C29.7997 31.95 27.7997 33.45 26.4197 32.45C25.0397 31.45 24.9197 30.32 24.5997 30.51C24.2897 30.7 24.0397 31.82 24.8497 32.76C25.6597 33.7 27.7897 34.83 28.4197 34.58Z" fill="#4F1008"/>
<path d="M32.0189 10.82C30.4489 12.64 30.3289 17.27 30.6389 17.71C30.9489 18.15 34.0189 20.72 35.149 23.34C36.279 25.96 34.9589 28.79 34.9589 28.79L36.3389 29.17C36.3389 29.17 37.469 25.16 36.399 22.85C35.339 20.53 31.6989 17.15 31.6989 17.15C31.6989 17.15 32.639 15.21 33.329 12.89C34.019 10.57 33.5789 9.01 32.0189 10.82Z" fill="#4F1008"/>
<path d="M31.7691 30.11C31.7691 30.11 34.3391 29.05 34.5891 28.42C34.8391 27.79 33.7091 25.67 32.7691 24.85C31.8291 24.03 30.6991 24.29 30.5191 24.6C30.3291 24.91 31.4591 25.04 32.4591 26.42C33.4591 27.8 31.9591 29.8 31.9591 29.8L31.7691 30.11Z" fill="#4F1008"/>
<path d="M20.3297 59.02C21.6597 60.01 25.4197 59.84 28.0997 59.27C30.7797 58.7 33.8897 56.85 33.8897 56.85L33.4297 55.2C33.4297 55.2 26.8297 57.15 22.2197 54.59C17.6097 52.03 11.6297 49.14 10.6097 50.16C9.57966 51.19 -0.630335 54.65 0.0296646 57.37C0.689665 60.08 5.87966 59.12 9.33966 56.08C12.7997 53.04 14.5397 53.41 18.4297 56.28C22.3197 59.15 18.9897 58.04 20.3197 59.03L20.3297 59.02Z" fill="#4F1008"/>
<path d="M37.9099 72.67L36.3699 69.42C36.3699 69.42 26.7899 71.81 21.8299 75.06C16.8699 78.31 20.9699 82.76 21.9999 83.78C23.0299 84.81 27.4699 86.52 28.3299 88.06C29.1899 89.6 28.1599 100.89 30.5499 99.86C32.9399 98.83 34.3099 94.39 33.6299 91.31C32.9499 88.23 32.9499 87.55 31.0599 86.01C29.1799 84.47 27.6399 82.93 27.6399 82.93C27.6399 82.93 30.2099 83.79 29.5199 82.76C28.8399 81.73 23.5299 81.22 24.8999 78.83C26.2699 76.44 37.8999 72.67 37.8999 72.67H37.9099Z" fill="#4F1008"/>
<path d="M47.8795 78.94C47.8795 78.94 41.8795 86.78 40.0295 92.41C38.1795 98.04 44.1595 98.96 45.5995 99.13C47.0395 99.29 51.5895 97.86 53.2095 98.53C54.8295 99.2 61.0695 108.67 62.2995 106.37C63.5295 104.08 61.8295 99.74 59.3795 97.76C56.9295 95.78 56.4995 95.24 54.0695 95.21C51.6395 95.18 49.4795 94.93 49.4795 94.93C49.4795 94.93 52.0195 94 50.8395 93.62C49.6695 93.24 45.1995 96.15 44.7795 93.42C44.3595 90.69 51.1095 80.5 51.1095 80.5L47.8795 78.92V78.94Z" fill="#4F1008"/>
<path d="M57.3696 0.0300025C54.6596 -0.629998 51.1896 9.59 50.1596 10.61C49.1296 11.63 52.0296 17.61 54.5896 22.22C57.1496 26.83 55.1996 33.43 55.1996 33.43L56.8496 33.89C56.8496 33.89 58.6996 30.78 59.2696 28.1C59.8396 25.42 60.0096 21.66 59.0196 20.33C58.0296 19 59.1296 22.33 56.2696 18.44C53.4096 14.55 53.0396 12.81 56.0696 9.35C59.1096 5.89 60.0796 0.700002 57.3596 0.0400025L57.3696 0.0300025Z" fill="#4F1008"/>
<path d="M91.3197 33.64C94.3997 34.32 98.8497 32.96 99.8697 30.56C100.9 28.17 89.6097 29.19 88.0697 28.34C86.5297 27.48 84.8197 23.04 83.7897 22.01C82.7597 20.98 78.3197 16.88 75.0697 21.84C71.8197 26.8 69.4297 36.38 69.4297 36.38L72.6797 37.92C72.6797 37.92 76.4397 26.29 78.8397 24.92C81.2397 23.55 81.7497 28.85 82.7697 29.54C83.7897 30.23 82.9397 27.66 82.9397 27.66C82.9397 27.66 84.4797 29.2 86.0197 31.08C87.5597 32.96 88.2397 32.96 91.3197 33.65V33.64Z" fill="#4F1008"/>
<path d="M99.1294 45.6C98.9694 44.16 98.0495 38.18 92.4095 40.03C86.7795 41.88 78.9395 47.88 78.9395 47.88L80.5194 51.11C80.5194 51.11 90.7095 44.36 93.4395 44.78C96.1695 45.2 93.2594 49.67 93.6395 50.84C94.0195 52.01 94.9494 49.48 94.9494 49.48C94.9494 49.48 95.1895 51.64 95.2295 54.07C95.2595 56.5 95.7994 56.93 97.7794 59.38C99.7594 61.83 104.089 63.53 106.389 62.3C108.679 61.07 99.2195 54.83 98.5495 53.21C97.8795 51.58 99.3095 47.04 99.1495 45.6H99.1294Z" fill="#4F1008"/>
<path d="M80.0905 80.09C90.6905 69.49 87.8105 49.44 77.2605 38.89C66.7105 28.34 49.5705 28.38 38.9705 38.98C28.3705 49.58 28.3305 66.72 38.8805 77.27C49.4305 87.82 69.4905 90.69 80.0805 80.1L80.0905 80.09Z" fill="#F54C2B"/>
<path d="M45.7496 73.17C49.3396 71.46 50.0696 65.53 47.3996 59.94C44.7196 54.35 39.6496 51.2 36.0596 52.92C32.4696 54.64 31.7396 60.56 34.4096 66.15C37.0796 71.74 42.1596 74.89 45.7496 73.17Z" fill="#F9604B"/>
<path d="M60.0303 86.65C67.5003 87.22 74.9303 85.27 80.1003 80.09C90.7003 69.49 87.8203 49.44 77.2703 38.89C69.7103 31.33 58.7703 29.21 49.2803 32.51C55.2603 33.11 61.0703 35.69 65.6403 40.26C76.1903 50.81 79.0603 70.87 68.4703 81.46C66.0703 83.86 63.1803 85.56 60.0303 86.65Z" fill="#DD3119"/>
<path d="M80.5897 79.56L39.4997 38.47C39.3197 38.64 39.1497 38.8 38.9697 38.97C38.7997 39.14 38.6397 39.32 38.4697 39.5L79.5597 80.59C79.7397 80.42 79.9197 80.27 80.0897 80.09C80.2597 79.91 80.4197 79.74 80.5897 79.56Z" fill="#4F1008"/>
<path d="M49.29 55.83C52.9019 55.83 55.83 52.9019 55.83 49.29C55.83 45.6781 52.9019 42.75 49.29 42.75C45.6781 42.75 42.75 45.6781 42.75 49.29C42.75 52.9019 45.6781 55.83 49.29 55.83Z" fill="#4F1008"/>
<path d="M75.1602 75.16C77.3202 73 77.3202 69.49 75.1602 67.32C73.0002 65.16 69.4902 65.16 67.3202 67.32C65.1602 69.48 65.1602 72.99 67.3202 75.16C69.4802 77.32 72.9902 77.32 75.1602 75.16Z" fill="#4F1008"/>
<path d="M38.9198 67.48C41.1952 67.48 43.0398 65.6354 43.0398 63.36C43.0398 61.0846 41.1952 59.24 38.9198 59.24C36.6444 59.24 34.7998 61.0846 34.7998 63.36C34.7998 65.6354 36.6444 67.48 38.9198 67.48Z" fill="#4F1008"/>
<path d="M57.16 69.61C59.29 67.48 59.29 64.03 57.16 61.9C55.03 59.77 51.58 59.77 49.45 61.9C47.32 64.03 47.32 67.48 49.45 69.61C51.58 71.74 55.03 71.74 57.16 69.61Z" fill="#4F1008"/>
<path d="M50.2297 81.01C51.7397 79.5 51.7397 77.04 50.2297 75.53C48.7197 74.02 46.2597 74.02 44.7497 75.53C43.2397 77.04 43.2397 79.5 44.7497 81.01C46.2597 82.52 48.7197 82.52 50.2297 81.01Z" fill="#4F1008"/>
<path d="M63.8495 83.66C65.5095 82 65.5095 79.32 63.8495 77.66C62.1895 76 59.5095 76 57.8495 77.66C56.1895 79.32 56.1895 82 57.8495 83.66C59.5095 85.32 62.1895 85.32 63.8495 83.66Z" fill="#4F1008"/>
<path d="M63.3602 43.04C65.6356 43.04 67.4802 41.1954 67.4802 38.92C67.4802 36.6446 65.6356 34.8 63.3602 34.8C61.0848 34.8 59.2402 36.6446 59.2402 38.92C59.2402 41.1954 61.0848 43.04 63.3602 43.04Z" fill="#4F1008"/>
<path d="M69.6102 57.16C71.7402 55.03 71.7402 51.58 69.6102 49.45C67.4802 47.32 64.0302 47.32 61.9002 49.45C59.7702 51.58 59.7702 55.03 61.9002 57.16C64.0302 59.29 67.4802 59.29 69.6102 57.16Z" fill="#4F1008"/>
<path d="M81.01 50.23C82.52 48.72 82.52 46.26 81.01 44.75C79.5 43.24 77.04 43.24 75.53 44.75C74.02 46.26 74.02 48.72 75.53 50.23C77.04 51.74 79.5 51.74 81.01 50.23Z" fill="#4F1008"/>
<path d="M80.6599 65.09C83.0016 65.09 84.8999 63.1917 84.8999 60.85C84.8999 58.5083 83.0016 56.61 80.6599 56.61C78.3182 56.61 76.4199 58.5083 76.4199 60.85C76.4199 63.1917 78.3182 65.09 80.6599 65.09Z" fill="#4F1008"/>
<path d="M43.1896 43.19C49.5696 36.81 56.8596 33.75 51.5296 28.42C46.1996 23.09 36.6996 23.94 30.3196 30.32C23.9396 36.7 23.0896 46.2 28.4196 51.53C33.7496 56.86 36.8096 49.58 43.1896 43.19Z" fill="#4F1008"/>
<path d="M43.1896 43.19C49.5696 36.81 56.8596 33.75 51.5296 28.42C46.1996 23.09 36.6996 23.94 30.3196 30.32C23.9396 36.7 23.0896 46.2 28.4196 51.53C33.7496 56.86 36.8096 49.58 43.1896 43.19Z" fill="#4F1008"/>
<path d="M38.9803 38.98C42.6803 33.39 39.3803 29.02 36.0303 26.38C34.0003 27.28 32.0503 28.6 30.3203 30.32C23.9803 36.66 23.1003 46.08 28.3303 51.43C31.3703 50.02 34.2003 46.22 38.9803 38.98Z" fill="#60130E"/>
<path d="M42.3605 31.83C44.9175 31.83 46.9905 29.7571 46.9905 27.2C46.9905 24.6429 44.9175 22.57 42.3605 22.57C39.8034 22.57 37.7305 24.6429 37.7305 27.2C37.7305 29.7571 39.8034 31.83 42.3605 31.83Z" fill="#231F20"/>
<path d="M45.58 25.4C45.58 26.24 44.9 26.92 44.06 26.92C43.22 26.92 42.54 26.24 42.54 25.4C42.54 24.56 43.22 23.88 44.06 23.88C44.9 23.88 45.58 24.56 45.58 25.4Z" fill="white"/>
<path d="M26.7999 46.12C29.357 46.12 31.4299 44.0471 31.4299 41.49C31.4299 38.9329 29.357 36.86 26.7999 36.86C24.2428 36.86 22.1699 38.9329 22.1699 41.49C22.1699 44.0471 24.2428 46.12 26.7999 46.12Z" fill="#231F20"/>
<path d="M28.5102 41.2C29.3497 41.2 30.0302 40.5194 30.0302 39.68C30.0302 38.8405 29.3497 38.16 28.5102 38.16C27.6708 38.16 26.9902 38.8405 26.9902 39.68C26.9902 40.5194 27.6708 41.2 28.5102 41.2Z" fill="white"/>
</g>
<defs>
<clipPath id="clip0_161_3466">
<rect width="106.73" height="106.73" fill="white"/>
</clipPath>
</defs>
</svg>
