<svg width="129" height="148" viewBox="0 0 129 148" fill="none" xmlns="http://www.w3.org/2000/svg">
<g clip-path="url(#clip0_49_567)">
<path d="M116.231 94.3248C116.123 94.7005 116.063 95.0876 116.073 95.4671C116.073 95.8503 116.13 96.2299 116.253 96.5887C116.467 97.3271 116.971 97.9452 117.586 98.6065C118.787 99.901 120.342 101.102 121.435 102.744C122.523 104.403 122.831 106.332 122.446 108.177C122.069 110.022 120.899 111.85 118.929 113.139C116.966 114.437 114.316 115.055 111.76 114.886C109.204 114.74 106.746 113.872 104.86 112.545C103.919 111.897 103.095 111.149 102.398 110.351C101.704 109.552 101.149 108.699 100.683 107.833C99.7554 106.094 99.2388 104.292 98.9385 102.505C98.8641 102.056 98.8088 101.609 98.7584 101.16L98.5782 100.051C98.4244 99.3224 98.2394 98.6028 97.968 97.9095C97.437 96.5154 96.6586 95.2116 95.652 94.0298C95.4214 93.7611 95.1836 93.4962 94.9289 93.2407C92.9709 91.236 90.3067 89.639 87.3421 88.4197C85.6652 87.7321 83.8802 87.1666 82.052 86.71C81.1367 86.477 80.2045 86.2816 79.2748 86.1126C78.8111 86.028 78.3475 85.9529 77.8862 85.8833C77.6556 85.8533 77.4249 85.8176 77.2039 85.7913L76.8772 85.7556L76.7258 85.7387C76.6874 85.7349 76.6345 85.7293 76.6201 85.7293L77.8958 79.2662L78.1889 79.3113L78.4267 79.3508L78.8832 79.4353C79.1835 79.4917 79.4718 79.5537 79.7625 79.6119C80.3391 79.7397 80.9084 79.8712 81.4634 80.0102C82.5853 80.2921 83.6832 80.6021 84.7619 80.9553C86.9241 81.6561 89.0238 82.4865 91.0274 83.4766C92.8748 84.3991 94.6454 85.455 96.255 86.6724C96.3848 86.7645 96.5097 86.8622 96.6346 86.9599C98.3499 88.292 99.8418 89.8288 101.026 91.4991C102.211 93.1731 103.059 94.9861 103.544 96.8273C103.803 97.746 103.94 98.676 104.036 99.5966L104.109 100.979C104.113 101.363 104.118 101.748 104.142 102.127C104.233 103.651 104.51 105.156 105.086 106.537C105.646 107.923 106.516 109.18 107.724 110.167C108.904 111.151 110.468 111.826 112.157 112.038C113.829 112.263 115.606 111.972 116.99 111.204C118.396 110.445 119.436 109.178 119.88 107.766C120.327 106.357 120.258 104.799 119.53 103.431C118.807 102.037 117.43 100.752 116.277 99.2848C115.988 98.909 115.712 98.5483 115.47 98.1143C115.227 97.6916 115.056 97.2444 114.967 96.7935C114.867 96.3426 114.845 95.8804 114.893 95.4333C114.931 94.9823 115.047 94.5371 115.215 94.1125C115.378 93.6841 115.616 93.2745 115.897 92.8931C116.173 92.508 116.512 92.151 116.892 91.8278C117.271 91.5009 117.704 91.2135 118.175 90.9749C118.638 90.7325 119.15 90.539 119.681 90.4131C120.212 90.2797 120.764 90.2046 121.317 90.2008C121.87 90.1839 122.417 90.244 122.943 90.3455C123.998 90.5578 124.964 90.958 125.817 91.454C124.913 91.0124 123.919 90.6818 122.888 90.5484C122.374 90.4808 121.85 90.4601 121.341 90.5089C120.827 90.5446 120.33 90.6461 119.861 90.8001C117.963 91.4051 116.649 92.8255 116.229 94.3285L116.231 94.3248Z" fill="#5B437D"/>
<path d="M80.7513 98.4414L80.7463 98.4471C80.6768 98.4242 80.7116 98.4299 80.7513 98.4414Z" fill="#5B437D"/>
<path d="M129 122.792C128.565 122.678 128.138 122.554 127.703 122.447L127.042 122.315C126.821 122.27 126.602 122.223 126.377 122.204L125.706 122.125C125.485 122.106 125.259 122.112 125.036 122.106L124.702 122.103L124.375 122.135C124.157 122.165 123.936 122.161 123.727 122.219C122.007 122.542 120.717 123.57 119.556 124.624C118.398 125.697 117.344 126.867 116.26 128.023L115.453 128.893L115.042 129.327L114.838 129.546L114.605 129.776C113.985 130.399 113.228 130.92 112.421 131.388C111.619 131.859 110.722 132.214 109.807 132.536C108.882 132.823 107.921 133.065 106.934 133.21C105.946 133.355 104.942 133.436 103.926 133.419C102.915 133.426 101.898 133.313 100.894 133.158C98.9002 132.795 96.9254 132.13 95.2774 131.081C93.6173 130.052 92.2671 128.707 91.3302 127.232C90.3933 125.753 89.8407 124.164 89.5788 122.587C89.3074 121.007 89.3026 119.435 89.4371 117.885L89.735 115.668C89.7734 115.333 89.8359 114.997 89.8599 114.665L89.9344 113.663C90.0017 112.333 89.968 111.014 89.7927 109.729C89.55 108.019 89.0431 106.37 88.2455 104.869C87.8563 104.123 87.3926 103.412 86.8521 102.753C86.0545 101.755 85.0839 100.863 84.0004 100.11C83.4575 99.7301 82.8833 99.39 82.2947 99.0931C82.0016 98.9428 81.7061 98.8113 81.413 98.6873C81.2665 98.6291 81.1247 98.5727 80.9902 98.5276L80.798 98.4619C80.798 98.4619 80.7692 98.4525 80.7476 98.445L83.95 92.4103C84.2599 92.5211 84.344 92.5606 84.5145 92.6301L84.9326 92.8161C85.1992 92.9363 85.4515 93.0641 85.6989 93.1881C86.189 93.4474 86.6575 93.7085 87.0947 93.9866C87.9812 94.539 88.7932 95.1383 89.5452 95.7733C90.7584 96.801 91.7987 97.9264 92.6611 99.1157C92.8701 99.4013 93.0719 99.6906 93.2545 99.9818C95.2029 103.007 95.9933 106.298 96.0533 109.443C96.0774 111.02 95.9236 112.57 95.6593 114.092L95.4335 115.226C95.3542 115.602 95.2461 115.972 95.1524 116.344L94.6263 118.375C94.3596 119.67 94.2035 120.97 94.2635 122.244C94.3188 123.516 94.5975 124.759 95.1548 125.9C95.7098 127.038 96.5554 128.068 97.6678 128.911C98.7633 129.768 100.176 130.381 101.699 130.785C104.757 131.547 108.399 131.35 111.273 130.022C111.979 129.686 112.666 129.306 113.226 128.831L113.447 128.658L113.673 128.459L114.129 128.057L115.042 127.252C116.26 126.183 117.459 125.088 118.792 124.064C119.138 123.816 119.462 123.553 119.837 123.322L120.38 122.969L120.969 122.651C121.771 122.255 122.662 121.902 123.628 121.817C123.861 121.772 124.104 121.791 124.344 121.778L124.7 121.768L125.05 121.8C125.284 121.823 125.519 121.832 125.75 121.87L126.427 122.003C126.658 122.039 126.874 122.101 127.093 122.167L127.741 122.349C128.164 122.49 128.582 122.644 128.995 122.79L129 122.792Z" fill="#5B437D"/>
<path d="M67.3918 96.1458L67.3873 96.1504C67.3782 96.139 67.3827 96.1435 67.3918 96.1458Z" fill="#5B437D"/>
<path d="M89.4154 141.563C89.144 142.871 88.5746 144.137 87.7001 145.253C86.8256 146.365 85.6629 147.342 84.2574 148C85.5668 147.228 86.5542 146.185 87.2388 145.06C87.9235 143.929 88.2887 142.694 88.3728 141.471C88.4569 140.244 88.2382 139.025 87.7746 137.881C87.2989 136.733 86.5061 135.692 85.5908 134.751L84.8412 134.076C84.7235 133.962 84.5866 133.856 84.4448 133.759L84.022 133.454C83.4959 133.056 82.8424 132.643 82.2202 132.237C80.9661 131.41 79.6856 130.595 78.4508 129.682C77.216 128.776 75.9883 127.809 74.9505 126.64C74.816 126.495 74.6742 126.358 74.5541 126.208L74.2033 125.744C73.9703 125.43 73.7132 125.131 73.5331 124.789C73.3457 124.455 73.1367 124.126 72.9637 123.782L72.5361 122.719C72.4568 122.542 72.4111 122.362 72.3679 122.18L72.2382 121.633L72.1132 121.083C72.0844 120.9 72.0796 120.716 72.058 120.532C72.034 120.169 72.0003 119.799 71.9787 119.433L72.046 118.351L72.0844 117.808C72.1084 117.631 72.1469 117.458 72.1805 117.284L72.3847 116.231C72.4087 116.051 72.4592 115.882 72.5144 115.715L72.6682 115.208L72.9829 114.191C73.2256 113.53 73.5066 112.885 73.7685 112.23L74.1 111.395C74.2178 111.136 74.2754 110.866 74.3595 110.601C74.4268 110.372 74.4844 110.14 74.5301 109.907C74.7103 109.073 74.7775 108.23 74.7391 107.396C74.6478 105.263 73.7949 103.174 72.476 101.233C71.8033 100.267 71.0249 99.3355 70.1433 98.4637C69.7036 98.026 69.2448 97.5995 68.7643 97.1974C68.5264 96.9983 68.2838 96.7991 68.0412 96.615C67.9186 96.5192 67.7985 96.4328 67.676 96.3426L67.5054 96.2223L67.4261 96.1697C67.4261 96.1697 67.3973 96.151 67.3877 96.1434L73.1295 91.392L73.3096 91.5366L73.4442 91.655L73.6988 91.8767C73.8574 92.0232 74.016 92.1679 74.1625 92.3126C74.4676 92.6 74.7511 92.8912 75.0322 93.1825C75.5871 93.7686 76.1061 94.3661 76.5961 94.9786C77.5739 96.2054 78.4196 97.4962 79.1259 98.8451C80.5145 101.543 81.2977 104.532 81.007 107.52C80.9685 107.942 80.9109 108.359 80.8316 108.775C80.6394 109.829 80.3175 110.864 79.8827 111.86C79.7193 112.203 79.5823 112.553 79.3902 112.883L78.8592 113.842C78.5589 114.385 78.237 114.928 77.9463 115.474C76.8508 117.656 76.2142 119.897 76.6154 122.016C77.0214 124.132 78.6094 126.135 80.7019 127.981C81.7229 128.917 82.864 129.819 83.9932 130.74C84.5625 131.2 85.1295 131.639 85.7133 132.179L86.1409 132.564C86.2875 132.692 86.4292 132.823 86.5469 132.966L87.2965 133.809C88.2094 134.976 88.9277 136.237 89.2881 137.563C89.6364 138.892 89.6821 140.252 89.413 141.563H89.4154Z" fill="#5B437D"/>
<path d="M52.3821 85.7255C52.3821 85.7255 52.3197 85.7312 52.2788 85.7349L52.1275 85.7518L51.8007 85.7875C51.5797 85.8138 51.3443 85.8495 51.1185 85.8796C50.6596 85.9472 50.1935 86.0243 49.7251 86.1088C48.7977 86.2798 47.868 86.4752 46.9527 86.7063C45.122 87.1647 43.3394 87.7302 41.6626 88.416C38.6932 89.6353 36.0337 91.2323 34.0757 93.2369C33.8211 93.4925 33.5832 93.7574 33.3526 94.026C32.3436 95.2059 31.5628 96.5117 31.0367 97.9057C30.7652 98.599 30.5802 99.3186 30.4217 100.048L30.2463 101.156C30.1958 101.605 30.143 102.052 30.0613 102.501C29.7634 104.288 29.2445 106.09 28.3172 107.83C27.8535 108.696 27.3009 109.551 26.6018 110.347C25.9075 111.146 25.0835 111.893 24.1418 112.542C22.2559 113.87 19.7934 114.736 17.242 114.883C14.6859 115.053 12.036 114.433 10.0708 113.135C8.10085 111.846 6.93327 110.018 6.5585 108.173C6.17411 106.328 6.47922 104.399 7.56991 102.74C8.65821 101.098 10.2174 99.8973 11.4186 98.6028C12.0336 97.9414 12.5357 97.3233 12.7519 96.585C12.8744 96.2261 12.9321 95.8466 12.9321 95.4633C12.9393 95.0838 12.8816 94.6986 12.7735 94.321C12.3507 92.8161 11.0342 91.3976 9.13869 90.7926C8.67022 90.6386 8.16811 90.5371 7.6588 90.5014C7.14469 90.4526 6.62576 90.4714 6.11165 90.5409C5.07861 90.6743 4.08401 91.0049 3.18311 91.4465C4.03596 90.9486 5.00173 90.5503 6.05639 90.338C6.58252 90.2365 7.13027 90.1783 7.68283 90.1933C8.23058 90.1971 8.78794 90.2722 9.31406 90.4056C9.8498 90.5334 10.3591 90.7269 10.8228 90.9674C11.2961 91.206 11.7261 91.4934 12.1033 91.8203C12.4877 92.1435 12.8264 92.5005 13.1027 92.8856C13.3838 93.2689 13.6168 93.6766 13.7802 94.1049C13.9507 94.5296 14.0684 94.9748 14.1069 95.4257C14.1525 95.8748 14.1309 96.3351 14.0324 96.786C13.9411 97.2369 13.7681 97.6859 13.5255 98.1068C13.2877 98.5427 13.0114 98.9015 12.7231 99.2773C11.5651 100.746 10.1933 102.032 9.47022 103.424C8.73748 104.792 8.66782 106.347 9.11947 107.758C9.55911 109.171 10.6042 110.437 12.0048 111.196C13.3934 111.965 15.1711 112.256 16.8432 112.031C18.5297 111.818 20.0961 111.144 21.2733 110.159C22.4865 109.171 23.3562 107.916 23.9159 106.529C24.4901 105.148 24.764 103.645 24.8601 102.12C24.8817 101.74 24.8889 101.355 24.8937 100.972L24.9658 99.5891C25.0619 98.6667 25.1988 97.7385 25.4559 96.8198C25.946 94.9786 26.794 93.1656 27.9784 91.4915C29.1628 89.8194 30.6547 88.2826 32.37 86.9524C32.495 86.8547 32.6199 86.757 32.7496 86.6649C34.3592 85.4475 36.125 84.3916 37.9773 83.4691C39.9761 82.4771 42.0806 81.6467 44.2428 80.9478C45.3214 80.5946 46.4217 80.2846 47.5389 80.0027C48.0986 79.8618 48.668 79.7303 49.2422 79.6044C49.5353 79.5462 49.8188 79.4842 50.1215 79.4278L50.5803 79.3433L50.8182 79.3038L51.1064 79.2587L52.3869 85.7218L52.3821 85.7255Z" fill="#5B437D"/>
<path d="M45.0501 92.4065L48.255 98.4412C48.2333 98.4468 48.2141 98.4544 48.1997 98.4581L48.0123 98.5239C47.873 98.569 47.7312 98.6253 47.5895 98.6836C47.2964 98.8076 46.9961 98.9391 46.7078 99.0894C46.1168 99.3862 45.545 99.7263 45.0021 100.106C43.9186 100.857 42.948 101.752 42.1504 102.749C41.6099 103.411 41.1462 104.117 40.7546 104.863C39.9594 106.364 39.4549 108.012 39.2123 109.727C39.0321 111.012 38.9985 112.331 39.0657 113.661L39.145 114.663C39.169 114.997 39.2291 115.333 39.2699 115.666L39.5678 117.883C39.6976 119.433 39.6927 121.005 39.4261 122.586C39.1594 124.162 38.6093 125.751 37.6699 127.23C36.733 128.705 35.3828 130.05 33.7252 131.08C32.0771 132.13 30.1023 132.793 28.1083 133.156C27.0993 133.313 26.0879 133.424 25.0717 133.417C24.0602 133.434 23.0512 133.351 22.0638 133.208C21.0765 133.064 20.1203 132.823 19.1906 132.534C18.28 132.212 17.3839 131.857 16.5767 131.386C15.7743 130.918 15.0128 130.398 14.3977 129.774L14.1599 129.545L13.9557 129.325L13.5497 128.891L12.7377 128.021C11.659 126.865 10.6043 125.695 9.44637 124.622C8.2884 123.57 6.9911 122.542 5.27338 122.217C5.06917 122.159 4.84575 122.161 4.62953 122.133L4.298 122.101L3.96646 122.105C3.74544 122.112 3.51961 122.105 3.29859 122.123L2.63072 122.202C2.40489 122.221 2.18868 122.268 1.96525 122.313L1.30459 122.445C0.869752 122.552 0.43972 122.678 0.00488281 122.79C0.422903 122.644 0.836118 122.49 1.26375 122.349L1.9124 122.167C2.13102 122.101 2.34724 122.039 2.57306 122.003L3.25535 121.87C3.48117 121.834 3.71901 121.825 3.94965 121.8L4.3052 121.768L4.66076 121.778C4.89379 121.791 5.14124 121.77 5.37668 121.817C6.34245 121.902 7.22894 122.255 8.03135 122.651L8.62234 122.969L9.17009 123.322C9.54727 123.555 9.86439 123.816 10.2127 124.064C11.5509 125.088 12.7521 126.183 13.9677 127.252L14.8758 128.057L15.3323 128.459L15.5629 128.658L15.7815 128.831C16.3461 129.304 17.0332 129.684 17.7395 130.022C20.6128 131.35 24.25 131.546 27.3131 130.785C28.8362 130.379 30.2441 129.768 31.3444 128.911C32.4519 128.068 33.3023 127.038 33.8573 125.9C34.4146 124.757 34.6933 123.516 34.7486 122.244C34.8062 120.968 34.6525 119.67 34.3834 118.375L33.8573 116.344C33.766 115.972 33.6531 115.602 33.5762 115.226L33.3504 114.092C33.0837 112.572 32.9276 111.02 32.954 109.443C33.0116 106.296 33.802 103.007 35.7552 99.9818C35.9402 99.6906 36.1348 99.3994 36.3486 99.1157C37.2063 97.9245 38.2513 96.7991 39.4645 95.7733C40.2141 95.1383 41.0285 94.5408 41.915 93.9866C42.3546 93.7085 42.8231 93.4474 43.3084 93.1881C43.5558 93.0641 43.8105 92.9363 44.0748 92.8161L44.4976 92.6301C44.6633 92.5606 44.7522 92.5211 45.0621 92.4103L45.0501 92.4065Z" fill="#5B437D"/>
<path d="M48.2574 98.449L48.2524 98.4432C48.2947 98.4337 48.322 98.426 48.2574 98.449Z" fill="#5B437D"/>
<path d="M61.6123 96.1453C61.6123 96.1453 61.5835 96.1641 61.5739 96.1716L61.4946 96.2242L61.3192 96.3445C61.2015 96.4328 61.0814 96.5211 60.9588 96.6169C60.7114 96.7991 60.4736 97.0002 60.2309 97.1993C59.7552 97.6014 59.294 98.026 58.8543 98.4656C57.9726 99.3393 57.1943 100.271 56.5216 101.235C55.2003 103.174 54.3522 105.265 54.2585 107.397C54.2177 108.232 54.2825 109.071 54.4603 109.909C54.5108 110.142 54.5684 110.37 54.6357 110.603C54.7246 110.868 54.7822 111.138 54.9 111.397L55.2315 112.232C55.4958 112.889 55.7744 113.534 56.0171 114.193L56.3318 115.209L56.4855 115.717C56.5408 115.884 56.5865 116.053 56.6153 116.233L56.8195 117.285C56.8483 117.458 56.8868 117.631 56.9108 117.81L56.9492 118.353L57.0165 119.435C56.9997 119.801 56.966 120.171 56.9372 120.534C56.9204 120.716 56.9156 120.9 56.8819 121.084L56.757 121.635L56.6273 122.182C56.5889 122.364 56.5432 122.544 56.4639 122.721L56.0363 123.784C55.8657 124.128 55.6567 124.459 55.4669 124.791C55.2867 125.135 55.0273 125.432 54.7991 125.746L54.4435 126.21C54.321 126.36 54.1792 126.497 54.0495 126.642C53.0117 127.809 51.784 128.778 50.5492 129.684C49.3119 130.597 48.0363 131.41 46.7822 132.239C46.1552 132.645 45.5017 133.056 44.9756 133.456L44.5576 133.761C44.4158 133.858 44.2741 133.964 44.1564 134.078L43.4116 134.753C42.4915 135.694 41.7059 136.735 41.2278 137.883C40.7594 139.027 40.5455 140.248 40.6248 141.473C40.7089 142.696 41.0717 143.929 41.7612 145.062C42.4458 146.187 43.4332 147.23 44.7426 148.002C43.3371 147.344 42.1696 146.367 41.2999 145.255C40.4254 144.139 39.856 142.875 39.5846 141.565C39.3179 140.254 39.3587 138.893 39.7071 137.565C40.0675 136.237 40.7906 134.978 41.7011 133.811L42.4458 132.968C42.5684 132.823 42.7101 132.693 42.8519 132.566L43.2819 132.181C43.8633 131.641 44.4326 131.204 45.002 130.741C46.1311 129.823 47.2675 128.919 48.2885 127.983C50.3786 126.135 51.9738 124.134 52.3798 122.018C52.7762 119.899 52.1468 117.659 51.0489 115.476C50.7606 114.929 50.4387 114.387 50.1384 113.844L49.6074 112.885C49.4152 112.555 49.2735 112.205 49.1149 111.861C48.6801 110.868 48.3582 109.83 48.1612 108.776C48.0819 108.361 48.0218 107.942 47.9858 107.521C47.7023 104.536 48.4831 101.547 49.8717 98.847C50.578 97.4999 51.4237 96.2073 52.4014 94.9805C52.8915 94.368 53.4105 93.7705 53.9654 93.1843C54.2465 92.8931 54.53 92.6019 54.8303 92.3145C54.9816 92.1698 55.1402 92.027 55.2988 91.8786L55.5486 91.6569L55.6879 91.5385L55.8633 91.3939L61.6099 96.1453H61.6123Z" fill="#5B437D"/>
<path d="M96.8171 34.3969C105.658 20.3267 101.238 17.6475 93.79 13.8505C86.3401 10.0534 78.0278 -0.219801 64.5022 0.00377541C50.9742 -0.219801 42.6619 10.0534 35.2144 13.8505C27.7669 17.6475 23.3441 20.3267 32.1873 34.3969C41.0306 48.4672 20.305 42.2146 23.0678 50.7011C25.8305 59.1876 44.8961 68.1213 44.8961 68.1213L64.5022 64.1007L84.1083 68.1213C84.1083 68.1213 103.174 59.1876 105.937 50.7011C108.699 42.2146 87.9762 48.4672 96.8195 34.3969H96.8171Z" fill="#5B437D"/>
<path d="M48.0122 98.5239C47.8729 98.569 47.7311 98.6253 47.5894 98.6836C47.2963 98.8076 46.996 98.9391 46.7077 99.0894C46.1167 99.3862 45.545 99.7263 45.002 100.106C43.9185 100.857 42.9479 101.752 42.1503 102.749C41.6098 103.411 41.1461 104.117 40.7545 104.863C39.0656 103.388 37.581 101.507 36.3413 99.1138C37.199 97.9227 38.244 96.7973 39.4572 95.7715C40.2068 95.1364 41.0212 94.539 41.9077 93.9847C42.3473 93.7067 42.8158 93.4455 43.3011 93.1862C43.5485 93.0622 43.8032 92.9345 44.0675 92.8142L44.4903 92.6282C44.6585 92.5587 44.7449 92.5193 45.0549 92.4084L48.2597 98.4431C48.2381 98.4487 48.2188 98.4562 48.2044 98.46L48.017 98.5258L48.0122 98.5239Z" fill="#7D4BC5"/>
<path d="M48.2579 98.449L48.2529 98.4433C48.2952 98.4337 48.3225 98.426 48.2579 98.449Z" fill="#700BFF"/>
<path d="M41.6629 88.4179C38.6935 89.6372 36.034 91.2342 34.0761 93.2389C33.5283 91.283 33.0815 89.1018 32.7451 86.6706C34.3547 85.4531 36.1205 84.3973 37.9728 83.4748C39.9716 82.4828 42.0761 81.6523 44.2383 80.9534C45.3169 80.6002 46.4173 80.2902 47.5344 80.0084C48.0941 79.8675 48.6635 79.736 49.2377 79.6101C49.5308 79.5519 49.8143 79.4899 50.117 79.4335L50.5758 79.3489L50.8137 79.3095L51.102 79.2644L52.3824 85.7274C52.3824 85.7274 52.32 85.7331 52.2791 85.7368L52.1278 85.7537L51.8011 85.7894C51.58 85.8158 51.3446 85.8514 51.1188 85.8815C50.6599 85.9491 50.1938 86.0262 49.7254 86.1107C48.798 86.2817 47.8683 86.4771 46.953 86.7082C45.1224 87.1666 43.3398 87.7321 41.6629 88.4198V88.4179Z" fill="#7D4BC5"/>
<path d="M55.8659 91.3939L61.6125 96.1453C61.6125 96.1453 61.5836 96.1641 61.574 96.1716L61.4948 96.2242L61.3194 96.3445C61.2017 96.4328 61.0815 96.5211 60.959 96.6169C60.7116 96.7992 60.4737 97.0002 60.2311 97.1993C59.7554 97.6014 59.2941 98.026 58.8545 98.4657C57.9728 99.3393 57.1944 100.271 56.5218 101.235C55.2004 103.174 54.3524 105.265 54.2587 107.397C54.2178 108.232 54.2827 109.071 54.4605 109.909C52.2479 109.697 50.1409 109.348 48.1614 108.775C48.0821 108.359 48.022 107.94 47.986 107.52C47.7025 104.534 48.4833 101.545 49.8719 98.8452C50.5782 97.4981 51.4238 96.2055 52.4016 94.9786C52.8917 94.3661 53.4106 93.7687 53.9656 93.1825C54.2467 92.8913 54.5302 92.6001 54.8305 92.3126C54.9818 92.1679 55.1404 92.0251 55.2989 91.8767L55.5488 91.655L55.6881 91.5367L55.8635 91.392L55.8659 91.3939Z" fill="#7D4BC5"/>
<path d="M67.3923 96.1458L67.3878 96.1504C67.3787 96.139 67.3832 96.1435 67.3923 96.1458Z" fill="#700BFF"/>
<path d="M80.7518 98.4414L80.7468 98.4472C80.6773 98.4242 80.712 98.4299 80.7518 98.4414Z" fill="#700BFF"/>
<path d="M79.1308 98.8433C80.5194 101.541 81.3026 104.53 81.0119 107.518C80.9734 107.94 80.9158 108.357 80.8365 108.773C78.8593 109.346 76.7452 109.695 74.535 109.907C74.7151 109.073 74.7824 108.23 74.744 107.396C74.6527 105.263 73.7998 103.174 72.4809 101.233C71.8082 100.267 71.0298 99.3355 70.1481 98.4638C69.7085 98.026 69.2496 97.5995 68.7692 97.1975C68.5313 96.9983 68.2887 96.7992 68.046 96.615C67.9235 96.5192 67.8034 96.4328 67.6809 96.3426L67.5103 96.2224L67.431 96.1698C67.431 96.1698 67.4022 96.151 67.3926 96.1435L73.1344 91.392L73.3145 91.5367L73.4491 91.655L73.7037 91.8767C73.8623 92.0233 74.0208 92.1679 74.1674 92.3126C74.4725 92.6001 74.756 92.8913 75.0371 93.1825C75.592 93.7687 76.1109 94.3661 76.601 94.9786C77.5788 96.2055 78.4245 97.4962 79.1308 98.8452V98.8433Z" fill="#7D4BC5"/>
<path d="M89.5501 95.7696C90.7633 96.7973 91.8035 97.9227 92.666 99.1119C91.424 101.509 89.9393 103.39 88.2504 104.865C87.8612 104.119 87.3975 103.409 86.857 102.749C86.0594 101.752 85.0888 100.859 84.0053 100.106C83.4624 99.7263 82.8882 99.3862 82.2996 99.0894C82.0065 98.9391 81.711 98.8076 81.4179 98.6836C81.2714 98.6253 81.1296 98.569 80.9951 98.5239L80.8029 98.4581C80.8029 98.4581 80.7741 98.4487 80.7524 98.4412L83.9549 92.4065C84.2648 92.5174 84.3489 92.5568 84.5194 92.6263L84.9374 92.8123C85.2041 92.9326 85.4564 93.0603 85.7038 93.1843C86.1939 93.4436 86.6624 93.7048 87.0996 93.9828C87.9861 94.5352 88.7981 95.1345 89.5501 95.7696Z" fill="#7D4BC5"/>
<path d="M96.2579 86.6706C95.924 89.0999 95.4747 91.283 94.927 93.2389C92.969 91.2342 90.3047 89.6372 87.3401 88.4179C85.6632 87.7302 83.8783 87.1647 82.05 86.7082C81.1347 86.4752 80.2026 86.2798 79.2728 86.1107C78.8092 86.0262 78.3455 85.951 77.8842 85.8815C77.6536 85.8514 77.423 85.8158 77.2019 85.7894L76.8752 85.7537L76.7239 85.7368C76.6854 85.7331 76.6326 85.7274 76.6182 85.7274L77.8938 79.2644L78.1869 79.3095L78.4248 79.3489L78.8812 79.4335C79.1815 79.4899 79.4698 79.5519 79.7605 79.6101C80.3371 79.7379 80.9065 79.8694 81.4614 80.0084C82.5834 80.2902 83.6813 80.6002 84.7599 80.9534C86.9221 81.6542 89.0218 82.4846 91.0254 83.4748C92.8753 84.3973 94.6435 85.4531 96.2531 86.6706H96.2579Z" fill="#7D4BC5"/>
<path d="M94.4729 69.5172C94.4729 101.917 81.0554 102.575 64.5028 102.575C47.9502 102.575 34.5327 101.917 34.5327 69.5172C34.5327 37.1174 47.9502 11.8326 64.5028 11.8326C81.0554 11.8326 94.4729 37.1174 94.4729 69.5172Z" fill="#9D78D2"/>
<path d="M94.4725 69.5172C94.4725 101.917 81.055 102.575 64.5024 102.575C52.2982 102.575 41.802 102.218 37.1245 89.0473C42.4603 92.6151 49.5762 92.7635 57.3913 92.7635C73.9439 92.7635 87.3614 92.1059 87.3614 59.7062C87.3614 43.2479 83.8995 28.6253 78.3235 18.2206C87.9211 27.7122 94.4701 46.8778 94.4701 69.5172H94.4725Z" fill="#5B437D"/>
<path d="M53.1534 100.316C48.3654 100.316 44.4663 97.2707 44.4639 93.5263C44.4639 91.7114 45.3624 90.0035 47.0032 88.7185C48.6441 87.4334 50.8255 86.7251 53.1462 86.7232C57.9414 86.7232 61.8405 89.7687 61.8453 93.5131C61.8453 95.328 60.9468 97.0359 59.306 98.321C57.6651 99.6061 55.4837 100.314 53.163 100.316H53.1534Z" fill="#7D4BC5"/>
<path d="M53.1534 99.0067C48.3654 99.0067 44.4663 95.9612 44.4639 92.2168C44.4639 90.4019 45.3624 88.694 47.0032 87.4089C48.6441 86.1238 50.8255 85.4155 53.1462 85.4137C57.9414 85.4137 61.8405 88.4592 61.8453 92.2036C61.8453 94.0185 60.9468 95.7264 59.306 97.0114C57.6651 98.2965 55.4837 99.0048 53.163 99.0067H53.1534Z" fill="#5B437D"/>
<path d="M53.168 98.1369C57.3528 98.1369 60.7452 95.4838 60.7452 92.2111C60.7452 88.9385 57.3528 86.2854 53.168 86.2854C48.9833 86.2854 45.5908 88.9385 45.5908 92.2111C45.5908 95.4838 48.9833 98.1369 53.168 98.1369Z" fill="#FCF3D9"/>
<path d="M53.1557 95.7658C55.6661 95.7658 57.7011 94.1743 57.7011 92.2111C57.7011 90.2479 55.6661 88.6565 53.1557 88.6565C50.6454 88.6565 48.6104 90.2479 48.6104 92.2111C48.6104 94.1743 50.6454 95.7658 53.1557 95.7658Z" fill="black"/>
<path d="M55.6833 90.306C55.6833 91.0106 54.953 91.5836 54.0521 91.5836C53.1512 91.5836 52.4185 91.0125 52.4185 90.3079C52.4185 89.6034 53.1488 89.0303 54.0497 89.0303C54.9506 89.0303 55.6833 89.6015 55.6833 90.306Z" fill="#FAFAFA"/>
<path d="M58.7822 85.5903C58.5949 85.5903 58.4051 85.5414 58.2489 85.44C56.8267 84.5156 55.0153 84.0065 53.1534 84.0065C51.2915 84.0065 49.4849 84.5156 48.0627 85.44C47.7071 85.6711 47.1786 85.6316 46.8855 85.3554C46.59 85.0774 46.638 84.6659 46.9936 84.4348C48.7161 83.3151 50.9047 82.6988 53.1534 82.6988C55.402 82.6988 57.5954 83.3151 59.318 84.4348C59.6735 84.6659 59.7216 85.0774 59.4261 85.3554C59.2603 85.5114 59.0225 85.5922 58.7822 85.5922V85.5903Z" fill="#5B437D"/>
<path d="M75.318 100.316C70.5299 100.316 66.6308 97.2707 66.6284 93.5263C66.6284 91.7114 67.5269 90.0035 69.1678 88.7185C70.8086 87.4334 72.99 86.7251 75.3107 86.7232C80.106 86.7232 84.0051 89.7687 84.0099 93.5131C84.0099 95.328 83.1114 97.0359 81.4705 98.321C79.8297 99.6061 77.6483 100.314 75.3276 100.316H75.318Z" fill="#7D4BC5"/>
<path d="M75.318 99.0067C70.5299 99.0067 66.6308 95.9612 66.6284 92.2168C66.6284 90.4019 67.5269 88.694 69.1678 87.4089C70.8086 86.1238 72.99 85.4155 75.3107 85.4137C80.106 85.4137 84.0051 88.4592 84.0099 92.2036C84.0099 94.0185 83.1114 95.7264 81.4705 97.0114C79.8297 98.2965 77.6483 99.0048 75.3276 99.0067H75.318Z" fill="#5B437D"/>
<path d="M82.6063 93.7842C83.7243 90.6315 81.3626 87.367 77.3313 86.4927C73.3 85.6184 69.1257 87.4653 68.0077 90.618C66.8897 93.7707 69.2514 97.0352 73.2827 97.9095C77.314 98.7838 81.4883 96.9368 82.6063 93.7842Z" fill="#FCF3D9"/>
<path d="M79.8493 92.5801C80.0943 90.6263 78.2675 88.8871 75.7692 88.6956C73.2708 88.504 71.0469 89.9326 70.8019 91.8864C70.557 93.8402 72.3837 95.5794 74.8821 95.771C77.3804 95.9626 79.6043 94.534 79.8493 92.5801Z" fill="black"/>
<path d="M77.8479 90.306C77.8479 91.0106 77.1176 91.5836 76.2166 91.5836C75.3157 91.5836 74.583 91.0125 74.583 90.3079C74.583 89.6034 75.3133 89.0303 76.2142 89.0303C77.1151 89.0303 77.8479 89.6015 77.8479 90.306Z" fill="#FAFAFA"/>
<path d="M80.9468 85.5903C80.7594 85.5903 80.5696 85.5414 80.4135 85.44C78.9912 84.5156 77.1798 84.0065 75.3179 84.0065C73.4561 84.0065 71.6495 84.5156 70.2272 85.44C69.8717 85.6711 69.3431 85.6316 69.05 85.3554C68.7545 85.0774 68.8026 84.6659 69.1581 84.4348C70.8807 83.3151 73.0693 82.6988 75.3179 82.6988C77.5666 82.6988 79.76 83.3151 81.4825 84.4348C81.8381 84.6659 81.8861 85.0774 81.5906 85.3554C81.4249 85.5114 81.187 85.5922 80.9468 85.5922V85.5903Z" fill="#5B437D"/>
<path d="M56.4009 20.1348C56.8931 20.3318 57.5343 20.1488 57.8329 19.7263C58.1315 19.3037 57.9744 18.8015 57.4822 18.6046C56.9899 18.4077 56.3488 18.5906 56.0502 19.0132C55.7516 19.4357 55.9086 19.9379 56.4009 20.1348Z" fill="#5B437D"/>
<path d="M52.9331 23.4372C53.9188 23.8315 55.2025 23.4652 55.8004 22.6191C56.3982 21.773 56.0839 20.7675 55.0982 20.3732C54.1125 19.9789 52.8288 20.3452 52.2309 21.1913C51.6331 22.0374 51.9475 23.0429 52.9331 23.4372Z" fill="#5B437D"/>
<path d="M59.8965 22.5331C60.3887 22.73 61.0299 22.5471 61.3285 22.1245C61.6271 21.702 61.47 21.1998 60.9778 21.0028C60.4855 20.8059 59.8444 20.9888 59.5458 21.4114C59.2472 21.834 59.4042 22.3362 59.8965 22.5331Z" fill="#5B437D"/>
<path d="M61.7093 18.8481C61.5794 19.032 61.3013 19.1099 61.0891 19.025C60.8769 18.9401 60.8085 18.7214 60.9372 18.5392C61.066 18.357 61.3452 18.2774 61.5574 18.3623C61.7697 18.4471 61.8381 18.6659 61.7093 18.8481Z" fill="#5B437D"/>
<path d="M61.8974 16.404C61.4389 17.0529 60.455 17.3336 59.6991 17.0312C58.9432 16.7288 58.7022 15.9581 59.1607 15.3092C59.6193 14.6603 60.6031 14.3796 61.3591 14.682C62.115 14.9844 62.3559 15.7551 61.8974 16.404Z" fill="#5B437D"/>
<path d="M65.7594 19.4607C65.3609 20.0246 64.5049 20.2674 63.848 20.0047C63.1911 19.7419 62.9832 19.0712 63.3804 18.5091C63.7777 17.9469 64.6361 17.7006 65.291 17.9626C65.9479 18.2253 66.1578 18.8968 65.7594 19.4607Z" fill="#5B437D"/>
<path d="M54.6122 18.3869C54.416 18.6645 53.9939 18.785 53.6705 18.6556C53.3471 18.5262 53.2437 18.1956 53.4399 17.918C53.636 17.6404 54.0582 17.5199 54.3816 17.6493C54.7049 17.7787 54.8083 18.1093 54.6122 18.3869Z" fill="#5B437D"/>
<path d="M71.5532 74.7665C71.1867 75.443 70.2553 75.81 69.4723 75.5865C68.6894 75.3629 68.3519 74.6336 68.7184 73.957C69.0849 73.2805 70.0163 72.9135 70.7992 73.137C71.5822 73.3606 71.9197 74.0899 71.5532 74.7665Z" fill="#695389"/>
<path d="M64.965 81.0144C66.5295 81.4611 68.3913 80.7274 69.1236 79.3756C69.8559 78.0238 69.1813 76.5659 67.6168 76.1191C66.0524 75.6724 64.1905 76.4061 63.4583 77.7579C62.726 79.1097 63.4006 80.5677 64.965 81.0144Z" fill="#695389"/>
<path d="M77.331 77.905C76.9645 78.5816 76.0331 78.9486 75.2502 78.725C74.4672 78.5015 74.1297 77.7721 74.4962 77.0956C74.8627 76.419 75.7941 76.052 76.5771 76.2756C77.36 76.4991 77.6975 77.2285 77.331 77.905Z" fill="#695389"/>
<path d="M76.2921 73.2911C76.6307 73.3878 77.0338 73.2289 77.1923 72.9363C77.3509 72.6437 77.2048 72.328 76.8661 72.2313C76.5275 72.1346 76.1244 72.2935 75.9659 72.5861C75.8074 72.8787 75.9534 73.1944 76.2921 73.2911Z" fill="#695389"/>
<path d="M76.7687 69.5086C77.5233 68.55 77.2375 67.3686 76.1305 66.8699C75.0234 66.3712 73.5143 66.7441 72.7598 67.7027C72.0052 68.6614 72.291 69.8428 73.398 70.3415C74.5051 70.8402 76.0142 70.4673 76.7687 69.5086Z" fill="#695389"/>
<path d="M83.1769 73.671C83.9025 72.8741 83.7469 71.8314 82.8294 71.3422C81.9119 70.853 80.5799 71.1025 79.8543 71.8995C79.1287 72.6964 79.2843 73.739 80.2018 74.2282C81.1194 74.7174 82.4514 74.468 83.1769 73.671Z" fill="#695389"/>
<path d="M66.4221 73.1892C66.1817 73.6329 65.5681 73.8747 65.0546 73.7281C64.5411 73.5815 64.3188 73.1009 64.5591 72.6572C64.7995 72.2135 65.4131 71.9717 65.9266 72.1183C66.4401 72.265 66.6624 72.7455 66.4221 73.1892Z" fill="#695389"/>
</g>
<defs>
<clipPath id="clip0_49_567">
<rect width="129" height="148" fill="white"/>
</clipPath>
</defs>
</svg>
