<svg width="48" height="45" viewBox="0 0 48 45" fill="none" xmlns="http://www.w3.org/2000/svg">
<path opacity="0.88" d="M45 25.0919C46.6569 25.0919 48 23.7487 48 22.0919C48 20.435 46.6569 19.0919 45 19.0919L45 22.0919L45 25.0919ZM0.87868 19.9706C-0.292893 21.1421 -0.292893 23.0416 0.878679 24.2132L19.9706 43.3051C21.1421 44.4767 23.0416 44.4767 24.2132 43.3051C25.3848 42.1335 25.3848 40.234 24.2132 39.0624L7.24264 22.0919L24.2132 5.12132C25.3848 3.94975 25.3848 2.05026 24.2132 0.878683C23.0416 -0.29289 21.1421 -0.29289 19.9706 0.878683L0.87868 19.9706ZM45 22.0919L45 19.0919L3 19.0919L3 22.0919L3 25.0919L45 25.0919L45 22.0919Z" fill="#1052A3"/>
</svg>
