<svg width="213" height="58" viewBox="0 0 213 58" fill="none" xmlns="http://www.w3.org/2000/svg">
<path d="M141.997 34.0959C141.514 34.1832 141.145 34.2704 140.889 34.3577L141.138 35.9756C141.379 35.8883 141.695 35.8145 142.078 35.7473C142.46 35.6802 142.883 35.6466 143.346 35.6466C143.689 35.6466 143.971 35.6869 144.199 35.7809C144.427 35.8682 144.609 35.9957 144.743 36.1501C144.884 36.3112 144.978 36.4925 145.031 36.7006C145.085 36.9087 145.112 37.1302 145.112 37.3585V37.6874C144.837 37.6203 144.582 37.5733 144.333 37.5465C144.085 37.5196 143.857 37.5062 143.642 37.5062C143.165 37.5062 142.715 37.5532 142.279 37.6472C141.843 37.7411 141.46 37.8955 141.131 38.1104C140.802 38.3252 140.54 38.6004 140.346 38.9428C140.151 39.2852 140.057 39.7014 140.057 40.1982C140.057 40.6949 140.144 41.1514 140.312 41.5005C140.48 41.8496 140.722 42.1383 141.024 42.3598C141.326 42.5813 141.695 42.7425 142.125 42.8364C142.554 42.9371 143.024 42.9841 143.548 42.9841C144.327 42.9841 145.031 42.9371 145.656 42.8432C146.28 42.7492 146.743 42.6686 147.052 42.6015V37.3652C147.052 36.8617 146.992 36.3918 146.878 35.9689C146.763 35.5459 146.569 35.1834 146.3 34.888C146.032 34.5927 145.669 34.3577 145.219 34.1899C144.77 34.022 144.212 33.9415 143.555 33.9415C143.004 33.9415 142.487 33.9885 142.004 34.0758M142.507 41.138C142.212 40.9568 142.064 40.6278 142.064 40.1579C142.064 39.9162 142.118 39.7148 142.232 39.5537C142.339 39.3926 142.487 39.2717 142.668 39.1845C142.85 39.0972 143.051 39.0368 143.279 39.0032C143.508 38.9697 143.729 38.9562 143.951 38.9562C144.206 38.9562 144.434 38.9697 144.642 39.0032C144.85 39.0368 145.011 39.0704 145.119 39.1039V41.3126C144.797 41.3797 144.333 41.4133 143.716 41.4133C143.212 41.4133 142.809 41.326 142.507 41.138ZM133.8 30.0009L131.8 30.3298V42.8163H133.8V38.8555C134.096 39.0771 134.398 39.3456 134.707 39.6544C135.015 39.9632 135.318 40.2989 135.613 40.6547C135.908 41.0037 136.19 41.373 136.445 41.7422C136.7 42.1181 136.929 42.4739 137.13 42.8163H139.439C139.245 42.4404 138.996 42.0376 138.694 41.5945C138.399 41.1514 138.077 40.7151 137.741 40.272C137.399 39.8289 137.05 39.4127 136.687 39.0234C136.324 38.634 135.982 38.2983 135.646 38.0231C136.264 37.3921 136.875 36.7543 137.486 36.0897C138.097 35.4318 138.674 34.7873 139.225 34.1697H136.862C136.687 34.3778 136.472 34.6262 136.224 34.9082C135.975 35.1901 135.714 35.4788 135.438 35.7809C135.163 36.083 134.881 36.3851 134.599 36.6872C134.311 36.9893 134.042 37.2712 133.787 37.5397V29.9941L133.8 30.0009ZM125.214 41.2119C124.798 41.1044 124.449 40.9836 124.147 40.8628L123.798 42.5344C123.986 42.6149 124.308 42.7156 124.771 42.8364C125.234 42.964 125.845 43.0244 126.604 43.0244C127.738 43.0244 128.611 42.8096 129.222 42.3867C129.833 41.9637 130.142 41.3394 130.142 40.5137C130.142 40.131 130.095 39.7954 129.994 39.5201C129.893 39.2449 129.739 39.0032 129.524 38.7884C129.309 38.5736 129.041 38.3789 128.705 38.2111C128.369 38.0432 127.973 37.8687 127.503 37.6874C127.215 37.5867 126.973 37.4928 126.778 37.3988C126.584 37.3048 126.423 37.2108 126.302 37.1168C126.181 37.0228 126.094 36.9221 126.047 36.8147C126 36.7073 125.973 36.5798 125.973 36.4321C125.973 36.1434 126.1 35.9353 126.355 35.7943C126.611 35.6533 126.939 35.5862 127.349 35.5862C127.799 35.5862 128.195 35.6265 128.537 35.7071C128.88 35.7876 129.162 35.8816 129.376 35.9823L129.739 34.3644C129.504 34.2771 129.162 34.1832 128.698 34.0892C128.235 33.9952 127.752 33.9482 127.248 33.9482C126.248 33.9482 125.456 34.1764 124.872 34.6329C124.288 35.0894 123.999 35.7138 123.999 36.5059C123.999 36.9154 124.06 37.2578 124.187 37.5397C124.315 37.8217 124.489 38.0634 124.711 38.2581C124.932 38.4527 125.194 38.6273 125.496 38.7817C125.798 38.9294 126.134 39.0704 126.496 39.2046C127.094 39.4262 127.517 39.6275 127.779 39.8155C128.034 40.0035 128.168 40.2384 128.168 40.5271C128.168 40.8359 128.047 41.0507 127.805 41.1783C127.564 41.3058 127.174 41.3663 126.651 41.3663C126.127 41.3663 125.651 41.3125 125.241 41.1984M122.603 41.326C122.341 41.2924 122.119 41.2454 121.952 41.185C121.784 41.1246 121.643 41.0373 121.549 40.9232C121.448 40.8091 121.381 40.6681 121.341 40.5003C121.3 40.3324 121.28 40.131 121.28 39.8894V30.0009L119.286 30.3298V40.272C119.286 40.7017 119.333 41.0843 119.427 41.42C119.521 41.7556 119.683 42.0376 119.911 42.2658C120.146 42.4941 120.455 42.6619 120.844 42.7894C121.233 42.9103 121.723 42.9774 122.321 42.9841L122.603 41.3327V41.326ZM114.923 40.554C114.554 41.0574 114.037 41.3126 113.379 41.3126C112.721 41.3126 112.204 41.0574 111.835 40.554C111.466 40.0505 111.284 39.359 111.284 38.493C111.284 37.627 111.472 36.9557 111.835 36.4522C112.204 35.9487 112.721 35.7003 113.379 35.7003C114.037 35.7003 114.554 35.9487 114.923 36.4522C115.292 36.9557 115.473 37.6337 115.473 38.493C115.473 39.3523 115.285 40.0505 114.923 40.554ZM117.219 36.6268C117.017 36.0696 116.729 35.5929 116.366 35.1969C116.004 34.8008 115.567 34.4987 115.057 34.2771C114.547 34.0623 113.983 33.9549 113.379 33.9549C112.775 33.9549 112.217 34.0623 111.714 34.2771C111.211 34.492 110.767 34.8008 110.398 35.1969C110.029 35.5929 109.747 36.0696 109.539 36.6268C109.338 37.1839 109.23 37.8016 109.23 38.4863C109.23 39.1711 109.331 39.7887 109.539 40.3526C109.74 40.9165 110.029 41.3931 110.391 41.7892C110.754 42.1853 111.19 42.4941 111.694 42.7156C112.204 42.9371 112.761 43.0445 113.379 43.0445C113.996 43.0445 114.56 42.9371 115.071 42.7156C115.581 42.4941 116.017 42.1853 116.386 41.7892C116.749 41.3931 117.031 40.9165 117.226 40.3526C117.427 39.7887 117.521 39.1711 117.521 38.4863C117.521 37.8016 117.42 37.1839 117.212 36.6268M104.41 33.1426C104.759 33.203 105.055 33.3037 105.31 33.4514C105.558 33.5924 105.759 33.7938 105.9 34.0422C106.041 34.2973 106.115 34.6128 106.115 34.982C106.115 35.7608 105.847 36.2978 105.31 36.573C104.773 36.855 104.001 36.996 102.994 36.996H101.987V33.1023C102.329 33.0688 102.765 33.0553 103.289 33.0553C103.685 33.0553 104.054 33.0822 104.403 33.1426M101.517 31.3099C100.926 31.3502 100.389 31.424 99.9055 31.5315V42.8096H101.987V38.7817H103.027C103.866 38.7817 104.605 38.7078 105.256 38.5669C105.907 38.4259 106.458 38.1976 106.907 37.8955C107.357 37.5935 107.706 37.2041 107.941 36.7207C108.176 36.2441 108.297 35.6668 108.297 34.9955C108.297 33.7065 107.854 32.76 106.968 32.1558C106.082 31.5516 104.806 31.2495 103.141 31.2495C102.644 31.2495 102.107 31.2696 101.517 31.3099Z" fill="black"/>
<path d="M207.128 15.0643C206.645 15.1515 206.276 15.2388 206.021 15.3261L206.269 16.944C206.511 16.8567 206.826 16.7761 207.209 16.709C207.592 16.6419 208.015 16.6083 208.478 16.6083C208.82 16.6083 209.102 16.6486 209.33 16.7426C209.559 16.8298 209.74 16.9574 209.874 17.1118C210.008 17.2662 210.109 17.4542 210.163 17.6623C210.217 17.8704 210.243 18.0919 210.243 18.3202V18.6491C209.968 18.582 209.706 18.535 209.465 18.5081C209.223 18.4813 208.988 18.4679 208.773 18.4679C208.297 18.4679 207.847 18.5148 207.41 18.6088C206.974 18.7028 206.591 18.8572 206.262 19.072C205.934 19.2869 205.672 19.5621 205.477 19.9045C205.282 20.2468 205.188 20.6631 205.188 21.1598C205.188 21.6566 205.276 22.1131 205.443 22.4622C205.611 22.818 205.853 23.0999 206.155 23.3215C206.457 23.543 206.826 23.7041 207.256 23.7981C207.686 23.8988 208.156 23.9458 208.679 23.9458C209.458 23.9458 210.163 23.8988 210.787 23.8048C211.411 23.7108 211.875 23.6303 212.183 23.5632V18.3269C212.183 17.8234 212.123 17.3535 212.009 16.9305C211.895 16.5076 211.7 16.1451 211.432 15.8497C211.163 15.5543 210.801 15.3194 210.351 15.1583C209.901 14.9904 209.344 14.9099 208.686 14.9099C208.135 14.9099 207.619 14.9569 207.135 15.0441M207.639 22.1131C207.343 21.9319 207.196 21.6029 207.196 21.133C207.196 20.8913 207.249 20.6899 207.363 20.5288C207.471 20.3677 207.618 20.2468 207.8 20.1596C207.981 20.0723 208.182 20.0119 208.411 19.9783C208.639 19.9448 208.86 19.9313 209.082 19.9313C209.337 19.9313 209.565 19.9448 209.773 19.9783C209.982 20.0119 210.143 20.0455 210.25 20.079V22.2944C209.928 22.3615 209.465 22.3951 208.847 22.3951C208.337 22.3951 207.941 22.3078 207.639 22.1198M198.858 20.3475C198.858 20.9182 198.905 21.4284 199.006 21.8781C199.106 22.3212 199.274 22.7039 199.516 23.0194C199.757 23.3349 200.086 23.5699 200.496 23.7377C200.912 23.9055 201.422 23.9861 202.04 23.9861C202.55 23.9861 202.986 23.9324 203.362 23.8317C203.738 23.7243 204.04 23.6236 204.269 23.5229L203.94 21.9386C203.772 22.0057 203.55 22.0795 203.268 22.1534C202.986 22.2272 202.664 22.2675 202.302 22.2675C201.771 22.2675 201.395 22.1198 201.181 21.8244C200.959 21.5291 200.852 21.0323 200.852 20.3408V16.8231H203.92V15.1515H200.852V12.5401L198.851 12.8691V20.3475H198.858ZM196.481 11.7144C196.24 11.4929 195.951 11.3855 195.622 11.3855C195.293 11.3855 194.991 11.4929 194.749 11.7144C194.508 11.9359 194.387 12.238 194.387 12.6207C194.387 13.0033 194.508 13.292 194.749 13.5135C194.991 13.7351 195.28 13.8425 195.622 13.8425C195.964 13.8425 196.24 13.7351 196.481 13.5135C196.723 13.292 196.844 12.9966 196.844 12.6207C196.844 12.2447 196.723 11.9359 196.481 11.7144ZM196.636 15.1515H194.635V23.7914H196.636V15.1515ZM193.017 22.3011C192.756 22.2675 192.534 22.2205 192.366 22.1601C192.198 22.0997 192.057 22.0124 191.963 21.8983C191.863 21.7842 191.796 21.6432 191.755 21.4754C191.715 21.3075 191.695 21.1061 191.695 20.8645V10.9692L189.701 11.2982V21.2404C189.701 21.67 189.748 22.0527 189.842 22.3883C189.936 22.724 190.097 23.006 190.325 23.2275C190.56 23.4557 190.869 23.6303 191.259 23.7511C191.648 23.872 192.138 23.9391 192.735 23.9458L193.017 22.2944V22.3011ZM185.304 21.5223C184.935 22.0258 184.418 22.2809 183.76 22.2809C183.102 22.2809 182.585 22.0258 182.216 21.5223C181.847 21.0189 181.665 20.3274 181.665 19.4547C181.665 18.582 181.847 17.9174 182.216 17.4139C182.585 16.9104 183.102 16.662 183.76 16.662C184.418 16.662 184.935 16.9104 185.304 17.4139C185.673 17.9174 185.854 18.5954 185.854 19.4547C185.854 20.314 185.666 21.0121 185.304 21.5223ZM187.6 17.6019C187.398 17.0447 187.11 16.568 186.747 16.1719C186.385 15.7759 185.948 15.4671 185.431 15.2522C184.921 15.0374 184.357 14.93 183.753 14.93C183.149 14.93 182.592 15.0374 182.082 15.2522C181.578 15.4671 181.135 15.7759 180.766 16.1719C180.397 16.568 180.108 17.0447 179.907 17.6019C179.705 18.159 179.598 18.7767 179.598 19.4614C179.598 20.1461 179.698 20.7638 179.907 21.3277C180.108 21.8916 180.397 22.3682 180.759 22.7643C181.122 23.1604 181.558 23.4692 182.061 23.6907C182.565 23.9122 183.129 24.0196 183.746 24.0196C184.364 24.0196 184.928 23.9122 185.438 23.6907C185.948 23.4692 186.391 23.1604 186.754 22.7643C187.116 22.3682 187.398 21.8916 187.593 21.3277C187.788 20.7638 187.888 20.1461 187.888 19.4614C187.888 18.7767 187.788 18.159 187.586 17.6019M177.919 17.6019C177.718 17.0447 177.423 16.5747 177.047 16.1787C176.664 15.7893 176.208 15.4872 175.671 15.2791C175.133 15.071 174.523 14.9636 173.838 14.9636C173.153 14.9636 172.549 15.0106 171.958 15.1113C171.367 15.212 170.864 15.3127 170.454 15.4268V26.8392H172.455V23.4893C172.676 23.6101 172.958 23.7243 173.294 23.8183C173.636 23.919 174.012 23.9659 174.415 23.9659C175.019 23.9659 175.563 23.8585 176.04 23.637C176.516 23.4155 176.919 23.1067 177.235 22.7106C177.557 22.3145 177.799 21.8446 177.973 21.2874C178.141 20.7369 178.228 20.1327 178.228 19.4681C178.228 18.7767 178.128 18.1523 177.919 17.5951M175.671 21.5089C175.335 22.0057 174.805 22.2541 174.079 22.2541C173.751 22.2541 173.435 22.2004 173.146 22.0997C172.858 21.999 172.623 21.8849 172.448 21.764V16.8298C172.643 16.7761 172.844 16.7359 173.052 16.7224C173.254 16.709 173.448 16.6956 173.636 16.6956C174.529 16.6956 175.174 16.944 175.577 17.4407C175.979 17.9375 176.181 18.629 176.181 19.5218C176.181 20.361 176.013 21.0256 175.677 21.5223M163.849 22.187C163.432 22.0795 163.083 21.9587 162.781 21.8379L162.432 23.5027C162.62 23.5833 162.942 23.684 163.406 23.8115C163.869 23.9391 164.48 23.9995 165.238 23.9995C166.373 23.9995 167.245 23.7847 167.856 23.3618C168.467 22.9388 168.776 22.3145 168.776 21.4888C168.776 21.1061 168.729 20.7705 168.628 20.4952C168.528 20.22 168.373 19.9783 168.158 19.7568C167.944 19.542 167.675 19.3473 167.339 19.1795C167.011 19.0116 166.608 18.8371 166.131 18.6558C165.842 18.5551 165.601 18.4611 165.406 18.3672C165.211 18.2732 165.05 18.1792 164.929 18.0852C164.809 17.9912 164.721 17.8905 164.674 17.7764C164.627 17.669 164.6 17.5414 164.6 17.3937C164.6 17.1051 164.728 16.897 164.983 16.756C165.238 16.6217 165.567 16.5479 165.97 16.5479C166.42 16.5479 166.816 16.5882 167.158 16.6687C167.501 16.7493 167.783 16.8433 167.997 16.944L168.36 15.3261C168.132 15.2388 167.783 15.1448 167.319 15.0508C166.856 14.9569 166.373 14.9099 165.869 14.9099C164.869 14.9099 164.077 15.1381 163.493 15.5946C162.909 16.0511 162.62 16.6754 162.62 17.4676C162.62 17.8771 162.681 18.2195 162.808 18.5014C162.936 18.7834 163.11 19.025 163.325 19.2197C163.54 19.4144 163.808 19.589 164.11 19.7366C164.413 19.8843 164.748 20.0253 165.111 20.1596C165.701 20.3811 166.131 20.5825 166.393 20.7705C166.648 20.9584 166.782 21.1934 166.782 21.4821C166.782 21.7909 166.661 22.0057 166.42 22.1332C166.178 22.2608 165.789 22.3212 165.265 22.3212C164.741 22.3212 164.265 22.2675 163.855 22.1534M158.659 21.5223C158.29 22.0258 157.773 22.2809 157.115 22.2809C156.457 22.2809 155.94 22.0258 155.571 21.5223C155.202 21.0189 155.021 20.3274 155.021 19.4547C155.021 18.582 155.202 17.9174 155.571 17.4139C155.94 16.9104 156.451 16.662 157.115 16.662C157.78 16.662 158.29 16.9104 158.659 17.4139C159.029 17.9174 159.21 18.5954 159.21 19.4547C159.21 20.314 159.022 21.0121 158.659 21.5223ZM160.955 17.6019C160.754 17.0447 160.465 16.568 160.103 16.1719C159.74 15.7759 159.304 15.4671 158.787 15.2522C158.277 15.0374 157.713 14.93 157.109 14.93C156.504 14.93 155.947 15.0374 155.444 15.2522C154.94 15.4671 154.497 15.7759 154.128 16.1719C153.759 16.568 153.47 17.0447 153.269 17.6019C153.067 18.159 152.96 18.7767 152.96 19.4614C152.96 20.1461 153.061 20.7638 153.269 21.3277C153.47 21.8916 153.752 22.3682 154.121 22.7643C154.484 23.1604 154.92 23.4692 155.424 23.6907C155.927 23.9122 156.491 24.0196 157.109 24.0196C157.726 24.0196 158.29 23.9122 158.8 23.6907C159.311 23.4692 159.747 23.1604 160.116 22.7643C160.479 22.3682 160.761 21.8916 160.962 21.3277C161.157 20.7638 161.257 20.1461 161.257 19.4614C161.257 18.7767 161.157 18.159 160.949 17.6019M151.275 17.6019C151.073 17.0447 150.778 16.5747 150.402 16.1787C150.019 15.7893 149.563 15.4872 149.026 15.2791C148.489 15.071 147.878 14.9636 147.193 14.9636C146.508 14.9636 145.904 15.0106 145.314 15.1113C144.716 15.212 144.219 15.3127 143.81 15.4268V26.8392H145.81V23.4893C146.032 23.6101 146.314 23.7243 146.649 23.8183C146.992 23.919 147.368 23.9659 147.771 23.9659C148.375 23.9659 148.919 23.8585 149.395 23.637C149.872 23.4155 150.275 23.1067 150.59 22.7106C150.912 22.3145 151.154 21.8446 151.329 21.2874C151.496 20.7369 151.584 20.1327 151.584 19.4681C151.584 18.7767 151.483 18.1523 151.282 17.5951M149.026 21.5089C148.69 22.0057 148.16 22.2541 147.435 22.2541C147.106 22.2541 146.79 22.2004 146.502 22.0997C146.213 21.999 145.978 21.8849 145.804 21.764V16.8298C145.998 16.7761 146.2 16.7359 146.408 16.7224C146.609 16.709 146.804 16.6956 146.992 16.6956C147.885 16.6956 148.529 16.944 148.932 17.4407C149.335 17.9375 149.536 18.629 149.536 19.5218C149.536 20.361 149.368 21.0256 149.033 21.5223M142.017 15.1515H135.459V16.8231H139.44C139.144 17.1789 138.802 17.5884 138.426 18.0583C138.043 18.535 137.661 19.0318 137.278 19.5554C136.895 20.079 136.519 20.5959 136.157 21.1128C135.794 21.6298 135.492 22.1064 135.25 22.5495V23.7847H142.118V22.1198H137.661C137.989 21.6163 138.359 21.086 138.775 20.5221C139.191 19.9649 139.601 19.4346 140.003 18.9176C140.413 18.4074 140.796 17.9375 141.151 17.5213C141.507 17.1051 141.796 16.7761 142.017 16.5479V15.1448V15.1515ZM127.597 21.2874C127.772 21.8446 128.041 22.3212 128.403 22.724C128.759 23.1268 129.209 23.4423 129.759 23.6639C130.31 23.8854 130.947 23.9995 131.686 23.9995C132.156 23.9995 132.619 23.9525 133.062 23.8652C133.505 23.778 133.841 23.6773 134.062 23.5699L133.78 21.9184C133.539 22.0191 133.25 22.0997 132.921 22.1668C132.592 22.2339 132.256 22.2675 131.914 22.2675C131.001 22.2675 130.35 22.0191 129.967 21.5156C129.585 21.0121 129.39 20.3341 129.39 19.4748C129.39 18.6155 129.591 17.8905 130.001 17.4005C130.41 16.9104 131.001 16.6687 131.786 16.6687C132.115 16.6687 132.431 16.7023 132.72 16.7694C133.008 16.8366 133.27 16.9171 133.505 17.0178L133.935 15.3865C133.21 15.0911 132.438 14.9367 131.625 14.9367C130.967 14.9367 130.37 15.0508 129.84 15.2858C129.309 15.5141 128.86 15.8363 128.49 16.2458C128.121 16.6553 127.839 17.1319 127.638 17.6891C127.436 18.2463 127.342 18.8438 127.342 19.4815C127.342 20.1193 127.43 20.7369 127.604 21.2874M120.206 18.6155C120.24 18.3604 120.3 18.1121 120.388 17.8704C120.475 17.6287 120.602 17.4139 120.757 17.2259C120.918 17.0379 121.113 16.8903 121.341 16.7694C121.576 16.6553 121.844 16.5949 122.153 16.5949C122.462 16.5949 122.704 16.6486 122.918 16.7493C123.133 16.8567 123.314 16.9977 123.462 17.1789C123.61 17.3602 123.724 17.575 123.798 17.8234C123.878 18.0718 123.912 18.3336 123.912 18.6088H120.2L120.206 18.6155ZM118.387 21.3008C118.562 21.8446 118.83 22.3212 119.199 22.724C119.562 23.1268 120.025 23.4423 120.589 23.6639C121.153 23.8921 121.811 23.9995 122.569 23.9995C122.865 23.9995 123.16 23.9794 123.442 23.9525C123.731 23.919 123.993 23.8787 124.241 23.8317C124.489 23.7847 124.711 23.7243 124.899 23.6639C125.093 23.6034 125.241 23.543 125.355 23.4893L125.093 21.858C124.858 21.9587 124.543 22.0527 124.14 22.14C123.737 22.2272 123.294 22.2742 122.811 22.2742C121.985 22.2742 121.354 22.0863 120.918 21.7036C120.482 21.321 120.24 20.7839 120.186 20.0924H125.886C125.899 19.985 125.906 19.8575 125.912 19.7232C125.912 19.5822 125.919 19.4614 125.919 19.354C125.919 17.8905 125.584 16.7896 124.919 16.0511C124.254 15.3127 123.328 14.9434 122.14 14.9434C121.636 14.9434 121.139 15.0374 120.656 15.2321C120.173 15.4268 119.743 15.7087 119.367 16.0914C118.991 16.474 118.696 16.944 118.468 17.5213C118.239 18.0919 118.125 18.7565 118.125 19.5218C118.125 20.173 118.212 20.7705 118.387 21.3142M116.977 15.1515H110.418V16.8231H114.399C114.104 17.1789 113.762 17.5884 113.386 18.0583C113.003 18.535 112.62 19.0318 112.238 19.5554C111.855 20.079 111.479 20.5959 111.117 21.1128C110.754 21.6298 110.452 22.1064 110.21 22.5495V23.7847H117.078V22.1198H112.62C112.949 21.6163 113.319 21.086 113.735 20.5221C114.151 19.9649 114.554 19.4346 114.963 18.9176C115.373 18.4074 115.755 17.9375 116.111 17.5213C116.467 17.1051 116.756 16.7761 116.977 16.5479V15.1448V15.1515ZM104.336 14.1177C104.679 14.1781 104.974 14.2788 105.222 14.4198C105.471 14.5608 105.659 14.7555 105.793 14.9971C105.927 15.2388 105.988 15.5342 105.988 15.89C105.988 16.2659 105.921 16.5747 105.793 16.8164C105.659 17.0581 105.464 17.2528 105.209 17.3937C104.954 17.5347 104.632 17.6354 104.242 17.6891C103.86 17.7428 103.41 17.7697 102.906 17.7697H102V14.0707C102.376 14.0372 102.779 14.0237 103.222 14.0237C103.631 14.0237 104.001 14.0573 104.343 14.1177M101.53 12.285C100.96 12.3253 100.416 12.3991 99.9124 12.5066V23.7847H101.993V19.4614H103.316C103.423 19.4614 103.558 19.4614 103.712 19.448C103.92 19.7098 104.148 20.0119 104.39 20.3475C104.632 20.6832 104.873 21.039 105.122 21.4217C105.37 21.8043 105.612 22.1937 105.86 22.5965C106.102 22.9992 106.33 23.3953 106.538 23.7914H108.868C108.673 23.3618 108.445 22.9254 108.19 22.4756C107.935 22.0325 107.673 21.5962 107.398 21.1733C107.122 20.7503 106.854 20.3543 106.585 19.9917C106.323 19.6292 106.082 19.3204 105.874 19.0653C107.404 18.5148 108.17 17.4609 108.17 15.9101C108.17 14.6682 107.733 13.7418 106.854 13.1376C105.981 12.5334 104.712 12.2313 103.068 12.2313C102.618 12.2313 102.101 12.2515 101.53 12.2917" fill="black"/>
<path d="M85.5259 0.114258H0.120911V28.6587H85.5259V0.114258Z" fill="white"/>
<path d="M85.5259 28.5444H0.120911V56.9747H85.5259V28.5444Z" fill="#BB0A30"/>
<path d="M85.6333 0H6.10352e-05V57.0888H85.6333V0ZM85.3715 56.8203H0.275304V0.268528H85.3715V56.8203Z" fill="#868686"/>
</svg>
