<svg width="153" height="85" viewBox="0 0 153 85" fill="none" xmlns="http://www.w3.org/2000/svg">
<path d="M146.176 54.7528C146.213 54.4709 146.279 54.1963 146.376 53.9292C146.472 53.6621 146.606 53.4246 146.784 53.2169C146.962 53.0091 147.177 52.8459 147.43 52.7123C147.682 52.5862 147.986 52.5194 148.327 52.5194C148.669 52.5194 148.936 52.5788 149.173 52.6901C149.411 52.8088 149.611 52.9646 149.774 53.1649C149.938 53.3653 150.064 53.6027 150.145 53.8773C150.234 54.1518 150.271 54.4412 150.271 54.7454H146.161L146.176 54.7528ZM144.165 57.7209C144.358 58.3219 144.654 58.8487 145.063 59.2865C145.463 59.7317 145.975 60.0805 146.599 60.3253C147.222 60.5702 147.949 60.6963 148.787 60.6963C149.114 60.6963 149.44 60.6741 149.752 60.6444C150.071 60.6073 150.36 60.5628 150.635 60.5108C150.91 60.4589 151.154 60.3921 151.362 60.3253C151.577 60.2585 151.741 60.1918 151.867 60.1324L151.577 58.3293C151.318 58.4406 150.969 58.5445 150.524 58.641C150.079 58.7374 149.589 58.7894 149.055 58.7894C148.142 58.7894 147.444 58.5816 146.962 58.1586C146.48 57.7357 146.213 57.1421 146.153 56.3778H152.453C152.468 56.2591 152.475 56.1181 152.483 55.9697C152.483 55.8213 152.49 55.6803 152.49 55.5616C152.49 53.944 152.119 52.7272 151.384 51.9109C150.65 51.0947 149.626 50.6866 148.305 50.6866C147.749 50.6866 147.2 50.7905 146.665 51.0057C146.131 51.2209 145.656 51.5325 145.241 51.9555C144.825 52.3784 144.499 52.8978 144.246 53.5359C143.994 54.1741 143.875 54.9012 143.875 55.7471C143.875 56.4669 143.972 57.1273 144.165 57.7283M141.946 47.125C141.679 46.8801 141.36 46.7614 140.996 46.7614C140.633 46.7614 140.299 46.8876 140.032 47.125C139.765 47.3699 139.631 47.7038 139.631 48.1267C139.631 48.5496 139.765 48.8687 140.032 49.1136C140.299 49.3584 140.625 49.4772 140.996 49.4772C141.367 49.4772 141.679 49.3584 141.946 49.1136C142.213 48.8687 142.347 48.5422 142.347 48.1267C142.347 47.7112 142.213 47.3699 141.946 47.125ZM142.109 50.9241H139.898V60.4737H142.109V50.9241ZM132.196 46.3014L129.985 46.6649V60.4663H132.196V56.0884C132.523 56.3333 132.857 56.6301 133.198 56.9714C133.539 57.3202 133.873 57.6838 134.2 58.077C134.526 58.4703 134.838 58.871 135.12 59.2791C135.402 59.6946 135.661 60.0879 135.876 60.4663H138.429C138.214 60.0508 137.939 59.6056 137.605 59.1158C137.279 58.6261 136.923 58.1438 136.552 57.6541C136.173 57.1644 135.787 56.7043 135.387 56.2739C134.986 55.8436 134.6 55.4726 134.237 55.1684C134.919 54.4783 135.595 53.766 136.27 53.0314C136.945 52.3042 137.583 51.5919 138.192 50.9167H135.58C135.387 51.1467 135.149 51.4212 134.875 51.7254C134.6 52.0371 134.311 52.3562 134.007 52.6901C133.702 53.024 133.391 53.3579 133.079 53.6918C132.76 54.0257 132.463 54.3373 132.189 54.6341V46.2939L132.196 46.3014ZM122.698 58.7003C122.238 58.5816 121.853 58.448 121.519 58.3145L121.133 60.1546C121.341 60.2437 121.697 60.355 122.209 60.496C122.721 60.637 123.396 60.7037 124.234 60.7037C125.488 60.7037 126.453 60.4663 127.128 59.9988C127.803 59.5314 128.145 58.8413 128.145 57.9286C128.145 57.5057 128.093 57.1347 127.982 56.8305C127.87 56.5262 127.7 56.2517 127.462 56.0142C127.225 55.7768 126.928 55.5616 126.557 55.3761C126.193 55.1906 125.748 54.9977 125.221 54.8048C124.902 54.6935 124.635 54.5896 124.42 54.4857C124.205 54.3818 124.027 54.278 123.893 54.1741C123.76 54.0702 123.663 53.9589 123.611 53.8402C123.559 53.7214 123.529 53.5805 123.529 53.4172C123.529 53.0982 123.67 52.8681 123.945 52.7123C124.227 52.5565 124.591 52.4823 125.043 52.4823C125.54 52.4823 125.978 52.5268 126.357 52.6159C126.735 52.7049 127.047 52.8088 127.284 52.9201L127.685 51.1318C127.432 51.0354 127.047 50.9315 126.535 50.8276C126.023 50.7237 125.488 50.6718 124.924 50.6718C123.819 50.6718 122.943 50.9241 122.298 51.4286C121.652 51.9332 121.333 52.6233 121.333 53.4988C121.333 53.9515 121.4 54.3299 121.541 54.6415C121.682 54.9532 121.875 55.2203 122.12 55.4355C122.365 55.6507 122.654 55.8436 122.988 56.0068C123.322 56.1701 123.693 56.3259 124.093 56.4743C124.746 56.7192 125.221 56.9418 125.511 57.1495C125.793 57.3573 125.941 57.617 125.941 57.936C125.941 58.2774 125.807 58.5148 125.54 58.6558C125.273 58.7968 124.843 58.8636 124.264 58.8636C123.685 58.8636 123.158 58.8042 122.706 58.6781M119.115 47.125C118.847 46.8801 118.528 46.7614 118.165 46.7614C117.801 46.7614 117.467 46.8876 117.2 47.125C116.933 47.3699 116.799 47.7038 116.799 48.1267C116.799 48.5496 116.933 48.8687 117.2 49.1136C117.467 49.3584 117.794 49.4772 118.165 49.4772C118.536 49.4772 118.847 49.3584 119.115 49.1136C119.382 48.8687 119.515 48.5422 119.515 48.1267C119.515 47.7112 119.382 47.3699 119.115 47.125ZM118.395 62.9669C118.981 62.3733 119.278 61.4532 119.278 60.214V50.9241H117.067V60.1769C117.067 60.7705 116.963 61.2231 116.755 61.5199C116.547 61.8168 116.191 61.9652 115.679 61.9652C115.301 61.9652 114.982 61.9206 114.714 61.839L114.425 63.6421C114.64 63.7237 114.893 63.7831 115.182 63.8127C115.464 63.8424 115.686 63.8573 115.85 63.8573C116.955 63.8573 117.809 63.5605 118.395 62.9594M108.6 54.7528C108.637 54.4709 108.704 54.1963 108.801 53.9292C108.897 53.6621 109.038 53.4246 109.209 53.2169C109.387 53.0091 109.602 52.8459 109.854 52.7123C110.107 52.5862 110.411 52.5194 110.752 52.5194C111.093 52.5194 111.361 52.5788 111.598 52.6901C111.835 52.8088 112.036 52.9646 112.199 53.1649C112.362 53.3653 112.488 53.6027 112.57 53.8773C112.652 54.1518 112.696 54.4412 112.696 54.7454H108.585L108.6 54.7528ZM106.597 57.7209C106.79 58.3219 107.087 58.8487 107.495 59.2865C107.895 59.7317 108.407 60.0805 109.023 60.3253C109.647 60.5702 110.374 60.6963 111.212 60.6963C111.539 60.6963 111.865 60.6741 112.177 60.6444C112.496 60.6073 112.785 60.5628 113.06 60.5108C113.334 60.4589 113.579 60.3921 113.787 60.3253C114.002 60.2585 114.165 60.1918 114.291 60.1324L114.002 58.3293C113.742 58.4406 113.394 58.5445 112.956 58.641C112.511 58.7374 112.021 58.7894 111.487 58.7894C110.574 58.7894 109.877 58.5816 109.394 58.1586C108.912 57.7357 108.645 57.1421 108.578 56.3778H114.878C114.893 56.2591 114.9 56.1181 114.907 55.9697C114.907 55.8213 114.915 55.6803 114.915 55.5616C114.915 53.944 114.544 52.7272 113.809 51.9109C113.075 51.0947 112.051 50.6866 110.737 50.6866C110.181 50.6866 109.632 50.7905 109.097 51.0057C108.563 51.2209 108.088 51.5325 107.673 51.9555C107.257 52.3784 106.923 52.8978 106.678 53.5359C106.426 54.1666 106.307 54.9012 106.307 55.7471C106.307 56.4669 106.404 57.1273 106.597 57.7283M104.423 53.6324C104.2 53.0165 103.874 52.4971 103.458 52.0593C103.035 51.629 102.531 51.2951 101.937 51.0651C101.343 50.835 100.668 50.7163 99.9114 50.7163C99.1545 50.7163 98.4867 50.7683 97.8338 50.8796C97.1734 50.9909 96.6243 51.1022 96.1717 51.2283V63.8424H98.3828V60.1398C98.6277 60.2734 98.9393 60.3995 99.3103 60.5034C99.6888 60.6147 100.104 60.6666 100.55 60.6666C101.217 60.6666 101.818 60.5405 102.345 60.303C102.872 60.0582 103.317 59.7169 103.666 59.2791C104.022 58.8413 104.289 58.3219 104.482 57.706C104.668 57.0976 104.764 56.4298 104.764 55.6952C104.764 54.9606 104.653 54.2408 104.423 53.625M101.944 57.9509C101.573 58.5 100.987 58.7745 100.186 58.7745C99.8223 58.7745 99.4736 58.7152 99.1545 58.6039C98.8355 58.4851 98.5758 58.3664 98.3828 58.2329V52.7717C98.598 52.7123 98.8206 52.6752 99.0507 52.653C99.2733 52.6307 99.4884 52.6233 99.6962 52.6233C100.683 52.6233 101.395 52.8978 101.841 53.4469C102.286 53.996 102.508 54.7603 102.508 55.7471C102.508 56.6746 102.323 57.4092 101.952 57.9583M91.267 57.9731C90.8589 58.5297 90.2875 58.8116 89.5604 58.8116C88.8332 58.8116 88.2619 58.5297 87.8538 57.9731C87.4457 57.4166 87.2453 56.6524 87.2453 55.6878C87.2453 54.7232 87.4457 53.9886 87.8538 53.4321C88.2619 52.8756 88.8258 52.601 89.5604 52.601C90.295 52.601 90.8589 52.8756 91.267 53.4321C91.6751 53.9886 91.8754 54.738 91.8754 55.6878C91.8754 56.6375 91.6677 57.4092 91.267 57.9731ZM93.7972 53.6324C93.5746 53.0165 93.263 52.4897 92.8549 52.0519C92.4542 51.6141 91.9719 51.2802 91.4006 51.0428C90.8366 50.8054 90.2133 50.6866 89.5455 50.6866C88.8777 50.6866 88.2619 50.8054 87.7053 51.0428C87.1488 51.2802 86.6591 51.6141 86.251 52.0519C85.8429 52.4897 85.5238 53.0165 85.3012 53.6324C85.0786 54.2483 84.9599 54.9309 84.9599 55.6878C84.9599 56.4446 85.0712 57.1273 85.3012 57.7505C85.5238 58.3738 85.8355 58.9007 86.2436 59.3384C86.6443 59.7762 87.1266 60.1175 87.6905 60.3624C88.247 60.6073 88.8703 60.726 89.553 60.726C90.2356 60.726 90.8589 60.6073 91.4228 60.3624C91.9867 60.1175 92.469 59.7762 92.8697 59.3384C93.2704 58.9007 93.5821 58.3738 93.8047 57.7505C94.0198 57.1273 94.1311 56.4446 94.1311 55.6878C94.1311 54.9309 94.0198 54.2483 93.7898 53.6324M84.2624 51.0502C84.1511 51.0131 84.0102 50.976 83.8247 50.9315C83.6392 50.887 83.4536 50.8499 83.2607 50.8202C83.0678 50.7905 82.8675 50.7683 82.6745 50.746C82.4816 50.7312 82.311 50.7163 82.1626 50.7163C81.3834 50.7163 80.6711 50.7831 80.033 50.9241C79.3949 51.0651 78.8606 51.2135 78.4377 51.3693V60.4589H80.6489V52.8088C80.7602 52.7717 80.9531 52.7272 81.2276 52.6826C81.5022 52.6381 81.7619 52.6084 81.9993 52.6084C82.4223 52.6084 82.8007 52.6381 83.1197 52.7049C83.4388 52.7717 83.6911 52.8385 83.8766 52.8978L84.2624 51.0354V51.0502ZM75.9297 50.9241H73.7185V58.6484C73.5701 58.6855 73.3475 58.7152 73.0507 58.7374C72.7539 58.7597 72.4719 58.7745 72.2048 58.7745C71.4628 58.7745 70.9434 58.5593 70.6466 58.1141C70.3498 57.6763 70.2014 56.9418 70.2014 55.9252V50.9241H67.9902V56.2739C67.9902 56.9195 68.057 57.5131 68.1905 58.0548C68.3241 58.5964 68.5467 59.0639 68.8584 59.4497C69.17 59.843 69.5855 60.1398 70.0975 60.3624C70.6169 60.585 71.255 60.6889 72.0193 60.6889C72.8355 60.6889 73.5849 60.6295 74.2676 60.5182C74.9502 60.3995 75.4993 60.2882 75.9297 60.1769V50.9241ZM66.4023 60.4663V58.5148H60.1398V54.8122H65.3264V52.8978H60.1398V49.774H65.9645V47.8225H57.8395V60.4737H66.4023V60.4663Z" fill="black"/>
<path d="M127.625 33.7244C127.662 33.4425 127.729 33.1679 127.826 32.9008C127.922 32.6337 128.056 32.3962 128.234 32.1885C128.412 31.9807 128.627 31.8175 128.879 31.6839C129.132 31.5578 129.436 31.491 129.777 31.491C130.118 31.491 130.386 31.5503 130.623 31.6616C130.86 31.7804 131.061 31.9362 131.224 32.1365C131.387 32.3369 131.513 32.5743 131.595 32.8488C131.684 33.1234 131.721 33.4128 131.721 33.717H127.61L127.625 33.7244ZM125.614 36.6924C125.807 37.2935 126.104 37.8203 126.512 38.2655C126.913 38.7107 127.425 39.0595 128.048 39.3043C128.672 39.5566 129.399 39.6753 130.237 39.6753C130.564 39.6753 130.89 39.6605 131.202 39.6234C131.521 39.5863 131.81 39.5418 132.085 39.4824C132.359 39.4305 132.604 39.3637 132.812 39.2969C133.027 39.2301 133.19 39.1633 133.317 39.104L133.027 37.2935C132.775 37.4048 132.426 37.5087 131.981 37.6051C131.536 37.7016 131.046 37.7535 130.512 37.7535C129.599 37.7535 128.902 37.5458 128.419 37.1228C127.937 36.6999 127.67 36.1063 127.61 35.342H133.91C133.925 35.2233 133.932 35.0823 133.94 34.9339C133.94 34.7855 133.947 34.6445 133.947 34.5258C133.947 32.9082 133.576 31.6913 132.842 30.8751C132.107 30.0589 131.083 29.6508 129.762 29.6508C129.206 29.6508 128.657 29.7547 128.122 29.9699C127.588 30.185 127.113 30.4967 126.698 30.9196C126.282 31.3426 125.948 31.862 125.704 32.5001C125.451 33.1308 125.333 33.8728 125.333 34.7113C125.333 35.431 125.429 36.0914 125.622 36.6924M124.056 29.8882H116.807V31.7358H121.207C120.88 32.1217 120.502 32.5817 120.087 33.1011C119.664 33.6205 119.241 34.177 118.818 34.7558C118.395 35.3346 117.979 35.9059 117.579 36.4847C117.178 37.0634 116.844 37.5829 116.577 38.0726V39.4453H124.168V37.6051H119.241C119.604 37.0486 120.012 36.455 120.472 35.8466C120.932 35.2307 121.385 34.6445 121.83 34.0732C122.283 33.5092 122.706 32.9898 123.099 32.5298C123.492 32.0697 123.811 31.7062 124.056 31.4539V29.9031V29.8882ZM109.891 37.6645C109.431 37.5458 109.045 37.4122 108.712 37.2786L108.326 39.1188C108.533 39.2004 108.89 39.3192 109.402 39.4601C109.914 39.6011 110.589 39.6679 111.427 39.6679C112.681 39.6679 113.646 39.4305 114.321 38.963C114.996 38.4955 115.338 37.8055 115.338 36.8928C115.338 36.4698 115.286 36.0988 115.174 35.7946C115.063 35.4904 114.892 35.2233 114.655 34.9784C114.418 34.741 114.121 34.5258 113.75 34.3403C113.386 34.1548 112.941 33.9619 112.422 33.7689C112.103 33.6576 111.835 33.5538 111.62 33.4499C111.398 33.346 111.22 33.2421 111.093 33.1382C110.96 33.0343 110.863 32.923 110.811 32.7969C110.76 32.6782 110.73 32.5372 110.73 32.374C110.73 32.0549 110.871 31.8249 111.153 31.6691C111.435 31.5207 111.798 31.439 112.251 31.439C112.748 31.439 113.186 31.4836 113.564 31.5726C113.943 31.6616 114.254 31.7655 114.499 31.8768L114.9 30.0886C114.648 29.9921 114.262 29.8882 113.75 29.7844C113.238 29.6805 112.704 29.6285 112.147 29.6285C111.041 29.6285 110.166 29.8808 109.52 30.3854C108.875 30.8899 108.556 31.58 108.556 32.4556C108.556 32.9082 108.623 33.2866 108.764 33.5983C108.904 33.9099 109.097 34.1696 109.335 34.3922C109.58 34.6074 109.869 34.8003 110.203 34.9636C110.537 35.1268 110.908 35.2826 111.309 35.431C111.962 35.6759 112.436 35.8985 112.726 36.1063C113.008 36.314 113.156 36.5737 113.156 36.8928C113.156 37.2341 113.023 37.4716 112.756 37.6125C112.488 37.7535 112.058 37.8203 111.479 37.8203C110.9 37.8203 110.374 37.7609 109.921 37.6348M106.448 29.8882H104.237V37.6125C104.089 37.6496 103.866 37.6793 103.569 37.7016C103.273 37.7238 102.991 37.7387 102.724 37.7387C101.982 37.7387 101.462 37.5235 101.165 37.0857C100.869 36.6479 100.72 35.9133 100.72 34.8968V29.8957H98.509V35.2455C98.509 35.8911 98.5757 36.4847 98.7093 37.0264C98.8429 37.568 99.0655 38.0355 99.3771 38.4213C99.6887 38.8072 100.104 39.1188 100.616 39.334C101.136 39.5566 101.774 39.6605 102.538 39.6605C103.354 39.6605 104.104 39.6011 104.786 39.4898C105.469 39.3711 106.018 39.2598 106.448 39.1559V29.9031V29.8882ZM96.09 25.2729L93.8788 25.6365V30.2221C93.6265 30.0886 93.3223 29.9699 92.9662 29.8586C92.61 29.7473 92.2019 29.6953 91.7418 29.6953C91.0592 29.6953 90.4582 29.814 89.9313 30.0515C89.4119 30.2889 88.9667 30.6302 88.6032 31.068C88.2396 31.5058 87.9576 32.0326 87.7721 32.6485C87.5866 33.2644 87.4901 33.947 87.4901 34.7039C87.4901 35.4607 87.6014 36.1582 87.824 36.7741C88.0466 37.3899 88.3731 37.9093 88.7887 38.3471C89.2116 38.7775 89.7162 39.1114 90.3098 39.3414C90.9034 39.5714 91.5786 39.6902 92.3355 39.6902C93.0923 39.6902 93.7601 39.6382 94.4279 39.5269C95.0883 39.4156 95.6374 39.2969 96.0826 39.1633V25.2878L96.09 25.2729ZM90.3098 32.4111C90.6808 31.862 91.267 31.5874 92.0683 31.5874C92.4319 31.5874 92.7807 31.6468 93.0997 31.7581C93.4188 31.8768 93.6785 31.9955 93.8714 32.1291V37.6051C93.7156 37.6422 93.5078 37.6719 93.263 37.7016C93.0107 37.7313 92.7139 37.7461 92.3577 37.7461C91.5415 37.7461 90.9034 37.4716 90.4433 36.915C89.9833 36.3585 89.7533 35.5943 89.7533 34.6222C89.7533 33.6502 89.9388 32.9453 90.3098 32.3962M77.5992 39.4379H79.8104V31.7358C79.9588 31.7136 80.1814 31.6839 80.4856 31.6468C80.7898 31.6097 81.0792 31.5949 81.3612 31.5949C81.7396 31.5949 82.0586 31.6468 82.3183 31.7507C82.5781 31.8546 82.7858 32.0178 82.9416 32.2404C83.0975 32.463 83.2013 32.7598 83.2681 33.116C83.3349 33.4721 83.3646 33.9099 83.3646 34.4219V39.4453H85.5758V34.0806C85.5758 33.435 85.509 32.8414 85.3828 32.2998C85.2567 31.7581 85.0341 31.2981 84.7225 30.9122C84.4108 30.5264 83.9953 30.2296 83.4685 30.0144C82.9416 29.7992 82.2961 29.6953 81.517 29.6953C80.6859 29.6953 79.9365 29.7473 79.2539 29.8586C78.5712 29.9699 78.0221 30.0812 77.5918 30.2073V39.4453L77.5992 39.4379ZM75.0912 29.8882H72.88V37.6125C72.7316 37.6496 72.509 37.6793 72.2122 37.7016C71.9154 37.7238 71.6334 37.7387 71.3663 37.7387C70.6243 37.7387 70.1049 37.5235 69.8081 37.0857C69.5113 36.6479 69.3629 35.9133 69.3629 34.8968V29.8957H67.1517V35.2455C67.1517 35.8911 67.2185 36.4847 67.352 37.0264C67.4856 37.568 67.7082 38.0355 68.0199 38.4213C68.3315 38.8072 68.7396 39.1188 69.259 39.334C69.7784 39.5566 70.4165 39.6605 71.1808 39.6605C71.997 39.6605 72.7464 39.6011 73.4291 39.4898C74.1117 39.3711 74.6608 39.2598 75.0912 39.1559V29.9031V29.8882ZM60.1397 39.4379V33.9248H65.1928V31.9733H60.1397V28.7381H65.8384V26.7866H57.8395V39.4379H60.1397Z" fill="black"/>
<path d="M42.0644 84.1363L0 76.2413V13.1484L42.0644 0V84.1363Z" fill="#003399"/>
<path d="M0 61.0821V44.6986C2.12214 45.27 4.47431 45.5445 6.03252 44.6096C9.43092 42.5839 14.5805 36.3733 14.5805 36.3733C14.5805 36.3733 11.8647 43.0662 12.8887 45.5222C13.972 48.1341 20.3978 48.2751 20.3978 48.2751C20.3978 48.2751 13.1335 52.69 9.74998 55.621C6.26997 58.6113 3.85844 69.593 3.85844 69.593C3.85844 69.593 2.17408 62.5513 0.00742008 61.0821" fill="#FFCC00"/>
<path d="M42.0644 32.1809C40.6101 33.0936 39.1854 33.8208 38.1095 34.0285C34.7259 34.6815 31.1124 30.8008 31.1124 30.8008C31.1124 30.8008 31.9657 36.4771 29.8361 39.9794C27.5952 43.6672 20.3978 48.2825 20.3978 48.2825C20.3978 48.2825 28.3521 46.7391 29.9029 49.21C31.5501 51.859 31.7653 61.0747 31.7653 61.0747C31.7653 61.0747 35.8167 50.0039 39.497 48.4977C40.2168 48.1934 41.1072 47.9115 42.0644 47.6369V32.1809Z" fill="#E21D2C"/>
<path d="M14.5804 36.3733C14.5804 36.3733 18.6466 29.9995 18.4018 27.7363C18.1643 25.5845 13.9423 24.8054 13.9423 24.8054C13.9423 24.8054 19.4628 23.4475 21.8744 21.2809C24.1968 19.1884 26.2299 14.8477 26.2299 14.8477C26.2299 14.8477 26.7419 18.439 28.8047 18.951C30.9343 19.4852 36.6255 17.185 36.6255 17.185C36.6255 17.185 32.1289 21.4367 30.3703 23.7592C28.5302 26.1781 31.1124 30.786 31.1124 30.786C31.1124 30.786 26.3412 29.1239 23.67 29.621C21.0433 30.1182 14.573 36.3585 14.573 36.3585" fill="white"/>
</svg>
