<svg width="120" height="104" viewBox="0 0 120 104" fill="none" xmlns="http://www.w3.org/2000/svg">
<circle cx="60" cy="53.25" r="50" fill="#A1D99B"/>
<g clip-path="url(#clip0_1029_1232)">
<path d="M41.8073 57.3978C38.7578 59.2749 36.5914 62.5108 36.0149 66.0326C35.864 66.9561 35.8113 67.9129 35.4817 68.7868C34.8503 70.4484 33.0192 71.2357 31.4836 70.1419C30.6028 69.516 30.0915 68.5025 29.7125 67.4989C27.7402 62.2474 27.9631 54.8017 31.5524 50.2505C34.8243 46.1093 38.9033 42.6921 42.9596 39.3038" fill="#995348"/>
<path d="M85.5869 69.2954C85.5527 64.618 84.5968 59.7675 84.1342 55.341C83.3322 47.7577 83.0507 39.9339 81.9034 32.3201C80.8552 25.3464 79.2489 15.7279 73.9831 10.5469C70.025 6.65691 64.7219 3.84095 59.0962 3.58214C55.2768 3.40655 50.4923 4.36376 47.822 7.26162C45.0324 10.2925 43.4256 14.2264 42.359 18.1487C40.2207 26.0334 38.6307 34.1182 37.5467 42.1974C37.0204 46.1023 36.6781 50.0109 36.4566 53.9182C35.8927 63.8182 33.4421 74.1569 40.7874 82.3095C44.2505 86.1591 49.1069 88.6078 54.1785 89.7201C60.7544 91.1651 67.9624 91.0172 73.9938 87.9049C78.9447 85.3542 83.5318 81.0955 84.9254 75.5493C85.4323 73.5397 85.6047 71.4366 85.5926 69.2953L85.5869 69.2954Z" fill="#79433C"/>
<path d="M43.7693 15.1559C39.9694 15.1977 37.5425 11.4741 38.0441 7.94165C38.7216 3.1419 44.4214 1.25281 48.2621 3.88444C49.8436 4.96637 50.866 6.97054 50.438 8.83605" fill="#79433C"/>
<path d="M40.2584 8.11724C40.2896 8.03863 40.3208 7.96001 40.3577 7.88073C40.3765 7.84393 40.3953 7.80713 40.4198 7.76966C40.4191 7.76397 40.448 7.71446 40.4191 7.76397C40.3909 7.81917 40.4335 7.73921 40.4436 7.7265C40.5366 7.58297 40.6423 7.44947 40.7608 7.32599C40.7709 7.31328 40.7917 7.29354 40.8075 7.28015C40.738 7.32868 40.7817 7.30625 40.7968 7.28718C40.8283 7.26041 40.8592 7.22795 40.8908 7.20118C40.9589 7.14128 41.0328 7.0807 41.108 7.0315C41.1718 6.98365 41.2413 6.93512 41.3115 6.89227C41.3494 6.87052 41.3874 6.84876 41.4253 6.827C41.4468 6.81294 41.4891 6.77914 41.4139 6.82834C41.4354 6.81429 41.4626 6.79956 41.4848 6.79118C41.6644 6.69511 41.8518 6.61542 42.0462 6.54644C42.1349 6.51295 42.2299 6.48448 42.3193 6.45667C42.3693 6.43926 42.42 6.42753 42.465 6.41647C42.4878 6.41379 42.5157 6.40474 42.5379 6.39637C42.4479 6.41849 42.5379 6.39637 42.555 6.39436C42.9321 6.30388 43.3227 6.22912 43.7073 6.20119C43.7815 6.19246 43.8507 6.19008 43.9262 6.19273C43.9662 6.18803 44.0075 6.1947 44.0475 6.19C44.0989 6.18395 44.0075 6.1947 44.0075 6.1947C44.0367 6.19703 44.0717 6.19868 44.1002 6.19532C44.2692 6.20428 44.4331 6.21959 44.5976 6.24059C44.7622 6.26159 44.9396 6.29262 45.1062 6.33067C45.1895 6.3497 45.2728 6.36873 45.3567 6.39344C45.3745 6.39711 45.4102 6.40445 45.4222 6.4088C45.4222 6.4088 45.344 6.38341 45.3923 6.40078C45.4407 6.41815 45.4884 6.42984 45.5304 6.44219C45.8492 6.54306 46.1656 6.67303 46.4626 6.83411C46.4995 6.85283 46.5307 6.87221 46.5677 6.89092C46.6359 6.92902 46.5613 6.88591 46.5492 6.88157C46.562 6.8916 46.5805 6.90095 46.5989 6.91031C46.6678 6.95409 46.7367 6.99788 46.8005 7.04802C46.9403 7.15265 47.0693 7.2643 47.199 7.38165C47.2443 7.42243 47.1522 7.32949 47.1983 7.37596C47.2181 7.39669 47.2379 7.41742 47.2577 7.43815C47.291 7.47459 47.3243 7.51103 47.3582 7.55316C47.4254 7.63173 47.4869 7.71097 47.5427 7.79088C47.5709 7.83368 47.5991 7.87648 47.6267 7.9136C47.6401 7.92931 47.6485 7.95138 47.6626 7.97278C47.664 7.98416 47.7141 8.06474 47.6845 8.01057C47.6556 7.96208 47.6858 8.02194 47.6993 8.03766C47.7141 8.06474 47.7225 8.08681 47.7373 8.1139C47.7598 8.15737 47.7823 8.20084 47.7998 8.25067C47.8398 8.34397 47.8791 8.43158 47.9077 8.52622C47.9245 8.57037 47.9363 8.62087 47.9538 8.6707C47.9564 8.69344 47.9854 8.74192 47.9517 8.65364C47.9601 8.67571 47.9642 8.70982 47.9726 8.73189C48.014 8.93457 48.0318 9.13424 48.0333 9.34161C48.031 9.56671 48.3021 9.75389 48.512 9.71768C48.7676 9.67609 48.8894 9.48304 48.8897 9.24088C48.8981 8.4328 48.5536 7.62587 48.0351 7.01235C47.5167 6.39883 46.8754 6.01882 46.1549 5.7519C45.4343 5.48498 44.646 5.3298 43.8601 5.34153C43.4786 5.34605 43.093 5.41445 42.7203 5.49288C42.2682 5.5864 41.8196 5.70835 41.3961 5.89651C40.5663 6.27082 39.8089 6.91335 39.4891 7.78111C39.4099 7.9922 39.4879 8.25974 39.7127 8.34861C39.9189 8.42812 40.199 8.34906 40.2825 8.12593L40.2584 8.11724Z" fill="#995348"/>
<path d="M67.7768 9.22382C67.1639 5.24556 71.0979 2.76896 74.6192 2.48407C77.4511 2.25828 80.7848 3.74464 81.5415 6.68499C82.4124 10.0764 79.413 13.3729 76.3826 14.3739" fill="#79433C"/>
<path d="M71.836 7.2265C71.836 7.2265 71.8521 7.20018 71.8607 7.1842C71.8872 7.1306 71.8152 7.24622 71.8464 7.19923C71.8626 7.17291 71.8777 7.15223 71.8995 7.12686C71.945 7.06484 71.9943 7.01505 72.0502 6.96058C72.107 6.90046 71.9962 7.00376 72.0568 6.95589C72.0843 6.93147 72.1108 6.9127 72.1382 6.88829C72.1988 6.84041 72.2641 6.79913 72.3294 6.75785C72.3559 6.73908 72.3815 6.72596 72.408 6.70719C72.4212 6.69781 72.5234 6.64531 72.4667 6.6706C72.4099 6.6959 72.4988 6.65279 72.5178 6.64436C72.5556 6.62749 72.5934 6.61063 72.6322 6.58812C72.7713 6.5244 72.9094 6.46633 73.0532 6.40922C73.3464 6.29594 73.6481 6.2015 73.9526 6.12495C73.9706 6.12216 74.0321 6.10347 73.947 6.124C73.9649 6.12121 73.9829 6.11843 73.9952 6.11469C74.0321 6.10347 74.0737 6.09885 74.1106 6.08763C74.189 6.07179 74.2675 6.05595 74.345 6.04576C74.501 6.01973 74.6618 6.0003 74.8159 5.98556C74.9699 5.97082 75.1221 5.96737 75.2743 5.96392C75.3149 5.96494 75.3556 5.96597 75.3905 5.96604C75.4775 5.96905 75.3216 5.96025 75.4075 5.9689C75.4935 5.97755 75.5748 5.9796 75.6608 5.98825C75.9594 6.01522 76.2475 6.06947 76.5366 6.1529C76.5649 6.15766 76.6074 6.18222 76.5082 6.14813C76.5196 6.15004 76.5366 6.1529 76.5526 6.1614C76.5866 6.16712 76.6187 6.18413 76.6518 6.19549C76.7179 6.21822 76.7783 6.23999 76.8435 6.26836C76.9691 6.31851 77.0928 6.37995 77.2164 6.44138C77.2693 6.47349 77.3288 6.50091 77.3816 6.53302C77.4081 6.54908 77.4392 6.57173 77.4713 6.58874C77.4713 6.58874 77.3977 6.54153 77.4402 6.56609C77.4562 6.57459 77.4713 6.58874 77.4873 6.59725C77.6025 6.67466 77.711 6.75678 77.8129 6.84358C77.9308 6.93889 78.0355 7.04358 78.1402 7.14827C78.1505 7.15582 78.1854 7.19072 78.1402 7.14827C78.0959 7.10018 78.1496 7.16147 78.159 7.17467C78.1835 7.20201 78.2071 7.23501 78.2316 7.26235C78.275 7.31609 78.323 7.37643 78.3654 7.43581C78.4078 7.4952 78.4502 7.55458 78.487 7.61302C78.5049 7.64506 78.5284 7.67805 78.5463 7.71009C78.5548 7.72893 78.5642 7.74212 78.5726 7.76097C78.599 7.81185 78.5726 7.76097 78.5642 7.74212C78.5877 7.80994 78.6338 7.88157 78.663 7.95034C78.6921 8.01911 78.7203 8.09352 78.7485 8.16794C78.8236 8.37799 79.0937 8.50467 79.3065 8.41852C79.5194 8.33237 79.6361 8.09072 79.5582 7.86278C79.1543 6.7033 78.1403 5.80703 76.989 5.41027C75.6631 4.9435 74.211 5.08261 72.9067 5.55428C72.1859 5.81633 71.4385 6.1668 71.0523 6.8625C70.9432 7.05899 71.0569 7.35101 71.259 7.43143C71.4875 7.52791 71.7136 7.43237 71.8303 7.22555L71.836 7.2265Z" fill="#995348"/>
<path d="M61.9318 32.9862C62.859 32.6038 63.7096 32.0505 64.4962 31.435C65.4653 30.68 66.3754 29.7883 66.8575 28.6608C67.8832 26.2619 66.6266 23.3442 64.5225 21.7928C62.4128 20.2472 59.6772 19.8249 57.0612 19.8251C56.0379 19.8249 55.0036 19.882 54.0294 20.1676C51.6167 20.8811 49.7149 23.0835 49.38 25.5663C48.4917 32.1032 56.8093 35.0922 61.9376 32.9861L61.9318 32.9862Z" fill="#F7C5AB"/>
<path d="M52.8125 21.91C53.1913 23.4174 54.7224 24.6316 55.9109 25.5289C57.1343 26.4602 58.5483 26.4332 59.8149 25.5433C60.7562 24.8802 61.4123 23.8939 61.9936 22.9027C62.2475 22.4648 62.5012 22.004 62.5531 21.4995C62.8453 18.7881 57.4307 18.9049 55.8071 19.2205C54.3442 19.5056 52.3373 19.9972 52.8183 21.91L52.8125 21.91Z" fill="#1E1F23"/>
<path d="M43.1127 64.0584C41.5535 69.1942 42.3245 75.5239 46.3682 79.3557C50.621 83.3913 56.7756 84.6921 62.4759 83.8966C67.2865 83.2253 72.6746 81.2252 75.643 77.1904C79.9198 71.3777 76.9417 62.49 72.5021 57.6778C69.5055 54.43 64.059 52.6863 59.7264 52.3846C52.9658 51.915 46.7427 55.8882 43.9231 61.9482C43.6086 62.6216 43.3404 63.3288 43.1184 64.0583L43.1127 64.0584Z" fill="#F7C5AB"/>
<path d="M83.7706 43.1953C85.1658 44.0732 86.4849 45.3469 87.5886 46.3826C89.314 48.0011 90.886 49.7931 92.2354 51.7307C94.7589 55.3502 96.6579 59.6922 96.4944 64.1771C96.3708 67.5737 93.7244 74.2216 89.1772 73.2238C86.9641 72.7385 86.4134 70.2368 85.979 68.3693C85.3276 65.5995 84.5532 63.1403 83.106 60.677C81.5182 57.9749 79.6107 55.4708 78.1943 52.6694C77.207 50.7164 76.4619 48.3084 76.8747 46.111C77.3311 43.6955 79.9346 41.5198 82.4581 42.5227C82.9027 42.6953 83.3364 42.931 83.7706 43.201L83.7706 43.1953Z" fill="#995348"/>
<path d="M62.5321 89.7199C62.553 91.6263 62.6429 93.5262 62.7442 95.4203C62.8606 97.6405 62.1554 100.958 64.8664 101.764C68.0101 102.703 71.3661 102.557 74.6473 102.406C76.1988 102.332 78.5391 102.364 79.5937 101.012C80.5802 99.7532 79.9109 97.9684 78.5978 97.2385C77.5103 96.6321 76.2103 96.5777 74.9626 96.5628C76.2253 94.2816 77.4939 92.0003 78.7567 89.7191C80.3296 86.8849 81.9563 83.7122 81.2374 80.5539" fill="#79433C"/>
<path d="M43.1577 83.2812C44.4687 86.9657 45.6164 90.7307 46.5886 94.5581C43.7521 94.22 40.8533 96.516 40.1041 99.7025C39.9765 100.261 39.9539 100.969 40.3708 101.286C40.5669 101.435 40.8103 101.45 41.0414 101.46C46.0293 101.744 51.0278 101.895 56.0188 101.907C56.2133 101.905 56.4261 101.902 56.5888 101.773C56.7214 101.669 56.7986 101.505 56.8697 101.34C57.4324 99.9903 57.4823 98.4461 57.4962 96.9446C57.5213 94.2503 57.4674 91.5569 57.3345 88.8705" fill="#79433C"/>
<path d="M54.3641 8.29132C54.432 8.71427 54.5743 9.1135 54.6766 9.52461C54.7066 9.63879 54.7309 9.75876 54.7437 9.87314L54.7252 9.75883C54.7503 9.95322 54.7639 10.1477 54.7373 10.337L54.7533 10.2223C54.7533 10.2223 54.7479 10.2624 54.7424 10.2797C54.7258 10.3371 54.7207 10.3944 54.7385 10.4515C54.7392 10.5087 54.757 10.5601 54.792 10.6112C54.8213 10.6624 54.8563 10.7021 54.9026 10.7302C54.9433 10.7699 54.9952 10.7922 55.0529 10.803C55.1623 10.8247 55.2887 10.8176 55.3858 10.7535L55.4712 10.6839C55.5224 10.6318 55.562 10.5684 55.5784 10.4938C55.6051 10.3103 55.6204 10.1326 55.6126 9.94374C55.6048 9.75489 55.5741 9.58346 55.532 9.40643C55.4712 9.10937 55.3761 8.82413 55.2981 8.53298C55.2561 8.37313 55.2141 8.20755 55.1892 8.04178C55.1771 7.98466 55.1479 7.93918 55.1129 7.89376C55.0836 7.84827 55.0429 7.80864 54.991 7.78631C54.9389 7.75825 54.887 7.74165 54.8294 7.73656C54.7718 7.72574 54.7143 7.72637 54.657 7.74418C54.5539 7.77966 54.4512 7.84377 54.4005 7.94166L54.3556 8.04522C54.3335 8.11989 54.3343 8.20004 54.3581 8.27421L54.3641 8.29132Z" fill="#995348"/>
<path d="M57.2095 7.555C57.2045 8.13906 57.2569 8.72249 57.3494 9.29976C57.3741 9.45408 57.4046 9.60833 57.435 9.76259C57.4472 9.81971 57.4764 9.86519 57.5114 9.91061C57.5406 9.9561 57.5813 9.99573 57.6333 10.0181C57.6854 10.0461 57.7373 10.0627 57.7948 10.0678C57.8524 10.0786 57.9099 10.078 57.9672 10.0602C58.0703 10.0247 58.1731 9.9606 58.2238 9.86271L58.2686 9.75915C58.2908 9.68448 58.2899 9.60433 58.2661 9.53016C58.2237 9.33595 58.1929 9.14162 58.162 8.94729L58.1805 9.0616C58.1245 8.67288 58.0914 8.2839 58.0814 7.88895C58.0801 7.77445 58.0789 7.66568 58.0776 7.55118C58.077 7.49393 58.0649 7.43681 58.0413 7.38554C58.0235 7.33421 57.9943 7.28872 57.9478 7.24915C57.9072 7.20952 57.8609 7.1814 57.8089 7.15907C57.7568 7.13102 57.6992 7.1202 57.6418 7.12655C57.5326 7.12776 57.4123 7.16916 57.3385 7.25585C57.2647 7.34254 57.2141 7.44616 57.2153 7.56066L57.2095 7.555Z" fill="#995348"/>
<path d="M59.5559 6.38978C59.51 6.92277 59.4986 7.46109 59.5161 7.99911C59.5177 8.14795 59.5309 8.3024 59.544 8.45112C59.5446 8.50837 59.5568 8.56549 59.5803 8.61676C59.5981 8.6681 59.6274 8.71358 59.6738 8.75315C59.7145 8.79278 59.7608 8.8209 59.8128 8.84323C59.8648 8.87128 59.9225 8.8821 59.9799 8.87575C60.0891 8.87455 60.2094 8.83315 60.2832 8.74645C60.357 8.65976 60.4133 8.55608 60.4063 8.44164C60.3659 7.90388 60.3601 7.37147 60.3886 6.83295C60.3985 6.68398 60.4083 6.52928 60.4182 6.38031C60.4175 6.32306 60.4054 6.26594 60.3818 6.21467C60.364 6.16333 60.3348 6.11785 60.2883 6.07828C60.2477 6.03865 60.2014 6.01053 60.1494 5.9882C60.0973 5.96014 60.0397 5.94932 59.9823 5.95568C59.8731 5.95688 59.7528 5.99828 59.679 6.08498L59.611 6.17161C59.5715 6.24075 59.555 6.30964 59.5559 6.38978Z" fill="#995348"/>
<path d="M62.7495 8.5241C62.6496 8.85728 62.5672 9.20172 62.5135 9.55157C62.4545 9.93011 62.4185 10.3198 62.417 10.7035C62.4191 10.8981 62.4213 11.0985 62.4349 11.293C62.4419 11.4074 62.4834 11.5158 62.5647 11.595C62.6403 11.6686 62.7616 11.7246 62.8708 11.7176C62.98 11.7107 63.1003 11.675 63.1741 11.5883C63.2479 11.5016 63.3042 11.398 63.2972 11.2835C63.2633 10.8144 63.2754 10.3391 63.3334 9.86892L63.3174 9.9836C63.3703 9.56506 63.4578 9.15185 63.5798 8.744C63.6132 8.64057 63.5886 8.50343 63.5302 8.41246C63.4717 8.32149 63.3731 8.24242 63.2693 8.22066C63.1599 8.19896 63.0334 8.20607 62.9364 8.27012C62.8394 8.33417 62.7771 8.42074 62.7438 8.52989L62.7495 8.5241Z" fill="#995348"/>
<path d="M59.9364 10.4894C59.7928 11.0292 59.6782 11.5801 59.598 12.1364C59.5714 12.3313 59.5448 12.5206 59.5239 12.7155C59.5245 12.7727 59.5367 12.8298 59.5602 12.8811C59.578 12.9324 59.6073 12.9779 59.6537 13.0175C59.6944 13.0571 59.7407 13.0852 59.7927 13.1076C59.8447 13.1356 59.9024 13.1464 59.9598 13.1401C60.069 13.1389 60.1893 13.0975 60.2631 13.0108L60.3311 12.9242C60.3706 12.855 60.3871 12.7861 60.3862 12.706C60.3912 12.6372 60.4019 12.5627 60.4126 12.4938L60.3966 12.6085C60.4601 12.1097 60.5466 11.6106 60.662 11.1227C60.695 10.9849 60.728 10.8471 60.7667 10.7093C60.7833 10.6519 60.7885 10.5946 60.7706 10.5375C60.7699 10.4802 60.7521 10.4289 60.7171 10.3778C60.6878 10.3266 60.6528 10.2869 60.6065 10.2587C60.5659 10.2191 60.5139 10.1968 60.4563 10.186C60.3468 10.1643 60.2204 10.1714 60.1233 10.2354C60.0263 10.2995 59.9583 10.3861 59.9307 10.4952L59.9364 10.4894Z" fill="#995348"/>
<path d="M56.1028 11.5797C56.1508 12.2834 56.1988 12.9929 56.2468 13.6966C56.2605 13.8968 56.2741 14.0914 56.2878 14.2916C56.2948 14.406 56.3362 14.5144 56.4176 14.5936C56.4932 14.6672 56.6145 14.7232 56.7237 14.7162C56.8328 14.7093 56.9532 14.6736 57.027 14.5869C57.1008 14.5002 57.1571 14.3966 57.1501 14.2821C57.1021 13.5784 57.0541 12.869 57.0061 12.1653C56.9924 11.965 56.9788 11.7705 56.9651 11.5702C56.9581 11.4558 56.9166 11.3475 56.8353 11.2682C56.7597 11.1946 56.6384 11.1387 56.5292 11.1456C56.42 11.1525 56.2997 11.1882 56.2259 11.2749C56.1521 11.3616 56.0958 11.4653 56.1028 11.5797Z" fill="#995348"/>
<path d="M58.5312 14.4158C58.476 15.1493 58.4554 15.8881 58.4577 16.6209C58.4599 16.827 58.4622 17.0331 58.4644 17.2392C58.4656 17.348 58.5129 17.462 58.5943 17.5412C58.6698 17.6148 58.7912 17.6708 58.9003 17.6638C59.0095 17.6569 59.1298 17.6212 59.2036 17.5345C59.2774 17.4479 59.328 17.3442 59.3267 17.2297C59.3072 16.4971 59.3163 15.7584 59.3543 15.0251C59.3635 14.8189 59.3785 14.6126 59.3935 14.4063C59.3981 14.3032 59.3391 14.1721 59.2637 14.1043C59.1882 14.0364 59.0668 13.9747 58.9576 13.9817C58.8484 13.9886 58.7281 14.0243 58.6543 14.111L58.5863 14.1976C58.5468 14.2667 58.5303 14.3356 58.5312 14.4158Z" fill="#995348"/>
<path d="M65.4993 8.97399C65.6624 8.64012 65.8197 8.30058 65.9827 7.96671C66.0277 7.8746 66.0726 7.77677 66.1176 7.68467C66.1458 7.63283 66.1625 7.58112 66.1676 7.52381C66.1784 7.46643 66.1778 7.40918 66.1599 7.35212C66.1478 7.295 66.1186 7.24952 66.0836 7.2041C66.0543 7.15861 66.0137 7.11898 65.9617 7.09665L65.8577 7.05199C65.7827 7.02991 65.7022 7.0308 65.6277 7.05452L65.5248 7.10145C65.462 7.14222 65.4108 7.19431 65.3713 7.25773C65.2082 7.59161 65.0509 7.93114 64.8879 8.26502C64.8429 8.35712 64.798 8.45495 64.753 8.54705C64.7248 8.59889 64.7081 8.65061 64.703 8.70792C64.6921 8.76529 64.6928 8.82254 64.7107 8.8796C64.7228 8.93672 64.752 8.98221 64.787 9.02763C64.8163 9.07311 64.8569 9.11274 64.9089 9.13507L65.0129 9.17973C65.0879 9.20181 65.1684 9.20093 65.2429 9.17721L65.3458 9.13027C65.4086 9.0895 65.4598 9.03741 65.4993 8.97399Z" fill="#995348"/>
<path d="M50.8973 7.17282C51.0281 7.56645 51.1531 7.96014 51.2668 8.35968C51.2968 8.47386 51.3325 8.58798 51.3625 8.70216C51.3747 8.75928 51.4039 8.80477 51.4389 8.85019C51.4681 8.89567 51.5088 8.9353 51.5608 8.95763C51.6129 8.98569 51.6648 9.00229 51.7223 9.00739C51.78 9.0182 51.8374 9.01757 51.8947 8.99977L51.9977 8.95283C52.0605 8.91206 52.1117 8.85997 52.1512 8.79655L52.1961 8.693C52.2183 8.61832 52.2174 8.53818 52.1936 8.46401C52.0857 8.0644 51.9663 7.66492 51.8412 7.27123C51.8055 7.15711 51.7698 7.04872 51.7283 6.93467C51.7162 6.87754 51.6869 6.83206 51.6519 6.78664C51.6227 6.74116 51.582 6.70153 51.53 6.67919C51.478 6.65114 51.426 6.63453 51.3685 6.62944C51.3109 6.61862 51.2534 6.61925 51.1961 6.63706L51.0931 6.684C51.0303 6.72476 50.9792 6.77686 50.9396 6.84027L50.8948 6.94383C50.8726 7.0185 50.8735 7.09865 50.8973 7.17282Z" fill="#995348"/>
<path d="M52.6658 11.1613C52.8141 11.5776 52.9395 11.9999 53.0305 12.4341C53.0548 12.554 53.0792 12.674 53.1035 12.7997C53.1157 12.8568 53.1449 12.9023 53.1799 12.9477C53.2091 12.9932 53.2498 13.0329 53.3018 13.0552C53.3539 13.0832 53.4058 13.0998 53.4633 13.1049C53.521 13.1158 53.5784 13.1151 53.6357 13.0973L53.7387 13.0504C53.8015 13.0096 53.8527 12.9575 53.8922 12.8941L53.9371 12.7906C53.9593 12.7159 53.9584 12.6357 53.9346 12.5616C53.8551 12.1273 53.7469 11.6991 53.6157 11.2768C53.5799 11.157 53.5384 11.0429 53.4969 10.9231C53.4847 10.866 53.4555 10.8205 53.4205 10.7751C53.3912 10.7296 53.3506 10.69 53.2986 10.6677C53.2465 10.6396 53.1946 10.623 53.137 10.6179C53.0794 10.6071 53.0219 10.6077 52.9647 10.6255L52.8617 10.6725C52.7989 10.7132 52.7477 10.7653 52.7082 10.8287L52.6633 10.9323C52.6411 11.007 52.642 11.0871 52.6658 11.1613Z" fill="#995348"/>
<path d="M88.0092 68.9596C87.9483 69.1779 87.9854 69.4179 87.9994 69.6411C88.013 69.8356 88.0267 70.0358 88.0461 70.2303C88.0852 70.6478 88.1473 71.0708 88.2438 71.4763C88.2979 71.6875 88.3634 71.8987 88.4462 72.1039C88.4583 72.161 88.4875 72.2065 88.5225 72.2519C88.5518 72.2974 88.5925 72.337 88.6444 72.3593C88.737 72.4099 88.8752 72.4312 88.9784 72.4015C89.0815 72.3717 89.1843 72.3019 89.2349 72.204C89.2856 72.1061 89.3187 71.9798 89.2773 71.8715C89.1118 71.461 89.0151 71.0327 88.9527 70.5925L88.9712 70.7068C88.9339 70.4438 88.908 70.1807 88.8878 69.9176C88.8749 69.786 88.8677 69.6544 88.8605 69.5228C88.8533 69.3912 88.8346 69.2597 88.8504 69.1279L88.8344 69.2426C88.8344 69.2426 88.8397 69.1967 88.8452 69.1795C88.8728 69.0704 88.8541 68.9446 88.7956 68.8479C88.7428 68.7569 88.6385 68.6779 88.5348 68.6561C88.4253 68.6344 88.2989 68.6415 88.2018 68.7056C88.1048 68.7696 88.0368 68.8563 88.0092 68.9653L88.0092 68.9596Z" fill="#36221D"/>
<path d="M90.7214 69.3191C90.7523 70.0402 90.7373 70.7675 90.6935 71.4894C90.6785 71.6957 90.6634 71.8963 90.6427 72.1026C90.6433 72.1599 90.6555 72.217 90.679 72.2683C90.6969 72.3196 90.7261 72.3651 90.7725 72.4046C90.8481 72.4782 90.9694 72.5342 91.0786 72.5272C91.1877 72.5203 91.3081 72.4846 91.3819 72.3979L91.4499 72.3113C91.4894 72.2422 91.5059 72.1733 91.505 72.0931C91.5776 71.3709 91.6099 70.6491 91.6019 69.9221C91.5996 69.716 91.5974 69.5156 91.5837 69.3096C91.5824 69.1952 91.5352 69.0869 91.4539 69.0076C91.3783 68.934 91.257 68.8781 91.1478 68.885C91.0386 68.8919 90.9183 68.9276 90.8445 69.0143C90.7707 69.101 90.7144 69.2047 90.7214 69.3191Z" fill="#36221D"/>
<path d="M93.1582 68.7141C93.1582 68.7141 93.17 68.7368 93.1759 68.7482L93.1287 68.6457C93.1406 68.6742 93.1466 68.7028 93.1527 68.737L93.1342 68.6227C93.1529 68.7485 93.1371 68.8804 93.127 69.0064C93.1169 69.1382 93.1012 69.2758 93.0854 69.4077L93.1014 69.293C93.0276 69.9007 92.8847 70.5035 92.6898 71.0839C92.6342 71.2505 92.5727 71.4115 92.5055 71.5726L92.5503 71.469C92.5503 71.469 92.528 71.5265 92.5168 71.5553C92.4886 71.6071 92.4719 71.6588 92.4668 71.7162C92.4559 71.7735 92.4566 71.8308 92.4745 71.8878C92.5043 71.9848 92.5802 72.0928 92.6727 72.1433C92.771 72.1938 92.8921 72.221 93.0067 72.1854C93.104 72.15 93.2183 72.0858 93.2632 71.988C93.4538 71.5393 93.6155 71.0852 93.7311 70.6144C93.8466 70.1436 93.9276 69.6618 93.974 69.1803C94.0052 68.8823 94.0533 68.5497 93.8952 68.2823C93.8424 68.1913 93.7381 68.118 93.6343 68.0905C93.5305 68.063 93.3927 68.076 93.3014 68.1399C93.2101 68.2039 93.1306 68.2907 93.1088 68.3997C93.087 68.5087 93.0941 68.6289 93.1584 68.7313L93.1582 68.7141Z" fill="#36221D"/>
<path d="M75.8281 99.4504C75.83 99.6222 75.8261 99.794 75.805 99.966L75.821 99.8513C75.7842 100.161 75.7012 100.459 75.5836 100.747L75.6285 100.644C75.5724 100.776 75.5106 100.902 75.443 101.029C75.4148 101.081 75.3981 101.133 75.393 101.19C75.3821 101.247 75.3828 101.305 75.4006 101.362C75.4128 101.419 75.442 101.464 75.477 101.51C75.5063 101.555 75.5469 101.595 75.5989 101.617C75.6972 101.668 75.8183 101.695 75.9329 101.659C76.0475 101.624 76.133 101.56 76.1894 101.462C76.2514 101.352 76.3077 101.237 76.3524 101.122C76.4141 100.978 76.4757 100.829 76.52 100.68C76.6034 100.415 76.6521 100.14 76.6778 99.8648C76.6878 99.7272 76.692 99.5898 76.6905 99.4524C76.6899 99.3951 76.6778 99.338 76.6542 99.2867C76.6364 99.2354 76.6071 99.1899 76.5607 99.1503C76.52 99.1107 76.4737 99.0826 76.4217 99.0603C76.3697 99.0322 76.3121 99.0214 76.2546 99.0277L76.1399 99.0462C76.0654 99.0699 76.0025 99.105 75.9514 99.157C75.8776 99.2437 75.827 99.3474 75.8282 99.4619L75.8281 99.4504Z" fill="#36221D"/>
<path d="M77.8609 99.222C77.9142 99.3645 77.9561 99.5187 77.9808 99.6673L77.9623 99.5529C77.9873 99.7359 77.9893 99.9191 77.9683 100.103L77.9843 99.9878C77.9634 100.177 77.9137 100.361 77.8409 100.539L77.8857 100.436C77.8409 100.539 77.796 100.637 77.7337 100.729C77.7056 100.781 77.6889 100.833 77.6838 100.89C77.6729 100.947 77.6735 101.005 77.6914 101.062C77.7035 101.119 77.7328 101.164 77.7678 101.21C77.797 101.255 77.8377 101.295 77.8897 101.317C77.988 101.368 78.109 101.395 78.2236 101.359L78.3266 101.312C78.3894 101.272 78.4405 101.22 78.4801 101.156C78.5648 101.018 78.6322 100.868 78.6879 100.713C78.7326 100.592 78.7715 100.472 78.7932 100.351C78.826 100.196 78.8414 100.03 78.8454 99.8696C78.8494 99.7092 78.8304 99.5491 78.7999 99.3891C78.7754 99.252 78.7394 99.115 78.6861 98.9782C78.674 98.921 78.6448 98.8756 78.6098 98.8301C78.5805 98.7847 78.5398 98.745 78.4878 98.7227C78.4358 98.6946 78.3839 98.678 78.3263 98.6729C78.2687 98.6621 78.2112 98.6627 78.1539 98.6806C78.0508 98.716 77.948 98.7801 77.8974 98.878L77.8525 98.9816C77.8303 99.0563 77.8312 99.1364 77.855 99.2106L77.8609 99.222Z" fill="#36221D"/>
<path d="M41.4124 97.3435C41.3219 97.4819 41.2373 97.6317 41.17 97.787C41.0915 97.9653 41.0188 98.1494 40.9691 98.3389C40.9194 98.5283 40.8928 98.7176 40.8719 98.9125C40.8564 99.073 40.8524 99.2276 40.8656 99.3878C40.8795 99.6052 40.9164 99.8224 40.9704 100.028C41.0003 100.131 41.0761 100.227 41.1687 100.283C41.2208 100.311 41.2727 100.328 41.3302 100.333C41.3878 100.344 41.4453 100.343 41.5026 100.325C41.6057 100.29 41.7085 100.226 41.7592 100.128C41.8098 100.03 41.8315 99.9096 41.8015 99.7955C41.7716 99.687 41.7474 99.5785 41.7347 99.4698L41.7532 99.5841C41.716 99.3383 41.7132 99.0865 41.745 98.8399L41.729 98.9546C41.7607 98.6966 41.8268 98.4382 41.9277 98.1966L41.8828 98.3002C41.9613 98.1161 42.0514 97.9433 42.1588 97.7761C42.187 97.7243 42.2036 97.6726 42.2088 97.6153C42.2196 97.5579 42.219 97.5006 42.2011 97.4436C42.189 97.3865 42.1597 97.341 42.1248 97.2956C42.0955 97.2501 42.0548 97.2104 42.0028 97.1881C41.9045 97.1377 41.7835 97.1104 41.6689 97.146L41.5659 97.1929C41.5031 97.2337 41.452 97.2858 41.4124 97.3492L41.4124 97.3435Z" fill="#36221D"/>
<path d="M43.1118 97.4443C43.0113 97.7145 42.9397 97.9959 42.9026 98.2826C42.86 98.5979 42.8405 98.9131 42.867 99.2334C42.8864 99.4278 42.9115 99.6222 42.9539 99.8164C42.966 99.8736 42.9953 99.919 43.0303 99.9645C43.0595 100.01 43.1002 100.05 43.1522 100.072C43.2043 100.1 43.2562 100.117 43.3137 100.122C43.3713 100.132 43.4288 100.132 43.4861 100.114C43.5892 100.079 43.692 100.014 43.7427 99.9166L43.7875 99.813C43.8097 99.7383 43.8088 99.6582 43.785 99.584C43.7669 99.5041 43.7545 99.424 43.7421 99.3383L43.7606 99.4526C43.7108 99.1096 43.707 98.7604 43.7492 98.4164L43.7332 98.5311C43.7702 98.2329 43.8417 97.9402 43.9479 97.6642C43.9645 97.6067 43.9696 97.5494 43.9518 97.4924C43.9511 97.4351 43.9333 97.3838 43.8983 97.3326C43.8689 97.2814 43.834 97.2417 43.7877 97.2136C43.747 97.174 43.695 97.1516 43.6374 97.1408C43.528 97.1191 43.4015 97.1262 43.3045 97.1903L43.219 97.2599C43.1679 97.312 43.1283 97.3754 43.1119 97.45L43.1118 97.4443Z" fill="#36221D"/>
<path d="M65.7222 15.8308C65.7979 16.9693 64.9348 17.9522 63.7916 18.0334C62.6483 18.109 61.6615 17.2495 61.58 16.1111C61.5042 14.9725 62.3673 13.9897 63.5105 13.9084C64.6538 13.8329 65.6407 14.6923 65.7222 15.8308Z" fill="#1E1F23"/>
<path d="M63.4214 15.7645C63.4487 16.1592 63.1478 16.5003 62.7514 16.5276C62.355 16.5549 62.0125 16.2552 61.9851 15.8604C61.9578 15.4656 62.2588 15.1245 62.6552 15.0973C63.0516 15.07 63.3941 15.3697 63.4214 15.7645Z" fill="white"/>
<path d="M53.936 15.8286C54.0118 16.9671 53.1487 17.95 52.0055 18.0312C50.8622 18.1068 49.8753 17.2473 49.7938 16.1089C49.7181 14.9703 50.5812 13.9875 51.7244 13.9062C52.8677 13.8307 53.8545 14.6901 53.936 15.8286Z" fill="#1E1F23"/>
<path d="M51.6353 15.7623C51.6626 16.157 51.3616 16.4981 50.9652 16.5254C50.5688 16.5527 50.2263 16.253 50.199 15.8582C50.1717 15.4634 50.4726 15.1223 50.869 15.0951C51.2654 15.0678 51.6079 15.3675 51.6353 15.7623Z" fill="white"/>
<path d="M52.3306 28.8375C53.4845 30.2505 55.4714 30.5608 57.1907 30.582C58.91 30.6031 60.764 30.3308 62.3595 29.5518C63.2345 29.1299 64.0328 28.5257 64.657 27.7745C64.8045 27.5954 64.8247 27.3375 64.6503 27.1677C64.4934 27.0148 64.1885 26.9953 64.0409 27.1744C63.78 27.4922 63.4899 27.7816 63.1708 28.0371C63.1537 28.0487 63.1366 28.0661 63.1195 28.0777C63.1366 28.0661 63.1708 28.0371 63.1024 28.0893C63.0681 28.1126 63.0339 28.1416 62.9997 28.1649C62.9142 28.2288 62.8228 28.2871 62.7372 28.3453C62.5717 28.4559 62.4003 28.5551 62.2232 28.6544C61.8345 28.8648 61.5714 28.9822 61.159 29.1241C60.7695 29.2601 60.374 29.3732 59.9725 29.4578C59.181 29.6325 58.4114 29.704 57.5491 29.7135C57.1295 29.7181 56.7154 29.7054 56.2953 29.67C56.1974 29.6596 56.1054 29.6549 56.0075 29.6445C55.996 29.6446 55.9097 29.6341 55.9557 29.6394C55.996 29.6446 55.927 29.6397 55.927 29.6397C55.8694 29.6289 55.8118 29.6238 55.7485 29.613C55.5469 29.5809 55.3395 29.5431 55.1377 29.4938C54.6593 29.3788 54.313 29.2623 53.9081 29.0378C53.8098 28.9816 53.7114 28.9254 53.6187 28.8635C53.5782 28.8353 53.5376 28.8071 53.4971 28.7789C53.4391 28.7395 53.5377 28.8128 53.4854 28.7676C53.4623 28.7507 53.4391 28.7337 53.4216 28.7168C53.2418 28.5699 53.0732 28.4 52.9275 28.2183C52.7817 28.0367 52.4659 28.0745 52.3181 28.225C52.1419 28.4045 52.1791 28.6503 52.3248 28.8319L52.3306 28.8375Z" fill="#5A261A"/>
</g>
<defs>
<clipPath id="clip0_1029_1232">
<rect width="67.999" height="100.123" fill="white" transform="translate(27.835 2.87219) rotate(-0.629606)"/>
</clipPath>
</defs>
</svg>
