<svg width="116" height="100" viewBox="0 0 116 100" fill="none" xmlns="http://www.w3.org/2000/svg">
<g clip-path="url(#clip0_815_1634)">
<circle cx="58" cy="50" r="50" fill="#C4ECFE"/>
</g>
<g clip-path="url(#clip1_815_1634)">
<path d="M68.9261 36.8583L67.9131 41.0009L70.7795 41.6138L71.7926 37.4711L68.9261 36.8583Z" fill="#BC0A1B"/>
<path d="M46.7512 36.8691L43.8848 37.482L44.8978 41.6247L47.7642 41.0118L46.7512 36.8691Z" fill="#BC0A1B"/>
<path d="M41.7939 48.1194C41.7939 48.1194 36.9658 45.2398 31.2577 45.8308L29.0952 47.1083L28.8789 48.8875C28.8789 48.8875 30.3055 52.2843 35.9282 53.9836C41.5508 55.6828 41.7939 48.1194 41.7939 48.1194Z" fill="#BC0A1B"/>
<path d="M31.2577 45.8308C31.2577 45.8308 30.3491 41.7708 26.371 40.719C22.3929 39.6672 22.6947 42.2552 22.6947 42.2552C22.6947 42.2552 23.387 48.3216 28.8789 48.8875C34.3708 49.4534 31.2577 45.8308 31.2577 45.8308Z" fill="#BC0A1B"/>
<path d="M74.207 48.1194C74.207 48.1194 79.0351 45.2398 84.7432 45.8308L86.9057 47.1083L87.122 48.8875C87.122 48.8875 85.6954 52.2843 80.0727 53.9836C74.4501 55.6828 74.207 48.1194 74.207 48.1194Z" fill="#BC0A1B"/>
<path d="M84.7431 45.8308C84.7431 45.8308 85.6517 41.7708 89.6298 40.719C93.6079 39.6672 93.3062 42.2552 93.3062 42.2552C93.3062 42.2552 92.6138 48.3216 87.1219 48.8875C81.63 49.4534 84.7431 45.8308 84.7431 45.8308Z" fill="#BC0A1B"/>
<path d="M97.6012 69.4552C97.0095 69.4552 96.478 69.068 96.3506 68.5053C95.3901 64.2353 92.2535 61.5626 87.0315 60.5625C82.9612 59.7835 79.1625 60.3431 79.124 60.3478C78.4249 60.4528 77.7694 60.0092 77.6571 59.3587C77.5448 58.7066 78.0176 58.0921 78.7149 57.9871C78.8893 57.9604 83.0199 57.3538 87.5445 58.2191C93.769 59.4104 97.68 62.7979 98.8552 68.0115C99.001 68.6573 98.5585 69.2922 97.8661 69.4286C97.7773 69.4458 97.6884 69.4536 97.6012 69.4536L97.6012 69.4552Z" fill="#BC0A1B"/>
<path d="M92.8893 74.1077C92.2975 74.1077 91.7661 73.7205 91.6387 73.1578C90.6815 68.905 87.5668 66.237 82.3817 65.2275C78.3097 64.4344 74.4489 64.9955 74.4104 65.0018C73.713 65.1053 73.0575 64.6617 72.9452 64.0111C72.8329 63.359 73.3056 62.7461 74.003 62.6411C74.1774 62.6144 78.308 62.0078 82.8326 62.8731C89.0571 64.0644 92.9681 67.4519 94.1433 72.6655C94.2891 73.3114 93.8465 73.9462 93.1542 74.0826C93.0653 74.0998 92.9765 74.1077 92.8893 74.1077Z" fill="#BC0A1B"/>
<path d="M88.5153 79C87.9235 79 87.3921 78.6128 87.2647 78.0501C86.3075 73.7973 83.1927 71.1293 78.0076 70.1198C73.9357 69.3267 70.0749 69.8879 70.0364 69.8941C69.339 69.9991 68.6835 69.5555 68.5712 68.9034C68.4589 68.2513 68.9316 67.6384 69.629 67.5334C69.8033 67.5068 73.934 66.9001 78.4586 67.7654C84.683 68.9567 88.5941 72.3442 89.7692 77.5578C89.9151 78.2037 89.4725 78.8385 88.7802 78.9749C88.6913 78.9922 88.6025 79 88.5153 79Z" fill="#BC0A1B"/>
<path d="M18.6581 69.4552C18.571 69.4552 18.4821 69.4474 18.3933 69.4286C17.7026 69.2922 17.26 68.6573 17.4042 68.0115C18.5777 62.7963 22.4887 59.4104 28.7148 58.2191C33.2394 57.3538 37.3701 57.9604 37.5444 57.9871C38.2418 58.0921 38.7162 58.7066 38.6022 59.3587C38.4899 60.0108 37.8328 60.4528 37.1354 60.3493C37.0834 60.3415 33.2277 59.785 29.1641 60.5751C23.979 61.5846 20.8643 64.2525 19.907 68.5053C19.7796 69.068 19.2482 69.4552 18.6565 69.4552L18.6581 69.4552Z" fill="#BC0A1B"/>
<path d="M23.37 74.1077C23.2829 74.1077 23.194 74.0998 23.1052 74.081C22.4145 73.9447 21.9719 73.3098 22.1161 72.664C23.2896 67.4488 27.2006 64.0629 33.4268 62.8715C37.9513 62.0047 42.082 62.6129 42.2563 62.6395C42.9537 62.7445 43.4281 63.359 43.3141 64.0111C43.2018 64.6632 42.5447 65.1053 41.8473 65.0018C41.7937 64.994 37.9413 64.4359 33.876 65.2275C28.6909 66.237 25.5762 68.905 24.619 73.1577C24.4916 73.7221 23.9601 74.1077 23.3684 74.1077L23.37 74.1077Z" fill="#BC0A1B"/>
<path d="M27.7441 79C27.6569 79 27.568 78.9921 27.4792 78.9733C26.7885 78.837 26.346 78.2021 26.4901 77.5563C27.6636 72.3411 31.5746 68.9552 37.8008 67.7638C42.3254 66.897 46.456 67.5052 46.6304 67.5318C47.3277 67.6369 47.8022 68.2513 47.6882 68.9034C47.5758 69.5555 46.9204 69.9976 46.2213 69.8941C46.1559 69.8847 42.3086 69.3298 38.25 70.1198C33.065 71.1293 29.9502 73.7973 28.993 78.0501C28.8656 78.6144 28.3342 79 27.7424 79L27.7441 79Z" fill="#BC0A1B"/>
<path d="M85.5067 60.8008C85.5067 76.4073 30.7539 76.4073 30.7539 60.8008C30.7539 48.1021 43.01 37.8081 58.1295 37.8081C73.2489 37.8081 85.505 48.1021 85.505 60.8008L85.5067 60.8008Z" fill="#E86666"/>
<path d="M85.5067 60.7992C85.5067 75.636 36.0212 76.3681 31.1445 62.9938C43.4627 71.9445 82.1808 69.8565 82.1808 56.7315C82.1808 52.7875 80.9956 49.074 78.9101 45.8307C83.0223 49.8531 85.5067 55.084 85.5067 60.7992Z" fill="#C94444"/>
<path d="M116 29.1239C116 38.5997 108.109 46.2822 98.3695 46.2822C88.6296 46.2822 80.7422 38.5997 80.7422 29.1239C80.7422 19.6481 88.0446 12.5549 97.2664 12C97.2849 12.2304 97.2664 12.464 97.1977 12.6944C96.8322 13.9296 95.3369 14.0989 95.2531 15.121C95.1508 16.3249 97.1642 16.8124 97.0703 17.9739C96.9714 19.1637 94.7937 19.264 94.5389 20.5823C94.2774 21.932 96.4148 22.6327 96.2254 24.0999C96.0443 25.5044 93.984 25.6596 93.8885 26.9528C93.8047 28.1206 95.3755 29.6302 97.1977 29.6803C98.3896 29.7164 99.833 29.1725 100.247 28.1661C100.767 26.9058 99.2815 25.8884 99.8581 24.8899C100.447 23.8663 102.324 24.3773 102.778 23.4321C103.256 22.4273 101.397 21.3002 101.87 20.2186C102.279 19.2781 103.912 19.5948 104.592 18.579C105.244 17.6071 103.526 16.3531 104.14 15.4251C104.44 14.9705 104.879 15.1445 105.306 14.6977C105.627 14.3623 105.694 13.9391 105.655 13.4939C111.759 16.1932 116 22.1765 116 29.1254L116 29.1239Z" fill="#E86666"/>
<path d="M116 29.1239C116 38.5997 108.109 46.2822 98.369 46.2822C89.2192 46.2822 81.6989 39.4963 80.8271 30.8137C83.8799 35.9145 89.5612 39.3443 96.0656 39.3443C105.804 39.3443 113.696 31.6617 113.696 22.1859C113.696 21.6138 113.668 21.0494 113.612 20.4914C115.13 23.0277 116 25.9778 116 29.1239Z" fill="#C94444"/>
<path d="M3.53681e-08 29.1239C5.49396e-08 38.5997 7.8908 46.2822 17.6307 46.2822C27.3705 46.2822 35.258 38.5997 35.258 29.1239C35.258 19.6481 27.9556 12.5549 18.7337 12C18.7153 12.2304 18.7337 12.464 18.8025 12.6944C19.1679 13.9296 20.6633 14.0989 20.7471 15.121C20.8494 16.3249 18.836 16.8124 18.9299 17.9739C19.0288 19.1637 21.2064 19.264 21.4612 20.5823C21.7228 21.932 19.5854 22.6327 19.7748 24.0999C19.9558 25.5044 22.0161 25.6596 22.1117 26.9528C22.1955 28.1206 20.6247 29.6302 18.8025 29.6803C17.6106 29.7164 16.1672 29.1725 15.7531 28.1661C15.2334 26.9058 16.7187 25.8884 16.142 24.8899C15.5536 23.8663 13.6761 24.3773 13.2217 23.4321C12.744 22.4273 14.6031 21.3002 14.1304 20.2186C13.7213 19.2781 12.0885 19.5948 11.4079 18.579C10.7558 17.6071 12.4741 16.3531 11.8605 15.4251C11.5604 14.9705 11.1212 15.1445 10.6937 14.6977C10.3735 14.3623 10.3065 13.9391 10.345 13.4939C4.24296 16.1916 2.10188e-08 22.1765 3.53681e-08 29.1239Z" fill="#E86666"/>
<path d="M1.78297e-08 29.1239C3.74013e-08 38.5997 7.8908 46.2822 17.6307 46.2822C26.7805 46.2822 34.3008 39.4963 35.1725 30.8137C32.1198 35.9145 26.4385 39.3443 19.934 39.3443C10.1959 39.3443 2.30337 31.6617 2.30337 22.1859C2.30337 21.6138 2.33187 21.0494 2.38719 20.4914C0.87005 23.0277 1.13318e-08 25.9778 1.78297e-08 29.1239Z" fill="#C94444"/>
<path d="M76.4268 32.6587C76.4268 32.8515 76.4168 33.049 76.3933 33.2418C76.2558 34.6604 75.597 35.9756 74.5074 36.9992C73.2685 38.1576 71.6239 38.7956 69.8755 38.8003L69.8654 38.8003C67.7632 38.8003 65.8907 37.8676 64.687 36.4255C63.941 35.5304 63.4549 34.4316 63.3358 33.2418L63.3358 33.2371C63.3157 33.0537 63.3057 32.8609 63.3057 32.6728C63.3057 31.0331 63.9829 29.4938 65.2218 28.3323C66.4606 27.1738 68.1052 26.5358 69.8587 26.5311C71.3574 26.5311 72.7371 27.0045 73.8435 27.7946C75.4109 28.9154 76.4218 30.6789 76.4268 32.6587Z" fill="#BC0A1B"/>
<path d="M76.4268 31.7448C76.4268 31.9376 76.4168 32.1351 76.3933 32.3279C76.2558 33.7465 75.597 35.0617 74.5074 36.0853C73.2685 37.2437 71.6239 37.8817 69.8755 37.8864L69.8654 37.8864C67.7632 37.8864 65.8907 36.9537 64.687 35.5116C63.941 34.6165 63.4549 33.5177 63.3358 32.3279L63.3358 32.3232C63.3157 32.1398 63.3057 31.947 63.3057 31.7589C63.3057 30.1193 63.9829 28.5799 65.2218 27.4184C66.4606 26.26 68.1052 25.622 69.8587 25.6173C71.3574 25.6173 72.7371 26.0907 73.8435 26.8807C75.4109 28.0015 76.4218 29.765 76.4268 31.7448Z" fill="#E86666"/>
<path d="M74.8905 34.3317C76.408 31.742 75.3931 28.4923 72.6235 27.0733C69.854 25.6543 66.3786 26.6033 64.861 29.193C63.3435 31.7828 64.3585 35.0325 67.128 36.4515C69.8976 37.8705 73.373 36.9215 74.8905 34.3317Z" fill="#FCF3D9"/>
<path d="M69.8791 34.9583C71.7734 34.9583 73.309 33.5224 73.309 31.7511C73.309 29.9798 71.7734 28.5439 69.8791 28.5439C67.9848 28.5439 66.4492 29.9798 66.4492 31.7511C66.4492 33.5224 67.9848 34.9583 69.8791 34.9583Z" fill="black"/>
<path d="M72.0903 30.0424C72.0903 30.6789 71.5404 31.1946 70.8598 31.1962C70.1792 31.1962 69.6277 30.682 69.626 30.0456C69.626 29.4092 70.1758 28.8934 70.8565 28.8919C71.5371 28.8903 72.0886 29.406 72.0903 30.0424Z" fill="#FAFAFA"/>
<path d="M74.1119 25.7787C73.9694 25.7787 73.8269 25.7348 73.7096 25.6423C72.635 24.8084 71.2704 24.3491 69.8639 24.3491C68.4574 24.3491 67.0962 24.8084 66.0216 25.6423C65.7534 25.8508 65.3544 25.8163 65.1331 25.5655C64.9102 25.3147 64.947 24.9432 65.2153 24.7347C66.5162 23.7252 68.1657 23.1688 69.8639 23.1688C71.5621 23.1688 73.215 23.7252 74.5159 24.7347C74.7841 24.9432 74.821 25.3147 74.5981 25.5655C74.474 25.7066 74.293 25.7787 74.1119 25.7787Z" fill="#BC0A1B"/>
<path d="M39.2529 32.6587C39.2529 32.8515 39.263 33.049 39.2865 33.2418C39.4239 34.6604 40.0827 35.9756 41.1724 36.9992C42.4113 38.1576 44.0558 38.7956 45.8043 38.8003L45.8144 38.8003C47.9166 38.8003 49.7891 37.8676 50.9927 36.4255C51.7387 35.5304 52.2249 34.4316 52.3439 33.2418L52.3439 33.2371C52.364 33.0537 52.3741 32.8609 52.3741 32.6728C52.3741 31.0331 51.6968 29.4938 50.458 28.3323C49.2191 27.1738 47.5746 26.5358 45.8211 26.5311C44.3224 26.5311 42.9427 27.0045 41.8363 27.7946C40.2688 28.9154 39.2563 30.6789 39.2529 32.6587Z" fill="#BC0A1B"/>
<path d="M39.2529 31.7448C39.2529 31.9376 39.263 32.1351 39.2865 32.3279C39.4239 33.7465 40.0827 35.0617 41.1724 36.0853C42.4113 37.2437 44.0558 37.8817 45.8043 37.8864L45.8144 37.8864C47.9166 37.8864 49.7891 36.9537 50.9927 35.5116C51.7387 34.6165 52.2249 33.5177 52.3439 32.3279L52.3439 32.3232C52.364 32.1398 52.3741 31.947 52.3741 31.7589C52.3741 30.1193 51.6968 28.5799 50.458 27.4184C49.2191 26.26 47.5746 25.622 45.8211 25.6173C44.3224 25.6173 42.9427 26.0907 41.8363 26.8807C40.2688 28.0015 39.2563 29.765 39.2529 31.7448Z" fill="#E86666"/>
<path d="M49.8547 35.5337C52.0878 33.4456 52.0878 30.0601 49.8547 27.972C47.6216 25.8839 44.0011 25.884 41.768 27.972C39.5349 30.0601 39.5349 33.4456 41.768 35.5337C44.0011 37.6218 47.6216 37.6218 49.8547 35.5337Z" fill="#FCF3D9"/>
<path d="M45.8108 34.9598C47.7051 34.9598 49.2407 33.5239 49.2407 31.7526C49.2407 29.9814 47.7051 28.5454 45.8108 28.5454C43.9165 28.5454 42.3809 29.9814 42.3809 31.7526C42.3809 33.5239 43.9165 34.9598 45.8108 34.9598Z" fill="black"/>
<path d="M43.5898 30.0424C43.5898 30.6789 44.1397 31.1946 44.8203 31.1962C45.5009 31.1962 46.0525 30.682 46.0542 30.0456C46.0542 29.4092 45.5043 28.8934 44.8237 28.8919C44.1431 28.8903 43.5915 29.406 43.5898 30.0424Z" fill="#FAFAFA"/>
<path d="M41.5665 25.7787C41.709 25.7787 41.8515 25.7348 41.9689 25.6423C43.0435 24.8084 44.408 24.3491 45.8145 24.3491C47.221 24.3491 48.5823 24.8084 49.6568 25.6423C49.9251 25.8508 50.324 25.8163 50.5453 25.5655C50.7683 25.3147 50.7314 24.9432 50.4632 24.7347C49.1623 23.7252 47.5127 23.1688 45.8145 23.1688C44.1163 23.1688 42.4634 23.7252 41.1625 24.7347C40.8943 24.9432 40.8574 25.3147 41.0804 25.5655C41.2044 25.7066 41.3855 25.7787 41.5665 25.7787Z" fill="#BC0A1B"/>
<path d="M63.6589 43.1468C63.6561 42.5591 62.4892 42.2941 61.9125 42.7469C60.8986 43.549 59.5185 44.0403 58.0017 44.0403C56.4849 44.0403 55.1021 43.5466 54.0854 42.7445C53.5088 42.2893 52.3445 42.5567 52.3418 43.1443L52.3418 43.166C52.3418 45.736 54.878 47.8218 58.0017 47.8218C61.1254 47.8218 63.6589 45.736 63.6589 43.166L63.6589 43.1468Z" fill="#F90101"/>
</g>
<defs>
<clipPath id="clip0_815_1634">
<rect width="100" height="100" fill="white" transform="translate(8)"/>
</clipPath>
<clipPath id="clip1_815_1634">
<rect width="116" height="67" fill="white" transform="translate(0 12)"/>
</clipPath>
</defs>
</svg>
