<svg width="120" height="80" viewBox="0 0 120 80" fill="none" xmlns="http://www.w3.org/2000/svg">
<g clip-path="url(#clip0_419_791)">
<path d="M110.3 54.13C110.153 53.9428 110.005 53.7459 109.847 53.5587C107.257 50.3773 105.06 48.3089 104.243 47.5702C102.578 46.0731 100.293 44.1525 98.55 42.7538C97.5355 41.9363 96.1073 40.9415 95.0436 40.1831C93.2608 38.9027 89.3407 36.4206 87.9913 35.6425C86.8783 35.0023 85.4009 34.1159 84.2584 33.515C81.9832 32.3134 78.92 30.7473 76.5955 29.6442C75.581 29.1616 66.421 24.8672 55.9609 21.9025C54.6312 21.5282 52.8681 21.0161 51.5188 20.7009C48.9776 20.1001 45.5795 19.3614 43.0187 18.859C40.3396 18.3272 36.7544 17.9036 34.2231 17.6278C29.8598 17.1649 25.1222 17.1945 25.0828 17.1945C22.9947 17.2536 20.1974 17.4112 18.1192 17.6081C16.9865 17.7165 15.4992 18.012 14.3764 18.1893C-0.378103 21.1146 -4.60353 30.7276 5.59067 43.3941C19.2617 60.3844 53.6856 76.4292 82.4756 79.2264C110.941 82.004 123.252 70.7953 110.31 54.1201L110.3 54.13Z" fill="url(#paint0_linear_419_791)"/>
<path d="M114.851 45.3541C114.703 45.167 114.556 44.97 114.398 44.7828C111.808 41.6015 109.611 39.5331 108.794 38.7944C107.129 37.2972 104.844 35.3766 103.101 33.978C102.086 33.1605 100.658 32.1657 99.5943 31.4073C97.8116 30.1268 93.8915 27.6448 92.5421 26.8666C91.4291 26.2264 89.9517 25.34 88.8092 24.7392C86.5339 23.5375 83.4708 21.9715 81.1463 20.8683C80.1318 20.3857 70.9718 16.0913 60.5116 13.1266C59.182 12.7524 57.4189 12.2402 56.0695 11.925C53.5284 11.3242 50.1303 10.5855 47.5694 10.0832C44.8904 9.55128 41.3052 9.12775 38.7739 8.85197C34.4106 8.38904 29.673 8.41859 29.6336 8.41859C27.5455 8.47769 24.7482 8.63528 22.67 8.83227C21.5373 8.94061 20.05 9.2361 18.9272 9.41339C4.17268 12.3387 -0.0527458 21.9518 10.1415 34.6182C23.8125 51.6085 58.2364 67.6533 87.0264 70.4506C115.491 73.2281 127.803 62.0194 114.861 45.3443L114.851 45.3541Z" fill="url(#paint1_linear_419_791)"/>
<path style="mix-blend-mode:overlay" opacity="0.4" d="M87.5579 70.1649C58.7679 67.3578 24.344 51.313 10.673 34.3325C2.72445 24.4535 3.54196 16.436 11.2738 12.0038C3.05933 16.3671 2.01529 24.5225 10.1411 34.6182C23.8122 51.6085 58.2361 67.6533 87.0261 70.4505C98.8553 71.6029 107.877 70.3323 113.482 67.2692C107.858 70.1255 99.0227 71.2779 87.5678 70.1649H87.5579Z" fill="url(#paint2_linear_419_791)"/>
<path style="mix-blend-mode:multiply" opacity="0.6" d="M84.9579 38.0064C84.761 37.3859 84.5147 36.6177 83.8843 35.5539C83.2638 34.5 82.8502 33.9879 82.0228 32.9832C81.0182 31.8801 78.3686 28.9351 72.7643 26.3053C69.1495 24.6112 65.2295 23.5474 61.1025 23.1534C60.0683 23.0549 59.0637 23.0352 58.3447 23.0254C57.8128 23.0254 57.0938 23.0549 56.5619 23.0746C55.4489 23.1239 54.3359 23.311 53.4495 23.4686C52.8191 23.577 51.5485 23.9118 50.997 24.1187C49.6476 24.621 49.49 24.7097 48.3278 25.3597C46.0919 26.7583 45.9639 29.1222 48.4854 32.0081C53.0457 37.2283 64.5301 42.1531 74.1235 43.0198C81.8455 43.7093 85.9921 41.5719 84.9678 37.9867L84.9579 38.0064Z" fill="url(#paint3_linear_419_791)"/>
<path d="M84.2192 36.8836C84.0222 36.2139 83.7759 35.3767 83.1456 34.2144C82.5251 33.0719 82.1114 32.5203 81.284 31.427C80.2794 30.2254 77.6299 27.0342 72.0255 24.1778C68.4108 22.336 64.4907 21.1836 60.3638 20.7502C59.3296 20.6419 58.3249 20.6222 57.6059 20.6123C57.074 20.6123 56.355 20.6419 55.8232 20.6714C54.7102 20.7206 53.5972 20.9275 52.7107 21.0949C52.0804 21.2131 50.8098 21.5776 50.2582 21.8041C48.9088 22.3458 48.7512 22.4443 47.589 23.1535C45.3532 24.6703 45.2251 27.241 47.7466 30.3731C52.3069 36.0366 63.7914 41.3848 73.3848 42.3205C81.1067 43.0691 85.2534 40.7446 84.229 36.8639L84.2192 36.8836Z" fill="url(#paint4_linear_419_791)"/>
<path d="M69.3658 27.7335C68.824 22.6511 70.8038 17.2733 72.951 12.7721C74.0738 10.4181 75.5611 8.28076 77.3143 6.36011C79.3728 4.10458 85.1643 0.667118 87.9025 4.01594C93.3 10.6052 83.4604 17.8249 78.7523 20.6418C74.98 22.8974 70.7742 24.69 66.5587 25.9507C65.9874 26.1182 69.2279 29.0139 70.4886 28.6396C80.0426 25.7931 103.809 13.2941 88.5624 2.45972C74.8519 -7.2814 63.8501 14.2889 65.0615 25.6946C65.1896 26.9357 69.4347 28.5116 69.3559 27.7532L69.3658 27.7335Z" fill="#38393B"/>
</g>
<defs>
<linearGradient id="paint0_linear_419_791" x1="10.6238" y1="95.7735" x2="39.9259" y2="66.3433" gradientUnits="userSpaceOnUse">
<stop stop-color="#FFAD47"/>
<stop offset="1" stop-color="#E3820A"/>
</linearGradient>
<linearGradient id="paint1_linear_419_791" x1="6.13272" y1="16.4755" x2="113.167" y2="60.3056" gradientUnits="userSpaceOnUse">
<stop stop-color="#FFAD47"/>
<stop offset="1" stop-color="#E3820A"/>
</linearGradient>
<linearGradient id="paint2_linear_419_791" x1="2.63581" y1="25.0051" x2="106.952" y2="67.7222" gradientUnits="userSpaceOnUse">
<stop stop-color="white" stop-opacity="0"/>
<stop offset="0.49" stop-color="white"/>
<stop offset="1" stop-color="white" stop-opacity="0"/>
</linearGradient>
<linearGradient id="paint3_linear_419_791" x1="52.0509" y1="27.891" x2="84.761" y2="39.1194" gradientUnits="userSpaceOnUse">
<stop stop-color="#FFAD47"/>
<stop offset="1" stop-color="#E3820A"/>
</linearGradient>
<linearGradient id="paint4_linear_419_791" x1="51.2136" y1="26.2954" x2="84.2093" y2="37.6223" gradientUnits="userSpaceOnUse">
<stop stop-color="#FFAD47"/>
<stop offset="1" stop-color="#E3820A"/>
</linearGradient>
<clipPath id="clip0_419_791">
<rect width="120" height="79.6489" fill="white"/>
</clipPath>
</defs>
</svg>
