<svg width="120" height="113" viewBox="0 0 120 113" fill="none" xmlns="http://www.w3.org/2000/svg">
<g clip-path="url(#clip0_93_43)">
<path d="M106.305 89.5633V57.4762C107.308 56.618 107.844 55.7169 107.844 54.7815V47.9204H107.827C107.835 47.8303 107.844 47.7402 107.844 47.6501C107.844 43.5823 97.664 40.0724 82.9662 38.4505C82.8761 37.5708 82.6318 36.7641 82.1989 36.1162L120 1.70777L118.847 0.39476L118.063 0L81.1016 33.6447L79.9829 34.6659C79.9014 34.6488 79.82 34.6316 79.7343 34.6187C77.0896 33.6147 72.9276 35.4426 70.8873 37.6009C68.8427 37.5322 66.7553 37.4936 64.6293 37.4936C62.6147 37.4936 60.6301 37.5279 58.6884 37.588C58.3584 37.2061 57.9855 36.8543 57.5525 36.5539C55.1008 34.8547 50.1972 34.0781 47.8054 35.8716C47.7283 35.906 47.6554 35.9446 47.5782 35.9832L46.2195 35.3138L1.40593 13.2159L0.758699 13.8123L0.0128784 15.3956L45.8466 37.9956C45.7908 38.163 45.7523 38.3346 45.718 38.5148C31.3245 40.1625 21.4059 43.6338 21.4059 47.6544C21.4059 47.7445 21.4102 47.8346 21.4231 47.9247H21.4059V54.7858C21.4059 55.7169 21.9417 56.6223 22.9447 57.4805V89.2329C21.2473 89.7049 20.12 91.3697 20.3644 93.1633C20.4844 94.0386 20.913 94.7981 21.526 95.3431C21.4617 95.549 21.4231 95.7636 21.4145 95.9738H21.4059V102.835C21.4059 108.447 40.7587 112.996 64.6293 112.996C88.4998 112.996 107.853 108.447 107.853 102.835V96.2785C109.117 95.5877 109.893 94.1674 109.683 92.6527C109.447 90.9149 108.003 89.6448 106.314 89.5633H106.305Z" fill="#F59E5D"/>
<path d="M64.6164 106.263C60.2743 106.263 56.0823 106.113 52.126 105.83C51.9289 105.83 51.736 105.817 51.5431 105.787C34.0592 104.487 21.3888 100.642 21.3888 96.1026V102.839C21.3888 108.452 40.7416 113 64.6121 113C88.4827 113 107.835 108.452 107.835 102.839V96.2828H107.827C107.411 101.814 88.2255 106.263 64.6121 106.263H64.6164Z" fill="#4A1B11"/>
<path d="M21.3931 95.9738V96.0984C21.3931 96.0555 21.3974 96.0125 21.4016 95.9738H21.3931Z" fill="#DC2C2F"/>
<path d="M107.831 96.2828C107.462 96.4844 107.055 96.626 106.614 96.6861C105.997 96.7719 105.396 96.6947 104.852 96.4844L104.826 96.5059C104.745 96.5788 104.659 96.6475 104.569 96.7162L104.483 96.7848C104.243 96.9693 103.982 97.1538 103.695 97.334C103.661 97.3555 103.626 97.3727 103.596 97.3941C103.48 97.4671 103.36 97.5357 103.24 97.6087C103.206 97.6301 103.168 97.6516 103.133 97.673C102.983 97.7588 102.825 97.8447 102.662 97.9305H102.653C102.482 98.0249 102.302 98.115 102.117 98.2051L102.04 98.2394C101.886 98.3124 101.723 98.3896 101.56 98.4625C101.522 98.4797 101.483 98.4969 101.444 98.514C101.269 98.5913 101.089 98.6685 100.904 98.7457L100.862 98.7629C100.446 98.9345 100.009 99.1019 99.5499 99.2649C99.5156 99.2778 99.4813 99.2864 99.4513 99.2993C99.2456 99.3722 99.0313 99.4451 98.817 99.5181L98.7527 99.5395C98.264 99.7026 97.7582 99.8614 97.231 100.016L97.171 100.033C96.9224 100.106 96.6738 100.179 96.4166 100.248L96.3523 100.265C95.5251 100.492 94.6549 100.711 93.7419 100.921L93.6905 100.934C92.7689 101.144 91.8088 101.346 90.8101 101.535H90.7972C90.36 102.753 89.2842 103.689 87.9168 103.878C86.6009 104.058 85.3536 103.496 84.5992 102.513C84.4363 102.535 84.2734 102.552 84.1149 102.573H84.0848C82.859 102.728 81.5988 102.869 80.3086 102.989L80.2229 102.998C79.3785 103.08 78.5212 103.152 77.6554 103.221L77.4882 103.234C77.081 103.264 76.6738 103.294 76.2623 103.324H76.1894C75.7522 103.358 75.3107 103.388 74.865 103.414C74.8135 103.414 74.7621 103.418 74.7107 103.423C74.3292 103.444 73.9477 103.466 73.5619 103.487C73.4762 103.491 73.3862 103.496 73.3004 103.5C72.4346 103.543 71.5645 103.582 70.6815 103.612C70.5743 103.612 70.4672 103.62 70.3643 103.62C70.0043 103.633 69.6399 103.642 69.2756 103.65C69.1899 103.65 69.0998 103.654 69.0141 103.659C68.5769 103.672 68.1397 103.68 67.6982 103.685C67.6039 103.685 67.5096 103.685 67.4153 103.689C67.0596 103.693 66.6995 103.697 66.3395 103.702H65.9708C65.5251 103.702 65.075 103.706 64.6249 103.706C61.483 103.706 58.4226 103.624 55.4822 103.47C55.0407 104.676 53.9691 105.603 52.6104 105.791C52.4518 105.813 52.2932 105.821 52.1389 105.821C56.0951 106.1 60.2872 106.255 64.6292 106.255C88.2383 106.255 107.428 101.805 107.844 96.2785H107.831V96.2828Z" fill="#9B371D"/>
<path d="M51.5474 105.787C50.1072 105.555 48.9156 104.453 48.6155 102.968C36.5067 101.784 27.2868 99.295 24.1235 96.2484C23.1376 96.3128 22.2075 95.9653 21.5131 95.3474C21.4488 95.5533 21.4102 95.7679 21.4016 95.9781C21.4016 96.021 21.3931 96.0639 21.3931 96.1026C21.3931 100.642 34.0635 104.487 51.5474 105.791V105.787Z" fill="#9B371D"/>
<path d="M98.1311 63.4448C97.964 64.6548 97.2139 65.6374 96.198 66.1523C98.2554 71.5459 102.049 81.3377 105.281 89.6577C105.396 89.6276 105.516 89.6062 105.641 89.589C105.864 89.559 106.087 89.5504 106.301 89.5633V57.4762C104.638 58.9007 101.685 60.2009 97.7582 61.3036C98.0883 61.9387 98.234 62.6767 98.1311 63.4405V63.4448Z" fill="#993463"/>
<path d="M71.2216 66.5814L85.1136 97.6129C85.6151 97.1839 86.2409 96.8835 86.9439 96.7891H86.9867C88.6413 88.173 91.5131 73.155 92.829 66.0751C91.6888 65.4314 90.9644 64.1914 91.0116 62.8355C85.8294 63.7752 79.7128 64.4445 73.0476 64.7578C72.6833 65.5816 72.0274 66.2295 71.2216 66.59V66.5814Z" fill="#993463"/>
<path d="M24.8735 89.2329L37.8397 66.0794C36.7895 65.3327 36.1766 64.0412 36.3652 62.6724C36.3737 62.608 36.3909 62.5437 36.4037 62.4793C30 61.1792 25.2336 59.45 22.9318 57.4762V89.2286C23.0861 89.1857 23.2447 89.1471 23.4076 89.1256C23.9134 89.057 24.4106 89.0999 24.8735 89.2286V89.2329Z" fill="#993463"/>
<path d="M43.4548 63.6464C43.2962 64.7921 42.619 65.7318 41.6931 66.2639L51.2645 98.7758C51.3845 98.7457 51.5045 98.7243 51.6288 98.7071C52.2289 98.6256 52.8161 98.6985 53.3476 98.8916L68.4055 66.6157C67.6082 66.2853 66.9696 65.6846 66.5881 64.9337C65.9323 64.9423 65.2765 64.9466 64.6164 64.9466C56.9267 64.9466 49.7085 64.4746 43.4505 63.6464H43.4548Z" fill="#993463"/>
<path d="M84.0806 102.586C82.8547 102.736 81.5945 102.878 80.3043 103.002C81.5988 102.878 82.859 102.741 84.0806 102.586Z" fill="#DFAE3C"/>
<path d="M84.5991 102.517C84.4363 102.535 84.2777 102.556 84.1149 102.578C84.2777 102.556 84.4406 102.539 84.5991 102.517Z" fill="#DFAE3C"/>
<path d="M40.3943 59.6173C42.3489 59.8876 43.7205 61.6898 43.4505 63.6464C49.7042 64.4746 56.9267 64.9466 64.6164 64.9466C65.2764 64.9466 65.9323 64.9423 66.5881 64.9337C66.2666 64.3029 66.1251 63.5778 66.2323 62.8226C66.5023 60.8617 68.3069 59.4929 70.2614 59.7632C72.2203 60.0335 73.5876 61.84 73.3176 63.7966C73.2704 64.1356 73.1761 64.4531 73.0476 64.7492C79.7128 64.4402 85.8294 63.7709 91.0116 62.8269C91.0158 62.7067 91.0244 62.5866 91.0416 62.4664C91.3116 60.5055 93.1161 59.1367 95.0707 59.4071C96.2666 59.5701 97.2396 60.3081 97.7582 61.3079C101.689 60.2052 104.638 58.905 106.301 57.4805C107.304 56.6223 107.84 55.7212 107.84 54.7858V47.9247H107.823C107.214 53.4084 88.1011 57.8151 64.6121 57.8151C41.123 57.8151 22.0146 53.4127 21.4016 47.9247H21.3845V54.7858C21.3845 55.7169 21.9203 56.6223 22.9233 57.4805C25.225 59.4543 29.9871 61.1835 36.3952 62.4836C36.7509 60.63 38.4955 59.3556 40.39 59.6173H40.3943Z" fill="#4A1B11"/>
<path d="M64.6164 57.8152C88.1055 57.8152 107.214 53.4127 107.827 47.9247C107.835 47.8346 107.844 47.7445 107.844 47.6544C107.844 43.5866 97.664 40.0767 82.9662 38.4548C83.0348 39.107 83.0176 39.7935 82.9319 40.4886C94.5264 41.8102 102.37 44.3461 102.37 47.2596C102.37 47.5257 102.306 47.7874 102.177 48.0448C100.913 50.6237 93.4762 52.8292 82.9405 54.0306C82.8719 54.0392 82.799 54.0478 82.7304 54.0521C82.096 54.125 81.4574 54.1894 80.8016 54.2537L80.7287 54.2623C80.2358 54.3095 79.7386 54.3567 79.2371 54.3996C79.1899 54.4039 79.1428 54.4082 79.0913 54.4125C78.8727 54.4297 78.6584 54.4511 78.4398 54.4683L78.2726 54.4811C78.0583 54.4983 77.8483 54.5155 77.634 54.5326C77.574 54.5369 77.514 54.5412 77.4582 54.5455C77.2439 54.5627 77.0339 54.5755 76.8196 54.5927C76.7724 54.5927 76.7296 54.6013 76.6824 54.6013C76.4552 54.6185 76.2281 54.6313 76.0009 54.6485C75.9409 54.6485 75.8809 54.6571 75.8209 54.6614C75.6023 54.6742 75.3879 54.6871 75.1693 54.7C75.1179 54.7 75.0665 54.7043 75.015 54.7086C74.7879 54.7214 74.5607 54.7343 74.3335 54.7472C74.2564 54.7515 74.1749 54.7558 74.0978 54.7601C73.8963 54.7729 73.6906 54.7815 73.4848 54.7901C73.3991 54.7944 73.3177 54.7987 73.2319 54.803C73.0305 54.8115 72.8333 54.8201 72.6318 54.833C72.5118 54.8373 72.3961 54.8416 72.2761 54.8459C72.1046 54.8545 71.9375 54.8587 71.766 54.8673C71.6503 54.8716 71.5345 54.8759 71.4231 54.8802C71.2474 54.8888 71.0716 54.8931 70.8959 54.8974C70.7459 54.9017 70.5958 54.9059 70.4501 54.9102C70.3087 54.9145 70.1672 54.9188 70.0257 54.9231C69.88 54.9274 69.7343 54.9317 69.5886 54.936C69.4385 54.936 69.2885 54.9446 69.1385 54.9489C69.0142 54.9489 68.8856 54.9531 68.7613 54.9574C68.5898 54.9574 68.4227 54.966 68.2512 54.9703C68.0712 54.9703 67.8869 54.9789 67.7026 54.9789C67.5868 54.9789 67.4711 54.9832 67.3554 54.9832C67.2011 54.9832 67.0425 54.9832 66.8882 54.9875C66.7424 54.9875 66.5967 54.9875 66.451 54.9918H66.1938C65.6751 54.9961 65.1522 55.0003 64.6293 55.0003C64.1063 55.0003 63.5877 55.0003 63.069 54.9918H62.8076C62.6661 54.9918 62.5204 54.9918 62.3789 54.9875C62.2203 54.9875 62.0618 54.9875 61.9032 54.9832C61.7874 54.9832 61.676 54.9832 61.5603 54.9789C61.3759 54.9789 61.1916 54.9746 61.0073 54.9703C60.8359 54.9703 60.6687 54.9617 60.4972 54.9574C60.3729 54.9574 60.2444 54.9531 60.12 54.9489C59.97 54.9489 59.82 54.9403 59.67 54.936C59.5243 54.936 59.3785 54.9274 59.2328 54.9231C59.0913 54.9231 58.9499 54.9145 58.8084 54.9102C58.6584 54.9059 58.5084 54.9017 58.3627 54.8974C58.1869 54.8931 58.0112 54.8845 57.8354 54.8802C57.7197 54.8759 57.604 54.8716 57.4925 54.8673C57.3211 54.8587 57.1496 54.8545 56.9782 54.8459C56.8624 54.8416 56.7424 54.8373 56.6267 54.833C56.4252 54.8244 56.2238 54.8158 56.0223 54.803C55.9409 54.803 55.8552 54.7944 55.7737 54.7901C55.568 54.7815 55.3665 54.7686 55.1608 54.7601C55.0836 54.7601 55.0022 54.7515 54.925 54.7472C54.6978 54.7343 54.4707 54.7214 54.2435 54.7086C54.1921 54.7086 54.1406 54.7043 54.0892 54.7C53.8706 54.6871 53.652 54.6742 53.4377 54.6614C53.3777 54.6614 53.3176 54.6528 53.2576 54.6485C53.0262 54.6356 52.7947 54.6185 52.5675 54.6013C52.5247 54.6013 52.4775 54.597 52.4347 54.5927C52.2204 54.5798 52.006 54.5627 51.7917 54.5455C51.7317 54.5412 51.676 54.5369 51.616 54.5326C51.3974 54.5155 51.1831 54.4983 50.9687 54.4811C50.9173 54.4769 50.8616 54.4726 50.8102 54.4683C50.5915 54.4511 50.3729 54.4339 50.1543 54.4125C50.1072 54.4125 50.06 54.4039 50.0129 54.3996C49.5114 54.3567 49.0099 54.3095 48.5212 54.2623L48.4484 54.2537C47.7926 54.1894 47.1539 54.1207 46.5195 54.0521C46.451 54.0435 46.3781 54.0392 46.3095 54.0306C35.7737 52.8292 28.3412 50.6237 27.0725 48.0448C26.9482 47.7874 26.8796 47.5257 26.8796 47.2596C26.8796 44.3933 34.4792 41.8917 45.7694 40.553C45.6323 39.845 45.6066 39.1542 45.718 38.5191C31.3245 40.1668 21.4059 43.6381 21.4059 47.6587C21.4059 47.7488 21.4102 47.8389 21.4231 47.929C22.0317 53.417 41.1445 57.8194 64.6335 57.8194H64.6164V57.8152Z" fill="#9B371D"/>
<path d="M64.6164 39.5189C66.3052 39.5189 67.9683 39.5403 69.6014 39.5875C69.8243 39.0169 70.1372 38.4762 70.5444 37.9742C70.6472 37.8497 70.7587 37.7253 70.8744 37.6009C68.8298 37.5322 66.7424 37.4936 64.6164 37.4936C62.6018 37.4936 60.6172 37.5279 58.6755 37.588C59.1856 38.1801 59.5714 38.8581 59.8157 39.579C61.3888 39.5403 62.9919 39.5189 64.6164 39.5189Z" fill="#9B371D"/>
<path d="M82.3018 43.1018C81.916 44.1788 81.3931 45.1528 80.8016 45.878C80.6515 46.0625 80.4929 46.2298 80.3258 46.3929C81.0287 46.6846 80.6044 46.9378 79.3571 47.1609C77.814 48.1435 75.9023 48.3709 74.1792 47.7917C74.0549 47.7702 73.9349 47.7402 73.8106 47.7102C60.643 48.5555 33.099 48.6541 33.099 48.6541C33.099 48.6541 39.0056 46.7662 48.3541 45.6119C47.7197 44.8911 47.1368 44.0329 46.6781 43.1318C45.3365 43.2519 44.042 43.3892 42.8076 43.5351C41.8774 43.6467 40.9816 43.7626 40.12 43.887C39.8329 43.9299 39.5457 43.9685 39.2671 44.0114C38.7056 44.0972 38.1612 44.1831 37.634 44.2732C36.841 44.4105 36.0823 44.5521 35.3665 44.698C34.1706 44.9425 33.0819 45.2043 32.1132 45.4789C31.2645 45.7192 30.5101 45.9681 29.8543 46.2255C29.5928 46.3285 29.3442 46.4358 29.117 46.5387C28.8856 46.646 28.6755 46.7533 28.4784 46.8606C28.3798 46.9163 28.2855 46.9678 28.1955 47.0236C27.6597 47.354 27.2782 47.693 27.0682 48.0448C28.3326 50.6237 35.7694 52.8292 46.3052 54.0306C35.8166 52.8334 28.4012 50.6408 27.0896 48.0792C31.9032 51.396 46.8881 53.0222 64.6293 53.0222C82.3704 53.0222 97.3511 51.396 102.169 48.0792C100.857 50.6451 93.4419 52.8334 82.9533 54.0306C93.4891 52.8292 100.922 50.6237 102.19 48.0448C100.9 45.8994 93.1848 44.0715 82.3146 43.1061H82.3018V43.1018Z" fill="#FFE5B3"/>
<path d="M70.0857 44.9983C69.5971 44.2045 69.3013 43.3206 69.2113 42.4109C67.7068 42.3809 66.1723 42.3637 64.6206 42.3637C63.8534 42.3637 63.0904 42.3637 62.336 42.3766C61.5816 42.3852 60.8315 42.3938 60.0857 42.4109C59.97 43.2305 59.6785 44.0372 59.2113 44.7795C62.6275 44.6808 66.2709 44.7323 70.0814 44.9983H70.0857Z" fill="#FFE5B3"/>
<path d="M64.6164 42.368C66.1723 42.368 67.7025 42.3852 69.207 42.4152C69.1127 41.4669 69.2413 40.4972 69.6014 39.5875C67.9683 39.5446 66.3052 39.5189 64.6164 39.5189C62.9275 39.5189 61.3888 39.5403 59.8157 39.5833C60.1243 40.4886 60.2186 41.4584 60.0814 42.4152C60.823 42.4024 61.5731 42.3895 62.3317 42.3809C63.0861 42.3723 63.8491 42.368 64.6164 42.368Z" fill="#571515"/>
<path d="M28.1869 47.0236C28.2769 46.9678 28.3712 46.9121 28.4698 46.8606C28.667 46.7533 28.877 46.646 29.1085 46.5387C29.3356 46.4315 29.5842 46.3285 29.8457 46.2255C30.5015 45.9681 31.2559 45.7149 32.1046 45.4789C33.0733 45.2043 34.162 44.9425 35.3579 44.698C36.078 44.5521 36.8324 44.4105 37.6254 44.2732C38.1526 44.1831 38.7013 44.093 39.2585 44.0114C39.5371 43.9685 39.8243 43.9256 40.1115 43.887C40.9773 43.7626 41.8731 43.6467 42.799 43.5351C44.0377 43.3893 45.3279 43.2519 46.6695 43.1318C46.2409 42.2951 45.9194 41.4155 45.7523 40.5616C34.4621 41.9003 26.8624 44.4019 26.8624 47.2682C26.8624 47.5342 26.9267 47.796 27.0553 48.0534C27.2653 47.7016 27.6468 47.3626 28.1826 47.0322V47.0236H28.1869Z" fill="#571515"/>
<path d="M102.173 48.0405C102.297 47.7831 102.366 47.5214 102.366 47.2553C102.366 44.3418 94.5221 41.8059 82.9276 40.4843C82.8204 41.3682 82.6018 42.2608 82.3018 43.0975C93.1719 44.0629 100.883 45.8908 102.177 48.0405H102.173Z" fill="#571515"/>
<path d="M102.156 48.0749C97.3425 51.3917 82.3575 53.018 64.6164 53.018C46.8753 53.018 31.8946 51.3917 27.0767 48.0749C28.3883 50.6408 35.8037 52.8292 46.2923 54.0263C46.3609 54.0349 46.4338 54.0435 46.5024 54.0478C47.1324 54.1207 47.7754 54.1851 48.4312 54.2494L48.5041 54.258C48.997 54.3052 49.4942 54.3524 49.9957 54.3953C50.0429 54.3996 50.09 54.4039 50.1372 54.4082C50.3558 54.4254 50.5744 54.4468 50.793 54.464C50.8444 54.4683 50.9001 54.4726 50.9516 54.4769C51.1659 54.494 51.3802 54.5112 51.5988 54.5283C51.6588 54.5326 51.7145 54.5369 51.7745 54.5412C51.9889 54.5584 52.2032 54.5713 52.4175 54.5884C52.4604 54.5884 52.5032 54.5927 52.5504 54.597C52.7775 54.6142 53.009 54.627 53.2405 54.6442C53.3005 54.6442 53.3605 54.6528 53.4205 54.6571C53.6391 54.6699 53.8534 54.6828 54.072 54.6957C54.1234 54.6957 54.1749 54.7 54.2263 54.7043C54.4535 54.7171 54.6807 54.73 54.9078 54.7429C54.985 54.7472 55.0664 54.7515 55.1436 54.7558C55.3493 54.7686 55.5508 54.7772 55.7565 54.7858C55.838 54.7901 55.9237 54.7944 56.0051 54.7987C56.2066 54.8073 56.4038 54.8158 56.6095 54.8287C56.7252 54.833 56.841 54.8373 56.961 54.8416C57.1324 54.8502 57.3039 54.8545 57.4753 54.863C57.5911 54.8673 57.7068 54.8716 57.8183 54.8759C57.994 54.8845 58.1697 54.8888 58.3455 54.8931C58.4955 54.8974 58.6455 54.9016 58.7913 54.9059C58.9327 54.9102 59.0741 54.9145 59.2156 54.9188C59.3613 54.9231 59.5071 54.9274 59.6528 54.9317C59.8028 54.9317 59.9529 54.9403 60.1029 54.9446C60.2272 54.9446 60.3558 54.9489 60.4801 54.9531C60.6515 54.9531 60.8187 54.9617 60.9901 54.966C61.1744 54.966 61.3588 54.9746 61.5431 54.9746C61.6588 54.9746 61.7703 54.9789 61.886 54.9789C62.0446 54.9789 62.2032 54.9789 62.3618 54.9832C62.5032 54.9832 62.6489 54.9832 62.7904 54.9875H63.0519C63.5705 54.9918 64.0892 54.996 64.6121 54.996C65.135 54.996 65.6579 54.996 66.1766 54.9875H66.4338C66.5795 54.9875 66.7252 54.9875 66.871 54.9832C67.0253 54.9832 67.1839 54.9832 67.3382 54.9789C67.4539 54.9789 67.5697 54.9789 67.6854 54.9746C67.8697 54.9746 68.0497 54.9703 68.234 54.966C68.4055 54.966 68.5727 54.9574 68.7441 54.9531C68.8684 54.9531 68.997 54.9489 69.1213 54.9446C69.2713 54.9446 69.4213 54.936 69.5714 54.9317C69.7171 54.9317 69.8628 54.9231 70.0086 54.9188C70.15 54.9188 70.2915 54.9102 70.4329 54.9059C70.5829 54.9016 70.733 54.8974 70.8787 54.8931C71.0544 54.8888 71.2302 54.8802 71.4059 54.8759C71.5216 54.8716 71.6374 54.8673 71.7488 54.863C71.9203 54.8545 72.0874 54.8502 72.2589 54.8416C72.3789 54.8373 72.4946 54.833 72.6147 54.8287C72.8161 54.8201 73.0133 54.8115 73.2147 54.7987C73.3005 54.7987 73.3819 54.7901 73.4676 54.7858C73.6734 54.7772 73.8748 54.7643 74.0806 54.7558C74.1577 54.7558 74.2392 54.7472 74.3163 54.7429C74.5435 54.73 74.7707 54.7171 74.9979 54.7043C75.0493 54.7043 75.1007 54.7 75.1522 54.6957C75.3708 54.6828 75.5894 54.6699 75.8037 54.6571C75.8637 54.6571 75.9237 54.6485 75.9837 54.6442C76.2109 54.6313 76.4423 54.6142 76.6652 54.597C76.7124 54.597 76.7595 54.5884 76.8024 54.5884C77.0167 54.5755 77.231 54.5584 77.4411 54.5412C77.5011 54.5369 77.5611 54.5326 77.6168 54.5283C77.8311 54.5112 78.0454 54.494 78.2555 54.4769L78.4226 54.464C78.6412 54.4468 78.8598 54.4297 79.0742 54.4082C79.1213 54.4082 79.1685 54.3996 79.2199 54.3953C79.7214 54.3524 80.2229 54.3052 80.7115 54.258L80.7844 54.2494C81.4402 54.1851 82.0789 54.1164 82.7132 54.0478C82.7818 54.0392 82.8547 54.0349 82.9233 54.0263C93.4119 52.8292 100.827 50.6365 102.139 48.0749H102.156Z" fill="#F5CB79"/>
<path d="M80.3258 46.3929C80.0257 46.6846 79.7 46.9421 79.3571 47.1609C80.6044 46.9378 81.0287 46.6846 80.3258 46.3929Z" fill="#FFF8E9"/>
<path d="M73.8063 47.7102C72.9533 47.5042 72.1303 47.1137 71.4059 46.5216C70.8659 46.0796 70.4286 45.5647 70.0815 45.0026C66.2709 44.7366 62.6232 44.6894 59.2113 44.7881C59.1642 44.861 59.1213 44.9383 59.0699 45.0155C58.4612 45.8951 57.6597 46.5645 56.7596 47.0065C54.7407 48.3967 51.9974 48.4825 49.8671 47.0065C49.3485 46.646 48.8341 46.174 48.3455 45.6205C38.997 46.7747 33.0905 48.6627 33.0905 48.6627C33.0905 48.6627 60.6301 48.5683 73.802 47.7187V47.7102H73.8063Z" fill="#FFF8E9"/>
<path d="M65.9623 103.71H66.3309C66.691 103.71 67.0468 103.702 67.4068 103.697C67.5011 103.697 67.5954 103.697 67.6897 103.693C68.1312 103.685 68.5684 103.676 69.0056 103.667C69.0913 103.667 69.1813 103.663 69.2671 103.659C69.6314 103.65 69.9957 103.637 70.3558 103.629C70.463 103.629 70.5701 103.62 70.673 103.62C71.556 103.59 72.4304 103.551 73.2919 103.509C73.3777 103.509 73.4677 103.5 73.5534 103.496C73.9392 103.474 74.3207 103.457 74.7021 103.431C74.7536 103.431 74.805 103.427 74.8564 103.423C75.3022 103.397 75.7437 103.367 76.1809 103.337H76.2538C76.6653 103.303 77.0725 103.273 77.4797 103.243L77.6468 103.23C78.517 103.161 79.3742 103.088 80.2143 103.007L80.3001 102.998C81.5945 102.874 82.8547 102.736 84.0763 102.582H84.1063C84.2692 102.556 84.4278 102.535 84.5907 102.517C84.2221 102.041 83.9692 101.462 83.8792 100.823C83.772 100.046 83.9263 99.295 84.2692 98.6513L70.0472 66.8775C69.8929 66.8903 69.7386 66.8903 69.58 66.8817L54.3678 99.4795C55.0408 100.033 55.5208 100.827 55.6494 101.762C55.7309 102.363 55.658 102.946 55.4651 103.474C58.4055 103.629 61.466 103.71 64.6078 103.71C65.0579 103.71 65.508 103.71 65.9537 103.706H65.9623V103.71Z" fill="#5E223E"/>
<path d="M48.5684 102.741C48.3755 101.32 49.0399 99.9858 50.1629 99.2563L40.5701 66.6844C40.2015 66.753 39.8114 66.7702 39.4171 66.7144C39.2413 66.6887 39.0741 66.65 38.907 66.6028L25.9408 89.7521C26.7252 90.3056 27.291 91.1638 27.4325 92.1936C27.7025 94.1545 26.3309 95.961 24.3763 96.227C24.2863 96.2399 24.2006 96.2442 24.1149 96.2484C27.2782 99.295 36.4981 101.784 48.6069 102.968C48.5941 102.891 48.5769 102.818 48.5641 102.741H48.5684Z" fill="#5E223E"/>
<path d="M93.6905 100.938L93.742 100.925C94.655 100.715 95.5251 100.496 96.3524 100.269L96.4167 100.252C96.6695 100.183 96.9224 100.11 97.171 100.037L97.2311 100.02C97.7583 99.8656 98.2641 99.7069 98.7527 99.5438L98.817 99.5224C99.0313 99.4494 99.2456 99.3765 99.4514 99.3035C99.4857 99.2907 99.52 99.2821 99.55 99.2692C100.009 99.1062 100.446 98.9345 100.862 98.7672L100.904 98.75C101.089 98.6728 101.269 98.5956 101.445 98.5183C101.483 98.5012 101.522 98.484 101.56 98.4668C101.723 98.3939 101.886 98.3209 102.04 98.2437L102.117 98.2094C102.302 98.1193 102.482 98.0292 102.653 97.939H102.662C102.825 97.8489 102.979 97.7631 103.133 97.6773C103.172 97.6558 103.206 97.6344 103.24 97.6129C103.361 97.5443 103.481 97.4713 103.596 97.3984C103.631 97.3769 103.665 97.3598 103.695 97.3383C103.978 97.1581 104.243 96.9779 104.484 96.7891L104.569 96.7204C104.659 96.6518 104.745 96.5788 104.826 96.5102L104.852 96.4887C103.669 96.0382 102.765 94.9741 102.58 93.631C102.383 92.2064 103.056 90.8677 104.188 90.134C103.009 87.1046 101.312 82.7279 99.6143 78.3469C97.8354 73.7557 96.4252 70.0913 95.4179 67.4524C95.2893 67.1135 95.1693 66.8002 95.0579 66.5042C94.745 66.5471 94.4235 66.5514 94.0977 66.5042C94.0506 66.4956 94.0034 66.487 93.9563 66.4784C93.8363 67.1349 93.6991 67.8515 93.5577 68.6238C92.8547 72.3826 91.9032 77.3815 90.9516 82.3804C89.9357 87.6967 88.9156 93.0217 88.1826 96.8363C89.61 97.1452 90.763 98.3123 90.973 99.8485C91.0545 100.441 90.9859 101.016 90.7973 101.543H90.8101C91.8089 101.35 92.769 101.149 93.6905 100.938Z" fill="#5E223E"/>
<path d="M49.7428 102.123C49.477 102.2 49.3227 102.479 49.4042 102.749C49.4813 103.015 49.7599 103.17 50.0257 103.088C50.2914 103.011 50.4458 102.732 50.3643 102.466C50.2872 102.2 50.0085 102.045 49.7428 102.123Z" fill="#FFE5B3"/>
<path d="M54.0077 102.891C53.7419 102.968 53.5876 103.247 53.6691 103.513C53.7462 103.779 54.0248 103.933 54.2906 103.852C54.5563 103.775 54.7106 103.496 54.6292 103.23C54.552 102.964 54.2734 102.809 54.0077 102.891Z" fill="#FFE5B3"/>
<path d="M51.6031 102.753C50.9601 102.942 50.5958 103.616 50.7844 104.255C50.973 104.899 51.6459 105.264 52.2846 105.075C52.9275 104.886 53.2919 104.212 53.1033 103.573C52.9147 102.929 52.2417 102.565 51.6031 102.753Z" fill="#FFE5B3"/>
<path d="M85.0579 100.209C84.7921 100.286 84.6378 100.565 84.7192 100.831C84.8007 101.097 85.075 101.252 85.3408 101.17C85.6065 101.093 85.7608 100.814 85.6794 100.548C85.5979 100.282 85.3236 100.127 85.0579 100.209Z" fill="#FFE5B3"/>
<path d="M89.6056 101.938C89.8714 101.861 90.0257 101.582 89.9443 101.312C89.8671 101.046 89.5885 100.891 89.3227 100.973C89.057 101.05 88.9027 101.329 88.9841 101.595C89.0613 101.861 89.3399 102.015 89.6056 101.938Z" fill="#FFE5B3"/>
<path d="M86.9181 100.84C86.2794 101.028 85.9108 101.702 86.0994 102.341C86.288 102.985 86.961 103.35 87.5996 103.161C88.2426 102.972 88.6069 102.299 88.4183 101.659C88.2297 101.016 87.5568 100.651 86.9181 100.84Z" fill="#FFE5B3"/>
<path d="M103.755 93.0131C103.489 93.0904 103.335 93.3693 103.416 93.6353C103.493 93.9013 103.772 94.0558 104.042 93.9743C104.308 93.8971 104.462 93.6181 104.381 93.3521C104.303 93.0861 104.025 92.9316 103.759 93.0131H103.755Z" fill="#FFE5B3"/>
<path d="M108.02 93.7769C107.754 93.8541 107.6 94.133 107.681 94.3991C107.763 94.6651 108.037 94.8196 108.303 94.7381C108.568 94.6608 108.723 94.3819 108.641 94.1159C108.564 93.8499 108.285 93.6954 108.02 93.7769Z" fill="#FFE5B3"/>
<path d="M104.681 92.6613C103.648 92.9273 103.065 93.8799 103.369 94.7853C103.673 95.6949 104.749 96.2098 105.774 95.9438C106.807 95.6778 107.39 94.7252 107.085 93.8198C106.781 92.9102 105.705 92.3953 104.681 92.6613Z" fill="#FFE5B3"/>
<path d="M37.8183 62.3249C37.5525 62.2476 37.2739 62.3978 37.1967 62.6638C37.1196 62.9299 37.2696 63.2088 37.5354 63.286C37.8011 63.3632 38.0797 63.2131 38.1569 62.947C38.234 62.681 38.084 62.4021 37.8183 62.3249Z" fill="#FFE5B3"/>
<path d="M42.4261 62.1833C42.5032 61.9172 42.3532 61.6383 42.0874 61.5611C41.8217 61.4838 41.5431 61.634 41.4616 61.9001C41.3845 62.1661 41.5345 62.445 41.8003 62.5222C42.066 62.5995 42.3446 62.4493 42.4218 62.1833H42.4261Z" fill="#FFE5B3"/>
<path d="M40.0772 60.3382C39.4342 60.1494 38.7656 60.5184 38.577 61.1577C38.3884 61.7971 38.757 62.4707 39.3956 62.6595C40.0386 62.8483 40.7073 62.4793 40.8959 61.84C41.0845 61.1963 40.7158 60.527 40.0772 60.3382Z" fill="#FFE5B3"/>
<path d="M67.6854 62.475C67.4196 62.3978 67.141 62.548 67.0639 62.814C66.9867 63.08 67.1367 63.3589 67.4025 63.4362C67.6682 63.5134 67.9469 63.3632 68.024 63.0972C68.1012 62.8312 67.9511 62.5523 67.6854 62.475Z" fill="#FFE5B3"/>
<path d="M71.6674 62.6724C71.9331 62.7496 72.2117 62.5995 72.2889 62.3334C72.3661 62.0674 72.216 61.7885 71.9503 61.7113C71.6845 61.634 71.4059 61.7842 71.3288 62.0502C71.2516 62.3163 71.4016 62.5952 71.6674 62.6724Z" fill="#FFE5B3"/>
<path d="M69.9443 60.4841C69.3013 60.2953 68.6327 60.6643 68.4441 61.3036C68.2555 61.9473 68.6241 62.6166 69.2628 62.8054C69.9057 62.9942 70.5744 62.6252 70.763 61.9859C70.9516 61.3422 70.583 60.6729 69.9443 60.4841Z" fill="#FFE5B3"/>
<path d="M92.4947 62.1189C92.2289 62.0417 91.9503 62.1918 91.8731 62.4579C91.796 62.7239 91.946 63.0028 92.2118 63.08C92.4775 63.1573 92.7561 63.0071 92.8333 62.7411C92.9104 62.475 92.7604 62.1961 92.4947 62.1189Z" fill="#FFE5B3"/>
<path d="M96.4809 62.3206C96.7467 62.3978 97.0253 62.2476 97.1024 61.9816C97.1796 61.7155 97.0296 61.4366 96.7638 61.3594C96.4981 61.2822 96.2195 61.4323 96.1423 61.6984C96.0652 61.9644 96.2152 62.2433 96.4809 62.3206Z" fill="#FFE5B3"/>
<path d="M94.7536 60.1322C94.1149 59.9434 93.4419 60.3124 93.2533 60.9518C93.0647 61.5954 93.4334 62.2648 94.072 62.4536C94.7107 62.6424 95.3837 62.2734 95.5723 61.634C95.7608 60.9904 95.3922 60.321 94.7536 60.1322Z" fill="#FFE5B3"/>
<path d="M21.5217 92.5497C21.2559 92.627 21.1016 92.9059 21.183 93.1719C21.2645 93.4379 21.5388 93.5924 21.8046 93.5109C22.0703 93.4293 22.2246 93.1547 22.1432 92.8887C22.066 92.6227 21.7874 92.4682 21.5217 92.5497Z" fill="#FFE5B3"/>
<path d="M25.7866 93.3135C25.5208 93.3907 25.3665 93.6696 25.4479 93.9357C25.5251 94.2017 25.8037 94.3562 26.0737 94.2747C26.3395 94.1974 26.4938 93.9185 26.4124 93.6525C26.3352 93.3864 26.0566 93.232 25.7908 93.3135H25.7866Z" fill="#FFE5B3"/>
<path d="M23.3819 93.1805C22.739 93.3693 22.3747 94.0429 22.5633 94.6823C22.7518 95.3216 23.4248 95.6906 24.0635 95.5018C24.7064 95.313 25.0708 94.6394 24.8822 94C24.6936 93.3564 24.0206 92.9917 23.3819 93.1805Z" fill="#FFE5B3"/>
<path d="M79.9743 34.666C79.8929 34.6488 79.8114 34.6316 79.7257 34.6187C79.7943 34.6445 79.8628 34.6746 79.9314 34.7046L79.9743 34.666Z" fill="#975A15"/>
<path d="M81.333 35.8931C81.4745 36.1034 81.5945 36.3308 81.6974 36.5711C82.8161 39.2057 81.6888 43.5137 79.94 45.6591C78.4998 47.427 76.2666 48.165 74.1706 47.7917C75.898 48.3709 77.8054 48.1435 79.3485 47.1609C79.6914 46.9421 80.0171 46.6889 80.3172 46.3929C80.4844 46.2298 80.643 46.0625 80.793 45.878C81.3888 45.1528 81.9074 44.1745 82.2932 43.1018C82.5932 42.2693 82.8118 41.3725 82.919 40.4886C83.0047 39.7935 83.0176 39.1027 82.9533 38.4548C82.8633 37.5751 82.6189 36.7684 82.186 36.1205L119.987 1.71205L118.834 0.399048L118.05 0.00428772L119.276 1.35591L81.3288 35.8931H81.333Z" fill="#975A15"/>
<path d="M80.6772 35.1594C80.9344 35.3696 81.153 35.6185 81.3373 35.8931L119.284 1.35162L84.6035 32.0571C83.8577 32.735 81.7702 34.3913 81.093 33.6447L79.9743 34.6659L79.9314 34.7045C80.1971 34.8247 80.45 34.9749 80.6772 35.1594Z" fill="#D47F0F"/>
<path d="M77.6982 37.485C78.054 37.6652 78.4826 37.5193 78.6626 37.1675C78.8427 36.8156 78.6969 36.3823 78.3454 36.202C77.9897 36.0261 77.561 36.1677 77.381 36.5196C77.2053 36.8757 77.3467 37.3048 77.6982 37.485Z" fill="#FABC68"/>
<path d="M77.6768 43.6853C78.0326 43.8655 78.4612 43.7196 78.6413 43.3678C78.8213 43.0117 78.6756 42.5826 78.3241 42.4024C77.9683 42.2221 77.5397 42.368 77.3597 42.7199C77.1796 43.076 77.3254 43.5094 77.6768 43.6853Z" fill="#FABC68"/>
<path d="M77.784 39.3043C77.3554 40.1582 77.6983 41.2009 78.5513 41.63C79.4042 42.0591 80.4458 41.7158 80.8744 40.8619C81.3031 40.008 80.9602 38.9654 80.1072 38.5363C79.2542 38.1072 78.2126 38.4505 77.784 39.3043Z" fill="#FABC68"/>
<path d="M47.7925 35.8759C47.7154 35.9103 47.6425 35.949 47.5654 35.9877L47.6168 36.0134C47.6725 35.9662 47.7325 35.9189 47.7925 35.8759Z" fill="#975A15"/>
<path d="M45.7565 40.553C45.9237 41.4069 46.2452 42.2865 46.6738 43.1232C47.1367 44.0286 47.7154 44.8825 48.3498 45.6033C48.8341 46.1569 49.3528 46.6331 49.8714 46.9893C52.006 48.4696 54.7492 48.3838 56.7638 46.9893C54.8521 47.929 52.5075 47.8346 50.6301 46.5345C48.3583 44.9597 46.0823 41.128 46.4338 38.2874C46.4638 38.03 46.5195 37.7768 46.5967 37.5365L0.587227 14.8507L1.39306 13.2116L0.745821 13.808L0 15.3913L45.8337 37.9913C45.778 38.1587 45.7394 38.3303 45.7051 38.5105C45.5937 39.1456 45.6194 39.8364 45.7565 40.5444V40.553Z" fill="#975A15"/>
<path d="M42.396 34.7646L0.587219 14.8593L46.5966 37.5451C46.6995 37.2319 46.841 36.9315 47.0296 36.6569C47.1967 36.4166 47.3939 36.202 47.6211 36.0133L47.5696 35.9875L46.2109 35.3181C45.7651 36.2235 43.3047 35.2109 42.4003 34.7646H42.396Z" fill="#D47F0F"/>
<path d="M49.9571 40.0467C50.4158 40.1926 50.9087 39.9394 51.0544 39.4803C51.2001 39.0211 50.9473 38.5277 50.4886 38.3818C50.03 38.2359 49.5371 38.4891 49.3913 38.9482C49.2456 39.4073 49.4985 39.9008 49.9571 40.0467Z" fill="#FABC68"/>
<path d="M55.3622 45.3073C55.8208 45.4532 56.3138 45.2 56.4595 44.7409C56.6052 44.2818 56.3523 43.7883 55.8937 43.6424C55.4351 43.4965 54.9421 43.7497 54.7964 44.2088C54.6507 44.6679 54.9036 45.1614 55.3622 45.3073Z" fill="#FABC68"/>
<path d="M49.9143 42.471C49.5585 43.5781 50.1714 44.7623 51.2773 45.1185C52.3832 45.4703 53.5662 44.861 53.922 43.754C54.2735 42.6469 53.6648 41.4584 52.5589 41.1065C51.4531 40.7547 50.2657 41.364 49.9143 42.471Z" fill="#FABC68"/>
</g>
<defs>
<clipPath id="clip0_93_43">
<rect width="120" height="113" fill="white"/>
</clipPath>
</defs>
</svg>
