<svg width="102" height="100" viewBox="0 0 102 100" fill="none" xmlns="http://www.w3.org/2000/svg">
<circle cx="50" cy="50" r="50" fill="#F9F5F2"/>
<path d="M82.6398 39.1606C84.3406 40.6675 86.4327 41.5437 88.4583 42.3904C89.8096 42.9549 91.2051 43.539 92.4382 44.2998C94.8749 45.8018 96.8734 48.1309 98.0647 50.86C99.0911 53.2111 99.5316 55.8323 99.3544 58.4927C99.379 58.5884 99.4086 58.6817 99.443 58.7749C99.4996 58.9246 99.5735 59.0768 99.6916 59.1897C99.7876 59.2805 99.9328 59.3198 100.058 59.3222C100.169 59.3222 100.258 59.2977 100.351 59.229C100.43 59.1701 100.506 59.0694 100.563 58.9713C100.605 58.8952 100.639 58.8142 100.671 58.7332C100.888 55.8102 100.415 52.9215 99.2855 50.3323C97.986 47.3578 95.8053 44.8152 93.1397 43.1733C91.818 42.3585 90.3732 41.7547 88.9752 41.1682C86.9619 40.3264 85.0617 39.5312 83.5259 38.1715C82.0171 36.8364 80.976 35.0105 80.597 33.0323L79.29 33.2802C79.7232 35.543 80.9145 37.6316 82.6398 39.1631V39.1606Z" fill="#606E74"/>
<path d="M100.467 59.3541C100.588 59.7198 100.698 60.0904 100.78 60.4683C100.94 61.212 101.006 61.9654 100.908 62.7238C100.898 62.8023 101.018 62.7606 101.036 62.7115C101.279 61.9728 101.257 61.1801 101.117 60.4242C101.045 60.0339 100.942 59.6486 100.821 59.2682C100.762 59.0841 100.696 58.9001 100.627 58.7185C100.561 58.5418 100.501 58.3601 100.371 58.2202C100.305 58.1491 100.145 58.2202 100.15 58.3184C100.167 58.6718 100.356 59.0203 100.467 59.3566V59.3541Z" fill="#3C484D"/>
<path d="M100.054 57.5773C100.135 57.7 100.29 57.781 100.398 57.8791C100.529 57.9945 100.644 58.127 100.75 58.262C100.991 58.5663 101.193 58.905 101.358 59.2535C101.526 59.602 101.661 59.9726 101.75 60.3481C101.828 60.6819 101.907 61.0549 101.828 61.3936C101.816 61.4452 101.892 61.4329 101.905 61.3936C102.116 60.623 101.954 59.8425 101.641 59.121C101.476 58.7406 101.275 58.3749 101.019 58.046C100.829 57.8006 100.541 57.4227 100.211 57.376C100.12 57.3637 99.9946 57.4889 100.051 57.5773H100.054Z" fill="#3C484D"/>
<path d="M99.3352 62.5667C99.2983 62.6821 99.473 62.6502 99.505 62.5692C99.7684 61.9016 99.9431 61.2095 100.014 60.4954C100.051 60.1346 100.069 59.7664 100.044 59.4032C100.032 59.229 100.014 59.0572 99.9825 58.8854C99.9554 58.7357 99.9357 58.5516 99.8397 58.4313C99.7536 58.3234 99.5542 58.4387 99.5518 58.559C99.5468 58.7111 99.6059 58.8633 99.6354 59.013C99.665 59.175 99.6847 59.3394 99.697 59.5038C99.7216 59.8573 99.7167 60.2107 99.6896 60.5641C99.6379 61.2341 99.5395 61.9237 99.3376 62.5667H99.3352Z" fill="#3C484D"/>
<path d="M98.0477 61.0206C98.2102 60.3923 98.4538 59.7591 98.7393 59.1774C98.8821 58.8878 99.0421 58.6031 99.2218 58.3356C99.3104 58.2055 99.4014 58.0779 99.5048 57.9552C99.5934 57.8497 99.7189 57.7491 99.7411 57.6067C99.7509 57.5404 99.6722 57.5036 99.618 57.5208C99.4605 57.5674 99.3645 57.6975 99.2636 57.8227C99.1627 57.9478 99.0642 58.0779 98.9756 58.2129C98.7812 58.4976 98.6187 58.8019 98.4735 59.1136C98.1831 59.7345 98.0059 60.3702 97.8681 61.0402C97.8459 61.1433 98.0305 61.0991 98.0502 61.023L98.0477 61.0206Z" fill="#3C484D"/>
<path d="M97.6295 58.7774C97.9519 58.3307 98.3187 57.9061 98.6928 57.5012C98.8725 57.3048 99.0595 57.1159 99.249 56.9318C99.3426 56.841 99.4361 56.7502 99.5296 56.6643C99.6281 56.571 99.7634 56.4802 99.8225 56.3575C99.8791 56.2397 99.788 56.1612 99.6724 56.2078C99.5395 56.2593 99.4336 56.3796 99.3327 56.4778C99.2367 56.5735 99.1383 56.6692 99.0447 56.7674C98.8528 56.9686 98.6706 57.1797 98.4959 57.3932C98.1439 57.8251 97.8363 58.2841 97.5311 58.7479C97.4843 58.8191 97.5926 58.8265 97.6295 58.7774Z" fill="#3C484D"/>
<path d="M100.009 56.7698C99.9869 56.8115 99.9967 56.8533 100.029 56.8827C100.021 56.8729 100.016 56.8655 100.009 56.8557C100.014 56.868 100.024 56.8778 100.031 56.8852C100.039 56.8901 100.043 56.8974 100.053 56.9023C100.048 56.9023 100.043 56.8974 100.039 56.8974C100.056 56.9097 100.078 56.9171 100.105 56.9195C100.122 56.9195 100.137 56.9195 100.154 56.9171C100.13 56.9171 100.127 56.9195 100.144 56.9171C100.157 56.9171 100.171 56.9171 100.184 56.9171C100.194 56.9171 100.206 56.9171 100.216 56.9171C100.216 56.9171 100.217 56.9171 100.221 56.9171C100.221 56.9171 100.228 56.9171 100.233 56.9171C100.287 56.9293 100.344 56.9514 100.378 56.9686C100.509 57.0349 100.627 57.1232 100.74 57.2116C100.858 57.3073 100.971 57.4104 101.082 57.5135C101.168 57.5944 101.25 57.6828 101.333 57.7662C101.385 57.8178 101.508 57.7294 101.456 57.6803C101.294 57.5159 101.166 57.3269 101.016 57.1527C100.856 56.9612 100.676 56.7649 100.442 56.6643C100.388 56.6397 100.324 56.6226 100.265 56.6226C100.226 56.6226 100.186 56.6299 100.149 56.6422C100.112 56.6545 100.075 56.6741 100.048 56.7035C100.034 56.7183 100.024 56.7355 100.014 56.7526C100.009 56.76 100.009 56.76 100.009 56.7625C100.014 56.7526 100.021 56.7404 100.014 56.7502C100.011 56.7551 100.011 56.76 100.007 56.7649C100.002 56.7723 100.002 56.7723 100.007 56.7649L100.009 56.7698Z" fill="#3C484D"/>
<path d="M100.028 56.8827C100.028 56.8827 100.034 56.8908 100.036 56.8935C100.036 56.8935 100.036 56.8935 100.039 56.8935C100.036 56.8935 100.034 56.8854 100.031 56.8827C100.031 56.8827 100.031 56.8827 100.028 56.8827Z" fill="#3C484D"/>
<path d="M76.6687 42.5721C76.4103 42.2334 76.1198 41.9217 75.79 41.6395C72.2753 38.6404 66.383 40.8811 64.1359 44.3735C61.965 47.7481 61.9675 52.7253 62.9077 56.5122C63.0898 57.2485 63.2572 57.9872 63.4024 58.7308C63.8897 61.1949 64.2072 63.7129 64.2909 66.2236C64.3648 68.376 64.5666 70.6143 64.1088 72.7372C63.8602 73.8882 63.5082 75.1325 63.4984 76.3425C63.5575 76.556 63.6338 76.7646 63.747 76.9585C64.2786 77.8862 65.4428 78.1169 66.4249 78.2175C67.6752 78.3451 68.9624 78.3108 70.2128 78.2175C70.9142 78.166 71.6157 78.085 72.3122 77.9795C72.9842 77.8764 73.6758 77.7733 74.3305 77.5892C74.7858 77.4616 75.219 77.28 75.6276 77.0468C75.9599 76.7204 76.2257 76.3376 76.4127 75.9081C76.462 75.4639 76.4989 75.0196 76.553 74.5803C76.7352 73.1225 76.9838 71.6745 77.2348 70.229C77.7074 67.4974 78.1406 64.756 78.431 61.9974C78.7707 58.7627 79.0119 55.3341 78.847 52.0135C78.7017 49.0709 78.5934 45.095 76.6663 42.5696L76.6687 42.5721Z" fill="#97AAB3"/>
<path opacity="0.54" d="M63.4024 58.7283C63.8898 61.1923 64.2073 63.7104 64.291 66.2211C64.318 67.0187 64.3623 67.8261 64.3845 68.6385C65.9203 68.8815 67.4857 68.9158 69.0363 68.8373C70.7026 68.7538 72.3615 68.5305 73.9958 68.2016C75.256 67.9489 76.5014 67.6273 77.7246 67.2371C77.9978 65.4971 78.244 63.7521 78.4286 61.9973C78.7682 58.7626 79.0094 55.334 78.8445 52.0134C78.6993 49.0708 78.591 45.0949 76.6638 42.5695C76.4054 42.2308 76.115 41.9191 75.7852 41.6369C72.2704 38.6378 66.3781 40.8785 64.131 44.3709C61.9601 47.7455 61.9626 52.7227 62.9028 56.5096C63.0849 57.2459 63.2498 57.9846 63.3975 58.7283H63.4024Z" fill="#A7BBC5"/>
<path opacity="0.34" d="M65.5656 58.5884C66.0628 58.3896 66.6018 58.2914 67.1359 58.2473C67.5839 58.2104 68.049 58.2006 68.4921 58.2792C69.1591 58.397 69.7793 58.6939 70.3503 59.0498C70.5915 59.202 70.8254 59.3664 71.0518 59.5431C70.8697 59.467 70.6851 59.3958 70.498 59.332C69.5529 59.013 68.5561 58.8682 67.5592 58.8927C67.0227 58.9074 66.5083 58.9762 65.9865 59.1062C65.5238 59.2216 65.0537 59.3639 64.5762 59.3934C64.7534 58.9933 65.1693 58.743 65.5656 58.5859V58.5884Z" fill="#83949C"/>
<path opacity="0.34" d="M68.5879 60.6917C69.0752 60.7162 69.5724 60.8046 70.0228 60.996C68.4845 61.3617 66.8502 61.558 65.3242 61.1138C65.5974 61.0451 65.8706 60.9788 66.1488 60.9224C66.9487 60.7579 67.7707 60.6499 68.5879 60.6917Z" fill="#83949C"/>
<path opacity="0.34" d="M69.8805 63.3938C69.7845 63.5165 69.6737 63.627 69.5458 63.7227C68.9427 64.162 68.1281 64.3019 67.3971 64.2086C66.7744 64.1276 66.1246 63.838 65.8145 63.276C66.607 63.4012 67.3774 63.6392 68.1798 63.7055C68.7852 63.7546 69.371 63.6638 69.8805 63.3938Z" fill="#83949C"/>
<path d="M68.1746 76.3031C68.4453 75.7092 68.8761 75.13 69.5406 74.9655C70.1338 74.8207 70.7466 74.9999 71.1429 75.4662C71.5318 75.9251 71.7065 76.5411 71.7902 77.1253C71.8444 77.4983 71.8591 77.8763 71.8394 78.2542C71.3693 78.3352 70.8968 78.3941 70.4193 78.4309C69.4618 78.5095 68.497 78.5045 67.5371 78.4383C67.7045 77.7143 67.8595 76.9805 68.1697 76.3006L68.1746 76.3031Z" fill="#FFFCD9"/>
<path d="M64.2857 77.729C64.2807 77.4983 64.2906 77.2725 64.3103 77.0565C64.362 76.4651 64.4998 75.7926 64.9133 75.341C65.2702 74.9533 65.9126 74.8526 66.3162 75.233C66.7322 75.6257 66.8405 76.2957 66.9168 76.8332C66.9906 77.3584 66.998 77.8959 67.0915 78.4187C66.4541 78.372 65.8018 78.3254 65.184 78.161C64.8542 78.0726 64.5416 77.9327 64.2832 77.729H64.2857Z" fill="#FFFCD9"/>
<path d="M34.6225 82.3431C34.2803 82.7677 33.857 83.1113 33.3647 83.3493C32.6731 83.6831 31.888 83.823 31.1348 83.9261C30.1552 84.061 29.1609 84.0831 28.1739 84.0193C27.1918 83.958 26.2147 83.8107 25.2523 83.6021C24.5681 83.4524 23.8543 83.3174 23.207 83.0425C22.636 82.802 22.1364 82.4093 21.9715 81.786C21.4275 79.7293 22.6754 77.815 23.5738 76.0749C24.573 74.1434 24.9619 71.9297 25.4542 69.8338C26.0301 67.3894 26.3821 64.8738 26.5568 62.368C26.8571 58.0215 26.5864 53.6014 25.4492 49.3212C24.9028 47.2596 24.0808 45.2324 23.719 43.1439C23.6328 42.6481 23.5688 42.1401 23.5442 41.6272C23.591 41.5192 23.6377 41.4112 23.687 41.3056C23.8937 40.1767 24.4007 39.06 25.1539 38.0832C25.688 37.3936 26.3895 36.7506 27.3051 36.3039C28.324 35.8106 29.567 35.6167 30.7804 35.6192C33.5764 35.629 36.1238 36.7309 38.051 38.1249C40.0324 39.5582 41.3713 41.3523 42.2229 43.2715C42.7373 44.4324 43.0893 45.6227 43.3182 46.8277C43.7883 48.8402 43.9458 50.914 43.9113 52.9805C43.8129 58.6375 42.2352 64.1915 40.2046 69.4362C39.2029 72.023 38.0682 74.5558 36.8942 77.0714C36.274 78.4016 35.6562 79.7342 35.0999 81.0939C34.9326 81.5013 34.78 81.9234 34.6175 82.3382L34.6225 82.3431Z" fill="#97AAB3"/>
<path opacity="0.54" d="M24.6175 46.5626C25.5454 48.5776 26.6554 50.5115 27.8836 52.3571C29.2226 54.372 30.7067 56.2962 32.3361 58.0877C34.1008 60.0241 36.0846 61.7691 38.1767 63.3423C39.2695 64.1645 40.4017 64.9375 41.5659 65.6542C42.9073 61.5507 43.8426 57.2975 43.9189 52.9829C43.9558 50.9165 43.7958 48.8426 43.3257 46.8301C43.0968 45.6251 42.7448 44.4323 42.2304 43.2739C41.3788 41.3572 40.0399 39.5631 38.0586 38.1298C36.1338 36.7358 33.5839 35.6339 30.7879 35.6241C29.5745 35.6191 28.3291 35.813 27.3126 36.3088C26.397 36.753 25.6955 37.396 25.1614 38.0881C24.4083 39.0624 23.8988 40.1816 23.6945 41.3105C23.6428 41.4161 23.5985 41.5265 23.5518 41.632C23.5764 42.145 23.6404 42.6555 23.7265 43.1488C23.9259 44.2998 24.2655 45.4337 24.6224 46.5626H24.6175Z" fill="#A7BBC5"/>
<path opacity="0.34" d="M28.6837 62.7975C29.2154 62.7361 29.7618 62.7803 30.2885 62.876C30.7315 62.957 31.1819 63.0699 31.5905 63.2613C32.2034 63.5485 32.7251 63.9952 33.1829 64.4885C33.3774 64.6971 33.5595 64.9179 33.7318 65.1486C33.5768 65.0284 33.4168 64.9106 33.2519 64.8026C32.4224 64.2479 31.4994 63.8504 30.5297 63.6147C30.0079 63.4896 29.4935 63.4209 28.9569 63.411C28.4794 63.4012 27.9896 63.4184 27.5195 63.3202C27.7952 62.9816 28.2628 62.8466 28.6862 62.7975H28.6837Z" fill="#83949C"/>
<path opacity="0.34" d="M31.0512 65.6149C31.5164 65.7671 31.9718 65.9806 32.3557 66.28C30.7756 66.2334 29.1462 65.9978 27.79 65.1732C28.0706 65.1781 28.3537 65.1854 28.6343 65.2026C29.4489 65.2517 30.271 65.3597 31.0488 65.6149H31.0512Z" fill="#83949C"/>
<path opacity="0.34" d="M31.593 68.5625C31.4674 68.6557 31.3321 68.7343 31.1844 68.7907C30.4854 69.0582 29.6633 68.9821 28.984 68.6999C28.4031 68.4594 27.8518 68.0127 27.6992 67.3893C28.4302 67.7158 29.1145 68.1477 29.8701 68.4177C30.4435 68.6214 31.0293 68.6876 31.593 68.56V68.5625Z" fill="#83949C"/>
<path d="M26.2541 81.5921C26.6085 81.0448 27.1156 80.5318 27.7998 80.4631C28.4053 80.4042 28.9886 80.6693 29.3135 81.1871C29.6335 81.6976 29.7171 82.3308 29.7171 82.9223C29.7171 83.2978 29.6778 83.6757 29.6039 84.0463C29.1264 84.0586 28.6489 84.0488 28.1739 84.0193C27.214 83.9604 26.2615 83.8181 25.3213 83.6168C25.592 82.9247 25.848 82.2203 26.2541 81.5921Z" fill="#FFFCD9"/>
<path d="M22.3755 82.4953C22.4026 82.267 22.4444 82.0437 22.4936 81.8326C22.6266 81.2534 22.8555 80.6055 23.328 80.2153C23.7341 79.8815 24.3864 79.8692 24.731 80.3012C25.0903 80.7478 25.1026 81.4252 25.1051 81.97C25.1051 82.5002 25.0386 83.0352 25.0583 83.5653C24.4331 83.4303 23.7932 83.2953 23.205 83.0475C22.8899 82.9149 22.5995 82.7333 22.373 82.4977L22.3755 82.4953Z" fill="#FFFCD9"/>
<path d="M27.1916 47.4977C27.1916 47.4977 32.2717 63.0257 51.578 66.2825C70.8843 69.5393 85.9966 64.2185 91.3302 56.1293C94.9089 50.7005 95.3224 43.5734 93.6635 37.423C91.7658 30.3941 87.2592 25.2671 80.4168 22.6656C79.3954 22.2779 78.3543 21.9465 77.3008 21.6619C70.4929 19.831 63.0992 19.3156 56.1043 20.1329C50.751 20.7587 45.474 21.7306 40.0592 21.2348C37.8612 21.0336 35.5747 20.2335 33.3546 20.4691C30.9844 20.7219 29.456 22.565 28.2376 24.4499C23.2855 32.1096 23.9525 43.1856 27.194 47.4952L27.1916 47.4977Z" fill="#A7BBC5"/>
<path opacity="0.54" d="M93.6642 37.423C92.8372 34.3577 91.513 31.6555 89.7163 29.3657C90.1446 30.2959 90.5088 31.2579 90.8066 32.2347C91.3531 34.0239 91.7001 35.9112 91.6435 37.7862C91.5967 39.3422 91.2792 41.1338 89.9354 42.1106C88.7219 42.9941 87.0556 43.1095 85.6281 43.4065C84.5845 43.6224 83.5803 43.8998 82.6303 44.3906C81.6925 44.8716 80.8385 45.5048 80.0927 46.2509C78.6381 47.7063 77.5772 49.5985 77.0678 51.5889C76.6026 53.41 76.6075 55.3194 76.3614 57.1748C76.13 58.9369 75.7017 60.8046 74.4194 62.1225C73.1125 63.465 71.0253 64.1964 69.1646 64.0025C68.2293 63.9043 67.3235 63.5362 66.6713 62.8465C66.0732 62.2109 65.7803 61.3494 65.5883 60.5175C65.3693 59.5554 65.2782 58.5688 65.1428 57.592C65.0099 56.6373 64.7884 55.7366 64.4389 54.8359C63.6981 52.9191 62.5782 51.1251 61.0448 49.7409C59.4893 48.337 57.5572 47.4731 55.4872 47.1737C53.6339 46.9038 51.6206 46.9798 49.8853 47.7431C49.0559 48.1088 48.3027 48.6414 47.7268 49.3457C47.0278 50.2047 46.6143 51.3067 46.442 52.3914C46.0457 54.8899 46.9367 57.3637 47.1902 59.8278C47.2985 60.8782 47.3305 62.0293 47.0081 63.0478C46.8137 63.6662 46.4272 64.2111 45.8538 64.5326C45.7258 64.6038 45.5953 64.6602 45.46 64.7118C47.3182 65.3695 49.3512 65.9094 51.5738 66.2825C70.8801 69.5368 85.9924 64.2184 91.326 56.1293C94.9047 50.7029 95.3182 43.5733 93.6568 37.423H93.6642Z" fill="#A7BBC5"/>
<path opacity="0.54" d="M34.6075 58.2178C36.6651 57.1011 38.2895 55.2015 39.5473 53.2774C39.8525 52.8087 40.133 52.3399 40.3373 51.8196C40.5072 51.3803 40.6647 50.9263 40.8936 50.5139C40.965 50.3839 41.0536 50.2268 41.184 50.1483C41.376 50.0305 41.6541 50.0476 41.8658 50.0722C42.1292 50.1016 42.3876 50.1703 42.6411 50.2415C42.7642 50.2759 42.8897 50.3274 43.0152 50.3471C43.1875 50.3765 43.3844 50.3495 43.5567 50.3446C46.1927 50.2538 48.8558 49.4071 50.9725 47.8167C51.9571 47.078 52.8013 46.1454 53.3428 45.0385C53.5667 44.5796 53.7489 44.0985 53.9064 43.6126C53.9827 43.3721 54.0467 43.107 54.1968 42.8984C54.347 42.6874 54.5759 42.5597 54.8072 42.4542C55.3192 42.221 55.8582 42.0542 56.3923 41.8799C57.8174 41.4161 59.2474 40.962 60.6257 40.373C62.3904 39.6171 64.0321 38.6084 65.5458 37.4328C66.3039 36.8438 67.0324 36.2081 67.6871 35.5038C68.2803 34.8657 68.8415 34.1515 69.1762 33.3391C69.4519 32.674 69.5478 31.923 69.2476 31.2481C68.7996 30.2394 67.6748 29.8836 66.8134 29.3093C66.2596 28.9387 65.787 28.4233 65.3243 27.9472C64.7877 27.3974 64.2733 26.828 63.7761 26.2439C62.8679 25.1788 61.9794 24.0915 61.1696 22.9479C60.4731 21.9637 59.8258 20.9329 59.272 19.858C58.2087 19.9218 57.1504 20.0101 56.0994 20.1328C50.7461 20.7587 45.4691 21.7306 40.0543 21.2348C37.8564 21.0336 35.5698 20.2335 33.3498 20.4691C30.9795 20.7219 29.4511 22.565 28.2327 24.4499C23.2806 32.1096 23.9476 43.1856 27.1892 47.4952C27.1892 47.4952 29.0105 53.0541 34.605 58.2154L34.6075 58.2178Z" fill="#A7BBC5"/>
<path d="M63.1658 51.8711C62.1812 49.4905 60.5519 47.4756 57.9331 46.2043C57.2759 45.8852 56.5867 45.6374 55.8804 45.4508C55.1001 45.2447 54.3101 45.1072 53.5003 45.1146C51.2827 45.1367 49.0897 46.0055 47.6154 47.6842C46.178 49.3187 45.5307 51.5791 45.8802 53.7241C46.1263 55.231 46.9508 56.6054 47.448 58.0411C48.1125 59.9628 48.6319 61.9335 49.0257 63.9288C49.513 66.3929 49.8305 68.911 49.9142 71.4216C49.9856 73.574 50.1899 75.8123 49.7321 77.9352C49.4835 79.0863 49.1315 80.3306 49.1217 81.5405C49.1807 81.754 49.257 81.9626 49.3703 82.1565C49.9019 83.0842 51.0661 83.3149 52.0481 83.4155C53.2985 83.5432 54.5857 83.5088 55.8361 83.4155C56.5375 83.364 57.239 83.283 57.9355 83.1775C58.6099 83.0744 59.2991 82.9713 59.9562 82.7873C60.4116 82.6596 60.8448 82.478 61.2533 82.2449C61.5856 81.9185 61.8514 81.5356 62.0385 81.1061C62.0877 80.6619 62.1246 80.2177 62.1788 79.7784C62.3609 78.3205 62.6095 76.875 62.8606 75.427C63.3331 72.6954 63.7663 69.954 64.0567 67.1954C64.581 62.2084 65.1348 56.625 63.1682 51.8662L63.1658 51.8711Z" fill="#97AAB3"/>
<path opacity="0.34" d="M51.1896 63.7865C51.6868 63.5877 52.2258 63.4895 52.7599 63.4454C53.2079 63.4086 53.6731 63.3987 54.1161 63.4773C54.7831 63.5951 55.4033 63.892 55.9744 64.2479C56.2156 64.4001 56.4494 64.5645 56.6758 64.7412C56.4937 64.6651 56.3091 64.594 56.122 64.5301C55.1769 64.2111 54.1801 64.0663 53.1833 64.0908C52.6467 64.1056 52.1323 64.1743 51.6105 64.3044C51.1478 64.4197 50.6777 64.5621 50.2002 64.5915C50.3774 64.1915 50.7934 63.9411 51.1896 63.7841V63.7865Z" fill="#83949C"/>
<path opacity="0.34" d="M54.2119 65.8922C54.6992 65.9168 55.1964 66.0051 55.6468 66.1966C54.1085 66.5622 52.4767 66.7586 50.9482 66.3144C51.2214 66.2456 51.4946 66.1794 51.7728 66.1229C52.5727 65.9585 53.3948 65.8505 54.2119 65.8922Z" fill="#83949C"/>
<path opacity="0.34" d="M55.5035 68.5944C55.4075 68.7171 55.2968 68.8275 55.1688 68.9232C54.5658 69.3625 53.7511 69.5024 53.0201 69.4092C52.3974 69.3282 51.7476 69.0386 51.4375 68.4766C52.23 68.6017 53.0004 68.8398 53.8028 68.9061C54.4083 68.9551 54.9941 68.8643 55.5035 68.5944Z" fill="#83949C"/>
<path d="M53.7986 81.5037C54.0693 80.9098 54.5 80.3306 55.1646 80.1661C55.7577 80.0213 56.3706 80.2005 56.7669 80.6668C57.1558 81.1258 57.3305 81.7418 57.4142 82.3259C57.4683 82.6989 57.4831 83.0769 57.4659 83.4548C56.9958 83.5358 56.5207 83.5947 56.0482 83.6315C55.0883 83.7101 54.1259 83.7052 53.166 83.6389C53.3334 82.9149 53.4884 82.1811 53.7986 81.5013V81.5037Z" fill="#FFFCD9"/>
<path d="M49.9097 82.9272C49.9048 82.6965 49.9146 82.4707 49.9343 82.2547C49.986 81.6633 50.1214 80.9908 50.5373 80.5392C50.8942 80.1514 51.5366 80.0508 51.9402 80.4312C52.3562 80.8239 52.4645 81.4939 52.5408 82.0314C52.6146 82.5566 52.622 83.0941 52.7155 83.6168C52.0781 83.5702 51.4258 83.5236 50.8081 83.3591C50.4782 83.2708 50.1657 83.1333 49.9072 82.9272H49.9097Z" fill="#FFFCD9"/>
<path d="M92.3269 46.4841C92.0685 46.1454 91.7781 45.8337 91.4482 45.5514C87.9335 42.5524 82.0412 44.7931 79.7941 48.2855C77.6232 51.6601 77.6257 56.6373 78.5659 60.4242C78.748 61.1604 78.9154 61.8992 79.0606 62.6428C79.5479 65.1069 79.8654 67.6249 79.9491 70.1356C80.023 72.288 80.2248 74.5263 79.767 76.6492C79.5184 77.8002 79.1689 79.0445 79.1566 80.2545C79.2157 80.468 79.292 80.6766 79.4052 80.8705C79.9368 81.7982 81.101 82.0289 82.0831 82.1295C83.3334 82.2571 84.6206 82.2228 85.871 82.1295C86.5724 82.078 87.2739 81.997 87.9705 81.8914C88.6424 81.7884 89.334 81.6853 89.9887 81.5012C90.444 81.3736 90.8772 81.192 91.2858 80.9588C91.6181 80.6324 91.8839 80.2496 92.0709 79.8201C92.1202 79.3758 92.1571 78.9316 92.2112 78.4923C92.3934 77.0345 92.642 75.5889 92.893 74.1409C93.3656 71.4094 93.7988 68.668 94.0892 65.9094C94.4289 62.6747 94.6701 59.2461 94.5052 55.9255C94.3599 52.9829 94.2516 49.007 92.3245 46.4816L92.3269 46.4841Z" fill="#97AAB3"/>
<path opacity="0.34" d="M81.2238 62.498C81.721 62.2992 82.26 62.201 82.7941 62.1569C83.2421 62.12 83.7072 62.1102 84.1503 62.1888C84.8173 62.3066 85.4375 62.6035 86.0086 62.9594C86.2498 63.1116 86.4836 63.276 86.71 63.4527C86.5279 63.3766 86.3433 63.3054 86.1562 63.2416C85.2111 62.9226 84.2143 62.7778 83.2174 62.8023C82.6809 62.817 82.1665 62.8858 81.6447 63.0158C81.182 63.1312 80.7119 63.2735 80.2344 63.303C80.4116 62.9029 80.8275 62.6526 81.2238 62.4955V62.498Z" fill="#83949C"/>
<path opacity="0.34" d="M84.2461 64.6037C84.7334 64.6283 85.2306 64.7166 85.681 64.908C84.1427 65.2737 82.5084 65.4701 80.9824 65.0258C81.2556 64.9571 81.5288 64.8909 81.807 64.8344C82.6069 64.67 83.4289 64.562 84.2461 64.6037Z" fill="#83949C"/>
<path opacity="0.34" d="M85.5387 67.3059C85.4427 67.4286 85.3319 67.539 85.204 67.6347C84.6009 68.074 83.7863 68.2139 83.0553 68.1207C82.4326 68.0397 81.7828 67.7501 81.4727 67.188C82.2652 67.3132 83.0356 67.5513 83.838 67.6175C84.4434 67.6666 85.0292 67.5758 85.5387 67.3059Z" fill="#83949C"/>
<path d="M83.8328 80.2152C84.1035 79.6213 84.5343 79.0421 85.1988 78.8776C85.792 78.7328 86.4048 78.912 86.8011 79.3783C87.19 79.8372 87.3647 80.4533 87.4484 81.0374C87.5026 81.4104 87.5173 81.7884 87.4976 82.1663C87.0275 82.2473 86.5525 82.3062 86.0775 82.343C85.12 82.4216 84.1552 82.4167 83.1953 82.3504C83.3627 81.6264 83.5177 80.8926 83.8279 80.2127L83.8328 80.2152Z" fill="#FFFCD9"/>
<path d="M79.9439 81.6411C79.9389 81.4104 79.9488 81.1846 79.9685 80.9686C80.0202 80.3772 80.158 79.7047 80.5715 79.2531C80.9284 78.8654 81.5708 78.7647 81.9744 79.1451C82.3904 79.5378 82.4987 80.2078 82.575 80.7453C82.6488 81.2705 82.6562 81.808 82.7497 82.3308C82.1123 82.2841 81.46 82.2375 80.8422 82.0731C80.5124 81.9847 80.1998 81.8448 79.9414 81.6411H79.9439Z" fill="#FFFCD9"/>
<path d="M27.5809 22.2485C27.603 21.0975 27.5218 19.9366 27.2929 18.8077C27.1206 17.9512 26.8548 17.1143 26.4807 16.3265C25.7201 15.5926 24.9596 14.8539 24.1006 14.2354C22.8577 13.3421 21.4055 12.7752 19.8869 12.5788C18.2821 12.3702 16.6528 12.5911 15.112 13.0599C13.554 13.536 12.0748 14.2502 10.6694 15.0674C9.14338 15.9534 7.73799 17.0136 6.3449 18.0935C5.62128 18.6555 4.90013 19.2225 4.17159 19.7796C3.85654 20.0201 3.54396 20.2508 3.2043 20.4569C2.89664 20.6435 2.58406 20.8226 2.27394 21.0091C1.67338 21.3724 1.0556 21.7651 0.605186 22.3124C0.105545 22.921 -0.0568995 23.6867 0.016939 24.4647C0.0267842 24.5727 0.0415519 24.6807 0.0587808 24.7862C0.179384 25.2182 0.359057 25.6354 0.560883 26.0453C1.23035 27.4025 2.02781 28.6934 2.98279 29.869C3.93776 31.0421 5.04288 32.095 6.2686 32.9785C6.88638 33.4252 7.54108 33.8203 8.19578 34.2081C8.88002 34.6106 9.5741 34.9983 10.2805 35.3591C11.7376 36.1052 13.2586 36.7531 14.8486 37.1605C16.3279 37.5409 17.9228 37.7299 19.434 37.4158C20.7336 37.1458 21.8854 36.4537 22.8183 35.5236C23.7609 34.5836 24.4772 33.435 25.0679 32.2496C25.5897 31.2016 26.0376 30.1119 26.3994 28.9977C26.744 27.9375 27.0172 26.8527 27.2141 25.7557C27.4233 24.5948 27.5538 23.4217 27.5759 22.2436L27.5809 22.2485Z" fill="#F8A8A0"/>
<path d="M3.36132 21.9293C4.57227 21.1489 5.68477 20.2261 6.8268 19.3499C7.3609 18.9401 7.90238 18.5351 8.46848 18.1719C9.04934 17.8013 9.65728 17.5019 10.2997 17.2516C11.902 16.6306 13.7086 16.2453 15.4118 16.6478C16.2757 16.8515 17.051 17.2663 17.7327 17.8308C18.3653 18.356 18.8576 19.0137 19.2784 19.7156C20.0094 20.9305 20.5977 22.214 21.2155 23.4878C22.4215 25.9739 23.7038 28.4969 25.5596 30.5732C25.6212 30.6419 25.6827 30.7057 25.7442 30.772C25.9854 30.1928 26.2069 29.6038 26.4014 29.0074C26.746 27.9472 27.0192 26.8624 27.2161 25.7653C27.4253 24.6069 27.5557 23.4313 27.5779 22.2533C27.6 21.1023 27.5188 19.9414 27.2899 18.8125C27.1176 17.9559 26.8518 17.119 26.4777 16.3312C25.7172 15.5974 24.9566 14.8587 24.0976 14.2402C22.8547 13.3468 21.4025 12.7799 19.8839 12.5836C18.2792 12.375 16.6498 12.5959 15.109 13.0646C13.551 13.5407 12.0718 14.2549 10.6664 15.0722C9.14041 15.9582 7.73502 17.0184 6.34193 18.0983C5.61831 18.6603 4.89716 19.2272 4.16862 19.7843C3.85357 20.0248 3.54099 20.2555 3.20133 20.4617C2.89367 20.6482 2.58109 20.8274 2.27097 21.0139C1.67042 21.3771 1.05263 21.7698 0.602219 22.3171C0.358552 22.6141 0.196108 22.9479 0.0976562 23.3013C1.27169 23.1491 2.36942 22.5674 3.35147 21.9343L3.36132 21.9293Z" fill="#A7BBC5"/>
<path d="M27.5803 22.2484C27.6025 21.0974 27.5213 19.9365 27.2924 18.8076C27.1201 17.951 26.8543 17.1141 26.4801 16.3263C26.0765 15.9386 25.6729 15.5483 25.2569 15.1753C24.5677 15.3643 23.8737 15.5336 23.1894 15.7447C22.1852 16.0515 21.2352 16.4638 20.3688 17.0651C18.6656 18.2505 17.2553 19.8187 16.0369 21.4852C14.7669 23.2228 13.6741 25.0831 12.8766 27.0833C12.1112 29.0001 11.6214 31.0174 11.3876 33.0667C11.2842 33.9822 11.2325 34.9025 11.2227 35.8229C12.3918 36.3726 13.6003 36.8438 14.8506 37.1653C16.3298 37.5457 17.9247 37.7347 19.436 37.4206C20.7355 37.1506 21.8874 36.4585 22.8202 35.5283C23.7629 34.5884 24.4791 33.4398 25.0698 32.2544C25.5916 31.2064 26.0396 30.1167 26.4014 29.0025C26.746 27.9423 27.0192 26.8575 27.2161 25.7604C27.4253 24.5996 27.5557 23.4265 27.5779 22.2484H27.5803Z" fill="#ABADB0"/>
<path d="M40.8689 24.121C41.1667 23.0068 41.5679 21.9171 42.102 20.8937C42.5057 20.1206 42.993 19.3868 43.5714 18.7339C44.5067 18.2382 45.442 17.7375 46.4388 17.3817C47.8836 16.8663 49.4317 16.7239 50.9479 16.9522C52.5477 17.1951 54.0515 17.8553 55.4003 18.7339C56.7639 19.6199 57.9871 20.717 59.1095 21.8901C60.3303 23.1639 61.3862 24.5701 62.4224 25.9911C62.9638 26.7299 63.498 27.476 64.0419 28.2098C64.2782 28.5264 64.5145 28.8356 64.7827 29.1277C65.0264 29.3927 65.2775 29.6504 65.5236 29.9155C66.0011 30.4309 66.4835 30.9782 66.7665 31.6285C67.0791 32.355 67.025 33.1379 66.737 33.8644C66.6976 33.965 66.6533 34.0632 66.609 34.1613C66.3752 34.5442 66.0848 34.8927 65.7771 35.2314C64.7581 36.3505 63.6309 37.3715 62.3879 38.2378C61.145 39.1017 59.7913 39.8061 58.3662 40.319C57.6475 40.5767 56.9116 40.7755 56.1707 40.9669C55.4028 41.1657 54.6275 41.3449 53.8473 41.4971C52.24 41.8112 50.5984 42.0149 48.9567 41.9683C47.4307 41.9241 45.8432 41.6664 44.4796 40.9473C43.308 40.3288 42.3924 39.3471 41.7525 38.1961C41.1077 37.0328 40.7385 35.732 40.4997 34.4288C40.2905 33.2778 40.1625 32.1071 40.1231 30.9364C40.0862 29.8222 40.1231 28.7055 40.2388 27.5962C40.3594 26.4231 40.5612 25.2598 40.8664 24.121H40.8689Z" fill="#F8A8A0"/>
<path d="M64.2319 30.502C63.2843 29.4173 62.4721 28.2245 61.6205 27.0661C61.2217 26.5237 60.8132 25.9862 60.3701 25.4807C59.9148 24.9628 59.4127 24.5088 58.8638 24.0916C57.4978 23.051 55.8684 22.1822 54.1185 22.0987C53.2324 22.057 52.3734 22.2386 51.5612 22.5945C50.8056 22.9233 50.1509 23.4216 49.5528 23.9787C48.5141 24.9456 47.5911 26.0132 46.6436 27.0661C44.7927 29.1228 42.8606 31.1941 40.5002 32.6741C40.4239 32.7231 40.3451 32.7673 40.2664 32.8139C40.195 32.1906 40.1482 31.5623 40.1261 30.9364C40.0892 29.8222 40.1261 28.7055 40.2418 27.5962C40.3624 26.4231 40.5642 25.2598 40.8694 24.121C41.1672 23.0068 41.5684 21.9171 42.1025 20.8937C42.5061 20.1206 42.9935 19.3868 43.5719 18.7339C44.5072 18.2382 45.4424 17.7375 46.4393 17.3817C47.884 16.8663 49.4322 16.7239 50.9483 16.9522C52.5482 17.1951 54.052 17.8553 55.4008 18.7339C56.7643 19.6199 57.9876 20.717 59.11 21.8876C60.3307 23.1614 61.3866 24.5677 62.4228 25.9887C62.9643 26.7274 63.4984 27.4735 64.0424 28.2073C64.2787 28.5239 64.5149 28.8332 64.7832 29.1252C65.0269 29.3903 65.2779 29.648 65.5241 29.913C66.0015 30.4284 66.484 30.9757 66.767 31.6261C66.9196 31.9795 66.9836 32.3452 66.9762 32.7109C65.8908 32.2397 64.9973 31.3782 64.2294 30.4996L64.2319 30.502Z" fill="#A7BBC5"/>
<path d="M40.8694 24.121C41.1672 23.0068 41.5684 21.9171 42.1025 20.8937C42.5061 20.1206 42.9935 19.3868 43.5719 18.7339C44.0666 18.4713 44.5638 18.2087 45.0683 17.9658C45.6787 18.3364 46.299 18.6922 46.8971 19.0824C47.7782 19.6567 48.5757 20.312 49.2402 21.1293C50.5471 22.7393 51.4677 24.6364 52.1765 26.5728C52.9149 28.5926 53.4465 30.6837 53.6582 32.8262C53.8625 34.8804 53.7739 36.9518 53.4269 38.9864C53.2718 39.8944 53.065 40.7927 52.8189 41.6787C51.544 41.8824 50.2518 42.0026 48.9596 41.9658C47.4336 41.9216 45.8461 41.6639 44.4825 40.9449C43.311 40.3264 42.3954 39.3447 41.7554 38.1936C41.1106 37.0303 40.7414 35.7296 40.5026 34.4264C40.2934 33.2753 40.1655 32.1047 40.1261 30.934C40.0892 29.8198 40.1261 28.7031 40.2418 27.5938C40.3624 26.4206 40.5642 25.2573 40.8694 24.1186V24.121Z" fill="#ABADB0"/>
<path d="M51.1819 27.0195C49.5132 20.7071 44.566 18.6677 44.566 18.6677C42.9834 14.2868 36.5028 13.315 35.6586 13.207C34.8193 13.0794 28.3215 12.2228 25.5846 15.9925C25.5846 15.9925 20.2657 16.584 16.9061 22.1895C13.5489 27.795 8.17837 37.396 15.513 42.4248C20.9943 46.1822 27.8342 46.543 30.9452 46.4865C33.9185 47.3995 40.591 48.9432 46.9017 46.8449C55.3464 44.0397 52.8531 33.3293 51.1844 27.017L51.1819 27.0195Z" fill="#A7BBC5"/>
<path d="M24.5235 42.3339C24.5235 42.3339 25.0109 40.4221 22.5373 40.076C20.0637 39.73 18.5623 44.8692 19.9899 45.0312C21.4174 45.1907 24.5235 42.3364 24.5235 42.3364V42.3339Z" fill="white"/>
<path d="M39.0449 44.3783C39.0449 44.3783 39.1089 42.4051 41.5825 42.7561C44.0561 43.107 44.0684 48.4597 42.6532 48.2192C41.2355 47.9787 39.0449 44.3783 39.0449 44.3783Z" fill="white"/>
<path opacity="0.34" d="M41.8665 38.223C41.7557 38.2083 41.6499 38.1666 41.5514 38.0979C32.361 31.5549 22.1959 35.3099 22.095 35.3491C21.7258 35.489 21.3123 35.305 21.172 34.9368C21.0317 34.5687 21.2163 34.1564 21.583 34.0165C21.6938 33.9723 24.3618 32.9661 28.2629 32.8163C31.8663 32.6765 37.2417 33.2777 42.3809 36.937C42.7033 37.1653 42.7771 37.6119 42.5482 37.9334C42.3882 38.1592 42.12 38.2623 41.8665 38.2255V38.223Z" fill="#707F86"/>
<path d="M29.5553 30.2467C29.2673 32.2813 27.3819 33.6999 25.3415 33.4127C23.3036 33.1256 21.8859 31.2432 22.1739 29.2061C22.4618 27.1691 24.3472 25.753 26.3876 26.0402C28.4255 26.3273 29.8432 28.2097 29.5553 30.2467Z" fill="white"/>
<path d="M28.6229 30.1142C28.4063 31.6334 26.9984 32.6936 25.4773 32.4801C23.9563 32.2666 22.8955 30.8603 23.112 29.3387C23.3286 27.8195 24.7365 26.7593 26.2576 26.9728C27.7786 27.1863 28.8395 28.5926 28.6229 30.1142Z" fill="#62493E"/>
<path d="M28.15 30.043C27.9728 31.3045 26.8037 32.1807 25.5411 32.004C24.2784 31.8273 23.4022 30.6615 23.5794 29.4C23.7566 28.1386 24.9257 27.2624 26.1884 27.4391C27.451 27.6158 28.3272 28.7816 28.15 30.043Z" fill="#312017"/>
<path d="M25.5929 28.5459C25.5609 28.7766 25.3443 28.9386 25.1129 28.9067C24.8815 28.8748 24.7191 28.6588 24.7511 28.4281C24.7831 28.1974 24.9997 28.0355 25.231 28.0674C25.4624 28.0993 25.6248 28.3152 25.5929 28.5459Z" fill="white"/>
<path d="M24.5273 29.4393C24.5076 29.5866 24.3722 29.6872 24.2245 29.6676C24.0793 29.6479 23.976 29.513 23.9981 29.3657C24.0178 29.2184 24.1532 29.1178 24.3008 29.1375C24.4461 29.1571 24.5494 29.2921 24.5273 29.4393Z" fill="white"/>
<path d="M44.1678 32.3047C44.4573 30.2688 43.0401 28.3849 41.0024 28.0968C38.9648 27.8087 37.0783 29.2256 36.7888 31.2614C36.4993 33.2973 37.9165 35.1812 39.9541 35.4693C41.9918 35.7573 43.8783 34.3405 44.1678 32.3047Z" fill="white"/>
<path d="M43.2371 32.1733C43.0205 33.6925 41.6127 34.7527 40.0916 34.5392C38.5705 34.3257 37.5097 32.9194 37.7263 31.3978C37.9429 29.8786 39.3508 28.8183 40.8718 29.0319C42.3929 29.2454 43.4537 30.6517 43.2371 32.1733Z" fill="#62493E"/>
<path d="M42.7643 32.0997C42.5846 33.3612 41.418 34.2373 40.1553 34.0606C38.8927 33.8839 38.0165 32.7182 38.1937 31.4567C38.3709 30.1952 39.54 29.319 40.8026 29.4957C42.0653 29.6724 42.9415 30.8382 42.7643 32.0997Z" fill="#312017"/>
<path d="M40.2071 30.6051C40.1751 30.8358 39.9585 30.9978 39.7272 30.9659C39.4958 30.934 39.3334 30.718 39.3653 30.4873C39.3973 30.2566 39.6139 30.0946 39.8453 30.1265C40.0767 30.1584 40.2391 30.3744 40.2071 30.6051Z" fill="white"/>
<path d="M39.1416 31.496C39.1219 31.6432 38.9865 31.7438 38.8389 31.7242C38.6912 31.7046 38.5903 31.5696 38.6124 31.4223C38.6321 31.2751 38.7675 31.1745 38.9152 31.1941C39.0604 31.2137 39.1637 31.3487 39.1416 31.496Z" fill="white"/>
<path d="M24.1383 25.299C24.0793 25.2916 24.0251 25.2671 23.9783 25.2254C23.8528 25.1125 23.8405 24.921 23.9537 24.7934C23.9685 24.7762 25.4871 23.1123 27.5275 24.5627C27.6653 24.6609 27.6973 24.8523 27.5989 24.9898C27.5004 25.1272 27.3085 25.1591 27.1706 25.0609C25.5831 23.932 24.4558 25.1468 24.4091 25.1984C24.3377 25.2769 24.2343 25.3113 24.1383 25.2965V25.299Z" fill="#C57A63"/>
<path d="M24.1383 25.299C24.0793 25.2916 24.0251 25.2671 23.9783 25.2254C23.8528 25.1125 23.8405 24.921 23.9537 24.7934C23.9685 24.7762 25.4871 23.1123 27.5275 24.5627C27.6653 24.6609 27.6973 24.8523 27.5989 24.9898C27.5004 25.1272 27.3085 25.1591 27.1706 25.0609C25.5831 23.932 24.4558 25.1468 24.4091 25.1984C24.3377 25.2769 24.2343 25.3113 24.1383 25.2965V25.299Z" fill="#6F5444"/>
<path d="M43.371 28.0085C43.2726 27.9938 43.1839 27.9349 43.1372 27.8392C43.1052 27.7753 42.3594 26.2979 40.5233 26.9434C40.3633 26.9998 40.1886 26.9164 40.132 26.7568C40.0753 26.5973 40.159 26.4231 40.319 26.3666C42.6843 25.5346 43.6787 27.5545 43.691 27.5741C43.7648 27.7263 43.6984 27.9103 43.5458 27.9815C43.4891 28.0085 43.4276 28.0159 43.371 28.0085Z" fill="#6F5444"/>
<path d="M40.2665 40.9056C40.0277 39.3152 39.4198 37.7985 38.295 36.4683C36.0725 33.8373 32.4002 32.7354 29.0529 33.3956C26.0944 33.9797 23.5642 36.056 22.6585 38.9642C21.9545 41.2246 22.1416 43.6739 22.6585 45.9834C23.3279 48.9727 25.9615 52.7227 23.6134 55.5844C21.5657 58.0804 16.3723 59.629 13.6329 57.4472C12.1709 56.2814 11.8977 54.3965 12.3112 52.6565C12.4491 52.0773 12.7592 51.8343 13.1431 51.4195C13.3105 51.2404 13.441 50.9925 13.3794 50.7569C13.3474 50.6317 13.2637 50.5237 13.1702 50.4305C12.5475 49.812 11.5507 49.8365 10.7508 50.0108C10.1601 50.1409 9.52998 50.3961 9.10664 50.8477C8.61438 50.59 8.04582 50.4207 7.49449 50.5655C6.97516 50.7004 6.42138 51.125 6.42384 51.7042C6.42384 52.47 7.27544 53.1792 7.48465 53.9376C7.82185 55.1672 7.81692 56.4213 8.38056 57.5895C10.0075 60.9567 14.012 62.0022 17.4528 62.1716C22.0727 62.3998 26.8254 61.4721 30.8422 59.1234C35.3439 56.4925 38.2704 52.1534 39.6881 47.1786C40.2714 45.1293 40.5741 42.9548 40.264 40.9006L40.2665 40.9056Z" fill="#A7BBC5"/>
<path opacity="0.34" d="M24.7354 40.8835C25.1538 40.6479 25.5943 40.4614 26.0423 40.292C27.044 39.9116 28.0975 39.6392 29.1681 39.5533C30.0025 39.487 30.8541 39.4895 31.6909 39.5165C32.3407 39.5386 32.993 39.5877 33.6354 39.6981C32.7641 39.379 31.8435 39.1901 30.9181 39.1091C30.0123 39.0281 29.0894 39.0477 28.1935 39.2171C27.1991 39.406 26.2687 39.8208 25.4294 40.3804C25.1907 40.5399 24.9618 40.7092 24.7378 40.8835H24.7354Z" fill="#83949C"/>
<path opacity="0.34" d="M21.8412 57.079C21.8313 57.2312 21.8535 57.3858 21.8978 57.5355C22.0701 58.1221 22.4934 58.6326 22.9586 59.0277C23.1506 59.1161 23.3401 59.202 23.5296 59.2879C23.3081 58.7602 23.0103 58.262 22.6534 57.8178C22.4319 57.5404 22.1759 57.2729 21.8904 57.0545C21.8756 57.0643 21.8584 57.0717 21.8412 57.0815V57.079Z" fill="#83949C"/>
<path opacity="0.34" d="M24.1544 56.6717C25.1217 57.214 26.1235 57.7981 27.204 58.0902C26.9948 57.7442 26.7388 57.4276 26.4213 57.1723C26.0767 56.895 25.6706 56.7036 25.2497 56.5686C24.7599 56.414 24.1889 56.3256 23.6523 56.3894C23.8197 56.4827 23.9895 56.5759 24.1569 56.6692L24.1544 56.6717Z" fill="#83949C"/>
<path opacity="0.34" d="M26.3851 53.6309C27.5124 53.4222 28.6938 53.4836 29.8039 53.7511C30.37 53.8885 30.9287 54.0824 31.4554 54.3401C31.2265 53.9229 30.8228 53.621 30.402 53.41C30.114 53.2627 29.8112 53.1474 29.4987 53.0517C28.9744 52.951 28.428 52.9437 27.9234 53.0026C27.2367 53.0836 26.491 53.3093 25.915 53.7364C26.0701 53.6947 26.2252 53.6603 26.3827 53.6309H26.3851Z" fill="#83949C"/>
<path opacity="0.34" d="M26.7593 49.9004C26.486 50.0157 26.2325 50.1507 25.9766 50.298C26.4959 50.1973 27.0152 50.0967 27.537 50.0157C28.3099 49.8979 29.0876 49.8292 29.8703 49.8488C30.6161 49.8685 31.3643 49.9568 32.1027 50.0722C32.6959 50.1654 33.2989 50.2881 33.8847 50.4648C33.6631 50.3078 33.4318 50.1654 33.1881 50.0427C31.923 49.4022 30.4684 49.169 29.063 49.3138C28.2705 49.3948 27.4927 49.5911 26.7568 49.9004H26.7593Z" fill="#83949C"/>
<path opacity="0.34" d="M24.3467 46.2926C24.6076 46.1724 24.8586 46.0325 25.1121 45.9049C25.6142 45.6521 26.1459 45.4656 26.6824 45.2962C27.6325 44.9943 28.6121 44.7686 29.604 44.6581C30.4334 44.5673 31.2727 44.5207 32.1071 44.5133C32.9169 44.5059 33.766 44.5379 34.5856 44.6802C34.31 44.5403 34.0244 44.42 33.734 44.3194C33.5174 44.2433 33.2959 44.1771 33.0719 44.1182C32.8012 44.074 32.528 44.0396 32.2572 44.0126C31.0143 43.8973 29.7517 43.9439 28.5112 44.0765C28.3684 44.0912 28.2257 44.1059 28.0804 44.1231C26.6701 44.4667 25.2524 45.1391 24.3467 46.2926Z" fill="#83949C"/>
<path opacity="0.34" d="M40.2663 40.9056C40.0275 39.3152 39.4196 37.7985 38.2948 36.4683C36.0723 33.8373 32.4 32.7354 29.0527 33.3956C26.0942 33.9797 23.564 36.056 22.6583 38.9642C22.4146 39.7447 22.2817 40.5497 22.2275 41.3596C22.5721 40.2282 23.1062 39.1532 23.8372 38.2231C24.6937 37.1334 25.8284 36.2523 27.1452 35.7909C28.7007 35.2436 30.3719 35.0816 31.9816 35.4743C33.5421 35.8547 34.9425 36.7186 36.0181 37.9065C37.1011 39.1041 37.837 40.6086 38.285 42.1499C38.7231 43.6568 38.8904 45.2299 38.8437 46.7957C38.7994 48.2339 38.5729 49.6648 38.2037 51.0563C38.8092 49.8243 39.3064 48.5284 39.6903 47.1835C40.2737 45.1342 40.5764 42.9598 40.2663 40.9056Z" fill="#83949C"/>
</svg>
