<svg width="100" height="103" viewBox="0 0 100 103" fill="none" xmlns="http://www.w3.org/2000/svg">
<circle cx="50" cy="51" r="50" fill="#F9F5F2"/>
<path d="M46.7764 100.29C47.4258 100.766 48.2011 101.087 49.025 101.213C48.8796 101.077 48.8602 100.854 48.9377 100.679C49.0153 100.504 49.18 100.368 49.3642 100.281C49.8973 100.009 50.5369 100.028 51.1475 100.057C50.8083 99.9406 50.5466 99.6492 50.4885 99.319C50.4303 98.9888 50.566 98.6391 50.8374 98.4157C49.6937 98.4837 48.55 98.4546 47.4064 98.3478C47.0381 98.3089 46.6407 98.2798 46.3402 98.474C46.0301 98.6877 45.9429 99.1053 46.0592 99.4453C46.1755 99.7852 46.4565 100.057 46.7667 100.281L46.7764 100.29Z" fill="#ED6969"/>
<path d="M51.7288 99.3967C51.3411 99.4161 50.7984 99.4161 50.1878 99.3287C50.0327 99.3093 49.8776 99.2899 49.7225 99.2607C49.5675 99.2219 49.4124 99.1927 49.2573 99.1539L49.0247 99.1053C48.9472 99.0859 48.8696 99.0568 48.7921 99.0374C48.637 98.9888 48.2493 98.8917 47.9489 98.7557C48.9472 98.9888 50.4882 98.7557 50.8371 98.6877C51.06 98.6489 50.9631 97.7942 50.6627 97.8233C50.3428 97.8622 49.8679 97.9204 49.3542 97.9301C49.2282 97.9301 49.0925 97.9301 48.9569 97.9398C48.8212 97.9398 48.6855 97.9398 48.5498 97.9398C48.2784 97.9398 48.007 97.9107 47.7356 97.901C47.5321 97.8816 47.3383 97.8622 47.1541 97.8524L43.6068 77.5827C43.6068 77.5827 43.9751 74.4941 43.9654 74.3679C43.9169 73.1829 43.8879 71.493 43.8879 71.493L49.897 56.8953L48.6564 56.3805C48.6564 56.3805 42.8605 70.2109 42.4922 71.2405C42.1239 72.27 41.4842 72.5031 41.2322 73.9988C40.9802 75.5042 42.0948 76.6988 42.2693 77.6895C42.4437 78.6802 46.1171 96.0848 45.5258 98.5809C45.4386 98.9597 45.71 99.5133 46.0492 99.9989C46.3884 100.484 46.9021 100.922 47.4352 101.155C47.9683 101.397 48.4916 101.485 48.8599 101.504C49.1022 101.504 49.1507 100.659 48.8987 100.63C48.6176 100.591 48.2299 100.504 47.8326 100.31C47.4352 100.125 47.0669 99.8143 46.7761 99.4647C46.5338 99.183 46.3884 98.746 46.466 98.8237C46.6404 98.9791 46.873 99.1345 47.125 99.3093C47.251 99.3967 47.3964 99.455 47.5418 99.5424C47.6872 99.6104 47.8423 99.6978 47.9973 99.7658C48.1621 99.8241 48.3269 99.8823 48.4916 99.9503C48.5789 99.9795 48.6564 100.009 48.7436 100.038L49.0053 100.106C49.1798 100.145 49.3542 100.183 49.5287 100.232C49.7031 100.251 49.8776 100.281 50.0521 100.3C50.7305 100.378 51.3605 100.349 51.787 100.3C52.068 100.281 52.0486 99.4161 51.6997 99.4258L51.7288 99.3967Z" fill="#F7A392"/>
<path d="M46.6601 61.9651C47.0769 62.2079 47.61 62.1496 48.0364 61.9263C48.4629 61.7029 48.7924 61.3435 49.1026 60.9744C50.1784 59.7215 51.1282 58.3618 51.9424 56.9244C50.0621 56.5165 48.1818 56.1182 46.3015 55.72C45.8848 57.2255 45.7588 58.8183 45.9235 60.3723C45.9914 60.9842 46.1465 61.664 46.6698 61.9748L46.6601 61.9651Z" fill="#ED6969"/>
<path d="M64.9976 98.9402C64.7068 98.9014 64.387 98.9014 64.1544 99.0859C63.9218 99.2704 63.8442 99.6104 63.8927 99.9017C63.9411 100.193 64.1059 100.465 64.2804 100.708C64.8134 101.456 65.4822 102.106 66.2576 102.602C66.1994 102.476 66.2576 102.32 66.3545 102.233C66.4514 102.136 66.5871 102.087 66.7131 102.048C67.314 101.873 67.9634 101.883 68.5643 102.068C68.2251 101.776 68.0409 101.3 68.1185 100.854C68.1863 100.407 68.5061 100.009 68.9229 99.8338C67.5854 99.96 66.3351 99.115 64.9976 98.9402Z" fill="#F7827F"/>
<path d="M69.5722 101.582C69.107 101.543 68.4286 101.407 67.7307 101.096C67.0329 100.795 66.3157 100.329 65.7051 99.8337C65.4822 99.6492 65.2689 99.4647 65.0751 99.2801C65.2108 99.3578 65.3562 99.455 65.5112 99.5229C65.676 99.6006 65.8505 99.6686 66.0152 99.7463C66.1025 99.7852 66.1897 99.824 66.2769 99.8532L66.5483 99.9309C66.7325 99.9794 66.9069 100.038 67.0911 100.086C67.2752 100.115 67.4594 100.154 67.6338 100.183C68.3413 100.3 68.9907 100.29 69.4366 100.261C69.7273 100.242 69.737 99.387 69.3784 99.387C68.981 99.387 68.4092 99.387 67.7889 99.2607C67.6338 99.2316 67.4787 99.2024 67.314 99.1733C67.1589 99.1247 66.9941 99.0762 66.8391 99.0373L66.5968 98.9693C66.5192 98.9402 66.4417 98.9111 66.3642 98.8819C66.2091 98.8236 66.054 98.7654 65.9086 98.7071C65.7632 98.6488 65.6179 98.5711 65.4822 98.5031C65.3465 98.4351 65.2011 98.3866 65.0848 98.3089C64.9006 98.2021 64.7262 98.1049 64.5711 98.0175L53.9001 76.388C53.9001 76.388 53.6384 75.6013 53.619 75.4556C53.5512 74.9506 53.3379 74.1347 53.1053 73.3383C52.7564 72.1437 52.3784 70.9782 52.3784 70.9782L51.3413 56.0405L49.9941 56.1376L51.0409 71.3181C51.0409 71.3181 50.6144 72.8333 50.818 73.9696C51.0215 75.106 52.4656 76.5628 52.4656 76.5628L63.2724 98.4546C63.2724 98.4546 63.2724 98.4643 63.2724 98.474C63.2433 98.9305 63.3208 99.5618 63.5728 100.193C63.8248 100.824 64.2125 101.456 64.6777 101.941C65.1333 102.437 65.6372 102.777 66.0055 102.99C66.2478 103.126 66.7034 102.398 66.4417 102.223C66.1509 102.029 65.7439 101.718 65.3756 101.3C64.9976 100.892 64.668 100.358 64.416 99.8434C64.3967 99.8143 64.387 99.7755 64.3773 99.7463C64.6002 100.009 64.8425 100.281 65.1236 100.533C65.7729 101.125 66.5677 101.65 67.3721 101.98C68.1766 102.32 68.9713 102.446 69.5335 102.476C69.9018 102.495 69.9987 101.64 69.5819 101.601L69.5722 101.582Z" fill="#FFBAA9"/>
<path d="M66.6553 18.5604C64.4358 15.4913 63.0692 13.4614 61.8673 9.761C61.6541 9.11027 61.9933 8.11961 62.507 8.37213C63.8639 9.052 65.5213 9.45021 66.9751 8.14875C68.4677 6.81815 68.5549 3.90443 67.5954 2.46699C66.0737 0.194292 61.5669 -1.3694 58.6496 1.75799C56.6724 3.87529 56.5948 8.76063 57.4187 11.4801C58.6205 15.4622 61.5475 18.5993 63.5247 22.1929C66.5874 27.7484 70.755 37.3539 67.6148 42.1907C66.3936 39.0245 64.901 37.0723 62.1484 35.0618C59.3959 33.0513 56.0521 32.1578 52.7374 31.8761C44.3149 31.1574 35.2915 34.5859 30.3582 42.0159C28.8075 44.3566 27.5766 47.1246 25.076 48.3581C24.6302 48.5815 24.2522 48.9505 24.0971 49.4556C23.661 50.7668 24.8434 51.4078 25.8223 51.4175C26.5977 51.4175 28.1484 51.4466 28.1484 51.4466C28.1484 51.4466 26.6655 53.2531 28.0903 53.292C32.3354 53.3794 34.3029 52.0974 34.5937 51.9031C34.2351 52.1653 31.4341 54.2632 33.2077 54.1564C35.0977 54.0495 40.5156 55.5064 43.7237 56.4874C48.4631 57.9442 53.5903 58.7698 58.2716 57.109C59.4637 56.6913 61.877 55.0014 63.263 53.933C63.6216 53.661 64.0772 53.5736 64.5133 53.6708C71.4723 55.3122 74.0213 49.1545 74.6513 46.1534C76.4055 37.8007 71.4626 25.2037 66.665 18.5799L66.6553 18.5604Z" fill="#F7827F"/>
<path d="M67.5075 3.46735C66.9453 3.37994 66.4317 2.98173 66.2572 2.43784C66.0827 1.89394 66.2669 1.24321 66.7321 0.912989C67.178 0.602193 67.8273 0.621617 68.2538 0.971264C68.6318 1.28206 68.7965 1.79682 68.7965 2.29215C68.7965 2.60295 68.7384 2.93317 68.5349 3.16627C68.2925 3.44793 67.8758 3.53534 67.5075 3.47706V3.46735Z" fill="#F7827F"/>
<path d="M62.0317 4.39003C61.5664 4.32204 61.14 3.98211 60.9946 3.53534C60.8492 3.08857 60.9946 2.54467 61.392 2.27273C61.7603 2.01049 62.303 2.02992 62.6519 2.32129C62.9621 2.58352 63.0978 3.01087 63.1075 3.40908C63.1075 3.6616 63.059 3.93355 62.8846 4.1278C62.681 4.36089 62.3418 4.42888 62.0317 4.38032V4.39003Z" fill="white"/>
<path d="M62.3518 3.06917C62.4778 3.2537 62.5554 3.50622 62.4391 3.70047C62.3809 3.7976 62.2646 3.86558 62.158 3.90443C61.9254 3.97242 61.654 3.90443 61.4892 3.72961C61.3245 3.55479 61.2857 3.26341 61.402 3.04974C61.5183 2.83607 61.7994 2.72923 62.032 2.80693C62.1677 2.85549 62.2743 2.95262 62.3518 3.06917Z" fill="black"/>
<path d="M67.5072 3.23427C67.042 3.16628 66.6156 2.82635 66.4702 2.37958C66.3248 1.93281 66.4702 1.38891 66.8676 1.11697C67.2359 0.854731 67.7786 0.874155 68.1275 1.16553C68.4377 1.42776 68.5734 1.85511 68.5831 2.25332C68.5831 2.50584 68.5346 2.77779 68.3601 2.97203C68.1566 3.20513 67.8174 3.27312 67.5072 3.22456V3.23427Z" fill="white"/>
<path d="M67.7982 1.87451C67.9048 2.02019 67.963 2.23386 67.866 2.38926C67.8176 2.47667 67.7303 2.52524 67.6334 2.55437C67.4396 2.61265 67.2167 2.55437 67.081 2.40869C66.9453 2.263 66.9162 2.02019 67.0131 1.85508C67.11 1.68026 67.3427 1.59285 67.5268 1.66083C67.6334 1.69968 67.7207 1.78709 67.7885 1.87451H67.7982Z" fill="black"/>
<path d="M50.0811 48.2124C53.0081 48.9214 56.1484 48.7368 58.9785 47.6879C60.8006 47.0177 62.6227 45.8328 63.2042 43.9778C63.9602 41.5497 62.2835 39.005 60.2578 37.4705C56.4488 34.5762 51.2151 33.8574 46.5919 35.1298C41.9688 36.4021 37.3844 39.141 35.1649 43.3853C32.519 48.4552 35.1649 50.1354 36.0275 49.2225C39.5942 45.4346 42.4146 46.1048 44.3627 46.503C46.3109 46.9012 48.1427 47.7462 50.0811 48.2124Z" fill="#ED6969"/>
<path d="M57.5248 40.7047C56.9723 40.7047 56.4102 41.0058 56.0322 41.4914C55.3828 42.3073 55.441 43.2396 55.8771 44.0361C54.1907 44.0943 53.0083 47.2217 55.5282 47.5519C55.7027 47.5714 56.0419 47.0955 55.9062 47.076C55.1793 46.9789 54.7238 46.6001 54.5008 45.9106C54.0259 44.444 55.8577 44.3274 56.6428 44.9976C56.6719 45.0267 56.701 45.0461 56.73 45.0753C56.8463 45.1821 57.2728 44.7354 57.1662 44.6285C57.0983 44.5605 57.0305 44.4925 56.953 44.4343C56.4296 43.9292 56.0613 43.3465 55.9934 42.5889C55.8674 41.2777 57.2631 40.899 58.0579 41.5497C58.1257 41.6177 58.1935 41.6954 58.2711 41.7634C58.3874 41.8702 58.8041 41.4428 58.7072 41.3166C58.6103 41.2 58.5134 41.0932 58.4068 41.0155C58.1645 40.7436 57.9997 40.4619 57.8834 40.054C57.6217 39.1216 58.8623 38.7137 59.2597 39.5975C59.3275 39.7529 59.7831 39.345 59.7152 39.1993C59.3566 38.4029 58.4165 38.4126 57.8834 39.0342C57.4182 39.5878 57.3406 40.1705 57.5345 40.7144L57.5248 40.7047Z" fill="#FFBAA9"/>
<path d="M52.7271 40.1414C52.1068 40.0539 51.4962 40.1802 51.0116 40.7532C50.4495 41.4428 50.5464 42.0935 50.9341 42.6472C50.5658 42.6472 50.1975 42.7928 49.8873 43.1522C48.8018 44.376 50.1975 45.2307 51.3702 45.4832C51.5156 45.5123 51.8645 45.0364 51.7579 45.017C50.9147 44.8422 50.1103 44.6091 49.9164 43.667C49.7129 42.6666 51.283 43.2202 51.4575 43.2882C51.5253 43.3173 51.6029 43.3562 51.6707 43.395C51.8742 43.5601 52.0971 43.7058 52.3104 43.8321C52.4364 43.9098 52.8241 43.4436 52.7465 43.3853C52.5721 43.259 52.3782 43.1328 52.1747 43.0259C51.6707 42.6763 51.2539 42.2587 51.0795 41.5982C50.9147 40.9669 51.6804 40.559 52.2425 40.559C52.7853 40.559 53.3281 40.8795 53.803 41.1223C53.9387 41.1903 54.3263 40.7338 54.2391 40.6755C53.4831 40.1414 52.8047 39.6169 52.6496 38.6456C52.4461 37.3442 53.803 37.4122 54.4426 37.4802C54.9563 37.5384 55.4409 37.8201 55.8674 38.092C56.0031 38.1795 56.3811 37.6938 56.3035 37.6453C55.1114 36.9071 53.7739 36.6837 52.7271 37.7715C51.9324 38.5971 52.165 39.4421 52.7271 40.1511V40.1414Z" fill="#FFBAA9"/>
<path d="M44.0819 44.745C44.2564 44.6965 44.5762 44.1914 44.2467 44.2885C42.6572 44.7547 41.3294 42.3461 43.1418 41.8313C43.1515 41.8313 43.1612 41.8313 43.1806 41.8313C43.2193 41.8313 43.2581 41.8119 43.2969 41.8022C43.2969 41.8022 43.3356 41.7925 43.355 41.7827C43.4907 41.7439 43.8202 41.2583 43.5682 41.3068C43.4616 41.3263 43.3647 41.3554 43.2581 41.3942C42.7929 41.5108 42.3664 41.5399 41.9593 41.1709C41.0871 40.3744 42.6959 39.3741 43.4422 39.1215C43.607 39.0633 43.9268 38.5485 43.607 38.6651C42.7444 38.9564 41.4554 39.4906 41.31 40.559C41.1743 41.5399 41.717 41.8993 42.4149 41.9187C42.1241 42.2101 41.9303 42.5792 41.8237 43.0356C41.5135 44.3857 43.0158 45.0752 44.0916 44.7645L44.0819 44.745Z" fill="#FFBAA9"/>
<path d="M45.5258 43.4824C45.1284 44.7742 46.9796 44.8325 47.7162 44.6382C47.9197 44.5896 48.2008 44.0749 47.8616 44.1623C47.503 44.2886 47.1347 44.308 46.7567 44.24C45.5161 44.0457 46.6791 42.6083 47.4739 42.4821C47.6096 42.4626 48.0263 42.0061 47.784 41.9867C47.1831 41.9382 46.6888 41.8605 46.2139 41.4622C45.6518 40.7144 45.9522 40.1996 47.1153 39.8986C47.2316 39.8791 47.3479 39.8791 47.4642 39.8791C47.7259 39.9083 47.9779 39.918 48.1717 39.918C48.3656 39.918 48.7242 39.4324 48.4237 39.4129C48.2589 39.4129 48.0845 39.3935 47.9197 39.4032C47.784 39.3935 47.658 39.3644 47.5223 39.3352C46.3496 39.1021 47.1637 37.7424 47.8131 37.3539C48.5109 36.9363 49.3735 36.8391 50.1683 36.9071C50.3815 36.9266 50.7304 36.4312 50.5269 36.4118C49.1022 36.2855 47.7259 36.7323 46.7373 37.791C46.369 38.1795 46.2721 38.6748 46.3884 39.1798C46.4271 39.3547 46.524 39.4906 46.65 39.5878C46.2236 39.7432 45.8553 40.0248 45.6227 40.5007C45.1284 41.472 45.7874 42.045 46.5919 42.3072C46.1073 42.5306 45.7293 42.89 45.5451 43.4921L45.5258 43.4824Z" fill="#FFBAA9"/>
<path d="M49.897 55.283C48.763 55.2635 47.6193 55.2344 46.4854 55.215C46.7373 56.7107 47.3189 58.1481 48.1815 59.401C48.7339 60.2946 49.2961 61.1784 49.8485 62.0622C50.1005 62.4507 51.7869 62.7129 52.194 61.528C52.7949 59.7021 53.202 57.8179 53.3958 55.9045C52.2037 55.8948 51.0213 55.6812 49.897 55.283Z" fill="#F7827F"/>
<path d="M72.5182 49.6498C72.5764 49.5527 72.3534 49.4652 72.3147 49.5235C72.1887 49.7178 71.9367 50.0674 71.675 50.3296C71.549 50.4656 71.423 50.5822 71.3358 50.6793C71.2485 50.7764 71.2001 50.8444 71.2292 50.8735C71.2582 50.9027 71.3358 50.8735 71.4521 50.8153C71.5684 50.757 71.7138 50.6502 71.8591 50.5142C72.1596 50.2519 72.4116 49.8732 72.5376 49.6595L72.5182 49.6498Z" fill="#E04444"/>
<path d="M72.6929 47.6781C72.7704 47.5713 72.5475 47.4742 72.499 47.5325C72.3343 47.7558 72.0047 48.1443 71.6558 48.426C71.5686 48.494 71.491 48.5717 71.4135 48.63C71.336 48.6882 71.2584 48.7368 71.2003 48.7854C71.084 48.8825 71.0161 48.9602 71.0355 48.9893C71.0549 49.0282 71.1518 48.9893 71.2972 48.931C71.365 48.9019 71.4523 48.8533 71.5395 48.8048C71.6267 48.7562 71.714 48.6785 71.8109 48.6105C72.1986 48.3386 72.5281 47.9015 72.6929 47.6684V47.6781Z" fill="#E04444"/>
<path d="M63.9892 51.3591C64.0571 51.2717 63.8439 51.1552 63.8051 51.2037C63.6597 51.3786 63.3496 51.6797 63.0297 51.8642C62.9522 51.9128 62.8746 51.9613 62.8068 52.0002C62.7293 52.039 62.6614 52.0682 62.613 52.0973C62.5063 52.1653 62.4385 52.2138 62.4482 52.2527C62.4579 52.2915 62.5451 52.2915 62.6808 52.2527C62.7486 52.2333 62.8262 52.2138 62.9134 52.1847C63.0006 52.1556 63.0782 52.107 63.1654 52.0584C63.5337 51.8739 63.8535 51.5243 64.0086 51.33L63.9892 51.3591Z" fill="#E04444"/>
<path d="M70.8899 50.1936C70.9384 50.1451 70.7542 49.98 70.7251 50.0188C70.5022 50.2325 69.8625 50.7764 69.9789 50.8929C70.0855 51.0095 70.6864 50.417 70.8996 50.1936H70.8899Z" fill="#E04444"/>
<path d="M69.1455 50.1645C69.2134 50.0965 69.0292 49.9411 68.9808 49.9897C68.69 50.2617 67.8468 50.9901 67.9631 51.1066C68.0697 51.2232 68.8741 50.4559 69.1455 50.1645Z" fill="#E04444"/>
<path d="M66.9067 51.4563C66.9648 51.3786 66.7613 51.2523 66.7225 51.3009C66.5965 51.4563 66.3348 51.7282 66.0731 51.9322C65.8211 52.1458 65.5885 52.3012 65.6273 52.3789C65.6467 52.4178 65.7242 52.3984 65.8308 52.3595C65.9471 52.3207 66.0828 52.243 66.2185 52.1361C66.5093 51.9419 66.771 51.6311 66.897 51.4563H66.9067Z" fill="#E04444"/>
<path d="M62.4582 50.8832C62.5455 50.8055 62.371 50.6404 62.3128 50.689C61.9155 50.99 60.8203 51.7865 60.9172 51.9127C61.0141 52.039 62.0899 51.2037 62.4679 50.8832H62.4582Z" fill="#E04444"/>
<path d="M59.8897 50.1548C59.9575 50.0965 59.7928 49.9217 59.7443 49.9605C59.4148 50.2033 58.4843 50.8346 58.5813 50.9706C58.6782 51.0969 59.5699 50.4267 59.8897 50.1645V50.1548Z" fill="#E04444"/>
<path d="M61.1495 53.389C61.2174 53.2919 61.0041 53.1851 60.9557 53.2434C60.8006 53.4279 60.5001 53.7678 60.1803 53.9912C60.1125 54.0495 60.0349 54.0981 59.9574 54.166C59.8895 54.2146 59.8217 54.2534 59.7635 54.302C59.6569 54.3797 59.5988 54.4477 59.6085 54.4865C59.6279 54.5254 59.7151 54.506 59.8411 54.4574C59.9089 54.438 59.9865 54.3991 60.064 54.3603C60.1415 54.3214 60.2288 54.2632 60.316 54.2049C60.6746 53.9815 60.9847 53.6124 61.1398 53.4085L61.1495 53.389Z" fill="#E04444"/>
<path d="M69.4268 52.1555C69.5237 52.0875 69.3493 51.9224 69.2814 51.9613C69.0876 52.0973 68.6999 52.3401 68.3316 52.4663C68.2444 52.4955 68.1668 52.5343 68.0699 52.5732C67.9827 52.6023 67.9148 52.6217 67.847 52.6509C67.721 52.6994 67.6435 52.748 67.6532 52.7868C67.6532 52.8257 67.7501 52.8354 67.8858 52.8257C67.9536 52.8257 68.0408 52.8063 68.1281 52.7966C68.2153 52.7771 68.3122 52.748 68.4091 52.7091C68.8065 52.5926 69.2136 52.3206 69.4171 52.1652L69.4268 52.1555Z" fill="#E04444"/>
<path d="M59.2598 52.6509C59.3373 52.5635 59.1338 52.4373 59.0757 52.4858C58.9109 52.6606 58.5814 52.9617 58.2421 53.1365C58.1549 53.1851 58.0774 53.2337 57.9998 53.2725C57.9223 53.3017 57.8544 53.3405 57.7963 53.3696C57.68 53.4279 57.6025 53.4862 57.6121 53.525C57.6121 53.5639 57.7091 53.5639 57.8448 53.5445C57.9126 53.5348 57.9901 53.5153 58.0871 53.4862C58.1743 53.4571 58.2615 53.4085 58.3584 53.3696C58.7461 53.2045 59.095 52.8549 59.2598 52.6606V52.6509Z" fill="#E04444"/>
<path d="M57.8925 50.1937C57.9991 50.0965 57.8053 49.9509 57.7374 50.0091C57.5048 50.2034 57.059 50.553 56.6229 50.7958C56.4193 50.9318 56.2158 51.0289 56.0704 51.1163C55.925 51.2038 55.8378 51.2717 55.8572 51.3106C55.8766 51.3494 55.9832 51.33 56.1479 51.2815C56.3127 51.2329 56.5356 51.1455 56.7585 51.0192C57.2141 50.7861 57.6793 50.4073 57.9022 50.1937H57.8925Z" fill="#E04444"/>
<path d="M55.4023 49.9314C55.4508 49.8926 55.3248 49.6983 55.286 49.7177C55.0437 49.8537 54.375 50.1742 54.4525 50.3102C54.53 50.4559 55.1794 50.0771 55.4023 49.9314Z" fill="#E04444"/>
<path d="M56.6621 52.4178C56.7396 52.3401 56.5458 52.2041 56.4973 52.243C56.3422 52.3887 56.0224 52.6315 55.7025 52.7577C55.625 52.7966 55.5475 52.8354 55.4796 52.8646C55.4118 52.884 55.3439 52.9131 55.2858 52.9326C55.1792 52.9811 55.1113 53.0297 55.1113 53.0685C55.1113 53.1074 55.1986 53.1171 55.3246 53.1074C55.3924 53.1074 55.4602 53.088 55.5475 53.0782C55.625 53.0588 55.7122 53.02 55.7995 52.9908C56.1581 52.8743 56.4973 52.5829 56.6621 52.4178Z" fill="#E04444"/>
<path d="M58.2906 55.0207C58.3779 54.9722 58.2519 54.7682 58.1937 54.7973C57.777 54.9916 56.6333 55.4772 56.7011 55.6229C56.769 55.7686 57.8933 55.2344 58.3003 55.0207H58.2906Z" fill="#E04444"/>
<path d="M55.7312 54.6419C55.8184 54.6128 55.7312 54.3894 55.673 54.4088C55.2853 54.4963 54.2289 54.7002 54.2676 54.8653C54.3064 55.0207 55.3532 54.7585 55.7312 54.6517V54.6419Z" fill="#E04444"/>
<path d="M54.7041 52.0876C54.7913 52.0293 54.6168 51.8545 54.5684 51.8933C54.4036 52.0099 54.0644 52.1944 53.7445 52.2818C53.667 52.3013 53.5895 52.3304 53.5216 52.3595C53.4538 52.379 53.3859 52.3887 53.3278 52.4081C53.2212 52.4469 53.1533 52.4761 53.1533 52.5149C53.1533 52.5538 53.2309 52.5732 53.3472 52.5829C53.4053 52.5829 53.4829 52.5829 53.5604 52.5829C53.6379 52.5829 53.7252 52.5538 53.8124 52.5344C54.171 52.4567 54.5296 52.2333 54.7041 52.0973V52.0876Z" fill="#E04444"/>
<path d="M53.7352 50.0674C53.8225 50.0091 53.6674 49.8343 53.6092 49.8634C53.4348 49.9703 53.0859 50.1451 52.766 50.2325C52.611 50.2908 52.4559 50.3199 52.3493 50.349C52.2426 50.3879 52.1748 50.4267 52.1748 50.4656C52.1748 50.5044 52.2523 50.5239 52.3783 50.5336C52.5043 50.5336 52.6691 50.5336 52.8436 50.485C53.2022 50.417 53.5705 50.2034 53.7546 50.0868L53.7352 50.0674Z" fill="#E04444"/>
<path d="M52.5718 51.7088C52.659 51.6602 52.5233 51.4563 52.4651 51.4951C52.0581 51.6991 50.9047 52.2333 50.9822 52.379C51.0501 52.5246 52.1744 51.9419 52.5718 51.7088Z" fill="#E04444"/>
<path d="M50.789 51.5242C50.8859 51.5048 50.8278 51.2717 50.7599 51.2814C50.3432 51.33 49.2189 51.4077 49.2286 51.5728C49.248 51.7379 50.3722 51.5922 50.7793 51.5242H50.789Z" fill="#E04444"/>
<path d="M53.0467 54.0883C53.1339 54.0689 53.0564 53.8358 52.9983 53.8552C52.6009 53.9426 51.5057 54.1272 51.5347 54.2923C51.5638 54.4477 52.6493 54.2049 53.0467 54.098V54.0883Z" fill="#E04444"/>
<path d="M55.4695 56.2056C55.5761 56.1862 55.5083 55.9531 55.4307 55.9628C54.9364 56.0405 53.5892 56.2251 53.6086 56.3805C53.6377 56.5456 54.9752 56.3028 55.4695 56.2056Z" fill="#E04444"/>
<path d="M56.856 56.633C56.9335 56.6136 56.856 56.3805 56.7978 56.3999C56.4392 56.4873 55.4506 56.6816 55.4894 56.837C55.5282 56.9923 56.4974 56.7495 56.8463 56.6427L56.856 56.633Z" fill="#E04444"/>
<path d="M52.1652 55.584C52.2718 55.5646 52.1943 55.3412 52.1265 55.3412C51.9132 55.3704 51.4965 55.3898 51.1476 55.3121C51.0603 55.2927 50.9731 55.2829 50.8956 55.2732C50.818 55.2538 50.7502 55.2344 50.692 55.2247C50.5757 55.2052 50.4885 55.2052 50.4691 55.2441C50.4497 55.2829 50.5176 55.3315 50.6339 55.3995C50.692 55.4286 50.7599 55.4675 50.8374 55.4966C50.9149 55.5258 51.0119 55.5452 51.0991 55.5646C51.4771 55.6714 51.9326 55.6326 52.1652 55.584Z" fill="#E04444"/>
<path d="M50.401 53.6416C50.4689 53.6416 50.4689 53.3988 50.4204 53.3988C50.1297 53.3793 49.3349 53.2725 49.3155 53.4376C49.3058 53.6027 50.1006 53.6416 50.401 53.6416Z" fill="#E04444"/>
<path d="M48.6174 52.3207C48.6853 52.2916 48.569 52.0779 48.5302 52.0973C48.4042 52.1362 48.1522 52.1944 47.9293 52.1653C47.8711 52.1653 47.8227 52.1653 47.7742 52.1556C47.7258 52.1459 47.687 52.1362 47.6385 52.1362C47.561 52.1362 47.5028 52.1362 47.4835 52.175C47.4641 52.2139 47.5028 52.2527 47.5804 52.3013C47.6191 52.3207 47.6676 52.3498 47.7161 52.379C47.7742 52.3984 47.8324 52.4081 47.9002 52.4275C48.1619 52.4858 48.4721 52.4081 48.6174 52.3401V52.3207Z" fill="#E04444"/>
<path d="M48.9371 54.2826C49.0243 54.2632 48.9274 54.0398 48.8692 54.0495C48.7045 54.0884 48.3846 54.1466 48.1035 54.1272C47.9679 54.1272 47.8322 54.1175 47.7352 54.1078C47.6383 54.1078 47.5705 54.1175 47.5608 54.1563C47.5511 54.1952 47.5996 54.234 47.6965 54.2826C47.7934 54.3312 47.9291 54.37 48.0842 54.3797C48.3943 54.4283 48.7529 54.3506 48.9371 54.2923V54.2826Z" fill="#E04444"/>
<path d="M52.8826 57.2157C52.9601 57.1769 52.8148 56.9826 52.7663 57.002C52.6015 57.0797 52.2914 57.1963 51.9909 57.1963C51.9231 57.1963 51.8455 57.2157 51.7874 57.2157C51.7195 57.2157 51.6614 57.2157 51.6129 57.2157C51.516 57.2157 51.4385 57.2351 51.4288 57.274C51.4191 57.3128 51.4772 57.3517 51.5839 57.3905C51.6323 57.41 51.7002 57.4294 51.768 57.4488C51.8358 57.4585 51.9231 57.4585 52.0006 57.4585C52.3398 57.4779 52.6985 57.3225 52.8729 57.2254L52.8826 57.2157Z" fill="#E04444"/>
<path d="M49.529 56.5261C49.6259 56.5261 49.5871 56.2833 49.529 56.2833C49.3254 56.2833 48.9378 56.2639 48.6082 56.1668C48.4435 56.1376 48.2981 56.0891 48.1818 56.0599C48.0655 56.0308 47.9879 56.0308 47.9685 56.0599C47.9492 56.0988 48.0073 56.1474 48.1139 56.2153C48.2205 56.2833 48.3659 56.3513 48.5404 56.3999C48.8796 56.5164 49.3061 56.5261 49.529 56.5164V56.5261Z" fill="#E04444"/>
<path d="M46.6213 53.2239C46.757 53.2628 46.7667 53.02 46.6891 52.9908C46.4178 52.9131 45.9138 52.7286 45.5164 52.4955C45.4195 52.4469 45.3322 52.3984 45.2256 52.3401C45.1384 52.2818 45.0609 52.2333 44.993 52.2041C44.8573 52.1264 44.7604 52.0973 44.7313 52.1264C44.7022 52.1556 44.7701 52.243 44.8864 52.3498C44.9446 52.4081 45.0221 52.4664 45.0996 52.5344C45.1869 52.6023 45.2838 52.6509 45.3904 52.7189C45.7975 52.9811 46.3402 53.156 46.6213 53.2239Z" fill="#E04444"/>
<path d="M46.505 54.943C46.6019 54.9819 46.6697 54.7488 46.6019 54.7197C46.1851 54.5351 45.0512 54.0009 44.9833 54.1466C44.9155 54.2923 46.0785 54.7876 46.505 54.943Z" fill="#E04444"/>
<path d="M44.2759 53.0102C44.3728 53.0297 44.3825 52.7868 44.3244 52.7674C44.1208 52.7286 43.7428 52.6217 43.4424 52.4663C43.2873 52.3983 43.1516 52.3206 43.045 52.2721C42.9384 52.2235 42.8608 52.2041 42.8415 52.2332C42.8124 52.2624 42.8608 52.3304 42.9481 52.4178C43.0353 52.5052 43.171 52.612 43.3261 52.6897C43.6362 52.8743 44.053 52.9714 44.2759 53.0102Z" fill="#E04444"/>
<path d="M42.5116 54.302C42.5794 54.3409 42.6957 54.1272 42.6472 54.0981C42.3565 53.9038 41.5811 53.3308 41.4939 53.4667C41.4066 53.6027 42.2111 54.1272 42.5116 54.302Z" fill="#E04444"/>
<path d="M44.5759 54.8556C44.634 54.8945 44.7697 54.7002 44.7406 54.6711C44.5177 54.4768 43.9362 53.9038 43.8296 54.0301C43.723 54.1563 44.3433 54.6808 44.5856 54.8556H44.5759Z" fill="#E04444"/>
<path d="M46.0689 56.3999C46.1465 56.429 46.2143 56.1959 46.1658 56.1765C45.8363 56.0405 44.9543 55.6326 44.8865 55.7783C44.8283 55.924 45.7297 56.2833 46.0689 56.3999Z" fill="#E04444"/>
<path d="M64.2227 8.44623L72.9456 13.3024V11.3599L67.6149 6.01813C66.0642 6.01813 64.5457 7.63686 64.2227 8.44623Z" fill="#FFBAA9" stroke="#FFBAA9"/>
<path d="M72.9448 14.7593C73.0439 13.6919 72.2147 12.3342 71.491 10.8743C71.1397 10.147 70.503 9.45237 69.9038 8.86031C69.3046 8.26824 68.6058 7.80802 67.9071 7.43735C66.5003 6.69814 65.0555 6.45516 64.061 6.4495C64.0421 6.45374 64.0232 6.45799 63.9927 6.45488C63.8677 6.56255 63.7901 6.6596 63.786 6.73019C63.7966 6.77758 63.8072 6.82496 63.8199 6.88183C63.8904 6.88592 63.9629 6.89949 64.0523 6.89934C64.9879 6.90827 66.3571 7.16822 67.685 7.86544C68.3489 8.21405 69.0057 8.6638 69.5638 9.20537C70.124 9.75642 70.5852 10.2412 71.0064 10.8743C71.9756 12.3312 72.9725 13.7279 72.9448 14.7593C72.9276 15.7485 73.3725 15.1681 73.4294 15.2449C73.5061 15.1879 72.8541 15.775 72.9448 14.7593Z" fill="#F7827F"/>
<path d="M70.7983 12.6527C71.6567 13.5019 72.2171 14.5193 72.6122 15.3122C73.039 16.1208 73.3088 16.7428 73.8136 16.7446C74.0593 16.7438 74.2751 16.5755 74.4612 16.2398C74.6289 15.9137 74.7625 15.4119 74.7652 14.8177C74.7921 13.7364 74.3691 12.4359 73.4297 11.1447C72.6512 10.8243 71.3268 11.8336 70.78 12.6624L70.7983 12.6527Z" fill="black"/>
</svg>
