<svg width="107" height="126" viewBox="0 0 107 126" fill="none" xmlns="http://www.w3.org/2000/svg">
<g clip-path="url(#clip0_161_3193)">
<g clip-path="url(#clip1_161_3193)">
<g style="mix-blend-mode:multiply">
<path d="M53.3593 126.193C82.8237 126.193 106.709 122.593 106.709 118.153C106.709 113.712 82.8237 110.113 53.3593 110.113C23.8949 110.113 0.00927734 113.712 0.00927734 118.153C0.00927734 122.593 23.8949 126.193 53.3593 126.193Z" fill="#DAF6D7"/>
</g>
<path d="M7.70924 71.7429C9.74924 71.0029 12.9092 76.5729 19.0392 77.3129C25.1692 78.0529 29.8192 65.6129 29.8192 65.6129C32.0492 62.4529 28.7092 56.1429 26.6592 55.5829C24.6192 55.0229 23.4992 55.9529 21.4592 58.5529C19.4192 61.1529 18.6692 65.9829 16.0692 66.5429C13.4692 67.1029 7.14925 63.3829 4.17924 65.0529C1.20924 66.7229 0.839245 72.8529 2.13925 73.7829C3.43925 74.7129 5.66924 72.4829 7.70924 71.7429Z" fill="#DB6536"/>
<path d="M48.9094 56.6429C51.7294 65.1029 64.8894 80.6129 63.9494 89.0629C63.0094 97.5129 72.4094 107.393 72.4094 107.393C72.4094 107.393 75.2294 114.913 89.7994 110.683C104.369 106.453 109.539 85.7729 99.1994 72.1529C88.8594 58.5229 83.2194 62.2829 77.5794 52.4129C71.9394 42.5429 87.4494 36.4329 94.0294 41.1329V36.9029C94.0294 36.9029 103.899 38.7829 105.309 41.6029C105.309 41.6029 100.609 29.8529 94.9694 26.0929L89.3294 22.3329L93.5594 19.9829C93.5594 19.9829 75.6994 12.4629 61.6094 21.3929C47.5094 30.3229 50.7994 47.2429 50.7994 47.2429L47.5094 41.6029C47.5094 41.6029 46.8594 50.4429 48.9194 56.6429H48.9094Z" fill="#DB6536"/>
<g style="mix-blend-mode:multiply" opacity="0.5">
<path d="M72.3994 107.393C72.3994 107.393 75.2194 114.913 89.7894 110.683C102.309 107.053 107.879 91.2729 102.639 78.2529C102.449 80.3529 102.209 82.6628 101.909 84.9128C100.959 91.8928 93.3394 95.7029 93.3394 95.7029C93.3394 95.7029 94.9294 91.2629 94.9294 88.4029C94.9294 85.5429 92.7094 78.2529 92.7094 78.2529C92.7094 78.2529 91.7594 82.3828 90.4894 85.2328C89.2194 88.0928 84.7794 89.6729 84.7794 89.6729C84.7794 89.6729 84.7794 87.7729 83.5094 80.1529C82.2394 72.5329 71.4494 66.5128 71.4494 66.5128L72.0794 72.2229C72.7094 77.9329 68.2694 83.3329 68.2694 83.3329C68.2694 83.3329 66.2994 85.0829 63.9694 87.6029C63.9994 88.1129 63.9994 88.6129 63.9494 89.0829C63.0094 97.5429 72.4094 107.413 72.4094 107.413L72.3994 107.393Z" fill="#DB6536"/>
</g>
<path d="M48.9092 56.6429C48.9992 56.9029 49.0892 57.1628 49.1992 57.4328C51.3692 59.5528 54.1192 61.8329 57.1392 63.3329C57.1392 63.3329 54.3192 51.7029 56.0792 45.3629L59.9592 50.6529C59.9592 50.6529 59.2592 35.8529 66.6592 29.8629C74.0592 23.8729 82.5192 26.3429 82.5192 26.3429C82.5192 26.3429 75.4692 22.4629 67.7192 22.8229C67.7192 22.8229 81.5892 18.1229 93.3392 20.1329L93.5692 20.0029C93.5692 20.0029 75.7092 12.4829 61.6192 21.4129C47.5292 30.3429 50.8092 47.2629 50.8092 47.2629L47.5192 41.6229C47.5192 41.6229 46.8692 50.4629 48.9292 56.6629L48.9092 56.6429Z" fill="#EC7136"/>
<path d="M12.9192 117.133C12.2092 121.363 54.8592 120.363 62.9692 118.603C71.0792 116.843 83.0892 106.203 78.1492 90.3329C73.2092 74.4629 58.7592 71.6429 48.8792 65.2929C39.0092 58.9429 38.6492 43.7829 38.6492 43.7829C21.0192 39.9029 16.0792 49.0729 16.7892 62.1229C17.4992 75.1729 20.3192 86.4529 20.3192 86.4529C20.3192 86.4529 17.8492 87.8629 16.7892 96.3229C15.7292 104.783 23.4892 112.543 23.4892 112.543C23.4892 112.543 13.6192 112.893 12.9092 117.123L12.9192 117.133Z" fill="#EC7136"/>
<path d="M12.9193 117.133C12.5893 119.113 21.7093 119.943 32.3493 120.093C30.1593 115.323 25.5793 102.573 25.0993 100.203C24.5493 97.4729 23.7293 92.2729 23.0493 89.8129C22.6993 88.5529 21.0993 87.6929 19.6293 87.1529C18.8193 88.2029 17.4993 90.7029 16.7993 96.3229C15.7393 104.783 23.4993 112.543 23.4993 112.543C23.4993 112.543 13.6293 112.893 12.9193 117.123V117.133Z" fill="#DC7355"/>
<g style="mix-blend-mode:multiply" opacity="0.5">
<path d="M51.3592 66.7729C50.5092 66.2929 49.6792 65.8129 48.8792 65.2929C41.8992 60.8129 39.6792 51.9229 38.9792 47.1029C35.8692 48.5029 32.8892 51.7729 32.8892 51.7729C32.8892 51.7729 34.0292 61.6329 39.4592 66.0629C44.5692 70.2329 51.8292 70.3529 51.3592 66.7729Z" fill="#DB6536"/>
</g>
<path d="M44.6793 85.5429C38.0993 83.1929 35.2793 79.4329 31.9893 73.5629C28.6993 67.6929 28.4693 59.4629 28.2293 52.6529C28.0893 48.6829 25.8793 45.9929 23.8293 44.4429C18.1193 47.3229 16.3293 52.1629 15.9893 60.3329C15.4493 73.5229 17.5493 89.5329 22.5893 104.113C24.8393 110.643 31.6793 119.763 32.3993 119.763C31.7793 118.463 31.5493 116.953 32.6893 115.393C35.2693 111.873 44.4393 111.873 44.4393 111.873C44.4393 111.873 33.8693 111.173 34.5693 99.8929C35.2693 88.6129 44.6693 85.5629 44.6693 85.5629L44.6793 85.5429Z" fill="#FFC9A1"/>
<path d="M27.3494 85.5929C36.3494 85.0929 33.5994 77.0929 33.5994 77.0929C33.5994 77.0929 26.8494 75.5929 25.8494 75.5929C25.0794 75.5929 19.0794 74.9929 16.3994 74.7229C16.6394 77.4329 16.9794 80.1829 17.4094 82.9529C19.3094 84.3729 22.4794 85.8629 27.3494 85.5929Z" fill="#E29052"/>
<path d="M15.3191 76.7629C17.3591 76.0229 20.5191 81.5929 26.6491 82.3329C32.7791 83.0729 37.4291 70.6329 37.4291 70.6329C39.6591 67.4729 36.3191 61.1629 34.2691 60.6029C32.2291 60.0429 31.1091 60.9729 29.0691 63.5729C27.0291 66.1729 26.2791 71.0029 23.6791 71.5629C21.0791 72.1229 14.7591 68.4029 11.7891 70.0729C8.81911 71.7429 8.44911 77.8729 9.74911 78.8029C11.0491 79.7329 13.2791 77.5029 15.3191 76.7629Z" fill="#EC7136"/>
<path d="M5.99927 29.1729C2.28927 32.4929 0.339272 41.3729 3.71927 46.1429C7.09927 50.9129 18.3493 57.2129 29.7193 57.9529C41.0893 58.6929 51.1793 53.9129 51.9193 44.6429C52.6493 35.3729 49.0693 33.1329 47.7393 26.2629C46.4093 19.3829 45.5193 18.7129 45.5493 18.2729C45.5793 17.8329 49.0493 5.75286 44.9593 3.93286C40.8793 2.11286 34.5893 14.2529 34.5893 14.2529C34.5893 14.2529 30.4493 13.1729 27.4393 13.5429C27.4393 13.5429 24.6493 -0.887138 19.5293 0.522861C14.4093 1.92286 16.1693 15.5229 16.1693 15.5229C16.1693 15.5229 9.70927 25.8529 6.00927 29.1729H5.99927Z" fill="#EC7136"/>
<path d="M29.479 57.9329C29.559 57.9329 29.639 57.9429 29.719 57.9529C41.089 58.6929 51.179 53.9129 51.919 44.6429C52.649 35.3729 49.069 33.1329 47.739 26.2629C46.409 19.3829 45.519 18.7129 45.549 18.2729C45.579 17.8329 49.049 5.75286 44.959 3.93286C40.879 2.11286 34.589 14.2529 34.589 14.2529C34.589 14.2529 34.009 14.1029 33.119 13.9329C35.149 14.7829 37.889 16.0829 39.849 17.6229C43.349 20.3729 41.849 30.3729 42.849 32.3629C43.849 34.3629 50.599 38.1129 47.849 46.1029C46.029 51.3829 38.329 55.9029 29.489 57.9329H29.479Z" fill="#E65724"/>
<path d="M28.0391 58.4828C39.4091 59.2228 52.1891 55.0828 51.9091 44.6428C51.8791 43.5828 52.0191 42.6328 51.9991 41.7428C38.1191 32.4828 24.7691 40.6328 24.7691 40.6328C16.1791 33.1328 7.02912 34.8928 2.27912 36.6228C1.62912 39.9928 1.79912 44.8428 3.56912 47.3528C6.94912 52.1328 16.6491 57.7428 28.0291 58.4828H28.0391Z" fill="#FFC9A1"/>
<g style="mix-blend-mode:multiply" opacity="0.5">
<path d="M41.0892 51.3529C33.5992 53.3929 19.1092 58.3229 5.46924 49.4829C9.84924 53.6629 18.3292 57.8529 28.0392 58.4829C39.4092 59.2229 52.1892 55.0829 51.9092 44.6429C51.8792 43.5829 52.0192 42.6329 51.9992 41.7429C50.8692 40.9929 49.7492 40.3629 48.6392 39.8329C48.6192 39.8429 48.5992 39.8529 48.5792 39.8629C48.5792 39.8629 49.3292 49.1129 41.0792 51.3629L41.0892 51.3529Z" fill="#FFC9A1"/>
</g>
<path d="M24.929 41.9829C25.969 41.4929 27.599 40.5229 27.839 39.2429C28.189 37.3329 25.039 36.9529 25.039 36.9529C25.039 36.9529 21.949 36.2529 21.599 38.1529C21.369 39.4329 22.549 40.8829 23.359 41.7029C23.769 42.1129 24.399 42.2229 24.929 41.9729V41.9829Z" fill="#682616"/>
<path d="M23.5592 49.6529C24.8392 50.0329 25.5392 45.8929 25.5392 45.8929L23.7392 43.2829L20.9892 44.8829C20.9292 44.9729 20.0792 48.1029 20.6092 48.8529C21.3292 49.8529 22.3092 48.8129 23.0092 46.1629C23.0092 46.1629 22.2692 49.2729 23.5492 49.6529H23.5592Z" fill="white"/>
<path d="M20.3991 44.7329C18.1191 45.4329 15.8691 44.0129 15.8691 44.0129C19.1591 47.4429 23.5891 44.0929 23.5891 44.0929C25.7191 48.4929 30.3991 47.0529 30.3991 47.0529C30.3991 47.0529 28.4091 47.2229 26.2691 45.7429C24.1291 44.2629 24.3491 41.3329 24.3491 41.3329C24.3491 41.3329 22.6691 44.0329 20.3891 44.7329H20.3991Z" fill="#682616"/>
<path d="M25.4892 13.0629C25.5792 12.1929 24.2192 8.24286 23.9392 8.08286C23.6592 7.92286 23.3792 9.64286 23.3792 9.64286C23.3792 9.64286 23.1492 8.40286 22.4492 6.47286C21.7492 4.54286 20.2892 2.84286 19.9892 2.78286C19.6992 2.72286 19.0192 2.97286 18.3892 4.81286C17.7592 6.65286 18.0692 9.39286 17.9092 9.65286C17.7492 9.91286 17.0892 8.29286 17.1192 9.48286C17.1492 10.6729 18.1492 14.4529 18.1492 14.4529C20.1492 13.3929 21.6392 13.6229 22.3692 13.5829C23.0992 13.5429 21.5792 12.5229 21.5792 12.5229C21.5792 12.5229 25.3792 13.9329 25.4792 13.0629H25.4892Z" fill="#FFC9A1"/>
<path d="M38.8493 10.0929C38.5493 10.1929 36.4393 13.8129 36.3693 14.6929C36.2893 15.5629 40.2993 14.9029 40.2993 14.9029C40.2993 14.9029 38.6093 15.6129 39.3193 15.7929C40.0293 15.9729 41.5293 16.0229 43.2893 17.4529C43.2893 17.4529 44.9993 13.9329 45.2693 12.7729C45.5393 11.6029 44.5693 13.0729 44.4693 12.7929C44.3593 12.5029 45.1893 9.88286 44.9393 7.95286C44.6793 6.02286 44.0693 5.65286 43.7693 5.65286C43.4693 5.65286 41.6993 7.05286 40.6393 8.81286C39.5793 10.5729 39.1093 11.7429 39.1093 11.7429C39.1093 11.7429 39.1593 10.0029 38.8593 10.1029L38.8493 10.0929Z" fill="#FFC9A1"/>
<path d="M39.7093 30.8829C39.7093 33.1329 37.8893 34.9529 35.6393 34.9529C33.3893 34.9529 31.5693 33.1329 31.5693 30.8829C31.5693 28.6329 33.3893 26.8129 35.6393 26.8129C37.8893 26.8129 39.7093 28.6329 39.7093 30.8829Z" fill="#231F20"/>
<path d="M38.4696 29.3029C38.4696 30.0429 37.8696 30.6329 37.1396 30.6329C36.4096 30.6329 35.8096 30.0329 35.8096 29.3029C35.8096 28.5729 36.4096 27.9729 37.1396 27.9729C37.8696 27.9729 38.4696 28.5729 38.4696 29.3029Z" fill="white"/>
<path d="M22.9891 28.5828C22.9891 30.8328 21.1691 32.6528 18.9191 32.6528C16.6691 32.6528 14.8491 30.8328 14.8491 28.5828C14.8491 26.3328 16.6691 24.5128 18.9191 24.5128C21.1691 24.5128 22.9891 26.3328 22.9891 28.5828Z" fill="#231F20"/>
<path d="M21.7494 26.9928C21.7494 27.7328 21.1494 28.3228 20.4194 28.3228C19.6894 28.3228 19.0894 27.7228 19.0894 26.9928C19.0894 26.2628 19.6894 25.6628 20.4194 25.6628C21.1494 25.6628 21.7494 26.2628 21.7494 26.9928Z" fill="white"/>
</g>
</g>
<defs>
<clipPath id="clip0_161_3193">
<rect width="106.7" height="125.767" fill="white"/>
</clipPath>
<clipPath id="clip1_161_3193">
<rect width="106.7" height="125.767" fill="white" transform="translate(0.00927734 0.425873)"/>
</clipPath>
</defs>
</svg>
