<svg width="107" height="116" viewBox="0 0 107 116" fill="none" xmlns="http://www.w3.org/2000/svg">
<g style="mix-blend-mode:multiply">
<path d="M53.5 115.08C83.0472 115.08 107 111.946 107 108.08C107 104.214 83.0472 101.08 53.5 101.08C23.9528 101.08 0 104.214 0 108.08C0 111.946 23.9528 115.08 53.5 115.08Z" fill="#DAF6D7"/>
</g>
<path d="M34.8489 60.6158C31.4628 62.6596 29.0343 66.2204 28.3558 70.1176C28.1783 71.1395 28.1085 72.1995 27.7344 73.1643C27.0179 74.9986 24.9888 75.8491 23.3085 74.6178C22.3446 73.9132 21.793 72.7834 21.3872 71.6663C19.2757 65.8206 19.6117 57.5692 23.6255 52.5676C27.2842 48.0166 31.8243 44.2781 36.339 40.5714" fill="#995348"/>
<path d="M82.9883 74.3385C83.0073 69.1529 82.0118 63.7641 81.5553 58.8513C80.7627 50.4349 80.5471 41.7583 79.374 33.3038C78.3024 25.5602 76.6474 14.8779 70.9026 9.07018C66.5845 4.70964 60.7699 1.52335 54.5685 1.1679C50.3581 0.926707 45.0698 1.92957 42.0896 5.10952C38.9762 8.43546 37.1564 12.7769 35.9326 17.1121C33.4787 25.8268 31.6271 34.77 30.3336 43.7132C29.7059 48.0357 29.281 52.3645 28.9893 56.6933C28.2475 67.6613 25.4194 79.0926 33.4216 88.2199C37.1944 92.5296 42.5208 95.3034 48.1008 96.5982C55.3357 98.2802 63.2872 98.204 69.9768 94.8273C75.468 92.0599 80.5788 87.3947 82.183 81.2633C82.7664 79.0418 82.982 76.7124 82.9947 74.3385H82.9883Z" fill="#79433C"/>
<path d="M37.5245 13.8115C33.3332 13.8115 30.7017 9.65411 31.2978 5.74423C32.1031 0.431614 38.4123 -1.59315 42.6163 1.371C44.3473 2.58967 45.4506 4.82388 44.9561 6.88673" fill="#79433C"/>
<path d="M33.7385 5.96584C33.7738 5.87907 33.8092 5.7923 33.8509 5.70486C33.8721 5.66429 33.8932 5.62373 33.9207 5.58248C33.92 5.57617 33.9525 5.52163 33.92 5.57617C33.8883 5.63702 33.9363 5.5489 33.9475 5.53493C34.0518 5.37695 34.17 5.23024 34.3023 5.09481C34.3135 5.08084 34.3367 5.0592 34.3543 5.04456C34.277 5.09751 34.3255 5.07318 34.3423 5.05222C34.3775 5.02292 34.4119 4.98732 34.4471 4.95802C34.523 4.89245 34.6052 4.8262 34.6887 4.77257C34.7597 4.7203 34.8369 4.66735 34.9148 4.62071C34.9569 4.59705 34.999 4.57339 35.0412 4.54973C35.065 4.53441 35.1121 4.49746 35.0285 4.55108C35.0524 4.53576 35.0826 4.51976 35.1071 4.51075C35.3064 4.40644 35.5141 4.32038 35.7293 4.24627C35.8275 4.21023 35.9327 4.17982 36.0315 4.15009C36.0869 4.13139 36.143 4.11901 36.1928 4.1073C36.218 4.1046 36.2488 4.09491 36.2734 4.0859C36.1739 4.10932 36.2734 4.0859 36.2923 4.08388C36.7093 3.98817 37.141 3.91005 37.5655 3.88377C37.6474 3.875 37.7238 3.87321 37.8071 3.87706C37.8512 3.87234 37.8967 3.88024 37.9408 3.87551C37.9976 3.86944 37.8967 3.88024 37.8967 3.88024C37.9289 3.88317 37.9674 3.88543 37.9989 3.88206C38.1851 3.89405 38.3657 3.91302 38.547 3.9383C38.7282 3.96358 38.9235 4.00014 39.1067 4.04436C39.1984 4.06646 39.29 4.08857 39.3823 4.11699C39.4019 4.12128 39.4411 4.12985 39.4544 4.13481C39.4544 4.13481 39.3684 4.10572 39.4215 4.12556C39.4746 4.14541 39.5271 4.15895 39.5733 4.17316C39.9236 4.28886 40.271 4.43679 40.5966 4.61898C40.6371 4.64018 40.6713 4.66205 40.7118 4.68324C40.7866 4.72631 40.7049 4.67761 40.6916 4.67265C40.7055 4.68392 40.7258 4.69452 40.7461 4.70511C40.8215 4.75449 40.8969 4.80387 40.9667 4.86023C41.1196 4.97792 41.2605 5.10327 41.4021 5.23493C41.4516 5.2807 41.3512 5.17654 41.4014 5.22862C41.423 5.25184 41.4447 5.27506 41.4663 5.29828C41.5025 5.33909 41.5388 5.37989 41.5757 5.42701C41.6488 5.51493 41.7157 5.60352 41.7762 5.69279C41.8069 5.74058 41.8375 5.78837 41.8674 5.82985C41.882 5.84744 41.891 5.87201 41.9064 5.8959C41.9077 5.90852 41.9619 5.99847 41.93 5.93806C41.8987 5.88395 41.9313 5.95068 41.946 5.96826C41.9619 5.99847 41.9709 6.02304 41.9869 6.05325C42.0112 6.10171 42.0355 6.15018 42.0542 6.20563C42.0972 6.30954 42.1395 6.40715 42.1699 6.51242C42.1879 6.56156 42.2003 6.61768 42.2189 6.67313C42.2216 6.69838 42.2529 6.75248 42.2169 6.6542C42.2259 6.67877 42.23 6.71664 42.239 6.74121C42.2822 6.96639 42.2995 7.18795 42.2985 7.41786C42.2933 7.66737 42.59 7.87818 42.8219 7.84059C43.1043 7.7976 43.241 7.58508 43.2442 7.31663C43.2633 6.42091 42.8931 5.52218 42.3288 4.83573C41.7644 4.14928 41.0617 3.7202 40.2703 3.41552C39.4789 3.11084 38.6114 2.92922 37.7445 2.93264C37.3236 2.933 36.8976 3.00413 36.4855 3.08654C35.9858 3.18471 35.4895 3.31443 35.0202 3.51786C34.1005 3.92271 33.2573 4.62576 32.8942 5.58384C32.8043 5.81688 32.8871 6.11442 33.1338 6.21568C33.3603 6.30634 33.6702 6.22211 33.765 5.97577L33.7385 5.96584Z" fill="#995348"/>
<path d="M64.0733 7.5278C63.4455 3.11014 67.8144 0.412579 71.7014 0.139649C74.8274 -0.076156 78.4861 1.6122 79.2851 4.88101C80.2045 8.65126 76.8565 12.2692 73.5022 13.3418" fill="#79433C"/>
<path d="M68.5749 5.36311C68.5749 5.36311 68.593 5.33413 68.6026 5.31651C68.6326 5.25742 68.5517 5.38472 68.5868 5.333C68.6049 5.30402 68.6218 5.28129 68.6462 5.25343C68.6971 5.18522 68.752 5.13064 68.8143 5.07093C68.8777 5.00497 68.7543 5.11814 68.8217 5.06581C68.8523 5.03907 68.8817 5.01859 68.9123 4.99186C68.9797 4.93952 69.0523 4.89456 69.1248 4.84959C69.1542 4.82911 69.1826 4.81487 69.212 4.79439C69.2268 4.78414 69.3401 4.72719 69.2772 4.75454C69.2143 4.78189 69.3129 4.73518 69.3339 4.72607C69.3758 4.70783 69.4177 4.6896 69.4608 4.66512C69.615 4.59618 69.768 4.53349 69.9273 4.47192C70.252 4.34992 70.5859 4.2489 70.9227 4.16775C70.9425 4.16488 71.0106 4.1449 70.9164 4.16662C70.9363 4.16375 70.9561 4.16088 70.9697 4.15689C71.0106 4.1449 71.0565 4.14029 71.0973 4.1283C71.1841 4.1117 71.2708 4.0951 71.3564 4.08474C71.5288 4.05779 71.7063 4.0382 71.8764 4.02374C72.0465 4.00927 72.2144 4.0073 72.3823 4.00533C72.4271 4.00697 72.4719 4.0086 72.5104 4.0091C72.6063 4.01349 72.4344 4.00185 72.5292 4.01248C72.6239 4.02312 72.7135 4.02638 72.8082 4.03702C73.1372 4.07056 73.4544 4.1342 73.7721 4.23021C73.8033 4.23584 73.8499 4.26358 73.7409 4.22458C73.7534 4.22683 73.7721 4.23021 73.7897 4.23983C73.8272 4.24659 73.8624 4.26583 73.8987 4.27883C73.9713 4.30483 74.0377 4.3297 74.1092 4.36195C74.2471 4.41907 74.3828 4.48868 74.5184 4.5583C74.5764 4.59454 74.6416 4.62566 74.6995 4.6619C74.7285 4.68002 74.7626 4.70551 74.7978 4.72476C74.7978 4.72476 74.7171 4.67152 74.7637 4.69927C74.7813 4.70889 74.7978 4.72476 74.8153 4.73438C74.9414 4.82161 75.0601 4.91396 75.1714 5.01143C75.3003 5.11852 75.4145 5.23586 75.5287 5.35319C75.54 5.36169 75.5781 5.4008 75.5287 5.35319C75.4804 5.29933 75.5389 5.36793 75.5491 5.38268C75.5758 5.41329 75.6014 5.45015 75.6281 5.48077C75.6753 5.54087 75.7276 5.60834 75.7736 5.67469C75.8197 5.74104 75.8657 5.80739 75.9055 5.87262C75.9248 5.90835 75.9504 5.94521 75.9698 5.98095C75.9789 6.00194 75.9891 6.01668 75.9982 6.03767C76.0267 6.0944 75.9982 6.03767 75.9891 6.01668C76.0142 6.09215 76.0642 6.17212 76.0955 6.24871C76.1268 6.3253 76.157 6.40814 76.1872 6.49097C76.2676 6.72474 76.5638 6.86847 76.7996 6.77556C77.0354 6.68265 77.1671 6.41618 77.0839 6.16255C76.6526 4.87225 75.545 3.86633 74.2801 3.41246C72.8234 2.87886 71.2203 3.01539 69.776 3.52238C68.9779 3.8041 68.1494 4.18351 67.715 4.95005C67.5923 5.16654 67.7142 5.49165 67.9361 5.58326C68.1869 5.693 68.4374 5.58985 68.5687 5.36198L68.5749 5.36311Z" fill="#995348"/>
<path d="M57.3398 33.7989C58.3671 33.3863 59.3119 32.7833 60.1869 32.1105C61.2648 31.2854 62.2794 30.3079 62.8247 29.0639C63.9851 26.4171 62.6345 23.1673 60.3327 21.4218C58.0247 19.6827 55.0127 19.1813 52.1276 19.1495C50.9989 19.1368 49.8576 19.1876 48.7796 19.4923C46.1101 20.254 43.9859 22.6722 43.5865 25.4206C42.5275 32.6564 51.6647 36.0712 57.3462 33.7989H57.3398Z" fill="#F7C5AB"/>
<path d="M47.416 21.4091C47.8155 23.0848 49.4895 24.4495 50.7894 25.4587C52.1273 26.5059 53.6871 26.4932 55.0948 25.5221C56.1411 24.7985 56.8766 23.7132 57.5297 22.6215C57.8151 22.1391 58.1004 21.6313 58.1638 21.0727C58.5189 18.0705 52.5458 18.134 50.7513 18.464C49.1344 18.7623 46.9151 19.2828 47.4224 21.4091H47.416Z" fill="#1E1F23"/>
<path d="M36.2077 68.0155C34.4259 73.6899 35.1995 80.7163 39.6127 85.0133C44.2543 89.5389 51.0263 91.0559 57.3228 90.2434C62.6365 89.5579 68.6033 87.4062 71.9259 82.9695C76.7133 76.5779 73.5365 66.6889 68.6984 61.3001C65.4328 57.6632 59.447 55.6638 54.6723 55.2766C47.2218 54.6736 40.3102 59.0024 37.1271 65.6861C36.772 66.4287 36.4677 67.2094 36.214 68.0155H36.2077Z" fill="#F7C5AB"/>
<path d="M81.3017 45.3826C82.8298 46.3727 84.2692 47.8008 85.474 48.9624C87.3572 50.7777 89.0693 52.7834 90.534 54.9478C93.2733 58.991 95.315 63.8275 95.0804 68.7974C94.9029 72.5613 91.9036 79.8987 86.9007 78.7371C84.4658 78.1722 83.8888 75.3922 83.4322 73.3166C82.7474 70.2382 81.9231 67.5026 80.3569 64.7542C78.6385 61.7393 76.565 58.9402 75.0369 55.8174C73.9716 53.6403 73.179 50.9617 73.6609 48.5308C74.1936 45.8586 77.0913 43.4784 79.8623 44.6209C80.3506 44.8177 80.8261 45.0842 81.3017 45.3889V45.3826Z" fill="#995348"/>
<path d="M57.3145 96.6997C57.3145 98.8134 57.3905 100.921 57.4793 103.022C57.5808 105.484 56.7628 109.153 59.743 110.08C63.1988 111.159 66.9019 111.038 70.5225 110.911C72.2346 110.848 74.8153 110.911 75.9947 109.426C77.098 108.042 76.3815 106.056 74.9421 105.23C73.75 104.545 72.317 104.469 70.941 104.437C72.3614 101.923 73.7881 99.41 75.2084 96.8965C76.9775 93.7737 78.8101 90.2764 78.0555 86.7664" fill="#79433C"/>
<path d="M34.3345 88.8673C35.6597 92.7454 36.8138 96.7061 37.7839 100.73C34.8291 100.343 31.7791 102.717 30.9611 106.049C30.8216 106.633 30.7899 107.376 31.2211 107.712C31.424 107.871 31.6777 107.89 31.9186 107.903C37.1181 108.258 42.3303 108.474 47.5362 108.544C47.7391 108.544 47.9611 108.544 48.1323 108.41C48.2718 108.302 48.3542 108.131 48.4303 107.96C49.0327 106.551 49.1024 104.932 49.1341 103.358C49.1912 100.533 49.1658 97.7089 49.058 94.8908" fill="#79433C"/>
<path d="M49.2929 6.33067C49.3627 6.80037 49.5149 7.24467 49.6227 7.70167C49.6544 7.82861 49.6797 7.96191 49.6924 8.08885L49.6734 7.96191C49.6988 8.17771 49.7114 8.39352 49.6797 8.60297L49.6988 8.47603C49.6988 8.47603 49.6924 8.52046 49.6861 8.5395C49.6671 8.60297 49.6607 8.66645 49.6797 8.72992C49.6797 8.79339 49.6988 8.85052 49.7368 8.90764C49.7685 8.96477 49.8066 9.0092 49.8573 9.04093C49.9017 9.08536 49.9587 9.11075 50.0221 9.12345C50.1426 9.14883 50.2821 9.14249 50.3899 9.07267L50.485 8.9965C50.5421 8.93938 50.5865 8.86956 50.6055 8.78704C50.6372 8.58393 50.6562 8.38717 50.6499 8.17771C50.6435 7.96825 50.6118 7.77784 50.5675 7.58107C50.5041 7.25102 50.4026 6.93366 50.3202 6.60995C50.2758 6.43223 50.2314 6.24816 50.206 6.06409C50.1933 6.00062 50.1616 5.94984 50.1236 5.89906C50.0919 5.84829 50.0475 5.80385 49.9904 5.77847C49.9334 5.74673 49.8763 5.72769 49.8129 5.72134C49.7495 5.70865 49.6861 5.70865 49.6227 5.72769C49.5085 5.76577 49.3944 5.83559 49.3373 5.94349L49.2866 6.05774C49.2612 6.14026 49.2612 6.22912 49.2866 6.31163L49.2929 6.33067Z" fill="#995348"/>
<path d="M52.4404 5.54904C52.4277 6.19645 52.4784 6.84387 52.5736 7.48494C52.5989 7.65631 52.6306 7.82769 52.6623 7.99906C52.675 8.06253 52.7067 8.11331 52.7448 8.16409C52.7765 8.21487 52.8209 8.2593 52.8779 8.28469C52.935 8.31642 52.9921 8.33546 53.0555 8.34181C53.1189 8.35451 53.1823 8.35451 53.2457 8.33546C53.3598 8.29738 53.474 8.22756 53.531 8.11966L53.5818 8.00541C53.6071 7.9229 53.6071 7.83403 53.5818 7.75152C53.5374 7.53572 53.5057 7.31991 53.474 7.10411L53.493 7.23105C53.4359 6.79944 53.4042 6.36783 53.3979 5.92987C53.3979 5.80293 53.3979 5.68233 53.3979 5.55539C53.3979 5.49191 53.3852 5.42844 53.3598 5.37132C53.3408 5.31419 53.3091 5.26341 53.2584 5.21898C53.214 5.17455 53.1633 5.14282 53.1062 5.11743C53.0491 5.08569 52.9857 5.073 52.9223 5.07935C52.8018 5.07935 52.6687 5.12378 52.5862 5.21898C52.5038 5.31419 52.4467 5.42844 52.4467 5.55539L52.4404 5.54904Z" fill="#995348"/>
<path d="M55.0418 4.28595C54.9847 4.87624 54.9657 5.47287 54.9784 6.06951C54.9784 6.23454 54.991 6.40591 55.0037 6.57094C55.0037 6.63441 55.0164 6.69789 55.0418 6.75501C55.0608 6.81214 55.0925 6.86291 55.1432 6.90734C55.1876 6.95177 55.2383 6.98351 55.2954 7.0089C55.3525 7.04064 55.4159 7.05333 55.4793 7.04698C55.5998 7.04698 55.7329 7.00255 55.8154 6.90734C55.8978 6.81214 55.9612 6.69789 55.9549 6.57094C55.9168 5.9743 55.9168 5.38401 55.9549 4.78738C55.9675 4.62235 55.9802 4.45097 55.9929 4.28595C55.9929 4.22247 55.9802 4.159 55.9549 4.10188C55.9358 4.04475 55.9041 3.99398 55.8534 3.94954C55.809 3.90511 55.7583 3.87338 55.7012 3.84799C55.6442 3.81625 55.5807 3.80356 55.5173 3.80991C55.3969 3.80991 55.2637 3.85434 55.1813 3.94954L55.1052 4.04475C55.0608 4.12092 55.0418 4.19709 55.0418 4.28595Z" fill="#995348"/>
<path d="M58.5377 6.6909C58.4235 7.05903 58.3284 7.43987 58.265 7.82705C58.1953 8.24596 58.1509 8.67757 58.1445 9.10284C58.1445 9.31864 58.1445 9.54079 58.1572 9.7566C58.1636 9.88354 58.2079 10.0041 58.2967 10.093C58.3791 10.1755 58.5123 10.239 58.6328 10.2326C58.7533 10.2263 58.8864 10.1882 58.9688 10.093C59.0513 9.99779 59.1147 9.88354 59.1083 9.7566C59.0766 9.23613 59.0957 8.70931 59.1654 8.18884L59.1464 8.31578C59.2098 7.85244 59.3113 7.39544 59.4508 6.94479C59.4888 6.83054 59.4634 6.6782 59.4 6.57665C59.3366 6.47509 59.2288 6.38623 59.1147 6.36084C58.9942 6.33545 58.8547 6.3418 58.7469 6.41162C58.6391 6.48144 58.5694 6.57665 58.5313 6.69724L58.5377 6.6909Z" fill="#995348"/>
<path d="M55.4116 8.83531C55.2467 9.43194 55.1136 10.0413 55.0185 10.657C54.9868 10.8728 54.9551 11.0822 54.9297 11.298C54.9297 11.3615 54.9424 11.425 54.9677 11.4821C54.9868 11.5392 55.0185 11.59 55.0692 11.6344C55.1136 11.6789 55.1643 11.7106 55.2214 11.736C55.2784 11.7677 55.3418 11.7804 55.4053 11.7741C55.5257 11.7741 55.6589 11.7296 55.7413 11.6344L55.8174 11.5392C55.8618 11.4631 55.8808 11.3869 55.8808 11.298C55.8872 11.2219 55.8998 11.1393 55.9125 11.0632L55.8935 11.1901C55.9696 10.6379 56.071 10.0857 56.2042 9.54619C56.2422 9.39386 56.2803 9.24153 56.3247 9.08919C56.3437 9.02572 56.35 8.96225 56.331 8.89878C56.331 8.83531 56.312 8.77818 56.274 8.72106C56.2423 8.66393 56.2042 8.6195 56.1535 8.58777C56.1091 8.54333 56.052 8.51795 55.9886 8.50525C55.8681 8.47986 55.7286 8.48621 55.6208 8.55603C55.513 8.62585 55.437 8.72106 55.4053 8.84165L55.4116 8.83531Z" fill="#995348"/>
<path d="M51.1704 9.99729C51.2147 10.778 51.2591 11.5651 51.3035 12.3458C51.3162 12.5679 51.3289 12.7837 51.3416 13.0059C51.3479 13.1328 51.3923 13.2534 51.4811 13.3423C51.5635 13.4248 51.6967 13.4883 51.8171 13.4819C51.9376 13.4756 52.0708 13.4375 52.1532 13.3423C52.2356 13.2471 52.299 13.1328 52.2927 13.0059C52.2483 12.2252 52.2039 11.4381 52.1595 10.6574C52.1469 10.4352 52.1342 10.2194 52.1215 9.99729C52.1152 9.87035 52.0708 9.74975 51.982 9.66089C51.8996 9.57838 51.7664 9.5149 51.6459 9.52125C51.5254 9.5276 51.3923 9.56568 51.3099 9.66089C51.2274 9.7561 51.164 9.87035 51.1704 9.99729Z" fill="#995348"/>
<path d="M53.8139 13.1709C53.7441 13.9833 53.7124 14.8021 53.7061 15.6145C53.7061 15.843 53.7061 16.0715 53.7061 16.3C53.7061 16.4206 53.7568 16.5476 53.8456 16.6364C53.928 16.719 54.0611 16.7824 54.1816 16.7761C54.3021 16.7697 54.4353 16.7317 54.5177 16.6364C54.6001 16.5412 54.6572 16.427 54.6572 16.3C54.6445 15.4876 54.6635 14.6688 54.7143 13.8564C54.7269 13.6279 54.746 13.3994 54.765 13.1709C54.7713 13.0566 54.7079 12.9106 54.6255 12.8345C54.5431 12.7583 54.4099 12.6885 54.2894 12.6948C54.1689 12.7012 54.0358 12.7393 53.9533 12.8345L53.8773 12.9297C53.8329 13.0058 53.8139 13.082 53.8139 13.1709Z" fill="#995348"/>
<path d="M61.5655 7.22312C61.7494 6.85498 61.927 6.48049 62.1108 6.11235C62.1616 6.0108 62.2123 5.9029 62.263 5.80134C62.2947 5.74422 62.3137 5.68709 62.3201 5.62362C62.3328 5.56015 62.3328 5.49667 62.3137 5.4332C62.3011 5.36973 62.2694 5.31895 62.2313 5.26817C62.1996 5.2174 62.1552 5.17297 62.0982 5.14758L61.984 5.0968C61.9016 5.07141 61.8128 5.07141 61.7304 5.0968L61.6162 5.14758C61.5465 5.19201 61.4894 5.24913 61.445 5.31895C61.2612 5.68709 61.0836 6.06158 60.8997 6.42971C60.849 6.53127 60.7983 6.63917 60.7475 6.74073C60.7158 6.79785 60.6968 6.85498 60.6905 6.91845C60.6778 6.98192 60.6778 7.04539 60.6968 7.10887C60.7095 7.17234 60.7412 7.22312 60.7793 7.27389C60.811 7.32467 60.8553 7.3691 60.9124 7.39449L61.0265 7.44527C61.109 7.47066 61.1978 7.47066 61.2802 7.44527L61.3943 7.39449C61.4641 7.35006 61.5211 7.29294 61.5655 7.22312Z" fill="#995348"/>
<path d="M45.4819 5.04854C45.6214 5.4865 45.7546 5.92445 45.875 6.36876C45.9068 6.4957 45.9448 6.62265 45.9765 6.74959C45.9892 6.81306 46.0209 6.86384 46.0589 6.91462C46.0906 6.9654 46.135 7.00983 46.1921 7.03522C46.2492 7.06695 46.3062 7.08599 46.3696 7.09234C46.433 7.10503 46.4965 7.10504 46.5599 7.08599L46.674 7.03522C46.7438 6.99079 46.8008 6.93366 46.8452 6.86384L46.8959 6.74959C46.9213 6.66708 46.9213 6.57822 46.8959 6.4957C46.7818 6.0514 46.655 5.60709 46.5218 5.16914C46.4838 5.04219 46.4457 4.92159 46.4013 4.79465C46.3887 4.73118 46.357 4.6804 46.3189 4.62962C46.2872 4.57885 46.2428 4.53442 46.1858 4.50903C46.1287 4.47729 46.0716 4.45825 46.0082 4.4519C45.9448 4.43921 45.8814 4.43921 45.818 4.45825L45.7038 4.50903C45.6341 4.55346 45.577 4.61058 45.5326 4.6804L45.4819 4.79465C45.4565 4.87716 45.4565 4.96603 45.4819 5.04854Z" fill="#995348"/>
<path d="M47.3843 9.49159C47.5428 9.95494 47.6759 10.4246 47.7711 10.907C47.7964 11.0403 47.8218 11.1736 47.8471 11.3132C47.8598 11.3767 47.8915 11.4275 47.9296 11.4783C47.9613 11.529 48.0057 11.5735 48.0627 11.5989C48.1198 11.6306 48.1769 11.6496 48.2403 11.656C48.3037 11.6687 48.3671 11.6687 48.4305 11.6496L48.5446 11.5989C48.6144 11.5544 48.6715 11.4973 48.7158 11.4275L48.7666 11.3132C48.7919 11.2307 48.7919 11.1419 48.7666 11.0594C48.6841 10.577 48.57 10.1009 48.4305 9.63123C48.3925 9.49794 48.3481 9.371 48.3037 9.2377C48.291 9.17423 48.2593 9.12346 48.2213 9.07268C48.1895 9.0219 48.1452 8.97747 48.0881 8.95208C48.031 8.92034 47.974 8.9013 47.9106 8.89496C47.8471 8.88226 47.7837 8.88226 47.7203 8.9013L47.6062 8.95208C47.5364 8.99651 47.4794 9.05364 47.435 9.12346L47.3843 9.2377C47.3589 9.32022 47.3589 9.40908 47.3843 9.49159Z" fill="#995348"/>
<path d="M85.6648 73.9958C85.5951 74.237 85.6331 74.5035 85.6458 74.7511C85.6585 74.9669 85.6712 75.189 85.6902 75.4049C85.7282 75.8682 85.7917 76.3379 85.8931 76.7885C85.9502 77.0234 86.0199 77.2582 86.1087 77.4867C86.1214 77.5502 86.1531 77.601 86.1911 77.6518C86.2228 77.7025 86.2672 77.747 86.3243 77.7724C86.4257 77.8295 86.5779 77.8549 86.6921 77.8231C86.8062 77.7914 86.9203 77.7152 86.9774 77.6073C87.0345 77.4994 87.0725 77.3598 87.0281 77.2392C86.8506 76.7822 86.7491 76.3062 86.6857 75.8174L86.7047 75.9444C86.6667 75.6524 86.6413 75.3604 86.6223 75.0684C86.6096 74.9225 86.6033 74.7765 86.5969 74.6305C86.5906 74.4845 86.5716 74.3385 86.5906 74.1925L86.5716 74.3195C86.5716 74.3195 86.5779 74.2687 86.5843 74.2497C86.616 74.1291 86.5969 73.9894 86.5335 73.8815C86.4765 73.78 86.3623 73.6911 86.2482 73.6657C86.1277 73.6403 85.9882 73.6467 85.8804 73.7165C85.7726 73.7863 85.6965 73.8815 85.6648 74.0021V73.9958Z" fill="#36221D"/>
<path d="M88.6508 74.4274C88.6761 75.2271 88.6507 76.0332 88.5937 76.833C88.5747 77.0615 88.5556 77.2836 88.5303 77.5121C88.5303 77.5756 88.543 77.6391 88.5683 77.6962C88.5873 77.7533 88.619 77.8041 88.6698 77.8485C88.7522 77.931 88.8854 77.9945 89.0058 77.9882C89.1263 77.9818 89.2595 77.9437 89.3419 77.8485L89.418 77.7533C89.4624 77.6771 89.4814 77.601 89.4814 77.5121C89.5702 76.7124 89.6146 75.9126 89.6146 75.1065C89.6146 74.878 89.6146 74.6559 89.6019 74.4274C89.6019 74.3004 89.5512 74.1798 89.4624 74.091C89.38 74.0085 89.2468 73.945 89.1263 73.9513C89.0058 73.9577 88.8727 73.9958 88.7903 74.091C88.7078 74.1862 88.6444 74.3004 88.6508 74.4274Z" fill="#36221D"/>
<path d="M91.3459 73.7863C91.3459 73.7863 91.3586 73.8117 91.3649 73.8244L91.3142 73.7101C91.3269 73.7419 91.3332 73.7736 91.3395 73.8117L91.3205 73.6848C91.3395 73.8244 91.3205 73.9704 91.3078 74.11C91.2952 74.256 91.2761 74.4083 91.2571 74.5543L91.2761 74.4274C91.1874 75.1002 91.0225 75.7666 90.8006 76.4077C90.7372 76.5918 90.6674 76.7695 90.5913 76.9472L90.642 76.833C90.642 76.833 90.6167 76.8964 90.604 76.9282C90.5723 76.9853 90.5533 77.0424 90.5469 77.1059C90.5342 77.1694 90.5342 77.2328 90.5533 77.2963C90.585 77.4042 90.6674 77.5248 90.7689 77.5819C90.8766 77.6391 91.0098 77.6708 91.1366 77.6327C91.2444 77.5946 91.3712 77.5248 91.422 77.4169C91.6376 76.9218 91.8214 76.4204 91.9546 75.8999C92.0878 75.3795 92.1829 74.8463 92.2399 74.3131C92.278 73.9831 92.3351 73.6149 92.1639 73.3166C92.1068 73.2151 91.9926 73.1325 91.8785 73.1008C91.7644 73.0691 91.6122 73.0818 91.5107 73.1516C91.4093 73.2214 91.3205 73.3166 91.2951 73.4372C91.2698 73.5578 91.2761 73.6911 91.3459 73.8054V73.7863Z" fill="#36221D"/>
<path d="M71.8604 107.649C71.8604 107.839 71.854 108.029 71.8287 108.22L71.8477 108.093C71.8033 108.436 71.7082 108.766 71.575 109.083L71.6257 108.969C71.5623 109.115 71.4926 109.254 71.4165 109.394C71.3848 109.451 71.3658 109.508 71.3594 109.572C71.3467 109.635 71.3467 109.699 71.3658 109.762C71.3784 109.826 71.4102 109.877 71.4482 109.927C71.4799 109.978 71.5243 110.023 71.5814 110.048C71.6892 110.105 71.8223 110.137 71.9491 110.099C72.0759 110.061 72.1711 109.991 72.2345 109.883C72.3042 109.762 72.3676 109.635 72.4184 109.508C72.4881 109.35 72.5579 109.185 72.6086 109.02C72.7037 108.728 72.7608 108.423 72.7925 108.118C72.8051 107.966 72.8115 107.814 72.8115 107.661C72.8115 107.598 72.7988 107.534 72.7734 107.477C72.7544 107.42 72.7227 107.369 72.672 107.325C72.6276 107.281 72.5769 107.249 72.5198 107.223C72.4627 107.192 72.3993 107.179 72.3359 107.185L72.2091 107.204C72.1267 107.23 72.0569 107.268 71.9999 107.325C71.9174 107.42 71.8604 107.534 71.8604 107.661V107.649Z" fill="#36221D"/>
<path d="M74.1053 107.42C74.1624 107.579 74.2067 107.75 74.2321 107.915L74.2131 107.788C74.2384 107.991 74.2384 108.195 74.2131 108.398L74.2321 108.271C74.2067 108.48 74.1497 108.683 74.0672 108.88L74.118 108.766C74.0672 108.88 74.0165 108.988 73.9468 109.089C73.9151 109.147 73.896 109.204 73.8897 109.267C73.877 109.331 73.877 109.394 73.896 109.458C73.9087 109.521 73.9404 109.572 73.9785 109.623C74.0102 109.673 74.0546 109.718 74.1116 109.743C74.2194 109.8 74.3526 109.832 74.4794 109.794L74.5935 109.743C74.6633 109.699 74.7204 109.642 74.7647 109.572C74.8599 109.42 74.9359 109.255 74.9994 109.083C75.0501 108.95 75.0945 108.817 75.1198 108.683C75.1579 108.512 75.1769 108.328 75.1832 108.15C75.1896 107.972 75.1706 107.795 75.1389 107.617C75.1135 107.465 75.0754 107.312 75.0184 107.16C75.0057 107.096 74.974 107.046 74.9359 106.995C74.9042 106.944 74.8599 106.9 74.8028 106.874C74.7457 106.843 74.6886 106.824 74.6252 106.817C74.5618 106.804 74.4984 106.805 74.435 106.824C74.3209 106.862 74.2067 106.931 74.1497 107.039L74.0989 107.154C74.0736 107.236 74.0736 107.325 74.0989 107.407L74.1053 107.42Z" fill="#36221D"/>
<path d="M32.8951 104.247C32.7936 104.399 32.6985 104.564 32.6224 104.735C32.5337 104.932 32.4512 105.135 32.3942 105.345C32.3371 105.554 32.3054 105.764 32.28 105.979C32.261 106.157 32.2547 106.328 32.2673 106.506C32.28 106.747 32.3181 106.989 32.3751 107.217C32.4068 107.331 32.4893 107.439 32.5907 107.503C32.6478 107.534 32.7049 107.553 32.7683 107.56C32.8317 107.573 32.8951 107.572 32.9585 107.553C33.0726 107.515 33.1868 107.446 33.2438 107.338C33.3009 107.23 33.3263 107.096 33.2946 106.97C33.2629 106.849 33.2375 106.728 33.2248 106.608L33.2438 106.735C33.2058 106.462 33.2058 106.182 33.2438 105.91L33.2248 106.036C33.2629 105.751 33.3389 105.465 33.4531 105.199L33.4024 105.313C33.4911 105.11 33.5926 104.919 33.7131 104.735C33.7448 104.678 33.7638 104.621 33.7701 104.558C33.7828 104.494 33.7828 104.431 33.7638 104.367C33.7511 104.304 33.7194 104.253 33.6814 104.202C33.6497 104.151 33.6053 104.107 33.5482 104.082C33.4404 104.024 33.3072 103.993 33.1804 104.031L33.0663 104.082C32.9965 104.126 32.9395 104.183 32.8951 104.253V104.247Z" fill="#36221D"/>
<path d="M35.3553 104.907C35.2412 105.205 35.1588 105.516 35.1144 105.833C35.0637 106.182 35.0383 106.532 35.0637 106.887C35.0827 107.103 35.108 107.319 35.1524 107.534C35.1651 107.598 35.1968 107.649 35.2349 107.699C35.2666 107.75 35.311 107.795 35.368 107.82C35.4251 107.852 35.4822 107.871 35.5456 107.877C35.609 107.89 35.6724 107.89 35.7358 107.871C35.8499 107.833 35.9641 107.763 36.0211 107.655L36.0719 107.541C36.0972 107.458 36.0972 107.369 36.0719 107.287C36.0528 107.198 36.0402 107.109 36.0275 107.014L36.0465 107.141C35.9958 106.76 35.9958 106.373 36.0465 105.992L36.0275 106.119C36.0719 105.789 36.1543 105.465 36.2748 105.161C36.2938 105.097 36.3001 105.034 36.2811 104.97C36.2811 104.907 36.2621 104.85 36.224 104.792C36.1923 104.735 36.1543 104.691 36.1036 104.659C36.0592 104.615 36.0021 104.589 35.9387 104.577C35.8182 104.551 35.6787 104.558 35.5709 104.627L35.4758 104.704C35.4188 104.761 35.3744 104.831 35.3553 104.913V104.907Z" fill="#36221D"/>
<path d="M61.7277 14.8271C61.7974 16.0902 60.8336 17.1692 59.5718 17.2454C58.3099 17.3152 57.232 16.3504 57.1559 15.0873C57.0862 13.8242 58.05 12.7452 59.3118 12.669C60.5736 12.5992 61.6516 13.564 61.7277 14.8271Z" fill="#1E1F23"/>
<path d="M59.1911 14.7255C59.2164 15.1635 58.8804 15.538 58.4428 15.5634C58.0053 15.5888 57.6312 15.2524 57.6058 14.8144C57.5805 14.3764 57.9165 14.002 58.3541 13.9766C58.7916 13.9512 59.1657 14.2876 59.1911 14.7255Z" fill="white"/>
<path d="M48.7287 14.6811C48.7984 15.9442 47.8346 17.0232 46.5728 17.0994C45.3109 17.1692 44.233 16.2044 44.1569 14.9413C44.0871 13.6782 45.0509 12.5992 46.3128 12.523C47.5746 12.4532 48.6526 13.418 48.7287 14.6811Z" fill="#1E1F23"/>
<path d="M46.192 14.5795C46.2174 15.0175 45.8813 15.392 45.4438 15.4174C45.0063 15.4428 44.6322 15.1064 44.6068 14.6684C44.5815 14.2304 44.9175 13.856 45.355 13.8306C45.7926 13.8052 46.1667 14.1416 46.192 14.5795Z" fill="white"/>
<path d="M46.801 29.0829C48.0565 30.6634 50.2441 31.0315 52.14 31.0759C54.036 31.1204 56.0841 30.8411 57.8532 29.9969C58.8233 29.5399 59.7111 28.8798 60.4086 28.0547C60.5734 27.8579 60.5988 27.5723 60.4086 27.3819C60.2374 27.2105 59.9013 27.1851 59.7364 27.3819C59.4447 27.731 59.1214 28.0483 58.7663 28.3276C58.7472 28.3403 58.7282 28.3593 58.7092 28.372C58.7282 28.3593 58.7663 28.3276 58.6902 28.3847C58.6521 28.4101 58.6141 28.4419 58.576 28.4672C58.4809 28.5371 58.3795 28.6005 58.2844 28.664C58.1005 28.7846 57.9102 28.8925 57.7137 29.0004C57.2825 29.2289 56.9908 29.3559 56.5343 29.5082C56.1031 29.6542 55.6656 29.7748 55.2217 29.8636C54.3467 30.0477 53.497 30.1175 52.5459 30.1175C52.083 30.1175 51.6264 30.0985 51.1635 30.054C51.0557 30.0413 50.9543 30.035 50.8465 30.0223C50.8338 30.0223 50.7387 30.0096 50.7894 30.016C50.8338 30.0223 50.7577 30.016 50.7577 30.016C50.6943 30.0033 50.6309 29.9969 50.5612 29.9842C50.3392 29.9461 50.111 29.9017 49.889 29.8446C49.3627 29.7113 48.9823 29.578 48.5384 29.3241C48.4306 29.2606 48.3228 29.1972 48.2214 29.1274C48.177 29.0956 48.1326 29.0639 48.0882 29.0321C48.0248 28.9877 48.1326 29.0702 48.0755 29.0194C48.0502 29.0004 48.0248 28.9814 48.0058 28.9623C47.8092 28.7973 47.6253 28.6069 47.4668 28.4038C47.3083 28.2007 46.9595 28.2387 46.7947 28.4038C46.5981 28.6005 46.6361 28.8735 46.7947 29.0766L46.801 29.0829Z" fill="#5A261A"/>
</svg>
