<svg width="122" height="141" viewBox="0 0 122 141" fill="none" xmlns="http://www.w3.org/2000/svg">
<path d="M26.2542 61.05C27.8642 68.22 25.3542 95.63 23.3842 97.95C21.4142 100.27 16.2142 102.79 12.0942 100.28C7.9742 97.77 17.8242 92.4 17.8242 88.1C17.8242 83.8 16.3942 54.24 16.3942 54.24C21.2342 50.48 24.6342 53.88 26.2442 61.05H26.2542Z" fill="#E54E1A"/>
<path d="M120.884 104.08C123.414 116.72 111.064 128.19 95.8741 129.09C80.6941 129.98 72.6541 138.02 72.6541 138.02C72.6541 138.02 65.5041 126.41 72.2041 117.48C78.9041 108.55 90.9641 110.33 94.9841 105.42C99.0041 100.51 96.3241 95.6 85.6041 94.26C82.4041 93.86 79.7341 92.86 77.5441 91.66C76.1941 93.38 74.9941 94.75 74.6541 96.01C73.6441 99.82 76.2941 102.71 72.5941 104.48C68.8941 106.25 44.9541 105.68 41.9841 105.12C39.0141 104.57 38.0441 102.18 41.3641 99.53C42.6341 98.52 45.7141 97.96 49.0541 97.62C45.5041 96.93 42.1341 95.92 38.9841 94.54C38.4641 97.91 37.8941 100.37 37.3641 100.99C35.3941 103.32 30.1941 105.83 26.0741 103.32C21.9541 100.81 31.8041 95.44 31.8041 91.14C31.8041 90.97 31.8041 90.75 31.8041 90.5C27.3841 87.35 23.5241 83.18 20.2741 77.79C8.14408 57.63 18.1141 32.43 18.1141 32.43C22.4341 22.71 32.6941 26.49 37.0141 30.81C41.3341 35.13 37.0741 31.04 40.8541 41.84C44.6341 52.64 56.8141 53.57 73.5541 61.67C80.2241 64.9 82.8041 71.46 82.3441 78.19C82.4341 79.81 82.3241 81.28 82.0741 82.62C83.8441 83.12 85.9041 83.47 88.2941 83.56C100.794 84.01 116.874 84.01 120.894 104.1L120.884 104.08Z" fill="#FF6D32"/>
<path d="M29.6842 65.72C29.2742 66.77 26.6742 64.22 26.6742 64.22C26.6742 64.22 26.1042 71.26 25.3542 71.93C24.6042 72.6 20.4842 63.71 20.4842 63.71L19.6542 65.8C19.6542 65.8 16.7242 60.65 15.9542 55.26C15.1742 49.87 17.1842 39.57 17.1842 39.57C17.1842 39.57 32.0942 37.24 31.9442 39.91C31.7942 42.58 30.1442 48.73 29.8642 53.88C29.5842 59.04 30.0942 64.68 29.6742 65.73L29.6842 65.72Z" fill="#FFF9DC"/>
<g style="mix-blend-mode:multiply" opacity="0.5">
<path d="M110.624 87.9C115.394 90.77 119.204 95.66 120.884 104.08C123.414 116.72 111.064 128.19 95.8741 129.09C93.3141 129.24 90.9741 129.6 88.8241 130.08C85.4941 129.06 84.4441 128.21 87.9441 128.21C97.4841 128.21 109.414 119.46 109.414 119.46L105.834 118.27L114.584 110.32L110.604 109.92C110.604 109.92 116.764 104.95 115.974 98.59C115.554 95.22 112.954 91.07 110.604 87.91L110.624 87.9Z" fill="#FF6D32"/>
</g>
<g style="mix-blend-mode:multiply" opacity="0.5">
<path d="M30.0041 28.7C31.1841 28.77 32.4541 28.58 33.7141 28.33C34.9941 29.06 36.1341 29.92 37.0141 30.8C41.1141 34.9 37.4941 31.44 40.3341 40.28C37.6241 43.41 31.2841 50 25.9541 49.85C20.3441 49.7 17.2041 47.7 14.9141 45.43C16.0141 37.74 18.1141 32.43 18.1141 32.43C18.3741 31.84 18.6641 31.3 18.9641 30.8C22.8341 29.68 27.5441 28.57 30.0041 28.71V28.7Z" fill="#FF6D32"/>
</g>
<g style="mix-blend-mode:multiply" opacity="0.5">
<path d="M85.6043 94.26C82.7243 93.9 80.2543 93.05 78.1943 92.01C78.1943 91.76 78.1943 91.62 78.1943 91.62C78.1943 91.62 79.1843 88.64 86.5443 89.23C93.9043 89.83 102.054 94.6 101.854 102.35C101.654 110.1 94.8943 112.29 94.8943 112.29L94.6943 110.5L89.1243 114.08L87.5343 112.29C87.5343 112.29 82.7643 113.28 80.5743 114.88C78.3843 116.47 74.4143 122.04 73.6143 126.61C73.2543 128.68 71.2643 127.45 69.3643 125.21C69.5443 122.63 70.3343 119.95 72.1843 117.48C78.8843 108.55 90.9443 110.33 94.9643 105.42C98.9843 100.51 96.3043 95.6 85.5843 94.26H85.6043Z" fill="#FF6D32"/>
</g>
<path d="M95.6136 129.75C79.9736 132.78 72.5836 140.85 72.5836 140.85C72.5836 140.85 62.0436 126.15 71.9236 117.08C72.9336 116.16 73.6536 115.39 74.8836 114.66V123.3L90.9636 117.05L85.1536 126.43L100.804 128.43C99.2036 128.78 97.2736 129.45 95.6136 129.77V129.75Z" fill="white"/>
<path d="M50.254 30.26L49.244 27.82C49.244 27.82 48.864 28.92 48.484 30.53C48.104 32.14 46.484 33.19 46.484 33.19L46.144 31.53C46.144 31.53 40.904 32.88 38.044 35.82C35.184 38.75 31.524 41.35 26.454 40.98C21.384 40.6 15.334 36.63 13.124 33.83C10.914 31.03 5.92405 29.67 5.92405 29.67L4.42405 31.3L3.65405 27.08L1.92405 28.05C1.42405 23.67 3.94405 17.14 3.94405 17.14C-1.66595 8.81 0.354046 0.35 0.354046 0.35C9.95405 2.95 14.164 9 14.164 9C16.144 8 18.264 7.29 19.834 6.83C21.394 6.37 23.014 6.1 24.634 6.04C32.994 5.72 37.114 8.64 37.114 8.64C41.644 1.48 48.774 0 48.774 0C51.264 9.57 48.194 15.91 48.194 15.91C48.194 15.91 49.954 20.95 50.454 23.9C50.964 26.85 50.244 30.26 50.244 30.26H50.254Z" fill="#FF6D32"/>
<path d="M48.4743 30.53C48.0943 32.14 46.4743 33.18 46.4743 33.18L46.1343 31.52C46.1343 31.52 42.5443 33.46 39.2843 35.93C34.7043 39.41 30.5843 45.92 25.5143 45.54C20.4443 45.16 14.0143 37.25 11.8043 34.45C9.5943 31.65 5.9243 29.66 5.9243 29.66L4.4243 31.29L3.6543 27.07L1.9243 28.04C1.9243 27.98 1.9143 27.91 1.9043 27.85C2.6543 26.61 4.6743 24 8.3843 23.84C14.2343 23.6 22.4443 29.42 26.0943 40.03C26.0943 40.03 31.6443 25.14 40.6643 24.09C47.0843 23.34 50.2643 26.83 50.2943 30.14C50.2843 30.21 50.2743 30.26 50.2743 30.26L49.2643 27.82C49.2643 27.82 48.8843 28.92 48.5043 30.53H48.4743Z" fill="white"/>
<path d="M25.2845 41.76C24.5045 41.18 23.3145 40.12 23.3145 38.99C23.3145 37.31 25.9545 37.45 25.9545 37.45C25.9545 37.45 28.5945 37.31 28.5945 38.99C28.5945 40.12 27.4045 41.18 26.6245 41.76C26.2245 42.05 25.6945 42.05 25.2945 41.76H25.2845Z" fill="#682616"/>
<path d="M9.08441 6.98C10.0544 8.02999 11.9944 10.04 11.9944 10.04C7.94441 11.85 6.02441 15.27 6.02441 15.27C2.88441 13.98 2.27441 9.60999 2.27441 9.60999L3.39441 9.97999C3.39441 9.97999 3.02441 9.01 3.02441 7.81C3.02441 6.61 3.32441 3.62 3.32441 3.62C5.79441 5.12 8.33441 7.50999 8.71441 7.74C9.08441 7.95999 8.11441 5.94 9.08441 6.99V6.98Z" fill="white"/>
<path d="M45.2239 3.76C46.4239 2.86 47.3239 2.41 47.3239 2.41C47.3239 2.41 47.6239 4.51 47.6239 5.7V8.17L48.5239 7.65C48.5239 7.65 48.1539 9.97 47.8539 11.39C47.5539 12.81 46.4339 14.68 46.4339 14.68C46.4339 14.68 44.3339 11.54 39.2539 9.52C39.2539 9.52 40.4539 7.13 41.4239 6.08C42.3939 5.03 42.6939 4.96 42.6939 4.96L42.4739 6.68C42.4739 6.68 44.0439 4.66 45.2439 3.76H45.2239Z" fill="white"/>
<path d="M13.3438 30.3C13.3438 32.21 14.8937 33.76 16.8037 33.76C18.7137 33.76 20.2638 32.21 20.2638 30.3C20.2638 28.39 18.7137 26.84 16.8037 26.84C14.8937 26.84 13.3438 28.39 13.3438 30.3Z" fill="#231F20"/>
<path d="M14.3936 28.95C14.3936 29.58 14.9036 30.08 15.5236 30.08C16.1436 30.08 16.6536 29.57 16.6536 28.95C16.6536 28.33 16.1436 27.82 15.5236 27.82C14.9036 27.82 14.3936 28.33 14.3936 28.95Z" fill="white"/>
<path d="M31.1045 30.3C31.1045 32.21 32.6545 33.76 34.5645 33.76C36.4745 33.76 38.0245 32.21 38.0245 30.3C38.0245 28.39 36.4745 26.84 34.5645 26.84C32.6545 26.84 31.1045 28.39 31.1045 30.3Z" fill="#231F20"/>
<path d="M32.1543 28.95C32.1543 29.58 32.6643 30.08 33.2843 30.08C33.9043 30.08 34.4143 29.57 34.4143 28.95C34.4143 28.33 33.9043 27.82 33.2843 27.82C32.6643 27.82 32.1543 28.33 32.1543 28.95Z" fill="white"/>
<g style="mix-blend-mode:multiply" opacity="0.5">
<path d="M52.3644 84.66C52.3644 84.66 52.3644 90.03 53.9544 92.61C55.5444 95.19 59.5244 97.58 59.5244 97.58C59.5244 97.58 54.1044 97.27 49.0544 97.62C45.5044 96.93 42.1344 95.92 38.9844 94.54C38.9844 94.54 40.8344 81.47 40.8344 78.89C40.8344 76.31 41.8244 72.53 41.8244 72.53C41.8244 72.53 40.6344 77.9 44.8044 81.68C48.9844 85.46 52.3644 84.66 52.3644 84.66Z" fill="#FF6D32"/>
</g>
<g style="mix-blend-mode:multiply" opacity="0.5">
<path d="M29.8944 72.13L31.7444 90.45C30.5444 89.59 29.3944 88.65 28.2744 87.64C28.4444 87.27 28.6544 86.81 28.9044 86.25C29.7044 84.46 29.8944 72.13 29.8944 72.13Z" fill="#FF6D32"/>
</g>
</svg>
