<svg width="107" height="115" viewBox="0 0 107 115" fill="none" xmlns="http://www.w3.org/2000/svg">
<g clip-path="url(#clip0_161_3466)">
<path d="M80.1901 84.145C90.7901 73.545 87.9101 53.495 77.3601 42.945C66.8101 32.395 49.6701 32.435 39.0701 43.035C28.4701 53.635 28.4301 70.775 38.9801 81.325C49.5301 91.875 69.5901 94.745 80.1801 84.155L80.1901 84.145Z" fill="#F54C2B"/>
<path d="M45.8492 77.225C49.4392 75.515 50.1692 69.585 47.4992 63.995C44.8192 58.405 39.7492 55.255 36.1592 56.975C32.5692 58.695 31.8392 64.615 34.5092 70.205C37.1792 75.795 42.2592 78.945 45.8492 77.225Z" fill="#F9604B"/>
<path d="M60.1299 90.705C67.5999 91.275 75.0299 89.325 80.1999 84.145C90.7999 73.545 87.9199 53.495 77.3699 42.945C69.8099 35.385 58.8699 33.265 49.3799 36.565C55.3599 37.165 61.1699 39.745 65.7399 44.315C76.2899 54.865 79.1599 74.925 68.5699 85.515C66.1699 87.915 63.2799 89.615 60.1299 90.705Z" fill="#DD3119"/>
<path d="M80.6893 83.615L39.5993 42.525C39.4193 42.695 39.2493 42.855 39.0693 43.025C38.8993 43.195 38.7393 43.375 38.5693 43.555L79.6593 84.645C79.8393 84.475 80.0193 84.325 80.1893 84.145C80.3593 83.965 80.5193 83.795 80.6893 83.615Z" fill="#4F1008"/>
<path d="M49.3896 59.885C53.0016 59.885 55.9296 56.9569 55.9296 53.345C55.9296 49.7331 53.0016 46.805 49.3896 46.805C45.7777 46.805 42.8496 49.7331 42.8496 53.345C42.8496 56.9569 45.7777 59.885 49.3896 59.885Z" fill="#4F1008"/>
<path d="M75.2598 79.215C77.4198 77.055 77.4198 73.545 75.2598 71.375C73.0998 69.215 69.5898 69.215 67.4198 71.375C65.2598 73.535 65.2598 77.045 67.4198 79.215C69.5798 81.375 73.0898 81.375 75.2598 79.215Z" fill="#4F1008"/>
<path d="M39.0194 71.535C41.2948 71.535 43.1394 69.6904 43.1394 67.415C43.1394 65.1396 41.2948 63.295 39.0194 63.295C36.744 63.295 34.8994 65.1396 34.8994 67.415C34.8994 69.6904 36.744 71.535 39.0194 71.535Z" fill="#4F1008"/>
<path d="M57.2596 73.665C59.3896 71.535 59.3896 68.085 57.2596 65.955C55.1296 63.825 51.6796 63.825 49.5496 65.955C47.4196 68.085 47.4196 71.535 49.5496 73.665C51.6796 75.795 55.1296 75.795 57.2596 73.665Z" fill="#4F1008"/>
<path d="M50.3293 85.065C51.8393 83.555 51.8393 81.095 50.3293 79.585C48.8193 78.075 46.3593 78.075 44.8493 79.585C43.3393 81.095 43.3393 83.555 44.8493 85.065C46.3593 86.575 48.8193 86.575 50.3293 85.065Z" fill="#4F1008"/>
<path d="M63.9491 87.715C65.6091 86.055 65.6091 83.375 63.9491 81.715C62.2891 80.055 59.6091 80.055 57.9491 81.715C56.2891 83.375 56.2891 86.055 57.9491 87.715C59.6091 89.375 62.2891 89.375 63.9491 87.715Z" fill="#4F1008"/>
<path d="M63.4598 47.095C65.7353 47.095 67.5798 45.2504 67.5798 42.975C67.5798 40.6996 65.7353 38.855 63.4598 38.855C61.1844 38.855 59.3398 40.6996 59.3398 42.975C59.3398 45.2504 61.1844 47.095 63.4598 47.095Z" fill="#4F1008"/>
<path d="M69.7098 61.215C71.8398 59.085 71.8398 55.635 69.7098 53.505C67.5798 51.375 64.1298 51.375 61.9998 53.505C59.8698 55.635 59.8698 59.085 61.9998 61.215C64.1298 63.345 67.5798 63.345 69.7098 61.215Z" fill="#4F1008"/>
<path d="M81.1096 54.285C82.6196 52.775 82.6196 50.315 81.1096 48.805C79.5996 47.295 77.1396 47.295 75.6296 48.805C74.1196 50.315 74.1196 52.775 75.6296 54.285C77.1396 55.795 79.5996 55.795 81.1096 54.285Z" fill="#4F1008"/>
<path d="M80.7595 69.145C83.1012 69.145 84.9995 67.2467 84.9995 64.905C84.9995 62.5633 83.1012 60.665 80.7595 60.665C78.4178 60.665 76.5195 62.5633 76.5195 64.905C76.5195 67.2467 78.4178 69.145 80.7595 69.145Z" fill="#4F1008"/>
<path d="M43.2892 47.245C49.6692 40.865 56.9592 37.805 51.6292 32.475C46.2992 27.145 36.7992 27.995 30.4192 34.375C24.0392 40.755 23.1892 50.255 28.5192 55.585C33.8492 60.915 36.9092 53.635 43.2892 47.245Z" fill="#4F1008"/>
<path d="M43.2892 47.245C49.6692 40.865 56.9592 37.805 51.6292 32.475C46.2992 27.145 36.7992 27.995 30.4192 34.375C24.0392 40.755 23.1892 50.255 28.5192 55.585C33.8492 60.915 36.9092 53.635 43.2892 47.245Z" fill="#4F1008"/>
<path d="M39.0799 43.035C42.7799 37.445 39.4799 33.075 36.1299 30.435C34.0999 31.335 32.1499 32.655 30.4199 34.375C24.0799 40.715 23.1999 50.135 28.4299 55.485C31.4699 54.075 34.2999 50.275 39.0799 43.035Z" fill="#60130E"/>
<path d="M42.4601 35.885C45.0172 35.885 47.0901 33.8121 47.0901 31.255C47.0901 28.6979 45.0172 26.625 42.4601 26.625C39.903 26.625 37.8301 28.6979 37.8301 31.255C37.8301 33.8121 39.903 35.885 42.4601 35.885Z" fill="#231F20"/>
<path d="M45.6796 29.455C45.6796 30.295 44.9996 30.975 44.1596 30.975C43.3196 30.975 42.6396 30.295 42.6396 29.455C42.6396 28.615 43.3196 27.935 44.1596 27.935C44.9996 27.935 45.6796 28.615 45.6796 29.455Z" fill="white"/>
<path d="M26.8995 50.175C29.4566 50.175 31.5295 48.1021 31.5295 45.545C31.5295 42.9879 29.4566 40.915 26.8995 40.915C24.3425 40.915 22.2695 42.9879 22.2695 45.545C22.2695 48.1021 24.3425 50.175 26.8995 50.175Z" fill="#231F20"/>
<path d="M28.6098 45.255C29.4493 45.255 30.1298 44.5744 30.1298 43.735C30.1298 42.8955 29.4493 42.215 28.6098 42.215C27.7704 42.215 27.0898 42.8955 27.0898 43.735C27.0898 44.5744 27.7704 45.255 28.6098 45.255Z" fill="white"/>
<g style="mix-blend-mode:multiply">
<path d="M53.2504 116.16C82.7148 116.16 106.6 112.56 106.6 108.12C106.6 103.68 82.7148 100.08 53.2504 100.08C23.786 100.08 -0.0996094 103.68 -0.0996094 108.12C-0.0996094 112.56 23.786 116.16 53.2504 116.16Z" fill="#DAF6D7"/>
</g>
<g clip-path="url(#clip1_161_3466)">
<path d="M36.542 98.8791V109.35C36.542 109.729 36.8728 110.1 37.2718 110.08C37.6707 110.061 38.0015 109.759 38.0015 109.35V98.8791C38.0015 98.4992 37.6707 98.1291 37.2718 98.1486C36.8728 98.168 36.542 98.47 36.542 98.8791Z" fill="#F95B37"/>
<path d="M32.6704 108.882C32.9039 108.619 33.1374 108.366 33.3904 108.122C33.6434 107.879 33.9061 107.616 34.198 107.421C34.198 107.421 34.0715 107.518 34.1299 107.47C34.1494 107.46 34.1591 107.441 34.1786 107.431C34.2078 107.402 34.2467 107.382 34.2759 107.353C34.344 107.304 34.4218 107.246 34.4997 107.197C34.6456 107.1 34.8013 107.002 34.957 106.905C35.1127 106.807 35.2684 106.729 35.424 106.652C35.5019 106.613 35.5797 106.574 35.6673 106.544C35.7841 106.486 35.5214 106.603 35.6381 106.554C35.6868 106.535 35.7257 106.515 35.7743 106.505C36.1441 106.359 36.5333 106.262 36.9225 106.213L36.7279 106.242C37.1171 106.194 37.5063 106.184 37.8858 106.242L37.6912 106.213C38.0318 106.262 38.3723 106.35 38.7031 106.457C38.7907 106.486 38.8686 106.515 38.9464 106.544C38.9951 106.564 39.034 106.574 39.0826 106.593C39.0826 106.593 38.9075 106.515 39.0048 106.564C39.034 106.574 39.0632 106.583 39.0826 106.603C39.2578 106.681 39.4232 106.768 39.5886 106.856C39.754 106.944 39.9292 107.051 40.0946 107.158C40.1724 107.207 40.2503 107.265 40.3184 107.314C40.3573 107.343 40.3865 107.363 40.4254 107.392C40.513 107.46 40.367 107.343 40.367 107.343C40.3865 107.363 40.4157 107.382 40.4351 107.402C40.727 107.635 40.9995 107.898 41.233 108.181C41.2427 108.2 41.2622 108.22 41.2719 108.229C41.3595 108.327 41.1844 108.113 41.233 108.171C41.2622 108.21 41.2914 108.249 41.3206 108.298C41.379 108.376 41.4276 108.463 41.486 108.551C41.5347 108.629 41.5736 108.707 41.6125 108.794C41.6125 108.814 41.632 108.833 41.6417 108.853C41.7001 108.979 41.6028 108.785 41.6125 108.785C41.6125 108.785 41.6611 108.931 41.6709 108.931C41.7974 109.291 42.1769 109.564 42.5661 109.437C42.9261 109.32 43.2083 108.921 43.072 108.541C42.7899 107.733 42.2644 107.051 41.6222 106.496C40.9314 105.902 40.153 105.444 39.2967 105.122C38.5085 104.82 37.6523 104.674 36.8155 104.762C35.8133 104.879 34.8792 105.23 34.0229 105.755C33.118 106.32 32.3201 107.041 31.6195 107.84C31.3665 108.122 31.3179 108.59 31.6195 108.872C31.892 109.126 32.3785 109.184 32.6509 108.872L32.6704 108.882Z" fill="#F95B37"/>
<path d="M68.1953 98.8791V109.35C68.1953 109.729 68.5261 110.1 68.9251 110.08C69.324 110.061 69.6549 109.759 69.6549 109.35V98.8791C69.6549 98.4992 69.324 98.1291 68.9251 98.1486C68.5261 98.168 68.1953 98.47 68.1953 98.8791Z" fill="#F95B37"/>
<path d="M64.3325 108.882C64.566 108.619 64.7995 108.366 65.0525 108.122C65.3055 107.879 65.5682 107.616 65.8601 107.421C65.8601 107.421 65.7337 107.518 65.792 107.47C65.8115 107.46 65.8212 107.441 65.8407 107.431C65.8699 107.402 65.9088 107.382 65.938 107.353C66.0061 107.304 66.0839 107.246 66.1618 107.197C66.3077 107.1 66.4634 107.002 66.6191 106.905C66.7748 106.807 66.9305 106.729 67.0862 106.652C67.164 106.613 67.2418 106.574 67.3294 106.544C67.4462 106.486 67.1835 106.603 67.3002 106.554C67.3489 106.535 67.3878 106.515 67.4364 106.505C67.8062 106.359 68.1954 106.262 68.5846 106.213L68.39 106.242C68.7792 106.194 69.1684 106.184 69.5479 106.242L69.3533 106.213C69.6939 106.262 70.0344 106.35 70.3653 106.457C70.4528 106.486 70.5307 106.515 70.6085 106.544C70.6572 106.564 70.6961 106.574 70.7447 106.593C70.7447 106.593 70.5696 106.515 70.6669 106.564C70.6961 106.574 70.7253 106.583 70.7447 106.603C70.9199 106.681 71.0853 106.768 71.2507 106.856C71.4161 106.944 71.5913 107.051 71.7567 107.158C71.8345 107.207 71.9124 107.265 71.9805 107.314C72.0194 107.343 72.0486 107.363 72.0875 107.392C72.1751 107.46 72.0291 107.343 72.0291 107.343C72.0486 107.363 72.0778 107.382 72.0972 107.402C72.3892 107.635 72.6616 107.898 72.8951 108.181C72.9049 108.2 72.9243 108.22 72.934 108.229C73.0216 108.327 72.8465 108.113 72.8951 108.171C72.9243 108.21 72.9535 108.249 72.9827 108.298C73.0411 108.376 73.0897 108.463 73.1481 108.551C73.1968 108.629 73.2357 108.707 73.2746 108.794C73.2746 108.814 73.2941 108.833 73.3038 108.853C73.3622 108.979 73.2649 108.785 73.2746 108.785C73.2746 108.785 73.3233 108.931 73.333 108.931C73.4595 109.291 73.839 109.564 74.2282 109.437C74.5882 109.32 74.8704 108.921 74.7341 108.541C74.452 107.733 73.9265 107.051 73.2843 106.496C72.5935 105.902 71.8151 105.444 70.9588 105.122C70.1707 104.82 69.3144 104.674 68.4776 104.762C67.4754 104.879 66.5413 105.23 65.685 105.755C64.7801 106.32 63.9822 107.041 63.2816 107.84C63.0286 108.132 62.98 108.59 63.2816 108.872C63.5541 109.126 64.0406 109.184 64.313 108.872L64.3325 108.882Z" fill="#F95B37"/>
<path d="M77.5948 93.9896C70.7155 100.145 61.3356 103.145 52.1113 103.087C45.5531 103.048 38.8586 101.46 33.4973 97.681C26.6374 92.85 22.541 84.8243 20.8382 76.594C19.1451 68.3734 19.6122 59.8607 20.3128 51.494C21.0231 43.069 21.9864 34.5368 25.1779 26.7155C28.3694 18.8943 34.0908 11.7452 41.9237 8.60893C50.2431 5.27786 60.6739 8.34595 67.5045 14.151C73.1481 18.9528 77.0402 25.5078 79.9593 32.3258C87.3348 49.6045 93.5135 79.7205 77.5851 93.9896H77.5948Z" fill="#B4685D"/>
<path d="M86.459 -1.91998C80.6306 2.21951 74.7048 7.47909 68.1077 10.5277C67.5628 10.7809 66.9887 11.0244 66.366 11.0439C65.4514 11.0731 64.6243 10.5959 63.8264 10.1673C57.4434 6.7486 48.7542 5.74538 41.5052 7.24534C37.7201 8.03427 35.3848 9.96279 31.23 9.23229C27.7855 8.62841 24.6913 6.5538 21.9279 4.71294C19.5343 3.11559 17.1309 1.50849 14.7178 -0.0986072C14.7178 2.65781 15.4573 5.40448 16.8292 7.85895C20.05 13.6055 28.885 16.8295 34.947 19.4885C38.5277 21.0566 42.0987 22.917 44.8135 25.6052C48.3261 29.0921 47.3628 32.4134 49.4451 35.9783C50.0192 36.962 51.3425 37.6828 52.4907 37.2834C53.6486 36.8841 54.0767 35.6374 54.4075 34.5562C55.4389 31.1862 57.0639 27.8064 60.0024 25.537C62.9507 23.2676 66.8622 22.3715 70.3554 20.8716C79.8327 16.8003 86.3422 7.58624 86.459 -1.91998Z" fill="#844B43"/>
<path d="M68.0493 29.8031C68.1563 31.7414 66.6773 33.3972 64.741 33.514C62.8047 33.6212 61.1505 32.1407 61.0338 30.2025C60.9267 28.2642 62.4058 26.6084 64.3421 26.4915C66.2784 26.3844 67.9325 27.8649 68.0493 29.8031Z" fill="#1E1F23"/>
<path d="M64.1475 29.6473C64.1864 30.3193 63.6707 30.894 62.9994 30.9329C62.328 30.9719 61.7539 30.4557 61.715 29.7836C61.676 29.1116 62.1917 28.5369 62.8631 28.4979C63.5345 28.459 64.1086 28.9752 64.1475 29.6473Z" fill="white"/>
<path d="M42.2641 29.8031C42.3712 31.7414 40.8922 33.3972 38.9559 33.514C37.0195 33.6212 35.3654 32.1407 35.2486 30.2025C35.1416 28.2642 36.6206 26.6084 38.5569 26.4915C40.4932 26.3844 42.1474 27.8649 42.2641 29.8031Z" fill="#1E1F23"/>
<path d="M38.3624 29.6473C38.4013 30.3193 37.8856 30.894 37.2142 30.9329C36.5428 30.9719 35.9687 30.4557 35.9298 29.7836C35.8909 29.1116 36.4066 28.5369 37.078 28.4979C37.7494 28.459 38.3234 28.9752 38.3624 29.6473Z" fill="white"/>
<path d="M86.7409 87.6878C82.4012 84.0061 79.3459 76.7596 77.4972 71.5097C75.2787 65.2079 73.5564 58.4776 74.5976 51.8739C75.6971 44.8806 83.8802 48.8837 86.8577 52.0005C89.7962 55.0881 92.6764 61.3314 91.9953 65.7144C91.8104 66.9319 90.8666 68.1299 89.6308 68.1689C91.1682 70.2435 92.2483 72.6493 92.7737 75.1817C92.9099 75.8537 93.0072 76.5745 92.7251 77.1979C92.4429 77.8212 91.6353 78.2498 91.0514 77.8991C91.8785 80.1685 92.151 82.6328 91.8299 85.0288C91.6255 86.5969 90.8666 88.4086 89.3097 88.6521C88.3756 88.7982 87.4707 88.3014 86.7507 87.6878H86.7409Z" fill="#844B43"/>
<path d="M55.0099 36.2705C55.0683 36.3971 55.1169 36.5334 55.1461 36.6698C55.7202 38.8808 54.3288 41.5885 53.4044 43.4878C53.0054 44.2865 52.3049 45.0365 51.6043 44.7637C51.1178 44.5787 50.8161 43.9943 50.5437 43.4391C49.522 41.3547 47.0019 38.0821 48.8604 35.7835C49.2788 35.2673 49.9112 34.9556 50.5534 34.8095C51.2053 34.6634 51.8767 34.6634 52.5384 34.6829C52.7622 34.6829 52.9957 34.7023 53.2195 34.7413C54.0174 34.8971 54.6791 35.5108 55.0099 36.2705Z" fill="#FFA648"/>
<path d="M77.2925 58.312C78.8494 64.6138 80.737 70.8766 83.5977 76.7206C84.4053 78.3666 85.2811 79.964 86.2541 81.5224C86.7503 82.3211 88.0153 81.5906 87.519 80.7822C84.1232 75.3375 81.8463 69.2987 80.0851 63.1431C79.5889 61.4093 79.1315 59.6659 78.7034 57.9224C78.4796 57.0069 77.0687 57.3965 77.2925 58.312Z" fill="#B4685D"/>
<path d="M81.2439 53.7342C81.7888 55.5361 82.285 57.3673 82.8786 59.1497C83.4721 60.9321 84.2116 62.7827 85.1944 64.4385C85.7587 65.393 86.4204 66.2988 87.1599 67.117C87.4129 67.3994 87.9383 67.3994 88.1913 67.117C88.4735 66.815 88.4637 66.3865 88.1913 66.0845C88.0356 65.9092 87.8799 65.7339 87.734 65.5586C87.6561 65.4709 87.588 65.3735 87.5199 65.2859C87.4712 65.2177 87.5491 65.3248 87.5491 65.3248C87.5491 65.3248 87.5004 65.2664 87.5004 65.2566C87.4615 65.2079 87.4226 65.1592 87.3934 65.1105C87.1112 64.7307 86.8582 64.3411 86.6053 63.9515C86.1187 63.1625 85.7003 62.3346 85.3209 61.497C85.2819 61.3996 85.2333 61.3022 85.1944 61.2048C85.1846 61.1756 85.1652 61.1366 85.1554 61.1074C85.1554 61.1074 85.2138 61.234 85.1749 61.1561C85.1554 61.0977 85.1263 61.0392 85.1068 60.9808C85.0192 60.7665 84.9316 60.5522 84.8538 60.3379C84.6884 59.8996 84.523 59.4516 84.377 59.0133C84.0754 58.127 83.8029 57.2406 83.5402 56.3446C83.2483 55.3413 82.9564 54.3381 82.6548 53.3446C82.5477 52.9745 82.1391 52.7115 81.7596 52.8382C81.3801 52.9648 81.1271 53.3446 81.2536 53.7342H81.2439Z" fill="#B4685D"/>
<path d="M20.0594 87.6878C24.3991 84.0061 27.4544 76.7596 29.3032 71.5097C31.5217 65.2079 33.2439 58.4776 32.2028 51.8739C31.1033 44.8806 22.9201 48.8837 19.9427 52.0005C17.0041 55.0881 14.124 61.3314 14.8051 65.7144C14.9899 66.9319 15.9338 68.1299 17.1695 68.1689C15.6321 70.2435 14.5521 72.6493 14.0267 75.1817C13.8904 75.8537 13.7931 76.5745 14.0753 77.1979C14.3575 77.8212 15.1651 78.2498 15.7489 77.8991C14.9218 80.1685 14.6494 82.6328 14.9705 85.0288C15.1748 86.5969 15.9338 88.4086 17.4906 88.6521C18.4247 88.7982 19.3296 88.3014 20.0497 87.6878H20.0594Z" fill="#844B43"/>
<path d="M28.0959 57.9224C26.5585 64.1365 24.7195 70.3214 21.888 76.0778C21.0999 77.6849 20.2241 79.2627 19.2803 80.7822C18.7841 81.5808 20.049 82.3211 20.5452 81.5224C23.98 75.9998 26.3055 69.8636 28.0959 63.6398C28.6019 61.8769 29.0689 60.0945 29.5068 58.312C29.7306 57.3965 28.3294 57.0069 28.0959 57.9224Z" fill="#B4685D"/>
<path d="M24.1463 53.3544C23.6112 55.1368 23.1247 56.929 22.5408 58.7016C22.3949 59.1399 22.2392 59.5782 22.0835 60.0068C22.0057 60.2211 21.9181 60.4354 21.8403 60.6496C21.8013 60.7568 21.7527 60.8639 21.7138 60.9711C21.6943 61.0198 21.6749 61.0685 21.6554 61.1172C21.6457 61.1366 21.6359 61.1659 21.6262 61.1951C21.6457 61.1464 21.6651 61.0392 21.6262 61.1951C21.2662 62.0425 20.8575 62.8801 20.3905 63.6788C20.1277 64.1171 19.8553 64.5456 19.5537 64.9644C19.4758 65.0716 19.398 65.1787 19.3201 65.2859C19.3201 65.2859 19.2715 65.3443 19.2715 65.354C19.2715 65.354 19.3591 65.2372 19.2909 65.3346C19.2423 65.393 19.2034 65.4417 19.1547 65.5001C18.9893 65.7047 18.8142 65.9092 18.6293 66.1138C18.3763 66.3962 18.3276 66.8735 18.6293 67.1462C18.9115 67.3994 19.3882 67.4481 19.6607 67.1462C20.9548 65.7047 21.957 64.0489 22.7452 62.2762C23.5333 60.5035 24.1269 58.6627 24.6718 56.8023C24.9734 55.7894 25.2653 54.7667 25.567 53.7537C25.674 53.3836 25.4307 52.9453 25.061 52.8577C24.6912 52.77 24.2826 52.9745 24.1658 53.3641L24.1463 53.3544Z" fill="#B4685D"/>
<path d="M36.0273 73.9837C36.3095 74.9577 36.9323 75.7563 37.7301 76.3602C38.3821 76.857 39.1605 77.1784 39.9584 77.344C41.486 77.6751 43.1791 77.5485 44.5511 76.7693C45.3197 76.331 45.9814 75.6687 46.3706 74.87C46.4582 74.6947 46.4971 74.4999 46.4485 74.3051C46.3998 74.1395 46.2733 73.9544 46.1176 73.8668C45.7868 73.6915 45.3003 73.7596 45.1154 74.1298C44.9986 74.3635 44.8624 74.5875 44.7067 74.7921L44.8235 74.646C44.6289 74.8895 44.4051 75.1135 44.1618 75.3083L44.3078 75.1914C44.0159 75.4154 43.6948 75.6005 43.3542 75.7466L43.5294 75.6687C43.0915 75.8537 42.6439 75.9706 42.1769 76.0291L42.3715 75.9998C41.8071 76.0778 41.233 76.068 40.6687 75.9998L40.8633 76.0291C40.3378 75.9609 39.8221 75.8245 39.3356 75.62L39.5108 75.6979C39.1508 75.5421 38.8005 75.3473 38.4891 75.1038L38.6351 75.2206C38.3529 74.9966 38.0902 74.7434 37.8761 74.4609L37.9929 74.607C37.7983 74.3538 37.6426 74.0908 37.5258 73.7986L37.6036 73.9739C37.555 73.8473 37.5063 73.7207 37.4674 73.5941C37.3604 73.2239 36.9517 72.961 36.5722 73.0876C36.1928 73.2142 35.9495 73.5941 36.0663 73.9837H36.0273Z" fill="#844B43"/>
<path d="M48.1501 74.4707C48.6561 76.1265 50.1935 77.2563 51.8574 77.5388C52.8109 77.6946 53.7645 77.6556 54.7083 77.4511C55.5743 77.2563 56.3527 76.8277 56.9268 76.1557C57.5009 75.4836 57.8804 74.7044 58.2404 73.9058C58.3183 73.7207 58.3669 73.5454 58.3183 73.3408C58.2696 73.1753 58.1431 72.9902 57.9874 72.9025C57.822 72.8149 57.6177 72.7662 57.4231 72.8246C57.2577 72.8831 57.063 72.9902 56.9852 73.1558C56.6836 73.8278 56.3722 74.4999 55.9246 75.094L56.0414 74.9479C55.8468 75.2012 55.6327 75.4252 55.3797 75.62L55.5257 75.5031C55.3213 75.6589 55.0975 75.7856 54.864 75.8927L55.0392 75.8148C54.6305 75.9901 54.1926 76.0778 53.745 76.1362L53.9396 76.107C53.3656 76.1849 52.7817 76.1946 52.2174 76.1167L52.412 76.1459C51.9936 76.0875 51.5752 75.9804 51.1762 75.8148L51.3514 75.8927C51.0303 75.7563 50.7286 75.581 50.4465 75.3667L50.5924 75.4836C50.3297 75.2791 50.1059 75.0551 49.9016 74.7921L50.0183 74.9382C49.8529 74.7142 49.707 74.4707 49.5902 74.2174L49.668 74.3927C49.6291 74.2953 49.5902 74.1882 49.561 74.0908C49.454 73.7304 49.0453 73.4577 48.6658 73.5843C48.2864 73.7109 48.0334 74.0908 48.1599 74.4804L48.1501 74.4707Z" fill="#844B43"/>
<path d="M60.2745 74.5681C61.0821 76.1752 62.6876 77.3829 64.4488 77.7628C65.3537 77.9576 66.2878 77.9381 67.1927 77.6946C68.0976 77.4511 68.876 77.0128 69.5669 76.4381C70.3356 75.7953 70.9194 74.9382 71.2502 73.9837C71.3767 73.6233 71.1043 73.1655 70.7442 73.0876C70.3356 72.9902 69.9853 73.2142 69.8491 73.5941C69.8101 73.6915 69.7809 73.7889 69.7323 73.8863L69.8101 73.711C69.6836 74.0129 69.528 74.2954 69.3431 74.5583C69.3042 74.6168 69.129 74.8408 69.2944 74.6363C69.2458 74.6947 69.1971 74.7629 69.1387 74.8213C69.0317 74.9382 68.9247 75.0551 68.8176 75.1622C68.7106 75.2694 68.5841 75.3765 68.4674 75.4739C68.3214 75.5908 68.5744 75.396 68.4771 75.4739C68.4479 75.4934 68.4187 75.5128 68.3895 75.5323C68.3214 75.581 68.2533 75.6297 68.1852 75.6687C67.9127 75.844 67.6208 75.9998 67.3289 76.1265L67.5041 76.0486C67.0759 76.2336 66.6283 76.3505 66.1613 76.4187L66.3559 76.3895C65.9083 76.4479 65.4607 76.4479 65.0228 76.3895L65.2175 76.4187C64.7504 76.3505 64.3028 76.2239 63.8747 76.0486L64.0498 76.1265C63.7676 76.0096 63.4855 75.8635 63.2227 75.6979C63.0865 75.6103 62.96 75.5226 62.8433 75.4349C62.746 75.357 62.999 75.5615 62.8433 75.4349C62.8141 75.4154 62.7849 75.3862 62.7557 75.3668C62.6973 75.3181 62.6389 75.2694 62.5805 75.2109C62.4638 75.1038 62.3568 74.9966 62.2497 74.8798C62.2011 74.8213 62.1427 74.7629 62.094 74.7044C62.0746 74.6752 62.0454 74.646 62.0259 74.6168C62.0065 74.5973 61.9967 74.5778 61.9773 74.5583C62.0551 74.6557 62.0746 74.685 62.0357 74.6363C61.8411 74.383 61.6756 74.1103 61.5297 73.8278C61.3545 73.4869 60.8486 73.3603 60.5275 73.5649C60.1772 73.7889 60.0799 74.198 60.2647 74.5681H60.2745Z" fill="#844B43"/>
<path d="M36.0273 86.9573C36.3095 87.9313 36.9323 88.73 37.7301 89.3339C38.3821 89.8306 39.1605 90.152 39.9584 90.3176C41.486 90.6488 43.1791 90.5222 44.5511 89.743C45.3197 89.3047 45.9814 88.6423 46.3706 87.8437C46.4582 87.6683 46.4971 87.4735 46.4485 87.2787C46.3998 87.1132 46.2733 86.9281 46.1176 86.8404C45.7868 86.6651 45.3003 86.7333 45.1154 87.1034C44.9986 87.3372 44.8624 87.5612 44.7067 87.7657L44.8235 87.6196C44.6289 87.8631 44.4051 88.0872 44.1618 88.282L44.3078 88.1651C44.0159 88.3891 43.6948 88.5742 43.3542 88.7203L43.5294 88.6423C43.0915 88.8274 42.6439 88.9443 42.1769 89.0027L42.3715 88.9735C41.8071 89.0514 41.233 89.0417 40.6687 88.9735L40.8633 89.0027C40.3378 88.9345 39.8221 88.7982 39.3356 88.5936L39.5108 88.6716C39.1508 88.5157 38.8005 88.3209 38.4891 88.0774L38.6351 88.1943C38.3529 87.9703 38.0902 87.717 37.8761 87.4346L37.9929 87.5807C37.7983 87.3274 37.6426 87.0645 37.5258 86.7723L37.6036 86.9476C37.555 86.821 37.5063 86.6943 37.4674 86.5677C37.3604 86.1976 36.9517 85.9346 36.5722 86.0613C36.1928 86.1879 35.9495 86.5677 36.0663 86.9573H36.0273Z" fill="#844B43"/>
<path d="M48.1501 87.4443C48.6561 89.1001 50.1935 90.23 51.8574 90.5124C52.8109 90.6683 53.7645 90.6293 54.7083 90.4248C55.5743 90.23 56.3527 89.8014 56.9268 89.1294C57.5009 88.4573 57.8804 87.6781 58.2404 86.8794C58.3183 86.6944 58.3669 86.519 58.3183 86.3145C58.2696 86.1489 58.1431 85.9639 57.9874 85.8762C57.822 85.7885 57.6177 85.7398 57.4231 85.7983C57.2577 85.8567 57.063 85.9639 56.9852 86.1294C56.6836 86.8015 56.3722 87.4736 55.9246 88.0677L56.0414 87.9216C55.8468 88.1748 55.6327 88.3989 55.3797 88.5937L55.5257 88.4768C55.3213 88.6326 55.0975 88.7592 54.864 88.8664L55.0392 88.7884C54.6305 88.9638 54.1926 89.0514 53.745 89.1099L53.9396 89.0807C53.3656 89.1586 52.7817 89.1683 52.2174 89.0904L52.412 89.1196C51.9936 89.0612 51.5752 88.954 51.1762 88.7884L51.3514 88.8664C51.0303 88.73 50.7286 88.5547 50.4465 88.3404L50.5924 88.4573C50.3297 88.2528 50.1059 88.0287 49.9016 87.7658L50.0183 87.9119C49.8529 87.6878 49.707 87.4443 49.5902 87.1911L49.668 87.3664C49.6291 87.269 49.5902 87.1619 49.561 87.0645C49.454 86.7041 49.0453 86.4314 48.6658 86.558C48.2864 86.6846 48.0334 87.0645 48.1599 87.4541L48.1501 87.4443Z" fill="#844B43"/>
<path d="M60.2745 87.5417C61.0821 89.1488 62.6876 90.3566 64.4488 90.7364C65.3537 90.9312 66.2878 90.9117 67.1927 90.6682C68.0976 90.4247 68.876 89.9864 69.5669 89.4118C70.3356 88.7689 70.9194 87.9118 71.2502 86.9573C71.3767 86.5969 71.1043 86.1392 70.7442 86.0612C70.3356 85.9638 69.9853 86.1878 69.8491 86.5677C69.8101 86.6651 69.7809 86.7625 69.7323 86.8599L69.8101 86.6846C69.6836 86.9865 69.528 87.269 69.3431 87.532C69.3042 87.5904 69.129 87.8144 69.2944 87.6099C69.2458 87.6683 69.1971 87.7365 69.1387 87.7949C69.0317 87.9118 68.9247 88.0287 68.8176 88.1358C68.7106 88.243 68.5841 88.3501 68.4674 88.4475C68.3214 88.5644 68.5744 88.3696 68.4771 88.4475C68.4479 88.467 68.4187 88.4865 68.3895 88.506C68.3214 88.5547 68.2533 88.6034 68.1852 88.6423C67.9127 88.8176 67.6208 88.9735 67.3289 89.1001L67.5041 89.0222C67.0759 89.2072 66.6283 89.3241 66.1613 89.3923L66.3559 89.3631C65.9083 89.4215 65.4607 89.4215 65.0228 89.3631L65.2175 89.3923C64.7504 89.3241 64.3028 89.1975 63.8747 89.0222L64.0498 89.1001C63.7676 88.9832 63.4855 88.8371 63.2227 88.6715C63.0865 88.5839 62.96 88.4962 62.8433 88.4086C62.746 88.3306 62.999 88.5352 62.8433 88.4086C62.8141 88.3891 62.7849 88.3599 62.7557 88.3404C62.6973 88.2917 62.6389 88.243 62.5805 88.1845C62.4638 88.0774 62.3568 87.9703 62.2497 87.8534C62.2011 87.7949 62.1427 87.7365 62.094 87.6781C62.0746 87.6488 62.0454 87.6196 62.0259 87.5904C62.0065 87.5709 61.9967 87.5514 61.9773 87.532C62.0551 87.6294 62.0746 87.6586 62.0357 87.6099C61.8411 87.3566 61.6756 87.0839 61.5297 86.8015C61.3545 86.4606 60.8486 86.3339 60.5275 86.5385C60.1772 86.7625 60.0799 87.1716 60.2647 87.5417H60.2745Z" fill="#844B43"/>
<path d="M40.3672 80.3244C40.6688 81.2107 41.1553 82.0386 41.8559 82.662C42.5078 83.2561 43.3057 83.6944 44.1523 83.9282C45.0572 84.1814 45.9815 84.1912 46.9059 84.0645C47.8303 83.9379 48.7352 83.4801 49.4553 82.8568C50.2531 82.175 50.8564 81.2205 51.0997 80.1978C51.1872 79.8276 50.9829 79.3893 50.5937 79.3017C50.2045 79.214 49.7861 79.4186 49.6985 79.8082C49.6401 80.0322 49.572 80.2562 49.4844 80.4705L49.5623 80.2952C49.4163 80.6458 49.2217 80.9672 48.9882 81.2692L49.105 81.1231C48.8617 81.4445 48.5698 81.7269 48.2584 81.9704L48.4044 81.8536C48.093 82.0873 47.7622 82.2919 47.4022 82.438L47.5773 82.36C47.227 82.5061 46.867 82.6035 46.4875 82.6522L46.6821 82.623C46.147 82.6912 45.6021 82.7009 45.0669 82.623L45.2615 82.6522C44.7945 82.5841 44.3469 82.4672 43.9187 82.2821L44.0939 82.36C43.7144 82.1945 43.3641 81.9899 43.043 81.7464L43.189 81.8633C42.8776 81.6198 42.5954 81.3471 42.3619 81.0354L42.4787 81.1815C42.2257 80.8503 42.0213 80.49 41.8656 80.1101L41.9435 80.2854C41.8948 80.1685 41.8462 80.0517 41.8073 79.9348C41.6808 79.5744 41.3013 79.3017 40.9121 79.4283C40.5521 79.5452 40.2699 79.9348 40.4061 80.3244H40.3672Z" fill="#844B43"/>
<path d="M54.1935 80.0809C54.3005 80.5971 54.5827 81.0549 54.8843 81.4737C55.186 81.8925 55.4779 82.3016 55.8087 82.7009C56.4509 83.4704 57.2682 84.0938 58.2413 84.3665C59.1656 84.6295 60.2068 84.6002 61.1117 84.2788C61.5593 84.123 61.9971 83.9087 62.3766 83.6165C62.795 83.2951 63.1453 82.9444 63.4664 82.5256C64.0989 81.688 64.4492 80.6555 64.527 79.6134C64.5367 79.4381 64.4394 79.2238 64.3129 79.0972C64.1864 78.9705 63.9821 78.8731 63.7972 78.8829C63.3788 78.9024 63.0967 79.2043 63.0675 79.6134C63.0675 79.701 63.048 79.7887 63.0383 79.8861L63.0675 79.6913C63.0091 80.1199 62.8923 80.5289 62.7269 80.9283L62.8047 80.7529C62.6491 81.1231 62.4447 81.4834 62.1917 81.8049L62.3085 81.6588C62.075 81.9607 61.8025 82.2334 61.5009 82.4672L61.6468 82.3503C61.3744 82.5646 61.0728 82.7302 60.7517 82.8665L60.9268 82.7886C60.5862 82.925 60.236 83.0224 59.8759 83.0711L60.0705 83.0418C59.7105 83.0905 59.3505 83.0905 58.9808 83.0418L59.1754 83.0711C58.8251 83.0224 58.4942 82.9347 58.1634 82.7983L58.3386 82.8763C58.0564 82.7496 57.7839 82.5938 57.5407 82.4087L57.6866 82.5256C57.2585 82.1945 56.8887 81.7854 56.5579 81.3471L56.6747 81.4932C56.4801 81.2497 56.3049 80.9965 56.1201 80.7335C55.9352 80.4705 55.7503 80.2075 55.6238 79.9153L55.7017 80.0906C55.6433 79.964 55.6044 79.8277 55.5752 79.6913C55.4973 79.3212 55.04 79.0679 54.68 79.1848C54.281 79.3114 54.0864 79.6816 54.174 80.0809H54.1935Z" fill="#844B43"/>
</g>
</g>
<defs>
<clipPath id="clip0_161_3466">
<rect width="107" height="115" fill="white"/>
</clipPath>
<clipPath id="clip1_161_3466">
<rect width="79" height="112" fill="white" transform="translate(13.9004 -1.91998)"/>
</clipPath>
</defs>
</svg>
