<svg width="120" height="107" viewBox="0 0 120 107" fill="none" xmlns="http://www.w3.org/2000/svg">
<circle cx="60" cy="54" r="50" fill="#A1D99B"/>
<g clip-path="url(#clip0_1029_1230)">
<path d="M33.9109 49.3814C35.1319 54.8286 33.2283 75.6527 31.7343 77.4153C30.2403 79.1779 26.2967 81.0924 23.1721 79.1855C20.0476 77.2786 27.5177 73.1988 27.5177 69.932C27.5177 66.6652 26.4332 44.2076 26.4332 44.2076C30.1038 41.351 32.6823 43.9341 33.9033 49.3814H33.9109Z" fill="#ED6232"/>
<path d="M105.677 82.0724C107.596 91.6754 98.2297 100.389 86.7098 101.073C75.1975 101.749 69.1 107.858 69.1 107.858C69.1 107.858 63.6775 99.0371 68.7587 92.2527C73.8399 85.4684 82.9861 86.8207 86.0348 83.0904C89.0835 79.3602 87.0511 75.6299 78.9211 74.6119C76.4943 74.308 74.4694 73.5483 72.8085 72.6366C71.7847 73.9433 70.8746 74.9841 70.6168 75.9414C69.8508 78.836 71.8605 81.0316 69.0545 82.3763C66.2485 83.721 48.0927 83.288 45.8403 82.8625C43.5878 82.4447 42.8522 80.6289 45.37 78.6156C46.3332 77.8483 48.669 77.4229 51.2021 77.1646C48.5098 76.6403 45.954 75.873 43.5651 74.8246C43.1707 77.3849 42.7384 79.2538 42.3365 79.7248C40.8425 81.495 36.8989 83.4019 33.7743 81.495C30.6497 79.5881 38.1199 75.5084 38.1199 72.2415C38.1199 72.1124 38.1199 71.9452 38.1199 71.7553C34.7678 69.3622 31.8404 66.1941 29.3756 62.0992C20.1764 46.7831 27.7375 27.6379 27.7375 27.6379C31.0138 20.2534 38.7948 23.1251 42.0711 26.4072C45.3473 29.6892 42.1166 26.5819 44.9833 34.787C47.85 42.992 57.0871 43.6986 69.7826 49.8524C74.841 52.3063 76.7977 57.2901 76.4488 62.4031C76.5171 63.6338 76.4336 64.7506 76.244 65.7687C77.5864 66.1485 79.1487 66.4144 80.9612 66.4828C90.4411 66.8247 102.636 66.8247 105.685 82.0876L105.677 82.0724Z" fill="#FF7F4C"/>
<path d="M36.5119 52.9293C36.201 53.727 34.2292 51.7897 34.2292 51.7897C34.2292 51.7897 33.7969 57.1382 33.2281 57.6472C32.6593 58.1562 29.5348 51.4023 29.5348 51.4023L28.9053 52.9901C28.9053 52.9901 26.6832 49.0775 26.0993 44.9826C25.5077 40.8876 27.0321 33.0624 27.0321 33.0624C27.0321 33.0624 38.3397 31.2923 38.2259 33.3207C38.1121 35.3492 36.8608 40.0215 36.6484 43.9341C36.4361 47.8543 36.8229 52.1392 36.5044 52.9369L36.5119 52.9293Z" fill="#FFF9DC"/>
<g style="mix-blend-mode:multiply" opacity="0.5">
<path d="M97.896 69.78C101.514 71.9604 104.403 75.6755 105.677 82.0724C107.596 91.6754 98.2297 100.389 86.7098 101.073C84.7683 101.187 82.9937 101.461 81.3631 101.825C78.8377 101.05 78.0414 100.405 80.6957 100.405C87.9308 100.405 96.9783 93.757 96.9783 93.757L94.2633 92.8529L100.899 86.8131L97.8808 86.5092C97.8808 86.5092 102.553 82.7334 101.953 77.9015C101.635 75.3412 99.663 72.1884 97.8808 69.7876L97.896 69.78Z" fill="#FF7F4C"/>
</g>
<g style="mix-blend-mode:multiply" opacity="0.5">
<path d="M36.7546 24.8042C37.6495 24.8574 38.6127 24.713 39.5682 24.5231C40.539 25.0777 41.4035 25.731 42.0709 26.3996C45.1803 29.5145 42.435 26.8858 44.5888 33.6018C42.5335 35.9798 37.7254 40.9864 33.6832 40.8724C29.4286 40.7584 27.0473 39.239 25.3105 37.5144C26.1448 31.6721 27.7374 27.638 27.7374 27.638C27.9346 27.1897 28.1545 26.7795 28.382 26.3996C31.317 25.5487 34.889 24.7054 36.7546 24.8118V24.8042Z" fill="#FF7F4C"/>
</g>
<g style="mix-blend-mode:multiply" opacity="0.5">
<path d="M78.9207 74.6119C76.7366 74.3384 74.8633 73.6927 73.3011 72.9025C73.3011 72.7126 73.3011 72.6062 73.3011 72.6062C73.3011 72.6062 74.0519 70.3423 79.6336 70.7905C85.2153 71.2463 91.3962 74.8702 91.2445 80.7581C91.0928 86.646 85.9661 88.3098 85.9661 88.3098L85.8145 86.9499L81.5902 89.6697L80.3844 88.3098C80.3844 88.3098 76.7669 89.0619 75.106 90.2775C73.4452 91.4855 70.4344 95.7171 69.8276 99.1891C69.5546 100.762 68.0454 99.8273 66.6045 98.1255C66.741 96.1654 67.3401 94.1293 68.7431 92.2528C73.8243 85.4684 82.9705 86.8207 86.0192 83.0905C89.068 79.3602 87.0355 75.63 78.9056 74.6119H78.9207Z" fill="#FF7F4C"/>
</g>
<path d="M86.5122 101.575C74.651 103.877 69.0465 110.008 69.0465 110.008C69.0465 110.008 61.0531 98.8396 68.546 91.9489C69.312 91.2499 69.858 90.665 70.7908 90.1104V96.6744L82.9857 91.9261L78.5795 99.0523L90.4482 100.572C89.2348 100.838 87.7711 101.347 86.5122 101.59V101.575Z" fill="white"/>
<path d="M52.1121 25.9893L51.3461 24.1356C51.3461 24.1356 51.0579 24.9713 50.7697 26.1945C50.4815 27.4176 49.253 28.2153 49.253 28.2153L48.9951 26.9542C48.9951 26.9542 45.0211 27.9798 42.8522 30.2134C40.6832 32.4394 37.9075 34.4147 34.0624 34.1336C30.2174 33.8449 25.6292 30.8288 23.9531 28.7016C22.2771 26.5743 18.4927 25.5411 18.4927 25.5411L17.3551 26.7795L16.7712 23.5734L15.4592 24.3104C15.08 20.9827 16.9911 16.0217 16.9911 16.0217C12.7366 9.6932 14.2685 3.2659 14.2685 3.2659C21.549 5.2412 24.7418 9.83755 24.7418 9.83755C26.2435 9.07782 27.8512 8.53841 29.0419 8.18894C30.225 7.83946 31.4536 7.63434 32.6822 7.58875C39.0223 7.34564 42.1469 9.56404 42.1469 9.56404C45.5824 4.1244 50.9897 3 50.9897 3C52.878 10.2706 50.5498 15.0873 50.5498 15.0873C50.5498 15.0873 51.8846 18.9163 52.2638 21.1575C52.6505 23.3987 52.1045 25.9893 52.1045 25.9893H52.1121Z" fill="#FF7F4C"/>
<path d="M50.7625 26.1945C50.4743 27.4177 49.2457 28.2078 49.2457 28.2078L48.9878 26.9466C48.9878 26.9466 46.2652 28.4205 43.7929 30.297C40.3195 32.9409 37.1949 37.8867 33.3499 37.598C29.5049 37.3093 24.6284 31.2999 22.9524 29.1726C21.2763 27.0454 18.4931 25.5335 18.4931 25.5335L17.3555 26.7719L16.7715 23.5658L15.4595 24.3028C15.4595 24.2572 15.4519 24.204 15.4443 24.1584C16.0131 23.2164 17.5451 21.2335 20.3587 21.1119C24.7953 20.9296 31.0216 25.3512 33.7897 33.4119C33.7897 33.4119 37.9988 22.0996 44.8395 21.3019C49.7083 20.7321 52.12 23.3835 52.1427 25.8982C52.1352 25.9514 52.1276 25.9894 52.1276 25.9894L51.3616 24.1356C51.3616 24.1356 51.0734 24.9713 50.7852 26.1945H50.7625Z" fill="white"/>
<path d="M33.1747 34.7262C32.5831 34.2856 31.6807 33.4803 31.6807 32.6218C31.6807 31.3455 33.6828 31.4518 33.6828 31.4518C33.6828 31.4518 35.685 31.3455 35.685 32.6218C35.685 33.4803 34.7825 34.2856 34.1909 34.7262C33.8876 34.9466 33.4856 34.9466 33.1823 34.7262H33.1747Z" fill="#682616"/>
<path d="M20.8892 8.30287C21.6249 9.10058 23.0961 10.6276 23.0961 10.6276C20.0247 12.0027 18.5686 14.601 18.5686 14.601C16.1872 13.621 15.7246 10.3009 15.7246 10.3009L16.574 10.582C16.574 10.582 16.2934 9.84511 16.2934 8.93344C16.2934 8.02177 16.5209 5.75018 16.5209 5.75018C18.3941 6.88977 20.3204 8.70552 20.6086 8.88026C20.8892 9.0474 20.1536 7.51275 20.8892 8.31046V8.30287Z" fill="white"/>
<path d="M48.2971 5.85656C49.2072 5.17281 49.8897 4.83093 49.8897 4.83093C49.8897 4.83093 50.1172 6.42636 50.1172 7.33044V9.20696L50.7998 8.8119C50.7998 8.8119 50.5192 10.5745 50.2917 11.6533C50.0642 12.7321 49.2148 14.1528 49.2148 14.1528C49.2148 14.1528 47.6221 11.7672 43.7695 10.2326C43.7695 10.2326 44.6796 8.41685 45.4152 7.61913C46.1509 6.82142 46.3784 6.76824 46.3784 6.76824L46.2115 8.07497C46.2115 8.07497 47.4022 6.54032 48.3123 5.85656H48.2971Z" fill="white"/>
<path d="M24.1201 26.0198C24.1201 27.4708 25.2956 28.6484 26.7441 28.6484C28.1927 28.6484 29.3682 27.4708 29.3682 26.0198C29.3682 24.5687 28.1927 23.3911 26.7441 23.3911C25.2956 23.3911 24.1201 24.5687 24.1201 26.0198Z" fill="#231F20"/>
<path d="M24.916 24.9941C24.916 25.4727 25.3028 25.8526 25.773 25.8526C26.2432 25.8526 26.63 25.4651 26.63 24.9941C26.63 24.5231 26.2432 24.1356 25.773 24.1356C25.3028 24.1356 24.916 24.5231 24.916 24.9941Z" fill="white"/>
<path d="M37.5889 26.0198C37.5889 27.4708 38.7644 28.6484 40.2129 28.6484C41.6614 28.6484 42.8369 27.4708 42.8369 26.0198C42.8369 24.5687 41.6614 23.3911 40.2129 23.3911C38.7644 23.3911 37.5889 24.5687 37.5889 26.0198Z" fill="#231F20"/>
<path d="M38.3848 24.9941C38.3848 25.4727 38.7715 25.8526 39.2417 25.8526C39.7119 25.8526 40.0987 25.4651 40.0987 24.9941C40.0987 24.5231 39.7119 24.1356 39.2417 24.1356C38.7715 24.1356 38.3848 24.5231 38.3848 24.9941Z" fill="white"/>
<g style="mix-blend-mode:multiply" opacity="0.5">
<path d="M53.7127 67.3185C53.7127 67.3185 53.7127 71.3983 54.9185 73.3584C56.1243 75.3185 59.1427 77.1342 59.1427 77.1342C59.1427 77.1342 55.0323 76.8987 51.2024 77.1646C48.5101 76.6404 45.9544 75.8731 43.5654 74.8246C43.5654 74.8246 44.9684 64.895 44.9684 62.9349C44.9684 60.9748 45.7193 58.103 45.7193 58.103C45.7193 58.103 44.8168 62.1828 47.9792 65.0545C51.1493 67.9263 53.7127 67.3185 53.7127 67.3185Z" fill="#FF7F4C"/>
</g>
<g style="mix-blend-mode:multiply" opacity="0.5">
<path d="M36.671 57.7991L38.074 71.7173C37.1639 71.064 36.2918 70.3498 35.4424 69.5825C35.5713 69.3014 35.7306 68.9519 35.9202 68.5265C36.5269 67.1666 36.671 57.7991 36.671 57.7991Z" fill="#FF7F4C"/>
</g>
</g>
<defs>
<clipPath id="clip0_1029_1230">
<rect width="99" height="107" fill="white" transform="translate(10)"/>
</clipPath>
</defs>
</svg>
