<svg width="100" height="115" viewBox="0 0 100 115" fill="none" xmlns="http://www.w3.org/2000/svg">
<circle cx="50" cy="57.0001" r="50" fill="#F9F5F2"/>
<path d="M66.4771 110.108C66.5984 110.758 66.7342 111.441 67.1619 111.947C67.5895 112.452 68.4101 112.689 68.9215 112.27C69.3694 111.902 69.394 111.237 69.381 110.659C69.0862 97.4914 68.793 84.3241 68.4982 71.1569C68.4665 69.7093 68.4231 68.2125 67.8062 66.9023C67.1893 65.592 65.8356 64.5132 64.3996 64.6911C63.1803 64.8415 62.2282 65.8292 61.5911 66.8806C58.0226 72.7606 60.9106 80.2619 62.0649 86.4456C63.5357 94.333 65.0064 102.22 66.4771 110.108Z" fill="#FFBD54"/>
<path d="M62.3315 82.4355C62.6624 83.1658 63.0308 83.938 63.7155 84.3545C64.2183 84.6611 64.8251 84.7305 65.4102 84.7942C65.8508 84.8419 66.2915 84.8896 66.7321 84.9373C66.8549 84.9503 66.9864 84.9619 67.0918 84.8997C67.193 84.8404 67.2479 84.7291 67.297 84.6235C67.8012 83.549 68.3097 82.4557 68.5033 81.2843C68.5539 80.9821 68.5784 80.6553 68.4369 80.3819C68.3083 80.1346 68.0627 79.9741 67.8243 79.8309C66.904 79.2814 65.9187 78.8447 64.8944 78.5323C64.5679 78.4325 64.2313 78.3443 63.8918 78.3674C63.3443 78.4036 62.8473 78.7246 62.4832 79.1353C61.4069 80.3516 61.7103 81.066 62.3315 82.4355Z" fill="#B16C35"/>
<path d="M30.7929 76.2314C32.2231 80.2575 35.4015 83.8296 35.2917 88.1015C35.2787 88.5961 35.2209 89.095 35.3004 89.5824C35.4203 90.317 35.8407 90.962 36.2366 91.594C39.3802 96.6194 41.4924 102.288 42.404 108.147C42.5875 109.322 42.7291 110.529 43.2434 111.6C43.7577 112.672 44.7372 113.607 45.9219 113.703C48.1121 106.625 44.9583 99.1632 43.1697 91.9743C42.9703 91.1717 42.7854 90.3474 42.8519 89.5231C42.9313 88.5382 43.3619 87.6199 43.7779 86.7233C46.3957 81.0717 48.7304 74.9834 48.1265 68.7823C47.4937 62.2905 41.6773 57.5557 35.1415 60.2673C29.7729 62.4944 29.1546 71.6196 30.7929 76.2314Z" fill="#FFBD54"/>
<path d="M35.7324 87.5939C35.7873 87.7443 35.8509 87.9034 35.9824 87.9945C36.0922 88.0697 36.2323 88.0841 36.3667 88.0943C37.2248 88.1651 38.083 88.236 38.9426 88.3083C39.0249 88.3155 39.116 88.3199 39.1839 88.2721C39.2344 88.2374 39.2619 88.1796 39.2893 88.1246C39.9886 86.6626 40.5809 85.1484 41.0605 83.5996C39.5176 82.7276 37.8359 82.1028 36.0994 81.7529C35.9506 81.7225 35.7902 81.6965 35.6515 81.7586C35.5331 81.8136 35.4522 81.925 35.3785 82.032C35.0968 82.4398 34.711 82.904 34.5348 83.3682C34.3296 83.9076 34.464 84.1087 34.6691 84.6727C35.0231 85.6474 35.3785 86.6206 35.7368 87.5939H35.7324Z" fill="#B16C35"/>
<path d="M82.3608 24.2999C82.5125 25.8487 83.0196 27.3426 83.219 28.8856C83.4183 30.4243 83.3071 31.9862 83.1583 33.5307C82.8043 37.2097 82.2366 40.8685 81.4593 44.481C80.7413 47.8231 79.8095 51.2013 77.8735 54.017C77.3188 52.1384 77.4936 50.1355 77.534 48.1759C77.6511 42.5027 76.5935 36.8626 76.543 31.1879C76.5126 27.7634 76.8492 24.3375 76.6427 20.9187C76.5097 18.7119 76.1558 16.4443 76.8016 14.33C76.9085 13.9815 77.0457 13.6344 77.2827 13.3582C77.5297 13.0719 77.8707 12.881 78.2304 12.7653C79.1203 12.479 80.1475 12.6597 80.8872 13.2324C81.5503 13.7458 82.017 14.6178 82.0069 15.4682C81.9953 16.372 82.2813 17.1761 82.3724 18.1016C82.5775 20.1653 82.1571 22.2348 82.3594 24.2999H82.3608Z" fill="#804420"/>
<path d="M66.1065 10.408C64.6271 9.83537 63.3529 8.85053 61.9992 8.02333C60.6455 7.19613 59.1155 6.50486 57.535 6.62634C56.0484 6.74059 54.65 7.56779 53.1619 7.47234C52.8874 7.45499 52.6057 7.40582 52.3427 7.48391C52.0784 7.56201 51.8414 7.82087 51.9036 8.08985C51.9671 8.36173 52.2734 8.48032 52.5205 8.60902C53.1431 8.93296 53.5621 9.53312 54.0027 10.0798C55.1469 11.4984 56.5888 12.6756 58.2083 13.5129C59.575 14.2187 61.1092 14.6872 62.6406 14.5527C64.2919 14.4067 65.8089 13.5737 67.1481 12.5961C67.5353 12.3141 67.9326 11.9901 68.08 11.5332C68.5351 10.1289 66.8202 10.6872 66.1094 10.4109L66.1065 10.408Z" fill="#FFC052"/>
<path d="M57.5683 12.1955C57.08 11.7993 56.661 11.3264 56.2435 10.855C55.602 10.1304 54.962 9.40591 54.3206 8.68138C54.257 8.60907 54.1891 8.51218 54.2324 8.42686C54.2628 8.36757 54.335 8.34298 54.4 8.33141C54.8739 8.24609 55.3434 8.49049 55.8245 8.51941C56.3692 8.55267 56.8907 8.31117 57.4325 8.25043C57.9901 8.18824 58.5507 8.31984 59.0823 8.50061C59.8466 8.75947 60.5906 9.12969 61.1454 9.71539C61.7001 10.3011 62.0396 11.1283 61.8981 11.9237C61.7579 12.7118 60.9561 13.5896 60.0965 13.4696C59.2427 13.351 58.2213 12.7292 57.5668 12.1984L57.5683 12.1955Z" fill="#9B6344"/>
<path d="M64.8208 4.07968C66.2091 2.30091 68.7735 1.5518 70.9001 2.30235C70.903 2.11724 70.9059 1.93358 70.9102 1.74847C72.8765 1.75426 74.8239 2.65522 76.1011 4.15199C76.5157 4.01894 76.952 4.26768 77.2886 4.54535C77.8983 5.04861 78.4025 5.68058 78.755 6.38775C78.9789 6.83462 79.1436 7.31474 79.4311 7.724C79.7403 8.16508 80.1752 8.50204 80.5306 8.90841C81.2471 9.72693 81.6126 10.7942 81.8785 11.8499C82.3769 13.8369 82.5806 15.8977 82.478 17.944C80.2633 18.1335 78.0471 18.3229 75.8324 18.5124C75.7818 18.5167 75.7312 18.521 75.6835 18.5022C75.555 18.4531 75.5362 18.2824 75.5391 18.145C75.5651 16.4906 75.4986 14.8174 75.0522 13.2237C74.6072 11.6301 73.7534 10.1102 72.4358 9.11087C71.686 8.54108 70.799 8.1564 69.8744 7.98865C69.0364 7.8368 68.6695 7.912 68.3069 7.09782C67.9572 6.31255 67.625 5.6343 66.9532 5.06018C66.7437 4.88085 65.0765 3.74996 64.8193 4.07968H64.8208Z" fill="#804420"/>
<path d="M62.3587 51.2418C61.1494 52.6156 64.062 58.4118 64.7988 60.0561C65.4764 61.5645 66.9543 62.3627 68.3571 62.9586C69.5779 63.4763 70.9128 63.9275 72.1654 63.5197C73.6664 63.0309 77.1135 61.965 77.375 60.2629C78.4108 53.5079 78.5755 46.3017 78.8399 39.2546C78.9685 35.8185 79.0956 32.3824 79.1115 28.9435C79.1375 23.2745 78.8356 17.4638 76.865 12.2476C76.5645 11.4522 76.1961 10.6336 75.5489 10.1709C74.8699 9.6864 73.9915 9.68351 73.2214 9.93948C71.612 10.4746 70.3913 12.0292 69.7108 13.7588C67.366 19.7141 68.3311 26.4532 67.9815 32.7801C67.5726 40.1613 66.4833 46.5577 62.3572 51.2432L62.3587 51.2418Z" fill="#F8C64C"/>
<path d="M67.8413 34.3608C68.1317 33.4815 68.6041 32.6746 69.0649 31.872C71.2999 27.9775 73.3413 23.973 75.1818 19.8761C75.5979 18.9505 76.0068 18.0062 76.1513 17.0026C76.1094 17.2947 74.5953 18.0828 74.3295 18.2622C73.7039 18.6844 73.0726 19.098 72.4369 19.5044C71.1497 20.3273 69.8408 21.1082 68.5203 21.8747C67.4266 22.5095 67.3775 23.049 67.4772 24.2623C67.6058 25.8386 67.7026 27.4178 67.7647 28.9985C67.8341 30.7845 67.8601 32.5734 67.8427 34.3608H67.8413Z" fill="#FFC052"/>
<path d="M60.3118 2.79258C60.2554 2.7087 60.1947 2.61615 60.2092 2.51636C60.2251 2.41224 60.319 2.33849 60.4071 2.28064C60.8102 2.01744 61.2581 1.8251 61.7261 1.71375C62.6999 3.67474 64.1186 5.41302 65.8436 6.75939C66.1253 6.97921 66.433 7.21349 66.5312 7.55767C66.6627 8.02044 66.3637 8.49334 66.0314 8.84186C64.9796 9.94817 62.4644 11.2497 62.3011 8.90838C62.148 6.70878 61.56 4.63209 60.3089 2.79258H60.3118Z" fill="#FFC052"/>
<path d="M63.4578 7.45066C62.0001 8.15205 61.0524 9.63291 60.2968 11.0632C59.8417 11.9236 59.4777 12.8434 58.8824 13.6142C57.9506 14.8217 56.5449 15.552 55.1796 16.2288C53.813 16.9056 52.3971 17.5969 51.4075 18.7567C50.4179 19.9165 50.2127 21.5681 50.7747 22.9867C52.6297 27.6651 57.2282 27.8675 58.3753 27.7851C64.0632 27.3773 68.3958 25.1227 72.8716 22.4256C79.0462 18.7047 78.0754 12.2722 77.8587 11.5057C76.6061 7.07755 68.4262 5.06016 63.4578 7.45066Z" fill="#F8C64C"/>
<path d="M58.3744 27.7851C60.826 27.6087 63.0263 27.0895 65.0937 26.3404C65.2324 25.6448 65.2223 24.9159 65.1414 24.2073C64.916 22.2391 64.133 20.2882 62.6984 18.9245C62.0295 18.2882 61.2363 17.7936 60.3998 17.406C59.3452 16.9172 58.2053 16.615 57.0481 16.5065C56.1596 16.4227 55.2711 16.4617 54.4086 16.6135C53.2962 17.1804 52.2112 17.8139 51.4065 18.7568C50.4169 19.9166 50.2118 21.5681 50.7738 22.9868C52.6288 27.6651 57.2273 27.8676 58.3744 27.7851Z" fill="#804420"/>
<path d="M59.8479 3.71383C59.4289 3.83675 58.9377 3.9481 58.5852 3.68924C58.2182 3.42025 58.1908 2.87361 58.328 2.43976C58.5202 1.82948 58.9608 1.31754 59.4838 0.947323C60.0068 0.577107 60.6078 0.335598 61.216 0.136028C61.4327 0.0651663 61.6552 -0.00280319 61.8835 8.91267e-05C62.3891 0.00587376 62.8558 0.38766 63.006 0.870677C63.1563 1.35369 63.006 1.90757 62.6665 2.28213C61.9889 3.02835 60.7725 3.44339 59.8493 3.71238L59.8479 3.71383Z" fill="#804420"/>
<path d="M79.7761 2.93284C80.0462 3.18881 80.3164 3.44478 80.5865 3.70075C79.217 5.57064 78.1175 7.63864 77.3331 9.8209C77.047 10.6192 76.7899 11.4536 76.2466 12.1029C75.7034 12.7523 74.7774 13.1731 73.9943 12.8506C72.944 12.4182 72.6248 10.9475 72.7707 9.9308C72.8978 9.03997 73.5913 8.74206 74.2833 8.28508C76.4345 6.8635 78.1248 4.88371 79.7775 2.9314L79.7761 2.93284Z" fill="#F8C64C"/>
<path d="M77.8715 3.34505C77.9437 3.74419 78.1387 4.10863 78.3583 4.44847C78.6444 4.891 78.9839 5.30749 79.4144 5.60974C79.8449 5.91343 80.3751 6.09565 80.8981 6.03925C81.0946 6.01756 81.2896 5.9626 81.4558 5.85559C81.7158 5.68783 81.8834 5.40728 81.9903 5.1166C82.3067 4.25613 82.129 3.2337 81.541 2.53087C80.5586 1.35803 77.4655 1.09483 77.8715 3.34361V3.34505Z" fill="#804420"/>
<path d="M69.3523 10.5166C69.6874 10.2172 70.1411 10.0914 70.5817 9.99594C71.1582 9.87157 71.8039 9.79348 72.3009 10.1131C72.8022 10.4356 73.0016 11.082 72.9973 11.6778C72.9857 13.098 71.9181 14.4429 70.5398 14.7769C67.9336 15.4075 67.9769 11.7472 69.3537 10.518L69.3523 10.5166Z" fill="#FFC052"/>
<path d="M60.2266 11.2873C60.1313 11.5896 60.0432 11.902 60.0648 12.2172C60.0851 12.5325 60.2339 12.8579 60.5098 13.0112C60.9042 13.231 61.394 13.0473 61.797 12.8449C62.2492 12.6178 62.6957 12.3662 63.0612 12.0177C63.4281 11.6691 63.7113 11.2136 63.7705 10.7103C63.8312 10.1883 63.6304 9.64161 63.2418 9.2902C61.7566 7.94816 60.6095 10.0841 60.2266 11.2873Z" fill="#FFC052"/>
<path d="M68.6676 12.6568C68.4452 13.0589 68.422 13.565 68.6041 13.9858C68.6835 14.1681 68.7991 14.3344 68.9335 14.4819C69.2036 14.7754 69.5793 15.001 69.978 14.9808C70.4259 14.9577 70.8145 14.6207 70.998 14.2114C71.1829 13.8022 71.1915 13.3351 71.1366 12.8911C71.1193 12.7494 71.0948 12.6077 71.0341 12.4789C70.9243 12.2432 70.6975 12.0726 70.449 11.9959C69.7598 11.7833 69.0259 12.0075 68.6676 12.6568Z" fill="#6E562B"/>
<path d="M68.8857 12.8058C68.7065 13.0719 68.7224 13.4898 68.994 13.659C69.0446 13.6909 69.1024 13.7125 69.1616 13.7125C69.3162 13.7125 69.4347 13.5766 69.5054 13.4392C69.5762 13.3018 69.6282 13.1471 69.7467 13.0502C69.8637 12.9533 70.0342 12.9244 70.1238 12.8015C70.3419 12.4963 69.9287 12.2808 69.673 12.3069C69.3899 12.3358 69.0431 12.5744 68.8857 12.8058Z" fill="white"/>
<path d="M60.2812 10.8824C60.0746 11.1934 59.9821 11.6243 60.037 12.0162C60.0616 12.1854 60.1107 12.3474 60.1772 12.4949C60.3087 12.7899 60.5196 13.043 60.7825 13.0878C61.0787 13.1384 61.3835 12.9085 61.5655 12.586C61.7476 12.2635 61.8256 11.8629 61.8574 11.4725C61.8675 11.3481 61.8733 11.2223 61.853 11.1023C61.8169 10.8824 61.6956 10.7002 61.5439 10.5961C61.1264 10.3054 60.612 10.3821 60.2798 10.8839L60.2812 10.8824Z" fill="#6E562B"/>
<path d="M60.4013 11.0458C60.2438 11.2454 60.1904 11.6084 60.3421 11.7964C60.3695 11.8311 60.4042 11.86 60.4432 11.8687C60.5429 11.8933 60.6411 11.7949 60.709 11.6879C60.7755 11.5809 60.8333 11.4565 60.9257 11.3914C61.0167 11.3278 61.1323 11.3293 61.2089 11.2367C61.3981 11.0082 61.1612 10.758 60.9907 10.7407C60.8015 10.7204 60.5385 10.8708 60.4013 11.0458Z" fill="white"/>
<path d="M53.6729 55.3778C48.1094 56.7271 42.3262 56.3916 36.6181 56.4769C33.6825 56.5203 30.5099 56.7705 28.2692 58.7821C26.2105 60.6288 25.3812 63.5949 25.0677 66.4337C24.6646 70.0896 25.0316 74.0564 27.1596 76.9646C29.9479 80.7781 34.9249 81.7919 39.4613 82.178C44.2563 82.5858 49.0817 82.6003 53.8781 82.22C59.8635 81.7442 66.1581 80.4817 70.6223 76.23C73.7558 73.2465 75.6773 69.0353 76.6554 64.6925C77.6349 60.3497 77.7389 55.842 77.7172 51.3777C77.7028 48.3061 77.1827 44.5273 74.4609 43.4716C70.6613 41.9979 66.5121 47.0074 64.2988 49.4254C61.4729 52.5144 57.5881 54.4277 53.6715 55.3778H53.6729Z" fill="#F8C64C"/>
<path d="M19.6806 66.4684C18.0293 69.8568 17.4759 73.6573 16.9212 77.3869C16.3664 81.1151 15.7654 84.9171 14.0332 88.2635C14.2658 88.7465 15.0084 88.7537 15.4187 88.4081C15.829 88.0625 15.9879 87.5115 16.128 86.9937C17.5077 81.8628 18.8874 76.7333 20.2686 71.6023C20.6225 70.2848 20.9967 68.9283 21.8303 67.8481C22.9312 66.4236 24.7515 65.6557 26.5502 65.6166C27.404 65.5978 28.2809 65.7265 29.0972 65.4749C30.4465 65.0584 31.3394 63.5154 31.0288 62.1357C29.4338 55.0756 20.962 63.8379 19.6806 66.4684Z" fill="#F8C64C"/>
<path d="M11.1264 87.6691C10.6453 89.0849 10.8215 90.6265 10.7926 92.1218C10.7637 93.6172 10.4416 95.2528 9.27712 96.1899C9.72932 96.0366 10.1338 95.7459 10.4242 95.367C10.5441 96.0944 10.2335 96.8406 9.75243 97.3989C9.27279 97.9571 8.63712 98.3562 8 98.7264C10.5976 98.5081 13.107 97.3497 14.9577 95.5131C17.1985 93.2889 19.406 88.8521 17.7012 85.766C15.9994 82.6871 11.9932 85.1195 11.1264 87.6691Z" fill="#804420"/>
<path d="M77.1571 12.1203C78.7362 12.2649 80.3167 11.9511 81.8957 11.8123C83.4748 11.6735 85.1536 11.7356 86.5159 12.5484C87.7974 13.3134 88.6815 14.6757 90.0569 15.2527C90.3112 15.3597 90.5842 15.4407 90.7865 15.6287C90.9888 15.8153 91.0855 16.1537 90.9107 16.3662C90.7345 16.5817 90.4065 16.5514 90.1277 16.5557C89.427 16.5687 88.7841 16.9201 88.147 17.2123C86.4914 17.9744 84.6768 18.3865 82.855 18.4155C81.3179 18.44 79.7359 18.1768 78.4227 17.3728C77.0083 16.5065 76.0201 15.0864 75.2544 13.6128C75.0334 13.1876 74.821 12.7205 74.8918 12.2461C75.1085 10.7855 76.3957 12.0495 77.1557 12.1189L77.1571 12.1203Z" fill="#F8C64C"/>
<path d="M83.7721 13.0661C85.2443 13.458 86.4506 14.761 87.9271 15.1327C88.0441 15.1616 88.1669 15.1876 88.2637 15.2686C88.362 15.3496 88.4256 15.5072 88.3735 15.6331C88.3331 15.7328 88.2377 15.7806 88.1511 15.8225C87.7292 16.0192 87.3073 16.2159 86.8855 16.4125C86.4145 16.6324 85.9392 16.8536 85.4408 16.9592C84.5422 17.1501 83.6118 16.9534 82.7421 16.6266C81.8723 16.2997 81.0416 15.8428 80.1777 15.4913C79.6692 15.2845 79.1491 15.1139 78.6232 14.9823C78.1031 14.8521 77.5397 14.7364 77.1684 14.2896C76.5804 13.5795 77.7188 13.6605 77.9846 13.6605C78.6333 13.6605 79.2762 13.5347 79.9119 13.3944C81.1774 13.1153 82.4863 12.7263 83.7721 13.069V13.0661Z" fill="#9B6344"/>
<path d="M55.4428 25.8733C56.0828 25.934 56.7343 25.947 57.3584 25.7923C58.6211 25.4785 59.6252 24.5153 60.3923 23.464C60.1424 24.1292 59.8072 24.7612 59.3955 25.3397C59.1138 25.7374 58.7916 26.1134 58.3914 26.3925C57.7138 26.8668 56.8485 27.0273 56.0264 26.9406C55.2044 26.8538 54.4199 26.5356 53.7033 26.1249C53.0012 25.7229 52.2283 25.156 51.9307 24.3707C53.0084 25.2066 54.0616 25.7388 55.4428 25.8704V25.8733Z" fill="#2D2D2D"/>
<path d="M51.9149 20.9983C51.8615 21.2904 51.8629 21.6317 52.0811 21.8327C52.136 21.8833 52.2111 21.9224 52.2833 21.9064C52.3657 21.8876 52.4177 21.8038 52.4292 21.7213C52.4393 21.6389 52.4177 21.555 52.4003 21.4726C52.2718 20.9014 52.3209 20.2925 52.5361 19.7488C52.1735 20.0496 52.003 20.5225 51.9164 20.9968L51.9149 20.9983Z" fill="#2D2D2D"/>
<path d="M54.2499 21.2181C54.1964 21.5102 54.1979 21.8515 54.416 22.0525C54.4709 22.1032 54.546 22.1422 54.6183 22.1263C54.7006 22.1075 54.7526 22.0236 54.7642 21.9412C54.7743 21.8588 54.7526 21.7749 54.7339 21.6924C54.6053 21.1212 54.6544 20.5124 54.8697 19.9686C54.507 20.2694 54.3366 20.7423 54.2499 21.2167V21.2181Z" fill="#2D2D2D"/>
<path d="M42.2195 112.504C42.1964 112.819 42.1747 113.148 42.2903 113.443C42.546 114.093 43.3435 114.323 44.0399 114.371C44.9616 114.435 45.8949 114.328 46.779 114.059C46.9481 114.007 47.1243 113.943 47.2384 113.807C47.3757 113.642 47.4234 113.409 47.393 113.198C47.1503 111.577 47.0362 110.103 46.6678 108.479C46.6129 108.786 45.8934 109.369 44.612 109.47C43.0647 109.594 42.5316 108.988 42.5316 108.988C42.5316 108.988 42.2889 111.561 42.2195 112.504Z" fill="#804420"/>
<path d="M65.3735 110.691C65.3272 110.978 65.281 111.278 65.3561 111.557C65.5223 112.173 66.1912 112.446 66.7864 112.545C67.5752 112.675 68.3886 112.65 69.1731 112.474C69.3233 112.439 69.4808 112.396 69.5891 112.28C69.7206 112.14 69.7827 111.93 69.7726 111.733C69.6989 110.228 69.4909 108.915 69.3089 107.396C69.2352 107.674 68.8003 108.103 67.6879 108.096C66.3443 108.089 65.9846 107.468 65.9846 107.468C65.9846 107.468 65.5122 109.832 65.3735 110.691Z" fill="#804420"/>
<path d="M41.8768 80.1592C50.2128 82.541 56.2026 80.6147 58.8854 78.1837C60.5743 76.6522 61.064 72.6435 61.6188 70.4309C62.4033 73.4866 65.7521 76.1678 68.5866 77.5474C66.616 79.8309 63.8046 81.2539 60.9022 82.0753C58.0012 82.8968 54.9775 83.1657 51.9811 83.4955C46.6328 84.0826 41.0924 84.8505 35.9709 83.199C34.6807 82.7825 33.3285 82.1115 32.7954 80.8635C32.1005 79.238 33.0627 77.4346 33.8211 75.8395C34.8209 73.7368 35.5042 71.4837 35.838 69.1785C36.1067 67.3245 37.9227 68.1026 37.1238 69.3622C38.5526 69.6066 40.1287 69.2624 41.1169 70.8401C42.3117 72.7505 43.4299 78.1823 41.8768 80.1592Z" fill="#FFC052"/>
<path d="M70.2781 84.865C71.3458 87.6662 70.9311 90.8419 69.9213 93.6649C68.5936 97.3815 65.9527 100.906 62.4854 102.447C63.1774 103.418 64.0847 104.449 64.7767 105.421C70.4472 100.855 74.6123 94.6425 77.0726 87.7877C78.3468 84.2359 78.9146 80.3399 77.8614 76.7173C76.1494 70.8286 69.93 64.4264 65.2115 65.0107C61.4654 65.4749 60.3096 73.7079 62.9477 77.0528C65.2462 79.9683 68.8204 81.0413 70.2781 84.865Z" fill="#F8C64C"/>
<path d="M61.6301 102.862C61.3802 103.01 61.1201 103.166 60.954 103.403C60.587 103.925 60.8052 104.615 61.11 105.136C61.5145 105.826 62.0534 106.436 62.692 106.926C62.8148 107.02 62.9491 107.113 63.1081 107.123C63.3002 107.134 63.501 107.048 63.6455 106.915C64.7536 105.894 65.6291 104.894 66.6779 103.782C66.4179 103.902 65.8097 103.843 65.1032 102.984C64.2494 101.946 64.495 101.272 64.495 101.272C64.495 101.272 62.3785 102.421 61.6301 102.864V102.862Z" fill="#804420"/>
<path d="M24.0061 74.2517C24.8759 78.4354 27.5385 82.4065 26.8479 86.6235C26.7684 87.1109 26.6427 87.5968 26.6557 88.0914C26.6745 88.8362 27.0039 89.5332 27.3087 90.2115C29.7402 95.6187 31.0607 101.523 31.1661 107.451C31.1878 108.64 31.1632 109.855 31.5273 110.987C31.8914 112.119 32.7351 113.179 33.8952 113.435C37.0273 106.722 34.9195 98.9 34.1249 91.5347C34.0368 90.7118 33.966 89.8716 34.1437 89.0632C34.356 88.0972 34.9079 87.2468 35.4425 86.4153C38.8057 81.173 41.9465 75.4592 42.1921 69.2349C42.4493 62.7185 37.3307 57.2333 30.4857 59.0294C24.8643 60.5045 23.0107 69.4591 24.0061 74.2517Z" fill="#F8C64C"/>
<path d="M30.6255 112.44C30.5792 112.753 30.5345 113.08 30.6284 113.382C30.8364 114.049 31.6165 114.335 32.3071 114.432C33.2216 114.56 34.1607 114.521 35.0622 114.316C35.2341 114.277 35.4161 114.226 35.5375 114.098C35.6863 113.943 35.7513 113.714 35.734 113.5C35.6068 111.866 35.6733 110.359 35.2832 108.784C35.2066 109.087 34.5117 109.574 33.2259 109.584C31.6743 109.597 31.2005 108.961 31.2005 108.961C31.2005 108.961 30.7613 111.505 30.624 112.44H30.6255Z" fill="#804420"/>
<path d="M67.4421 6.32411C67.5288 6.76808 67.5115 7.22651 67.5866 7.67337C67.6256 7.90331 67.7051 8.15205 67.903 8.27497C68.0345 8.35741 68.1992 8.36897 68.3538 8.35885C68.871 8.32414 69.183 7.9091 69.6497 7.68205C70.7881 7.12817 71.8052 7.00959 73.4334 7.35088C73.4767 7.35956 73.5634 7.15854 73.5995 7.13396C73.6356 7.10937 73.6457 7.0602 73.6515 7.01682C73.679 6.78109 73.6515 6.53958 73.5692 6.31688C73.4709 6.05223 73.3019 5.82229 73.13 5.59958C72.8468 5.23226 72.5477 4.87506 72.2025 4.56558C71.4411 3.88299 70.4688 3.45059 69.459 3.2973C68.4491 3.144 67.406 3.26259 66.4381 3.59376C66.2893 3.64437 65.5871 3.89745 65.6406 4.14185C65.6594 4.22862 65.8905 4.27635 65.9628 4.3125C66.1159 4.39059 66.2589 4.49327 66.3933 4.60029C66.9264 5.03124 67.3121 5.64875 67.4421 6.32411Z" fill="#804420"/>
<path d="M76.5052 16.158C76.9559 16.7466 77.5223 17.2961 78.2634 17.2715C78.496 18.5138 78.7589 19.8978 78.8153 21.1501C78.7315 20.8826 78.5133 20.5124 78.379 20.2665C77.8473 19.2788 76.8765 18.6208 76.1209 17.7922C75.5127 17.1255 75.0388 16.3359 74.7354 15.4855C74.5852 15.0633 74.4754 14.6222 74.4681 14.1739C74.4595 13.633 74.6025 13.0516 74.903 12.599C75.0316 13.1413 75.0648 13.6243 75.3003 14.1435C75.6181 14.8434 76.0068 15.5665 76.5052 16.158Z" fill="#FFC052"/>
<path d="M68.6646 26.8335C68.4479 27.3917 68.5042 28.015 68.5823 28.6094C68.7224 29.6767 68.9203 30.7367 69.1746 31.7823C69.1905 31.8474 69.2078 31.9153 69.2497 31.9674C69.3061 32.0397 69.3985 32.0715 69.4852 32.099C70.5124 32.4229 71.6118 32.5126 72.6766 32.3607C72.8499 32.3362 73.0305 32.3014 73.1663 32.1901C73.2689 32.1062 73.3354 31.9862 73.3975 31.869C73.8757 30.9609 74.234 29.989 74.4579 28.9868C74.4868 28.8581 74.5128 28.7236 74.4752 28.5978C74.4377 28.4749 74.3452 28.3795 74.2542 28.2898C73.3021 27.3498 72.2013 26.5602 71.005 25.9629C70.196 25.558 69.0027 25.96 68.6646 26.8321V26.8335Z" fill="#B16C35"/>
<path d="M74.8289 21.7546C74.7668 21.7879 74.7018 21.8255 74.6685 21.8877C74.6411 21.9412 74.6396 22.0034 74.6396 22.0641C74.6396 22.8769 74.6396 23.6896 74.6396 24.5023C74.6396 24.5631 74.6396 24.6296 74.6758 24.6802C74.7075 24.7265 74.761 24.7511 74.8116 24.7742C75.2825 24.9897 75.729 25.2587 76.1378 25.5754C76.2924 25.6954 76.4672 25.8299 76.6608 25.8053C76.8327 24.7872 77.0046 23.7706 77.1766 22.7525C77.1953 22.6455 77.2127 22.5341 77.1881 22.4271C77.1173 22.1118 76.4701 21.5102 76.1667 21.4047C75.7362 21.2543 75.2089 21.5536 74.8289 21.7561V21.7546Z" fill="#B16C35"/>
<path d="M74.0534 33.9877C73.9638 34.1844 73.8786 34.4215 73.9884 34.6081C74.0418 34.6977 74.1314 34.757 74.2181 34.8149C75.2698 35.5221 76.1887 36.4245 76.9154 37.4642C77.304 36.0036 77.603 34.5213 77.9021 33.0404C78.0769 32.1771 78.2994 29.1156 76.5975 29.519C75.5198 29.775 74.4882 33.0202 74.0534 33.9877Z" fill="#B16C35"/>
<path d="M67.719 39.6089C67.3275 40.8917 66.9359 42.1744 66.5444 43.4586C66.5054 43.5873 66.4664 43.7247 66.5054 43.8534C66.5343 43.9488 66.6051 44.0269 66.6716 44.1007C67.8981 45.4413 69.1261 46.7819 70.3527 48.1239C71.2701 46.8599 72.7234 46.0964 73.7709 44.938C73.9572 44.7312 74.1364 44.5013 74.1927 44.2279C74.2404 43.9951 74.1942 43.755 74.1479 43.5208C73.9644 42.5938 73.7824 41.6668 73.5989 40.7398C73.5412 40.4506 73.4733 40.1396 73.2537 39.9415C73.0644 39.7709 72.8 39.7203 72.5501 39.6754C72.0213 39.58 71.3741 39.5626 70.8728 39.3732C70.0522 39.0623 70.3599 38.8193 69.7112 38.3305C68.723 37.5872 67.9848 38.7325 67.7175 39.6075L67.719 39.6089Z" fill="#B16C35"/>
<path d="M75.0486 48.3611C74.8623 48.4464 74.6629 48.5418 74.5618 48.7212C74.4866 48.8542 74.478 49.0118 74.4707 49.1637C74.3667 51.466 74.3349 53.7711 74.3754 56.0763C74.3768 56.1631 74.3826 56.2614 74.4476 56.3193C74.5126 56.3771 74.6094 56.3742 74.6961 56.367C75.5803 56.2976 76.463 56.2267 77.3472 56.1573C78.0825 53.3763 78.4061 50.4869 78.305 47.6105C77.246 47.4355 75.9848 47.9344 75.0501 48.3596L75.0486 48.3611Z" fill="#B16C35"/>
<path d="M64.8959 50.7154C64.4047 51.1825 64.0839 51.7942 63.691 52.3467C63.285 52.9179 62.7953 53.4299 62.2419 53.8594C61.9877 54.0575 61.7146 54.244 61.5311 54.5087C61.1815 55.0134 61.2277 55.6916 61.3708 56.2889C61.6771 57.5702 62.3676 58.7575 63.3298 59.657C63.4844 59.8016 63.6534 59.9419 63.8571 59.9998C64.0579 60.0562 64.2732 60.0258 64.4798 59.994C65.819 59.7915 67.1568 59.5905 68.4961 59.388C68.7084 59.3562 68.9309 59.3201 69.0971 59.1841C69.295 59.0236 69.3701 58.7589 69.4351 58.5117C69.766 57.2477 70.0968 55.9823 70.4277 54.7184C70.4941 54.4639 70.5591 54.1833 70.4479 53.9447C70.3569 53.7495 70.1676 53.6236 69.987 53.5079C69.6201 53.2722 69.2531 53.0365 68.8862 52.8008C68.629 52.6359 68.3675 52.4667 68.1638 52.2382C67.2088 51.1681 66.67 49.0249 64.8959 50.7111V50.7154Z" fill="#B16C35"/>
<path d="M28.6668 61.2941C27.8404 62.9282 27.8462 64.9586 28.6798 66.5884C28.9066 67.0324 29.2013 67.4561 29.6073 67.7454C29.8832 67.9406 30.1996 68.0664 30.5204 68.1749C31.3612 68.4569 32.2424 68.6203 33.1295 68.6579C33.4459 68.6709 33.7724 68.6666 34.0657 68.5437C34.5742 68.3311 34.8762 67.8148 35.1405 67.3303C35.8903 65.9521 36.6185 64.5638 37.3278 63.1654C37.5922 62.6448 37.8595 62.0576 37.6919 61.498C37.5994 61.1899 37.3856 60.934 37.1646 60.7011C36.1504 59.6368 34.2636 58.2181 32.7076 58.2282C31.0693 58.2383 29.3487 59.9448 28.6668 61.2941Z" fill="#B16C35"/>
<path d="M36.9062 57.9578C36.9177 58.0576 36.9842 58.14 37.0492 58.2181C38.0836 59.4546 39.1195 60.691 40.1539 61.9275C40.2434 62.0345 40.3373 62.1444 40.463 62.2066C40.6985 62.3223 40.9788 62.2413 41.2273 62.1574C42.1952 61.8335 43.1632 61.5096 44.1312 61.1871C44.527 61.0555 44.9445 60.908 45.2031 60.5797C45.4011 60.3281 45.4776 60.0056 45.5383 59.6903C45.6683 59.0092 45.7463 58.3164 45.7709 57.6237C45.7825 57.2853 45.7695 56.9108 45.5397 56.662C45.2768 56.3786 44.8405 56.3685 44.4533 56.3786C43.416 56.4061 36.6678 55.7784 36.9076 57.9578H36.9062Z" fill="#B16C35"/>
<path d="M47.0001 62.237C46.9972 62.3801 47.0435 62.5175 47.0911 62.652C47.591 64.0548 48.2397 65.4026 49.0256 66.6666C49.1296 66.8343 49.2611 67.018 49.4561 67.044C49.5977 67.0643 49.735 66.9948 49.8621 66.9283C50.8691 66.3976 51.8746 65.8654 52.8815 65.3346C53.3626 65.0801 53.8582 64.8155 54.1962 64.3889C54.8261 63.5949 54.7568 62.4713 54.6571 61.4633C54.5849 60.7388 54.4433 59.9014 53.8076 59.5457C53.0116 59.1003 50.4674 59.0294 49.5211 59.1726C48.4203 59.3389 47.0261 61.1278 47.0001 62.237Z" fill="#B16C35"/>
<path d="M52.373 57.5977C52.5651 57.7004 52.7891 57.7221 53.0058 57.7438C54.7539 57.9115 56.502 58.0778 58.2515 58.2456C58.3787 58.2571 58.513 58.2687 58.6257 58.2109C58.7528 58.1458 58.8251 58.007 58.8843 57.8768C59.559 56.4075 59.8465 54.7618 59.7092 53.1508C58.9898 53.3576 58.2703 53.5644 57.5508 53.7712C57.064 53.9114 56.5771 54.0503 56.1032 54.2296C55.3968 54.4957 54.725 54.8457 54.0229 55.119C53.4565 55.3388 52.1924 55.3995 51.8659 55.9259C51.5813 56.3858 51.9295 57.3634 52.373 57.6006V57.5977Z" fill="#B16C35"/>
<path d="M57.1623 61.6238C57.0684 61.8277 57.0381 62.0547 57.0135 62.2789C56.846 63.793 56.9428 65.3346 57.2953 66.8155C57.3227 66.9297 57.3559 67.0527 57.447 67.1264C57.5293 67.1944 57.642 67.2088 57.7489 67.2204C58.6547 67.313 59.5692 67.3231 60.4765 67.2493C60.6109 67.2378 60.7525 67.2233 60.8608 67.1438C60.9894 67.0498 61.0428 66.8878 61.0905 66.7359C61.5138 65.3737 61.9386 64.0099 62.3619 62.6477C62.411 62.49 62.4587 62.3136 62.3893 62.1632C62.3315 62.0403 62.2058 61.9651 62.0874 61.8971C61.6424 61.644 61.1974 61.3895 60.7539 61.1364C59.7599 60.5695 57.7706 60.2976 57.1652 61.6252L57.1623 61.6238Z" fill="#B16C35"/>
<path d="M70.1605 62.3888C70.2948 63.5341 70.4884 64.6708 70.7398 65.7959C70.7947 66.0432 70.8655 66.3108 71.0692 66.4612C71.1992 66.5581 71.3653 66.5913 71.5257 66.6173C72.1498 66.7186 72.7855 66.7489 73.4168 66.7113C73.6769 66.6954 73.9543 66.6607 74.1565 66.4959C74.3125 66.3686 74.405 66.1792 74.4874 65.9955C75.0161 64.8299 75.4293 63.6122 75.7211 62.3671C75.6258 62.7764 72.7378 60.9079 72.5023 60.837C71.6369 60.5724 70.0333 61.3114 70.1605 62.3902V62.3888Z" fill="#B16C35"/>
<path d="M63.5148 67.2725C63.4397 67.4229 63.4628 67.6008 63.4888 67.7656C63.6087 68.5147 63.7691 69.2581 63.9699 69.9884C64.0306 70.2082 64.11 70.4483 64.3079 70.5611C64.4365 70.6348 64.5926 70.6377 64.7399 70.6406C65.4941 70.6507 66.2496 70.6608 67.0038 70.671C67.05 70.671 67.0977 70.671 67.1381 70.6522C67.2277 70.6088 67.2494 70.4945 67.2609 70.3947C67.3447 69.6471 67.5297 68.8459 67.5195 68.0939C67.5036 66.9789 67.5094 67.2566 66.5039 66.8502C65.6039 66.4872 64.149 65.9984 63.5134 67.2725H63.5148Z" fill="#B16C35"/>
<path d="M33.9845 71.611C33.8819 71.6486 33.7735 71.6949 33.7129 71.786C33.645 71.8901 33.658 72.0246 33.6738 72.1461C33.8515 73.5011 34.1289 74.8431 34.5031 76.1577C34.6418 76.6436 34.8571 77.1946 35.3382 77.3464C35.5447 77.4115 35.7672 77.3898 35.9825 77.3667C36.663 77.2944 37.3434 77.2235 38.0239 77.1512C38.2507 77.1266 38.4948 77.0963 38.661 76.9386C38.7881 76.8186 38.8474 76.6436 38.9023 76.4773C39.2244 75.4881 39.5451 74.499 39.8673 73.5112C39.9554 73.2393 40.0436 72.9385 39.9309 72.6768C39.8485 72.4844 39.6708 72.35 39.4975 72.2328C37.6815 71.0137 36.101 70.8272 33.9874 71.6095L33.9845 71.611Z" fill="#B16C35"/>
<path d="M25.5851 70.8503C25.5143 70.9009 25.4421 70.9558 25.406 71.0354C25.3626 71.1308 25.38 71.2407 25.3987 71.3449C25.5793 72.3658 25.7599 73.3854 25.9405 74.4064C25.9708 74.5814 26.0214 74.7838 26.1832 74.8576C26.2901 74.9067 26.4158 74.8822 26.5299 74.8576C27.0659 74.7404 27.6019 74.6233 28.1365 74.5062C28.2549 74.4801 28.3792 74.4512 28.4745 74.376C28.6031 74.2719 28.6537 74.1027 28.6941 73.9422C28.9311 73.034 29.1174 72.1113 29.2532 71.1814C29.2763 71.0267 29.2937 70.8561 29.2055 70.7273C29.142 70.6319 29.0336 70.5784 28.9267 70.535C27.7825 70.0607 26.5906 70.1402 25.5837 70.8517L25.5851 70.8503Z" fill="#B16C35"/>
<path d="M44.1453 70.8778C44.6669 70.3239 45.1884 69.77 45.71 69.2147C46.0971 68.804 46.5031 68.3513 46.5681 67.7902C46.6924 66.7172 45.5482 65.9218 45.2953 64.8719C45.2607 64.7302 45.2404 64.5754 45.1422 64.467C44.9515 64.2529 44.6062 64.3368 44.3375 64.4366C43.2193 64.8531 40.2894 65.3361 40.6766 66.9355C40.8138 67.501 44.258 70.7563 44.1439 70.8778H44.1453Z" fill="#B16C35"/>
<path d="M51.4772 71.3651C51.772 72.0549 52.1173 72.7216 52.5088 73.3622C52.5926 73.4996 52.6923 73.6471 52.8468 73.6905C52.9523 73.7209 53.0635 73.6977 53.1704 73.6746C53.8682 73.5242 54.5964 73.3608 55.1483 72.9052C55.7623 72.3976 56.0642 71.595 56.1653 70.804C56.226 70.3282 56.2144 69.8134 55.9501 69.4128C55.5874 68.8647 54.8723 68.6984 54.228 68.5754C53.4637 68.924 52.6995 69.2725 51.9352 69.621C51.2475 69.9348 51.2114 70.7403 51.4787 71.3636L51.4772 71.3651Z" fill="#B16C35"/>
<path d="M70.1114 70.065C70.0016 70.1026 69.886 70.1475 69.8152 70.24C69.7329 70.3456 69.7242 70.4888 69.7199 70.6232C69.6635 72.1504 69.6072 73.6761 69.5508 75.2032C69.5479 75.2799 69.5479 75.3623 69.5956 75.4216C69.6418 75.4795 69.7228 75.4968 69.795 75.5113C70.7369 75.6891 71.6803 75.8656 72.6223 76.0435C72.7451 76.0666 72.8794 76.0883 72.9878 76.0247C73.1077 75.9538 73.151 75.8034 73.1828 75.6674C73.4053 74.7303 73.6264 73.7932 73.8488 72.8561C73.9066 72.6117 73.9644 72.3615 73.9254 72.1128C73.8792 71.8265 73.7087 71.5792 73.531 71.3507C72.5168 70.0592 71.7295 69.5198 70.1143 70.0679L70.1114 70.065Z" fill="#B16C35"/>
<path d="M30.2123 77.8931C30.0808 77.896 29.9436 77.9032 29.8265 77.9639C29.6041 78.0811 29.5203 78.3515 29.4581 78.5959C29.1923 79.6357 28.9265 80.674 28.6607 81.7138C28.6289 81.8396 28.5956 81.9698 28.6217 82.0971C28.6462 82.2229 28.7228 82.3299 28.7993 82.4326C29.3801 83.2048 30.0577 83.9048 30.8104 84.5092C31.3883 83.7457 31.9647 82.9807 32.5426 82.2171C33.0425 81.5562 33.5683 80.7218 33.2491 79.9567C33.0771 79.5431 32.69 79.2611 32.4559 78.8794C32.336 78.6841 32.2565 78.4629 32.115 78.2806C31.7234 77.7759 30.7642 77.8801 30.2108 77.8916L30.2123 77.8931Z" fill="#B16C35"/>
<path d="M64.2312 76.2893L64.8423 77.452C65.0243 77.7991 65.2454 78.1794 65.6224 78.285C65.8579 78.3515 66.1079 78.2951 66.3477 78.2474C67.0816 78.0984 67.8285 78.016 68.5769 78.0044C68.3096 76.7781 67.58 73.7686 66.1382 73.7252C64.89 73.6876 63.6504 75.1888 64.2297 76.2878L64.2312 76.2893Z" fill="#B16C35"/>
<path d="M31.1324 86.0465C30.9648 86.2447 30.8015 86.4558 30.7307 86.7045C30.6758 86.8998 30.6816 87.1051 30.6975 87.3076C30.7466 87.9468 30.8911 88.5788 31.1237 89.176C31.154 89.2541 31.1988 89.3423 31.2812 89.3568C31.3664 89.3713 31.4386 89.2961 31.4935 89.2281C32.1205 88.4544 34.539 86.3011 34.2284 85.3076C33.6563 83.4796 31.6698 85.4146 31.1324 86.0465Z" fill="#B16C35"/>
<path d="M29.1406 90.6424C28.7779 90.4559 28.3373 90.8521 28.3156 91.2599C28.2954 91.6677 28.541 92.0351 28.7765 92.3691C29.0813 92.8015 29.3876 93.2354 29.6924 93.6678C29.782 93.7936 29.8932 93.9324 30.0478 93.9353C30.1085 93.9353 30.1677 93.9136 30.2241 93.8934C30.3021 93.8645 30.3787 93.8355 30.4567 93.8066C30.7052 93.7126 30.9753 93.6013 31.0996 93.3655C31.2643 93.0546 31.1025 92.6772 30.9435 92.3634C30.7196 91.9237 30.487 91.474 30.1186 91.1457C29.7502 90.8174 29.2113 90.6337 28.7534 90.8174L29.1406 90.6439V90.6424Z" fill="#B16C35"/>
<path d="M73.5323 78.2807C73.3358 78.4585 73.1321 78.6451 73.0368 78.8924C72.8851 79.2901 73.0483 79.7312 73.2145 80.1216C73.5077 80.8086 73.8155 81.4882 74.1391 82.1622C74.1867 82.2605 74.2388 82.3646 74.3341 82.4167C74.4352 82.4731 74.5595 82.4586 74.6751 82.4427C75.2631 82.3603 75.8496 82.2778 76.4376 82.1954C76.5488 82.1795 76.6673 82.1607 76.7482 82.0841C76.8392 81.9973 76.8595 81.8614 76.8739 81.7355C76.9794 80.7681 77.5544 77.4838 76.7439 76.8302C75.6676 75.961 74.1564 77.721 73.5337 78.2807H73.5323Z" fill="#B16C35"/>
<path d="M74.1248 85.4073C73.4212 85.0603 72.4562 85.4681 72.2134 86.2143C72.0921 86.586 72.1354 86.9894 72.0849 87.377C72.0487 87.6561 71.965 87.9323 71.9678 88.2143C71.9722 88.4963 72.0892 88.8029 72.3449 88.923C72.7899 89.1326 73.2464 88.6742 73.5281 88.2707C73.859 87.7949 74.1898 87.3192 74.5221 86.8434C74.694 86.5961 74.8746 86.3213 74.8472 86.022C74.8212 85.7226 74.4643 85.4507 74.2158 85.6214L74.1234 85.4088L74.1248 85.4073Z" fill="#B16C35"/>
<path d="M39.5802 89.3524C39.5094 89.4117 39.4372 89.4724 39.3967 89.5563C39.3505 89.6518 39.3534 89.7617 39.3577 89.8672C39.3967 90.7595 39.547 91.646 39.8041 92.5007C39.8605 92.6887 39.9385 92.8955 40.1133 92.9837C40.2 93.0271 40.2997 93.0343 40.3965 93.0416C41.0466 93.0893 41.6982 93.1356 42.3483 93.1833C41.9871 93.1572 41.7386 89.1239 41.7328 88.7016C41.7227 88.0075 41.8441 87.7862 41.1737 88.0567C40.6031 88.2866 40.0411 88.9663 39.5788 89.3539L39.5802 89.3524Z" fill="#B16C35"/>
<path d="M39.2939 95.8312C39.3647 96.0351 39.4413 96.2492 39.6075 96.388C39.7534 96.5109 39.947 96.5557 40.1333 96.5933C40.7054 96.7105 41.2819 96.8002 41.8626 96.8609C41.8886 96.4415 41.9147 96.0163 41.8337 95.6042C41.552 94.158 40.0163 93.8919 38.8389 94.4212C38.9198 94.8941 39.135 95.3713 39.2939 95.8298V95.8312Z" fill="#B16C35"/>
<path d="M63.5016 89.7183C63.5406 89.876 63.5868 90.0408 63.7024 90.1551C63.8787 90.3301 64.1589 90.333 64.4074 90.3243C64.9088 90.3069 65.465 90.2621 65.8074 89.8933C65.9388 89.7516 66.0241 89.5752 66.0992 89.3973C66.3549 88.7899 66.5023 88.1391 66.5355 87.4811C66.5413 87.3582 66.5413 87.2295 66.4792 87.1239C66.118 86.5151 64.1748 86.3777 63.5941 86.7465C62.6796 87.3278 63.2936 88.8897 63.5002 89.7183H63.5016Z" fill="#B16C35"/>
<path d="M67.2229 89.7342C67.1088 90.035 67.1117 90.3662 67.1174 90.6886L67.1391 92.0379C67.142 92.2071 67.1463 92.3807 67.2171 92.5339C67.4122 92.9519 67.9756 93.0025 68.4365 92.9938C68.5607 92.9909 68.6994 92.9837 68.789 92.8984C68.8742 92.8174 68.8915 92.6901 68.9031 92.5744C69.0129 91.5101 69.3654 89.3654 68.8049 88.4485C68.214 88.7479 67.4786 89.0661 67.2229 89.7356V89.7342Z" fill="#B16C35"/>
<path d="M65.0108 96.8696C65.0498 96.9839 65.0946 97.1039 65.1885 97.1791C65.2752 97.2485 65.3908 97.2673 65.502 97.2702C66.6116 97.2991 67.7673 95.4914 66.5726 94.8117C65.1351 93.9932 64.6626 95.8703 65.0108 96.8696Z" fill="#B16C35"/>
<path d="M8 98.7265C10.5976 98.5081 13.107 97.3497 14.9577 95.5131C17.1985 93.2889 19.406 88.8521 17.7012 85.766C17.4484 85.3076 17.1436 84.9735 16.8069 84.7407C16.872 84.9316 16.9196 85.1282 16.9514 85.3264C17.0525 85.9887 16.9803 86.6669 16.8734 87.3278C16.3389 90.615 14.8421 93.8486 12.2359 95.9195C12.4598 95.5261 12.6202 95.0966 12.7069 94.6526C12.1131 95.4292 11.4442 96.1465 10.7117 96.7958C11.5251 95.4654 11.9498 93.8992 11.9195 92.3402C11.697 93.0995 11.2737 93.798 10.7045 94.3461C10.7247 93.8775 10.7377 93.4089 10.7449 92.9404C10.6193 94.1841 10.2321 95.4205 9.27712 96.1885C9.72932 96.0352 10.1338 95.7445 10.4242 95.3656C10.5441 96.093 10.2335 96.8392 9.75243 97.3974C9.27279 97.9557 8.63712 98.3548 8 98.725L8 98.7265Z" fill="#9B5D51"/>
<path d="M65.9156 3.71956C67.8458 4.03193 68.8022 6.06379 68.3066 7.84256C68.2358 8.09564 68.6447 8.2041 68.6967 7.94958C69.0449 6.24311 67.9151 3.69498 65.9214 3.68341C65.9012 3.68341 65.8954 3.71667 65.9171 3.71956H65.9156Z" fill="#9B5D51"/>
<path d="M67.4156 3.01528C68.6681 3.63712 69.5913 5.2467 69.6202 6.62633C69.6202 6.6943 69.7199 6.69286 69.7242 6.62633C69.8051 5.27273 68.7259 3.44623 67.4257 2.99358C67.4127 2.98925 67.404 3.00949 67.4156 3.01672V3.01528Z" fill="#9B5D51"/>
<path d="M69.6195 4.30674C69.8781 4.90834 69.9937 5.50416 70.0024 6.15638C70.0024 6.21278 70.0833 6.21133 70.0876 6.15638C70.1411 5.5056 69.9822 4.8476 69.6557 4.28505C69.6412 4.26046 69.608 4.28215 69.6181 4.30674H69.6195Z" fill="#9B5D51"/>
<path d="M71.2246 2.46865C71.5584 3.11074 71.7028 3.75862 71.7014 4.48604C71.6985 5.18164 71.4688 5.81217 71.3445 6.48608C71.3185 6.62491 71.4861 6.69577 71.5685 6.58008C72.2836 5.57644 72.3602 3.22788 71.2622 2.43105C71.2376 2.41369 71.2131 2.44696 71.2246 2.46865Z" fill="#9B5D51"/>
<path d="M72.6375 3.44335C72.8209 4.48169 72.7328 5.42892 72.3716 6.41665C72.3543 6.46582 72.4323 6.49908 72.4554 6.4528C72.9062 5.51714 72.9813 4.42529 72.662 3.43756C72.6577 3.42165 72.636 3.42888 72.6389 3.44479L72.6375 3.44335Z" fill="#9B5D51"/>
<path d="M73.4514 4.35447C73.4586 5.02115 73.3098 5.6054 73.148 6.24315C73.1264 6.32848 73.2506 6.38632 73.2939 6.30389C73.6002 5.71531 73.6277 4.98644 73.5063 4.34724C73.5005 4.31687 73.4514 4.3241 73.4529 4.35447H73.4514Z" fill="#9B5D51"/>
<path d="M74.4144 3.61688C74.608 4.24596 74.7062 4.81141 74.5704 5.46652C74.4534 6.02908 74.1991 6.5468 74.0445 7.09779C74.0171 7.19468 74.1572 7.25397 74.2064 7.16576C74.7655 6.18382 75.2451 4.58147 74.4664 3.58652C74.4476 3.56193 74.4072 3.58796 74.4158 3.61688H74.4144Z" fill="#9B5D51"/>
<path d="M61.5478 9.51724C61.8397 9.39865 62.159 9.33502 62.4696 9.38419C62.7802 9.43336 63.0792 9.60835 63.2338 9.88167C63.2598 9.92795 63.2829 9.97712 63.3219 10.0104C63.3624 10.0436 63.426 10.0567 63.4664 10.0219C63.4837 10.0075 63.4939 9.98579 63.4996 9.9641C63.5401 9.84118 63.4968 9.70524 63.439 9.58955C63.2324 9.17594 62.8177 8.87225 62.3627 8.79994C62.2688 8.78548 62.1734 8.7797 62.0809 8.79271C61.8122 8.8332 61.5103 9.05736 61.3239 9.24825C61.0682 9.51145 61.2083 9.65173 61.5464 9.51435L61.5478 9.51724Z" fill="#B16C35"/>
<path d="M71.3189 10.4254C71.8333 10.544 72.3187 10.8969 72.4704 11.403C72.505 11.5173 72.5267 11.646 72.6177 11.7212C72.7564 11.8369 72.9861 11.7544 73.0786 11.5997C73.1711 11.445 73.1624 11.2497 73.1321 11.0704C73.0858 10.7913 72.9934 10.5165 72.8301 10.2866C72.4241 9.71824 71.6584 9.53024 70.9621 9.5476C70.6602 9.55483 70.3539 9.59387 70.075 9.7139C69.8728 9.80212 69.0782 10.4081 69.6099 10.531C69.8266 10.5816 70.221 10.4052 70.4463 10.382C70.7367 10.3531 71.0314 10.356 71.3175 10.4225L71.3189 10.4254Z" fill="#B16C35"/>
<path opacity="0.3" d="M59.241 1.58359C59.0272 1.79184 58.8393 2.05648 58.835 2.35584C58.8307 2.65519 59.0835 2.96612 59.3797 2.92563C59.4476 2.91695 59.514 2.88947 59.5632 2.84175C59.6267 2.78101 59.6571 2.69424 59.686 2.61036C59.7914 2.30378 59.9142 1.98562 60.1584 1.77304C60.3361 1.6183 60.5643 1.53442 60.7652 1.4115C60.8562 1.3551 60.9472 1.28713 60.9905 1.18879C61.1827 0.75928 60.391 0.824357 60.1757 0.908234C59.8478 1.03694 59.4866 1.33919 59.2395 1.58214L59.241 1.58359Z" fill="white"/>
<path opacity="0.3" d="M78.9757 2.04204C78.7706 2.11146 78.5669 2.21992 78.4513 2.40358C78.3256 2.6046 78.3328 2.88371 78.4744 3.07315C78.6174 3.2626 78.8876 3.34648 79.1101 3.26405C79.2416 3.21488 79.3499 3.11654 79.4727 3.05002C79.8859 2.82586 80.4147 2.98639 80.7787 3.2814C80.838 3.32912 80.9145 3.38408 80.9824 3.35226C81.007 3.34069 81.0258 3.319 81.0417 3.29731C81.3349 2.89383 80.9015 2.36309 80.5649 2.13894C80.13 1.8497 79.4481 1.88152 78.9757 2.0406V2.04204Z" fill="white"/>
</svg>
