<svg width="120" height="100" viewBox="0 0 120 100" fill="none" xmlns="http://www.w3.org/2000/svg">
<circle cx="60" cy="50" r="50" fill="#A1D99B"/>
<path d="M96.7811 43.8209C86.7709 31.0048 63.9531 30.4797 49.0281 32.2356C49.0281 32.2356 41.4796 32.9414 31.6501 40.137C21.8207 47.3327 18.834 50.6723 13.7471 49.7943C8.66024 48.9164 10.4075 51.9031 11.8191 54.184C12.7745 55.7419 14.0398 57.1535 15.2189 58.5393C17.0265 60.6653 19.1094 61.9908 21.8723 62.6019C22.1133 62.6535 22.9482 62.9462 22.4404 62.9806C21.9756 62.8773 18.4725 62.008 19.6689 63.3335C20.0046 63.7122 20.3402 64.0823 20.6845 64.4611C20.7964 64.5902 20.9169 64.7193 21.046 64.8398C21.8035 65.5456 22.5695 66.2428 23.3356 66.9313C24.4201 67.904 25.539 68.8508 26.701 69.7373C28.7495 71.3038 30.9702 72.7843 33.4146 73.6708C42.194 76.8297 45.525 75.9517 47.4616 77.0104C49.3897 78.0605 47.4616 83.3281 45.8779 83.3281C44.2942 83.3281 42.8912 85.609 46.5837 86.1341C50.2676 86.6591 53.9601 80.1693 53.9601 80.1693C53.9601 80.1693 55.8881 83.681 55.8881 84.2061C55.8881 84.7311 53.4264 85.4369 55.3631 86.1341C57.2911 86.8399 60.8028 86.487 60.8028 84.7311C60.8028 82.9752 60.2778 79.6442 60.2778 79.6442C60.2778 79.6442 75.3749 80.1693 79.7646 79.9971C84.1543 79.825 89.2411 83.156 89.4219 84.2061C89.594 85.2561 86.4093 85.9878 88.6903 87.0464C90.9712 88.0965 93.9837 87.7178 94.3366 86.3148C94.6895 84.9118 95.2662 80.4189 95.2662 80.4189C95.2662 80.4189 97.0393 83.0871 97.22 83.7929C97.3922 84.4987 94.8616 86.4956 98.2013 86.4956C101.541 86.4956 102.995 85.0926 102.995 84.2147C102.995 83.3367 102.376 76.3391 102.901 74.4024C103.426 72.4744 106.791 56.6457 96.7897 43.8295L96.7811 43.8209Z" fill="#F9AE75"/>
<path d="M100.645 82.6653C100.533 81.4001 99.2332 78.9556 97.4343 79.1105C95.6354 79.2655 95.248 80.4102 95.248 80.4102C95.248 80.4102 97.0211 83.0785 97.2019 83.7843C97.374 84.4642 94.9984 86.3751 97.9421 86.4783C97.8646 86.1685 97.7958 85.7639 98.0024 85.2819C98.536 84.0167 100.757 83.9392 100.645 82.6825V82.6653Z" fill="#DD9362"/>
<path d="M96.7799 43.8209C86.7697 31.0048 63.9519 30.4797 49.027 32.2356C49.027 32.2356 41.4785 32.9414 31.649 40.137C29.5316 41.6863 27.7413 43.0463 26.1748 44.2341C27.0011 44.6903 31.9503 47.5565 33.3274 51.6965C34.8337 56.2153 41.8658 61.4916 43.6303 65.5111C45.3948 69.5307 60.4574 74.5573 70.7603 76.5628C78.1367 78.0002 89.8855 80.0832 101.686 77.8281C101.548 76.5973 101.505 75.4267 101.703 74.7123C102.228 72.7843 106.79 56.6285 96.7885 43.8123L96.7799 43.8209Z" fill="#DD9362"/>
<path d="M13.5478 49.0197C13.5478 49.0197 9.87254 46.7474 9.06346 47.7717C8.42652 48.5894 9.22699 52.7553 10.1652 53.0909C11.1034 53.4266 14.9164 50.1214 13.5478 49.0197Z" fill="#682616"/>
<path d="M28.8777 42.1597C29.3684 46.0244 34.5843 48.8476 34.5843 48.8476L33.4138 46.1707C33.4138 46.1707 38.6039 51.0252 39.2753 49.1832C39.9466 47.3413 44.8011 42.1511 46.6431 46.1707C48.485 50.1903 43.4584 53.5385 43.4584 53.5385C41.1172 61.9133 51.1619 67.7749 51.1619 67.7749C49.4835 65.2615 50.9123 61.7498 50.9123 61.7498C50.9123 61.7498 52.1689 65.0119 53.9248 67.2756C55.6807 69.5393 58.0735 70.5378 58.0735 70.5378C57.1955 69.0315 57.9444 65.6403 57.9444 65.6403C57.9444 65.6403 58.5727 67.6458 61.8348 70.7874C65.097 73.929 67.6103 74.0495 67.6103 74.0495C67.6103 74.0495 66.8529 73.6708 65.7253 71.9149C64.5978 70.1591 64.0899 66.7678 64.0899 66.7678C64.0899 66.7678 64.9679 68.4032 67.3521 71.037C69.7363 73.6708 75.6408 75.3062 75.6408 75.3062C74.0055 73.3007 73.885 70.03 73.885 70.03C73.885 70.03 74.5133 71.2866 77.5258 73.9204C80.5384 76.5542 81.795 76.5542 81.795 76.5542C81.795 76.5542 81.2958 76.055 80.6675 74.9189C80.0391 73.7913 80.2887 72.6552 80.2887 72.6552C80.2887 72.6552 84.4374 75.1685 86.8216 76.1755C89.2058 77.1826 93.9828 78.0605 93.9828 78.0605C92.4766 77.4322 90.0924 74.6693 90.0924 74.6693C90.0924 74.6693 91.9774 75.5472 98.3811 77.4322C104.785 79.3172 107.927 77.0535 107.927 77.0535L106.171 74.7898C104.415 72.5261 104.415 69.0918 104.415 69.0918L110.276 71.7686C110.276 68.5065 105.422 62.3867 105.422 62.3867L111.283 65.2357C109.777 58.4532 104.01 54.2271 104.01 54.2271L111.783 57.5323C110.44 50.328 102.822 46.4031 102.822 46.4031C106.145 46.8765 111.12 48.7701 111.12 48.7701C108.279 39.7669 100.688 37.6323 100.688 37.6323C105.189 37.1589 111.826 38.5791 111.826 38.5791C106.136 31.702 98.7857 30.9962 98.7857 30.9962C101.867 28.8616 109.691 27.6738 109.691 27.6738C96.4187 22.2254 91.9085 24.4891 91.9085 24.4891C94.0431 21.6487 99.3452 18.3694 99.3452 18.3694C87.493 17.4226 81.8553 19.9014 81.8553 19.9014C83.5165 16.1056 88.8529 13.3427 88.8529 13.3427C75.5806 12.3959 66.7668 19.0321 66.7668 19.0321C69.1338 15.2363 71.5782 12.4734 71.5782 12.4734C59.7261 13.6612 51.6697 22.9054 51.6697 22.9054C53.3309 18.4038 59.0203 12 59.0203 12C45.7479 17.4484 40.2479 27.45 40.2479 27.45C40.4889 25.3154 43.0883 19.1526 43.0883 19.1526C30.0483 28.1558 28.8691 42.1425 28.8691 42.1425L28.8777 42.1597Z" fill="#682616"/>
<path d="M38.2084 46.7302C38.2084 44.9054 38.2084 43.0807 38.2084 41.256C37.0636 42.5557 35.9188 43.864 34.7741 45.1637C34.6363 43.5455 34.2404 41.9532 33.6121 40.4555C32.9149 41.8413 32.0284 43.1237 30.9783 44.2599C30.4963 42.4093 30.0229 40.5588 29.5409 38.7082C28.9986 40.8256 28.8867 42.1597 28.8867 42.1597C29.3773 46.0244 34.5933 48.8476 34.5933 48.8476L33.4227 46.1707C33.4227 46.1707 38.6129 51.0252 39.2843 49.1832C39.9556 47.3413 44.8101 42.1511 46.652 46.1707C48.494 50.1903 43.4674 53.5385 43.4674 53.5385C41.1262 61.9133 51.1708 67.7749 51.1708 67.7749C49.4924 65.2616 50.9212 61.7498 50.9212 61.7498C50.9212 61.7498 52.1779 65.0119 53.9338 67.2756C55.6896 69.5393 58.0824 70.5378 58.0824 70.5378C57.2045 69.0315 57.9533 65.6403 57.9533 65.6403C57.9533 65.6403 58.5817 67.6458 61.8438 70.7874C65.1059 73.929 67.6193 74.0495 67.6193 74.0495C67.6193 74.0495 66.8618 73.6708 65.7343 71.9149C64.6067 70.1591 64.0989 66.7678 64.0989 66.7678C64.0989 66.7678 64.9768 68.4032 67.361 71.037C69.7452 73.6708 75.6498 75.3062 75.6498 75.3062C74.0144 73.3007 73.8939 70.03 73.8939 70.03C73.8939 70.03 74.5223 71.2866 77.5348 73.9204C80.5473 76.5542 81.804 76.5542 81.804 76.5542C81.804 76.5542 81.3048 76.055 80.6764 74.9189C80.0481 73.7913 80.2977 72.6552 80.2977 72.6552C80.2977 72.6552 84.4464 75.1685 86.8306 76.1755C89.2148 77.1826 93.9918 78.0605 93.9918 78.0605C92.4855 77.4322 90.1013 74.6693 90.1013 74.6693C90.1013 74.6693 91.9863 75.5472 98.3901 77.4322C104.794 79.3172 107.936 77.0535 107.936 77.0535L106.18 74.7898C104.424 72.5261 104.424 69.0918 104.424 69.0918L110.285 71.7686C110.285 68.5065 105.431 62.3867 105.431 62.3867L111.292 65.2357C109.786 58.4532 104.019 54.2271 104.019 54.2271L111.792 57.5323C110.449 50.328 102.831 46.4031 102.831 46.4031C106.154 46.8765 111.129 48.7701 111.129 48.7701C108.288 39.7669 100.697 37.6323 100.697 37.6323C105.198 37.1589 111.835 38.5791 111.835 38.5791C110.785 37.3139 109.683 36.2638 108.581 35.3772C102.763 33.2513 96.6687 31.8913 90.4887 31.3749C96.8925 34.6456 102.255 39.9133 105.646 46.2482C103.339 44.5267 100.688 43.2615 97.9081 42.5299C100.482 46.4978 102.565 50.7756 104.114 55.2427C102.04 53.6332 99.6123 52.4712 97.0474 51.8687C98.8721 56.0518 100.697 60.2349 102.522 64.418C99.4316 63.0495 96.1436 62.1199 92.7954 61.6551C93.9402 65.4165 95.653 68.9971 97.8737 72.242C88.5262 69.5566 79.9276 64.2803 73.3 57.1621C72.973 61.001 73.2828 64.8828 74.221 68.6184C67.6451 64.7107 63.6858 57.6872 60.0191 50.9649C59.1325 55.5784 59.5285 60.4243 61.1552 64.8312C55.6982 61.0354 51.8336 55.0017 50.6716 48.4516C49.3547 51.6793 48.0464 54.9071 46.7295 58.1348C47.048 53.0909 47.7968 48.0815 48.9674 43.1668C47.53 43.4078 46.1012 43.6488 44.6638 43.8898C44.7154 43.1668 44.7757 42.4524 44.8273 41.7294C42.2968 42.8741 40.0159 44.5698 38.1997 46.6785L38.2084 46.7302Z" fill="#561D11"/>
<path d="M44.8359 49.5878C45.5417 49.0541 45.6364 46.2223 43.6826 46.9281C41.7287 47.6339 39.7835 51.4469 39.7835 51.4469C39.0777 53.3061 40.4032 53.4868 41.2898 53.9258C42.1763 54.3648 41.6427 53.3061 41.7287 52.7724C41.8148 52.2388 42.7013 52.3335 43.235 52.1527C43.7686 51.972 43.1489 51.2662 43.1489 50.8272C43.1489 50.3882 44.1215 50.1214 44.8359 49.5878Z" fill="#DD9362"/>
<path d="M56.3868 74.9275C56.3266 74.3594 53.9424 80.1607 53.9424 80.1607C53.9424 80.1607 56.3954 80.0918 58.1685 80.7804C59.3649 81.2452 60.0535 81.753 60.6818 82.9322C60.5269 81.3226 60.2601 79.6356 60.2601 79.6356C60.2601 79.6356 56.3868 79.386 56.2147 79.2225C56.0425 79.0503 56.4471 75.5041 56.3868 74.9361V74.9275Z" fill="#DD9362"/>
<path d="M42.2028 29.2059C41.2302 31.2974 40.3694 33.6042 40.7223 35.9023C41.4367 33.7161 42.5299 31.6589 43.9242 29.8772C44.5009 31.4438 45.0776 33.0103 45.6543 34.5854C47.7028 31.461 50.4399 28.8444 53.5988 27.0196C53.1426 29.1026 52.497 31.1425 51.6621 33.0963C55.9657 30.9015 60.2608 28.7153 64.5644 26.5204C64.2803 28.3624 64.1598 30.2301 64.2201 32.0893C67.3015 30.3765 70.6497 29.1973 74.084 28.6034C73.4729 30.2473 72.8617 31.8827 72.242 33.5267C74.9275 33.0275 77.6043 32.5283 80.2898 32.029C79.6701 33.1394 79.0589 34.2583 78.4392 35.3686C80.9525 34.7834 83.5691 34.6801 86.1169 35.0674C85.1787 35.7474 84.3094 36.5134 83.5089 37.3569C86.2546 37.8734 88.9573 38.6222 91.5911 39.5862C89.818 40.4125 88.0363 41.2474 86.2632 42.0737C90.6443 44.3804 94.8188 47.1089 98.7265 50.2161C97.2977 46.6786 94.879 43.5972 91.8493 41.4626C93.6482 41.9704 95.4385 42.4782 97.2374 42.986C95.7742 39.7325 93.0371 37.1417 89.818 35.9712C91.5308 35.558 93.2523 35.1449 94.9651 34.7403C91.2038 33.3115 87.2272 32.5283 83.2335 32.4336C84.9807 31.1253 86.728 29.8084 88.4753 28.5001C84.1372 28.3107 79.7647 28.7927 75.5558 29.9375C76.6661 27.7943 77.7851 25.6511 78.8954 23.4993C74.5488 24.7559 70.1935 26.0126 65.8468 27.2606C66.6731 25.324 67.706 23.4821 68.911 21.7864C64.2975 23.3874 59.8648 25.5478 55.7161 28.216C56.4564 26.2019 57.1966 24.1879 57.9282 22.1652C54.9157 23.198 52.0322 24.6354 49.364 26.4516C47.7286 27.5619 46.1019 28.9132 45.353 30.8154C45.3788 28.3021 45.4133 25.7802 45.4391 23.2669C44.2255 25.1691 43.1324 27.1573 42.1684 29.2145L42.2028 29.2059Z" fill="#7F3121"/>
<path d="M42.1934 38.7513C42.4602 38.605 42.727 38.4587 42.9938 38.3037C43.0283 39.2075 43.0713 40.1112 43.1057 41.0064C44.4571 40.1887 45.8084 39.371 47.1597 38.5533L46.7122 40.8945C48.9673 39.8358 51.274 38.9062 53.6324 38.1144C52.9094 39.3452 52.4876 40.7654 52.4015 42.2114C55.5346 41.1785 58.7881 40.5502 62.0675 40.3522C60.8797 41.5573 59.6833 42.7537 58.4955 43.9587C61.4563 42.8225 64.641 42.3319 67.7913 42.5299C66.6895 43.6402 65.5964 44.7505 64.4947 45.8695C67.8515 45.5166 71.2083 45.1723 74.5652 44.8194C74.1004 45.4908 73.627 46.1535 73.1622 46.8249C75.0127 47.2466 76.8719 47.6942 78.5933 48.5205C80.0135 49.2091 81.3132 50.1473 82.6474 51.0252C86.1161 53.3061 90.0754 55.2083 94.1294 54.7694C90.4111 53.1512 86.7616 51.3351 83.2068 49.3468C84.2311 49.0542 85.2639 48.7615 86.2882 48.4689C82.7937 47.7372 79.3766 46.5667 76.1317 45.0001C77.1818 44.2685 78.2404 43.5455 79.2905 42.8139C76.2952 42.6848 73.2913 42.7451 70.3046 42.9947C71.2342 42.1167 72.1551 41.2474 73.0847 40.3695C70.2185 40.2834 67.3523 40.4641 64.5205 40.9031C65.3382 39.612 66.1645 38.3209 66.9822 37.0299C63.5737 38.1058 60.0964 38.9407 56.5847 39.5346C57.1786 37.8561 57.7811 36.1777 58.375 34.4993C55.328 35.5838 52.3413 36.8835 49.4579 38.3898C49.8108 37.2622 50.155 36.1433 50.5079 35.0158C48.425 36.4446 46.3076 37.8131 44.1472 39.1042C44.1558 37.9078 44.173 36.7114 44.1816 35.5064C43.5189 36.5737 42.8647 37.6496 42.202 38.7169L42.1934 38.7513Z" fill="#7F3121"/>
<path d="M28.6626 53.4094C28.6626 55.3805 27.0616 56.9814 25.0906 56.9814C23.1195 56.9814 21.5186 55.3805 21.5186 53.4094C21.5186 51.4383 23.1195 49.8374 25.0906 49.8374C27.0616 49.8374 28.6626 51.4383 28.6626 53.4094Z" fill="#231F20"/>
<path d="M26.4079 53.1857C27.0544 53.1857 27.5785 52.6616 27.5785 52.0151C27.5785 51.3686 27.0544 50.8445 26.4079 50.8445C25.7614 50.8445 25.2373 51.3686 25.2373 52.0151C25.2373 52.6616 25.7614 53.1857 26.4079 53.1857Z" fill="white"/>
</svg>
