<svg width="111" height="100" viewBox="0 0 111 100" fill="none" xmlns="http://www.w3.org/2000/svg">
<circle cx="60.5" cy="50" r="50" fill="#F9F5F2"/>
<path d="M21.8781 24.8243C22.1232 25.2434 22.5646 25.49 22.9977 25.7037C23.6025 25.9995 24.2318 26.2461 24.8692 26.4433C25.2288 26.5584 25.6129 26.657 25.9889 26.583C26.3648 26.5091 26.7244 26.2296 26.7571 25.8516C26.3648 25.301 26.0461 24.6928 25.8336 24.0518C25.6375 23.4683 25.523 22.8437 25.2533 22.293C24.9837 21.7342 24.5178 21.2247 23.913 21.1178C23.3328 21.011 22.7198 21.3068 22.3357 21.7589C21.9516 22.2109 21.7718 22.8108 21.6901 23.4025C21.6247 23.8874 21.6329 24.4052 21.8781 24.8243Z" fill="#55626D"/>
<path d="M37.2587 21.8575C37.986 21.7917 38.599 22.3835 38.9994 22.9916C39.3427 23.5094 39.6287 24.1586 39.4162 24.7421C39.2283 25.2599 38.7134 25.564 38.2394 25.8352C37.5284 26.2297 36.801 26.6406 36.0001 26.8132C35.1992 26.9858 34.3084 26.8954 33.6709 26.3776C34.3574 26.0324 34.9295 25.4571 35.2564 24.7586C35.5261 24.1997 35.6405 23.5751 35.902 23.0081C36.1635 22.441 36.6457 21.915 37.2587 21.8575Z" fill="#6A7984"/>
<path d="M34.9707 26.4434C35.9024 25.6544 36.6297 24.6271 37.0711 23.4847C37.1773 23.2135 37.2672 22.9259 37.4633 22.704C37.6513 22.4821 37.97 22.3342 38.2397 22.441C38.4931 22.5396 38.6238 22.8273 38.7301 23.082C38.9099 23.5094 39.0897 23.9861 38.9507 24.4381C38.8282 24.8326 38.4849 25.112 38.1417 25.3421C37.1936 25.9585 36.0985 26.3447 34.9707 26.4434Z" fill="#55626D"/>
<path d="M85.7306 88.7962C85.4364 91.4096 72.9242 90.5878 72.9242 88.7962C72.9242 77.2904 70.7912 45.7565 79.3315 45.7565C87.8719 45.7565 87.0219 77.2904 85.7306 88.7962Z" fill="#55626D"/>
<path d="M80.2224 86.8895C79.5114 86.8895 78.8984 87.5305 78.5715 88.4757C78.2937 87.3497 77.6154 86.5443 76.8226 86.5443C76.0953 86.5443 75.466 87.2182 75.1554 88.1962C74.9021 86.9881 74.1992 86.1088 73.3738 86.1088C73.2103 86.1088 73.0469 86.1499 72.8916 86.2156C72.9079 87.1525 72.9161 88.0154 72.9161 88.788C72.9161 89.9632 78.2937 90.7193 82.0776 90.3659C82.0858 90.2344 82.0939 90.0947 82.0939 89.955C82.0939 88.262 81.2522 86.8895 80.2142 86.8895H80.2224Z" fill="#6A7984"/>
<path d="M54.0939 88.7962C53.7997 91.4096 41.2875 90.5878 41.2875 88.7962C41.2875 77.2904 39.1544 45.7565 47.6948 45.7565C56.2351 45.7565 55.3852 77.2904 54.0939 88.7962Z" fill="#55626D"/>
<path d="M48.5857 86.8895C47.8747 86.8895 47.2617 87.5305 46.9348 88.4757C46.657 87.3497 45.9786 86.5443 45.1859 86.5443C44.4585 86.5443 43.8292 87.2182 43.5187 88.1962C43.2653 86.9881 42.5625 86.1088 41.7371 86.1088C41.5736 86.1088 41.4102 86.1499 41.2549 86.2156C41.2712 87.1525 41.2794 88.0154 41.2794 88.788C41.2794 89.9632 46.657 90.7193 50.4409 90.3659C50.449 90.2344 50.4572 90.0947 50.4572 89.955C50.4572 88.262 49.6154 86.8895 48.5775 86.8895H48.5857Z" fill="#6A7984"/>
<path d="M66.6799 89.8399C66.3856 92.4534 53.8734 91.6315 53.8734 89.8399C53.8734 78.3342 51.7404 46.8003 60.2807 46.8003C68.8211 46.8003 67.9711 78.3342 66.6799 89.8399Z" fill="#667681"/>
<path d="M61.1716 87.9332C60.4606 87.9332 59.8477 88.5742 59.5208 89.5194C59.2429 88.3934 58.5646 87.588 57.7718 87.588C57.0445 87.588 56.4152 88.2619 56.1046 89.2399C55.8513 88.0318 55.1484 87.1525 54.323 87.1525C54.1596 87.1525 53.9961 87.1936 53.8408 87.2593C53.8572 88.1962 53.8653 89.0591 53.8653 89.8317C53.8653 91.0069 59.2429 91.763 63.0268 91.4096C63.035 91.2781 63.0431 91.1384 63.0431 90.9987C63.0431 89.3057 62.2014 87.9332 61.1635 87.9332H61.1716Z" fill="#8EA3AF"/>
<path d="M98.3166 89.8399C98.0224 92.4534 85.5101 91.6315 85.5101 89.8399C85.5101 78.3342 83.3771 46.8003 91.9174 46.8003C100.458 46.8003 99.6078 78.3342 98.3166 89.8399Z" fill="#667681"/>
<path d="M92.8074 87.9332C92.0964 87.9332 91.4834 88.5742 91.1565 89.5194C90.8786 88.3934 90.2003 87.588 89.4076 87.588C88.6802 87.588 88.0509 88.2619 87.7404 89.2399C87.487 88.0318 86.7842 87.1525 85.9587 87.1525C85.7953 87.1525 85.6318 87.1936 85.4766 87.2593C85.4929 88.1962 85.5011 89.0591 85.5011 89.8317C85.5011 91.0069 90.8786 91.763 94.6625 91.4096C94.6707 91.2781 94.6789 91.1384 94.6789 90.9987C94.6789 89.3057 93.8371 87.9332 92.7992 87.9332H92.8074Z" fill="#8EA3AF"/>
<path d="M94.5803 74.1257C111.159 74.1501 106.013 33.935 99.6194 26.8974C95.2286 22.0651 88.6794 19.7463 82.245 18.4166C73.6604 16.6328 64.5177 16.3247 56.286 19.3247C48.0543 22.3246 40.8977 29.0622 39.0921 37.543C38.8951 34.3648 38.6736 31.0892 37.1881 28.2595C35.7108 25.4299 32.6249 23.1678 29.4406 23.6543C26.5599 24.0921 24.3932 26.6461 23.5561 29.4027C22.719 32.1594 22.957 35.1026 23.2032 37.9728C19.0011 33.8945 11.8363 33.2459 6.95313 36.489C3.6785 38.67 1.65955 42.4483 1.3723 46.3158C-0.260911 46.8752 -0.43326 49.0238 0.83884 49.1535C1.95501 49.267 1.88935 51.0832 2.23405 51.9183C3.99857 56.1506 7.99543 59.1667 12.3288 60.8045C16.6539 62.4342 21.3484 62.8558 25.969 63.1963C29.0712 63.4234 32.1735 63.6179 35.284 63.7882C38.7638 63.9828 35.1937 70.9961 46.6837 73.2015C58.1736 75.4068 78.002 74.1014 94.5803 74.1257Z" fill="#667681"/>
<path d="M63.198 21.7589C62.9038 21.7836 62.536 21.8247 62.1274 21.8986C61.7106 21.9808 61.2611 22.0876 60.8035 22.2274C60.354 22.3588 59.8963 22.5561 59.4795 22.7698C59.0627 22.9917 58.6949 23.2382 58.4007 23.5341C57.8205 24.1258 58.2781 24.7257 58.9565 25.1695C59.6429 25.6298 60.5583 25.9749 61.0568 25.9503C61.5553 25.9503 62.1846 25.9421 62.8221 25.8927C63.4595 25.8599 64.1052 25.7366 64.6609 25.5229C65.2167 25.301 65.7152 24.8901 66.0257 24.4299C66.3363 23.9614 66.4589 23.419 66.2301 22.9177C66.1238 22.6876 65.9604 22.4821 65.756 22.3178C65.5436 22.1616 65.2984 22.0301 65.0205 21.9397C64.7426 21.8493 64.4403 21.7836 64.1297 21.7507C63.8191 21.7178 63.5004 21.726 63.198 21.7507V21.7589Z" fill="#8EA3AF"/>
<path d="M66.3608 29.1965C66.5815 29.6239 66.9166 29.9609 67.317 30.2156C67.7093 30.4786 68.1588 30.6759 68.6083 30.7827C68.9352 30.8649 69.2785 30.9306 69.6135 30.9306C69.9486 30.9306 70.2837 30.8731 70.6024 30.7416C71.2235 30.4786 72.2778 30.1417 71.6485 29.1061C71.0029 28.0624 69.0006 28.0624 67.5786 27.8323C67.1699 27.7666 66.6796 27.7419 66.3935 28.0295C66.1075 28.3254 66.1729 28.8103 66.3608 29.1719V29.1965Z" fill="#8EA3AF"/>
<path d="M69.9983 25.1284C70.2271 25.3914 70.5377 25.5476 70.8809 25.6544C71.2241 25.7695 71.6001 25.8188 71.9597 25.8517C72.2948 25.8763 72.6135 25.9174 72.9322 25.9092C73.2509 25.9092 73.5697 25.8681 73.8639 25.7613C74.1663 25.6626 74.5749 25.2764 74.8364 24.8079C75.0979 24.3313 75.2124 23.7724 74.8936 23.2957C74.2398 22.3424 73.3735 22.6465 72.5563 22.5397C71.7063 22.4492 70.791 22.6054 70.2026 23.1314C69.6141 23.6491 69.4916 24.5532 69.9983 25.1284Z" fill="#8EA3AF"/>
<path d="M54.8214 42.4363C55.3444 42.6747 55.7531 42.4528 56.129 42.2391C56.2924 42.1405 56.4477 42.009 56.603 41.8775C56.7501 41.746 56.8809 41.5816 56.9708 41.368C57.0198 41.2611 57.0361 41.0803 57.0361 40.8666C57.0361 40.653 57.0198 40.4064 56.9708 40.1516C56.8727 39.6421 56.652 39.1079 56.2189 38.8367C55.7857 38.5655 55.4915 38.623 55.2382 38.7463C55.1156 38.812 55.0012 38.9024 54.8868 38.9928C54.7805 39.0915 54.6661 39.1901 54.5435 39.2641C54.2983 39.4202 54.0695 39.6092 53.9224 39.8722C53.7753 40.1352 53.6936 40.4311 53.7017 40.7598C53.7262 41.4173 54.2329 42.1651 54.8132 42.4281L54.8214 42.4363Z" fill="#8EA3AF"/>
<path d="M71.1911 35.2864C70.7906 35.8452 70.9214 36.6999 71.3218 37.2177C71.7223 37.7272 72.3107 37.9327 72.891 37.9902C73.1852 38.0231 73.3159 38.0313 73.5366 38.0559C73.7573 38.0806 74.0433 38.1135 74.6481 38.1874C74.9505 38.2285 75.2855 38.1957 75.5961 38.1217C75.9067 38.0477 76.1845 37.9327 76.3807 37.7683C76.7648 37.4396 76.7811 36.9054 75.8821 36.289L74.6808 35.7137L74.076 35.4261L73.7736 35.2781L73.4631 35.1549C73.0871 34.9987 72.703 34.8426 72.2944 34.8261C71.8857 34.8097 71.4526 34.9412 71.1911 35.2946V35.2864Z" fill="#8EA3AF"/>
<path d="M81.5051 34.859C81.1046 34.5467 80.6878 34.2673 80.2302 34.0454C80.0013 33.9385 79.7643 33.8399 79.5273 33.7659C79.2821 33.692 79.0288 33.6509 78.7591 33.618C77.7048 33.4947 78.1462 35.2288 78.5711 35.8863C79.0043 36.5437 79.7235 36.9054 80.4263 37.1601C80.696 37.2587 81.0147 37.3327 81.3089 37.3327C81.6032 37.3327 81.881 37.2423 82.0935 36.9958C82.3632 36.6752 82.3959 36.1821 82.2488 35.7959C82.1017 35.4096 81.8156 35.1055 81.4969 34.8672L81.5051 34.859Z" fill="#8EA3AF"/>
<path d="M63.5254 39.5517C63.0514 39.5681 62.6019 39.675 62.1687 39.8476C61.9481 39.9297 61.7519 40.053 61.5558 40.1845C61.3597 40.3242 61.1717 40.4639 61.0082 40.6612C60.6732 41.0392 60.8693 41.4995 61.2126 41.9022C61.5476 42.2966 62.038 42.6665 62.3567 42.7815C62.986 43.0199 63.5908 42.7651 64.1874 42.4446C64.4162 42.3131 64.6696 42.1569 64.8657 41.9186C65.0618 41.6885 65.2089 41.3844 65.2171 40.9981C65.2335 40.4968 64.9719 40.0284 64.6369 39.79C64.4734 39.675 64.2854 39.601 64.1056 39.5599C63.9258 39.527 63.7379 39.527 63.5499 39.5353L63.5254 39.5517Z" fill="#8EA3AF"/>
<path d="M77.271 46.5537C77.7614 46.6195 78.2518 46.6524 78.7748 46.5702C79.0935 46.5126 80.5728 45.8634 80.1641 45.0909C80.0661 44.9018 79.7392 44.6471 79.306 44.3923C79.0854 44.2608 78.8402 44.1375 78.5868 44.0143C78.3253 43.8992 78.0556 43.7759 77.7777 43.6691C77.4999 43.5622 77.222 43.4636 76.9523 43.3732C76.6826 43.291 76.4293 43.2335 76.2004 43.1924C75.7346 43.1102 75.3668 43.0938 75.1952 43.176C74.4924 43.5294 74.6558 44.3923 74.8111 44.9758C74.9746 45.5593 75.3587 45.9702 75.8 46.1757C76.0206 46.2743 76.2658 46.3647 76.511 46.414C76.7562 46.4715 77.0095 46.5044 77.2629 46.5373L77.271 46.5537Z" fill="#8EA3AF"/>
<path d="M84.962 45.5264C85.4605 45.7237 85.9672 45.847 86.4984 45.9785C86.8008 46.0524 87.1277 46.1264 87.4219 45.9867C87.7406 45.847 88.9175 44.5156 88.0594 44.0471C87.8469 43.9321 87.5282 43.7348 87.1604 43.5212C86.8008 43.3075 86.384 43.0691 85.9672 42.8473C85.5504 42.6254 85.1254 42.4199 84.7495 42.2966C84.3735 42.1733 84.0466 42.1076 83.8096 42.1569C82.8698 42.3541 83.1395 43.5869 83.4419 44.2362C83.589 44.5649 83.8096 44.8114 84.0793 45.0251C84.349 45.2388 84.6596 45.4032 84.9701 45.5264H84.962Z" fill="#8EA3AF"/>
<path d="M61.155 36.9547C61.3756 36.8396 61.5963 36.7328 61.817 36.6095C62.0376 36.4862 62.2583 36.3547 62.4789 36.215C62.7323 36.0671 63.002 35.9109 63.1409 35.6151C63.2799 35.2945 63.3943 33.5029 62.4381 33.7166C62.2011 33.7659 61.8415 33.8481 61.4247 33.9467C61.2204 33.996 60.9915 34.0371 60.7709 34.1111C60.542 34.1768 60.3132 34.2508 60.0926 34.3248C59.6349 34.4645 59.2017 34.6699 58.8503 34.859C58.4989 35.048 58.2292 35.2781 58.1148 35.5C57.8778 35.9356 58.0412 36.2972 58.3273 36.5848C58.6133 36.8725 59.0219 37.0533 59.3407 37.1766C59.6594 37.2916 59.97 37.2998 60.2723 37.2423C60.5829 37.2012 60.8853 37.0944 61.1713 36.9629L61.155 36.9547Z" fill="#8EA3AF"/>
<path d="M88.1735 33.3304C88.0182 34.0043 88.6148 34.5549 89.1623 34.9001C90.0368 35.4343 90.9031 36.1082 91.9083 36.215C92.9135 36.3219 93.7635 34.859 92.6193 34.5467C91.467 34.2344 91.467 33.6674 90.8867 33.2318C90.4536 32.9113 89.9959 32.5825 89.4647 32.5168C88.9335 32.4593 88.3042 32.7716 88.1816 33.3304H88.1735Z" fill="#8EA3AF"/>
<path d="M66.8188 41.8775C66.925 42.1898 67.1212 42.3542 67.35 42.4281C67.5788 42.5103 67.8403 42.5103 68.0773 42.4692C68.4533 42.4035 68.8456 42.3952 69.2379 42.3048C69.6301 42.2309 70.0142 42.1158 70.3738 41.8611C70.7498 41.6227 70.9541 41.0803 70.9377 40.6447C70.9214 40.2092 70.6762 39.864 70.2104 40.0859C69.2787 40.505 69.0417 40.0777 68.4533 40.0777C68.0283 40.1023 67.5788 40.1188 67.2192 40.4146C66.8596 40.7187 66.639 41.368 66.8188 41.8775Z" fill="#8EA3AF"/>
<path d="M24.1988 34.1604C23.496 34.4563 22.6134 34.3001 22.0821 33.7495C21.5509 33.1989 21.4447 32.2702 21.8696 31.6292C22.1393 31.2265 22.6052 30.9553 23.0955 30.9306C23.5777 30.8977 24.0762 31.1032 24.395 31.473C24.6647 31.7771 24.8118 32.1798 24.9098 32.5743C24.9834 32.8784 25.0324 33.2071 24.9098 33.4947C24.7873 33.8153 24.5012 34.0372 24.1907 34.1687L24.1988 34.1604Z" fill="#6A7984"/>
<path d="M35.2069 32.4675C35.5501 32.9688 35.5746 33.692 35.2396 34.2015C34.8963 34.7111 34.1935 34.9494 33.6296 34.7193C33.27 34.5714 32.9839 34.2509 32.8858 33.8728C32.7796 33.4948 32.8613 33.0756 33.0902 32.7633C33.2863 32.5003 33.5642 32.3195 33.8666 32.1798C34.0872 32.073 34.3324 31.9826 34.5776 32.0237C34.8391 32.0648 35.0598 32.2538 35.215 32.4757L35.2069 32.4675Z" fill="white"/>
<path d="M33.5223 33.3091C33.4569 33.0543 33.6203 32.7667 33.8737 32.6845C34.1189 32.5941 34.4131 32.7009 34.5683 32.9228C34.7645 33.2105 34.6746 33.6543 34.3885 33.8351C34.0943 34.0241 33.6122 33.6543 33.5304 33.3173L33.5223 33.3091Z" fill="black"/>
<path d="M24.0109 33.8564C23.447 34.0947 22.7441 33.9714 22.3191 33.5276C21.8942 33.0838 21.8124 32.3442 22.1475 31.8347C22.3682 31.5141 22.7359 31.3005 23.12 31.2758C23.5042 31.2512 23.9046 31.4155 24.158 31.7032C24.3786 31.9497 24.493 32.262 24.5666 32.5825C24.6238 32.8209 24.6647 33.0838 24.5666 33.314C24.4685 33.5687 24.2397 33.7413 23.9945 33.8482L24.0109 33.8564Z" fill="white"/>
<path d="M23.4383 31.9086C23.7162 31.9004 23.9696 32.1305 24.0022 32.4017C24.0349 32.6729 23.8633 32.9606 23.61 33.0674C23.2749 33.2071 22.8417 33.0263 22.7192 32.6811C22.5884 32.3442 23.0706 31.9168 23.4383 31.9086Z" fill="black"/>
<path d="M99.55 37.193C99.4764 36.9464 99.5745 36.7245 99.7543 36.5766C99.9341 36.4204 100.204 36.3218 100.482 36.2725C100.76 36.215 101.046 36.2068 101.274 36.2396C101.495 36.2725 101.667 36.3382 101.708 36.4615C101.985 37.2916 102.598 38.5079 103.473 39.7489C104.339 40.9898 105.434 42.2719 106.546 43.3239C107.649 44.3923 108.769 45.2141 109.61 45.7483C110.035 46.0195 110.387 46.2332 110.632 46.4304C110.877 46.6194 111.024 46.8002 111 46.9893C110.975 47.1783 110.779 47.318 110.428 47.392C110.076 47.4577 109.561 47.4413 108.973 47.3016C108.376 47.1618 107.706 46.8989 107.028 46.5208C106.35 46.1428 105.647 45.6579 104.977 45.099C103.636 43.9813 102.41 42.5678 101.462 41.146C100.514 39.7324 99.8606 38.3024 99.5582 37.2012L99.55 37.193Z" fill="#6A7984"/>
<path d="M20.816 38.5079C20.1132 38.8038 19.2305 38.6476 18.6993 38.097C18.1681 37.5464 18.0619 36.6177 18.4868 35.9766C18.7565 35.5739 19.2224 35.3027 19.7127 35.2781C20.1949 35.2452 20.6934 35.4507 21.0122 35.8205C21.2819 36.1246 21.429 36.5273 21.527 36.9218C21.6006 37.2258 21.6496 37.5546 21.527 37.8422C21.4044 38.1627 21.1184 38.3846 20.8078 38.5161L20.816 38.5079Z" fill="#6A7984"/>
<path d="M20.4401 37.8833C20.0233 38.0559 19.492 37.9655 19.1815 37.6367C18.8709 37.308 18.7974 36.7491 19.0589 36.3711C19.2223 36.1328 19.5002 35.9684 19.7863 35.952C20.0723 35.9355 20.3665 36.0588 20.5626 36.2725C20.7261 36.4533 20.816 36.6916 20.8732 36.9299C20.9141 37.1108 20.9468 37.308 20.8732 37.4806C20.7997 37.6696 20.628 37.8011 20.4482 37.8833H20.4401Z" fill="#55626D"/>
<path d="M7.14317 38.5079C6.44033 38.8038 5.55769 38.6476 5.02647 38.097C4.49526 37.5464 4.38901 36.6177 4.81399 35.9766C5.08368 35.5739 5.54952 35.3027 6.03987 35.2781C6.52206 35.2452 7.02058 35.4507 7.33931 35.8205C7.60901 36.1246 7.75611 36.5273 7.85419 36.9218C7.92774 37.2258 7.97677 37.5546 7.85419 37.8422C7.7316 38.1627 7.44556 38.3846 7.135 38.5161L7.14317 38.5079Z" fill="#6A7984"/>
<path d="M6.75896 37.8915C6.34216 38.0641 5.81094 37.9737 5.50038 37.645C5.18165 37.3162 5.11627 36.7574 5.37779 36.3793C5.54124 36.141 5.81911 35.9766 6.10515 35.9602C6.39119 35.9438 6.6854 36.067 6.88155 36.2807C7.045 36.4615 7.1349 36.6999 7.1921 36.9382C7.23297 37.119 7.26566 37.3162 7.1921 37.4888C7.11855 37.6778 6.94693 37.8093 6.76713 37.8915H6.75896Z" fill="#55626D"/>
<path d="M32.9601 42.7404C32.8783 42.7404 32.8375 43.1924 32.7721 43.9731C32.7476 44.3676 32.6986 44.8361 32.6087 45.3785C32.5841 45.51 32.5514 45.6497 32.5269 45.7894C32.5024 45.9291 32.4697 46.077 32.4207 46.2167C32.339 46.5044 32.2245 46.8003 32.0856 47.1043C31.9385 47.4002 31.7669 47.6961 31.5462 47.959C31.3337 48.2385 31.064 48.4768 30.7616 48.674C30.1487 49.0767 29.3478 49.274 28.4815 49.3479C26.7162 49.4548 24.7303 49.3479 22.7607 48.8713C22.2622 48.7727 21.7718 48.6165 21.2815 48.4686C21.0363 48.3946 20.7911 48.296 20.5459 48.2138C20.3007 48.1234 20.0556 48.0412 19.8186 47.9344C18.846 47.5563 17.9144 47.055 16.9663 46.5537C15.0785 45.5511 13.1661 44.4169 11.0085 44.0471C9.94608 43.8745 8.91634 43.8745 7.92746 43.9403C7.4371 43.9731 6.95492 44.0389 6.48908 44.1046C6.02325 44.1868 5.57375 44.2608 5.13243 44.3676C4.69112 44.458 4.27431 44.5895 3.86568 44.6963C3.46523 44.8278 3.07294 44.9429 2.70518 45.0826C2.27203 45.2305 1.87157 45.4031 1.49564 45.5757C1.43843 45.9291 1.39756 46.2907 1.37305 46.6441C1.87157 46.414 2.41096 46.1674 3.02391 45.962C3.37533 45.8305 3.75127 45.7236 4.13538 45.6004C4.52766 45.5017 4.92812 45.3785 5.34492 45.2963C5.76172 45.1977 6.19487 45.1319 6.63619 45.0497C7.07751 44.9922 7.53517 44.9347 8.00101 44.9018C8.92451 44.8443 9.89705 44.8525 10.8532 45.0086C11.0902 45.058 11.3354 45.0826 11.5643 45.1566C11.8013 45.2223 12.0301 45.2799 12.2671 45.3703C12.5041 45.4607 12.7411 45.5346 12.9781 45.6415C13.2151 45.7401 13.4521 45.8469 13.6891 45.9455C14.629 46.3811 15.5606 46.8989 16.5168 47.4084C17.473 47.9097 18.4456 48.4357 19.4671 48.822C19.7205 48.9288 19.9738 49.0192 20.2354 49.1096C20.4969 49.2 20.7502 49.2986 21.0118 49.3726C21.5348 49.5205 22.0497 49.6767 22.5727 49.7753C24.6567 50.252 26.708 50.3342 28.5877 50.178C29.5276 50.0794 30.4674 49.8246 31.2111 49.2986C31.5789 49.0356 31.8976 48.7234 32.1346 48.3864C32.388 48.0577 32.5678 47.7043 32.7149 47.3591C32.8538 47.0139 32.9601 46.677 33.0336 46.3482C33.0745 46.1839 33.099 46.0277 33.1154 45.8716C33.1317 45.7154 33.1562 45.5675 33.1726 45.4278C33.2134 44.8525 33.2134 44.3594 33.1889 43.9567C33.1399 43.1595 33.05 42.7239 32.9764 42.7239L32.9601 42.7404Z" fill="#55626D"/>
<path d="M62.5452 18.1182C62.4716 18.1099 62.3735 18.1017 62.2673 18.1017C62.2673 18.1017 62.2673 18.1017 62.2591 18.1017C62.3 17.7483 62.2918 15.9321 62.2918 15.9321L61.9649 15.743C61.9649 15.743 62.0385 17.699 62.0221 18.0688C61.9976 18.0688 61.6707 17.9784 61.5726 17.9702C61.4582 17.9702 61.1885 17.9538 61.115 18.0771C61.0496 18.1839 61.3683 18.2086 61.4173 18.2168C61.3029 18.2496 61.0414 18.3154 61.0005 18.4469C60.9678 18.5619 61.4745 18.4469 61.5236 18.4469C61.5072 18.4633 61.4991 18.4798 61.4909 18.488C61.4582 18.5291 61.3274 18.7427 61.4664 18.7427C61.589 18.7427 61.7361 18.5784 61.8341 18.5126C61.8587 18.4962 61.8914 18.4715 61.9159 18.4551C61.9567 18.4305 62.0058 18.3976 62.0466 18.3729C62.1365 18.3729 62.2264 18.3647 62.3163 18.3647C62.3654 18.3647 62.5043 18.3976 62.5452 18.3647C62.6024 18.3318 62.6432 18.1346 62.5452 18.1264C62.4716 18.1182 62.6432 18.1346 62.5452 18.1264V18.1182Z" fill="#543622"/>
<path d="M65.0049 18.1182C64.9314 18.1099 64.8333 18.1017 64.7271 18.1017C64.7271 18.1017 64.7271 18.1017 64.7189 18.1017C64.7598 17.7483 64.7516 15.9321 64.7516 15.9321L64.4247 15.743C64.4247 15.743 64.4982 17.699 64.4819 18.0688C64.4574 18.0688 64.1305 17.9784 64.0324 17.9702C63.918 17.9702 63.6483 17.9538 63.5747 18.0771C63.5093 18.1839 63.8281 18.2086 63.8771 18.2168C63.7627 18.2496 63.5012 18.3154 63.4603 18.4469C63.4195 18.5619 63.9343 18.4469 63.9834 18.4469C63.967 18.4633 63.9588 18.4798 63.9507 18.488C63.918 18.5291 63.7872 18.7427 63.9262 18.7427C64.0487 18.7427 64.1958 18.5784 64.2939 18.5126C64.3184 18.4962 64.3511 18.4715 64.3756 18.4551C64.4165 18.4305 64.4655 18.3976 64.5064 18.3729C64.5963 18.3729 64.6862 18.3647 64.7761 18.3647C64.8251 18.3647 64.9641 18.3976 65.0049 18.3647C65.0621 18.3318 65.103 18.1346 65.0049 18.1264C64.9314 18.1182 65.103 18.1346 65.0049 18.1264V18.1182Z" fill="#543622"/>
<path d="M70.2514 14.4199C69.7938 14.2966 69.1481 14.5021 68.6823 14.5185C69.1481 14.4281 70.4394 14.0336 70.374 13.3679C70.3413 13.0392 69.8019 13.483 69.7366 13.5323C69.3688 13.8282 68.9602 14.0418 68.5107 14.1815C68.9193 13.9761 70.0553 13.294 69.8837 12.7022C69.8019 12.4228 68.5025 13.7378 68.3145 13.8775C68.6251 13.5487 68.952 13.0556 68.9847 12.5872C69.0255 12.0201 68.5842 12.3488 68.478 12.6776C68.3472 13.0803 68.1674 13.483 67.9059 13.8117C67.8569 13.8692 67.2848 14.2884 67.3011 14.3541C67.3502 14.387 67.3992 14.3952 67.4646 14.387C67.4237 14.3952 67.3829 14.4445 67.391 14.4856C67.3992 14.5185 67.5708 14.5103 67.6035 14.5185C67.5136 14.5842 69.0582 14.9459 69.2217 14.9541C69.4914 14.9705 69.7856 14.9541 70.0471 14.8883C70.2514 14.839 70.6192 14.5349 70.2433 14.4363L70.2514 14.4199Z" fill="#543622"/>
<path d="M60.3709 8.95466C60.2646 9.43133 60.1911 9.91621 60.1257 10.4093C60.0113 11.3133 59.8968 12.2174 60.0113 13.1214C60.1257 14.0254 60.4934 14.9212 61.1963 15.4965C61.8664 16.0389 62.7572 16.2279 63.6154 16.269C65.1763 16.343 66.7863 15.9814 68.0776 15.0938C68.2819 14.9541 68.4944 14.7733 68.5434 14.5349C68.6088 14.1898 68.3473 13.8775 68.0776 13.6474C67.1051 12.8009 65.8792 12.2009 65.1682 11.1243C64.7514 10.4915 64.2937 9.11081 63.8851 8.48622C63.1986 7.42605 60.8612 6.77679 60.3709 8.96288V8.95466Z" fill="#72543F"/>
<path d="M63.4849 11.1736C63.4358 11.3873 63.4031 11.601 63.3786 11.8147C63.3296 12.2174 63.2724 12.6201 63.3296 13.0145C63.3786 13.4172 63.5421 13.8117 63.8526 14.0665C64.1468 14.3048 64.5473 14.387 64.9232 14.4117C65.6179 14.4445 66.3289 14.2884 66.901 13.8857C66.9909 13.8199 67.089 13.746 67.1053 13.6391C67.138 13.4912 67.0154 13.3515 66.901 13.2447C66.4678 12.8748 65.9285 12.6036 65.6097 12.127C65.4218 11.8475 65.3319 11.5106 65.1357 11.2476C64.9069 10.9353 64.5473 10.7298 64.1632 10.697C63.967 10.6805 63.7464 10.7134 63.6156 10.8613C63.5421 10.9517 63.5012 11.0668 63.4767 11.1736H63.4849Z" fill="#543622"/>
<path d="M60.6327 8.86423C60.7553 8.98751 60.7634 9.17653 60.649 9.30802C60.5918 9.38199 60.4937 9.4313 60.3875 9.4313C60.2486 9.4313 60.1505 9.31624 60.1178 9.20118C60.0851 9.11078 60.0851 9.00394 60.1423 8.91354C60.1995 8.82314 60.3139 8.75739 60.4284 8.77383C60.5019 8.77383 60.5755 8.82314 60.6245 8.87245L60.6327 8.86423Z" fill="#72543F"/>
<path d="M63.3291 9.11902C63.4272 9.21764 63.4354 9.38201 63.3455 9.48884C63.2964 9.54637 63.2147 9.59568 63.1248 9.58746C63.0104 9.58746 62.9287 9.48884 62.896 9.39844C62.8715 9.31626 62.8715 9.22586 62.9205 9.15189C62.9695 9.07793 63.0676 9.0204 63.1657 9.02861C63.2311 9.02861 63.2883 9.06971 63.3291 9.1108V9.11902Z" fill="white"/>
<path d="M63.1499 9.40664C63.1499 9.40664 63.1254 9.46417 63.1009 9.48061C63.0518 9.51348 62.9864 9.51348 62.9456 9.47239C62.9047 9.4313 62.8884 9.36555 62.9129 9.31624C62.9374 9.26693 63.0028 9.23405 63.06 9.25049C63.1172 9.26693 63.1581 9.35733 63.1499 9.41486V9.40664Z" fill="black"/>
<path d="M60.5918 8.89709C60.6899 8.99571 60.6981 9.16008 60.6082 9.26692C60.5591 9.32445 60.4774 9.37376 60.3875 9.36554C60.2731 9.36554 60.1914 9.26692 60.1587 9.17652C60.1342 9.09433 60.1342 9.00393 60.1832 8.92997C60.2322 8.856 60.3303 8.79847 60.4284 8.80669C60.4938 8.80669 60.551 8.84778 60.5918 8.88887V8.89709Z" fill="white"/>
<path d="M60.437 9.2012C60.437 9.2012 60.4125 9.25872 60.388 9.27516C60.3389 9.30804 60.2735 9.30804 60.2327 9.26694C60.1918 9.22585 60.1755 9.1601 60.2 9.11079C60.2245 9.06148 60.2899 9.02861 60.3471 9.04505C60.4043 9.06148 60.4452 9.15189 60.437 9.20941V9.2012Z" fill="black"/>
<path d="M65.9114 15.5951C65.4047 15.439 64.9062 15.2664 64.4076 15.0856C63.9745 14.9212 63.525 14.7404 63.2144 14.3952C62.814 13.9597 62.6832 13.3433 62.4952 12.7762C62.3727 12.4064 62.2092 12.0448 61.9559 11.7489C61.7025 11.4531 61.3593 11.2229 60.9751 11.1736C60.6156 11.1325 60.2233 11.264 60.0026 11.5517C59.9617 12.0776 59.9454 12.6036 60.0108 13.1296C60.1252 14.0336 60.493 14.9294 61.1958 15.5047C61.866 16.0471 62.7568 16.2361 63.6149 16.2772C64.5874 16.3265 65.5763 16.2033 66.4916 15.891C66.3445 15.7513 66.1157 15.6691 65.9114 15.6033V15.5951Z" fill="#BC885E"/>
<path d="M62.4138 8.87246C62.6181 8.63413 62.8797 8.42867 63.1902 8.33827C63.3864 8.28074 63.5989 8.28074 63.795 8.33827C63.1657 7.55752 61.662 7.08085 60.8447 7.97666C60.8447 7.98488 60.8447 8.00131 60.8447 8.00953C60.7875 8.52729 60.8447 9.05326 61.0163 9.53815C61.3105 9.52993 61.6129 9.57102 61.899 9.66142C62.0542 9.382 62.2095 9.10257 62.4138 8.86424V8.87246Z" fill="#543622"/>
<path d="M61.2535 10.1627C61.0982 10.1792 60.9347 10.2531 60.8203 10.36C60.8693 10.1052 61.0573 9.85865 61.2861 9.74359C61.515 9.62854 61.8092 9.59566 62.0625 9.62854C62.0625 9.91618 61.9318 10.0805 61.8501 10.1216C61.7765 10.1545 61.6866 10.1545 61.6049 10.1545C61.4905 10.1545 61.3679 10.1545 61.2453 10.1627H61.2535Z" fill="#FC7F03"/>
<path d="M61.188 9.26694C61.0572 9.2916 60.5832 9.49706 60.8202 10.36C61.1717 9.98194 61.8663 9.83401 61.9317 9.80114C61.9971 9.76826 62.0543 9.71074 62.0625 9.64499C62.087 9.52993 61.9807 9.43131 61.8827 9.382C61.6702 9.26694 61.425 9.22585 61.188 9.26694Z" fill="#FFAA4D"/>
<path d="M61.7277 9.39847C61.6623 9.37381 61.5888 9.39847 61.5397 9.44778C61.4907 9.49709 61.4662 9.56283 61.458 9.6368C61.507 9.60393 61.5561 9.57105 61.6133 9.56283C61.646 9.56283 61.6868 9.56283 61.7195 9.55462C61.7522 9.5464 61.7931 9.52174 61.7931 9.48065C61.7931 9.44778 61.7604 9.4149 61.7277 9.39847Z" fill="#FC7F03"/>
<path d="M61.1556 9.31626C61.1556 9.31626 61.1229 9.35735 61.1147 9.38201C61.0984 9.43954 61.082 9.49706 61.082 9.55459C61.1392 9.48063 61.2046 9.41488 61.2945 9.37379C61.3109 9.37379 61.319 9.35735 61.3272 9.34913C61.3272 9.3327 61.3272 9.31626 61.3109 9.30804C61.2945 9.29982 61.2863 9.29982 61.27 9.29161C61.2291 9.29161 61.1883 9.28339 61.1638 9.29982L61.1556 9.31626Z" fill="#FC7F03"/>
<path d="M60.444 11.6256C60.444 11.6256 60.5094 11.6256 60.5013 11.6338C60.4931 11.6914 60.4767 11.7982 60.4849 11.8886C60.4849 11.9379 60.4849 11.979 60.4849 12.0119C60.4849 12.0447 60.4849 12.0612 60.4686 12.0694C60.4604 12.0694 60.4522 12.053 60.4359 12.0201C60.4277 11.9872 60.4195 11.9461 60.4114 11.8968C60.4032 11.7982 60.4195 11.6831 60.4359 11.6256H60.444Z" fill="#72543F"/>
<path d="M60.8772 11.8803C60.8772 11.8803 60.9425 11.8639 60.9344 11.8803C60.9344 11.9461 60.918 12.0776 60.9344 12.1844C60.9344 12.2091 60.9344 12.242 60.9425 12.2666C60.9425 12.2913 60.9507 12.3159 60.9507 12.3324C60.9507 12.3735 60.9507 12.3981 60.9507 12.3981C60.9425 12.3981 60.9262 12.3817 60.9098 12.3406C60.9098 12.3241 60.8935 12.2995 60.8853 12.2748C60.8853 12.2502 60.8772 12.2255 60.869 12.1926C60.8445 12.0776 60.8526 11.9461 60.869 11.8721L60.8772 11.8803Z" fill="#72543F"/>
<path d="M60.1501 12.1927C60.1501 12.1927 60.2073 12.1762 60.2073 12.1927C60.2073 12.2502 60.2073 12.357 60.24 12.4474C60.24 12.4721 60.2482 12.4885 60.2564 12.5132C60.2564 12.5296 60.2727 12.5461 60.2727 12.5625C60.2809 12.5954 60.2891 12.6118 60.2727 12.62C60.2646 12.62 60.2482 12.6118 60.2319 12.5789C60.2237 12.5625 60.2155 12.5461 60.1992 12.5296C60.191 12.5132 60.1828 12.4885 60.1747 12.4639C60.1338 12.3653 60.1338 12.2502 60.142 12.1844L60.1501 12.1927Z" fill="#72543F"/>
<path d="M61.0004 11.4201C61.0004 11.4201 61.0576 11.4037 61.0576 11.4201C61.0576 11.4941 61.0821 11.7078 61.0412 11.7078C61.0004 11.7078 60.9922 11.5023 60.9922 11.4201H61.0004Z" fill="#72543F"/>
<path d="M61.3271 11.7078C61.3271 11.7078 61.3844 11.6914 61.3844 11.7078C61.3844 11.8064 61.4252 12.0776 61.3844 12.0859C61.3435 12.0859 61.3271 11.8146 61.3271 11.716V11.7078Z" fill="#72543F"/>
<path d="M61.6943 11.9872C61.6943 11.9872 61.7515 11.9544 61.7515 11.9708C61.7761 12.0776 61.8578 12.3653 61.8169 12.3735C61.7761 12.3817 61.7107 12.0941 61.6943 11.9872Z" fill="#72543F"/>
<path d="M61.5067 12.3242C61.5067 12.3242 61.5639 12.316 61.5639 12.3242C61.5639 12.3735 61.5639 12.4721 61.5721 12.5461C61.5803 12.6283 61.5966 12.694 61.5721 12.7022C61.5639 12.7022 61.5476 12.6858 61.5394 12.6612C61.5231 12.6365 61.5149 12.5954 61.5067 12.5543C61.4904 12.4721 61.4904 12.3653 61.4985 12.316L61.5067 12.3242Z" fill="#72543F"/>
<path d="M60.5098 12.3653C60.5098 12.3653 60.567 12.3324 60.567 12.3571C60.5833 12.4803 60.6569 12.8091 60.616 12.8173C60.5751 12.8255 60.5261 12.4886 60.5098 12.3653Z" fill="#72543F"/>
<path d="M61.0986 12.6693C61.0986 12.6693 61.1558 12.6447 61.1558 12.6611C61.1722 12.7597 61.2376 13.0309 61.1967 13.0392C61.1558 13.0474 61.1068 12.7762 61.0986 12.6693Z" fill="#72543F"/>
<path d="M60.3213 13.0474C60.3213 13.0474 60.3785 13.031 60.3785 13.0474C60.3785 13.1049 60.3785 13.22 60.3948 13.3186C60.3948 13.3433 60.3949 13.3597 60.403 13.3844C60.403 13.4008 60.4112 13.4254 60.4194 13.4419C60.4194 13.4748 60.4194 13.4994 60.4194 13.4994C60.4112 13.4994 60.3948 13.483 60.3785 13.4583C60.3785 13.4419 60.3622 13.4254 60.354 13.4008C60.354 13.3761 60.3376 13.3515 60.3376 13.3268C60.3131 13.2282 60.3131 13.1049 60.3213 13.0392V13.0474Z" fill="#72543F"/>
<path d="M60.7877 13.2282C60.7877 13.2282 60.845 13.2118 60.845 13.2282C60.845 13.2857 60.8531 13.4008 60.8858 13.4912C60.894 13.5158 60.9022 13.5323 60.9022 13.5569C60.9103 13.5734 60.9185 13.598 60.9267 13.6062C60.9349 13.6391 60.943 13.6638 60.9267 13.6638C60.9185 13.6638 60.9022 13.6555 60.8776 13.6227C60.8695 13.6062 60.8531 13.5898 60.845 13.5734C60.8368 13.5569 60.8286 13.5323 60.8123 13.5076C60.7714 13.409 60.7632 13.2857 60.7714 13.22L60.7877 13.2282Z" fill="#72543F"/>
<path d="M61.4496 13.0145C61.4496 13.0145 61.5068 12.9816 61.5068 13.0145C61.515 13.0885 61.5395 13.2282 61.5722 13.3432C61.5885 13.4008 61.6049 13.4583 61.6212 13.4912C61.6294 13.5322 61.6375 13.5569 61.6212 13.5651C61.613 13.5651 61.5967 13.5487 61.5722 13.5076C61.5476 13.4665 61.5231 13.4172 61.5068 13.3597C61.4659 13.2364 61.4414 13.0967 61.4414 13.0145H61.4496Z" fill="#72543F"/>
<path d="M61.8906 12.7269C61.8906 12.7269 61.9478 12.7022 61.9478 12.7104C61.9642 12.7926 62.0214 13.0227 61.9887 13.0309C61.9478 13.0392 61.907 12.809 61.8906 12.7269Z" fill="#72543F"/>
<path d="M62.1201 12.3653C62.1201 12.3653 62.1773 12.3406 62.1773 12.3488C62.1937 12.431 62.2509 12.6529 62.21 12.6611C62.1692 12.6611 62.1283 12.4475 62.1201 12.3653Z" fill="#72543F"/>
<path d="M61.9482 13.3926C61.9482 13.3926 62.0055 13.3597 62.0055 13.3761C62.03 13.4419 62.0953 13.6145 62.0545 13.6227C62.0136 13.6391 61.9646 13.4583 61.9482 13.3926Z" fill="#72543F"/>
<path d="M62.2832 12.9981C62.2832 12.9981 62.3404 12.9817 62.3404 12.9981C62.3404 13.0556 62.3404 13.1625 62.3568 13.2611C62.3568 13.3104 62.3731 13.3515 62.3813 13.3844C62.3813 13.4172 62.3813 13.4419 62.3813 13.4419C62.3731 13.4419 62.3568 13.4254 62.3404 13.4008C62.3241 13.3679 62.3077 13.3268 62.2996 13.2775C62.275 13.1789 62.275 13.0638 62.2832 12.9981Z" fill="#72543F"/>
<path d="M61.2939 13.6309C61.2939 13.6309 61.3512 13.6145 61.3512 13.6309C61.3512 13.6802 61.3675 13.7788 61.4084 13.861C61.4165 13.8775 61.4247 13.9021 61.4329 13.9185C61.4411 13.935 61.4492 13.9514 61.4574 13.9596C61.4656 13.9843 61.4737 14.0089 61.4656 14.0172C61.4574 14.0254 61.4411 14.0172 61.4247 13.9843C61.4165 13.9761 61.4002 13.9596 61.392 13.9432C61.3838 13.9268 61.3757 13.9021 61.3593 13.8857C61.3103 13.8035 61.3021 13.6966 61.3021 13.6391L61.2939 13.6309Z" fill="#72543F"/>
<path d="M60.5674 13.8282C60.5674 13.8282 60.6164 13.7871 60.6246 13.8035C60.6655 13.9103 60.7962 14.1898 60.7553 14.2062C60.7145 14.2226 60.6082 13.935 60.5674 13.8282Z" fill="#72543F"/>
<path d="M61.0898 14.1897C61.0898 14.1897 61.1307 14.1404 61.1389 14.1569C61.1961 14.239 61.3514 14.4527 61.3187 14.4774C61.286 14.502 61.1389 14.2719 61.0898 14.1897Z" fill="#72543F"/>
<path d="M61.7113 13.9021C61.7113 13.9021 61.7685 13.8774 61.7685 13.8856C61.7767 13.935 61.8094 14.0254 61.8502 14.0993C61.8584 14.1158 61.8666 14.1322 61.8747 14.1486C61.8829 14.1651 61.8911 14.1815 61.8993 14.1897C61.9156 14.2144 61.9156 14.2308 61.9156 14.239C61.9156 14.2473 61.8911 14.239 61.8666 14.2144C61.8584 14.2062 61.8421 14.1897 61.8257 14.1815C61.8094 14.1651 61.8012 14.1486 61.793 14.1322C61.7358 14.0582 61.7113 13.9514 61.7031 13.9021H61.7113Z" fill="#72543F"/>
<path d="M62.2256 13.6966C62.2256 13.6966 62.2828 13.6638 62.2828 13.6802C62.2991 13.7295 62.3318 13.8199 62.3727 13.8939C62.389 13.935 62.4136 13.9596 62.4299 13.9843C62.4462 14.0089 62.4462 14.0254 62.4462 14.0336C62.4462 14.0418 62.4217 14.0336 62.3972 14.0089C62.3727 13.9925 62.3482 13.9596 62.3237 13.9185C62.2746 13.8446 62.2419 13.7459 62.2256 13.6884V13.6966Z" fill="#72543F"/>
<path d="M62.1602 14.198C62.1602 14.198 62.2092 14.1569 62.2174 14.1733C62.2582 14.2802 62.3726 14.576 62.34 14.5842C62.2991 14.6007 62.201 14.3048 62.1602 14.1898V14.198Z" fill="#72543F"/>
<path d="M62.6016 13.8528C62.6016 13.8528 62.6506 13.8117 62.6588 13.8199C62.6996 13.8939 62.8141 14.0911 62.7814 14.1076C62.7487 14.124 62.6424 13.9268 62.6097 13.8446L62.6016 13.8528Z" fill="#72543F"/>
<path d="M62.5117 14.4691C62.5117 14.4691 62.5444 14.4198 62.5608 14.428C62.6261 14.5102 62.8223 14.7157 62.7896 14.7403C62.7569 14.765 62.5771 14.5513 62.5199 14.4691H62.5117Z" fill="#72543F"/>
<path d="M61.6699 14.5514C61.6699 14.5514 61.7108 14.5021 61.719 14.5185C61.7762 14.6007 61.9478 14.8226 61.9069 14.8472C61.8742 14.8719 61.719 14.6418 61.6699 14.5514Z" fill="#72543F"/>
<path d="M60.8779 14.5185C60.8779 14.5185 60.9106 14.4691 60.927 14.4774C61.0005 14.576 61.2212 14.839 61.1885 14.8636C61.1558 14.8883 60.9515 14.6171 60.8779 14.5185Z" fill="#72543F"/>
<path d="M60.4688 14.4034C60.4688 14.4034 60.5096 14.3623 60.5178 14.3705C60.5668 14.4445 60.7139 14.65 60.6812 14.6746C60.6485 14.6993 60.5096 14.4856 60.4688 14.4034Z" fill="#72543F"/>
<path d="M61.5801 14.9705C61.5801 14.9705 61.6128 14.9212 61.6291 14.9294C61.6618 14.9705 61.7354 15.0444 61.8089 15.0938C61.8253 15.102 61.8416 15.1184 61.8579 15.1266C61.8743 15.1348 61.8906 15.1431 61.907 15.1513C61.9315 15.1677 61.9478 15.1842 61.9478 15.1924C61.9478 15.2006 61.9233 15.2006 61.8906 15.1924C61.8743 15.1924 61.858 15.1842 61.8334 15.1759C61.8171 15.1677 61.7926 15.1595 61.7762 15.1431C61.6863 15.0938 61.6128 15.0116 61.5801 14.9623V14.9705Z" fill="#72543F"/>
<path d="M62.2256 14.913C62.2256 14.913 62.2583 14.8554 62.2665 14.8637C62.3237 14.9047 62.4871 15.028 62.4626 15.0609C62.4381 15.0938 62.2828 14.9623 62.2338 14.913H62.2256Z" fill="#72543F"/>
<path d="M63.1084 14.6993C63.1084 14.6993 63.1329 14.6418 63.1493 14.65C63.2146 14.7075 63.4108 14.8554 63.3863 14.8883C63.3617 14.9212 63.1738 14.7568 63.1084 14.6993Z" fill="#72543F"/>
<path d="M62.7734 14.9787C62.7734 14.9787 62.8225 14.9459 62.8306 14.9541C62.847 14.987 62.8879 15.0363 62.9287 15.0691C62.9369 15.0774 62.9451 15.0856 62.9614 15.0938C62.9696 15.0938 62.9778 15.102 62.9859 15.1102C63.0023 15.1184 63.0104 15.1349 63.0104 15.1431C63.0104 15.1513 62.9941 15.1513 62.9696 15.1513C62.9614 15.1513 62.9451 15.1513 62.9287 15.1431C62.9124 15.1431 62.9042 15.1267 62.8879 15.1184C62.8306 15.0856 62.7898 15.0198 62.7734 14.9787Z" fill="#72543F"/>
<path d="M62.3894 15.2828C62.3894 15.2828 62.4303 15.2417 62.4384 15.2499C62.4629 15.2828 62.512 15.3485 62.561 15.3896C62.5855 15.4143 62.61 15.4307 62.6264 15.4472C62.6427 15.4636 62.6509 15.48 62.6509 15.4883C62.6509 15.4965 62.6264 15.4883 62.6019 15.4883C62.5774 15.4883 62.5447 15.4636 62.512 15.4389C62.4466 15.3979 62.3976 15.3239 62.373 15.2746L62.3894 15.2828Z" fill="#72543F"/>
<path d="M61.1719 15.143C61.1719 15.143 61.2209 15.1102 61.2291 15.1266C61.2454 15.1677 61.2863 15.2417 61.3353 15.291C61.3517 15.3074 61.3598 15.3156 61.368 15.3321C61.3844 15.3403 61.3925 15.3485 61.4007 15.3567C61.4171 15.3732 61.4252 15.3896 61.4252 15.3978C61.4252 15.406 61.4007 15.3978 61.3762 15.3978C61.3598 15.3978 61.3517 15.3814 61.3353 15.3732C61.319 15.3649 61.3026 15.3485 61.2945 15.3321C61.2291 15.2745 61.1882 15.1924 61.1719 15.143Z" fill="#72543F"/>
<path d="M61.8994 15.5869C61.8994 15.5869 61.9321 15.5294 61.9403 15.5458C61.9811 15.5787 62.0547 15.6444 62.1282 15.6773C62.1609 15.7019 62.2018 15.7184 62.2263 15.7266C62.2508 15.743 62.2672 15.7513 62.2672 15.7677C62.2672 15.7759 62.2427 15.7759 62.2181 15.7677C62.1855 15.7677 62.1528 15.7513 62.1119 15.7266C62.0302 15.6937 61.9485 15.6198 61.9158 15.5787L61.8994 15.5869Z" fill="#72543F"/>
<path d="M62.9857 15.4801C62.9857 15.4801 62.9939 15.4143 63.0102 15.4225C63.0756 15.4554 63.1982 15.5047 63.3044 15.5294C63.329 15.5294 63.3535 15.5458 63.3862 15.554C63.4107 15.554 63.4352 15.5622 63.4516 15.5705C63.4924 15.5787 63.5169 15.5869 63.5088 15.6033C63.5088 15.6115 63.4842 15.6198 63.4434 15.6198C63.427 15.6198 63.4025 15.6198 63.3698 15.6198C63.3453 15.6198 63.3126 15.6115 63.2881 15.6033C63.1655 15.5869 63.0429 15.5211 62.9775 15.4883L62.9857 15.4801Z" fill="#72543F"/>
<path d="M63.3379 15.0773C63.3379 15.0773 63.3788 15.0362 63.3869 15.0444C63.4114 15.0773 63.4523 15.1266 63.5095 15.1595C63.5259 15.1677 63.534 15.1759 63.5504 15.1841C63.5667 15.1841 63.5749 15.1924 63.5831 15.2006C63.5994 15.2088 63.6158 15.2252 63.6076 15.2334C63.5994 15.2417 63.5912 15.2499 63.5667 15.2417C63.5504 15.2417 63.5422 15.2417 63.5259 15.2417C63.5095 15.2417 63.4932 15.2252 63.4768 15.217C63.4114 15.1841 63.3542 15.1184 63.3379 15.0855V15.0773Z" fill="#72543F"/>
<path d="M62.7168 15.817C62.7168 15.817 62.7168 15.7512 62.7331 15.7594C62.8394 15.8005 63.1336 15.8909 63.1254 15.932C63.1091 15.9731 62.823 15.8663 62.7168 15.817Z" fill="#72543F"/>
<path d="M63.9336 15.1431C63.9336 15.1431 63.9581 15.0855 63.9745 15.0938C64.0071 15.1184 64.0807 15.1677 64.1461 15.1924C64.1624 15.1924 64.1788 15.2006 64.1951 15.2088C64.2115 15.2088 64.2278 15.217 64.236 15.2253C64.2605 15.2335 64.2768 15.2417 64.2768 15.2581C64.2768 15.2663 64.2605 15.2746 64.236 15.2746C64.2196 15.2746 64.2033 15.2746 64.1869 15.2746C64.1706 15.2746 64.1543 15.2663 64.1297 15.2581C64.048 15.2335 63.9745 15.1842 63.9418 15.1513L63.9336 15.1431Z" fill="#72543F"/>
<path d="M63.7139 15.4554C63.7139 15.4554 63.7302 15.3978 63.7384 15.3978C63.8038 15.4307 63.9917 15.5047 63.9754 15.5375C63.959 15.5704 63.7792 15.4882 63.7139 15.4471V15.4554Z" fill="#72543F"/>
<path d="M63.4434 15.8416C63.4434 15.8416 63.4597 15.7841 63.4761 15.7923C63.5169 15.817 63.6068 15.8663 63.6885 15.8827C63.7294 15.8991 63.7621 15.9074 63.7948 15.9156C63.8193 15.9238 63.8356 15.932 63.8356 15.9485C63.8356 15.9567 63.8193 15.9649 63.7866 15.9649C63.7539 15.9649 63.7131 15.9649 63.6722 15.9485C63.5823 15.932 63.4924 15.8745 63.4515 15.8416H63.4434Z" fill="#72543F"/>
<path d="M64.1543 15.8745C64.1543 15.8745 64.1543 15.8088 64.1625 15.817C64.2524 15.8334 64.4812 15.8581 64.4812 15.8992C64.4812 15.9403 64.2442 15.8992 64.1543 15.8745Z" fill="#72543F"/>
<path d="M64.3838 15.4472C64.3838 15.4472 64.3838 15.3814 64.4001 15.3896C64.5064 15.4225 64.7924 15.5047 64.7842 15.5376C64.7761 15.5786 64.49 15.48 64.3838 15.4472Z" fill="#72543F"/>
<path d="M63.918 16.1539C63.918 16.1539 63.918 16.0882 63.918 16.0964C63.9997 16.1046 64.2204 16.1129 64.2204 16.1539C64.2204 16.195 63.9997 16.1704 63.918 16.1539Z" fill="#72543F"/>
<path d="M63.0759 16.1293C63.0759 16.1293 63.0677 16.0718 63.0759 16.0718C63.1495 16.0718 63.3538 16.0718 63.3538 16.1129C63.3538 16.154 63.1495 16.1457 63.0759 16.1375V16.1293Z" fill="#72543F"/>
<path d="M64.7673 16.0389C64.7673 16.0389 64.7591 15.9731 64.7673 15.9814C64.8572 15.9814 65.0942 15.9978 65.0942 16.0389C65.0942 16.08 64.849 16.0553 64.7673 16.0389Z" fill="#72543F"/>
<path d="M64.8984 15.7595C64.8984 15.7595 64.8984 15.6937 64.9066 15.7019C64.972 15.7102 65.1436 15.7348 65.1354 15.7759C65.1273 15.817 64.9556 15.7759 64.8984 15.7595Z" fill="#72543F"/>
<path d="M65.5033 15.9238C65.5033 15.9238 65.4951 15.8581 65.5033 15.8663C65.6014 15.8663 65.8547 15.8827 65.8547 15.9238C65.8547 15.9649 65.5932 15.9403 65.4951 15.9238H65.5033Z" fill="#72543F"/>
<path d="M65.332 15.5869C65.332 15.5869 65.332 15.5211 65.3484 15.5293C65.4464 15.5622 65.7325 15.6362 65.7243 15.6773C65.7161 15.7184 65.4301 15.628 65.332 15.5869Z" fill="#72543F"/>
</svg>
