<svg width="111" height="148" viewBox="0 0 111 148" fill="none" xmlns="http://www.w3.org/2000/svg">
<circle cx="52" cy="67" r="50" fill="#C4ECFE"/>
<g clip-path="url(#clip0_815_1275)">
<path d="M30.364 47.0987C22.6245 55.4854 17.6136 72.8372 18.5014 84.2075C18.8749 88.9907 20.281 93.8403 23.393 97.4998C27.8677 102.766 35.2525 104.943 39.5619 110.344C41.5643 112.854 42.7727 116.401 41.3476 119.272C39.3515 123.298 33.1018 124.407 32.2231 128.811C36.0551 125.547 42.0102 124.02 44.8315 119.854C47.0543 116.572 47.1496 112.137 45.6398 108.471C44.1301 104.805 41.1865 101.86 37.8339 99.7288C35.6194 98.3214 33.196 97.2194 31.1787 95.5442C27.7171 92.6669 25.7424 88.2686 25.2161 83.8064C24.6894 79.3459 25.5057 74.8163 26.8893 70.5426C29.5603 62.2968 34.3848 54.7572 40.7561 48.8702L30.3644 47.0971L30.364 47.0987Z" fill="url(#paint0_linear_815_1275)"/>
<path d="M64.2188 127.717C67.9689 125.266 69.2363 119.709 66.9182 115.877C63.9582 110.98 56.5886 109.416 54.9544 103.935C53.627 99.4842 56.8552 95.141 59.1787 91.1213C62.6383 85.1375 64.3583 78.0661 63.4609 71.212C62.5619 64.3575 58.9252 57.7921 53.2459 53.8239C51.1372 54.4971 48.546 54.7636 46.3328 54.7505C49.1532 57.9119 51.9996 61.1068 54.0578 64.8068C56.116 68.5069 57.3515 72.8076 56.6947 76.9846C55.8467 82.3787 52.0664 86.7619 49.3556 91.5036C46.6448 96.2454 45.102 102.621 48.5303 106.884C50.1859 108.941 52.6919 110.082 55.0267 111.32C58.0645 112.93 61.0449 114.906 62.8913 117.801C64.7378 120.696 66.2089 124.925 64.2172 127.716L64.2188 127.717Z" fill="url(#paint1_linear_815_1275)"/>
<path d="M58.692 131.769C56.2125 130.651 54.6049 128.06 54.1891 125.38C53.7733 122.7 54.4123 119.949 55.4692 117.451C59.0647 108.952 67.1176 103.161 71.8231 95.223C78.9609 83.1822 76.9354 66.4605 67.1243 56.4427C64.0779 55.7926 62.1109 55.2677 59.0104 55.5539C65.9771 63.3286 70.2302 73.9277 68.3444 84.175C67.7174 87.5777 66.4657 90.8621 64.6689 93.8204C59.734 101.939 50.6438 107.898 48.973 117.249C48.4996 119.895 48.6911 122.66 49.5247 125.217C50.7671 129.03 54.6762 131.646 58.6924 131.767L58.692 131.769Z" fill="url(#paint2_linear_815_1275)"/>
<path d="M37.7649 44.6302C39.1287 48.5855 39.9105 52.7366 40.0783 56.9146C40.3041 62.5495 39.384 68.2957 36.8635 73.3396C33.978 79.1155 29.1809 83.6848 25.4739 88.9725C21.7666 94.2619 19.1098 101.049 21.3104 107.123C23.4203 112.944 29.6793 117.265 29.6068 123.451C29.5775 125.942 28.4655 128.298 27.0886 130.374C30.6019 128.514 33.1249 124.33 33.0642 120.361C32.9698 114.301 27.8981 109.146 27.8352 103.086C27.7833 98.0829 31.1407 93.7483 34.5171 90.0503C37.7612 86.4964 41.1957 83.0896 44.0125 79.1897C46.8293 75.2897 49.0347 70.802 49.432 66.01C50.146 57.4123 45.0529 49.3356 44.4829 40.7274L37.7665 44.6306L37.7649 44.6302Z" fill="url(#paint3_linear_815_1275)"/>
<path d="M30.0218 51.2509C30.0218 51.2509 32.4487 60.1722 24.0296 63.7118C15.6104 67.2513 10.54 73.0376 12.2508 80.5315C13.9612 88.027 19.925 88.796 19.925 88.796C19.925 88.796 14.1541 84.7577 14.5346 78.2195C14.9164 71.6835 18.0363 69.0421 23.299 67.1167C28.5634 65.1916 30.8452 62.881 32.1181 59.3346C33.3891 55.7894 33.2138 50.6603 33.2138 50.6603L30.0242 51.2479L30.0218 51.2509Z" fill="#F06BA0"/>
<path d="M38.6559 52.2652C31.1771 57.303 28.5868 68.3575 33.0502 76.1928C35.399 80.3142 39.2618 83.3577 42.0188 87.2216C44.7741 91.0852 46.2514 96.6454 43.3877 100.422C41.9836 102.274 39.7959 103.34 37.671 104.292C35.5462 105.244 33.3305 106.196 31.7647 107.914C30.1972 109.633 29.4776 112.367 30.7636 114.307C30.6498 111.946 32.4343 109.135 34.5643 108.102C36.6959 107.07 39.0917 106.679 41.2331 105.666C45.7355 103.538 48.683 98.5158 48.344 93.5553C47.9688 88.0713 44.1157 83.5488 40.6925 79.2387C37.2693 74.9286 33.9312 69.7655 34.8422 64.3467C35.7355 59.0268 40.4893 55.2131 45.3363 52.8221L38.6593 52.266L38.6559 52.2652Z" fill="#F06BA0"/>
<path d="M75.4726 111.917C77.9956 110.291 82.461 105.524 78.2745 96.4801C74.088 87.4356 65.9823 89.5143 57.158 79.4748C48.3337 69.4353 59.3311 56.2901 59.3311 56.2901C58.0629 56.377 57.1623 56.9173 55.9313 57.23C52.1642 61.9507 50.5821 68.339 51.7127 74.2691C52.8429 80.2008 56.6661 85.5708 61.9088 88.5932C66.3613 91.1604 71.9158 92.2406 75.1385 96.2394C77.3344 98.9636 79.0358 103.357 76.9096 106.132C75.5775 107.869 75.2118 109.573 72.2661 110.213C69.3205 110.853 65.9044 113.685 66.3752 115.058C66.8461 116.431 73.9931 112.875 75.474 111.919L75.4726 111.917Z" fill="#E34784"/>
<path d="M72.6839 60.6588C72.6839 60.6588 65.6443 70.858 73.4047 76.3426C81.1638 81.8252 92.2177 82.6705 93.7381 96.9977C95.2601 111.325 79.6063 117.641 78.5954 116.406C77.5845 115.172 85.7233 110.553 88.7033 107.374C91.6833 104.196 93.9116 94.9997 89.6738 89.7621C85.436 84.5244 75.0973 81.543 71.33 77.68C67.5626 73.8171 65.4344 68.2689 68.9539 61.3867C72.4735 54.5045 72.6839 60.6588 72.6839 60.6588Z" fill="#E34784"/>
<path d="M33.2458 48.1248C33.2458 48.1248 20.7671 58.6851 20.7709 69.3779C20.7748 80.0707 33.2752 82.4984 34.9343 93.8007C36.72 105.954 17.8903 108.982 17.3151 108.095C16.7398 107.209 19.7724 103.785 24.4777 103.269C29.1851 102.75 33.3147 97.7816 32.6326 93.8174C31.9505 89.8533 22.6562 80.2287 20.4758 76.6993C16.3071 69.9501 18.3615 62.7535 22.0033 57.6801C25.6451 52.6067 31.0116 46.6296 31.0116 46.6296L33.2438 48.1261L33.2458 48.1248Z" fill="#E34784"/>
<path d="M49.9229 51.7344C49.9229 51.7344 35.198 69.1957 43.5866 78.8874C51.9753 88.579 59.5596 92.4977 58.0975 99.3125C56.6353 106.127 50.2035 107.548 49.4204 111.197C48.6373 114.847 50.1382 119.752 52.2477 119.441C54.3573 119.131 50.9556 113.564 53.7965 109.845C56.6373 106.126 59.8791 105.295 60.4178 98.0278C60.9565 90.7604 54.7826 83.8354 50.144 79.2767C45.5053 74.718 42.4722 74.576 46.1289 64.6686C49.7871 54.7616 53.5863 52.5222 53.5863 52.5222L49.9259 51.7368L49.9229 51.7344Z" fill="#E34784"/>
<path d="M47.1894 53.3974C47.1894 53.3974 49.8602 62.3711 43.5163 68.1385C37.1724 73.9059 33.2858 75.3634 33.1832 82.977C33.0818 90.5926 38.957 94.1445 38.957 94.1445C38.957 94.1445 33.9523 87.7247 35.8501 81.2578C37.7479 74.7908 44.2841 72.8842 48.6593 67.9682C53.0328 63.0518 51.8094 52.0973 51.8094 52.0973L47.1894 53.3974Z" fill="#F06BA0"/>
<path d="M61.5025 55.7054C61.5025 55.7054 52.5969 66.2691 58.2137 74.6011C63.8302 82.9347 69.6706 85.4599 66.0467 92.8285C62.4228 100.197 58.1701 99.7935 58.1701 99.7935C58.1701 99.7935 64.1671 101.589 68.1393 93.7863C72.1115 85.9836 68.205 81.4496 64.5942 76.9877C60.3563 71.7501 58.3855 69.0358 59.8825 63.2478C61.3795 57.4598 65.1265 55.4636 65.1265 55.4636L61.5012 55.7034L61.5025 55.7054Z" fill="#F06BA0"/>
<path d="M65.5172 58.3581C65.5172 58.3581 58.9998 66.1235 66.1311 70.9644C73.2628 75.8035 81.0724 73.9157 81.1628 81.8269C81.2532 89.7381 74.3497 93.3484 74.3497 93.3484C74.3497 93.3484 82.8562 90.5908 83.8828 83.4281C84.9093 76.2654 79.5567 73.8449 71.8141 70.6555C64.0732 67.4665 64.2641 64.1984 68.202 58.9341L65.5172 58.3581Z" fill="#F06BA0"/>
<path d="M18.5981 40.145C17.88 28.0409 36.2418 7.27192 58.9212 12.138C81.6007 17.0041 90.2649 41.7752 84.9252 52.8479C79.5835 63.9219 58.5246 59.4035 48.8045 57.318C39.0845 55.2325 19.0564 47.8807 18.5981 40.145Z" fill="url(#paint4_linear_815_1275)"/>
<path d="M58.921 12.138C40.2678 8.13581 24.5456 21.473 19.9466 33.0688C19.9452 33.3195 19.9398 33.5727 19.9536 33.8179C20.4119 41.5536 40.44 48.9054 50.16 50.9909C59.8801 53.0764 80.939 57.5948 86.2807 46.5208C86.3093 46.4607 86.3323 46.3942 86.3609 46.3341C86.7669 34.0408 77.1564 16.0506 58.921 12.138Z" fill="url(#paint5_linear_815_1275)"/>
<mask id="mask0_815_1275" style="mask-type:luminance" maskUnits="userSpaceOnUse" x="27" y="14" width="55" height="33">
<path style="mix-blend-mode:multiply" d="M27.1762 31.6281C26.1966 23.8381 40.0441 11.1337 58.1843 15.0258C76.3246 18.918 84.0321 35.1076 80.1752 42.0307C76.3179 48.9555 59.4741 45.3415 51.6987 43.6732C43.9234 42.0049 27.8011 36.6081 27.1762 31.6281Z" fill="url(#paint6_linear_815_1275)"/>
</mask>
<g mask="url(#mask0_815_1275)">
<path d="M27.1762 31.6281C26.1966 23.8381 40.0441 11.1337 58.1843 15.0258C76.3246 18.918 84.0321 35.1076 80.1752 42.0307C76.3179 48.9555 59.4741 45.3415 51.6987 43.6732C43.9234 42.0049 27.8011 36.6081 27.1762 31.6281Z" fill="url(#paint7_linear_815_1275)"/>
</g>
<path d="M51.4077 15.6089C50.312 11.3486 37.6125 16.723 37.8875 21.363C38.1621 26.0047 52.1001 18.3032 51.4077 15.6089Z" fill="#FFE1EF"/>
<path d="M34.1124 25.1357C32.1467 23.611 29.3317 27.6734 30.7432 28.9956C32.155 30.3162 35.9282 26.5447 34.1124 25.1357Z" fill="#FFE1EF"/>
<path d="M51.2586 49.8569C48.5371 49.2729 46.3432 46.8489 46.039 44.088C45.9993 43.7275 46.261 43.4037 46.6228 43.3629C46.9842 43.3237 47.3091 43.5851 47.3505 43.9459C47.594 46.1589 49.3543 48.1031 51.5362 48.5712L51.5396 48.5719C53.7235 49.0388 56.1259 47.9825 57.2527 46.0618C57.4369 45.7494 57.8404 45.6443 58.1539 45.8283C58.4675 46.0123 58.5733 46.4149 58.3909 46.7277C56.9855 49.1236 53.9876 50.4389 51.2657 49.8566L51.2607 49.8555L51.2586 49.8569Z" fill="#E34784"/>
<path d="M47.4358 38.5712C50.7845 36.737 52.5605 32.3854 51.4039 28.8491C50.2473 25.3129 46.5934 23.9347 43.2447 25.769C39.896 27.6032 38.12 31.9548 39.2766 35.4911C40.4336 39.0256 44.0871 40.4055 47.4358 38.5712Z" fill="#F06BA0"/>
<path d="M49.3871 34.6829C50.4475 32.3006 49.4584 29.5491 47.178 28.5373C44.8975 27.5255 42.1893 28.6365 41.1289 31.0189C40.0686 33.4012 41.0576 36.1527 43.3381 37.1645C45.6185 38.1763 48.3267 37.0653 49.3871 34.6829Z" fill="white"/>
<path d="M48.4292 33.8573C49.231 32.112 48.5506 30.0879 46.9095 29.3364C45.2684 28.5848 43.2879 29.3905 42.4861 31.1358C41.6842 32.8812 42.3646 34.9053 44.0057 35.6568C45.6469 36.4083 47.6273 35.6027 48.4292 33.8573Z" fill="#2F363C"/>
<path opacity="0.46" d="M47.1499 31.1722C47.5633 30.8828 47.6865 30.3168 47.4232 29.9066C47.1596 29.498 46.6127 29.3998 46.1973 29.6906C45.784 29.98 45.6608 30.546 45.924 30.9562C46.1876 31.3648 46.7345 31.463 47.1496 31.1739L47.1499 31.1722Z" fill="white"/>
<path opacity="0.46" d="M44.8427 36.5912C45.4739 36.1499 45.6607 35.2873 45.2596 34.6646C44.8584 34.0418 44.0233 33.894 43.3925 34.3337C42.7613 34.775 42.5745 35.6375 42.9756 36.2603C43.3768 36.8831 44.2119 37.0309 44.8427 36.5912Z" fill="white"/>
<path d="M59.2154 41.0987C56.9139 38.0521 57.0794 33.355 59.5849 30.6045C62.09 27.8557 65.988 28.0961 68.2895 31.1427C70.591 34.1892 70.4256 38.8863 67.92 41.6369C65.4149 44.3857 61.5169 44.1453 59.2154 41.0987Z" fill="#F06BA0"/>
<path d="M63.5307 41.4944C66.0255 41.5072 68.0563 39.4036 68.0665 36.796C68.0768 34.1883 66.0628 32.0641 63.568 32.0513C61.0732 32.0385 59.0424 34.1421 59.0322 36.7497C59.0219 39.3574 61.0359 41.4817 63.5307 41.4944Z" fill="white"/>
<path d="M60.2448 36.4964C60.1744 34.5767 61.5796 32.9632 63.3827 32.8918C65.1858 32.8204 66.7062 34.3193 66.7766 36.239C66.8471 38.1586 65.4419 39.7721 63.6388 39.8435C61.834 39.9146 60.3153 38.416 60.2448 36.4964Z" fill="#2F363C"/>
<path opacity="0.46" d="M62.5115 34.4683C62.2533 34.0347 62.3731 33.468 62.7815 33.2019C63.1895 32.9374 63.7285 33.0723 63.9881 33.5078C64.2463 33.9413 64.1265 34.5081 63.7181 34.7742C63.3101 35.0386 62.7711 34.9038 62.5111 34.4699L62.5115 34.4683Z" fill="white"/>
<path opacity="0.46" d="M62.3927 40.3568C61.9981 39.6954 62.1816 38.8321 62.8029 38.4287C63.4242 38.0254 64.2464 38.2331 64.6414 38.8929C65.0359 39.5543 64.8525 40.4176 64.2312 40.821C63.6099 41.2244 62.7876 41.0166 62.3927 40.3568Z" fill="white"/>
</g>
<defs>
<linearGradient id="paint0_linear_815_1275" x1="48.921" y1="109.876" x2="13.4444" y2="49.4576" gradientUnits="userSpaceOnUse">
<stop stop-color="#FF69CD"/>
<stop offset="0.99" stop-color="#FFBFD7"/>
</linearGradient>
<linearGradient id="paint1_linear_815_1275" x1="39.4901" y1="86.6425" x2="73.9145" y2="94.0286" gradientUnits="userSpaceOnUse">
<stop stop-color="#FF69CD"/>
<stop offset="0.99" stop-color="#FFBFD7"/>
</linearGradient>
<linearGradient id="paint2_linear_815_1275" x1="51.2557" y1="91.6883" x2="73.1483" y2="96.3856" gradientUnits="userSpaceOnUse">
<stop stop-color="#FF69CD"/>
<stop offset="0.99" stop-color="#FFBFD7"/>
</linearGradient>
<linearGradient id="paint3_linear_815_1275" x1="24.2905" y1="83.0851" x2="44.9802" y2="87.5243" gradientUnits="userSpaceOnUse">
<stop stop-color="#FF69CD"/>
<stop offset="0.99" stop-color="#FFBFD7"/>
</linearGradient>
<linearGradient id="paint4_linear_815_1275" x1="20.7968" y1="27.6334" x2="87.634" y2="41.9739" gradientUnits="userSpaceOnUse">
<stop stop-color="#FF69CD"/>
<stop offset="0.99" stop-color="#FFBFD7"/>
</linearGradient>
<linearGradient id="paint5_linear_815_1275" x1="57.1265" y1="73.542" x2="49.319" y2="4.42877" gradientUnits="userSpaceOnUse">
<stop stop-color="#FF69CD"/>
<stop offset="0.99" stop-color="#FFBFD7"/>
</linearGradient>
<linearGradient id="paint6_linear_815_1275" x1="64.7655" y1="44.8214" x2="38.5728" y2="13.3715" gradientUnits="userSpaceOnUse">
<stop/>
<stop offset="0.99" stop-color="white"/>
</linearGradient>
<linearGradient id="paint7_linear_815_1275" x1="64.7655" y1="44.8214" x2="38.5728" y2="13.3715" gradientUnits="userSpaceOnUse">
<stop stop-color="#FFA8E1"/>
<stop offset="0.99" stop-color="#FFBFD7"/>
</linearGradient>
<clipPath id="clip0_815_1275">
<rect width="86.756" height="122.285" fill="white" transform="translate(25.6533 5) rotate(12.1097)"/>
</clipPath>
</defs>
</svg>
