<svg width="117" height="100" viewBox="0 0 117 100" fill="none" xmlns="http://www.w3.org/2000/svg">
<circle cx="59" cy="50" r="50" fill="#F9F5F2"/>
<path d="M12.6018 41.9651C12.7721 42.6805 12.5811 43.4676 12.0952 44.0335C12.1119 42.1683 10.1064 40.9628 8.36268 40.1399C6.67093 39.343 4.97901 38.5439 3.28708 37.7468C3.90159 38.8687 4.61567 39.9407 5.42323 40.9449C3.29949 39.7773 1.03062 38.4541 0.123312 36.2722C-0.0156988 38.1373 -0.144343 40.0462 0.374483 41.8496C0.891441 43.6529 2.1806 45.3625 4.04264 45.9145C2.7618 45.8388 1.50373 45.4622 0.405582 44.8285C1.15502 46.7514 2.86767 48.3057 4.91035 48.9153C3.49866 49.0129 2.06641 48.8575 0.712834 48.4591C1.28587 48.6285 2.13897 49.8379 2.68703 50.2166C3.55474 50.8164 4.51592 51.2907 5.52281 51.6354C7.27082 52.2353 9.86359 52.7214 11.6779 52.0798C15.483 50.7327 14.6214 44.5039 12.6057 41.9632L12.6018 41.9651Z" fill="#BA5921"/>
<path d="M31.5438 67.072C31.5438 67.072 22.5178 74.6639 14.1995 72.6456C6.01847 70.6589 22.4761 64.546 12.4164 50.3561C12.1321 49.9556 11.5633 49.8459 11.1398 50.1109H11.1377C10.6811 50.3979 10.5793 50.9937 10.9115 51.4081C12.373 53.2291 15.6384 58.0516 13.3009 62.3715C10.3511 67.8291 5.74044 71.2683 9.5352 74.7279C13.332 78.1867 20.608 76.9678 24.052 75.6463C27.4958 74.3256 31.8947 71.8506 31.8947 71.8506L31.544 67.0704V67.0718L31.5438 67.072Z" fill="#FFC170"/>
<path d="M80.6643 34.5705C80.6643 34.5705 69.842 50.2287 61.5596 51.0756C46.3492 52.6295 40.5948 47.1879 32.9015 52.9091C23.5225 59.8833 25.1146 66.5207 26.2668 71.8969C27.419 77.2724 30.29 78.5238 30.29 78.5238C30.29 78.5238 28.6231 84.0016 31.0082 84.8191C33.3914 85.6358 40.6696 85.2177 44.2151 85.6953C49.3197 86.3847 52.3069 88.1129 56.4983 87.0566C60.6897 86.0003 61.4889 82.3599 61.4889 82.3599C61.4889 82.3599 62.5699 85.9324 67.7371 85.7449C72.9043 85.558 75.5778 84.229 76.5536 85.0955C77.5294 85.9626 76.01 87.2216 80.4413 88.2657C84.8735 89.3099 89.2452 88.8495 88.8036 85.5557C88.3612 82.2619 86.3993 80.2239 83.5681 80.0266L92.6622 79.9987C92.6622 79.9987 90.8061 80.6677 90.3104 83.9977C89.8139 87.3269 90.512 89.1086 93.6419 88.9949C96.7727 88.8811 100.555 89.3474 101.713 86.8967L102.872 84.4459C102.872 84.4459 111.711 85.9324 113.762 82.2459C115.813 78.5597 112.554 69.0547 110.897 65.1891C108.481 59.556 106.341 50.7505 103.961 48.2796C100.038 44.2067 96.0148 45.5558 90.6068 43.6447C85.2012 41.7339 80.6653 34.5643 80.6653 34.5643L80.6638 34.5702L80.6643 34.5705Z" fill="#FFC170"/>
<path d="M49.9828 55.0109C49.9828 55.0109 58.6625 60.4173 55.465 66.8549C52.2683 73.2935 42.1689 79.6799 42.1689 79.6799C42.1689 79.6799 49.6733 79.108 54.0224 78.0458C59.607 76.6845 61.4152 82.5949 61.4152 82.5949C61.4152 82.5949 59.9389 76.9278 62.2185 71.1252C64.4997 65.3226 67.1527 61.0123 67.1527 61.0123C68.3733 58.4207 70.3288 56.0151 72.7991 54.4427L49.9806 55.0109H49.9826H49.9828Z" fill="url(#paint0_linear_1135_2595)"/>
<path d="M99.0027 55.997C100.594 58.3965 105.822 73.0003 106.407 75.7901C101.612 74.3233 95.9425 76.087 92.953 79.9722C92.3262 79.9941 91.7221 80.0341 91.0953 80.0581L85.4489 80.2631C81.7141 78.149 76.4457 76.7424 72.1108 76.8758C71.6919 72.9822 78.2994 58.7649 80.3735 55.3951L99.0027 55.997Z" fill="url(#paint1_linear_1135_2595)"/>
<path d="M98.063 88.4894C97.7539 86.5147 97.8786 84.4775 98.4309 82.5534C97.0588 84.2787 96.2242 86.3928 96.0557 88.5588L98.0632 88.491V88.4896L98.063 88.4894Z" fill="url(#paint2_linear_1135_2595)"/>
<path d="M94.1517 88.3674C93.6017 86.7198 93.652 84.8943 94.2866 83.2744C93.1201 84.7112 92.5349 86.5721 92.68 88.3877L94.1501 88.3658L94.1517 88.3674Z" fill="url(#paint3_linear_1135_2595)"/>
<path d="M87.0292 87.7201C86.7767 85.8186 85.8235 84.0097 84.3809 82.6821C85.3293 84.4141 85.6493 86.4544 85.2736 88.3771L87.0292 87.7201Z" fill="url(#paint4_linear_1135_2595)"/>
<path d="M83.6846 88.1806C84.1269 86.5646 83.7841 84.7691 82.7754 83.4078C83.0075 85.0139 82.5472 86.7038 81.5234 87.9951L83.6846 88.1806Z" fill="url(#paint5_linear_1135_2595)"/>
<path d="M59.731 84.7412C59.349 83.1547 58.0625 81.7977 56.4512 81.2839C57.6929 82.5828 58.4978 84.2606 58.7206 86.0122L59.731 84.7412Z" fill="url(#paint6_linear_1135_2595)"/>
<path d="M56.2516 86.694C56.2618 84.9718 55.3965 83.2646 53.9785 82.2106C54.5058 83.6632 54.7426 85.2129 54.6678 86.7499L56.2516 86.694Z" fill="url(#paint7_linear_1135_2595)"/>
<path d="M87.0193 12.229C83.0914 10.2364 78.2028 9.98927 74.0617 11.5734C75.2015 11.6392 76.3202 11.9878 77.2732 12.5757C71.3294 13.0279 65.7621 16.6027 63.1609 21.6362C64.0182 21.156 64.9667 20.8232 65.9489 20.6579C62.2643 23.9995 59.8192 28.5207 59.1234 33.2792C58.4284 38.0376 59.4866 43.0031 62.0777 47.1418C63.558 49.5032 65.5402 51.6531 66.3348 54.289C66.6713 53.1612 67.0095 52.0357 67.3484 50.9079C67.423 52.881 68.7454 54.6521 70.3874 55.8832C72.0292 57.115 73.9849 57.9098 75.8676 58.7928C81.4483 61.4071 86.5252 65.1673 89.0018 70.5352C91.0492 65.0038 95.8194 60.8873 101.177 57.8782C102.985 56.8619 104.872 55.9291 106.415 54.5821C107.955 53.235 109.136 51.3723 109.056 49.3995C109.481 50.4994 109.905 51.5993 110.33 52.6972C110.916 50.0112 112.724 47.7258 114.015 45.2629C116.276 40.9489 116.94 35.9216 115.873 31.227C114.806 26.5322 112.014 22.2002 108.076 19.1337C109.068 19.2293 110.042 19.4924 110.935 19.9088C107.945 15.0766 102.113 11.9143 96.1515 11.8944C97.0568 11.2409 98.1447 10.8125 99.276 10.663C95.0228 9.3818 90.1669 9.9816 86.4054 12.2532L87.022 12.2313L87.0196 12.2293L87.0193 12.229Z" fill="#BA5922"/>
<path d="M78.9392 26.2293C82.7838 23.2384 82.9792 25.9564 87.2474 25.9224C91.5054 25.6474 91.4866 22.9215 95.5556 25.6275C99.7156 28.3933 101.65 39.016 100.21 41.0126C98.7687 43.0092 95.6591 41.1779 93.3214 46.1216L88.0484 46.3129L82.776 46.5042C80.0563 41.7418 77.1005 43.7942 75.5064 41.9072C73.9139 40.0201 75.0099 29.2878 78.9416 26.2291L78.9392 26.2293Z" fill="#FFC170"/>
<path d="M87.4901 43.3979C83.1073 43.5574 80.9486 44.4439 81.0692 47.5187C81.1892 50.5932 83.9521 50.4916 83.9521 50.4916C83.9521 50.4916 84.3452 53.54 87.8845 53.4127C91.4232 53.2854 91.7722 50.2086 91.7722 50.2086C91.7722 50.2086 94.3358 50.117 94.2158 47.0423C94.095 43.9677 91.8718 43.2383 87.4899 43.3978L87.4901 43.3979Z" fill="#FFE1AF"/>
<path d="M100.206 24.6512C100.206 24.6512 103.528 20.921 106.262 24.1072C109.092 27.407 103.845 31.3226 103.845 31.3226L100.208 24.6492L100.206 24.6512Z" fill="#FFC170"/>
<path d="M75.1276 25.5578C75.1276 25.5578 71.5239 22.0786 69.0473 25.4542C66.4838 28.9492 72.0243 32.4742 72.0243 32.4742L75.1276 25.5578Z" fill="#FFC170"/>
<path d="M90.7967 38.5201C91.8102 38.3786 92.7256 38.2191 93.7383 38.0778C94.7557 37.9363 95.8517 37.7569 96.5678 37.0495C97.3672 36.2604 97.4581 35.037 97.346 33.941C97.1553 32.0739 96.4242 30.145 94.8553 29.0292C91.2303 31.1872 90.5706 34.8775 90.7965 38.522V38.5201H90.7967Z" fill="#FED5A2"/>
<path d="M95.8148 29.3639C96.3593 30.5536 90.9472 33.124 90.5095 31.1612C90.2246 29.888 95.3645 28.3835 95.8148 29.3639Z" fill="#95481C"/>
<path d="M95.4223 32.9165C97.4133 33.6518 95.1297 37.4477 93.3694 36.6088C91.6092 35.768 93.1929 32.0934 95.4223 32.9165Z" fill="#33352E"/>
<path d="M93.9937 34.3632C94.5286 34.5604 93.9145 35.5808 93.4414 35.3555C92.9676 35.1305 93.3934 34.1421 93.9937 34.3632Z" fill="#FFE1AF"/>
<path d="M87.8429 50.0016C87.7605 50.0016 87.6915 49.9378 87.69 49.8582L87.5275 45.7095C87.5236 45.6279 87.5902 45.558 87.6774 45.5561C87.7644 45.5522 87.8351 45.6158 87.8366 45.6995L87.9991 49.8482C88.003 49.9298 87.9364 49.9997 87.8492 50.0016H87.8429Z" fill="#33352E"/>
<path d="M87.3405 50.5435C85.4868 50.5435 84.1314 50.1549 83.3029 49.3876C82.597 48.7321 82.5616 48.0406 82.5616 48.0107C82.5577 47.8792 82.6636 47.7697 82.7985 47.7656C82.9335 47.7597 83.0495 47.8632 83.0558 47.9928C83.0606 48.0824 83.2324 50.2286 87.8371 50.0592C92.4457 49.8918 92.4372 47.5445 92.4333 47.4449C92.4285 47.3153 92.5368 47.2058 92.6717 47.2017C92.809 47.1978 92.9212 47.2993 92.9266 47.4289C92.9266 47.4607 92.9501 48.1981 92.3062 48.9513C91.4738 49.9257 89.9771 50.4578 87.8559 50.5335C87.6811 50.5395 87.5093 50.5435 87.3405 50.5435Z" fill="#33352E"/>
<path d="M97.9752 40.8731C98.8859 40.8731 99.6233 40.1647 99.6233 39.2909C99.6233 38.4171 98.8859 37.7087 97.9752 37.7087C97.0652 37.7087 96.3271 38.4171 96.3271 39.2909C96.3271 40.1647 97.0654 40.8731 97.9752 40.8731Z" fill="#FB945F"/>
<path d="M84.1022 38.7611C83.0809 38.6934 82.1552 38.5997 81.1339 38.532C80.1078 38.4642 79.0018 38.3645 78.2315 37.711C77.3717 36.9818 77.185 35.7683 77.2125 34.6663C77.2557 32.7912 77.833 30.8145 79.3109 29.587C83.0951 31.476 84.042 35.1106 84.1024 38.759V38.761L84.1022 38.7611Z" fill="#FED5A2"/>
<path d="M78.3812 29.9936C77.9309 31.2191 83.5296 33.391 83.812 31.4024C83.994 30.1132 78.7531 28.9834 78.3812 29.9936Z" fill="#95481C"/>
<path d="M79.0247 33.1638C77.0966 34.0406 79.6727 37.6612 81.3624 36.6968C83.0521 35.7304 81.1858 32.1814 79.0247 33.1638Z" fill="#33352E"/>
<path d="M80.5608 34.5048C80.0414 34.74 80.735 35.7144 81.189 35.4554C81.644 35.1964 81.1411 34.2419 80.5608 34.5048Z" fill="#FFE1AF"/>
<path d="M76.9733 41.2939C77.884 41.2939 78.6222 40.5855 78.6222 39.7117C78.6222 38.8379 77.884 38.1295 76.9733 38.1295C76.0632 38.1295 75.3252 38.8379 75.3252 39.7117C75.3252 40.5855 76.0634 41.2939 76.9733 41.2939Z" fill="#FB945F"/>
<path d="M83.7874 43.0751C83.7874 43.0751 84.9727 36.5034 82.7598 32.6278C82.7598 32.6278 83.9577 29.6169 87.2499 29.4974C90.5423 29.3778 91.6884 32.305 91.6884 32.305C89.7846 36.3301 91.483 42.7981 91.483 42.7981L83.7891 43.0771L83.7876 43.0751H83.7874Z" fill="url(#paint8_linear_1135_2595)"/>
<path d="M92.1654 43.6907C92.0799 41.5068 82.9794 41.8355 83.0641 44.0194C83.1495 46.2034 85.2629 44.3961 86.0638 45.4601C86.8656 46.5241 86.7118 47.4408 87.8492 47.4008C88.9866 47.3589 88.9083 45.3584 89.6598 45.1492C91.2994 44.6928 92.2296 45.3285 92.1654 43.6906V43.6907Z" fill="#33352E"/>
<path d="M101.126 26.0282C101.126 26.0282 103.281 23.1808 104.578 24.7171C105.876 26.2534 102.683 28.9396 102.683 28.9396L101.126 26.0284V26.0282Z" fill="#EB833E"/>
<path d="M74.341 26.9987C74.341 26.9987 71.968 24.3147 70.7952 25.9406C69.6225 27.5665 73.0169 30.0155 73.0169 30.0155L74.341 27.0006V26.9987Z" fill="#EB833E"/>
<path d="M78.4654 21.756C77.8135 19.5521 76.2917 17.5954 74.2764 16.3699C76.8894 15.7919 79.8106 16.8321 81.4008 18.9065C81.3528 17.6731 80.9567 16.4555 80.2673 15.4134C82.2974 16.34 83.8295 18.211 84.2908 20.3233C84.3669 16.8441 87.2654 13.6121 90.8379 13.0244C89.5113 14.3992 88.8909 16.372 89.2039 18.2212C90.2426 15.5908 93.0712 13.7138 96.0005 13.7077C95.0724 14.4391 94.1468 15.1704 93.2211 15.9016C96.4287 14.1043 100.638 14.0963 103.854 15.8797C101.954 15.3578 100.271 15.5948 98.4981 16.4298C96.7253 17.2647 95.2473 18.6078 94.0847 20.14C95.6749 19.2354 97.6156 18.9186 99.4261 19.2672C97.5553 19.8272 95.9651 21.1901 95.1744 22.9097L78.4656 21.7599L78.4654 21.756Z" fill="url(#paint9_linear_1135_2595)"/>
<path d="M108.179 31.6794C110.875 34.0187 112.007 37.8904 110.973 41.236C110.618 39.7534 109.65 38.4125 108.328 37.5736C109.63 39.5682 109.461 42.1925 108.503 44.3584C107.543 46.5224 105.895 48.3297 104.276 50.0932C105.119 48.8877 105.337 47.2995 104.845 45.9246C103.614 49.1208 99.4621 50.8364 98.804 54.186C98.6651 53.0228 98.6651 51.8428 98.804 50.6811C97.683 52.2792 96.9292 54.1123 96.6122 56.0137C95.5078 52.3288 95.8671 48.258 97.6021 44.8029L108.181 31.6794H108.179H108.179Z" fill="url(#paint10_linear_1135_2595)"/>
<path d="M65.5307 33.2215C63.0251 35.7502 62.2007 39.6916 63.4943 42.9515C63.7312 41.447 64.5902 40.0403 65.8446 39.1077C64.7024 41.19 65.0766 43.7965 66.2031 45.8867C67.3288 47.977 69.1142 49.6567 70.8683 51.3008C69.9316 50.1589 69.5912 48.5908 69.9756 47.1859C71.4536 50.2844 75.7281 51.6952 76.6475 54.9867C76.6954 53.8175 76.6035 52.6414 76.3737 51.4919C77.617 53.0045 78.5114 54.778 78.9765 56.6508C79.7907 52.8966 79.1114 48.8635 77.1102 45.5438L65.5332 33.2233L65.5309 33.2214L65.5307 33.2215Z" fill="url(#paint11_linear_1135_2595)"/>
<path d="M92.9325 54.4089C93.8063 56.0807 93.6425 58.2052 92.5262 59.7355C92.563 58.6996 92.1582 57.6554 91.4232 56.8945C91.9528 58.3546 90.9189 59.8553 90.2615 61.2656C89.7524 62.3557 89.4513 63.5332 89.379 64.7252C88.7122 62.8997 88.2 61.0231 87.8494 59.1177C87.4383 60.2757 87.2845 61.5173 87.4008 62.7348C87.1333 62.2044 86.6281 61.8277 86.1966 61.4095C84.9305 60.1801 84.2166 58.4404 84.27 56.7107C83.9608 57.9283 84.0628 59.2398 84.5548 60.3993C81.8641 58.9625 80.5855 55.4917 81.7379 52.7515L92.9328 54.4089H92.9325Z" fill="url(#paint12_linear_1135_2595)"/>
<defs>
<linearGradient id="paint0_linear_1135_2595" x1="55.5341" y1="80.3038" x2="59.0857" y2="54.186" gradientUnits="userSpaceOnUse">
<stop stop-color="#E87E2E"/>
<stop offset="1" stop-color="#E87E2E"/>
</linearGradient>
<linearGradient id="paint1_linear_1135_2595" x1="90.1846" y1="123.801" x2="88.0811" y2="7.48393" gradientUnits="userSpaceOnUse">
<stop stop-color="#E87E2E"/>
<stop offset="1" stop-color="#E87E2E"/>
</linearGradient>
<linearGradient id="paint2_linear_1135_2595" x1="96.9319" y1="90.3699" x2="97.3321" y2="84.0212" gradientUnits="userSpaceOnUse">
<stop stop-color="#E87E2E"/>
<stop offset="1" stop-color="#E87E2E"/>
</linearGradient>
<linearGradient id="paint3_linear_1135_2595" x1="93.2738" y1="89.9163" x2="93.6118" y2="84.5353" gradientUnits="userSpaceOnUse">
<stop stop-color="#E87E2E"/>
<stop offset="1" stop-color="#E87E2E"/>
</linearGradient>
<linearGradient id="paint4_linear_1135_2595" x1="85.3788" y1="89.9947" x2="85.7443" y2="84.1781" gradientUnits="userSpaceOnUse">
<stop stop-color="#E87E2E"/>
<stop offset="1" stop-color="#E87E2E"/>
</linearGradient>
<linearGradient id="paint5_linear_1135_2595" x1="82.5628" y1="89.459" x2="82.8675" y2="84.5935" gradientUnits="userSpaceOnUse">
<stop stop-color="#E87E2E"/>
<stop offset="1" stop-color="#E87E2E"/>
</linearGradient>
<linearGradient id="paint6_linear_1135_2595" x1="57.802" y1="87.2667" x2="58.1002" y2="82.5368" gradientUnits="userSpaceOnUse">
<stop stop-color="#E87E2E"/>
<stop offset="1" stop-color="#E87E2E"/>
</linearGradient>
<linearGradient id="paint7_linear_1135_2595" x1="54.8703" y1="88.0487" x2="55.162" y2="83.4115" gradientUnits="userSpaceOnUse">
<stop stop-color="#E87E2E"/>
<stop offset="1" stop-color="#E87E2E"/>
</linearGradient>
<linearGradient id="paint8_linear_1135_2595" x1="87.6454" y1="43.3431" x2="87.2445" y2="32.2707" gradientUnits="userSpaceOnUse">
<stop stop-color="#E87E2E"/>
<stop offset="1" stop-color="#E87E2E"/>
</linearGradient>
<linearGradient id="paint9_linear_1135_2595" x1="89.2462" y1="13.8785" x2="88.6649" y2="21.4725" gradientUnits="userSpaceOnUse">
<stop stop-color="#E87E2E"/>
<stop offset="1" stop-color="#E87E2E"/>
</linearGradient>
<linearGradient id="paint10_linear_1135_2595" x1="104.448" y1="46.7587" x2="100.568" y2="40.091" gradientUnits="userSpaceOnUse">
<stop stop-color="#E87E2E"/>
<stop offset="1" stop-color="#E87E2E"/>
</linearGradient>
<linearGradient id="paint11_linear_1135_2595" x1="70.4272" y1="47.9894" x2="73.7968" y2="41.0697" gradientUnits="userSpaceOnUse">
<stop stop-color="#E87E2E"/>
<stop offset="1" stop-color="#E87E2E"/>
</linearGradient>
<linearGradient id="paint12_linear_1135_2595" x1="87.9033" y1="62.7874" x2="87.2881" y2="53.6076" gradientUnits="userSpaceOnUse">
<stop stop-color="#E87E2E"/>
<stop offset="1" stop-color="#E87E2E"/>
</linearGradient>
</defs>
</svg>
