<svg width="185" height="201" viewBox="0 0 185 201" fill="none" xmlns="http://www.w3.org/2000/svg">
<path d="M56.9475 21.719V149.585C50.9057 144.265 42.6227 140.982 33.4841 140.982C14.991 140.982 0 154.417 0 170.992C0 187.567 14.991 201.002 33.4841 201.002C51.9773 201.002 66.9683 187.567 66.9683 170.992V59.0902L174.663 40.7804V127.866C168.621 122.546 160.338 119.263 151.2 119.263C132.707 119.263 117.716 132.698 117.716 149.273C117.716 165.848 132.707 179.283 151.2 179.283C169.693 179.283 184.684 165.848 184.684 149.273V0L56.9475 21.719Z" fill="#1869CE"/>
</svg>
