<svg width="100" height="100" viewBox="0 0 100 100" fill="none" xmlns="http://www.w3.org/2000/svg">
<circle cx="50" cy="50" r="50" fill="#F9F5F2"/>
<g clip-path="url(#clip0_1135_3209)">
<path d="M62.7441 27.1978C61.5645 23.1169 59.4967 19.7722 56.7541 17.3852C56.5114 16.5238 55.827 15.5661 54.9581 14.5074C54.3514 13.7662 53.6184 13.2994 52.8515 13.0492C52.6719 12.6305 52.4534 12.0482 52.2447 11.283C52.1088 10.7873 51.5943 10.4938 51.0894 10.6333C50.5895 10.7681 50.2934 11.283 50.4293 11.7787C50.5361 12.1637 50.6526 12.5294 50.7739 12.8759C50.5458 12.5728 50.3031 12.1204 50.1283 11.5044C49.9924 11.0087 49.473 10.7151 48.9731 10.8547C48.4731 10.9895 48.177 11.5044 48.3129 12.0001C48.4683 12.5631 48.6964 13.0829 48.9731 13.5449C48.9391 13.5689 48.9003 13.593 48.8663 13.6171C48.5168 13.2417 48.211 12.7268 48.0314 12.0771C47.8955 11.5814 47.3761 11.2878 46.8761 11.4274C46.3762 11.5621 46.0801 12.0771 46.2208 12.5728C46.4101 13.2609 46.7062 13.8721 47.0703 14.3871C46.9344 14.2812 46.8082 14.1368 46.7548 13.9347C46.6189 13.439 46.1043 13.1454 45.5995 13.2802C45.0995 13.4149 44.8034 13.9299 44.9394 14.4256C45.0753 14.9212 45.3617 15.364 45.7548 15.7153C45.5607 15.6287 45.3422 15.5998 45.119 15.6575C44.619 15.7923 44.3229 16.3072 44.4588 16.8029C44.6335 17.4333 45.2306 17.751 46.2451 17.751C46.3033 17.751 46.3616 17.751 46.4198 17.751C46.6771 17.7413 46.9586 17.7125 47.2547 17.6692C47.5557 18.3766 48.3032 18.9156 49.7255 19.0166C51.7059 19.161 53.3903 20.1235 54.7834 20.0273C56.958 22.0004 58.6035 24.7483 59.5744 28.1026C61.1568 33.5695 60.7587 39.9412 58.4531 46.0482L61.5354 47.1936C64.0838 40.4369 64.5109 33.3385 62.7343 27.2026L62.7441 27.1978Z" fill="#A66538"/>
<path d="M40.5757 17.5825C38.3768 17.5825 36.2508 17.491 34.1975 17.3082C21.6789 16.182 13.4755 11.6872 11.097 4.65137C10.7718 3.69851 11.2912 2.66383 12.2523 2.3462C13.2134 2.02858 14.257 2.54352 14.5774 3.49638C16.4365 8.99703 23.7079 12.7122 34.5276 13.6796C46.0268 14.7094 60.2201 12.6689 74.4862 7.92866C75.4473 7.61104 76.4909 8.12116 76.8113 9.07884C77.1317 10.0317 76.6171 11.0664 75.656 11.384C63.4335 15.4457 51.2255 17.5825 40.5757 17.5825Z" fill="#67A121"/>
<g opacity="0.3">
<path d="M76.7772 8.98264C76.5782 9.19439 76.3258 9.35802 76.0297 9.45908C63.8072 13.5208 51.5992 15.6575 40.9494 15.6575C38.7505 15.6575 36.6244 15.5661 34.5712 15.3832C22.1059 14.2619 13.922 9.80558 11.4998 2.82269C11.0532 3.29431 10.8736 3.99212 11.0969 4.65143C13.4754 11.6872 21.6788 16.1821 34.1974 17.3082C36.2458 17.4911 38.3767 17.5825 40.5756 17.5825C51.2254 17.5825 63.4383 15.441 75.6559 11.3841C76.617 11.0664 77.1364 10.0318 76.8112 9.07889C76.8015 9.04521 76.7869 9.01633 76.7724 8.98264H76.7772Z" fill="#67A121"/>
</g>
<path d="M28.3633 97.5993L29.4215 97.4068C29.4215 97.4068 29.2807 98.0035 29.7079 98.9227C29.8244 99.1778 28.6594 99.3895 28.6497 99.1152C28.5963 97.811 28.3633 97.5993 28.3633 97.5993Z" fill="#FFE675"/>
<g opacity="0.4">
<path d="M28.6885 97.5416L28.3633 97.5993C28.3633 97.5993 28.5963 97.8111 28.6497 99.1152C28.6497 99.2163 28.8099 99.25 28.9992 99.2452C28.9992 98.9709 28.9652 98.6629 28.9069 98.3404C28.8535 98.0469 28.7759 97.7774 28.6934 97.5416H28.6885Z" fill="#FFE675"/>
<path d="M29.0913 97.4694C29.0815 97.7244 29.101 98.018 29.1592 98.3308C29.2175 98.6484 29.3097 98.9372 29.4165 99.173C29.6106 99.1152 29.7514 99.0238 29.7077 98.9275C29.2806 98.0084 29.4213 97.4116 29.4213 97.4116L29.0913 97.4694Z" fill="#FFE675"/>
</g>
<path d="M30.8285 90.5057C30.9208 90.3902 31.0082 90.2747 31.1004 90.1544C31.5227 89.6106 31.9498 89.0524 32.4207 88.4941C32.8964 87.9311 33.3818 87.3728 34.1148 86.8098C34.207 86.7376 34.3041 86.6702 34.4157 86.598L34.6196 86.4729L34.7458 86.4007L34.7749 86.3863H34.7895L34.8477 86.3478L34.872 86.3381C34.9351 86.3093 34.9982 86.2804 35.0661 86.2563L35.1632 86.2227L35.2457 86.1986L35.4108 86.1553C35.6195 86.1072 35.804 86.0879 35.9641 86.0831C36.6049 86.0638 37.0563 86.1842 37.4786 86.3285C38.3087 86.6317 38.9591 87.1033 39.4445 87.6568C39.9251 88.2102 40.2212 88.8358 40.3377 89.3941C40.4542 89.9619 40.4153 90.4528 40.3182 90.8234C40.2697 91.0111 40.2115 91.165 40.1484 91.2998C40.0852 91.4345 40.027 91.5549 39.9688 91.627C39.862 91.781 39.7892 91.8629 39.7892 91.8629L39.5125 91.8388C39.5125 91.8388 39.4591 91.7474 39.3814 91.5741C39.3426 91.4875 39.2746 91.4009 39.2212 91.2998C39.1533 91.1987 39.0902 91.0832 38.9979 90.9677C38.828 90.7367 38.6193 90.4961 38.3621 90.294C38.1145 90.0871 37.8184 89.9186 37.5029 89.7742C37.1825 89.6347 36.3962 89.3363 35.6292 89.9571C35.4253 90.1592 35.1972 90.3854 34.9739 90.6261C34.5273 91.1073 34.0565 91.6319 33.5565 92.1516C33.0663 92.681 32.5275 93.1959 31.9741 93.6964C31.4062 94.1873 30.8188 94.6637 30.1684 95.0535C30.0325 95.1401 29.8917 95.222 29.7461 95.299L30.8237 90.4913L30.8285 90.5057Z" fill="#FFF6BA"/>
<path d="M33.2656 89.5048C33.3433 89.3796 33.4209 89.2545 33.4986 89.1294C33.8626 88.5471 34.2364 87.9551 34.5956 87.3199C34.9597 86.6798 35.3092 86.035 35.5761 85.1687C35.6101 85.058 35.6392 84.9474 35.6684 84.8174L35.712 84.5912L35.7315 84.4517V84.4228L35.7363 84.4084V84.341L35.746 84.3169C35.746 84.2496 35.7509 84.1822 35.7509 84.11V84.0089L35.7412 83.9271L35.7218 83.7587C35.6878 83.5517 35.6392 83.3833 35.5858 83.2341C35.3674 82.647 35.081 82.2861 34.7898 81.954C34.1927 81.3139 33.5034 80.9049 32.7948 80.6691C32.0909 80.4381 31.3822 80.4044 30.8046 80.5055C30.2172 80.6113 29.7658 80.8279 29.4455 81.0541C29.2853 81.1648 29.1591 81.2803 29.0523 81.3813C28.9455 81.492 28.8581 81.5834 28.8047 81.6653C28.6979 81.8193 28.6445 81.9107 28.6445 81.9107L28.7659 82.1513C28.7659 82.1513 28.8727 82.1658 29.0668 82.1754C29.1688 82.1754 29.2707 82.2043 29.3872 82.2187C29.5086 82.2428 29.6445 82.2572 29.7852 82.2957C30.0716 82.3631 30.3774 82.4641 30.6687 82.6181C30.9599 82.7673 31.2269 82.9694 31.4842 83.2052C31.7366 83.4411 32.3142 84.0426 32.0035 84.9666C31.887 85.2265 31.756 85.5104 31.6055 85.804C31.3094 86.3863 30.9842 87.0071 30.6687 87.652C30.3435 88.292 30.0522 88.9658 29.7755 89.6539C29.5183 90.3469 29.2804 91.0544 29.1445 91.7859C29.1105 91.9399 29.0863 92.0987 29.0668 92.2575L33.2607 89.5096L33.2656 89.5048Z" fill="#FFF6BA"/>
<path d="M35.7408 89.5962C35.8719 89.4662 36.0029 89.3363 36.1437 89.2064C36.5078 88.8647 36.8961 88.5326 37.2844 88.2006C37.6776 87.8781 38.0853 87.5653 38.4882 87.2621C38.896 86.9638 39.2988 86.6702 39.7017 86.4055C39.8037 86.3381 39.9008 86.2708 39.9978 86.2034C40.0998 86.1408 40.1968 86.0783 40.2939 86.0109C40.4832 85.8761 40.6774 85.7655 40.8619 85.6451C41.0463 85.52 41.2308 85.419 41.4007 85.3035C41.5754 85.188 41.7404 85.0917 41.9006 84.9906C42.2258 84.7885 42.4928 84.6249 42.7258 84.4757C42.9588 84.3265 43.1821 84.211 43.318 84.1196C43.4588 84.0282 43.5316 83.98 43.5316 83.98C43.7015 83.8693 43.8422 83.7009 43.9151 83.4892C44.085 82.9887 43.818 82.4497 43.3229 82.2764C43.3229 82.2764 43.2403 82.2475 43.0802 82.1946C43.0025 82.1705 42.9054 82.1369 42.7938 82.1032C42.6773 82.0695 42.5559 82.031 42.3957 82.0021C42.0802 81.9396 41.6773 81.8722 41.2453 81.8385C41.022 81.8096 40.789 81.8048 40.5415 81.8C40.2939 81.7904 40.0318 81.7952 39.76 81.8096C39.4882 81.8144 39.2018 81.8433 38.9105 81.8818C38.6144 81.9107 38.3135 81.9588 38.0077 82.0214C37.3863 82.1417 36.7408 82.3245 36.0903 82.5652C35.435 82.8106 34.7797 83.1186 34.1341 83.4892C33.5274 83.8501 32.9303 84.2592 32.377 84.726L35.7505 89.601L35.7408 89.5962Z" fill="#FFF6BA"/>
<path d="M28.6448 91.8099C28.004 92.681 27.5526 93.6098 27.4992 94.6782C27.4847 94.9669 27.5089 95.2316 27.572 95.5155C27.6642 95.9053 27.7371 95.9487 28.1497 95.915C29.1642 95.8332 29.402 95.092 29.8389 94.2691C30.6204 92.7965 31.6446 91.4779 32.562 90.0967C32.8047 89.7358 32.9843 89.2978 33.1154 88.8888C33.1688 88.7203 33.2998 88.4123 33.227 88.2343C33.0717 87.8493 32.7222 88.2006 32.4843 88.3594C31.0475 89.3075 29.669 90.4239 28.6496 91.8051L28.6448 91.8099Z" fill="#FFF570"/>
<path d="M31.0962 91.6318C30.771 92.2334 30.4749 92.8301 30.1448 93.3836C29.8341 93.9418 29.4944 94.4568 29.1546 94.9236C28.8099 95.3807 28.4507 95.7898 28.0721 96.1074C28.009 96.1604 27.9459 96.2085 27.8828 96.2566L29.0623 97.9554C29.1157 97.9313 29.1691 97.9121 29.2274 97.888C29.8875 97.5656 30.5137 97.1325 31.0719 96.6272C31.6399 96.1267 32.1301 95.5588 32.601 94.9813C33.0524 94.3942 33.4893 93.7926 33.8776 93.1863C34.2708 92.5847 34.6445 91.9928 34.9989 91.4393C35.1736 91.165 35.3581 90.91 35.5231 90.6693C36.1687 89.9282 36.9987 90.087 37.3385 90.1688C37.6783 90.2555 37.9987 90.371 38.2802 90.5346C38.5666 90.6886 38.819 90.8907 39.0277 91.0928C39.1345 91.1891 39.2219 91.295 39.3044 91.3816C39.3772 91.473 39.4549 91.5452 39.5131 91.6222C39.6199 91.7762 39.6927 91.858 39.6927 91.858L39.9646 91.834C39.9646 91.834 40.018 91.7425 40.0956 91.5693C40.1393 91.4875 40.1733 91.3623 40.2121 91.218C40.2461 91.0736 40.2801 90.91 40.2898 90.7175C40.3189 90.3373 40.2704 89.8464 40.0519 89.3074C39.8335 88.7732 39.4306 88.2102 38.8578 87.7482C38.2802 87.291 37.557 86.9301 36.6832 86.7761C36.2367 86.7087 35.7707 86.6654 35.1445 86.7905C34.9892 86.8242 34.8096 86.8723 34.6154 86.9541L34.4601 87.0263L34.3824 87.0648L34.295 87.1177C34.2368 87.1514 34.1785 87.1899 34.1203 87.2332L34.096 87.2477L34.0426 87.291L34.0281 87.3006L34.0038 87.3199L33.8921 87.4113L33.7174 87.5653C33.6252 87.6567 33.5378 87.7386 33.4601 87.8252C32.8437 88.5037 32.465 89.1342 32.0961 89.7694C31.7321 90.3998 31.4117 91.0207 31.0913 91.6318H31.0962Z" fill="#FFF570"/>
<path d="M29.4407 97.7774C29.397 97.7004 29.3484 97.6234 29.2999 97.5368C29.1591 97.2769 29.0038 96.9593 28.8776 96.5935C28.7562 96.2326 28.6786 95.8235 28.6786 95.3952C28.6786 94.9669 28.7611 94.5242 28.931 94.0622C29.0912 93.6002 29.3484 93.1285 29.6591 92.6473C29.9795 92.166 30.3435 91.6752 30.7658 91.1843C31.1687 90.6838 31.6298 90.1929 32.0861 89.678C32.5473 89.1679 33.0278 88.6481 33.4938 88.0851C33.9647 87.5172 34.4306 86.9445 34.8481 86.136C34.9015 86.035 34.95 85.9243 34.9986 85.8088L35.0811 85.5922L35.1248 85.4575L35.1345 85.4286V85.4142L35.1588 85.3516V85.3275C35.183 85.2602 35.1976 85.1928 35.2073 85.1302L35.2267 85.0292L35.2364 84.9474L35.2461 84.7789C35.251 84.572 35.2316 84.3939 35.2073 84.2399C35.0956 83.6239 34.8821 83.2197 34.6539 82.8443C34.1831 82.1128 33.5763 81.5883 32.921 81.237C32.2706 80.8905 31.5813 80.7365 30.9891 80.7365C30.3921 80.7365 29.9067 80.876 29.5572 81.0444C29.3776 81.1263 29.2319 81.2177 29.1106 81.2995C28.9844 81.3861 28.8824 81.4679 28.8145 81.5353C28.6786 81.6701 28.6106 81.7519 28.6106 81.7519L28.6883 82.0069C28.6883 82.0069 28.7902 82.0406 28.9795 82.0791C29.0766 82.0984 29.1737 82.1417 29.2853 82.1754C29.4018 82.2187 29.5329 82.2572 29.664 82.3198C29.9309 82.4353 30.2173 82.5844 30.4746 82.7866C30.7318 82.9791 30.96 83.2245 31.1687 83.5036C31.3726 83.7779 31.8337 84.4709 31.3629 85.3275C31.1978 85.5634 31.0182 85.8232 30.8241 86.0831C30.426 86.6028 29.9989 87.1611 29.5717 87.7386C29.1349 88.3113 28.7271 88.9273 28.3291 89.5529C27.9505 90.1929 27.5913 90.8523 27.3243 91.5452C27.0476 92.2334 26.8632 92.9601 26.8001 93.6772C26.7467 94.3942 26.8195 95.1016 27.0282 95.6984C27.1301 95.9968 27.2515 96.2711 27.3971 96.5165C27.5379 96.762 27.6883 96.9737 27.8485 97.1614C28.1592 97.5368 28.4747 97.8063 28.7417 98.0036C28.9698 98.1672 29.4358 97.7726 29.4358 97.7726L29.4407 97.7774Z" fill="#FFE675"/>
<g opacity="0.4">
<path d="M35.217 84.4228V84.4372L35.2024 84.4709L35.1539 84.6201L35.0665 84.8655C35.0131 85.0003 34.9646 85.1206 34.9063 85.2361C34.4695 86.1504 33.9695 86.8097 33.4647 87.4546C32.9647 88.0995 32.4502 88.6914 31.9502 89.2785C31.4599 89.8705 30.9648 90.4335 30.528 91.0062C30.0765 91.5693 29.6834 92.1323 29.3436 92.6761C29.0135 93.2248 28.7465 93.7589 28.5815 94.2787C28.4067 94.7984 28.3339 95.2989 28.3485 95.7706C28.3631 96.247 28.465 96.6994 28.6155 97.0988C28.7417 97.4405 28.897 97.7437 29.0426 98.0035C29.2416 97.9313 29.4309 97.7725 29.4309 97.7725C29.3873 97.6955 29.3387 97.6185 29.2902 97.5319C29.1494 97.272 28.9941 96.9544 28.8679 96.5887C28.7465 96.2277 28.6689 95.8187 28.6689 95.3904C28.6689 94.9621 28.7514 94.5193 28.9213 94.0573C29.0815 93.5953 29.3387 93.1237 29.6494 92.6425C29.9697 92.1612 30.3338 91.6703 30.7561 91.1795C31.159 90.679 31.6201 90.1881 32.0764 89.6732C32.5375 89.163 33.0181 88.6433 33.4841 88.0802C33.9549 87.5124 34.4209 86.9397 34.8384 86.1312C34.8918 86.0301 34.9403 85.9194 34.9888 85.8039L35.0714 85.5874L35.1151 85.4526L35.1248 85.4238V85.4093L35.149 85.3468V85.3227C35.1733 85.2553 35.1879 85.188 35.1976 85.1254L35.217 85.0243L35.2267 84.9425L35.2364 84.7741C35.2364 84.6297 35.2316 84.4998 35.217 84.3795L35.2073 84.4228H35.217Z" fill="#FFE675"/>
</g>
<path d="M82.6657 70.3319C75.1856 59.0274 60.3661 55.5143 49.629 62.4972L47.8232 59.7685C60.0798 51.7943 76.9476 55.7357 85.4228 68.5416L82.6657 70.3319Z" fill="#A66538"/>
<path d="M81.365 65.7985C82.8697 65.0429 84.7531 65.7359 85.5783 67.3481C86.4035 68.9603 85.855 70.8805 84.3502 71.636C82.8454 72.3916 80.9621 71.6986 80.1369 70.0864C79.3117 68.4742 79.8602 66.5589 81.365 65.7985Z" fill="#A66538"/>
<path d="M87.1655 72.8151C87.1655 72.8151 87.1267 72.8151 87.1072 72.8151C86.6558 72.7814 86.3112 72.3916 86.3452 71.944C86.3986 71.1933 86.1753 70.4714 85.719 69.9083C85.2724 69.3645 84.6608 69.0421 83.9861 68.994C83.5347 68.9603 83.19 68.5705 83.224 68.1229C83.258 67.6753 83.6512 67.3337 84.1026 67.3673C85.2384 67.4443 86.2626 67.9833 87.0005 68.8833C87.7237 69.764 88.0732 70.8949 87.9907 72.0595C87.9616 72.4926 87.5975 72.8199 87.1703 72.8199L87.1655 72.8151Z" fill="#A66538"/>
<path d="M85.6316 74.6149C85.6316 74.6149 85.5928 74.6149 85.5734 74.6149C85.1171 74.5812 84.7773 74.1914 84.8113 73.7439C84.9424 71.8863 84.1123 70.2548 83.0007 70.1778C82.5493 70.1441 82.2047 69.7543 82.2386 69.3068C82.2726 68.8592 82.6609 68.5224 83.1172 68.5512C85.1899 68.6956 86.6558 71.0248 86.4568 73.8594C86.4277 74.2925 86.0636 74.6197 85.6365 74.6197L85.6316 74.6149Z" fill="#A66538"/>
<path d="M83.1998 75.8277C83.1998 75.8277 83.1609 75.8277 83.1415 75.8277C82.6901 75.794 82.3455 75.4042 82.3794 74.9566C82.5542 72.4493 81.996 71.02 81.7144 70.8035C81.2873 70.7457 80.9718 70.3703 81.0009 69.9372C81.0349 69.4897 81.4232 69.148 81.8795 69.1817C83.6366 69.302 84.224 72.228 84.0201 75.0721C83.991 75.5004 83.6269 75.8325 83.1998 75.8325V75.8277Z" fill="#A66538"/>
<path d="M80.681 75.1684C80.681 75.1684 80.6422 75.1684 80.6228 75.1684C80.1714 75.1347 79.8267 74.7449 79.8607 74.2973C80.0403 71.7371 80.118 70.1971 80.118 69.8795C80.1083 69.8217 80.1083 69.7592 80.1131 69.6966C80.152 69.2491 80.55 68.9122 81.0014 68.9507C81.7975 69.0133 81.7732 69.8121 81.7587 70.1538C81.7489 70.3896 81.7344 70.7313 81.7101 71.1548C81.6616 72.0258 81.5888 73.1808 81.5014 74.408C81.4723 74.8363 81.1082 75.1684 80.681 75.1684Z" fill="#A66538"/>
<path d="M77.9916 71.2944C77.9916 71.2944 77.9528 71.2944 77.9333 71.2944C77.4819 71.2607 77.1373 70.8709 77.1713 70.4233C77.2344 69.5378 77.6664 68.7293 78.3896 68.1566C79.0935 67.5984 79.9915 67.3289 80.9186 67.3914C81.37 67.4251 81.7147 67.8149 81.6807 68.2625C81.6467 68.7101 81.2584 69.0517 80.8021 69.0181C80.2876 68.9844 79.7973 69.1287 79.4187 69.4271C79.0595 69.7111 78.8459 70.1009 78.8168 70.5292C78.7877 70.9575 78.4236 71.2895 77.9964 71.2895L77.9916 71.2944Z" fill="#A66538"/>
<path d="M38.0514 32.2124C37.2942 28.7185 37.4689 25.4509 38.5174 22.65C39.5222 21.7549 40.1338 20.032 41.4444 18.6749C42.4298 17.6547 42.6239 16.7596 42.3715 16.0329C42.6191 15.8644 42.8521 15.7008 43.0462 15.5372C43.9005 14.8249 44.1724 14.1512 43.8617 13.5352C43.6287 13.078 43.0656 12.8903 42.5996 13.1213C42.3958 13.2224 42.2502 13.3908 42.1676 13.5833C42.221 13.0588 42.1337 12.5438 41.9007 12.0867C41.6677 11.6247 41.1046 11.4418 40.6386 11.6728C40.1726 11.9038 39.9882 12.462 40.2212 12.924C40.3716 13.2176 40.294 13.5352 40.2114 13.747C40.1192 13.2416 39.9348 12.693 39.6338 12.0915C39.4008 11.6295 38.8377 11.4466 38.3718 11.6776C37.9058 11.9086 37.7213 12.4668 37.9543 12.9288C38.1145 13.2513 38.2989 13.6748 38.3718 14.1031C38.3523 14.1031 38.3281 14.1127 38.3087 14.1175C38.2019 13.593 38.0223 13.054 37.7601 12.5342C37.5272 12.0722 36.9641 11.8893 36.4981 12.1203C36.0321 12.3513 35.8476 12.9096 36.0806 13.3716C36.2311 13.67 36.3379 13.9539 36.4107 14.2041C36.1583 13.7518 35.8525 13.3138 35.4739 12.9385C35.105 12.5727 34.5128 12.5727 34.1439 12.9385C33.775 13.3042 33.775 13.8913 34.1439 14.2571C34.7166 14.8249 35.0419 15.5805 35.1972 16.1724C34.7361 16.8991 34.4642 17.7846 34.5176 18.8145C34.5953 20.2342 34.7361 21.4469 35.1778 22.2458C34.139 25.4509 34.0031 29.0795 34.8331 32.915C36.1826 39.1519 39.9348 45.2156 45.3956 49.98L47.5702 47.5304C42.6336 43.2233 39.2552 37.7852 38.0514 32.2268V32.2124Z" fill="#A66538"/>
<path d="M42.8957 56.063C41.5948 49.5758 45.9149 44.258 52.3077 42.9971C58.7005 41.7363 64.7438 45.0135 66.0447 51.5007C67.3456 57.9879 64.1808 69.071 57.788 70.3319C51.3952 71.5928 44.1966 62.5502 42.8957 56.063Z" fill="#A66538"/>
<path d="M29.7757 71.689C33.7851 65.1633 40.4643 61.1786 48.0949 60.7599L47.9105 57.5019C39.1829 57.9831 31.5474 62.5357 26.9603 69.9902C23.2907 75.9625 22.1305 83.0368 23.645 89.2593C23.1693 90.1978 23.1887 91.3961 23.7955 92.4259C23.8926 92.5944 24.0042 92.7436 24.1256 92.8879C24.0964 93.3981 24.1644 93.9226 24.3343 94.4327C24.6935 95.5107 25.4604 96.4155 26.4992 96.9737C26.6254 97.0411 26.7613 97.0748 26.8924 97.0748C27.1836 97.0748 27.4652 96.9208 27.6156 96.6513C27.7904 96.3288 27.7273 95.9438 27.4797 95.6936C27.8778 96.0545 28.3389 96.3866 28.8534 96.6657C28.9796 96.7331 29.1155 96.7668 29.2466 96.7668C29.5378 96.7668 29.8194 96.6128 29.9699 96.3433C30.1883 95.9487 30.0427 95.453 29.6398 95.2364C28.9262 94.8466 28.3437 94.3317 27.9554 93.7927C28.004 93.7686 28.0476 93.7494 28.0913 93.7205C28.2467 93.6291 28.3923 93.5232 28.5233 93.4077C29.2223 94.0718 30.1495 94.7311 31.1882 95.2942C31.3144 95.3615 31.4503 95.3952 31.5814 95.3952C31.8726 95.3952 32.1542 95.2412 32.3047 94.9717C32.5231 94.5771 32.3775 94.0814 31.9746 93.8649C30.7416 93.1959 29.9116 92.5174 29.4116 91.988C29.4553 91.8244 29.4942 91.6559 29.5136 91.4875C30.2223 91.8821 31.0766 92.3489 31.9843 92.8446C32.1105 92.912 32.2464 92.9457 32.3775 92.9457C32.6687 92.9457 32.9502 92.7917 33.1007 92.5222C33.3192 92.1276 33.1735 91.6319 32.7706 91.4153C30.7368 90.3133 29.4505 89.5866 29.0087 89.3267C28.8486 89.0668 28.6641 88.8406 28.4554 88.6385C28.5864 88.5519 28.7272 88.4749 28.8777 88.4268C29.3146 88.2824 29.7611 88.3113 30.1397 88.5182C30.5378 88.7348 31.0377 88.5904 31.2562 88.191C31.4746 87.7963 31.329 87.3007 30.9261 87.0841C30.1397 86.6558 29.2223 86.5836 28.3437 86.8772C27.8001 87.06 27.3098 87.3777 26.9118 87.7915C26.8244 87.7723 26.7419 87.753 26.6545 87.7434C25.6109 82.5411 26.6885 76.7036 29.7563 71.7131L29.7757 71.689ZM27.2904 95.5396C26.6594 95.1979 26.1885 94.6589 25.9458 94.0189C26.0381 94.0381 26.1303 94.0574 26.2274 94.0718C26.4992 94.6156 26.9021 95.145 27.4118 95.6214C27.3729 95.5925 27.339 95.5637 27.2953 95.5396H27.2904Z" fill="#A66538"/>
<path d="M64.4486 58.8157C64.0846 57.2709 62.5701 55.8801 60.5751 56.1015C60.9197 56.2747 61.9973 56.8763 62.109 57.4345C61.2838 56.7078 59.3033 56.2122 57.6966 57.4008C59.2499 57.5789 60.3324 58.0746 60.7256 58.7531C58.7548 58.0602 56.8763 57.0303 54.7842 60.322C56.2064 59.6627 58.6771 60.1151 60.0023 61.1209C59.8276 61.0535 61.2304 60.9091 62.0022 61.5444C61.4537 61.3519 59.9877 61.1449 59.745 61.8379C60.478 62.3192 61.6284 61.9823 62.3953 62.4732C62.7351 62.6897 62.6332 63.0459 63.0749 63.2335C64.6525 63.888 64.6622 59.706 64.4535 58.8109L64.4486 58.8157Z" fill="#863D21"/>
<path d="M70.4381 73.0125C68.943 77.8105 63.2104 80.3178 57.6331 78.6094C52.0606 76.901 48.755 71.6265 50.25 66.8237C51.7451 62.0208 57.4826 59.5183 63.055 61.2268C68.6324 62.9352 71.938 68.2145 70.4381 73.0125Z" fill="#A66538"/>
<path d="M50.27 66.8284C50.9981 64.4944 52.7262 62.709 54.9493 61.6791C54.3717 60.938 53.5562 60.3557 52.5708 60.0525C50.0953 59.2921 47.4838 60.6011 46.746 62.9736C46.0082 65.3462 47.4158 67.8872 49.8914 68.6475C49.906 68.6475 49.9157 68.6524 49.9302 68.6572C49.9691 68.046 50.0856 67.4348 50.27 66.8332V66.8284Z" fill="#863D21"/>
<path d="M72.3805 66.121C71.4048 65.8226 70.4097 65.8467 69.5166 66.121C70.7738 68.2192 71.1913 70.6736 70.4583 73.0124C70.269 73.6188 70.0166 74.1819 69.7011 74.7112C72.1815 75.4716 74.7881 74.1626 75.5308 71.7901C76.2686 69.4175 74.8609 66.8765 72.3805 66.1162V66.121Z" fill="#863D21"/>
<path d="M72.5935 79.1099C71.2198 83.5229 63.0941 87.8734 55.478 85.5345C47.8572 83.2005 43.6293 75.0626 45.003 70.6544C46.3767 66.2413 52.1093 69.5619 59.7302 71.9008C67.3511 74.2348 73.972 74.7017 72.5935 79.1099Z" fill="#FDBC86"/>
<path d="M53.9971 69.9614C55.7251 70.563 57.6376 71.2608 59.6909 71.8912C61.7733 72.5264 63.7732 73.0269 65.5643 73.5034C66.1128 73.0654 66.5788 72.4783 66.8992 71.7709C67.8651 69.6245 67.0836 67.1942 65.1614 66.3424C63.8751 65.7746 62.3995 66.0537 61.2782 66.944C60.8559 65.5772 59.8025 64.5233 58.4143 64.2731C56.3416 63.8977 54.3126 65.4714 53.8903 67.7813C53.7495 68.5417 53.8029 69.2876 54.0068 69.9614H53.9971Z" fill="white"/>
<path d="M57.1093 68.6332C56.9491 69.1385 56.4977 69.4513 56.0948 69.3261C55.6919 69.201 55.4929 68.6909 55.6531 68.1856C55.8084 67.6803 56.2647 67.3675 56.6676 67.4926C57.0705 67.6177 57.2695 68.1278 57.1093 68.6332Z" fill="black"/>
<path d="M61.8661 70.0962C61.7108 70.6015 61.2545 70.9143 60.8516 70.7892C60.4488 70.664 60.2497 70.1539 60.4099 69.6486C60.5701 69.1433 61.0215 68.8305 61.4244 68.9556C61.8273 69.0807 62.0263 69.5909 61.8661 70.0962Z" fill="black"/>
<path d="M59.9197 71.2848C58.0412 70.7073 56.1044 71.5784 55.852 72.4013C55.653 73.0366 57.0655 72.5361 57.8761 73.5948C58.2208 74.0472 58.148 74.9471 58.7256 75.1252C59.3032 75.3032 59.7595 74.5188 60.2983 74.3407C61.5652 73.9172 62.4487 75.1204 62.6477 74.4899C62.905 73.667 61.7982 71.8671 59.9197 71.2944V71.2848Z" fill="#863D21"/>
<path d="M58.1186 83.1186C55.6042 83.1042 53.1626 81.9492 51.4151 79.9568C50.0172 78.3591 49.3133 76.4774 49.5269 74.9134C49.5463 74.7642 49.6871 74.6583 49.8376 74.6776C49.988 74.6968 50.0948 74.8364 50.0754 74.9856C49.8813 76.3908 50.5414 78.1137 51.8326 79.5959C53.4733 81.4728 55.7644 82.5556 58.1235 82.57C58.2739 82.57 58.4001 82.6951 58.4001 82.8443C58.4001 82.9935 58.2739 83.1186 58.1235 83.1186H58.1186Z" fill="black"/>
<path d="M50.3809 75.3369C50.2984 75.3369 50.2159 75.3032 50.1625 75.231C50.0606 75.1011 49.881 75.0193 49.6965 75.0241C49.5509 75.0241 49.4344 75.077 49.4004 75.1251C49.313 75.2454 49.1383 75.2743 49.0169 75.1829C48.8956 75.0963 48.8665 74.923 48.9538 74.8027C49.0995 74.6006 49.3761 74.4803 49.6868 74.4755C50.0508 74.4658 50.3906 74.6246 50.5994 74.8893C50.6916 75.0096 50.6722 75.1781 50.5508 75.2743C50.5023 75.3128 50.4392 75.3321 50.3809 75.3321V75.3369Z" fill="black"/>
<path d="M53.2069 44.4264C53.2069 44.4264 53.1584 44.1377 53.0661 43.5891C53.0225 43.3148 52.9496 42.9971 52.9302 42.5448C52.9157 42.3282 52.9011 42.0924 52.8817 41.8422C52.872 41.717 52.8671 41.5871 52.8574 41.4572C52.8574 41.3272 52.8623 41.1925 52.8671 41.0577C52.8914 40.5091 52.8865 39.9027 52.9982 39.253C53.0225 39.0894 53.0419 38.921 53.0661 38.7526C53.0856 38.5793 53.1098 38.4109 53.1584 38.2376C53.2409 37.8911 53.3283 37.5302 53.4156 37.1596C53.8428 35.6918 54.5369 34.0845 55.6291 32.5348C56.7164 30.9852 58.2017 29.503 60.0608 28.3432C60.2938 28.2036 60.522 28.04 60.7695 27.9149C61.0171 27.7898 61.2695 27.6646 61.5171 27.5395C62.0122 27.2652 62.5558 27.092 63.0946 26.8802C63.2306 26.8321 63.3616 26.7743 63.5024 26.731L63.9247 26.6155C64.2062 26.5385 64.4878 26.4615 64.7741 26.3845L64.9877 26.3268L65.2498 26.2835L65.6576 26.2161C65.9391 26.1776 66.1818 26.115 66.5216 26.1006C66.842 26.0813 67.1623 26.0621 67.4876 26.038C67.8031 26.038 68.1089 26.0573 68.4244 26.0669C68.5797 26.0765 68.7351 26.0717 68.8904 26.091L69.3564 26.1535C69.667 26.2016 69.9826 26.2209 70.2884 26.3027C70.599 26.3749 70.9048 26.4471 71.2155 26.5241C71.5164 26.6203 71.8222 26.7262 72.1232 26.8273C72.429 26.9187 72.7154 27.0679 73.0115 27.1978L73.4532 27.4C73.5988 27.4673 73.7347 27.554 73.8755 27.631C75.0162 28.2373 76.0598 29.0554 76.9627 30.0035C77.8656 30.9467 78.6519 32.0295 79.2101 33.2278C79.3703 33.5166 79.4868 33.8246 79.6033 34.1326C79.715 34.4406 79.8557 34.7438 79.9334 35.0614L80.1955 36.0143L80.3605 36.9527C80.3994 37.2751 80.4188 37.6601 80.4431 38.0114C80.4576 38.3676 80.4285 38.69 80.4188 39.0317C80.4042 39.3685 80.3363 39.7006 80.2974 40.0327C80.2537 40.3647 80.1518 40.6872 80.079 41.0144C79.38 43.6131 77.6617 45.8606 75.4579 47.2273L75.0453 47.4824L74.6133 47.7037C74.3269 47.8481 74.0406 47.9973 73.7396 48.0984L73.293 48.2668L73.0697 48.3486L72.8416 48.4112L72.3853 48.5315L72.1572 48.594L72.0455 48.6229L72.0164 48.6325C72.0164 48.6325 71.8514 48.6614 71.9145 48.6518L71.8659 48.6614L71.4728 48.7288C71.332 48.748 71.2349 48.7769 71.0407 48.7865L70.5165 48.825C70.3418 48.8395 70.167 48.8443 70.0117 48.8347C69.3758 48.825 68.7448 48.7577 68.138 48.6181C65.6964 48.0791 63.6917 46.5439 62.5219 44.7104C61.9345 43.796 61.5316 42.8095 61.3132 41.847L61.3035 41.8037V41.7796L61.2792 41.6785L61.2647 41.6063L61.2404 41.4572C61.2258 41.3609 61.2064 41.2598 61.1918 41.1636C61.1821 41.1251 61.1773 41.0529 61.1724 40.9807L61.1579 40.7738C61.1482 40.6342 61.1385 40.4947 61.1336 40.3599C61.1239 40.0952 61.1433 39.8642 61.153 39.6188C61.1676 39.3782 61.2113 39.1472 61.2404 38.9162C61.5656 37.073 62.5024 35.6293 63.483 34.7149C64.4635 33.7765 65.4586 33.3048 66.1381 33.0546C66.4779 32.915 66.7497 32.8621 66.9293 32.8092C67.1138 32.761 67.206 32.737 67.206 32.737C68.1866 32.4819 69.1913 33.0642 69.4486 34.0363C69.7059 35.0085 69.1185 36.0046 68.138 36.2597H68.1234L67.9487 36.3078C67.9487 36.3078 67.9002 36.3223 67.8031 36.3463C67.706 36.3752 67.5555 36.3896 67.3808 36.4666C67.0167 36.5821 66.4876 36.8179 65.9537 37.304C65.41 37.7756 64.8858 38.5456 64.6771 39.537C64.6625 39.6621 64.6285 39.7872 64.6188 39.9172C64.6188 40.0423 64.5945 40.1915 64.5945 40.3022C64.5945 40.3551 64.5945 40.408 64.5945 40.4658V40.5476C64.5945 40.5717 64.5897 40.6005 64.5994 40.6583C64.614 40.7545 64.6285 40.8556 64.6431 40.9518L64.6625 41.101L64.6722 41.1732C64.6674 41.1395 64.6916 41.2695 64.6625 41.1058V41.1203L64.6722 41.1492C64.7936 41.7603 65.0266 42.3763 65.3809 42.9635C66.075 44.1329 67.3274 45.1531 68.8855 45.5429C69.269 45.6488 69.6767 45.6969 70.0845 45.7162C70.1913 45.7306 70.2835 45.721 70.3709 45.7162H70.6427C70.7155 45.721 70.8806 45.6873 71.0019 45.6729L71.3999 45.6199C71.5941 45.5718 71.7931 45.5285 71.9873 45.4804L72.1523 45.4419L72.3125 45.3841L72.6329 45.2686C72.8513 45.2061 73.0552 45.1002 73.2639 45.0039L73.5794 44.8596L73.8755 44.6815C75.4774 43.7479 76.7831 42.1501 77.3462 40.2637C77.3996 40.023 77.4918 39.792 77.5258 39.5466C77.5597 39.3012 77.6228 39.0606 77.6374 38.8151C77.6471 38.5697 77.6811 38.3098 77.6762 38.0788C77.6617 37.843 77.6762 37.6409 77.6471 37.381L77.5355 36.5773L77.3462 35.8169C77.2976 35.5571 77.186 35.3213 77.1083 35.0758C77.0209 34.8304 76.9384 34.5801 76.8171 34.3491C76.4045 33.3867 75.8026 32.5108 75.0987 31.736C74.3998 30.9564 73.5794 30.2778 72.6717 29.7629C72.5601 29.6955 72.4533 29.6233 72.3368 29.5656L71.9824 29.3971C71.7446 29.2864 71.5213 29.1565 71.2737 29.0795C71.031 28.9881 70.7883 28.9014 70.5456 28.81C70.2932 28.7426 70.0457 28.6801 69.7981 28.6127C69.5505 28.5309 69.2933 28.5213 69.0409 28.4683L68.6622 28.4058C68.536 28.3865 68.4098 28.3865 68.2788 28.3769C68.0264 28.3624 67.7691 28.3384 67.5215 28.3336C67.2837 28.3432 67.0458 28.348 66.808 28.3576C66.5896 28.348 66.2838 28.4106 66.0168 28.4394L65.609 28.4972L65.5071 28.5116H65.4537L65.4294 28.5213C65.3712 28.5309 65.478 28.5116 65.4634 28.5164L65.279 28.5598C65.0314 28.6175 64.7887 28.6801 64.546 28.7378L64.1819 28.8244C64.0654 28.8581 63.949 28.9063 63.8276 28.9448C63.3616 29.118 62.8859 29.2479 62.4588 29.4741C62.2403 29.5752 62.0219 29.6811 61.8035 29.7773C61.585 29.8784 61.3909 30.0179 61.187 30.1334C59.556 31.0911 58.2309 32.3424 57.2455 33.6706C56.2553 34.9988 55.6097 36.3944 55.1971 37.6746C55.1097 38.0018 55.0272 38.3146 54.9447 38.6178C54.8961 38.767 54.8719 38.921 54.8524 39.0702C54.8282 39.2194 54.8039 39.3685 54.7796 39.5129C54.6583 40.0856 54.6534 40.6246 54.6194 41.1058C54.6146 41.2262 54.6 41.3465 54.6 41.4572C54.6 41.5678 54.6097 41.6785 54.6146 41.7796C54.6194 41.9865 54.6292 42.1838 54.634 42.3667C54.6292 42.7228 54.6971 43.0741 54.7311 43.3436C54.8088 43.8923 54.8524 44.181 54.8524 44.181C54.9155 44.6286 54.6049 45.0376 54.1535 45.1002C53.7117 45.1628 53.304 44.8644 53.2263 44.4313L53.2069 44.4264Z" fill="#824E2D"/>
<path d="M20.2909 12.799L20.4074 13.2754C20.4074 13.2754 20.2472 13.3283 19.9997 13.4053C19.757 13.5064 19.4366 13.6508 19.1308 13.8336C18.9706 13.9154 18.825 14.0213 18.6842 14.1128C18.5435 14.2042 18.4075 14.286 18.3007 14.3726C18.0823 14.5314 17.9367 14.6373 17.9367 14.6373L17.6357 14.2475C17.6357 14.2475 17.7862 14.1368 18.0144 13.9732C18.126 13.8866 18.2668 13.7999 18.4124 13.7037C18.5629 13.6074 18.7133 13.5016 18.8832 13.4149C19.2085 13.2224 19.558 13.0636 19.8249 12.9529C20.1065 12.8615 20.2958 12.8038 20.2958 12.8038L20.2909 12.799Z" fill="#67A121"/>
<path d="M12.9806 21.1437C13.1844 21.0812 13.3931 20.9897 13.597 20.8935C13.7912 20.7972 13.9999 20.6914 14.2232 20.5807C14.4271 20.47 14.6455 20.3545 14.8736 20.239C15.0921 20.1187 15.3154 19.9887 15.5435 19.8588C16.4415 19.3342 17.3783 18.699 18.0628 18.0156C18.7423 17.3274 19.0336 16.6681 19.1209 15.9463C19.1646 15.5853 19.1598 15.2052 19.1355 14.825C19.1112 14.44 19.053 14.0309 19.0142 13.6267C18.6744 13.3812 18.32 13.1743 17.9366 13.0155C17.5482 12.8567 17.1453 12.7604 16.7182 12.7508C15.859 12.7315 14.8979 13.0588 13.9465 14.0213C12.9951 14.9742 12.2379 16.4612 12.0292 17.929C12.0049 18.1119 11.9806 18.2899 11.9709 18.4632C11.9661 18.6461 11.9709 18.8241 11.9709 18.9974C11.9806 19.1706 11.9903 19.3246 12.0194 19.4882C12.0486 19.6519 12.0874 19.8059 12.1311 19.9502C12.1748 20.0946 12.2233 20.2246 12.2816 20.3497C12.3495 20.4796 12.4175 20.5903 12.4951 20.6914C12.6456 20.8935 12.8107 21.0427 12.9806 21.1437Z" fill="#67A121"/>
<g opacity="0.4">
<path d="M14.8149 17.0291C14.3683 17.6017 13.9023 18.2562 13.5577 18.9685C13.2082 19.6759 12.9558 20.4219 12.9121 21.1052L12.9752 21.1437C13.1791 21.0812 13.3878 20.9897 13.5917 20.8935C13.7858 20.7972 13.9946 20.6913 14.2179 20.5807C14.4217 20.47 14.6402 20.3545 14.8683 20.239C15.0867 20.1187 15.31 19.9887 15.5382 19.8588C16.4362 19.3342 17.373 18.699 18.0574 18.0156C18.737 17.3274 19.0282 16.6681 19.1156 15.9463C19.1593 15.5853 19.1544 15.2051 19.1302 14.825C19.1059 14.44 19.0476 14.0309 19.0088 13.6267L18.8729 13.5352C18.0768 13.9683 17.3924 14.4785 16.7323 15.0463C16.0721 15.6142 15.4362 16.2543 14.8198 17.0387L14.8149 17.0291Z" fill="#67A121"/>
</g>
<path d="M68.6172 12.077L68.7968 12.3995C68.7968 12.3995 68.69 12.4716 68.525 12.5727C68.3697 12.693 68.1658 12.8614 67.9765 13.0588C67.593 13.4389 67.2678 13.8769 67.2678 13.8769L66.9717 13.6507C66.9717 13.6507 67.3115 13.1983 67.7144 12.7989C67.9085 12.592 68.1367 12.4091 68.3065 12.2743C68.491 12.154 68.6172 12.0722 68.6172 12.0722V12.077Z" fill="#67A121"/>
<path d="M64.9623 19.5989C65.0982 19.5123 65.2293 19.4064 65.3604 19.2957C65.4866 19.185 65.6176 19.0647 65.7535 18.9444C65.8846 18.8193 66.0205 18.6942 66.1564 18.5642C66.2923 18.4295 66.4283 18.2947 66.569 18.1552C67.1175 17.5969 67.6709 16.9521 68.0349 16.3168C68.3941 15.6816 68.4718 15.1426 68.3941 14.5988C68.3553 14.3245 68.2728 14.0501 68.1806 13.7807C68.0835 13.5015 67.9621 13.2176 67.8505 12.9337C67.5495 12.8182 67.2534 12.7412 66.9428 12.7027C66.6273 12.6642 66.3166 12.6738 66.0011 12.7508C65.3701 12.9048 64.7342 13.3379 64.2342 14.2234C63.7294 15.1041 63.477 16.3361 63.6177 17.4477C63.6372 17.5873 63.6566 17.7172 63.6809 17.8472C63.7148 17.9819 63.7537 18.1119 63.7925 18.237C63.8653 18.4776 63.977 18.7086 64.1032 18.9011C64.1663 18.9974 64.2245 19.084 64.2925 19.161C64.3653 19.2428 64.4381 19.3102 64.5158 19.3727C64.6662 19.493 64.8167 19.5652 64.9623 19.6085V19.5989Z" fill="#67A121"/>
<g opacity="0.4">
<path d="M65.4767 16.2398C65.0398 17.236 64.6952 18.5595 64.9088 19.5797L64.9622 19.5941C65.0981 19.5075 65.2291 19.4016 65.3602 19.2909C65.4864 19.1803 65.6175 19.0599 65.7534 18.9396C65.8844 18.8145 66.0203 18.6894 66.1563 18.5595C66.2922 18.4247 66.4281 18.29 66.5689 18.1504C67.1174 17.5921 67.6707 16.9473 68.0348 16.312C68.394 15.6768 68.4717 15.1378 68.394 14.594C68.3552 14.3197 68.2726 14.0454 68.1804 13.7759C68.0833 13.4967 67.962 13.2128 67.8503 12.9289L67.7338 12.8856C67.2436 13.3572 66.8455 13.8625 66.4766 14.4063C66.1077 14.9501 65.7776 15.542 65.4815 16.235L65.4767 16.2398Z" fill="#67A121"/>
</g>
<path d="M27.3833 12.7027L27.0921 12.9433C27.0921 12.9433 26.9853 12.8038 26.8251 12.592C26.7474 12.4861 26.6504 12.3658 26.5581 12.2311C26.4708 12.0915 26.3785 11.9423 26.2863 11.7931C26.2378 11.7161 26.1941 11.644 26.1455 11.5718C26.1067 11.4948 26.0679 11.4178 26.029 11.3456C25.9562 11.1964 25.8834 11.0616 25.8252 10.9461C25.7621 10.8306 25.7281 10.7248 25.699 10.6526C25.6698 10.5804 25.6553 10.5419 25.6553 10.5419L26.0048 10.3975C26.0048 10.3975 26.0193 10.436 26.0485 10.5034C26.0776 10.5708 26.1116 10.6718 26.1698 10.7825C26.2281 10.8932 26.296 11.028 26.3688 11.1675C26.4028 11.2397 26.4416 11.3119 26.4805 11.3841C26.5242 11.4563 26.5678 11.5285 26.6115 11.5958C26.6989 11.7402 26.7911 11.8846 26.8736 12.0193C26.961 12.1493 27.0581 12.2648 27.1309 12.3658C27.2862 12.5679 27.3882 12.7027 27.3882 12.7027H27.3833Z" fill="#67A121"/>
<path d="M26.0482 2.82268C25.7327 2.77937 25.291 2.9045 24.859 3.22693C24.4367 3.54455 24.0144 4.03543 23.6989 4.62255C23.3639 5.21448 23.1455 5.89785 23.0193 6.60528C22.9707 6.95659 22.9222 7.31753 22.9319 7.66402C22.9319 7.83727 22.9319 8.01052 22.9465 8.18377C22.9659 8.3522 22.9902 8.52064 23.0144 8.68426C23.063 9.01151 23.1503 9.30507 23.2474 9.56976C23.3397 9.83926 23.4562 10.0703 23.5872 10.2772C23.8299 10.6959 24.1454 10.9942 24.4561 11.2108C24.757 11.4322 25.1114 11.5477 25.4366 11.6247C25.6016 11.6632 25.7667 11.6824 25.9317 11.6969C26.1016 11.7065 26.2715 11.7065 26.4414 11.6969C26.5239 11.5573 26.6064 11.4177 26.689 11.2782C26.7715 11.1386 26.854 10.9942 26.9317 10.8547C27.087 10.5708 27.1938 10.2964 27.3006 9.99807C27.4899 9.40613 27.5384 8.79014 27.3879 7.95277C27.2423 7.1154 26.9608 6.13366 26.7375 5.20485C26.4851 4.27124 26.3152 3.43868 26.0434 2.81787L26.0482 2.82268Z" fill="#67A121"/>
<g opacity="0.4">
<path d="M25.223 6.8844C25.1551 5.56579 25.3929 3.92955 26.0725 2.88043L26.0482 2.82268C25.7327 2.77937 25.291 2.9045 24.859 3.22693C24.4367 3.54455 24.0144 4.03543 23.6989 4.62255C23.3639 5.21448 23.1455 5.89785 23.0193 6.60528C22.9707 6.95659 22.9222 7.31753 22.9319 7.66402C22.9319 7.83727 22.9319 8.01052 22.9465 8.18377C22.9659 8.3522 22.9902 8.52064 23.0144 8.68426C23.063 9.01151 23.1503 9.30507 23.2474 9.56976C23.3397 9.83926 23.4562 10.0703 23.5872 10.2772C23.8299 10.6959 24.1454 10.9942 24.4561 11.2108C24.757 11.4322 25.1114 11.5477 25.4366 11.6247C25.6016 11.6632 25.7667 11.6824 25.9317 11.6969C26.1016 11.7065 26.2715 11.7065 26.4414 11.6969L26.5045 11.5862C25.723 10.1376 25.3056 8.6987 25.2182 6.8844H25.223Z" fill="#67A121"/>
</g>
<path d="M61.3753 11.9038L61.1326 12.2166C61.1326 12.2166 61.0112 12.1107 60.8316 11.9519C60.6666 11.7787 60.4579 11.5477 60.2783 11.2974C59.9093 10.8017 59.6084 10.2676 59.6084 10.2676L59.953 10.0703C59.953 10.0703 60.2443 10.59 60.5938 11.0568C60.7637 11.2974 60.9627 11.5092 61.1083 11.6632C61.2685 11.8027 61.3704 11.899 61.3704 11.899L61.3753 11.9038Z" fill="#67A121"/>
<path d="M58.2204 3.58307C58.0602 3.60713 57.8903 3.66969 57.7156 3.78519C57.6282 3.83813 57.5408 3.9055 57.4534 3.98732C57.3758 4.06432 57.2981 4.15094 57.2205 4.24719C57.1428 4.34344 57.07 4.44931 56.9972 4.56481C56.9292 4.68031 56.871 4.79581 56.8127 4.92093C56.7545 5.04606 56.6962 5.18562 56.6477 5.32518C56.604 5.45993 56.5652 5.59949 56.5263 5.74868C56.2399 6.92292 56.3516 8.2656 56.769 9.28102C57.1816 10.3013 57.7981 10.8499 58.4437 11.1049C58.764 11.2349 59.099 11.2926 59.4339 11.2974C59.7688 11.3023 60.0989 11.2638 60.4338 11.1916C60.594 10.9028 60.7639 10.6141 60.9047 10.335C61.0455 10.0558 61.1668 9.77671 61.2445 9.48315C61.3998 8.91047 61.3852 8.31372 61.0843 7.56779C60.7785 6.82186 60.2639 6.03742 59.7494 5.35406C59.6184 5.18562 59.4873 5.01718 59.3611 4.85837C59.23 4.69956 59.099 4.54556 58.9776 4.39638C58.8466 4.24719 58.7252 4.10763 58.6039 3.96807C58.4825 3.83332 58.3514 3.70338 58.2204 3.59269V3.58307Z" fill="#67A121"/>
<g opacity="0.4">
<path d="M58.667 7.18279C58.3078 6.08555 58.0311 4.68512 58.2689 3.62157L58.2204 3.58307C58.0602 3.60713 57.8903 3.66969 57.7156 3.78519C57.6282 3.83813 57.5408 3.9055 57.4534 3.98732C57.3758 4.06432 57.2981 4.15094 57.2205 4.24719C57.1428 4.34344 57.07 4.44931 56.9972 4.56481C56.9292 4.68031 56.871 4.79581 56.8127 4.92093C56.7545 5.04606 56.6962 5.18562 56.6477 5.32518C56.604 5.45993 56.5652 5.59949 56.5263 5.74868C56.2399 6.92292 56.3516 8.2656 56.769 9.28102C57.1816 10.3013 57.7981 10.8499 58.4437 11.1049C58.764 11.2349 59.099 11.2926 59.4339 11.2974C59.7688 11.3023 60.0989 11.2638 60.4338 11.1916L60.4969 11.0761C60.0941 10.4793 59.7785 9.87777 59.4776 9.24734C59.1815 8.61691 58.9048 7.95279 58.667 7.19242V7.18279Z" fill="#67A121"/>
</g>
<path d="M32.0225 16.0762L32.2944 16.336C32.2944 16.336 32.1827 16.4612 32.0128 16.6537C31.9303 16.7499 31.8284 16.8558 31.7264 16.9809C31.6342 17.106 31.5323 17.2456 31.4303 17.3803C31.3818 17.4477 31.3284 17.5151 31.2799 17.5825C31.2362 17.6547 31.1925 17.722 31.1537 17.7894C31.0711 17.9242 30.9935 18.0493 30.9255 18.16C30.8527 18.2658 30.8187 18.3669 30.7799 18.4295C30.7459 18.4968 30.7265 18.5353 30.7265 18.5353L30.3867 18.3621C30.3867 18.3621 30.4061 18.3236 30.4401 18.2562C30.4789 18.1888 30.5178 18.0878 30.5906 17.9771C30.6585 17.8664 30.7411 17.7317 30.8284 17.5921C30.8721 17.5199 30.9158 17.4477 30.9644 17.3755C31.0177 17.3034 31.0663 17.236 31.1197 17.1638C31.2265 17.0242 31.3284 16.8799 31.4303 16.7499C31.5323 16.62 31.6391 16.5093 31.7264 16.4082C31.9012 16.2109 32.0225 16.081 32.0225 16.081V16.0762Z" fill="#67A121"/>
<path d="M30.1539 26.0765C30.4742 25.4846 30.7121 24.6616 31.0373 23.7569C31.3383 22.8521 31.6975 21.8945 31.911 21.0715C32.1295 20.2486 32.1295 19.6326 31.9887 19.0262C31.9062 18.7182 31.8237 18.4391 31.6926 18.1456C31.6295 17.9964 31.5567 17.852 31.4887 17.7028C31.4208 17.5584 31.348 17.4141 31.28 17.2649C31.115 17.2456 30.9451 17.2312 30.7752 17.2264C30.6102 17.2264 30.4451 17.236 30.2752 17.2553C29.9451 17.3034 29.5811 17.3948 29.2607 17.5873C28.9355 17.7798 28.5957 18.0493 28.319 18.4439C28.1734 18.6412 28.0326 18.8626 27.921 19.1225C27.8045 19.3776 27.688 19.6663 27.6152 19.9887C27.5764 20.1475 27.5375 20.316 27.5084 20.4796C27.4841 20.648 27.4647 20.8213 27.4502 20.9945C27.4113 21.341 27.4307 21.702 27.4502 22.0581C27.5181 22.7751 27.6783 23.473 27.9647 24.089C28.2268 24.7001 28.6103 25.2247 29.0035 25.5712C29.4015 25.9273 29.8335 26.0909 30.1539 26.0717V26.0765Z" fill="#67A121"/>
<g opacity="0.4">
<path d="M29.353 21.9281C29.2025 23.2804 29.3821 24.9841 30.0956 26.0765H30.1539C30.4743 25.4845 30.7121 24.6616 31.0373 23.7569C31.3383 22.8521 31.6975 21.8945 31.9111 21.0715C32.1295 20.2486 32.1295 19.6326 31.9887 19.0262C31.9062 18.7182 31.8237 18.4391 31.6926 18.1455C31.6295 17.9964 31.5567 17.852 31.4888 17.7028C31.4208 17.5584 31.348 17.4141 31.28 17.2649L31.149 17.2504C30.1442 18.6075 29.552 20.0657 29.353 21.9281Z" fill="#67A121"/>
</g>
</g>
<defs>
<clipPath id="clip0_1135_3209">
<rect width="77" height="97" fill="white" transform="translate(11 2.25)"/>
</clipPath>
</defs>
</svg>
