<svg width="70" height="81" viewBox="0 0 70 81" fill="none" xmlns="http://www.w3.org/2000/svg">
<path d="M21.3368 8.69207V59.8646C19.0731 57.7356 15.9697 56.4219 12.5457 56.4219C5.61676 56.4219 0 61.7986 0 68.4321C0 75.0655 5.61676 80.4422 12.5457 80.4422C19.4746 80.4422 25.0914 75.0655 25.0914 68.4321V23.6482L65.4421 16.3206V51.1725C63.1783 49.0435 60.0749 47.7299 56.6509 47.7299C49.722 47.7299 44.1052 53.1066 44.1052 59.74C44.1052 66.3734 49.722 71.7501 56.6509 71.7501C63.5798 71.7501 69.1966 66.3734 69.1966 59.74V0L21.3368 8.69207Z" fill="#F9F5F2"/>
</svg>
