<svg width="115" height="118" viewBox="0 0 115 118" fill="none" xmlns="http://www.w3.org/2000/svg">
<g clip-path="url(#clip0_553_1068)">
<path d="M91.5216 112.992C93.4081 111.578 94.3215 109.146 94.4079 106.788C94.4944 104.431 93.859 102.112 93.1603 99.8602C90.5059 91.3009 86.8632 83.0486 82.3265 75.3211C80.5869 72.3582 78.7984 68.3106 81.1863 65.8386C82.3633 64.6177 84.1821 64.3157 85.8727 64.1888C91.9602 63.7341 98.1284 64.7171 104.166 63.804C108.819 63.0984 112.362 61.2908 114.929 58.1881C114.865 57.6995 114.749 57.2195 114.591 56.7632C114.308 55.9409 113.89 55.2115 113.422 54.6068C113.073 54.1528 112.695 53.7636 112.316 53.4299C111.745 52.9268 111.167 52.5398 110.61 52.222C110.05 51.9041 109.509 51.6555 108.995 51.4436C108.887 51.4011 108.781 51.3578 108.675 51.3196C107.528 51.4371 106.346 51.4076 105.201 51.3564C97.9375 51.035 90.6953 50.2285 83.5381 48.9463C78.6197 48.0663 73.0415 46.4079 71.0807 41.8105C70.467 40.3668 70.2934 38.7834 70.1025 37.2259C68.981 28.0793 67.039 19.0342 64.3053 10.2342C63.1456 6.50018 61.7056 3.04288 59.2104 0.152793L59.1636 0.142703C58.7127 0.0497297 58.2387 0 57.7582 0C57.1092 0 56.4523 0.0908108 55.8314 0.261622C55.16 0.444685 54.5211 0.700541 53.929 1.01189C53.5724 1.39459 53.2446 1.78523 52.9659 2.18595C50.4346 5.84288 49.169 10.2587 48.265 14.5636C46.7595 21.7564 45.9945 29.1049 45.9859 36.4533C45.9844 39.0832 46.0622 41.809 45.025 44.227C44.6828 45.0249 44.2081 45.7896 43.5144 46.3106C42.2366 47.2649 40.497 47.2166 38.9036 47.151C32.1411 46.8685 25.3643 46.9845 18.6155 47.4998C15.2278 48.3445 11.8393 49.1892 8.44947 50.0368C8.14621 50.1117 7.83071 50.1975 7.50296 50.2969C6.02268 51.6562 4.98252 53.3672 5.05239 55.3377C5.17629 58.8613 8.70087 61.1899 11.9308 62.6025C15.58 64.1982 19.3877 65.4306 23.2789 66.2732C25.5739 66.7712 27.933 67.1474 30.0262 68.2068C32.121 69.2685 33.9513 71.1856 34.1898 73.5222C34.2906 74.5276 34.0947 75.5395 33.826 76.5146C32.5661 81.0638 29.754 84.9888 27.4287 89.0933C25.2987 92.8519 23.5469 96.826 22.2078 100.935C20.8075 105.24 20.265 110.854 23.969 113.455C25.6855 114.659 28.0777 114.99 29.8836 115.93C29.9607 115.885 30.0342 115.841 30.1076 115.795C30.2647 115.699 30.4109 115.606 30.5514 115.515C30.7941 114.778 31.3192 114.033 31.8408 113.456C38.0378 106.591 44.2369 99.7283 50.4339 92.8656C51.6758 91.4883 53.0192 90.0497 54.8056 89.5604C56.806 89.0105 58.9821 89.8054 60.587 91.1214C62.1911 92.4375 63.33 94.2234 64.4415 95.9741C66.1306 98.64 67.8198 101.303 69.5111 103.967C71.2399 105.478 73.017 106.984 74.8473 108.434C77.3995 110.455 80.0575 112.368 82.8538 114.026C83.031 114.058 83.2075 114.089 83.3847 114.12C86.1616 114.6 89.2662 114.683 91.5208 112.993L91.5216 112.992Z" fill="#F07D72"/>
<path d="M114.935 58.2292L114.929 58.1881C112.362 61.2908 108.819 63.0984 104.166 63.804C98.1285 64.7164 91.961 63.7341 85.8728 64.1888C84.1822 64.3157 82.3634 64.6184 81.1863 65.8386C78.7984 68.3106 80.5863 72.3582 82.3266 75.3211C86.8633 83.0486 90.506 91.3009 93.1604 99.8602C93.8591 102.112 94.4944 104.431 94.408 106.788C94.3208 109.146 93.4082 111.578 91.5216 112.992C89.2663 114.682 86.1617 114.599 83.3855 114.119C83.2083 114.089 83.0311 114.058 82.8546 114.025C83.611 114.475 84.3781 114.905 85.1546 115.315C85.6409 115.669 86.2164 116.081 86.9137 116.492C87.3365 116.741 87.8026 116.987 88.3255 117.212C88.8485 117.436 89.4276 117.635 90.0586 117.78C90.6997 117.927 91.3444 117.999 91.9934 117.999C92.5567 117.999 93.1251 117.945 93.6985 117.829C94.5593 117.655 95.4402 117.34 96.2953 116.815C96.721 116.551 97.138 116.234 97.5292 115.859C97.9182 115.483 98.2783 115.049 98.5859 114.567C99.0217 113.885 99.3235 113.151 99.5029 112.449C99.6823 111.745 99.7435 111.077 99.7442 110.472C99.7428 109.521 99.5987 108.719 99.4345 108.03C99.2659 107.339 99.0714 106.757 98.9021 106.275C97.0437 100.959 95.3235 95.5467 93.4103 90.1067C91.495 84.6703 89.3859 79.2036 86.73 73.8018C86.4923 73.3196 86.3014 72.924 86.171 72.6148C86.3036 72.5766 86.452 72.5355 86.6126 72.4973C86.9583 72.4159 87.3574 72.3366 87.7889 72.2659C88.4336 72.1564 89.146 72.0613 89.8843 71.9517C90.2546 71.8991 90.6313 71.84 91.0174 71.7694C91.4057 71.7002 91.8047 71.6187 92.2283 71.5092C96.8067 70.3229 101.582 69.2995 106.44 67.9712C107.19 67.7658 107.988 67.502 108.81 67.1539C109.425 66.8894 110.054 66.5787 110.689 66.1924C111.163 65.8998 111.641 65.564 112.112 65.1611C112.466 64.8584 112.814 64.5182 113.147 64.1254C113.646 63.5373 114.114 62.8274 114.457 61.987C114.628 61.5697 114.767 61.12 114.858 60.6523C114.952 60.1859 115.002 59.6995 115.002 59.213C115.002 58.885 114.979 58.5557 114.937 58.2321V58.2299L114.935 58.2292Z" fill="#E2473A"/>
<path d="M70.1026 37.2245C70.2928 38.782 70.4671 40.3654 71.0808 41.809C73.0415 46.4065 78.619 48.0649 83.5382 48.9449C90.6947 50.227 97.9376 51.0335 105.201 51.355C106.346 51.4068 107.528 51.4357 108.676 51.3182C108.157 51.1164 107.669 50.955 107.219 50.8187C98.279 48.0959 89.3368 45.3737 80.3968 42.6508C79.8861 42.4937 79.4554 42.3366 79.0952 42.1795C78.4627 41.9041 78.0521 41.6432 77.7388 41.391C77.5011 41.1993 77.3117 41.0061 77.1208 40.7654C76.9781 40.5845 76.8341 40.3726 76.6857 40.1139C76.4602 39.7247 76.2247 39.2259 75.979 38.5946C75.7312 37.9654 75.4755 37.2058 75.2032 36.3243C72.291 26.916 69.3729 17.5121 66.4404 8.11172C66.207 7.36649 65.9146 6.59676 65.5407 5.81117C65.2584 5.22451 64.9306 4.62847 64.5344 4.03532C64.2355 3.58919 63.8984 3.14523 63.5015 2.70775C63.2025 2.38199 62.8712 2.05766 62.4952 1.75063C61.9297 1.28865 61.2548 0.854058 60.4509 0.528292C60.0641 0.373337 59.6492 0.242887 59.2119 0.150635C61.7064 3.04072 63.1471 6.49802 64.3068 10.2321C67.0405 19.0314 68.9818 28.0771 70.104 37.2238L70.1026 37.2245Z" fill="#E2473A"/>
<path d="M22.2085 100.933C23.5476 96.8245 25.2994 92.8497 27.4295 89.0912C29.7554 84.9867 32.5668 81.0616 33.8267 76.5124C34.0961 75.5373 34.292 74.5261 34.1905 73.52C33.952 71.1834 32.1217 69.2663 30.027 68.2047C27.9344 67.1452 25.5746 66.769 23.2796 66.271C19.3884 65.4285 15.58 64.1967 11.9315 62.6004C8.70159 61.1877 5.17701 58.8591 5.05312 55.3355C4.98324 53.365 6.0234 51.654 7.50368 50.2948C7.09669 50.4144 6.6717 50.5571 6.2359 50.7236C5.64811 50.9492 5.03511 51.2216 4.41058 51.5755C3.94237 51.84 3.46407 52.1513 2.99009 52.5333C2.63569 52.8202 2.28201 53.1474 1.94201 53.5279C1.4349 54.0958 0.958759 54.7892 0.607959 55.6036C0.253556 56.4137 0.0374572 57.3398 0.00648297 58.2659C0.00216099 58.3575 0 58.4512 0 58.547C0 59.2656 0.105168 59.982 0.301818 60.6458C0.472537 61.2281 0.712407 61.7658 0.986852 62.2458C1.47091 63.0912 2.05438 63.7586 2.64361 64.2991C3.08661 64.7041 3.5361 65.0422 3.98126 65.334C4.64613 65.7737 5.30307 66.1146 5.93192 66.4C6.56005 66.6854 7.1644 66.9139 7.7241 67.1034C14.8921 69.5423 22.0767 71.9892 29.3347 74.3322C29.1878 74.8144 28.9594 75.4313 28.6908 76.1211C28.4134 76.8375 28.0979 77.6267 27.8083 78.5139C25.1021 86.9052 21.8419 95.2778 18.8136 103.864L18.8114 103.867C18.5665 104.563 18.3266 105.381 18.1307 106.315C18.0327 106.781 17.947 107.274 17.8858 107.795C17.8224 108.316 17.7814 108.863 17.7814 109.444C17.7828 110.138 17.8354 110.881 18.0162 111.693C18.1538 112.3 18.3634 112.951 18.7106 113.619C18.9706 114.12 19.3099 114.628 19.7435 115.101C20.067 115.458 20.443 115.79 20.8579 116.079C21.4781 116.515 22.184 116.841 22.8957 117.041C23.6074 117.245 24.3198 117.327 25.0034 117.327C25.4327 117.327 25.8498 117.295 26.2589 117.24H26.2611C26.9223 117.149 27.5289 116.987 28.0698 116.791C28.7757 116.535 29.3743 116.228 29.8851 115.927C28.0792 114.987 25.687 114.657 23.9704 113.452C20.2672 110.85 20.8096 105.237 22.2092 100.933L22.2085 100.933Z" fill="#E2473A"/>
<path d="M31.6966 94.7207C28.6374 96.0245 28.0092 100.979 31.2061 102.52C34.5491 104.131 37.3923 99.1149 36.1367 96.2883C35.4301 94.6977 33.2972 94.0382 31.6966 94.7207Z" fill="#E2473A"/>
<path d="M34.1825 105.121C33.5278 104.868 32.8492 105.386 32.3371 105.866C31.6081 106.55 30.8539 107.27 30.5161 108.211C30.081 109.423 30.9908 110.941 32.3752 110.382C33.4593 109.945 34.359 108.347 34.7185 107.308C34.8546 106.915 34.9504 106.494 34.8863 106.083C34.8222 105.671 34.5708 105.27 34.1818 105.121H34.1825Z" fill="#E2473A"/>
<path d="M26.2538 103.385C25.63 103.456 25.1366 103.951 24.7995 104.481C23.9581 105.808 23.7002 108.485 25.6062 109.093C27.5389 109.71 28.2981 106.375 28.0784 105.039C27.9315 104.144 27.1535 103.284 26.2531 103.386L26.2538 103.385Z" fill="#E2473A"/>
<path d="M20.8558 51.1013C19.3719 50.5398 17.5696 50.9355 16.4668 52.0771C12.5453 56.1355 19.1522 61.6656 22.8749 57.0314C23.387 56.3942 23.5873 55.5424 23.5325 54.7272C23.4266 53.1431 22.3397 51.6627 20.8558 51.102V51.1013Z" fill="#E2473A"/>
<path d="M24.597 59.4674C24.0964 60.5456 24.7692 62.9146 25.5298 63.7132C25.98 64.186 26.6917 64.4512 27.3069 64.2328C28.2159 63.9099 28.5106 62.764 28.4818 61.7989C28.4594 61.0314 28.3103 60.2451 27.8846 59.6058C27.1434 58.4915 25.2511 58.0591 24.5963 59.4674H24.597Z" fill="#E2473A"/>
<path d="M99.2205 59.9431C100.326 59.8695 101.441 59.347 102.028 58.4079C102.617 57.4688 102.546 56.1038 101.72 55.365C101.491 55.1604 101.219 55.0097 100.942 54.8786C99.2566 54.0786 97.1928 53.9517 95.5454 54.8267C94.9792 55.1272 94.4534 55.5632 94.2106 56.1571C93.1604 58.7258 97.4284 60.062 99.2213 59.9431H99.2205Z" fill="#E2473A"/>
<path d="M86.0428 109.032C89.5062 106.949 86.8921 100.763 84.3889 99.0256C83.1349 98.155 81.4169 97.7831 80.0684 98.4988C78.5363 99.311 77.9348 101.312 78.2877 103.01C78.8417 105.673 82.8049 110.979 86.0435 109.032H86.0428Z" fill="#E2473A"/>
<path d="M72.8679 94.9348C72.162 94.7416 71.3329 94.9067 70.8524 95.4587C70.6306 95.7131 70.4937 96.0303 70.3943 96.3524C69.7597 98.4029 70.8769 102.299 73.6329 101.934C76.3954 101.568 75.7874 97.7939 74.6032 96.2148C74.1638 95.6288 73.5738 95.1272 72.8679 94.934V94.9348Z" fill="#E2473A"/>
<path d="M53.1669 32.0382C54.7315 29.8833 55.2429 25.4717 53.383 23.3759C52.4956 22.3762 50.8287 21.995 49.7951 22.8433C49.2808 23.2656 48.9998 23.9063 48.7909 24.5384C48.2968 26.0353 48.1052 27.6317 48.2327 29.2029C48.43 31.6447 51.0679 34.9305 53.1669 32.0382Z" fill="#E2473A"/>
<path d="M55.3567 14.2083C54.7574 15.0948 54.6645 16.24 54.8136 17.3002C55.0686 19.1128 56.6872 21.053 58.7041 20.0051C60.3486 19.151 60.2017 16.4887 59.6557 15.0342C59.369 14.2717 58.8972 13.5157 58.1459 13.2029C57.1576 12.7921 55.9568 13.3218 55.3575 14.2083H55.3567Z" fill="#E2473A"/>
<path d="M59.405 33.084C59.7731 33.8832 60.6533 34.4 61.5328 34.3892C62.4124 34.3784 63.2559 33.8667 63.7234 33.1214C64.2038 32.3553 64.2953 31.4126 64.3176 30.5081C64.3342 29.8292 64.3176 29.138 64.1138 28.4901C63.9106 27.8422 63.4993 27.2339 62.8943 26.9254C60.2499 25.5777 59.235 29.755 59.1665 31.5157C59.1457 32.049 59.181 32.5996 59.405 33.0847V33.084Z" fill="#E2473A"/>
<path d="M38.9043 47.1503C40.497 47.2166 42.2366 47.2641 43.5151 46.3099C44.2095 45.7888 44.6835 45.0241 45.0257 44.2263C46.063 41.8083 45.9852 39.0825 45.9866 36.4526C45.9945 29.1041 46.7602 21.7564 48.2657 14.5629C49.1697 10.258 50.4354 5.84144 52.9666 2.18522C53.2454 1.7845 53.5731 1.39387 53.9297 1.01117C53.5126 1.22666 53.1179 1.46883 52.7534 1.72901C51.974 2.28252 51.312 2.91315 50.7444 3.57189C49.7525 4.72937 49.0379 5.96685 48.4617 7.19784C48.0316 8.1218 47.6837 9.05009 47.3862 9.95748C46.9396 11.3189 46.6118 12.6422 46.3439 13.8364C46.081 15.0292 45.8786 16.0995 45.7158 16.8959C44.453 23.0854 43.5339 29.2079 42.3929 35.1286C42.1991 36.1384 42.0197 37.0991 41.8137 37.9661C41.661 38.6155 41.4939 39.2094 41.3102 39.7268C41.1734 40.1153 41.0293 40.4576 40.878 40.7503C40.654 41.1921 40.4256 41.5157 40.1937 41.7614C39.9596 42.0094 39.7255 42.1931 39.3797 42.3697C38.6515 42.738 37.7295 43.0854 36.6771 43.396C35.0981 43.8631 33.2339 44.2429 31.2955 44.6061C30.3252 44.7885 29.334 44.9694 28.3407 45.164C27.3473 45.3586 26.3511 45.5683 25.3635 45.8133C23.1147 46.374 20.8644 46.9362 18.6162 47.4969C25.365 46.9816 32.1419 46.8656 38.9043 47.1481V47.1503Z" fill="#F1BCBA"/>
<path d="M60.5869 91.12C58.9827 89.804 56.8059 89.009 54.8055 89.5589C53.0191 90.0483 51.6757 91.4868 50.4338 92.8641C44.2368 99.7268 38.0377 106.59 31.8407 113.454C31.3191 114.032 30.794 114.777 30.5513 115.514C30.9158 115.276 31.2269 115.05 31.4978 114.858C37.0465 110.886 42.1817 106.586 47.2478 102.42C47.7326 102.022 48.1986 101.598 48.6906 101.142C49.55 100.345 50.4778 99.4479 51.4531 98.5449C52.1842 97.8674 52.937 97.1921 53.6803 96.5694C54.2357 96.1031 54.7853 95.6699 55.3083 95.2923C56.0899 94.725 56.8145 94.2912 57.3375 94.0541C57.5795 93.9445 57.7725 93.8768 57.8972 93.8429C58.0311 93.9121 58.235 94.0404 58.4972 94.24C58.7781 94.4519 59.1152 94.7373 59.5121 95.0789C61.3728 96.6782 63.3104 98.4295 65.3202 100.236C66.6845 101.462 68.0812 102.717 69.511 103.966C67.8197 101.303 66.1305 98.6393 64.4414 95.9733C63.3292 94.222 62.191 92.436 60.5869 91.1207V91.12Z" fill="#F1BCBA"/>
<path d="M88.3405 58.2905C89.39 58.1441 89.9749 56.7986 90.0102 55.858C90.0167 55.6937 90.0102 55.5258 89.954 55.3715C89.8914 55.2029 89.7703 55.0631 89.6522 54.9276C89.3792 54.6141 89.0767 54.2818 88.669 54.1982C88.414 54.1456 88.1503 54.1996 87.8968 54.2573C87.5366 54.3402 87.1678 54.4375 86.8739 54.6623C86.4453 54.991 86.2472 55.5322 86.0858 56.0483C86.0282 56.2313 85.972 56.4202 85.9857 56.6119C86.052 57.5229 87.484 58.4094 88.3398 58.2897L88.3405 58.2905Z" fill="#F1BCBA"/>
<path d="M29.6734 52.1888C29.4969 51.9986 29.252 51.8832 28.9999 51.8227C26.9887 51.334 25.739 53.982 27.2214 55.3283C28.9768 56.9232 30.6257 54.4331 29.9731 52.7142C29.901 52.5247 29.8117 52.338 29.6734 52.1888Z" fill="#F1BCBA"/>
<path d="M41.1093 94.0836C40.5727 94.2544 40.1412 94.6775 39.8653 95.1683C39.2869 96.1961 39.5404 97.8335 40.85 98.1687C42.2006 98.5139 42.9332 96.7755 43.0247 95.6937C43.0621 95.2519 42.9613 94.782 42.6652 94.4512C42.2892 94.031 41.6467 93.9128 41.1093 94.0836Z" fill="#F1BCBA"/>
<path d="M86.1927 96.2061C88.0324 95.4227 87.4957 92.596 85.9715 91.7723C85.0488 91.2735 83.7227 91.556 83.2343 92.4851C83.1212 92.6998 83.0549 92.9362 83.0138 93.1748C82.712 94.9312 84.2852 97.0191 86.1927 96.2061Z" fill="#F1BCBA"/>
<path d="M54.0832 10.2421C54.7826 10.3524 55.1875 9.53368 55.5159 9.05512C56.3746 7.80395 57.7843 6.14341 57.1842 4.50809C57.1043 4.28972 56.9847 4.08215 56.8097 3.92936C56.582 3.73188 56.2752 3.64179 55.9741 3.63602C55.3387 3.62449 54.7337 3.96972 54.3173 4.44972C53.901 4.92972 53.6532 5.53368 53.4774 6.14485C53.2721 6.85837 53.1554 7.59782 53.1324 8.34017C53.1122 8.98737 53.2563 10.111 54.0839 10.2414L54.0832 10.2421Z" fill="#F1BCBA"/>
<path d="M45.045 63.8494C47.1239 63.8508 48.8102 61.8465 48.8116 59.3737C48.8131 56.9002 47.1289 54.8944 45.0501 54.893C42.9712 54.8915 41.2849 56.8959 41.2834 59.3694C41.282 61.8429 42.9661 63.8486 45.045 63.8501V63.8494Z" fill="#151C2A"/>
<path d="M72.412 59.3874C72.4134 56.9139 70.7293 54.9081 68.6504 54.9067C66.5715 54.9052 64.8852 56.9096 64.8838 59.3824C64.8823 61.8559 66.5665 63.8616 68.6454 63.8631C70.7242 63.8638 72.4105 61.8602 72.412 59.3867V59.3874Z" fill="#151C2A"/>
<path d="M62.3591 65.0962C59.4734 68.0858 55.003 68.3315 51.8747 65.5438C50.9 64.6753 49.4558 66.1096 50.4362 66.9831C54.3742 70.493 60.1095 70.3553 63.7976 66.5355C64.7073 65.5928 63.2703 64.1514 62.3591 65.0962Z" fill="#151C2A"/>
<path d="M43.6189 74.0252C44.2586 73.6432 44.739 73.0241 45.0257 72.3366C45.5688 71.0299 45.3988 69.4451 44.569 68.2984C43.7392 67.1517 42.2712 66.4944 40.8672 66.6638C39.4626 66.8339 38.1855 67.8364 37.71 69.1697C37.1957 70.6119 37.6294 72.2818 38.5788 73.4825C39.6686 74.8627 42.1574 74.898 43.6196 74.0252H43.6189Z" fill="#F3B65A"/>
<path d="M72.8089 66.6825C71.4043 66.8519 70.1264 67.8551 69.6517 69.1877C69.1374 70.6299 69.571 72.2998 70.5204 73.5012C71.6103 74.8814 74.099 74.916 75.5613 74.0439C76.2009 73.662 76.6814 73.0429 76.9681 72.3553C77.5112 71.0486 77.3412 69.4631 76.5114 68.3171C75.6816 67.1712 74.2128 66.5131 72.8089 66.6825Z" fill="#F3B65A"/>
<path d="M69.2403 52.4461C69.9491 52.5578 70.7408 52.7077 71.3336 52.3027C71.8998 51.9164 72.0705 51.1106 71.8616 50.4576C71.6527 49.8047 71.1362 49.2908 70.5665 48.9095C68.466 47.5041 65.4031 47.7686 63.5749 49.5142C62.609 50.4353 62.1256 52.2674 63.809 52.5456C64.4689 52.6544 65.2936 52.3647 65.9556 52.3135C67.0498 52.2285 68.1562 52.2753 69.2403 52.4468V52.4461Z" fill="#E2473A"/>
<path d="M49.7086 50.116C47.8818 48.369 44.8197 48.1009 42.7178 49.5034C42.1473 49.884 41.6308 50.3971 41.4212 51.0501C41.2116 51.7031 41.3816 52.5088 41.947 52.8959C42.5399 53.3009 43.3308 53.1532 44.0403 53.0414C45.1244 52.8713 46.2308 52.8259 47.325 52.9124C47.987 52.9643 48.8111 53.2555 49.4716 53.1467C51.1557 52.8699 50.6738 51.0378 49.7093 50.1153L49.7086 50.116Z" fill="#E2473A"/>
<path d="M48.6964 77.4753C46.9885 78.6537 45.7539 80.6061 44.4609 82.2105C43.1715 83.8097 41.4874 85.4955 40.664 87.3888C40.5646 87.618 40.7944 87.9683 41.0552 87.7809C42.8121 86.5196 44.1576 84.4389 45.5025 82.7604C46.7501 81.2036 48.3269 79.6454 49.0969 77.7845C49.1877 77.5654 48.8816 77.347 48.6957 77.476L48.6964 77.4753Z" fill="#E2473A"/>
<path d="M73.1257 84.547C71.8327 83.0674 70.2883 80.8598 68.3852 80.1867C68.1604 80.1074 68.0243 80.3733 68.105 80.5514C68.8937 82.2847 70.8919 83.6541 72.1554 85.0717C73.5932 86.6854 74.7961 88.7034 76.4377 90.098C76.6286 90.2609 77.0126 90.1117 76.9052 89.8256C76.1676 87.8623 74.4921 86.1103 73.1257 84.5463V84.547Z" fill="#E2473A"/>
<path d="M57.4831 36.2984C57.4564 35.9481 56.9933 35.9625 56.9493 36.2984C56.806 37.3859 56.7757 38.48 56.7375 39.5762C56.7051 40.5196 56.5611 41.5351 56.8542 42.4396C56.9191 42.64 57.1755 42.6249 57.2468 42.4396C57.5854 41.5589 57.4982 40.5131 57.5162 39.5762C57.5378 38.4822 57.5681 37.3903 57.4831 36.2984Z" fill="#E2473A"/>
<path d="M37.5105 56.6126C35.5851 56.1283 32.9126 55.5503 30.998 56.2674C30.8143 56.3359 30.7833 56.6162 30.998 56.6724C31.9769 56.9283 33.0063 56.8187 34.0111 56.8663C35.1536 56.9211 36.2989 57.0386 37.4341 57.1748C37.7576 57.2137 37.8174 56.6897 37.5105 56.6126Z" fill="#E2473A"/>
<path d="M77.226 56.7971C78.081 57.0292 79.0066 56.8541 79.8782 56.7697C80.7729 56.6825 81.661 56.5867 82.5334 56.3647C82.802 56.2962 82.7257 55.9222 82.4707 55.9027C81.473 55.8249 80.4747 55.8984 79.4792 55.9834C78.689 56.0512 77.8988 56.0533 77.1727 56.3906C76.994 56.4735 77.0524 56.7503 77.226 56.7979V56.7971Z" fill="#E2473A"/>
</g>
<defs>
<clipPath id="clip0_553_1068">
<rect width="115" height="118" fill="white"/>
</clipPath>
</defs>
</svg>
