<svg width="158" height="87" viewBox="0 0 158 87" fill="none" xmlns="http://www.w3.org/2000/svg">
<g clip-path="url(#clip0_49_427)">
<path d="M48.8279 19.303C48.8279 19.303 58.7139 -0.667443 81.1704 0.0186233C95.6312 0.459061 73.996 10.5976 77.6375 25.0338C80.5765 36.6817 48.8262 19.303 48.8262 19.303H48.8279Z" fill="#232C3B"/>
<path d="M77.6372 25.0321C78.6435 29.0164 75.5891 29.6059 71.1348 28.6538C73.0522 28.3726 74.0246 27.2089 73.3916 24.7051C70.0556 11.4734 87.9543 1.8532 79.8262 -2.16368e-05C80.2674 -0.00340962 80.7171 0.00336635 81.1718 0.0169183C95.6326 0.457356 73.9974 10.5959 77.6389 25.0321H77.6372Z" fill="#11171E"/>
<path d="M155.02 52.3647C142.434 60.9583 125.437 54.3466 125.437 54.3466C124.247 56.7013 122.907 58.8459 121.43 60.7923C107.009 79.8141 79.5362 80.2054 51.6955 76.6074C21.0091 72.6383 -1.02494 58.4444 0.0373072 52.3647C0.919685 47.2945 9.09017 26.577 30.946 18.8643C52.8001 11.1482 75.9829 17.9817 89.4494 29.6618C102.918 41.3419 117.266 42.6666 117.266 42.6666C117.266 42.6666 116.606 18.8609 127.644 18.8643C136.478 18.8643 136.253 38.6992 136.253 38.6992C136.253 38.6992 167.603 43.7693 155.02 52.3663V52.3647Z" fill="#232C3B"/>
<path d="M121.43 60.7905C107.009 79.8124 79.5362 80.2037 51.6955 76.6056C21.0091 72.6383 -1.02494 58.4444 0.0373072 52.3646C0.0373072 52.3646 5.11607 60.9582 25.4243 57.8735C45.736 54.787 53.2447 48.6141 68.9188 60.5178C84.5946 72.4198 88.8979 71.8692 103.581 62.2253C110.348 57.782 117.187 58.258 121.43 60.7905Z" fill="#B2B2B2"/>
<path d="M31.131 47.2878C34.7742 52.4663 48.9703 47.3369 51.9942 41.2267C56.5197 32.0808 50.2667 25.8977 41.0069 30.7527C33.0078 34.9453 29.3713 44.7874 31.131 47.2878Z" fill="#B2B2B2"/>
<path d="M20.5612 54.7701C16.823 54.7701 13.7788 51.7345 13.7754 48.0026C13.7754 46.1934 14.4779 44.491 15.759 43.2103C17.0402 41.9296 18.7439 41.2233 20.5561 41.2216C24.3011 41.2216 27.3453 44.2572 27.3487 47.9891C27.3504 49.7982 26.6462 51.5007 25.3651 52.7814C24.0839 54.062 22.382 54.7684 20.568 54.7701H20.5612Z" fill="#11171E"/>
<path d="M20.5612 53.4657C16.823 53.4657 13.7788 50.4301 13.7754 46.6983C13.7754 44.8891 14.4779 43.1866 15.759 41.906C17.0402 40.6253 18.7439 39.9189 20.5561 39.9172C24.3011 39.9172 27.3453 42.9528 27.3487 46.6847C27.3504 48.4939 26.6462 50.1963 25.3651 51.477C24.0839 52.7577 22.382 53.4641 20.568 53.4657H20.5612Z" fill="#617287"/>
<path d="M26.2754 48.1885C27.0962 45.0317 25.1981 41.8084 22.0359 40.989C18.8737 40.1697 15.6449 42.0646 14.8242 45.2214C14.0035 48.3781 15.9016 51.6014 19.0637 52.4208C22.2259 53.2401 25.4547 51.3452 26.2754 48.1885Z" fill="#FCF3D9"/>
<path d="M20.5697 50.2353C22.5302 50.2353 24.1195 48.6487 24.1195 46.6915C24.1195 44.7343 22.5302 43.1476 20.5697 43.1476C18.6091 43.1476 17.0198 44.7343 17.0198 46.6915C17.0198 48.6487 18.6091 50.2353 20.5697 50.2353Z" fill="black"/>
<path d="M22.5345 44.7942C22.5345 45.4972 21.9644 46.0681 21.2602 46.0681C20.556 46.0681 19.9858 45.4989 19.9841 44.7959C19.9824 44.0929 20.5543 43.522 21.2585 43.522C21.9627 43.522 22.5329 44.0912 22.5345 44.7942Z" fill="#FAFAFA"/>
<path d="M24.9543 38.789C24.8066 38.789 24.659 38.7399 24.5368 38.6382C23.4254 37.7167 22.0119 37.2085 20.5576 37.2085C19.1034 37.2085 17.6933 37.715 16.5819 38.6382C16.3036 38.8686 15.8929 38.8296 15.6621 38.5535C15.4314 38.2757 15.4704 37.8658 15.747 37.6354C17.0926 36.5207 18.7997 35.9058 20.5576 35.9058C22.3156 35.9058 24.0261 36.5207 25.3717 37.6354C25.6483 37.8658 25.6873 38.2774 25.4565 38.5535C25.3276 38.7077 25.1409 38.789 24.9543 38.789Z" fill="#617287"/>
<path d="M124.363 56.3421C123.458 57.9294 122.479 59.4099 121.43 60.7922C107.009 79.8141 79.5362 80.2054 51.6954 76.6073C24.1008 73.0398 3.50233 61.1988 0.405518 54.4279C10.1049 60.5246 27.8509 67.2277 49.4946 69.7602C78.9049 73.2024 107.944 72.9941 124.363 56.3421Z" fill="#DBDBDB"/>
<path d="M126.019 54.555C125.483 55.1716 124.931 55.7679 124.363 56.3421C124.734 55.6967 125.091 55.031 125.437 54.3466C125.437 54.3466 125.639 54.4245 126.019 54.555Z" fill="#C6C6C6"/>
<path d="M39.0826 60.528C34.8845 64.7901 36.8579 80.5137 49.1077 86.0835C58.9395 90.554 47.7451 77.8236 60.4955 65.8725C67.4374 59.3642 44.8248 54.6973 39.0809 60.528H39.0826Z" fill="#232C3B"/>
<path d="M60.4954 65.8725C48.2354 77.3629 58.1113 89.5715 50.1563 86.5273C50.6399 83.1241 48.6325 74.9066 57.0405 67.021C62.6114 61.7968 49.1467 57.76 40.647 59.3862C48.0606 55.4121 66.9164 59.8538 60.4971 65.8708L60.4954 65.8725Z" fill="#11171E"/>
<path d="M63.7178 38.0911C64.3551 38.0911 64.8717 37.5754 64.8717 36.9392C64.8717 36.303 64.3551 35.7873 63.7178 35.7873C63.0806 35.7873 62.564 36.303 62.564 36.9392C62.564 37.5754 63.0806 38.0911 63.7178 38.0911Z" fill="#11171E"/>
<path d="M62.5758 43.8608C63.8504 43.8608 64.8836 42.8294 64.8836 41.557C64.8836 40.2846 63.8504 39.2532 62.5758 39.2532C61.3013 39.2532 60.2681 40.2846 60.2681 41.557C60.2681 42.8294 61.3013 43.8608 62.5758 43.8608Z" fill="#11171E"/>
<path d="M69.796 38.0911C69.796 38.728 69.2785 39.243 68.6422 39.243C68.0058 39.243 67.4883 38.7263 67.4883 38.0911C67.4883 37.4558 68.0058 36.9392 68.6422 36.9392C69.2785 36.9392 69.796 37.4542 69.796 38.0911Z" fill="#11171E"/>
<path d="M67.9875 33.8663C67.9875 34.1424 67.7635 34.366 67.4869 34.366C67.2103 34.366 66.9863 34.1424 66.9863 33.8663C66.9863 33.5902 67.2103 33.3665 67.4869 33.3665C67.7635 33.3665 67.9875 33.5902 67.9875 33.8663Z" fill="#11171E"/>
<path d="M64.8719 32.5602C65.8494 32.5602 66.6417 31.7692 66.6417 30.7934C66.6417 29.8176 65.8494 29.0266 64.8719 29.0266C63.8944 29.0266 63.1021 29.8176 63.1021 30.7934C63.1021 31.7692 63.8944 32.5602 64.8719 32.5602Z" fill="#11171E"/>
<path d="M72.3373 32.6734C72.3977 31.827 71.7592 31.092 70.9114 31.0318C70.0635 30.9715 69.3273 31.6089 69.267 32.4553C69.2066 33.3017 69.845 34.0367 70.6929 34.0969C71.5408 34.1571 72.277 33.5198 72.3373 32.6734Z" fill="#11171E"/>
<path d="M60.1223 37.6964C60.5412 37.6964 60.8808 37.3574 60.8808 36.9392C60.8808 36.521 60.5412 36.182 60.1223 36.182C59.7034 36.182 59.3638 36.521 59.3638 36.9392C59.3638 37.3574 59.7034 37.6964 60.1223 37.6964Z" fill="#11171E"/>
<path d="M144.181 49.6492C143.903 49.9219 143.456 49.9185 143.183 49.6407C142.91 49.3629 142.913 48.9174 143.192 48.6447C143.47 48.3719 143.916 48.3753 144.189 48.6531C144.463 48.9309 144.459 49.3765 144.181 49.6492Z" fill="#11171E"/>
<path d="M142.17 51.6261C141.615 52.1716 140.721 52.1648 140.174 51.6108C139.628 51.0569 139.635 50.1642 140.19 49.6187C140.745 49.0732 141.639 49.08 142.185 49.634C142.732 50.1879 142.725 51.0806 142.17 51.6261Z" fill="#11171E"/>
<path d="M145.789 52.2851C145.511 52.5578 145.065 52.5544 144.791 52.2766C144.518 51.9988 144.522 51.5533 144.8 51.2805C145.078 51.0078 145.525 51.0112 145.798 51.289C146.071 51.5668 146.068 52.0123 145.789 52.2851Z" fill="#11171E"/>
<path d="M146.859 49.6865C146.738 49.8051 146.545 49.8034 146.426 49.6831C146.307 49.5628 146.309 49.3697 146.429 49.2511C146.55 49.1325 146.743 49.1342 146.862 49.2545C146.981 49.3748 146.979 49.5679 146.859 49.6865Z" fill="#11171E"/>
<path d="M147.622 47.7824C147.196 48.2008 146.51 48.1958 146.091 47.7706C145.672 47.3454 145.677 46.661 146.103 46.2426C146.529 45.8242 147.215 45.8292 147.634 46.2544C148.053 46.6796 148.048 47.364 147.622 47.7824Z" fill="#11171E"/>
<path d="M149.294 51.0163C148.924 51.3805 148.328 51.3754 147.963 51.0061C147.599 50.6368 147.604 50.0422 147.974 49.678C148.343 49.3138 148.939 49.3189 149.304 49.6882C149.669 50.0575 149.664 50.652 149.294 51.0163Z" fill="#11171E"/>
<path d="M142.469 47.9129C142.285 48.0924 141.992 48.0907 141.812 47.9078C141.632 47.7248 141.634 47.4318 141.817 47.2522C142 47.0727 142.294 47.0743 142.474 47.2573C142.654 47.4403 142.652 47.7333 142.469 47.9129Z" fill="#11171E"/>
</g>
<defs>
<clipPath id="clip0_49_427">
<rect width="158" height="87" fill="white"/>
</clipPath>
</defs>
</svg>
