<svg width="105" height="134" viewBox="0 0 105 134" fill="none" xmlns="http://www.w3.org/2000/svg">
<g clip-path="url(#clip0_49_567)">
<path d="M16.2629 48.622C9.23364 60.5114 7.7095 82.3171 11.647 95.5469C13.3035 101.112 16.1988 106.494 20.8105 110.034C27.4426 115.13 36.7343 115.831 43.2051 121.128C46.2121 123.59 48.5427 127.481 47.5852 131.24C46.2451 136.511 39.1311 139.41 39.2097 144.845C42.9156 140.01 49.5747 136.69 51.8557 131.044C53.6528 126.596 52.6395 121.324 49.9221 117.369C47.2047 113.414 42.9735 110.676 38.4652 109.006C35.4873 107.902 32.3397 107.214 29.5272 105.743C24.7004 103.218 21.2468 98.5141 19.4911 93.3673C17.7353 88.2226 17.5512 82.6553 18.1034 77.2466C19.1705 66.8109 22.9653 56.6638 29.0102 48.0797L16.2629 48.6199V48.622Z" fill="url(#paint0_linear_49_567)"/>
<path d="M76.7942 135.426C80.6097 131.574 80.6986 124.677 76.9824 120.73C72.2363 115.686 63.1183 115.707 59.7929 109.636C57.0921 104.706 59.8095 98.7471 61.5384 93.4003C64.1131 85.441 64.3529 76.6363 61.5508 68.7532C58.7465 60.8702 52.7761 54.0244 45.0479 50.7705C42.7234 52.1026 39.7248 53.0759 37.1025 53.6223C41.2427 56.6472 45.4222 59.7052 48.7972 63.5611C52.1723 67.4171 54.7263 72.1926 55.0096 77.3023C55.3756 83.9007 52.0151 90.0475 50.0112 96.3469C48.0073 102.646 47.8004 110.583 52.9395 114.756C55.4211 116.771 58.6762 117.484 61.7534 118.357C65.7571 119.491 69.7857 121.072 72.7057 124.029C75.6258 126.986 78.4403 131.617 76.7921 135.426H76.7942Z" fill="url(#paint1_linear_49_567)"/>
<path d="M71.2828 141.624C68.0649 140.931 65.5047 138.274 64.3321 135.207C63.1595 132.141 63.2174 128.724 63.8337 125.499C65.9307 114.53 73.9898 105.632 77.5427 95.0437C82.9319 78.9828 76.2894 59.7093 62.1359 50.3458C58.3658 50.3499 55.9049 50.2282 52.3086 51.3541C62.5267 58.7855 70.2508 70.2482 70.621 82.8532C70.743 87.0391 70.0957 91.2435 68.7205 95.2005C64.9422 106.061 55.6981 115.42 56.0952 126.91C56.2068 130.162 57.1354 133.385 58.7712 136.199C61.2094 140.395 66.4994 142.499 71.2828 141.622V141.624Z" fill="url(#paint2_linear_49_567)"/>
<path d="M24.3943 43.8216C27.0124 48.1559 28.9915 52.8697 30.2509 57.771C31.9488 64.3818 32.3189 71.4153 30.617 78.024C28.6689 85.5915 24.1523 92.2167 21.1082 99.4152C18.064 106.616 16.6433 115.321 20.7897 121.951C24.7644 128.304 33.2682 131.828 34.753 139.166C35.3507 142.121 34.6331 145.192 33.5308 147.998C37.216 144.905 39.1393 139.313 38.0598 134.632C36.4095 127.485 29.099 122.672 27.486 115.517C26.1542 109.61 29.0266 103.628 32.0832 98.3945C35.0198 93.3653 38.219 88.4618 40.5621 83.1316C42.9052 77.8013 44.3755 71.9308 43.629 66.1593C42.291 55.8039 34.2133 47.5394 31.3532 37.4975L24.3963 43.8216H24.3943Z" fill="url(#paint3_linear_49_567)"/>
<path d="M16.9123 53.6223C16.9123 53.6223 22.0493 63.5632 12.9851 69.8894C3.92098 76.2156 -0.610068 84.3502 3.31712 92.7838C7.2443 101.219 14.4969 100.615 14.4969 100.615C14.4969 100.615 6.64251 97.3016 5.43271 89.4681C4.22498 81.6366 7.24637 77.7188 12.9851 74.1041C18.726 70.4895 20.8395 67.1758 21.4455 62.6559C22.0493 58.1381 20.5397 52.1129 20.5397 52.1129L16.9144 53.6182L16.9123 53.6223Z" fill="#F06BA0"/>
<path d="M27.3868 52.6305C19.8158 60.4908 19.5573 74.2299 26.8285 82.3686C30.6543 86.6493 35.9981 89.2701 40.2417 93.1426C44.4832 97.015 47.6432 103.22 45.2132 108.416C44.0221 110.964 41.7038 112.781 39.431 114.447C37.1583 116.113 34.778 117.802 33.3614 120.233C31.9427 122.664 31.7855 126.083 33.7998 128.052C33.0656 125.287 34.4636 121.507 36.7219 119.744C38.9823 117.981 41.7183 116.911 43.9952 115.169C48.7827 111.507 50.9954 104.816 49.3348 99.0316C47.4984 92.6374 41.7907 88.2639 36.6454 84.0327C31.5001 79.8014 26.2391 74.5392 25.9413 67.8955C25.6476 61.3734 30.3048 55.6534 35.4335 51.5933L27.391 52.6305H27.3868Z" fill="#F06BA0"/>
<path d="M86.1003 113.872C88.673 111.307 92.747 104.533 85.4965 94.8932C78.246 85.2533 69.1818 89.7712 56.1905 80.1313C43.1991 70.4915 52.8754 52.1438 52.8754 52.1438C51.3968 52.5686 50.4682 53.4367 49.0909 54.1192C45.8317 60.6619 45.5815 68.6233 48.425 75.3537C51.2685 82.0861 57.1562 87.47 64.1275 89.7155C70.0483 91.6229 76.8956 91.4909 81.7244 95.4046C85.0146 98.0707 88.1436 102.838 86.332 106.661C85.1966 109.055 85.1966 111.164 81.8733 112.67C78.55 114.175 75.2267 118.394 76.1325 119.899C77.0383 121.404 84.5928 115.381 86.1024 113.874L86.1003 113.872Z" fill="#E34784"/>
<path d="M69.7858 53.9234C69.7858 53.9234 64.045 67.78 74.6208 72.2999C85.1947 76.8177 98.49 75.0114 103.927 91.5796C109.366 108.148 92.4452 119.596 90.9355 118.392C89.4259 117.188 97.8841 109.655 100.604 105.137C103.323 100.619 103.625 89.1712 97.2802 84.0492C90.9355 78.9272 77.9442 78.024 72.5053 74.4093C67.0663 70.7946 63.1392 64.7695 65.5567 55.7317C67.9742 46.694 69.7858 53.9234 69.7858 53.9234Z" fill="#E34784"/>
<path d="M19.9339 49.1045C19.9339 49.1045 7.8483 64.7695 10.5678 77.4219C13.2872 90.0743 28.6961 89.7733 33.5291 102.727C38.7281 116.656 17.2144 125.019 16.3086 124.116C15.4028 123.213 18.1223 118.392 23.5591 116.585C28.998 114.777 32.6233 107.849 30.8096 103.331C28.996 98.8131 15.5538 89.7836 12.0774 86.1606C5.43078 79.2323 6.03464 70.1946 9.05603 63.2663C12.0774 56.338 16.9104 47.9023 16.9104 47.9023L19.9318 49.1065L19.9339 49.1045Z" fill="#E34784"/>
<path d="M40.585 49.1416C40.585 49.1416 27.5937 73.5433 39.9812 82.8821C52.3687 92.2209 62.3386 94.9324 62.3386 103.368C62.3386 111.804 55.0881 115.117 55.0881 119.635C55.0881 124.153 58.1095 129.576 60.527 128.673C62.9446 127.77 57.5056 122.046 59.9232 116.924C62.3407 111.802 65.9659 109.995 64.7582 101.259C63.5505 92.5219 54.4863 85.8946 47.8397 81.6779C41.193 77.4611 37.5678 78.0632 39.3794 65.4107C41.193 52.7583 45.1202 49.1436 45.1202 49.1436H40.5892L40.585 49.1416Z" fill="#E34784"/>
<path d="M37.7723 51.8036C37.7723 51.8036 43.2112 61.7445 37.1684 70.1801C31.1257 78.6158 26.8965 81.3273 28.7081 90.363C30.5218 99.4007 38.3762 102.112 38.3762 102.112C38.3762 102.112 30.8237 95.786 31.4276 87.6515C32.0315 79.5169 39.282 75.6011 43.2112 68.6728C47.1384 61.7445 42.9093 49.0921 42.9093 49.0921L37.7723 51.8036Z" fill="#F06BA0"/>
<path d="M55.2972 50.9005C55.2972 50.9005 47.4407 65.6623 56.203 74.0959C64.9652 82.5315 72.5176 84.0368 70.1001 93.6766C67.6826 103.316 62.5477 103.919 62.5477 103.919C62.5477 103.919 70.1001 104.521 72.8196 94.2787C75.539 84.0368 69.7651 79.6633 64.3593 75.3001C58.0146 70.1781 54.9932 67.4666 55.2951 60.2372C55.597 53.0078 59.5242 49.6942 59.5242 49.6942L55.2951 50.8984L55.2972 50.9005Z" fill="#F06BA0"/>
<path d="M60.7212 53.0202C60.7212 53.0202 54.9804 63.8643 64.6484 67.7821C74.3164 71.6978 83.0787 67.481 85.1943 76.8198C87.3099 86.1586 80.0573 92.1838 80.0573 92.1838C80.0573 92.1838 89.4234 86.7607 88.8195 78.024C88.2156 69.2873 81.2671 67.7821 71.295 65.9737C61.3251 64.1653 60.7212 60.2496 64.0445 53.0202H60.7212Z" fill="#F06BA0"/>
<path d="M0.574975 43.3803C-3.34807 29.2392 13.1072 0 41.1807 0C69.2542 0 85.7963 27.1132 82.289 41.572C78.7795 56.0328 52.712 56.0328 40.6802 56.0328C28.6485 56.0328 3.08143 52.4181 0.574975 43.3803Z" fill="url(#paint4_linear_49_567)"/>
<path d="M41.1808 0C18.0913 0 2.87269 19.7746 0.374512 34.6643C0.436553 34.9612 0.494457 35.2623 0.573042 35.5489C3.07949 44.5866 28.6465 48.2013 40.6783 48.2013C52.7101 48.2013 78.7776 48.2013 82.287 33.7405C82.3056 33.6621 82.316 33.5776 82.3346 33.4992C79.6937 18.8487 63.7534 0 41.1808 0Z" fill="url(#paint5_linear_49_567)"/>
<mask id="mask0_49_567" style="mask-type:luminance" maskUnits="userSpaceOnUse" x="8" y="3" width="67" height="37">
<path style="mix-blend-mode:multiply" d="M8.56384 31.1238C5.42665 22.1541 18.5876 3.60437 41.0422 3.60437C63.4969 3.60437 76.7281 20.8056 73.9218 29.9773C71.1155 39.1512 50.2656 39.1512 40.641 39.1512C31.0164 39.1512 10.5678 36.8582 8.56384 31.1238Z" fill="url(#paint6_linear_49_567)"/>
</mask>
<g mask="url(#mask0_49_567)">
<path d="M8.56384 31.1238C5.42665 22.1541 18.5876 3.60437 41.0422 3.60437C63.4969 3.60437 76.7281 20.8056 73.9218 29.9773C71.1155 39.1512 50.2656 39.1512 40.641 39.1512C31.0164 39.1512 10.5678 36.8582 8.56384 31.1238Z" fill="url(#paint7_linear_49_567)"/>
</g>
<path d="M33.171 6.01486C30.7928 1.25164 17.1293 10.8358 18.6328 16.2568C20.1363 21.6799 34.6745 9.02744 33.171 6.01486Z" fill="#FFE1EF"/>
<path d="M15.1235 21.6799C12.4102 20.3746 10.1106 25.8967 12.1165 27.1029C14.1225 28.3071 17.6299 22.8861 15.1235 21.6799Z" fill="#FFE1EF"/>
<path d="M41.6893 46.5806C38.3205 46.5806 35.1088 44.2691 34.0479 41.0792C33.9094 40.6626 34.1369 40.2131 34.5546 40.0729C34.9723 39.9348 35.4232 40.1616 35.5638 40.5781C36.4138 43.135 38.9905 44.9887 41.6914 44.9887H41.6955C44.3984 44.9866 46.9731 43.1267 47.8189 40.5678C47.9575 40.1513 48.4083 39.9244 48.8261 40.0626C49.2438 40.2007 49.4713 40.6503 49.3348 41.0668C48.2801 44.2588 45.0664 46.5765 41.6976 46.5785H41.6914L41.6893 46.5806Z" fill="#E34784"/>
<path d="M34.3005 34.1962C37.7976 31.1754 38.7944 25.575 36.5278 21.684C34.2612 17.793 29.5875 17.0899 26.0905 20.1107C22.5934 23.1315 21.5966 28.7319 23.8632 32.6229C26.1298 36.5118 30.8035 37.217 34.3005 34.1962Z" fill="#F06BA0"/>
<path d="M35.6226 29.0995C36.2725 26.0111 34.4035 23.0062 31.448 22.3879C28.4926 21.7696 25.5698 23.772 24.9199 26.8604C24.27 29.9488 26.139 32.9537 29.0945 33.572C32.05 34.1903 34.9727 32.1879 35.6226 29.0995Z" fill="white"/>
<path d="M34.2792 28.3658C34.7849 26.0969 33.4659 23.8744 31.333 23.4017C29.2001 22.9291 27.0611 24.3853 26.5554 26.6542C26.0496 28.9232 27.3687 31.1457 29.5016 31.6183C31.6344 32.091 33.7735 30.6348 34.2792 28.3658Z" fill="#2F363C"/>
<path opacity="0.46" d="M32.0838 25.5131C32.4995 25.0657 32.5016 24.3646 32.0859 23.946C31.6702 23.5295 30.9981 23.5522 30.5804 24.0017C30.1647 24.4491 30.1626 25.1502 30.5783 25.5688C30.994 25.9853 31.6661 25.9626 32.0838 25.5152V25.5131Z" fill="white"/>
<path opacity="0.46" d="M30.7292 32.5115C31.3641 31.829 31.3661 30.7609 30.7333 30.1258C30.1005 29.4907 29.0747 29.5278 28.4399 30.2083C27.805 30.8908 27.8029 31.9589 28.4357 32.594C29.0685 33.2291 30.0943 33.192 30.7292 32.5115Z" fill="white"/>
<path d="M48.882 34.1962C45.3849 31.1754 44.3881 25.575 46.6547 21.684C48.9213 17.795 53.595 17.0898 57.092 20.1107C60.5891 23.1315 61.5859 28.7319 59.3193 32.6229C57.0527 36.5118 52.379 37.217 48.882 34.1962Z" fill="#F06BA0"/>
<path d="M54.0896 33.5687C57.0451 32.9504 58.9141 29.9455 58.2642 26.8571C57.6143 23.7687 54.6916 21.7663 51.7361 22.3846C48.7806 23.0029 46.9116 26.0078 47.5615 29.0962C48.2114 32.1846 51.1342 34.187 54.0896 33.5687Z" fill="white"/>
<path d="M48.9318 28.4886C48.3611 26.2348 49.6143 23.9687 51.7299 23.4263C53.8455 22.884 56.0252 24.2718 56.596 26.5255C57.1667 28.7793 55.9135 31.0454 53.7979 31.5877C51.6802 32.13 49.5026 30.7423 48.9318 28.4886Z" fill="#2F363C"/>
<path opacity="0.46" d="M51.0989 25.5131C50.6832 25.0657 50.6812 24.3646 51.0969 23.946C51.5125 23.5295 52.1846 23.5522 52.6024 24.0017C53.0181 24.4491 53.0201 25.1502 52.6044 25.5688C52.1888 25.9853 51.5167 25.9626 51.0989 25.5152V25.5131Z" fill="white"/>
<path opacity="0.46" d="M52.4535 32.5115C51.8186 31.829 51.8166 30.7609 52.4494 30.1258C53.0822 29.4907 54.108 29.5278 54.7428 30.2083C55.3777 30.8908 55.3798 31.9589 54.747 32.594C54.1142 33.2291 53.0884 33.192 52.4535 32.5115Z" fill="white"/>
</g>
<defs>
<linearGradient id="paint0_linear_49_567" x1="54.1616" y1="118.198" x2="-3.16023" y2="55.7093" gradientUnits="userSpaceOnUse">
<stop stop-color="#FF69CD"/>
<stop offset="0.99" stop-color="#FFBFD7"/>
</linearGradient>
<linearGradient id="paint1_linear_49_567" x1="37.1025" y1="93.0993" x2="79.7143" y2="93.0993" gradientUnits="userSpaceOnUse">
<stop stop-color="#FF69CD"/>
<stop offset="0.99" stop-color="#FFBFD7"/>
</linearGradient>
<linearGradient id="paint2_linear_49_567" x1="52.3065" y1="96.083" x2="79.406" y2="96.083" gradientUnits="userSpaceOnUse">
<stop stop-color="#FF69CD"/>
<stop offset="0.99" stop-color="#FFBFD7"/>
</linearGradient>
<linearGradient id="paint3_linear_49_567" x1="18.2129" y1="92.7487" x2="43.8234" y2="92.7487" gradientUnits="userSpaceOnUse">
<stop stop-color="#FF69CD"/>
<stop offset="0.99" stop-color="#FFBFD7"/>
</linearGradient>
<linearGradient id="paint4_linear_49_567" x1="6.34953e-05" y1="28.0164" x2="82.7336" y2="28.0164" gradientUnits="userSpaceOnUse">
<stop stop-color="#FF69CD"/>
<stop offset="0.99" stop-color="#FFBFD7"/>
</linearGradient>
<linearGradient id="paint5_linear_49_567" x1="54.6478" y1="73.1185" x2="27.8609" y2="-6.68487" gradientUnits="userSpaceOnUse">
<stop stop-color="#FF69CD"/>
<stop offset="0.99" stop-color="#FFBFD7"/>
</linearGradient>
<linearGradient id="paint6_linear_49_567" x1="56.3953" y1="37.1923" x2="17.4148" y2="6.6261" gradientUnits="userSpaceOnUse">
<stop/>
<stop offset="0.99" stop-color="white"/>
</linearGradient>
<linearGradient id="paint7_linear_49_567" x1="56.3953" y1="37.1923" x2="17.4148" y2="6.6261" gradientUnits="userSpaceOnUse">
<stop stop-color="#FFA8E1"/>
<stop offset="0.99" stop-color="#FFBFD7"/>
</linearGradient>
<clipPath id="clip0_49_567">
<rect width="105" height="148" fill="white"/>
</clipPath>
</defs>
</svg>
