<svg width="117" height="100" viewBox="0 0 117 100" fill="none" xmlns="http://www.w3.org/2000/svg">
<g clip-path="url(#clip0_815_1190)">
<circle cx="58" cy="50" r="50" fill="#C4ECFE"/>
<path d="M36.0434 33.0148C36.0434 33.0148 43.2417 18.2648 59.7845 18.6768C70.4371 18.941 54.5443 26.4983 57.2864 37.1158C59.4995 45.6826 36.0422 33.0148 36.0422 33.0148L36.0434 33.0148Z" fill="#232C3B"/>
<path d="M57.2869 37.1146C58.0446 40.0449 55.7974 40.4918 52.5127 39.8092C53.9238 39.5941 54.6351 38.7329 54.1585 36.8915C51.6464 27.1598 64.7893 19.9998 58.795 18.6686C59.12 18.6643 59.4512 18.6674 59.7862 18.6755C70.4388 18.9398 54.546 26.4971 57.2882 37.1146L57.2869 37.1146Z" fill="#11171E"/>
<path d="M114.395 56.9239C105.161 63.3057 92.6141 58.5068 92.6141 58.5068C91.7478 60.246 90.7694 61.8311 89.6901 63.2708C79.1472 77.3409 58.9145 77.7434 38.3941 75.2091C15.7761 72.4135 -0.511571 62.0509 0.245519 57.5685C0.874328 53.8306 6.80596 38.5376 22.8713 32.766C38.9354 26.992 56.0386 31.9287 66.0057 40.4754C75.9739 49.022 86.5477 49.938 86.5477 49.938C86.5477 49.938 85.9626 32.4072 94.0925 32.3638C100.599 32.3271 100.515 46.937 100.515 46.937C100.515 46.937 123.626 50.5409 114.395 56.9252L114.395 56.9239Z" fill="#232C3B"/>
<path d="M89.6895 63.2696C79.1466 77.3397 58.9139 77.7422 38.3934 75.2079C15.7755 72.4135 -0.512198 62.0509 0.244892 57.5686C0.244892 57.5686 4.02129 63.8769 18.9661 61.5204C33.9134 59.1627 39.4181 54.5849 51.012 63.2871C62.6072 71.9881 65.7744 71.5647 76.5488 64.4006C81.5145 61.0998 86.5532 61.422 89.6895 63.2696Z" fill="#B2B2B2"/>
<path d="M23.1257 53.7C25.8306 57.499 36.2651 53.662 38.4668 49.149C41.762 42.394 37.1307 37.866 30.3308 41.4804C24.4566 44.6016 21.8192 51.8657 23.1257 53.7Z" fill="#B2B2B2"/>
<path d="M15.3717 59.2549C12.6184 59.2704 10.3636 57.0473 10.3456 54.2987C10.3381 52.9662 10.8484 51.7093 11.7867 50.7607C12.7249 49.8122 13.9768 49.2848 15.3116 49.276C18.0699 49.2605 20.3247 51.4836 20.3427 54.2322C20.3515 55.5647 19.8399 56.8216 18.9016 57.7701C17.9633 58.7187 16.7127 59.2461 15.3767 59.2549L15.3717 59.2549Z" fill="#11171E"/>
<path d="M15.3658 58.2942C12.6125 58.3097 10.3577 56.0866 10.3397 53.338C10.3322 52.0054 10.8425 50.7486 11.7808 49.8C12.7191 48.8515 13.9709 48.3241 15.3057 48.3153C18.064 48.2997 20.3188 50.5229 20.3368 53.2715C20.3456 54.604 19.834 55.8609 18.8957 56.8094C17.9575 57.758 16.7069 58.2854 15.3708 58.2942L15.3658 58.2942Z" fill="#617287"/>
<path d="M19.5524 54.3836C20.1438 52.0551 18.7324 49.6889 16.3999 49.0986C14.0675 48.5083 11.6973 49.9174 11.1059 52.2458C10.5146 54.5743 11.926 56.9405 14.2584 57.5308C16.5908 58.1211 18.9611 56.712 19.5524 54.3836Z" fill="#FCF3D9"/>
<path d="M15.3579 55.9148C16.8019 55.9067 17.9659 54.7315 17.9578 53.29C17.9496 51.8484 16.7724 50.6864 15.3285 50.6946C13.8845 50.7027 12.7205 51.8779 12.7286 53.3195C12.7367 54.761 13.9139 55.923 15.3579 55.9148Z" fill="black"/>
<path d="M16.7837 51.8994C16.7866 52.4173 16.3689 52.8403 15.8501 52.8432C15.3313 52.8461 14.9089 52.4292 14.9047 51.9113C14.9005 51.3933 15.3195 50.9704 15.8383 50.9675C16.3571 50.9645 16.7795 51.3815 16.7837 51.8994Z" fill="#FAFAFA"/>
<path d="M18.5401 47.4661C18.4314 47.4667 18.3224 47.4311 18.232 47.3568C17.4096 46.6827 16.3664 46.3142 15.2953 46.3203C14.2242 46.3263 13.1878 46.7053 12.373 47.3899C12.169 47.5607 11.8663 47.5337 11.6952 47.3313C11.5241 47.1276 11.5511 46.8255 11.7539 46.6547C12.7404 45.8281 13.9951 45.3681 15.2899 45.3608C16.5847 45.3535 17.847 45.7993 18.8428 46.6147C19.0474 46.7832 19.0779 47.0862 18.9091 47.2906C18.8147 47.4046 18.6776 47.4653 18.5401 47.4661Z" fill="#617287"/>
<path d="M91.8314 59.981C91.1718 61.1538 90.4568 62.2484 89.6902 63.2708C79.1473 77.3409 58.9146 77.7434 38.3941 75.2092C18.055 72.6963 2.83444 64.0608 0.525391 59.0867C7.69461 63.5367 20.7929 68.4 36.7447 70.1752C58.4206 72.5882 79.8075 72.3139 91.8314 59.981Z" fill="#DBDBDB"/>
<path d="M93.0433 58.6579C92.6508 59.1144 92.247 59.556 91.8306 59.9814C92.1017 59.5044 92.3614 59.0124 92.6136 58.5068C92.6136 58.5068 92.7627 58.5633 93.0433 58.6579Z" fill="#C6C6C6"/>
<path d="M29.0369 63.4187C25.9626 66.5753 27.4815 78.148 36.527 82.1994C43.787 85.4511 35.4891 76.1214 44.8304 67.266C49.9162 62.4436 33.242 59.1003 29.0356 63.4187L29.0369 63.4187Z" fill="#232C3B"/>
<path d="M44.8309 67.266C35.8489 75.78 43.1735 84.7309 37.3018 82.5219C37.6438 80.0133 36.1311 73.9692 42.2911 68.1263C46.3725 64.2553 36.4385 61.3381 30.185 62.5713C35.6289 59.6134 49.5351 62.8064 44.8322 67.2648L44.8309 67.266Z" fill="#11171E"/>
</g>
<defs>
<clipPath id="clip0_815_1190">
<rect width="116.733" height="100" fill="white"/>
</clipPath>
</defs>
</svg>
