<svg width="120" height="106" viewBox="0 0 120 106" fill="none" xmlns="http://www.w3.org/2000/svg">
<circle cx="60.165" cy="56" r="50" fill="#A1D99B"/>
<g clip-path="url(#clip0_1029_1125)">
<path d="M44.209 94.4991V104.315C44.209 104.671 44.5189 105.018 44.8926 105C45.2663 104.982 45.5761 104.699 45.5761 104.315V94.4991C45.5761 94.143 45.2663 93.796 44.8926 93.8143C44.5189 93.8326 44.209 94.1156 44.209 94.4991Z" fill="#F95B37"/>
<path d="M40.5819 103.877C40.8006 103.63 41.0194 103.393 41.2564 103.165C41.4933 102.936 41.7394 102.69 42.0129 102.507C42.0129 102.507 41.8944 102.598 41.9491 102.553C41.9673 102.544 41.9764 102.525 41.9946 102.516C42.022 102.489 42.0584 102.471 42.0858 102.443C42.1496 102.398 42.2225 102.343 42.2954 102.297C42.4321 102.206 42.578 102.115 42.7238 102.023C42.8696 101.932 43.0154 101.859 43.1613 101.786C43.2342 101.749 43.3071 101.713 43.3891 101.685C43.4985 101.631 43.2524 101.74 43.3618 101.694C43.4074 101.676 43.4438 101.658 43.4894 101.649C43.8357 101.512 44.2003 101.421 44.5649 101.375L44.3826 101.402C44.7472 101.357 45.1118 101.348 45.4672 101.402L45.2849 101.375C45.6039 101.421 45.9229 101.503 46.2328 101.603C46.3149 101.631 46.3878 101.658 46.4607 101.685C46.5063 101.704 46.5427 101.713 46.5883 101.731C46.5883 101.731 46.4242 101.658 46.5154 101.704C46.5427 101.713 46.5701 101.722 46.5883 101.74C46.7524 101.813 46.9073 101.895 47.0623 101.978C47.2172 102.06 47.3813 102.16 47.5362 102.261C47.6091 102.306 47.682 102.361 47.7458 102.407C47.7823 102.434 47.8096 102.452 47.8461 102.48C47.9281 102.544 47.7914 102.434 47.7914 102.434C47.8096 102.452 47.837 102.471 47.8552 102.489C48.1286 102.708 48.3838 102.955 48.6026 103.219C48.6117 103.238 48.6299 103.256 48.639 103.265C48.7211 103.356 48.557 103.155 48.6026 103.21C48.6299 103.247 48.6573 103.283 48.6846 103.329C48.7393 103.402 48.7849 103.484 48.8396 103.566C48.8851 103.639 48.9216 103.712 48.9581 103.795C48.9581 103.813 48.9763 103.831 48.9854 103.849C49.0401 103.968 48.9489 103.786 48.9581 103.786C48.9581 103.786 49.0036 103.923 49.0127 103.923C49.1312 104.26 49.4867 104.516 49.8513 104.397C50.1885 104.288 50.4528 103.913 50.3252 103.557C50.0609 102.799 49.5687 102.16 48.9672 101.64C48.32 101.083 47.5909 100.654 46.7888 100.352C46.0506 100.069 45.2485 99.9322 44.4646 100.014C43.5259 100.124 42.6509 100.453 41.8488 100.946C41.0012 101.475 40.2538 102.151 39.5975 102.9C39.3606 103.165 39.315 103.603 39.5975 103.868C39.8527 104.105 40.3085 104.16 40.5637 103.868L40.5819 103.877Z" fill="#F95B37"/>
<path d="M73.8584 94.4991V104.315C73.8584 104.671 74.1683 105.018 74.542 105C74.9157 104.982 75.2256 104.699 75.2256 104.315V94.4991C75.2256 94.143 74.9157 93.796 74.542 93.8142C74.1683 93.8325 73.8584 94.1156 73.8584 94.4991Z" fill="#F95B37"/>
<path d="M70.2401 103.877C70.4588 103.63 70.6776 103.393 70.9146 103.165C71.1515 102.936 71.3976 102.69 71.6711 102.507C71.6711 102.507 71.5526 102.598 71.6073 102.553C71.6255 102.544 71.6346 102.525 71.6528 102.516C71.6802 102.489 71.7166 102.471 71.744 102.443C71.8078 102.398 71.8807 102.343 71.9536 102.297C72.0903 102.206 72.2362 102.115 72.382 102.023C72.5278 101.932 72.6736 101.859 72.8195 101.786C72.8924 101.749 72.9653 101.713 73.0473 101.685C73.1567 101.631 72.9106 101.74 73.02 101.694C73.0656 101.676 73.102 101.658 73.1476 101.649C73.4939 101.512 73.8585 101.421 74.2231 101.375L74.0408 101.402C74.4054 101.357 74.77 101.348 75.1254 101.402L74.9431 101.375C75.2621 101.421 75.5811 101.503 75.891 101.603C75.9731 101.631 76.046 101.658 76.1189 101.685C76.1645 101.704 76.2009 101.713 76.2465 101.731C76.2465 101.731 76.0824 101.658 76.1736 101.704C76.2009 101.713 76.2283 101.722 76.2465 101.74C76.4106 101.813 76.5655 101.895 76.7205 101.978C76.8754 102.06 77.0395 102.16 77.1944 102.261C77.2673 102.306 77.3402 102.361 77.404 102.407C77.4405 102.434 77.4678 102.452 77.5043 102.48C77.5863 102.544 77.4496 102.434 77.4496 102.434C77.4678 102.452 77.4952 102.471 77.5134 102.489C77.7868 102.708 78.042 102.955 78.2608 103.219C78.2699 103.238 78.2881 103.256 78.2972 103.265C78.3793 103.356 78.2152 103.155 78.2608 103.21C78.2881 103.247 78.3155 103.283 78.3428 103.329C78.3975 103.402 78.4431 103.484 78.4978 103.566C78.5433 103.639 78.5798 103.712 78.6163 103.795C78.6163 103.813 78.6345 103.831 78.6436 103.849C78.6983 103.968 78.6071 103.786 78.6163 103.786C78.6163 103.786 78.6618 103.923 78.6709 103.923C78.7894 104.26 79.1449 104.516 79.5095 104.397C79.8467 104.288 80.111 103.913 79.9834 103.557C79.7191 102.799 79.2269 102.16 78.6254 101.64C77.9782 101.083 77.2491 100.654 76.447 100.352C75.7088 100.069 74.9067 99.9322 74.1228 100.014C73.1841 100.124 72.3091 100.453 71.507 100.946C70.6594 101.475 69.912 102.151 69.2557 102.9C69.0188 103.174 68.9732 103.603 69.2557 103.868C69.5109 104.105 69.9667 104.16 70.2219 103.868L70.2401 103.877Z" fill="#F95B37"/>
<path d="M82.6626 89.9152C76.2187 95.6862 67.4324 98.4986 58.7919 98.4438C52.6488 98.4073 46.3781 96.9189 41.356 93.376C34.9303 88.8469 31.0932 81.3227 29.4982 73.6068C27.9122 65.9001 28.3497 57.9194 29.006 50.0757C29.6713 42.1771 30.5737 34.1782 33.5632 26.8458C36.5527 19.5134 41.912 12.8111 49.2491 9.87086C57.0419 6.74798 66.8126 9.62432 73.2109 15.0665C78.4973 19.5682 82.1431 25.7135 84.8774 32.1054C91.7861 48.3042 97.5738 76.538 82.6535 89.9152H82.6626Z" fill="#B4685D"/>
<path d="M90.9663 0C85.5067 3.88077 79.956 8.81164 73.7765 11.6697C73.2661 11.9071 72.7283 12.1354 72.145 12.1537C71.2882 12.1811 70.5135 11.7336 69.7661 11.3319C63.7871 8.12679 55.6479 7.18628 48.8576 8.59249C45.3121 9.33212 43.1247 11.1401 39.2328 10.4553C36.0063 9.88912 33.1079 7.94417 30.5194 6.21837C28.2773 4.72085 26.026 3.21419 23.7656 1.70754C23.7656 4.29168 24.4583 6.86668 25.7435 9.16775C28.7603 14.5552 37.0362 17.5776 42.7145 20.0704C46.0686 21.5406 49.4136 23.2846 51.9565 25.8049C55.2468 29.0738 54.3445 32.1876 56.295 35.5296C56.8328 36.4519 58.0723 37.1276 59.1478 36.7532C60.2324 36.3788 60.6335 35.21 60.9434 34.1965C61.9095 31.037 63.4316 27.8685 66.1842 25.7409C68.9458 23.6134 72.6098 22.7733 75.8819 21.3671C84.7593 17.5502 90.8569 8.91208 90.9663 0Z" fill="#844B43"/>
<path d="M73.7221 29.7404C73.8224 31.5575 72.437 33.1098 70.6232 33.2194C68.8094 33.3199 67.26 31.9319 67.1506 30.1148C67.0504 28.2977 68.4358 26.7454 70.2495 26.6358C72.0633 26.5354 73.6128 27.9233 73.7221 29.7404Z" fill="#1E1F23"/>
<path d="M70.0667 29.5943C70.1031 30.2244 69.6201 30.7631 68.9912 30.7996C68.3623 30.8362 67.8245 30.3522 67.7881 29.7222C67.7516 29.0921 68.2347 28.5534 68.8636 28.5168C69.4925 28.4803 70.0302 28.9643 70.0667 29.5943Z" fill="white"/>
<path d="M49.5688 29.7404C49.6691 31.5575 48.2837 33.1098 46.4699 33.2194C44.6561 33.3199 43.1067 31.9319 42.9973 30.1148C42.897 28.2977 44.2824 26.7454 46.0962 26.6358C47.91 26.5354 49.4594 27.9233 49.5688 29.7404Z" fill="#1E1F23"/>
<path d="M45.9134 29.5943C45.9498 30.2244 45.4667 30.7631 44.8379 30.7996C44.209 30.8362 43.6712 30.3522 43.6347 29.7222C43.5983 29.0921 44.0814 28.5534 44.7103 28.5168C45.3391 28.4803 45.8769 28.9643 45.9134 29.5943Z" fill="white"/>
<path d="M91.23 84.0073C87.165 80.5557 84.303 73.762 82.5713 68.8403C80.4932 62.9324 78.88 56.6227 79.8552 50.4318C80.8851 43.8755 88.5504 47.6285 91.3394 50.5505C94.0919 53.4451 96.7898 59.2982 96.1518 63.4072C95.9786 64.5486 95.0945 65.6718 93.937 65.7083C95.3771 67.6533 96.3888 69.9087 96.8809 72.2828C97.0085 72.9128 97.0997 73.5886 96.8354 74.173C96.5711 74.7574 95.8146 75.1591 95.2677 74.8304C96.0424 76.958 96.2976 79.2682 95.9968 81.5145C95.8054 82.9846 95.0945 84.683 93.6362 84.9113C92.7612 85.0482 91.9136 84.5826 91.2391 84.0073H91.23Z" fill="#844B43"/>
<path d="M61.5083 35.8036C61.563 35.9223 61.6085 36.0501 61.6359 36.1779C62.1736 38.2507 60.8703 40.7892 60.0044 42.5698C59.6307 43.3186 58.9745 44.0217 58.3182 43.766C57.8625 43.5925 57.58 43.0446 57.3247 42.5241C56.3677 40.5701 54.0071 37.502 55.748 35.347C56.1399 34.863 56.7323 34.5708 57.3339 34.4339C57.9445 34.2969 58.5734 34.2969 59.1932 34.3152C59.4028 34.3152 59.6216 34.3334 59.8312 34.37C60.5786 34.516 61.1984 35.0913 61.5083 35.8036Z" fill="#FFA648"/>
<path d="M82.3799 56.4675C83.8382 62.3755 85.6064 68.2468 88.286 73.7256C89.0425 75.2687 89.8628 76.7663 90.7743 78.2273C91.2391 78.976 92.424 78.2912 91.9591 77.5333C88.7782 72.4289 86.6454 66.7676 84.9957 60.9966C84.5309 59.3713 84.1025 57.7368 83.7015 56.1023C83.4918 55.244 82.1702 55.6092 82.3799 56.4675Z" fill="#B4685D"/>
<path d="M86.0813 52.1759C86.5917 53.8651 87.0565 55.5818 87.6125 57.2528C88.1685 58.9238 88.8612 60.6588 89.7817 62.2111C90.3104 63.1059 90.9302 63.9551 91.6228 64.7222C91.8598 64.987 92.352 64.987 92.589 64.7222C92.8533 64.4391 92.8442 64.0373 92.589 63.7543C92.4431 63.5899 92.2973 63.4255 92.1606 63.2612C92.0877 63.179 92.0239 63.0877 91.9601 63.0055C91.9145 62.9416 91.9874 63.042 91.9874 63.042C91.9874 63.042 91.9419 62.9872 91.9419 62.9781C91.9054 62.9324 91.8689 62.8868 91.8416 62.8411C91.5773 62.485 91.3403 62.1198 91.1033 61.7545C90.6476 61.0149 90.2557 60.2387 89.9002 59.4535C89.8638 59.3621 89.8182 59.2708 89.7817 59.1795C89.7726 59.1521 89.7544 59.1156 89.7453 59.0882C89.7453 59.0882 89.8 59.2069 89.7635 59.1339C89.7453 59.0791 89.7179 59.0243 89.6997 58.9695C89.6177 58.7686 89.5356 58.5677 89.4627 58.3668C89.3078 57.9559 89.1528 57.5359 89.0161 57.125C88.7336 56.294 88.4784 55.4631 88.2323 54.623C87.9588 53.6825 87.6854 52.742 87.4029 51.8106C87.3026 51.4636 86.9198 51.2171 86.5643 51.3358C86.2089 51.4545 85.9719 51.8106 86.0904 52.1759H86.0813Z" fill="#B4685D"/>
<path d="M28.7698 84.0073C32.8348 80.5557 35.6967 73.762 37.4285 68.8403C39.5065 62.9324 41.1198 56.6227 40.1446 50.4318C39.1146 43.8755 31.4494 47.6285 28.6604 50.5505C25.9078 53.4451 23.21 59.2982 23.848 63.4072C24.0211 64.5486 24.9052 65.6718 26.0628 65.7083C24.6227 67.6533 23.611 69.9087 23.1188 72.2828C22.9912 72.9128 22.9001 73.5886 23.1644 74.173C23.4287 74.7574 24.1852 75.1591 24.7321 74.8304C23.9573 76.958 23.7021 79.2682 24.0029 81.5145C24.1943 82.9846 24.9052 84.683 26.3635 84.9113C27.2385 85.0482 28.0862 84.5826 28.7606 84.0073H28.7698Z" fill="#844B43"/>
<path d="M36.2974 56.1023C34.8573 61.928 33.1347 67.7264 30.4824 73.1229C29.7441 74.6296 28.9238 76.1088 28.0397 77.5333C27.5749 78.2821 28.7598 78.976 29.2246 78.2273C32.442 73.0499 34.6203 67.2972 36.2974 61.4623C36.7713 59.8096 37.2088 58.1386 37.619 56.4675C37.8286 55.6092 36.5161 55.244 36.2974 56.1023Z" fill="#B4685D"/>
<path d="M32.5974 51.8197C32.0962 53.4908 31.6404 55.1709 31.0936 56.8328C30.9569 57.2437 30.811 57.6546 30.6652 58.0564C30.5923 58.2573 30.5102 58.4581 30.4373 58.659C30.4009 58.7595 30.3553 58.8599 30.3188 58.9604C30.3006 59.006 30.2824 59.0517 30.2642 59.0973C30.255 59.1156 30.2459 59.143 30.2368 59.1704C30.255 59.1247 30.2733 59.0243 30.2368 59.1704C29.8996 59.9648 29.5168 60.7501 29.0793 61.4988C28.8332 61.9097 28.578 62.3115 28.2954 62.7042C28.2225 62.8046 28.1496 62.9051 28.0767 63.0055C28.0767 63.0055 28.0311 63.0603 28.0311 63.0694C28.0311 63.0694 28.1132 62.9598 28.0493 63.0512C28.0038 63.1059 27.9673 63.1516 27.9217 63.2064C27.7668 63.3981 27.6027 63.5899 27.4296 63.7816C27.1926 64.0465 27.147 64.4939 27.4296 64.7496C27.6939 64.987 28.1405 65.0326 28.3957 64.7496C29.6079 63.3981 30.5467 61.8458 31.285 60.1839C32.0232 58.5221 32.5792 56.7963 33.0896 55.0522C33.3722 54.1025 33.6456 53.1438 33.9282 52.1941C34.0284 51.8471 33.8006 51.4362 33.4542 51.354C33.1079 51.2719 32.725 51.4636 32.6157 51.8289L32.5974 51.8197Z" fill="#B4685D"/>
<path d="M43.7266 71.1597C43.9909 72.0728 44.5742 72.8216 45.3216 73.3877C45.9323 73.8534 46.6614 74.1547 47.4088 74.31C48.8398 74.6204 50.4257 74.5017 51.7108 73.7712C52.4308 73.3603 53.0506 72.7394 53.4152 71.9906C53.4972 71.8263 53.5337 71.6436 53.4881 71.461C53.4425 71.3058 53.3241 71.1323 53.1782 71.0501C52.8683 70.8857 52.4126 70.9497 52.2394 71.2967C52.1301 71.5158 52.0025 71.7258 51.8566 71.9176L51.966 71.7806C51.7837 72.0089 51.5741 72.2189 51.3462 72.4015L51.4829 72.292C51.2095 72.502 50.9087 72.6755 50.5897 72.8124L50.7538 72.7394C50.3436 72.9129 49.9244 73.0225 49.4869 73.0772L49.6692 73.0498C49.1405 73.1229 48.6028 73.1138 48.0741 73.0498L48.2564 73.0772C47.7643 73.0133 47.2812 72.8855 46.8255 72.6937L46.9895 72.7668C46.6523 72.6207 46.3242 72.4381 46.0325 72.2098L46.1692 72.3193C45.9049 72.1093 45.6588 71.8719 45.4583 71.6071L45.5677 71.7441C45.3854 71.5067 45.2396 71.2601 45.1302 70.9862L45.2031 71.1506C45.1575 71.0318 45.112 70.9131 45.0755 70.7944C44.9752 70.4474 44.5924 70.2009 44.237 70.3196C43.8815 70.4383 43.6536 70.7944 43.763 71.1597H43.7266Z" fill="#844B43"/>
<path d="M55.0823 71.6162C55.5562 73.1685 56.9963 74.2278 58.5548 74.4926C59.4481 74.6387 60.3413 74.6021 61.2254 74.4104C62.0366 74.2278 62.7657 73.826 63.3035 73.1959C63.8412 72.5659 64.1967 71.8354 64.5339 71.0866C64.6068 70.9131 64.6524 70.7488 64.6068 70.557C64.5613 70.4018 64.4428 70.2283 64.2969 70.1461C64.142 70.0639 63.9506 70.0183 63.7683 70.073C63.6134 70.1278 63.4311 70.2283 63.3582 70.3835C63.0756 71.0136 62.7839 71.6436 62.3647 72.2006L62.4741 72.0637C62.2918 72.3011 62.0912 72.5111 61.8543 72.6937L61.991 72.5841C61.7996 72.7302 61.59 72.8489 61.3712 72.9494L61.5353 72.8763C61.1525 73.0407 60.7423 73.1229 60.323 73.1777L60.5053 73.1503C59.9676 73.2233 59.4207 73.2325 58.8921 73.1594L59.0744 73.1868C58.6825 73.132 58.2905 73.0316 57.9168 72.8763L58.0809 72.9494C57.7801 72.8215 57.4976 72.6572 57.2333 72.4563L57.37 72.5659C57.1239 72.3741 56.9143 72.1641 56.7229 71.9176L56.8322 72.0545C56.6773 71.8445 56.5406 71.6162 56.4312 71.3788L56.5041 71.5432C56.4676 71.4519 56.4312 71.3514 56.4038 71.2601C56.3036 70.9223 55.9208 70.6666 55.5653 70.7853C55.2099 70.904 54.9729 71.2601 55.0914 71.6254L55.0823 71.6162Z" fill="#844B43"/>
<path d="M66.4389 71.7075C67.1954 73.2142 68.6993 74.3465 70.349 74.7026C71.1967 74.8852 72.0717 74.867 72.9193 74.6387C73.7669 74.4104 74.4961 73.9995 75.1432 73.4607C75.8633 72.8581 76.4101 72.0545 76.72 71.1597C76.8385 70.8218 76.5833 70.3927 76.2461 70.3196C75.8633 70.2283 75.5351 70.4383 75.4075 70.7944C75.3711 70.8857 75.3437 70.9771 75.2982 71.0684L75.3711 70.904C75.2526 71.1871 75.1068 71.4519 74.9336 71.6984C74.8971 71.7532 74.7331 71.9632 74.888 71.7715C74.8424 71.8263 74.7969 71.8902 74.7422 71.945C74.6419 72.0545 74.5417 72.1641 74.4414 72.2646C74.3411 72.365 74.2227 72.4654 74.1133 72.5568C73.9766 72.6663 74.2135 72.4837 74.1224 72.5568C74.0951 72.575 74.0677 72.5933 74.0404 72.6115C73.9766 72.6572 73.9128 72.7029 73.849 72.7394C73.5938 72.9037 73.3203 73.0498 73.0469 73.1685L73.211 73.0955C72.8099 73.269 72.3907 73.3786 71.9532 73.4425L72.1355 73.4151C71.7162 73.4699 71.2969 73.4699 70.8868 73.4151L71.0691 73.4425C70.6316 73.3786 70.2123 73.2599 69.8113 73.0955L69.9753 73.1685C69.711 73.059 69.4467 72.922 69.2006 72.7668C69.073 72.6846 68.9545 72.6024 68.8452 72.5202C68.754 72.4472 68.991 72.6389 68.8452 72.5202C68.8178 72.502 68.7905 72.4746 68.7631 72.4563C68.7084 72.4107 68.6537 72.365 68.5991 72.3102C68.4897 72.2098 68.3894 72.1093 68.2892 71.9997C68.2436 71.945 68.1889 71.8902 68.1433 71.8354C68.1251 71.808 68.0978 71.7806 68.0795 71.7532C68.0613 71.7349 68.0522 71.7167 68.034 71.6984C68.1069 71.7897 68.1251 71.8171 68.0887 71.7715C67.9064 71.5341 67.7514 71.2784 67.6147 71.0136C67.4506 70.694 66.9767 70.5753 66.6759 70.767C66.3478 70.9771 66.2567 71.3606 66.4298 71.7075H66.4389Z" fill="#844B43"/>
<path d="M43.7266 83.3225C43.9909 84.2356 44.5742 84.9844 45.3216 85.5505C45.9323 86.0162 46.6614 86.3175 47.4088 86.4727C48.8398 86.7832 50.4257 86.6645 51.7108 85.934C52.4308 85.5231 53.0506 84.9022 53.4152 84.1534C53.4972 83.989 53.5337 83.8064 53.4881 83.6238C53.4425 83.4686 53.3241 83.2951 53.1782 83.2129C52.8683 83.0485 52.4126 83.1124 52.2394 83.4594C52.1301 83.6786 52.0025 83.8886 51.8566 84.0804L51.966 83.9434C51.7837 84.1717 51.5741 84.3817 51.3462 84.5643L51.4829 84.4547C51.2095 84.6648 50.9087 84.8382 50.5897 84.9752L50.7538 84.9022C50.3436 85.0757 49.9244 85.1852 49.4869 85.24L49.6692 85.2126C49.1405 85.2857 48.6028 85.2765 48.0741 85.2126L48.2564 85.24C47.7643 85.1761 47.2812 85.0483 46.8255 84.8565L46.9895 84.9296C46.6523 84.7835 46.3242 84.6008 46.0325 84.3726L46.1692 84.4821C45.9049 84.2721 45.6588 84.0347 45.4583 83.7699L45.5677 83.9069C45.3854 83.6695 45.2396 83.4229 45.1302 83.149L45.2031 83.3133C45.1575 83.1946 45.112 83.0759 45.0755 82.9572C44.9752 82.6102 44.5924 82.3637 44.237 82.4824C43.8815 82.6011 43.6536 82.9572 43.763 83.3225H43.7266Z" fill="#844B43"/>
<path d="M55.0823 83.779C55.5562 85.3313 56.9963 86.3905 58.5548 86.6553C59.4481 86.8014 60.3413 86.7649 61.2254 86.5732C62.0366 86.3905 62.7657 85.9888 63.3035 85.3587C63.8412 84.7287 64.1967 83.9982 64.5339 83.2494C64.6068 83.0759 64.6524 82.9115 64.6068 82.7198C64.5613 82.5646 64.4428 82.3911 64.2969 82.3089C64.142 82.2267 63.9506 82.181 63.7683 82.2358C63.6134 82.2906 63.4311 82.3911 63.3582 82.5463C63.0756 83.1763 62.7839 83.8064 62.3647 84.3634L62.4741 84.2264C62.2918 84.4638 62.0912 84.6739 61.8543 84.8565L61.991 84.7469C61.7996 84.893 61.59 85.0117 61.3712 85.1122L61.5353 85.0391C61.1525 85.2035 60.7423 85.2857 60.323 85.3404L60.5053 85.3131C59.9676 85.3861 59.4207 85.3952 58.8921 85.3222L59.0744 85.3496C58.6825 85.2948 58.2905 85.1943 57.9168 85.0391L58.0809 85.1122C57.7801 84.9843 57.4976 84.82 57.2333 84.6191L57.37 84.7287C57.1239 84.5369 56.9143 84.3269 56.7229 84.0803L56.8322 84.2173C56.6773 84.0073 56.5406 83.779 56.4312 83.5416L56.5041 83.706C56.4676 83.6146 56.4312 83.5142 56.4038 83.4229C56.3036 83.085 55.9208 82.8294 55.5653 82.9481C55.2099 83.0668 54.9729 83.4229 55.0914 83.7881L55.0823 83.779Z" fill="#844B43"/>
<path d="M66.4389 83.8703C67.1954 85.377 68.6993 86.5093 70.349 86.8654C71.1967 87.048 72.0717 87.0297 72.9193 86.8015C73.7669 86.5732 74.4961 86.1623 75.1432 85.6235C75.8633 85.0209 76.4101 84.2173 76.72 83.3225C76.8385 82.9846 76.5833 82.5554 76.2461 82.4824C75.8633 82.3911 75.5351 82.6011 75.4075 82.9572C75.3711 83.0485 75.3437 83.1398 75.2982 83.2311L75.3711 83.0668C75.2526 83.3499 75.1068 83.6147 74.9336 83.8612C74.8971 83.916 74.7331 84.126 74.888 83.9342C74.8424 83.989 74.7969 84.053 74.7422 84.1077C74.6419 84.2173 74.5417 84.3269 74.4414 84.4273C74.3411 84.5278 74.2227 84.6282 74.1133 84.7195C73.9766 84.8291 74.2135 84.6465 74.1224 84.7195C74.0951 84.7378 74.0677 84.7561 74.0404 84.7743C73.9766 84.82 73.9128 84.8656 73.849 84.9022C73.5938 85.0665 73.3203 85.2126 73.0469 85.3313L73.211 85.2583C72.8099 85.4318 72.3907 85.5413 71.9532 85.6053L72.1355 85.5779C71.7162 85.6327 71.2969 85.6327 70.8868 85.5779L71.0691 85.6053C70.6316 85.5413 70.2123 85.4226 69.8113 85.2583L69.9753 85.3313C69.711 85.2218 69.4467 85.0848 69.2006 84.9296C69.073 84.8474 68.9545 84.7652 68.8452 84.683C68.754 84.61 68.991 84.8017 68.8452 84.683C68.8178 84.6647 68.7905 84.6374 68.7631 84.6191C68.7084 84.5734 68.6537 84.5278 68.5991 84.473C68.4897 84.3726 68.3894 84.2721 68.2892 84.1625C68.2436 84.1077 68.1889 84.053 68.1433 83.9982C68.1251 83.9708 68.0978 83.9434 68.0795 83.916C68.0613 83.8977 68.0522 83.8795 68.034 83.8612C68.1069 83.9525 68.1251 83.9799 68.0887 83.9342C67.9064 83.6968 67.7514 83.4412 67.6147 83.1764C67.4506 82.8568 66.9767 82.7381 66.6759 82.9298C66.3478 83.1398 66.2567 83.5233 66.4298 83.8703H66.4389Z" fill="#844B43"/>
<path d="M47.791 77.1041C48.0736 77.935 48.5293 78.7112 49.1855 79.2956C49.7962 79.8526 50.5436 80.2635 51.3365 80.4826C52.1842 80.7201 53.05 80.7292 53.9159 80.6105C54.7818 80.4918 55.6294 80.0626 56.3039 79.4782C57.0513 78.839 57.6164 77.9442 57.8442 76.9854C57.9263 76.6384 57.7348 76.2275 57.3703 76.1453C57.0057 76.0631 56.6138 76.2549 56.5317 76.6201C56.4771 76.8302 56.4133 77.0402 56.3312 77.2411L56.4041 77.0767C56.2674 77.4054 56.0851 77.7068 55.8664 77.9898L55.9758 77.8529C55.7479 78.1542 55.4745 78.419 55.1828 78.6473L55.3195 78.5377C55.0279 78.7568 54.718 78.9486 54.3807 79.0856L54.5448 79.0125C54.2167 79.1495 53.8795 79.2408 53.524 79.2865L53.7063 79.2591C53.205 79.323 52.6946 79.3321 52.1933 79.2591L52.3756 79.2865C51.9381 79.2225 51.5188 79.113 51.1178 78.9395L51.2818 79.0125C50.9264 78.8573 50.5983 78.6655 50.2975 78.4372L50.4342 78.5468C50.1425 78.3185 49.8782 78.0629 49.6595 77.7707L49.7688 77.9076C49.5319 77.5972 49.3405 77.2593 49.1946 76.9032L49.2676 77.0676C49.222 76.958 49.1764 76.8484 49.1399 76.7388C49.0215 76.401 48.666 76.1453 48.3014 76.264C47.9642 76.3736 47.6999 76.7388 47.8275 77.1041H47.791Z" fill="#844B43"/>
<path d="M60.7437 76.8758C60.8439 77.3598 61.1082 77.789 61.3908 78.1816C61.6733 78.5743 61.9468 78.9578 62.2567 79.3321C62.8582 80.0535 63.6238 80.6379 64.5353 80.8936C65.4011 81.1401 66.3764 81.1127 67.224 80.8114C67.6433 80.6653 68.0534 80.4644 68.4089 80.1905C68.8008 79.8892 69.1289 79.5604 69.4297 79.1678C70.0221 78.3825 70.3503 77.4146 70.4232 76.4375C70.4323 76.2732 70.3411 76.0723 70.2227 75.9536C70.1042 75.8349 69.9128 75.7436 69.7396 75.7527C69.3477 75.771 69.0834 76.054 69.056 76.4375C69.056 76.5197 69.0378 76.6019 69.0287 76.6932L69.056 76.5106C69.0013 76.9124 68.892 77.2959 68.737 77.6703L68.8099 77.5059C68.6641 77.8529 68.4727 78.1907 68.2357 78.4921L68.3451 78.3551C68.1263 78.6382 67.8711 78.8938 67.5886 79.113L67.7253 79.0034C67.4701 79.2043 67.1876 79.3595 66.8868 79.4874L67.0508 79.4143C66.7318 79.5422 66.4037 79.6335 66.0665 79.6791L66.2488 79.6517C65.9115 79.6974 65.5743 79.6974 65.228 79.6517L65.4102 79.6791C65.0821 79.6335 64.7722 79.5513 64.4623 79.4235L64.6264 79.4965C64.3621 79.3778 64.1069 79.2317 63.879 79.0582L64.0157 79.1678C63.6147 78.8573 63.2684 78.4738 62.9585 78.0629L63.0678 78.1999C62.8855 77.9716 62.7215 77.7342 62.5483 77.4876C62.3751 77.2411 62.202 76.9945 62.0835 76.7206L62.1564 76.885C62.1017 76.7663 62.0653 76.6384 62.0379 76.5106C61.965 76.1636 61.5366 75.9262 61.1994 76.0358C60.8257 76.1545 60.6434 76.5015 60.7254 76.8758H60.7437Z" fill="#844B43"/>
</g>
<defs>
<clipPath id="clip0_1029_1125">
<rect width="74" height="105" fill="white" transform="translate(23)"/>
</clipPath>
</defs>
</svg>
