<svg width="72" height="81" viewBox="0 0 72 81" fill="none" xmlns="http://www.w3.org/2000/svg">
<path d="M5.53574 62.6443C2.35044 64.0783 -0.299746 59.833 2.38739 57.601L19.8137 43.1264C21.3231 41.8726 21.2423 39.5311 19.6501 38.3843L1.26808 25.1446C-1.56643 23.1031 0.785022 18.6853 4.06155 19.8964L25.31 27.7507C27.1506 28.431 29.138 27.1904 29.335 25.238L31.6099 2.69887C31.9607 -0.776669 36.9624 -0.949141 37.5517 2.49398L41.374 24.8229C41.7051 26.757 43.7732 27.8578 45.5625 27.0523L66.2194 17.7528C69.4047 16.3188 72.0549 20.5641 69.3678 22.7961L51.9415 37.2707C50.4321 38.5245 50.5128 40.866 52.1051 42.0128L70.4871 55.2525C73.3216 57.2941 70.9702 61.7118 67.6936 60.5007L46.4451 52.6464C44.6046 51.9661 42.6172 53.2068 42.4202 55.1591L40.1453 77.6982C39.7945 81.1738 34.7928 81.3463 34.2034 77.9031L30.3812 55.5742C30.0501 53.6401 27.982 52.5393 26.1927 53.3448L5.53574 62.6443Z" fill="#F95B37"/>
</svg>
