<svg width="133" height="91" viewBox="0 0 133 91" fill="none" xmlns="http://www.w3.org/2000/svg">
<path d="M14.3912 36.5039C14.5857 37.3208 14.3675 38.2198 13.8127 38.866C13.8317 36.7359 11.5415 35.3593 9.55011 34.4195C7.61815 33.5094 5.68599 32.5969 3.75382 31.6866C4.45558 32.9678 5.27106 34.192 6.19328 35.3388C3.76799 34.0054 1.17696 32.4944 0.140821 30.0026C-0.017928 32.1326 -0.164839 34.3125 0.427657 36.3719C1.01802 38.4313 2.49023 40.3837 4.61666 41.014C3.15395 40.9276 1.71725 40.4976 0.463172 39.7738C1.31902 41.9698 3.27486 43.7448 5.60758 44.4409C3.99544 44.5524 2.35982 44.375 0.81405 43.92C1.46845 44.1135 2.44269 45.4946 3.06856 45.927C4.05948 46.612 5.15714 47.1536 6.30701 47.5472C8.30321 48.2324 11.2641 48.7874 13.336 48.0548C17.6815 46.5163 16.6975 39.4031 14.3957 36.5016L14.3912 36.5039Z" fill="#BA5921"/>
<path d="M36.0233 65.1758C36.0233 65.1758 25.7156 73.8457 16.2163 71.5409C6.87356 69.272 25.6681 62.2911 14.1799 46.0864C13.8552 45.629 13.2057 45.5037 12.7221 45.8064H12.7197C12.1983 46.1341 12.082 46.8146 12.4614 47.2878C14.1304 49.3673 17.8595 54.8746 15.19 59.8079C11.8214 66.0404 6.55606 69.968 10.8896 73.9188C15.2256 77.8687 23.5347 76.4767 27.4677 74.9676C31.4005 73.4593 36.424 70.633 36.424 70.633L36.0235 65.1739V65.1756L36.0233 65.1758Z" fill="#FFC170"/>
<path d="M92.1182 28.0593C92.1182 28.0593 79.7592 45.9408 70.3008 46.9079C52.9306 48.6825 46.3592 42.4682 37.5734 49.0018C26.8627 56.9662 28.6809 64.5462 29.9967 70.6857C31.3125 76.8245 34.5911 78.2535 34.5911 78.2535C34.5911 78.2535 32.6875 84.5092 35.4113 85.4428C38.1329 86.3755 46.4445 85.898 50.4934 86.4433C56.3229 87.2306 59.7343 89.2043 64.5208 87.998C69.3074 86.7917 70.2201 82.6343 70.2201 82.6343C70.2201 82.6343 71.4546 86.7141 77.3554 86.5C83.2563 86.2866 86.3095 84.7688 87.4238 85.7584C88.5382 86.7486 86.803 88.1864 91.8635 89.3787C96.9251 90.5712 101.918 90.0454 101.413 86.284C100.908 82.5225 98.6675 80.1951 95.4342 79.9698L105.82 79.9379C105.82 79.9379 103.7 80.7019 103.134 84.5047C102.567 88.3066 103.364 90.3414 106.939 90.2115C110.514 90.0816 114.833 90.6141 116.156 87.8153L117.479 85.0165C117.479 85.0165 127.573 86.7141 129.915 82.5042C132.258 78.2945 128.535 67.44 126.643 63.0254C123.884 56.5925 121.44 46.5366 118.723 43.715C114.243 39.0637 109.648 40.6044 103.472 38.422C97.2993 36.2398 92.1193 28.0522 92.1193 28.0522L92.1176 28.0589L92.1182 28.0593Z" fill="#FFC170"/>
<path d="M57.0796 51.4021C57.0796 51.4021 66.9917 57.5761 63.3403 64.9279C59.6896 72.2806 48.1562 79.5739 48.1562 79.5739C48.1562 79.5739 56.7262 78.9208 61.6928 77.7078C68.0704 76.1532 70.1353 82.9028 70.1353 82.9028C70.1353 82.9028 68.4494 76.4311 71.0526 69.8045C73.6578 63.1779 76.6875 58.2557 76.6875 58.2557C78.0815 55.296 80.3146 52.5489 83.1356 50.7533L57.0771 51.4021H57.0794H57.0796Z" fill="url(#paint0_linear_655_1048)"/>
<path d="M113.061 52.5282C114.878 55.2685 120.848 71.9459 121.516 75.1318C116.04 73.4567 109.566 75.4708 106.152 79.9077C105.436 79.9327 104.746 79.9784 104.031 80.0058L97.5823 80.2399C93.3173 77.8256 87.3007 76.2193 82.3504 76.3716C81.872 71.9252 89.4176 55.6891 91.7862 51.8408L113.061 52.5282Z" fill="url(#paint1_linear_655_1048)"/>
<path d="M111.986 89.6343C111.633 87.3792 111.776 85.0527 112.406 82.8554C110.839 84.8257 109.886 87.2399 109.694 89.7135L111.986 89.6361V89.6344L111.986 89.6343Z" fill="url(#paint2_linear_655_1048)"/>
<path d="M107.52 89.495C106.892 87.6135 106.949 85.5287 107.674 83.6789C106.342 85.3196 105.674 87.4448 105.839 89.5181L107.518 89.4932L107.52 89.495Z" fill="url(#paint3_linear_655_1048)"/>
<path d="M99.3862 88.7558C99.0978 86.5842 98.0093 84.5185 96.3618 83.0025C97.4449 84.9804 97.8104 87.3104 97.3813 89.506L99.3862 88.7558Z" fill="url(#paint4_linear_655_1048)"/>
<path d="M95.5676 89.2816C96.0728 87.4362 95.6813 85.3858 94.5293 83.8311C94.7944 85.6654 94.2687 87.5952 93.0996 89.0699L95.5676 89.2816Z" fill="url(#paint5_linear_655_1048)"/>
<path d="M68.2119 85.3539C67.7756 83.5421 66.3065 81.9924 64.4663 81.4057C65.8844 82.889 66.8035 84.805 67.0579 86.8053L68.2119 85.3539Z" fill="url(#paint6_linear_655_1048)"/>
<path d="M64.2389 87.584C64.2506 85.6173 63.2624 83.6677 61.6431 82.464C62.2453 84.1228 62.5156 85.8926 62.4302 87.6477L64.2389 87.584Z" fill="url(#paint7_linear_655_1048)"/>
<path d="M99.3746 2.54552C94.889 0.269938 89.3062 -0.0122501 84.5771 1.79681C85.8788 1.87192 87.1563 2.27004 88.2447 2.94141C81.4569 3.45788 75.0991 7.54029 72.1285 13.2884C73.1076 12.7401 74.1907 12.36 75.3124 12.1712C71.1046 15.9873 68.3123 21.1505 67.5178 26.5846C66.724 32.0187 67.9325 37.6893 70.8915 42.4157C72.582 45.1123 74.8457 47.5676 75.7531 50.5777C76.1374 49.2898 76.5236 48.0044 76.9106 46.7165C76.9958 48.9697 78.506 50.9924 80.3811 52.3983C82.2561 53.805 84.4894 54.7127 86.6395 55.721C93.0126 58.7065 98.8104 63.0007 101.639 69.1307C103.977 62.8139 109.424 58.1129 115.543 54.6765C117.608 53.5159 119.762 52.4507 121.525 50.9124C123.283 49.374 124.632 47.2468 124.54 44.9939C125.026 46.25 125.509 47.506 125.996 48.7599C126.664 45.6925 128.729 43.0826 130.204 40.27C132.785 35.3434 133.543 29.6022 132.325 24.241C131.107 18.8796 127.918 13.9326 123.421 10.4306C124.554 10.5398 125.666 10.8402 126.686 11.3157C123.272 5.79739 116.612 2.18617 109.804 2.16343C110.837 1.41714 112.08 0.92788 113.372 0.75715C108.515 -0.705978 102.969 -0.0210107 98.6736 2.57311L99.3777 2.54813L99.375 2.54589L99.3746 2.54552Z" fill="#BA5922"/>
<path d="M90.1477 18.5337C94.5381 15.1182 94.7613 18.222 99.6356 18.1833C104.498 17.8692 104.477 14.7562 109.123 17.8465C113.874 21.005 116.083 33.1361 114.438 35.4161C112.793 37.6962 109.242 35.6049 106.572 41.2506L100.55 41.469L94.5292 41.6875C91.4233 36.2489 88.0478 38.5927 86.2275 36.4377C84.4088 34.2827 85.6604 22.0266 90.1504 18.5335L90.1477 18.5337Z" fill="#FFC170"/>
<path d="M99.9132 38.1401C94.9082 38.3222 92.4429 39.3347 92.5807 42.846C92.7177 46.3572 95.8729 46.241 95.8729 46.241C95.8729 46.241 96.3218 49.7223 100.364 49.577C104.405 49.4316 104.803 45.9178 104.803 45.9178C104.803 45.9178 107.731 45.8133 107.594 42.302C107.456 38.7908 104.917 37.9579 99.913 38.14L99.9132 38.1401Z" fill="#FFE1AF"/>
<path d="M114.435 16.7315C114.435 16.7315 118.228 12.4717 121.35 16.1103C124.582 19.8787 118.59 24.3502 118.59 24.3502L114.437 16.7293L114.435 16.7315Z" fill="#FFC170"/>
<path d="M85.7956 17.7669C85.7956 17.7669 81.6802 13.7937 78.852 17.6486C75.9244 21.6398 82.2517 25.6654 82.2517 25.6654L85.7956 17.7669Z" fill="#FFC170"/>
<path d="M103.689 32.5697C104.846 32.4081 105.892 32.226 107.048 32.0646C108.21 31.903 109.462 31.6981 110.28 30.8903C111.193 29.9891 111.296 28.592 111.168 27.3404C110.951 25.2082 110.116 23.0055 108.324 21.7311C104.184 24.1955 103.431 28.4099 103.689 32.5719V32.5697H103.689Z" fill="#FED5A2"/>
<path d="M109.419 22.1134C110.041 23.472 103.86 26.4074 103.36 24.1659C103.035 22.7119 108.905 20.9938 109.419 22.1134Z" fill="#95481C"/>
<path d="M108.971 26.1705C111.245 27.0101 108.637 31.3451 106.626 30.3871C104.616 29.4268 106.425 25.2305 108.971 26.1705Z" fill="#33352E"/>
<path d="M107.341 27.8226C107.952 28.0477 107.25 29.213 106.71 28.9558C106.169 28.6988 106.655 27.57 107.341 27.8226Z" fill="#FFE1AF"/>
<path d="M100.315 45.6815C100.221 45.6815 100.143 45.6086 100.141 45.5177L99.9553 40.78C99.9508 40.6868 100.027 40.607 100.126 40.6047C100.226 40.6003 100.307 40.673 100.308 40.7686L100.494 45.5063C100.498 45.5995 100.422 45.6793 100.323 45.6815H100.315Z" fill="#33352E"/>
<path d="M99.7422 46.3003C97.6253 46.3003 96.0774 45.8565 95.1313 44.9803C94.3252 44.2318 94.2848 43.4421 94.2848 43.408C94.2803 43.2578 94.4012 43.1327 94.5553 43.128C94.7094 43.1213 94.842 43.2395 94.8491 43.3875C94.8546 43.4898 95.0508 45.9408 100.309 45.7473C105.572 45.5561 105.563 42.8755 105.558 42.7618C105.553 42.6138 105.676 42.4887 105.83 42.4841C105.987 42.4796 106.115 42.5955 106.122 42.7435C106.122 42.7799 106.148 43.622 105.413 44.4821C104.462 45.5949 102.753 46.2025 100.331 46.289C100.131 46.2958 99.9349 46.3003 99.7422 46.3003Z" fill="#33352E"/>
<path d="M111.887 35.2568C112.927 35.2568 113.769 34.4479 113.769 33.45C113.769 32.452 112.927 31.6431 111.887 31.6431C110.848 31.6431 110.005 32.452 110.005 33.45C110.005 34.4479 110.848 35.2568 111.887 35.2568Z" fill="#FB945F"/>
<path d="M96.0442 32.8449C94.8779 32.7676 93.8208 32.6606 92.6544 32.5833C91.4826 32.5059 90.2196 32.392 89.3399 31.6457C88.3581 30.813 88.1448 29.4272 88.1762 28.1687C88.2255 26.0273 88.8848 23.77 90.5726 22.3682C94.8942 24.5254 95.9755 28.676 96.0444 32.8425V32.8448L96.0442 32.8449Z" fill="#FED5A2"/>
<path d="M89.5109 22.8325C88.9966 24.232 95.3902 26.7123 95.7128 24.4414C95.9206 22.9691 89.9355 21.6789 89.5109 22.8325Z" fill="#95481C"/>
<path d="M90.2451 26.4528C88.0432 27.4541 90.9851 31.5889 92.9147 30.4875C94.8444 29.3839 92.7131 25.331 90.2451 26.4528Z" fill="#33352E"/>
<path d="M92.0001 27.9844C91.407 28.253 92.199 29.3657 92.7176 29.0699C93.2371 28.7741 92.6628 27.6841 92.0001 27.9844Z" fill="#FFE1AF"/>
<path d="M87.9026 35.7373C88.9426 35.7373 89.7857 34.9284 89.7857 33.9305C89.7857 32.9325 88.9426 32.1236 87.9026 32.1236C86.8634 32.1236 86.0205 32.9325 86.0205 33.9305C86.0205 34.9284 86.8635 35.7373 87.9026 35.7373Z" fill="#FB945F"/>
<path d="M95.6838 37.7715C95.6838 37.7715 97.0374 30.2667 94.5103 25.8408C94.5103 25.8408 95.8783 22.4023 99.638 22.2659C103.398 22.1293 104.707 25.4721 104.707 25.4721C102.533 30.0687 104.472 37.4552 104.472 37.4552L95.6857 37.7737L95.684 37.7715H95.6838Z" fill="url(#paint8_linear_655_1048)"/>
<path d="M105.252 38.4745C105.154 35.9805 94.7614 36.3559 94.8581 38.8499C94.9557 41.344 97.3692 39.2801 98.2838 40.4952C99.1994 41.7102 99.0238 42.7571 100.323 42.7115C101.622 42.6636 101.532 40.379 102.39 40.1401C104.263 39.619 105.325 40.3449 105.252 38.4744V38.4745Z" fill="#33352E"/>
<path d="M115.485 18.3041C115.485 18.3041 117.946 15.0524 119.428 16.8068C120.91 18.5613 117.264 21.6288 117.264 21.6288L115.485 18.3042V18.3041Z" fill="#EB833E"/>
<path d="M84.8971 19.4123C84.8971 19.4123 82.1871 16.3472 80.8478 18.204C79.5085 20.0607 83.3849 22.8575 83.3849 22.8575L84.8971 19.4145V19.4123Z" fill="#EB833E"/>
<path d="M89.6076 13.4252C88.8631 10.9084 87.1252 8.67387 84.8237 7.2743C87.8078 6.61431 91.1438 7.80215 92.9597 10.1711C92.905 8.76259 92.4526 7.37215 91.6653 6.18208C93.9836 7.24019 95.7334 9.37692 96.2601 11.7891C96.347 7.81594 99.6571 4.12494 103.737 3.45377C102.222 5.02388 101.513 7.27672 101.871 9.38847C103.057 6.38468 106.287 4.24106 109.632 4.23416C108.573 5.06936 107.516 5.90455 106.458 6.73956C110.122 4.68708 114.929 4.67795 118.601 6.71458C116.432 6.11852 114.509 6.38916 112.485 7.34271C110.46 8.29625 108.772 9.83002 107.445 11.5798C109.261 10.5467 111.477 10.1849 113.545 10.583C111.408 11.2225 109.592 12.779 108.689 14.7428L89.6078 13.4297L89.6076 13.4252Z" fill="url(#paint9_linear_655_1048)"/>
<path d="M123.539 24.7577C126.618 27.4291 127.911 31.8506 126.73 35.6713C126.324 33.9782 125.22 32.4468 123.709 31.4888C125.196 33.7666 125.004 36.7635 123.909 39.237C122.813 41.7083 120.931 43.7722 119.082 45.7861C120.044 44.4094 120.293 42.5957 119.732 41.0256C118.326 44.6756 113.585 46.6349 112.833 50.4601C112.674 49.1317 112.674 47.7841 112.833 46.4574C111.553 48.2825 110.692 50.3758 110.33 52.5472C109.069 48.3392 109.479 43.6903 111.461 39.7446L123.541 24.7577H123.539H123.539Z" fill="url(#paint10_linear_655_1048)"/>
<path d="M74.836 26.5188C71.9746 29.4065 71.0332 33.9075 72.5105 37.6304C72.781 35.9123 73.762 34.3058 75.1945 33.2408C73.8901 35.6187 74.3175 38.5953 75.6039 40.9824C76.8895 43.3694 78.9284 45.2877 80.9316 47.1652C79.8618 45.8612 79.4731 44.0704 79.9121 42.466C81.5999 46.0045 86.4814 47.6156 87.5313 51.3745C87.586 50.0392 87.481 48.6961 87.2186 47.3834C88.6385 49.1108 89.6599 51.1361 90.191 53.2749C91.1208 48.9876 90.3451 44.3819 88.0598 40.5908L74.8389 26.5209L74.8362 26.5186L74.836 26.5188Z" fill="url(#paint11_linear_655_1048)"/>
<path d="M106.129 50.7147C107.127 52.6238 106.94 55.05 105.665 56.7976C105.707 55.6146 105.244 54.4221 104.405 53.5531C105.01 55.2205 103.829 56.9344 103.078 58.5449C102.497 59.7898 102.153 61.1346 102.071 62.4957C101.309 60.411 100.724 58.268 100.324 56.0921C99.8544 57.4145 99.6788 58.8323 99.8115 60.2228C99.506 59.617 98.9291 59.1868 98.4363 58.7093C96.9905 57.3053 96.1752 55.3186 96.2362 53.3433C95.8831 54.7337 95.9996 56.2315 96.5614 57.5556C93.4887 55.9148 92.0285 51.9512 93.3445 48.8219L106.129 50.7147H106.129Z" fill="url(#paint12_linear_655_1048)"/>
<defs>
<linearGradient id="paint0_linear_655_1048" x1="63.4192" y1="80.2864" x2="67.4751" y2="50.4601" gradientUnits="userSpaceOnUse">
<stop stop-color="#E87E2E"/>
<stop offset="1" stop-color="#E87E2E"/>
</linearGradient>
<linearGradient id="paint1_linear_655_1048" x1="102.99" y1="129.96" x2="100.588" y2="-2.87333" gradientUnits="userSpaceOnUse">
<stop stop-color="#E87E2E"/>
<stop offset="1" stop-color="#E87E2E"/>
</linearGradient>
<linearGradient id="paint2_linear_655_1048" x1="110.694" y1="91.7818" x2="111.152" y2="84.5316" gradientUnits="userSpaceOnUse">
<stop stop-color="#E87E2E"/>
<stop offset="1" stop-color="#E87E2E"/>
</linearGradient>
<linearGradient id="paint3_linear_655_1048" x1="106.517" y1="91.2639" x2="106.903" y2="85.1188" gradientUnits="userSpaceOnUse">
<stop stop-color="#E87E2E"/>
<stop offset="1" stop-color="#E87E2E"/>
</linearGradient>
<linearGradient id="paint4_linear_655_1048" x1="97.5014" y1="91.3534" x2="97.9188" y2="84.7108" gradientUnits="userSpaceOnUse">
<stop stop-color="#E87E2E"/>
<stop offset="1" stop-color="#E87E2E"/>
</linearGradient>
<linearGradient id="paint5_linear_655_1048" x1="94.2865" y1="90.7416" x2="94.6345" y2="85.1853" gradientUnits="userSpaceOnUse">
<stop stop-color="#E87E2E"/>
<stop offset="1" stop-color="#E87E2E"/>
</linearGradient>
<linearGradient id="paint6_linear_655_1048" x1="66.0089" y1="88.238" x2="66.3495" y2="82.8365" gradientUnits="userSpaceOnUse">
<stop stop-color="#E87E2E"/>
<stop offset="1" stop-color="#E87E2E"/>
</linearGradient>
<linearGradient id="paint7_linear_655_1048" x1="62.6615" y1="89.131" x2="62.9945" y2="83.8354" gradientUnits="userSpaceOnUse">
<stop stop-color="#E87E2E"/>
<stop offset="1" stop-color="#E87E2E"/>
</linearGradient>
<linearGradient id="paint8_linear_655_1048" x1="100.09" y1="38.0775" x2="99.6317" y2="25.433" gradientUnits="userSpaceOnUse">
<stop stop-color="#E87E2E"/>
<stop offset="1" stop-color="#E87E2E"/>
</linearGradient>
<linearGradient id="paint9_linear_655_1048" x1="101.919" y1="4.42918" x2="101.255" y2="13.1015" gradientUnits="userSpaceOnUse">
<stop stop-color="#E87E2E"/>
<stop offset="1" stop-color="#E87E2E"/>
</linearGradient>
<linearGradient id="paint10_linear_655_1048" x1="119.279" y1="41.9782" x2="114.847" y2="34.3636" gradientUnits="userSpaceOnUse">
<stop stop-color="#E87E2E"/>
<stop offset="1" stop-color="#E87E2E"/>
</linearGradient>
<linearGradient id="paint11_linear_655_1048" x1="80.4278" y1="43.3837" x2="84.2759" y2="35.4814" gradientUnits="userSpaceOnUse">
<stop stop-color="#E87E2E"/>
<stop offset="1" stop-color="#E87E2E"/>
</linearGradient>
<linearGradient id="paint12_linear_655_1048" x1="100.385" y1="60.2828" x2="99.6828" y2="49.7995" gradientUnits="userSpaceOnUse">
<stop stop-color="#E87E2E"/>
<stop offset="1" stop-color="#E87E2E"/>
</linearGradient>
</defs>
</svg>
