<svg width="133" height="86" viewBox="0 0 133 86" fill="none" xmlns="http://www.w3.org/2000/svg">
<path d="M94.0117 81.5062C94.0117 83.9894 74.9838 86.0062 51.5117 86.0062C28.0396 86.0062 9.01172 83.9937 9.01172 81.5062C9.01172 79.0187 28.0396 77.0062 51.5117 77.0062C74.9838 77.0062 94.0117 79.0187 94.0117 81.5062Z" fill="#A2BC5C"/>
<path d="M17.6203 15.6892C18.0289 13.6705 15.8963 13.9038 15.5974 15.2023C15.1091 17.3122 14.2321 20.3149 12.8968 23.4901C11.5913 26.6754 9.75771 30.0027 7.83441 32.9242C5.91111 35.8559 3.8483 38.3514 2.32362 40.1672C1.93497 40.6135 1.58619 41.0294 1.28723 41.3946C0.978306 41.7598 0.719209 42.0743 0.509938 42.3482C0.101362 42.896 -0.0780132 43.2612 0.0316048 43.393C0.141223 43.5249 0.519903 43.393 1.10785 43.0177C1.39685 42.8351 1.7556 42.6018 2.13428 42.3076C2.51296 42.0033 2.94146 41.6482 3.39987 41.2526C5.21355 39.6295 7.51552 37.1645 9.59827 34.1719C11.681 31.1794 13.6043 27.7101 14.9397 24.3726C16.3049 21.0453 17.1519 17.9006 17.6103 15.6892H17.6203Z" fill="#705F57"/>
<path d="M106.391 10.3939C106.102 10.8707 105.584 11.1649 105.085 11.3982C104.388 11.7329 103.66 12.0068 102.913 12.23C102.494 12.3517 102.056 12.4633 101.627 12.3822C101.199 12.301 100.79 11.9561 100.75 11.5199C101.219 10.891 101.588 10.1809 101.847 9.44036C102.086 8.76069 102.225 8.04045 102.544 7.39122C102.863 6.74199 103.411 6.16377 104.109 6.04204C104.786 5.93046 105.474 6.2855 105.912 6.82315C106.341 7.36079 106.55 8.06074 106.63 8.75055C106.7 9.31862 106.68 9.91713 106.391 10.4041V10.3939Z" fill="#604F46"/>
<path d="M31.223 79.5065C31.4621 82.2454 44.4369 81.7179 44.4867 79.8412C44.7757 67.7797 47.7852 34.7806 38.946 34.5574C30.1069 34.3343 30.1866 67.4146 31.223 79.5065Z" fill="#705F57"/>
<path d="M36.9829 77.6602C37.7204 77.6805 38.3382 78.3703 38.6471 79.3645C38.966 78.1877 39.6835 77.3661 40.5007 77.3863C41.2481 77.4066 41.8859 78.1269 42.1848 79.1616C42.4738 77.9037 43.2212 77.0009 44.0782 77.0211C44.2476 77.0211 44.417 77.0719 44.5765 77.1429C44.5366 78.1269 44.5067 79.0297 44.4868 79.8412C44.4569 81.0687 38.8664 81.7281 34.96 81.2614C34.96 81.1194 34.95 80.9774 34.96 80.8354C34.9999 79.0601 35.9067 77.6399 36.9829 77.6704V77.6602Z" fill="#604F46"/>
<path d="M67.8053 80.3586C68.0445 83.0975 81.0193 82.57 81.0691 80.6933C81.3581 68.6319 84.3676 35.6327 75.5284 35.4095C66.6892 35.1864 66.759 68.2667 67.8053 80.3586Z" fill="#705F57"/>
<path d="M73.5552 78.5123C74.2926 78.5326 74.9105 79.2224 75.2194 80.2166C75.5383 79.0398 76.2558 78.2182 77.073 78.2385C77.8204 78.2587 78.4581 78.979 78.7571 80.0137C79.0461 78.7558 79.7935 77.853 80.6505 77.8733C80.8199 77.8733 80.9893 77.924 81.1487 77.995C81.1089 78.979 81.079 79.8818 81.0591 80.6934C81.0292 81.9208 75.4386 82.5802 71.5323 82.1135C71.5323 81.9715 71.5223 81.8295 71.5323 81.6875C71.5721 79.9122 72.479 78.4921 73.5552 78.5225V78.5123Z" fill="#604F46"/>
<path d="M52.7878 81.1092C53.0269 83.8482 66.0017 83.3207 66.0515 81.444C66.3405 69.3825 69.35 36.3834 60.5109 36.1602C51.6717 35.937 51.7414 69.0173 52.7878 81.1092Z" fill="#7F7169"/>
<path d="M58.5376 79.263C59.2751 79.2833 59.8929 79.9731 60.2018 80.9672C60.5207 79.7905 61.2382 78.9688 62.0554 78.9891C62.8028 79.0094 63.4405 79.7297 63.7395 80.7644C64.0285 79.5065 64.7759 78.6036 65.6329 78.6239C65.8023 78.6239 65.9717 78.6747 66.1312 78.7457C66.0913 79.7297 66.0614 80.6325 66.0415 81.444C66.0116 82.6715 60.4211 83.3308 56.5147 82.8642C56.5147 82.7222 56.5047 82.5802 56.5147 82.4382C56.5545 80.6629 57.4614 79.2427 58.5376 79.2732V79.263Z" fill="#705F57"/>
<path d="M16.0358 80.247C16.275 82.9859 29.2498 82.4584 29.2996 80.5818C29.5886 68.5203 32.5981 35.5211 23.7589 35.298C14.9197 35.0748 14.9895 68.1551 16.0358 80.247Z" fill="#7F7169"/>
<path d="M21.7857 78.4007C22.5231 78.421 23.141 79.1108 23.4499 80.105C23.7688 78.9282 24.4863 78.1066 25.3034 78.1268C26.0508 78.1471 26.6886 78.8674 26.9876 79.9021C27.2765 78.6442 28.0239 77.7414 28.881 77.7617C29.0504 77.7617 29.2198 77.8124 29.3792 77.8834C29.3394 78.8674 29.3095 79.7702 29.2895 80.5817C29.2596 81.8092 23.6691 82.4686 19.7627 82.0019C19.7627 81.8599 19.7528 81.7179 19.7627 81.5759C19.8026 79.8006 20.7094 78.3805 21.7857 78.4109V78.4007Z" fill="#705F57"/>
<path d="M23.0713 67.0597C4.04764 66.8061 10.6148 19.3616 18.0688 11.1447C23.181 5.50456 30.7346 2.86706 38.1388 1.39615C48.0244 -0.571828 58.5178 -0.784857 67.9151 2.89749C77.3123 6.57985 92.0111 8.21307 95.6883 8.5884C100.462 9.07532 104.248 14.3706 106.57 16.8154C111.015 21.4817 118.678 20.0818 124.229 24.0076C127.956 26.635 130.198 31.139 130.477 35.7242C132.341 36.414 132.5 38.9501 131.045 39.0921C129.77 39.2138 129.809 41.3542 129.401 42.3382C127.308 47.3089 121.967 50.1087 116.665 50.4739C99.1761 51.681 94.5024 37.682 90.9348 37.8342C86.9388 37.9965 91.2737 64.341 78.0497 66.7554C64.8258 69.1697 42.105 67.3031 23.0813 67.0495L23.0713 67.0597Z" fill="#7F7169"/>
<path d="M109.829 20.7106C110.547 21.0251 111.444 20.883 111.992 20.315C112.54 19.757 112.669 18.7933 112.241 18.1339C111.972 17.718 111.503 17.434 111.005 17.3934C110.507 17.3528 110.009 17.5557 109.67 17.9311C109.391 18.2455 109.231 18.6513 109.132 19.0571C109.052 19.3715 109.002 19.7063 109.112 20.0005C109.231 20.3251 109.52 20.5584 109.839 20.7004L109.829 20.7106Z" fill="#82736A"/>
<path d="M95.1703 21.1366C94.7318 21.7656 94.682 22.6684 95.1006 23.3176C95.5191 23.9567 96.3861 24.2813 97.0936 23.9973C97.5421 23.8147 97.9008 23.4191 98.0403 22.9524C98.1798 22.4858 98.0901 21.9482 97.8012 21.5525C97.562 21.2178 97.2132 20.9845 96.8545 20.8019C96.5754 20.6599 96.2765 20.5483 95.9675 20.5888C95.6387 20.6396 95.3597 20.8729 95.1703 21.1468V21.1366Z" fill="white"/>
<path d="M96.9639 22.922C97.0436 22.5974 96.8443 22.2424 96.5454 22.1308C96.2464 22.0192 95.8677 22.1409 95.6784 22.4148C95.4293 22.7699 95.5289 23.3278 95.8877 23.5713C96.2464 23.8147 96.8543 23.3582 96.9639 22.9322V22.922Z" fill="black"/>
<path d="M110.019 20.3961C110.587 20.6497 111.304 20.528 111.743 20.0816C112.181 19.6353 112.281 18.8643 111.942 18.3368C111.723 18.0021 111.354 17.7789 110.955 17.7485C110.557 17.718 110.158 17.8804 109.889 18.1745C109.66 18.418 109.54 18.7528 109.461 19.0774C109.401 19.3208 109.361 19.5947 109.441 19.8382C109.53 20.1019 109.769 20.2845 110.019 20.3961Z" fill="white"/>
<path d="M110.367 18.8542C110.088 18.8441 109.829 19.0774 109.779 19.3513C109.729 19.6252 109.909 19.9295 110.168 20.0411C110.507 20.1932 110.945 20.0106 111.085 19.6556C111.224 19.3107 110.736 18.8643 110.367 18.8441V18.8542Z" fill="black"/>
<path d="M111.782 30.8751C112.589 31.2301 113.606 31.0678 114.234 30.4287C114.852 29.7897 114.991 28.7042 114.513 27.9637C114.204 27.4869 113.676 27.1724 113.118 27.1217C112.56 27.071 111.992 27.3043 111.613 27.7304C111.294 28.0854 111.115 28.5419 111.005 29.0086C110.915 29.3636 110.855 29.7389 110.985 30.0838C111.115 30.449 111.443 30.7229 111.802 30.8751H111.782Z" fill="#96857D"/>
<path d="M112.231 30.165C112.709 30.378 113.317 30.2766 113.686 29.9012C114.055 29.5259 114.144 28.8767 113.855 28.4303C113.676 28.1463 113.357 27.9535 113.018 27.9333C112.679 27.913 112.34 28.0448 112.121 28.2984C111.932 28.5115 111.822 28.7854 111.753 29.0593C111.703 29.2723 111.663 29.4955 111.743 29.6983C111.822 29.9215 112.022 30.0737 112.231 30.165Z" fill="#604F46"/>
<path d="M127.537 31.1186C128.344 31.4736 129.361 31.3113 129.989 30.6722C130.606 30.0331 130.746 28.9477 130.268 28.2072C129.959 27.7304 129.431 27.4159 128.872 27.3652C128.314 27.3145 127.746 27.5478 127.368 27.9739C127.049 28.3289 126.869 28.7854 126.76 29.252C126.67 29.6071 126.61 29.9824 126.74 30.3273C126.869 30.6925 127.198 30.9664 127.557 31.1186H127.537Z" fill="#82736A"/>
<path d="M127.986 30.3983C128.464 30.6113 129.072 30.5099 129.441 30.1346C129.809 29.7592 129.899 29.11 129.61 28.6637C129.431 28.3796 129.112 28.1869 128.773 28.1666C128.434 28.1463 128.095 28.2782 127.876 28.5318C127.687 28.7448 127.577 29.0187 127.507 29.2926C127.458 29.5056 127.418 29.7288 127.497 29.9317C127.577 30.1549 127.776 30.307 127.986 30.3983Z" fill="#604F46"/>
<path d="M88.7227 6.68111C87.8856 6.58981 86.7396 7.06659 86.2613 7.77668C85.8527 8.37519 85.9424 9.32875 86.1816 10.0084C86.3908 10.6171 86.9788 10.9823 87.5269 11.2967C88.344 11.7735 89.1712 12.2604 90.088 12.4735C90.4965 12.5749 90.935 12.6053 91.3535 12.5648C91.9714 12.4937 92.2305 11.7228 91.782 11.2764C91.4432 10.9315 91.1642 10.5359 90.9649 10.0997C90.6659 9.44033 90.5464 8.70995 90.2474 8.05058C89.9584 7.3912 89.4103 6.76226 88.7028 6.68111H88.7227Z" fill="#604F46"/>
<path d="M91.2736 12.0677C90.2173 11.1344 89.9283 9.55195 88.9019 8.58825C87.3074 7.07676 86.1315 9.20704 87.6363 10.7287C88.563 11.6619 89.9781 11.9257 91.2736 12.0677Z" fill="#96857D"/>
<path d="M117.851 23.0032C118.778 25.0624 122.983 24.0582 123.113 23.1655C123.98 16.379 121.777 9.2679 117.323 4.15521C116.964 3.74944 116.306 4.07406 116.416 4.6117C117.602 10.4548 118.27 20.741 117.851 23.0133V23.0032Z" fill="#CCBEA6"/>
<path d="M113.387 21.8366C113.965 22.6988 116.565 22.2931 116.645 21.9177C117.163 19.0875 115.778 16.1051 113.008 13.9647C112.789 13.7922 112.38 13.9241 112.45 14.1473C113.197 16.592 113.646 20.8932 113.387 21.8366Z" fill="#CCBEA6"/>
<path d="M109.54 38.3514C108.374 37.9659 107.258 37.0631 106.929 35.8255C106.59 35.9878 105.783 36.3327 105.434 36.0486C105.136 35.8052 105.325 35.2777 105.704 35.2675C105.813 35.2675 105.873 35.2675 105.893 35.2675C105.863 35.2675 105.783 35.2675 105.704 35.2675C106.062 35.2675 106.411 35.1559 106.72 34.9733C107.019 34.7907 107.278 34.2835 107.607 34.2125C107.826 34.1618 108.105 34.3038 108.145 34.5473C108.215 34.9226 107.647 35.3487 107.388 35.5414C110.248 39.6803 115.46 35.653 118.937 34.811C121.02 34.314 123.103 34.0096 125.245 34.0096C126.352 34.0096 127.448 34.0807 128.544 34.2227C129.042 34.2937 129.71 34.3241 130.308 34.4661C130.368 34.8922 130.417 35.3182 130.437 35.7443C128.255 35.3487 124.06 35.3588 121.807 35.7849C119.914 36.0791 118.12 36.5761 116.336 37.2964C114.194 38.1688 111.832 39.1325 109.52 38.3717L109.54 38.3514Z" fill="#604F46"/>
<path d="M53.2761 11.6112C50.5456 19.7874 45.4733 26.1276 48.6821 35.0444C49.29 36.7181 49.9976 33.4923 49.6886 32.63C47.287 25.9653 52.3095 20.0411 54.3324 13.9951C54.6214 13.1328 53.8442 9.91712 53.2761 11.6112Z" fill="#705F57"/>
<path d="M40.0423 14.8472C41.288 19.0875 42.992 22.9119 46.3105 25.8841C46.9881 26.4826 47.4664 23.3177 46.6692 22.6076C43.8291 20.0715 42.3542 16.7442 41.288 13.1227C40.6701 11.0026 39.7334 13.7821 40.0423 14.8472Z" fill="#705F57"/>
<path d="M59.7835 24.8697C55.1197 29.9621 49.9477 35.5008 52.1999 42.9873C52.5686 44.2046 53.8741 41.2323 53.605 40.3194C52.0205 35.0444 57.0829 30.8649 60.2219 27.4463C60.8597 26.7464 61.0291 23.5104 59.7835 24.8596V24.8697Z" fill="#705F57"/>
<path d="M29.8276 17.5354C27.9043 25.0016 29.7678 32.7112 35.7071 37.7123C36.4146 38.3108 36.883 35.1255 36.0658 34.4357C31.5217 30.6113 29.5984 25.103 31.1031 19.2295C31.3822 18.1542 30.3757 15.395 29.8276 17.5253V17.5354Z" fill="#705F57"/>
<path d="M34.342 19.5237C34.1626 25.6711 37.8298 30.4592 42.3142 34.1618C43.0417 34.7603 43.4901 31.5649 42.673 30.8852C39.2648 28.0753 35.6574 24.2813 35.7969 19.5034C35.8567 17.4746 34.3918 17.5151 34.332 19.5136L34.342 19.5237Z" fill="#705F57"/>
<path d="M47.0077 12.2604C47.5259 16.5515 50.6152 20.4468 53.814 23.0945C54.5315 23.693 54.9899 20.4976 54.1728 19.8179C51.7911 17.8398 48.8115 14.5835 48.4128 11.3373C48.1338 9.04473 46.8284 10.7591 47.0177 12.2503L47.0077 12.2604Z" fill="#705F57"/>
<path d="M26.2105 16.2674C25.4033 17.6673 24.2174 18.7933 23.2807 20.1019C22.3141 21.4511 21.9055 23.0133 21.8955 24.6668C21.8955 25.0827 22.0051 26.3609 22.6429 26.3508C23.2906 26.3508 23.3504 25.0625 23.3604 24.6465C23.3604 23.5915 24.3569 22.5873 24.9748 21.8264C25.6823 20.9743 26.4197 20.1527 26.9778 19.189C27.3764 18.4991 27.4163 17.6267 27.217 16.8659C27.1173 16.5007 26.6091 15.5776 26.2105 16.2674Z" fill="#705F57"/>
<path d="M21.9751 36.1399C24.8551 40.4512 28.7814 43.1902 33.8736 43.9713C34.7904 44.1133 34.9399 40.7454 33.8437 40.573C29.0405 39.8324 25.4031 37.2558 22.6926 33.1981C21.9651 32.1127 21.4569 35.3487 21.9851 36.1399H21.9751Z" fill="#705F57"/>
<path d="M34.073 29.8911C32.07 32.3054 28.9509 33.0662 26.0311 33.6343C24.9249 33.8473 25.1641 37.2051 26.0609 37.0326C29.3296 36.4037 32.6081 35.511 34.8304 32.8228C35.4383 32.0924 34.95 28.8361 34.0631 29.9012L34.073 29.8911Z" fill="#705F57"/>
<path d="M51.4326 29.5462C50.2567 34.2024 45.0947 35.8052 41.1484 37.2558C40.2416 37.5906 40.4608 40.928 41.567 40.5222C46.4001 38.7369 51.2931 36.7892 52.7081 31.2403C52.9772 30.165 51.9707 27.4058 51.4326 29.5462Z" fill="#705F57"/>
<path d="M56.0861 16.308C58.0492 20.1831 62.4339 21.9583 66.3104 23.1756C67.2472 23.4698 67.3468 20.7207 66.5994 20.4874C63.1514 19.402 58.677 17.8195 56.9132 14.3299C56.2355 12.9908 55.7373 15.6182 56.0861 16.308Z" fill="#705F57"/>
<path d="M61.5569 12.7474C63.0119 13.8937 64.8554 13.8429 66.6093 13.7415C67.4763 13.6908 67.4065 10.9011 66.5794 10.9518C64.9252 11.0431 63.2311 11.1446 61.8459 10.0591C61.2281 9.57222 60.8693 12.2097 61.5569 12.7474Z" fill="#705F57"/>
<path d="M65.2445 15.466C64.1782 18.4687 60.8996 20.3758 58.1791 21.6134C57.4317 21.9583 57.6709 24.6871 58.5279 24.3016C61.5474 22.922 64.9256 20.7613 66.1115 17.434C66.3307 16.8152 66.3606 16.0645 66.0915 15.466C65.8823 14.9892 65.4338 14.9486 65.2445 15.466Z" fill="#705F57"/>
<path d="M65.3439 26.0769C63.4904 27.8825 61.4575 29.394 58.8366 29.6679C57.9497 29.7592 58.0693 32.5387 58.8665 32.4576C61.597 32.1634 63.7495 30.6519 65.6927 28.7549C66.1312 28.3289 66.171 27.6188 66.0913 27.0304C66.0714 26.8478 65.7724 25.6508 65.3439 26.0667V26.0769Z" fill="#705F57"/>
<path d="M62.4839 33.8473C63.6697 34.9226 65.0549 35.6327 66.6593 35.7037C67.4864 35.7341 67.5064 32.9546 66.6294 32.9141C65.1247 32.8532 63.879 32.1634 62.7729 31.1591C62.3344 30.7635 62.0653 31.9504 62.0454 32.1431C61.9856 32.7112 62.0354 33.4416 62.4839 33.8575V33.8473Z" fill="#705F57"/>
</svg>
