<svg width="156" height="114" viewBox="0 0 156 114" fill="none" xmlns="http://www.w3.org/2000/svg">
<path d="M126.39 41.0717C128.991 43.3932 132.191 44.743 135.289 46.0474C137.356 46.917 139.49 47.8168 141.376 48.9889C145.103 51.3028 148.159 54.8908 149.981 59.0951C151.551 62.7172 152.225 66.7551 151.954 70.8536C151.991 71.0011 152.037 71.1447 152.089 71.2884C152.176 71.519 152.289 71.7534 152.47 71.9274C152.616 72.0673 152.838 72.1277 153.03 72.1315C153.2 72.1315 153.335 72.0937 153.478 71.9879C153.599 71.8971 153.715 71.7421 153.802 71.5909C153.866 71.4737 153.919 71.3489 153.968 71.2241C154.299 66.7211 153.576 62.271 151.848 58.2822C149.861 53.6998 146.526 49.7828 142.449 47.2534C140.427 45.9982 138.218 45.0681 136.08 44.1645C133 42.8676 130.094 41.6426 127.745 39.548C125.438 37.4913 123.846 34.6783 123.266 31.6309L121.267 32.0128C121.93 35.4987 123.752 38.7163 126.39 41.0755V41.0717Z" fill="#606E74"/>
<path d="M153.655 72.1807C153.84 72.7441 154.009 73.315 154.133 73.8972C154.378 75.0428 154.48 76.2035 154.329 77.3718C154.314 77.4928 154.498 77.4286 154.525 77.3529C154.897 76.2149 154.864 74.9937 154.649 73.8292C154.54 73.228 154.382 72.6344 154.197 72.0484C154.107 71.7648 154.005 71.4813 153.9 71.2015C153.798 70.9292 153.708 70.6495 153.508 70.434C153.407 70.3243 153.162 70.434 153.17 70.5852C153.196 71.1296 153.486 71.6665 153.655 72.1845V72.1807Z" fill="#3C484D"/>
<path d="M153.023 69.4433C153.147 69.6324 153.384 69.7572 153.55 69.9084C153.749 70.0861 153.926 70.2903 154.088 70.4982C154.457 70.967 154.766 71.4888 155.018 72.0257C155.274 72.5626 155.481 73.1335 155.617 73.7119C155.737 74.2261 155.857 74.8008 155.737 75.3226C155.718 75.402 155.835 75.3831 155.854 75.3226C156.177 74.1354 155.929 72.9331 155.451 71.8215C155.199 71.2355 154.89 70.6721 154.499 70.1655C154.209 69.7874 153.768 69.2051 153.264 69.1333C153.125 69.1144 152.933 69.3072 153.019 69.4433H153.023Z" fill="#3C484D"/>
<path d="M151.924 77.1298C151.867 77.3075 152.135 77.2584 152.184 77.1336C152.586 76.1052 152.854 75.039 152.963 73.9388C153.019 73.383 153.046 72.8159 153.008 72.2563C152.989 71.9879 152.963 71.7232 152.914 71.4585C152.872 71.2279 152.842 70.9443 152.695 70.7591C152.564 70.5927 152.259 70.7704 152.255 70.9557C152.248 71.1901 152.338 71.4245 152.383 71.6551C152.428 71.9047 152.458 72.158 152.477 72.4113C152.515 72.9558 152.507 73.5002 152.466 74.0446C152.387 75.0768 152.236 76.1392 151.928 77.1298H151.924Z" fill="#3C484D"/>
<path d="M149.955 74.7479C150.203 73.78 150.576 72.8045 151.013 71.9085C151.231 71.4623 151.476 71.0238 151.75 70.6116C151.886 70.4113 152.025 70.2146 152.183 70.0256C152.319 69.863 152.511 69.708 152.545 69.4887C152.56 69.3866 152.439 69.3299 152.356 69.3564C152.116 69.4282 151.969 69.6286 151.814 69.8214C151.66 70.0143 151.51 70.2147 151.374 70.4226C151.077 70.8612 150.828 71.33 150.606 71.8102C150.162 72.7667 149.891 73.746 149.68 74.7781C149.646 74.9369 149.929 74.8689 149.959 74.7517L149.955 74.7479Z" fill="#3C484D"/>
<path d="M149.315 71.2922C149.808 70.6041 150.369 69.95 150.941 69.3262C151.216 69.0237 151.502 68.7326 151.792 68.449C151.935 68.3091 152.078 68.1692 152.221 68.0369C152.372 67.8932 152.579 67.7533 152.669 67.5643C152.756 67.3828 152.616 67.2618 152.44 67.3336C152.236 67.413 152.074 67.5983 151.92 67.7495C151.773 67.897 151.623 68.0444 151.48 68.1957C151.186 68.5057 150.907 68.8309 150.64 69.1598C150.102 69.8252 149.631 70.5323 149.165 71.2468C149.093 71.3565 149.259 71.3678 149.315 71.2922Z" fill="#3C484D"/>
<path d="M152.955 68.1994C152.921 68.2637 152.936 68.328 152.985 68.3734C152.974 68.3582 152.967 68.3469 152.955 68.3318C152.963 68.3507 152.978 68.3658 152.989 68.3772C153 68.3847 153.008 68.3961 153.023 68.4036C153.016 68.4036 153.008 68.3961 153 68.3961C153.027 68.415 153.061 68.4263 153.102 68.4301C153.128 68.4301 153.151 68.4301 153.177 68.4263C153.14 68.4263 153.136 68.4301 153.162 68.4263C153.181 68.4263 153.204 68.4263 153.223 68.4263C153.238 68.4263 153.256 68.4263 153.271 68.4263C153.271 68.4263 153.274 68.4263 153.279 68.4263C153.279 68.4263 153.29 68.4263 153.298 68.4263C153.381 68.4452 153.467 68.4792 153.52 68.5057C153.719 68.6078 153.9 68.7439 154.073 68.88C154.254 69.0275 154.427 69.1863 154.597 69.3451C154.728 69.4698 154.852 69.6059 154.98 69.7345C155.06 69.8139 155.248 69.6778 155.169 69.6022C154.92 69.3488 154.725 69.0577 154.495 68.7893C154.25 68.4944 153.975 68.1919 153.618 68.0369C153.535 67.9991 153.437 67.9726 153.347 67.9726C153.287 67.9726 153.226 67.9839 153.17 68.0028C153.113 68.0217 153.057 68.052 153.016 68.0974C152.993 68.12 152.978 68.1465 152.963 68.173C152.955 68.1843 152.955 68.1843 152.955 68.1881C152.963 68.173 152.974 68.1541 152.963 68.1692C152.959 68.1768 152.959 68.1843 152.952 68.1919C152.944 68.2032 152.944 68.2032 152.952 68.1919L152.955 68.1994Z" fill="#3C484D"/>
<path d="M152.985 68.3734C152.985 68.3734 152.993 68.3856 152.997 68.3896C152.997 68.3896 152.997 68.3896 153.001 68.3896C152.997 68.3896 152.993 68.3774 152.989 68.3734C152.989 68.3734 152.989 68.3734 152.985 68.3734Z" fill="#3C484D"/>
<path d="M117.258 46.3273C116.863 45.8056 116.419 45.3254 115.914 44.8906C110.539 40.2704 101.527 43.7223 98.0901 49.1025C94.7699 54.3012 94.7737 61.9688 96.2117 67.8026C96.4902 68.9369 96.7462 70.0749 96.9683 71.2205C97.7136 75.0165 98.1992 78.8957 98.3272 82.7635C98.4401 86.0793 98.7488 89.5275 98.0487 92.7979C97.6685 94.5711 97.1302 96.4881 97.1151 98.352C97.2054 98.681 97.3221 99.0023 97.4953 99.301C98.3084 100.73 100.089 101.086 101.591 101.241C103.503 101.437 105.472 101.384 107.384 101.241C108.457 101.161 109.53 101.036 110.595 100.874C111.623 100.715 112.681 100.556 113.682 100.273C114.378 100.076 115.041 99.7963 115.666 99.4371C116.174 98.9343 116.58 98.3444 116.866 97.6828C116.942 96.9985 116.998 96.3141 117.081 95.6374C117.36 93.3915 117.74 91.1608 118.124 88.9339C118.846 84.7258 119.509 80.5026 119.953 76.2529C120.473 71.2697 120.842 65.9878 120.589 60.8723C120.367 56.3391 120.202 50.2141 117.254 46.3236L117.258 46.3273Z" fill="#97AAB3"/>
<path opacity="0.54" d="M96.968 71.2166C97.7133 75.0126 98.1989 78.8917 98.3269 82.7595C98.3683 83.9883 98.4361 85.2322 98.47 86.4837C100.819 86.858 103.213 86.9109 105.585 86.79C108.133 86.6614 110.67 86.3173 113.17 85.8107C115.097 85.4213 117.002 84.926 118.873 84.3248C119.29 81.6442 119.667 78.956 119.949 76.2527C120.469 71.2695 120.838 65.9876 120.585 60.8721C120.363 56.3389 120.198 50.2139 117.25 46.3234C116.855 45.8016 116.411 45.3214 115.906 44.8866C110.531 40.2664 101.519 43.7184 98.0822 49.0985C94.7621 54.2972 94.7659 61.9648 96.2039 67.7987C96.4824 68.9329 96.7346 70.071 96.9605 71.2166H96.968Z" fill="#A7BBC5"/>
<path opacity="0.34" d="M100.277 71.0011C101.037 70.6948 101.862 70.5436 102.679 70.4755C103.364 70.4188 104.075 70.4037 104.753 70.5247C105.773 70.7062 106.721 71.1637 107.595 71.7119C107.964 71.9463 108.321 72.1996 108.668 72.4718C108.389 72.3546 108.107 72.245 107.821 72.1467C106.375 71.6552 104.851 71.4321 103.326 71.4699C102.505 71.4926 101.719 71.5985 100.921 71.7988C100.213 71.9765 99.4939 72.1958 98.7637 72.2412C99.0347 71.6249 99.6709 71.2393 100.277 70.9973V71.0011Z" fill="#83949C"/>
<path opacity="0.34" d="M104.899 74.2413C105.645 74.2791 106.405 74.4152 107.094 74.7101C104.741 75.2734 102.242 75.5759 99.9077 74.8916C100.326 74.7857 100.743 74.6836 101.169 74.5967C102.392 74.3434 103.649 74.177 104.899 74.2413Z" fill="#83949C"/>
<path opacity="0.34" d="M106.876 78.404C106.729 78.5931 106.56 78.7632 106.364 78.9107C105.442 79.5874 104.196 79.8029 103.078 79.6593C102.125 79.5345 101.132 79.0884 100.657 78.2225C101.869 78.4154 103.048 78.7821 104.275 78.8842C105.201 78.9598 106.097 78.8199 106.876 78.404Z" fill="#83949C"/>
<path d="M104.267 98.2913C104.681 97.3764 105.34 96.4841 106.356 96.2308C107.263 96.0077 108.201 96.2837 108.807 97.0021C109.401 97.7091 109.669 98.6581 109.797 99.5579C109.88 100.133 109.902 100.715 109.872 101.297C109.153 101.422 108.43 101.513 107.7 101.569C106.236 101.69 104.76 101.683 103.292 101.581C103.548 100.465 103.785 99.3348 104.259 98.2875L104.267 98.2913Z" fill="#FFFCD9"/>
<path d="M98.3192 100.488C98.3117 100.133 98.3267 99.7848 98.3568 99.452C98.4359 98.5409 98.6467 97.5049 99.2791 96.8092C99.8249 96.2118 100.807 96.0568 101.425 96.6429C102.061 97.2478 102.227 98.28 102.343 99.108C102.456 99.9171 102.467 100.745 102.611 101.55C101.636 101.479 100.638 101.407 99.6932 101.153C99.1888 101.017 98.7107 100.802 98.3154 100.488H98.3192Z" fill="#FFFCD9"/>
<path d="M52.9518 107.596C52.4285 108.25 51.7811 108.779 51.0282 109.146C49.9704 109.66 48.7696 109.876 47.6177 110.035C46.1195 110.243 44.5987 110.277 43.0892 110.178C41.5873 110.084 40.0929 109.857 38.621 109.536C37.5745 109.305 36.4829 109.097 35.4929 108.674C34.6195 108.303 33.8554 107.698 33.6032 106.738C32.7713 103.569 34.6798 100.62 36.0537 97.9398C37.5821 94.9642 38.1768 91.5539 38.9297 88.325C39.8105 84.5593 40.3488 80.6839 40.6161 76.8236C41.0753 70.1277 40.6613 63.3184 38.9222 56.7246C38.0865 53.5486 36.8292 50.4256 36.2758 47.2081C36.1441 46.4444 36.0462 45.6618 36.0086 44.8716C36.0801 44.7052 36.1516 44.5388 36.2269 44.3763C36.5431 42.6371 37.3186 40.9168 38.4704 39.412C39.2873 38.3496 40.3601 37.359 41.7604 36.6709C43.3189 35.9109 45.2198 35.6122 47.0757 35.616C51.3519 35.6311 55.248 37.3287 58.1954 39.4763C61.2257 41.6843 63.2735 44.4481 64.576 47.4047C65.3627 49.1931 65.901 51.0268 66.2511 52.8832C66.9701 55.9835 67.211 59.1783 67.1583 62.3618C67.0077 71.0767 64.5948 79.6328 61.4892 87.7125C59.9571 91.6976 58.2218 95.5994 56.4262 99.4748C55.4776 101.524 54.5328 103.577 53.682 105.672C53.4261 106.299 53.1927 106.95 52.9442 107.589L52.9518 107.596Z" fill="#97AAB3"/>
<path opacity="0.54" d="M37.65 52.4749C39.0691 55.5789 40.7668 58.5583 42.6452 61.4015C44.693 64.5056 46.9629 67.4698 49.4549 70.2298C52.1539 73.2129 55.1879 75.9011 58.3876 78.3246C60.0589 79.5912 61.7905 80.7822 63.571 81.8862C65.6226 75.5646 67.053 69.0124 67.1697 62.3656C67.2262 59.1821 66.9815 55.9873 66.2625 52.887C65.9124 51.0306 65.3741 49.1931 64.5874 47.4085C63.285 44.4556 61.2372 41.6918 58.2069 39.4838C55.2632 37.3363 51.3634 35.6387 47.0871 35.6236C45.2313 35.616 43.3266 35.9147 41.7719 36.6784C40.3716 37.3627 39.2987 38.3533 38.4819 39.4195C37.33 40.9205 36.5508 42.6446 36.2383 44.3838C36.1593 44.5464 36.0915 44.7165 36.02 44.8791C36.0577 45.6693 36.1555 46.4557 36.2873 47.2157C36.5922 48.9889 37.1117 50.7357 37.6575 52.4749H37.65Z" fill="#A7BBC5"/>
<path opacity="0.34" d="M43.8684 77.4853C44.6815 77.3908 45.5172 77.4588 46.3227 77.6063C47.0003 77.7311 47.6892 77.905 48.3141 78.1999C49.2514 78.6422 50.0494 79.3304 50.7496 80.0903C51.047 80.4117 51.3255 80.752 51.589 81.1074C51.3519 80.9221 51.1072 80.7406 50.855 80.5743C49.5864 79.7198 48.1748 79.1073 46.6916 78.7443C45.8936 78.5515 45.1069 78.4456 44.2863 78.4305C43.556 78.4154 42.8069 78.4419 42.0879 78.2906C42.5095 77.7689 43.2247 77.5609 43.8722 77.4853H43.8684Z" fill="#83949C"/>
<path opacity="0.34" d="M47.4897 81.8257C48.2011 82.0601 48.8975 82.389 49.4848 82.8503C47.0681 82.7785 44.5761 82.4155 42.502 81.1451C42.9311 81.1527 43.364 81.164 43.7931 81.1905C45.0391 81.2661 46.2964 81.4325 47.4859 81.8257H47.4897Z" fill="#83949C"/>
<path opacity="0.34" d="M48.3179 86.3665C48.126 86.5102 47.9189 86.6312 47.6931 86.7181C46.624 87.1302 45.3667 87.013 44.3278 86.5782C43.4394 86.2077 42.5962 85.5196 42.3628 84.5593C43.4808 85.0621 44.5273 85.7276 45.6829 86.1434C46.56 86.4573 47.4559 86.5593 48.3179 86.3627V86.3665Z" fill="#83949C"/>
<path d="M40.1532 106.439C40.6953 105.596 41.4707 104.806 42.5172 104.7C43.4432 104.609 44.3354 105.018 44.8323 105.815C45.3216 106.602 45.4496 107.577 45.4496 108.488C45.4496 109.067 45.3894 109.649 45.2765 110.22C44.5462 110.239 43.8159 110.224 43.0894 110.178C41.6213 110.088 40.1645 109.868 38.7266 109.558C39.1406 108.492 39.5321 107.407 40.1532 106.439Z" fill="#FFFCD9"/>
<path d="M34.2206 107.83C34.262 107.479 34.326 107.135 34.4012 106.81C34.6045 105.917 34.9546 104.919 35.6774 104.318C36.2985 103.804 37.296 103.785 37.823 104.45C38.3726 105.139 38.3914 106.182 38.3952 107.021C38.3952 107.838 38.2935 108.662 38.3237 109.479C37.3675 109.271 36.3888 109.063 35.4891 108.681C35.0073 108.477 34.5631 108.197 34.2168 107.834L34.2206 107.83Z" fill="#FFFCD9"/>
<path d="M41.588 53.9154C41.588 53.9154 49.3575 77.8369 78.8848 82.8541C108.412 87.8713 131.525 79.6744 139.682 67.2127C145.156 58.8494 145.788 47.8698 143.251 38.3949C140.349 27.5665 133.456 19.6683 122.991 15.6606C121.429 15.0632 119.837 14.5528 118.226 14.1142C107.814 11.2937 96.5056 10.4997 85.8074 11.7587C77.62 12.7229 69.5493 14.2201 61.2678 13.4563C57.9063 13.1463 54.4092 11.9138 51.0138 12.2767C47.3888 12.6661 45.0511 15.5056 43.1878 18.4093C35.614 30.2094 36.6341 47.2724 41.5917 53.9116L41.588 53.9154Z" fill="#A7BBC5"/>
<path opacity="0.54" d="M143.25 38.3949C141.986 33.6726 139.96 29.5098 137.213 25.9823C137.868 27.4152 138.425 28.8973 138.88 30.4021C139.716 33.1584 140.247 36.0659 140.16 38.9544C140.088 41.3515 139.603 44.1115 137.548 45.6163C135.692 46.9774 133.143 47.1551 130.96 47.6126C129.364 47.9453 127.828 48.3726 126.375 49.1287C124.941 49.8698 123.635 50.8453 122.494 51.9946C120.269 54.2367 118.647 57.1517 117.868 60.218C117.156 63.0234 117.164 65.9649 116.787 68.8233C116.434 71.5379 115.779 74.4152 113.817 76.4455C111.818 78.5136 108.626 79.6403 105.78 79.3416C104.35 79.1904 102.965 78.6233 101.967 77.5608C101.053 76.5816 100.605 75.2545 100.311 73.9728C99.9759 72.4907 99.8366 70.9708 99.6296 69.466C99.4263 67.9953 99.0875 66.6077 98.553 65.2201C97.4199 62.2672 95.7072 59.5034 93.362 57.371C90.983 55.2084 88.028 53.8775 84.8622 53.4162C82.0277 53.0003 78.9484 53.1176 76.2946 54.2934C75.026 54.8568 73.8742 55.6772 72.9933 56.7623C71.9242 58.0856 71.2918 59.7832 71.0283 61.4544C70.4223 65.3033 71.785 69.1144 72.1727 72.9104C72.3383 74.5286 72.3873 76.3018 71.8941 77.8709C71.5967 78.8236 71.0057 79.663 70.1287 80.1583C69.9329 80.2679 69.7334 80.3549 69.5264 80.4343C72.3684 81.4476 75.4777 82.2793 78.8769 82.854C108.404 87.8675 131.517 79.6743 139.674 67.2126C145.148 58.8531 145.78 47.8697 143.239 38.3949H143.25Z" fill="#A7BBC5"/>
<path opacity="0.54" d="M52.9296 70.4302C56.0765 68.7099 58.561 65.7835 60.4845 62.8193C60.9513 62.0971 61.3804 61.375 61.6929 60.5734C61.9526 59.8967 62.1935 59.1972 62.5436 58.562C62.6528 58.3616 62.7883 58.1197 62.9878 57.9987C63.2814 57.8172 63.7068 57.8437 64.0305 57.8815C64.4333 57.9268 64.8286 58.0327 65.2163 58.1424C65.4045 58.1953 65.5965 58.2747 65.7885 58.3049C66.052 58.3503 66.3531 58.3087 66.6166 58.3012C70.6482 58.1613 74.7212 56.8569 77.9585 54.4069C79.4642 53.2688 80.7554 51.8321 81.5835 50.1269C81.9261 49.4199 82.2046 48.6789 82.4456 47.9302C82.5623 47.5597 82.6601 47.1514 82.8897 46.83C83.1194 46.5049 83.4694 46.3083 83.8233 46.1457C84.6063 45.7865 85.4307 45.5294 86.2475 45.261C88.4271 44.5464 90.6141 43.8469 92.7221 42.9395C95.4212 41.775 97.9319 40.2211 100.247 38.41C101.406 37.5026 102.521 36.5234 103.522 35.4383C104.429 34.4552 105.287 33.355 105.799 32.1035C106.221 31.0789 106.368 29.922 105.909 28.8823C105.223 27.3283 103.503 26.7801 102.186 25.8954C101.339 25.3245 100.616 24.5305 99.9082 23.797C99.0876 22.9501 98.3009 22.0729 97.5405 21.1731C96.1514 19.5322 94.7925 17.8573 93.5541 16.0954C92.4888 14.5792 91.4987 12.9913 90.6518 11.3353C89.0256 11.4336 87.4069 11.5697 85.7996 11.7587C77.6122 12.7228 69.5415 14.2201 61.26 13.4563C57.8985 13.1463 54.4014 11.9137 51.006 12.2767C47.381 12.6661 45.0433 15.5056 43.18 18.4093C35.6062 30.2093 36.6263 47.2724 41.5839 53.9116C41.5839 53.9116 44.3695 62.4752 52.9258 70.4264L52.9296 70.4302Z" fill="#A7BBC5"/>
<path d="M96.6069 60.6528C95.1012 56.9854 92.6092 53.8813 88.604 51.9228C87.5989 51.4313 86.5449 51.0494 85.4646 50.7621C84.2713 50.4445 83.0629 50.2327 81.8245 50.2441C78.4328 50.2781 75.0788 51.6165 72.824 54.2027C70.6256 56.7207 69.6356 60.2029 70.1701 63.5074C70.5466 65.8288 71.8076 67.9461 72.568 70.1579C73.5844 73.1183 74.3787 76.1543 74.9809 79.2282C75.7263 83.0242 76.2119 86.9033 76.3399 90.7712C76.449 94.087 76.7615 97.5351 76.0613 100.806C75.6811 102.579 75.1428 104.496 75.1277 106.36C75.2181 106.689 75.3348 107.01 75.5079 107.309C76.321 108.738 78.1016 109.093 79.6035 109.248C81.5158 109.445 83.4845 109.392 85.3968 109.248C86.4696 109.169 87.5425 109.044 88.6078 108.881C89.6392 108.723 90.6932 108.564 91.6983 108.28C92.3947 108.084 93.0572 107.804 93.6821 107.445C94.1902 106.942 94.5968 106.352 94.8829 105.69C94.9582 105.006 95.0146 104.322 95.0974 103.645C95.376 101.399 95.7562 99.1722 96.1402 96.9415C96.8629 92.7334 97.5254 88.5102 97.9696 84.2605C98.7714 76.5778 99.6184 67.9763 96.6107 60.6452L96.6069 60.6528Z" fill="#97AAB3"/>
<path opacity="0.34" d="M78.2896 79.0089C79.05 78.7026 79.8744 78.5514 80.6913 78.4834C81.3764 78.4266 82.0878 78.4115 82.7654 78.5325C83.7855 78.714 84.7341 79.1715 85.6074 79.7197C85.9764 79.9541 86.334 80.2074 86.6803 80.4797C86.4017 80.3624 86.1194 80.2528 85.8333 80.1545C84.3878 79.663 82.8633 79.4399 81.3387 79.4777C80.5181 79.5004 79.7314 79.6063 78.9333 79.8067C78.2256 79.9844 77.5066 80.2036 76.7764 80.249C77.0474 79.6327 77.6836 79.2471 78.2896 79.0051V79.0089Z" fill="#83949C"/>
<path opacity="0.34" d="M82.9124 82.2529C83.6577 82.2907 84.4181 82.4268 85.107 82.7217C82.7543 83.285 80.2585 83.5875 77.9209 82.9032C78.3387 82.7973 78.7566 82.6952 79.1819 82.6083C80.4053 82.3549 81.6626 82.1886 82.9124 82.2529Z" fill="#83949C"/>
<path opacity="0.34" d="M84.8886 86.4156C84.7418 86.6047 84.5724 86.7748 84.3766 86.9223C83.4544 87.599 82.2084 87.8145 81.0904 87.6709C80.138 87.5461 79.1442 87.0999 78.6699 86.2341C79.882 86.427 81.0603 86.7937 82.2874 86.8958C83.2135 86.9714 84.1094 86.8315 84.8886 86.4156Z" fill="#83949C"/>
<path d="M82.2799 106.303C82.694 105.388 83.3528 104.496 84.3691 104.242C85.2763 104.019 86.2136 104.295 86.8197 105.014C87.4145 105.721 87.6817 106.67 87.8097 107.57C87.8925 108.144 87.9151 108.726 87.8888 109.309C87.1698 109.433 86.4433 109.524 85.7205 109.581C84.2524 109.702 82.7806 109.694 81.3125 109.592C81.5685 108.477 81.8056 107.346 82.2799 106.299V106.303Z" fill="#FFFCD9"/>
<path d="M76.3324 108.496C76.3248 108.14 76.3399 107.793 76.37 107.46C76.4491 106.549 76.6561 105.513 77.2923 104.817C77.8381 104.22 78.8206 104.065 79.4379 104.651C80.0741 105.256 80.2397 106.288 80.3564 107.116C80.4694 107.925 80.4806 108.753 80.6237 109.558C79.6487 109.486 78.6512 109.415 77.7063 109.161C77.2019 109.025 76.7239 108.813 76.3286 108.496H76.3324Z" fill="#FFFCD9"/>
<path d="M141.207 52.3538C140.811 51.8321 140.367 51.3519 139.863 50.9171C134.487 46.2969 125.476 49.7488 122.039 55.129C118.719 60.3277 118.722 67.9953 120.16 73.8291C120.439 74.9634 120.695 76.1014 120.917 77.247C121.662 81.043 122.148 84.9222 122.276 88.79C122.389 92.1058 122.698 95.554 121.997 98.8244C121.617 100.598 121.083 102.515 121.064 104.379C121.154 104.707 121.271 105.029 121.444 105.328C122.257 106.757 124.038 107.112 125.54 107.267C127.452 107.464 129.421 107.411 131.333 107.267C132.406 107.188 133.479 107.063 134.544 106.9C135.572 106.742 136.629 106.583 137.631 106.299C138.327 106.103 138.99 105.823 139.614 105.464C140.123 104.961 140.529 104.371 140.815 103.709C140.89 103.025 140.947 102.341 141.03 101.664C141.308 99.418 141.689 97.1911 142.072 94.9604C142.795 90.7523 143.458 86.529 143.902 82.2794C144.421 77.2962 144.79 72.0143 144.538 66.8988C144.316 62.3656 144.15 56.2406 141.203 52.35L141.207 52.3538Z" fill="#97AAB3"/>
<path opacity="0.34" d="M124.226 77.024C124.986 76.7177 125.81 76.5665 126.627 76.4984C127.312 76.4417 128.024 76.4266 128.701 76.5476C129.722 76.7291 130.67 77.1866 131.543 77.7348C131.912 77.9692 132.27 78.2225 132.616 78.4947C132.338 78.3775 132.055 78.2679 131.769 78.1696C130.324 77.6781 128.799 77.455 127.275 77.4928C126.454 77.5155 125.667 77.6213 124.869 77.8217C124.162 77.9994 123.443 78.2187 122.712 78.2641C122.983 77.6478 123.62 77.2622 124.226 77.0202V77.024Z" fill="#83949C"/>
<path opacity="0.34" d="M128.848 80.2679C129.594 80.3057 130.354 80.4419 131.043 80.7368C128.69 81.3001 126.191 81.6026 123.857 80.9182C124.275 80.8124 124.693 80.7103 125.118 80.6233C126.341 80.37 127.599 80.2037 128.848 80.2679Z" fill="#83949C"/>
<path opacity="0.34" d="M130.825 84.4307C130.678 84.6197 130.508 84.7899 130.313 84.9373C129.39 85.6141 128.144 85.8296 127.026 85.6859C126.074 85.5612 125.08 85.115 124.606 84.2492C125.818 84.442 126.996 84.8088 128.223 84.9109C129.149 84.9865 130.045 84.8466 130.825 84.4307Z" fill="#83949C"/>
<path d="M128.216 104.318C128.63 103.403 129.289 102.511 130.305 102.257C131.213 102.034 132.15 102.31 132.756 103.029C133.351 103.736 133.618 104.685 133.746 105.585C133.829 106.159 133.851 106.742 133.821 107.324C133.102 107.449 132.376 107.539 131.649 107.596C130.185 107.717 128.709 107.709 127.241 107.607C127.497 106.492 127.734 105.362 128.209 104.314L128.216 104.318Z" fill="#FFFCD9"/>
<path d="M122.268 106.515C122.261 106.159 122.276 105.811 122.306 105.479C122.385 104.568 122.596 103.532 123.228 102.836C123.774 102.239 124.757 102.083 125.374 102.67C126.01 103.274 126.176 104.307 126.292 105.135C126.405 105.944 126.417 106.772 126.56 107.577C125.585 107.505 124.587 107.433 123.642 107.18C123.138 107.044 122.66 106.828 122.265 106.515H122.268Z" fill="#FFFCD9"/>
<path d="M42.1825 15.018C42.2164 13.2448 42.0921 11.4565 41.7421 9.71725C41.4786 8.39773 41.072 7.10846 40.4998 5.8948C39.3367 4.76432 38.1735 3.62628 36.8597 2.67351C34.9588 1.29727 32.7378 0.423893 30.4152 0.121424C27.9609 -0.199949 25.4689 0.140328 23.1125 0.862473C20.7296 1.59596 18.4673 2.69619 16.3179 3.95522C13.984 5.32011 11.8346 6.95344 9.70396 8.61702C8.59725 9.48284 7.49431 10.3562 6.38007 11.2145C5.89824 11.585 5.42017 11.9404 4.9007 12.258C4.43016 12.5453 3.95209 12.8213 3.47778 13.1087C2.55929 13.6683 1.61445 14.2732 0.925578 15.1163C0.161422 16.054 -0.0870227 17.2336 0.0259067 18.4321C0.040964 18.5985 0.0635499 18.7649 0.0899001 18.9274C0.274352 19.5929 0.549147 20.2356 0.857821 20.867C1.88171 22.9578 3.10135 24.9466 4.56191 26.7576C6.02246 28.5649 7.71264 30.1868 9.58727 31.548C10.5321 32.2361 11.5334 32.8448 12.5347 33.4422C13.5812 34.0622 14.6427 34.6596 15.7231 35.2154C17.9516 36.3648 20.2779 37.3629 22.7097 37.9906C24.972 38.5766 27.4113 38.8677 29.7226 38.3838C31.7102 37.9679 33.4719 36.9017 34.8985 35.4687C36.3403 34.0206 37.4357 32.2512 38.3391 30.425C39.1371 28.8106 39.8223 27.1319 40.3756 25.4154C40.9026 23.7821 41.3205 22.1109 41.6216 20.4209C41.9416 18.6325 42.1411 16.8253 42.175 15.0105L42.1825 15.018Z" fill="#F8A8A0"/>
<path d="M5.14139 14.5263C6.99343 13.324 8.6949 11.9024 10.4415 10.5526C11.2584 9.92118 12.0865 9.29734 12.9523 8.73777C13.8407 8.16686 14.7705 7.7056 15.753 7.31995C18.2036 6.36339 20.9666 5.7698 23.5715 6.38986C24.8927 6.70367 26.0785 7.34263 27.1212 8.21223C28.0887 9.02134 28.8415 10.0346 29.4852 11.1159C30.6032 12.9875 31.5029 14.9649 32.4477 16.9271C34.2922 20.7571 36.2535 24.6439 39.0917 27.8425C39.1859 27.9483 39.28 28.0466 39.3741 28.1487C39.743 27.2564 40.0818 26.349 40.3791 25.4303C40.9061 23.797 41.324 22.1258 41.6251 20.4358C41.9451 18.6512 42.1446 16.8402 42.1785 15.0253C42.2124 13.2521 42.0881 11.4638 41.7381 9.72458C41.4746 8.40506 41.068 7.11578 40.4958 5.90213C39.3327 4.77165 38.1695 3.63361 36.8557 2.68083C34.9548 1.3046 32.7338 0.431217 30.4112 0.128748C27.9569 -0.192625 25.4649 0.147653 23.1085 0.869797C20.7257 1.60328 18.4633 2.70352 16.3139 3.96254C13.98 5.32744 11.8306 6.96077 9.69997 8.62435C8.59326 9.49017 7.49032 10.3635 6.37608 11.2218C5.89425 11.5923 5.41618 11.9477 4.8967 12.2653C4.42617 12.5527 3.9481 12.8287 3.47379 13.116C2.5553 13.6756 1.61046 14.2805 0.921587 15.1237C0.54892 15.5811 0.300475 16.0953 0.149902 16.6398C1.94548 16.4054 3.62437 15.5093 5.12633 14.5338L5.14139 14.5263Z" fill="#A7BBC5"/>
<path d="M42.1827 15.0178C42.2166 13.2446 42.0923 11.4562 41.7423 9.71701C41.4788 8.39749 41.0722 7.10822 40.5 5.89456C39.8827 5.29719 39.2653 4.69603 38.6292 4.12134C37.5752 4.41246 36.5136 4.67334 35.4671 4.9985C33.9313 5.47111 32.4783 6.10629 31.1532 7.0326C28.5483 8.85876 26.3914 11.2747 24.528 13.8419C22.5857 16.5188 20.9143 19.3847 19.6947 22.4661C18.524 25.4189 17.7749 28.5268 17.4172 31.6838C17.2591 33.0941 17.1801 34.5119 17.165 35.9297C18.9531 36.7767 20.8014 37.5026 22.7136 37.9979C24.976 38.5839 27.4153 38.875 29.7266 38.3911C31.7141 37.9752 33.4758 36.909 34.9025 35.476C36.3442 34.028 37.4396 32.2585 38.3431 30.4324C39.1411 28.8179 39.8262 27.1392 40.3796 25.4227C40.9066 23.7894 41.3244 22.1182 41.6256 20.4282C41.9455 18.6399 42.145 16.8326 42.1789 15.0178H42.1827Z" fill="#ABADB0"/>
<path d="M62.5059 17.9026C62.9614 16.1861 63.5749 14.5074 64.3918 12.9308C65.0092 11.7398 65.7545 10.6093 66.6391 9.60363C68.0695 8.83989 69.5 8.0686 71.0245 7.52037C73.2342 6.72639 75.6019 6.5071 77.9208 6.85872C80.3676 7.23303 82.6676 8.25008 84.7304 9.60363C86.8158 10.9685 88.6867 12.6586 90.4032 14.4658C92.2703 16.4281 93.8852 18.5945 95.47 20.7836C96.2981 21.9217 97.115 23.0711 97.9469 24.2015C98.3083 24.6893 98.6697 25.1657 99.08 25.6156C99.4526 26.0239 99.8366 26.4209 100.213 26.8292C100.943 27.6232 101.681 28.4664 102.114 29.4683C102.592 30.5874 102.509 31.7935 102.069 32.9127C102.009 33.0677 101.941 33.2189 101.873 33.3701C101.515 33.9599 101.071 34.4968 100.601 35.0186C99.0423 36.7427 97.3183 38.3155 95.4173 39.6502C93.5163 40.981 91.4459 42.0661 89.2664 42.8563C88.1672 43.2533 87.0417 43.5596 85.9086 43.8545C84.7342 44.1607 83.5484 44.4367 82.3551 44.6711C79.897 45.1551 77.3862 45.4689 74.8754 45.3971C72.5415 45.329 70.1136 44.932 68.0281 43.8242C66.2363 42.8714 64.836 41.3591 63.8573 39.5859C62.871 37.7937 62.3064 35.7899 61.9412 33.7822C61.6213 32.009 61.4255 30.2056 61.3653 28.4021C61.3088 26.6856 61.3653 24.9653 61.5422 23.2563C61.7267 21.4491 62.0353 19.6569 62.5021 17.9026H62.5059Z" fill="#F8A8A0"/>
<path d="M98.2369 27.7329C96.7877 26.0617 95.5454 24.2242 94.243 22.4397C93.6332 21.6041 93.0083 20.7761 92.3307 19.9972C91.6343 19.1995 90.8664 18.5 90.0269 17.8573C87.9377 16.2542 85.4458 14.9157 82.7693 14.7872C81.4142 14.7229 80.1004 15.0027 78.8582 15.5509C77.7026 16.0576 76.7013 16.8251 75.7865 17.6833C74.198 19.173 72.7864 20.8177 71.3371 22.4397C68.5063 25.608 65.5514 28.7991 61.9414 31.0789C61.8247 31.1546 61.7042 31.2226 61.5838 31.2944C61.4746 30.3341 61.4031 29.3662 61.3692 28.4021C61.3127 26.6856 61.3692 24.9653 61.5461 23.2563C61.7306 21.4491 62.0393 19.6569 62.506 17.9026C62.9615 16.1861 63.5751 14.5074 64.3919 12.9308C65.0093 11.7398 65.7546 10.6093 66.6392 9.60363C68.0697 8.83989 69.5001 8.0686 71.0247 7.52037C73.2343 6.72639 75.6021 6.5071 77.9209 6.85872C80.3677 7.23303 82.6677 8.25008 84.7305 9.60363C86.816 10.9685 88.6868 12.6586 90.4034 14.462C92.2705 16.4243 93.8854 18.5907 95.4701 20.7799C96.2983 21.9179 97.1152 23.0673 97.9471 24.1978C98.3084 24.6855 98.6698 25.1619 99.0801 25.6118C99.4528 26.0201 99.8367 26.4171 100.213 26.8255C100.943 27.6194 101.681 28.4626 102.114 29.4645C102.348 30.0089 102.445 30.5723 102.434 31.1356C100.774 30.4097 99.4076 29.0826 98.2331 27.7291L98.2369 27.7329Z" fill="#A7BBC5"/>
<path d="M62.506 17.9026C62.9615 16.1861 63.5751 14.5074 64.3919 12.9308C65.0093 11.7398 65.7546 10.6093 66.6392 9.60364C67.3959 9.19908 68.1563 8.79453 68.9279 8.42023C69.8615 8.99114 70.8101 9.53936 71.7248 10.1405C73.0725 11.0252 74.2921 12.0347 75.3085 13.2938C77.3073 15.774 78.7152 18.6966 79.7993 21.6797C80.9286 24.7914 81.7417 28.0127 82.0654 31.3134C82.3778 34.4779 82.2423 37.669 81.7116 40.8033C81.4744 42.2022 81.1582 43.586 80.7818 44.9509C78.8319 45.2647 76.8556 45.45 74.8793 45.3933C72.5455 45.3252 70.1175 44.9282 68.032 43.8205C66.2402 42.8677 64.8399 41.3553 63.8612 39.5821C62.8749 37.79 62.3103 35.7861 61.9451 33.7785C61.6252 32.0053 61.4294 30.2018 61.3692 28.3983C61.3127 26.6818 61.3692 24.9615 61.5461 23.2526C61.7306 21.4453 62.0393 19.6532 62.506 17.8989V17.9026Z" fill="#ABADB0"/>
<path d="M78.2785 22.3678C75.7263 12.6434 68.16 9.50152 68.16 9.50152C65.7396 2.75268 55.8281 1.25545 54.537 1.0891C53.2533 0.892491 43.3155 -0.42703 39.1296 5.38038C39.1296 5.38038 30.9949 6.29156 25.8566 14.9271C20.7221 23.5625 12.5084 38.3533 23.726 46.1003C32.1092 51.8888 42.5702 52.4446 47.3283 52.3576C51.8756 53.7641 62.0807 56.1423 71.7324 52.9096C84.6477 48.5881 80.8345 32.0884 78.2823 22.364L78.2785 22.3678Z" fill="#A7BBC5"/>
<path d="M37.5072 45.9604C37.5072 45.9604 38.2526 43.0151 34.4694 42.482C30.6863 41.9489 28.3901 49.866 30.5734 50.1156C32.7567 50.3613 37.5072 45.9642 37.5072 45.9642V45.9604Z" fill="white"/>
<path d="M59.7168 49.1098C59.7168 49.1098 59.8147 46.07 63.5978 46.6107C67.3809 47.1514 67.3998 55.3974 65.2353 55.0269C63.067 54.6564 59.7168 49.1098 59.7168 49.1098Z" fill="white"/>
<path opacity="0.34" d="M64.0303 39.6275C63.8609 39.6048 63.6991 39.5405 63.5485 39.4346C49.4925 29.3549 33.9459 35.1396 33.7916 35.2001C33.2269 35.4156 32.5945 35.132 32.38 34.5649C32.1654 33.9978 32.4477 33.3626 33.0086 33.1471C33.178 33.079 37.2585 31.5289 43.225 31.2982C48.7359 31.0827 56.9572 32.009 64.8171 37.6463C65.3102 37.9979 65.4231 38.686 65.073 39.1813C64.8284 39.5292 64.4181 39.688 64.0303 39.6312V39.6275Z" fill="#707F86"/>
<path d="M45.2015 27.3396C44.761 30.474 41.8776 32.6593 38.757 32.2169C35.6401 31.7746 33.4719 28.8747 33.9123 25.7365C34.3527 22.5984 37.2362 20.4169 40.3568 20.8592C43.4736 21.3016 45.6419 24.2015 45.2015 27.3396Z" fill="white"/>
<path d="M43.7749 27.1355C43.4437 29.4758 41.2905 31.1092 38.9641 30.7802C36.6378 30.4513 35.0154 28.2849 35.3466 25.9407C35.6779 23.6004 37.8311 21.967 40.1574 22.296C42.4838 22.6249 44.1062 24.7913 43.7749 27.1355Z" fill="#62493E"/>
<path d="M43.052 27.0258C42.781 28.9692 40.9929 30.319 39.0618 30.0467C37.1307 29.7745 35.7907 27.9786 36.0617 26.0352C36.3327 24.0919 38.1208 22.7421 40.0519 23.0143C41.983 23.2866 43.323 25.0825 43.052 27.0258Z" fill="#312017"/>
<path d="M39.1407 24.7195C39.0918 25.0749 38.7605 25.3245 38.4067 25.2753C38.0528 25.2262 37.8044 24.8934 37.8533 24.538C37.9023 24.1826 38.2335 23.9331 38.5874 23.9823C38.9412 24.0314 39.1897 24.3641 39.1407 24.7195Z" fill="white"/>
<path d="M37.5112 26.0957C37.4811 26.3226 37.274 26.4776 37.0482 26.4473C36.8261 26.4171 36.668 26.2091 36.7018 25.9823C36.732 25.7554 36.939 25.6004 37.1649 25.6307C37.3869 25.6609 37.545 25.8689 37.5112 26.0957Z" fill="white"/>
<path d="M67.55 30.51C67.9928 27.3737 65.8253 24.4714 62.7089 24.0276C59.5925 23.5838 56.7073 25.7665 56.2645 28.9028C55.8218 32.0391 57.9892 34.9414 61.1056 35.3852C64.222 35.829 67.1073 33.6463 67.55 30.51Z" fill="white"/>
<path d="M66.1275 30.3076C65.7962 32.6479 63.643 34.2813 61.3167 33.9523C58.9903 33.6234 57.3679 31.457 57.6992 29.1128C58.0304 26.7725 60.1836 25.1392 62.51 25.4681C64.8363 25.797 66.4587 27.9635 66.1275 30.3076Z" fill="#62493E"/>
<path d="M65.4046 30.1942C65.1298 32.1375 63.3455 33.4873 61.4144 33.2151C59.4833 32.9428 58.1432 31.1469 58.4142 29.2036C58.6853 27.2602 60.4733 25.9104 62.4044 26.1827C64.3355 26.4549 65.6756 28.2508 65.4046 30.1942Z" fill="#312017"/>
<path d="M61.4933 27.8916C61.4443 28.247 61.1131 28.4966 60.7592 28.4474C60.4054 28.3983 60.1569 28.0656 60.2059 27.7102C60.2548 27.3548 60.5861 27.1052 60.9399 27.1544C61.2937 27.2035 61.5422 27.5362 61.4933 27.8916Z" fill="white"/>
<path d="M59.8633 29.264C59.8332 29.4909 59.6262 29.6459 59.4003 29.6157C59.1744 29.5854 59.0201 29.3775 59.054 29.1506C59.0841 28.9238 59.2911 28.7687 59.517 28.799C59.7391 28.8292 59.8972 29.0372 59.8633 29.264Z" fill="white"/>
<path d="M36.9164 19.7174C36.826 19.7061 36.7432 19.6683 36.6717 19.604C36.4797 19.4301 36.4609 19.1352 36.6341 18.9386C36.6566 18.9121 38.9792 16.3487 42.0998 18.5832C42.3106 18.7344 42.3596 19.0293 42.209 19.241C42.0584 19.4528 41.7648 19.5019 41.554 19.3507C39.126 17.6115 37.402 19.483 37.3305 19.5624C37.2213 19.6834 37.0632 19.7363 36.9164 19.7136V19.7174Z" fill="#C57A63"/>
<path d="M36.9164 19.7174C36.826 19.7061 36.7432 19.6683 36.6717 19.604C36.4797 19.4301 36.4609 19.1352 36.6341 18.9386C36.6566 18.9121 38.9792 16.3487 42.0998 18.5832C42.3106 18.7344 42.3596 19.0293 42.209 19.241C42.0584 19.4528 41.7648 19.5019 41.554 19.3507C39.126 17.6115 37.402 19.483 37.3305 19.5624C37.2213 19.6834 37.0632 19.7363 36.9164 19.7136V19.7174Z" fill="#6F5444"/>
<path d="M66.3305 23.8915C66.1799 23.8688 66.0444 23.7781 65.9729 23.6306C65.924 23.5323 64.7834 21.2562 61.9752 22.2506C61.7305 22.3376 61.4633 22.209 61.3767 21.9633C61.2901 21.7175 61.4181 21.4491 61.6628 21.3621C65.2803 20.0804 66.8011 23.192 66.8199 23.2223C66.9328 23.4567 66.8312 23.7403 66.5978 23.8499C66.5112 23.8915 66.4171 23.9028 66.3305 23.8915Z" fill="#6F5444"/>
<path d="M61.5836 43.7599C61.2184 41.3099 60.2887 38.9733 58.5684 36.9241C55.1692 32.871 49.5528 31.1734 44.4333 32.1905C39.9086 33.0903 36.0389 36.2889 34.6537 40.7692C33.5771 44.2514 33.8632 48.0247 34.6537 51.5825C35.6776 56.1876 39.7054 61.9648 36.1142 66.3733C32.9823 70.2184 25.0396 72.6041 20.8499 69.2429C18.6139 67.447 18.1961 64.5433 18.8285 61.8627C19.0393 60.9704 19.5136 60.5961 20.1008 59.9571C20.3568 59.6811 20.5563 59.2993 20.4622 58.9363C20.4133 58.7435 20.2853 58.5771 20.1422 58.4334C19.1898 57.4807 17.6653 57.5185 16.4419 57.7869C15.5385 57.9873 14.5748 58.3805 13.9273 59.0762C13.1745 58.6792 12.3049 58.4183 11.4617 58.6414C10.6674 58.8493 9.82047 59.5034 9.82423 60.3957C9.82423 61.5753 11.1267 62.668 11.4467 63.8363C11.9624 65.7305 11.9548 67.6625 12.8169 69.4622C15.3051 74.6496 21.4296 76.2602 26.6921 76.5211C33.7578 76.8727 41.0266 75.4435 47.17 71.8253C54.0549 67.7722 58.5307 61.0876 60.699 53.4238C61.5911 50.2668 62.0541 46.9169 61.5798 43.7523L61.5836 43.7599Z" fill="#A7BBC5"/>
<path opacity="0.34" d="M37.8306 43.7259C38.4705 43.3629 39.1443 43.0756 39.8294 42.8147C41.3615 42.2287 42.9726 41.809 44.6101 41.6767C45.8862 41.5746 47.1887 41.5784 48.4685 41.6199C49.4623 41.654 50.4598 41.7296 51.4423 41.8997C50.1098 41.4082 48.7019 41.1171 47.2865 40.9923C45.9013 40.8676 44.4896 40.8978 43.1194 41.1587C41.5986 41.4498 40.1757 42.0888 38.8921 42.9508C38.527 43.1966 38.1769 43.4574 37.8343 43.7259H37.8306Z" fill="#83949C"/>
<path opacity="0.34" d="M33.4039 68.6758C33.3889 68.9102 33.4227 69.1484 33.4905 69.379C33.754 70.2827 34.4015 71.0691 35.1129 71.6778C35.4065 71.8139 35.6964 71.9463 35.9862 72.0786C35.6475 71.2657 35.192 70.4982 34.6461 69.8138C34.3074 69.3866 33.9159 68.9745 33.4792 68.638C33.4566 68.6531 33.4303 68.6645 33.4039 68.6796V68.6758Z" fill="#83949C"/>
<path opacity="0.34" d="M36.9422 68.0482C38.4216 68.8837 39.9537 69.7836 41.6062 70.2335C41.2863 69.7004 40.8948 69.2127 40.4092 68.8195C39.8822 68.3922 39.2611 68.0973 38.6174 67.8894C37.8683 67.6512 36.9949 67.5151 36.1743 67.6134C36.4303 67.757 36.69 67.9007 36.946 68.0444L36.9422 68.0482Z" fill="#83949C"/>
<path opacity="0.34" d="M40.3528 63.3637C42.0768 63.0423 43.8837 63.1368 45.5814 63.5489C46.4472 63.7607 47.3017 64.0593 48.1073 64.4563C47.7572 63.8136 47.1398 63.3485 46.4961 63.0234C46.0557 62.7965 45.5927 62.6188 45.1146 62.4714C44.3128 62.3164 43.4772 62.305 42.7055 62.3958C41.6552 62.5205 40.5146 62.8684 39.6338 63.5262C39.8709 63.462 40.1081 63.409 40.349 63.3637H40.3528Z" fill="#83949C"/>
<path opacity="0.34" d="M40.9251 57.6168C40.5072 57.7945 40.1195 58.0024 39.728 58.2293C40.5223 58.0742 41.3166 57.9192 42.1146 57.7945C43.2966 57.613 44.4861 57.5071 45.6832 57.5374C46.8238 57.5676 47.9681 57.7037 49.0974 57.8814C50.0046 58.0251 50.9269 58.2141 51.8228 58.4864C51.484 58.2444 51.1301 58.0251 50.7575 57.8361C48.8226 56.8492 46.5979 56.4901 44.4485 56.7131C43.2364 56.8379 42.0468 57.1404 40.9213 57.6168H40.9251Z" fill="#83949C"/>
<path opacity="0.34" d="M37.2358 52.0589C37.6349 51.8737 38.0188 51.6581 38.4065 51.4615C39.1745 51.0721 39.9876 50.7848 40.8082 50.5239C42.2612 50.0588 43.7594 49.711 45.2764 49.5409C46.545 49.401 47.8286 49.3291 49.1047 49.3178C50.3432 49.3064 51.6419 49.3556 52.8954 49.5749C52.4738 49.3594 52.0371 49.1741 51.5929 49.0191C51.2617 48.9019 50.9229 48.7998 50.5803 48.7091C50.1663 48.641 49.7484 48.5881 49.3343 48.5465C47.4334 48.3688 45.5023 48.4406 43.6051 48.6448C43.3867 48.6675 43.1684 48.6902 42.9463 48.7166C40.7894 49.246 38.6211 50.2819 37.2358 52.0589Z" fill="#83949C"/>
<path opacity="0.34" d="M61.5838 43.7599C61.2187 41.3099 60.2889 38.9733 58.5686 36.9241C55.1694 32.871 49.553 31.1734 44.4336 32.1905C39.9089 33.0903 36.0391 36.2889 34.6539 40.7692C34.2812 41.9716 34.0779 43.2117 33.9951 44.4594C34.5221 42.7164 35.339 41.0604 36.457 39.6274C37.767 37.9487 39.5023 36.5914 41.5162 35.8806C43.8953 35.0375 46.4512 34.7879 48.9131 35.3929C51.2997 35.9789 53.4416 37.3098 55.0866 39.1397C56.7429 40.9848 57.8684 43.3024 58.5535 45.6768C59.2236 47.9983 59.4795 50.4218 59.408 52.834C59.3403 55.0496 58.9939 57.2538 58.4293 59.3976C59.3553 57.4996 60.1157 55.5033 60.7029 53.4314C61.5951 50.2743 62.0581 46.9245 61.5838 43.7599Z" fill="#83949C"/>
</svg>
