<svg width="83" height="117" viewBox="0 0 83 117" fill="none" xmlns="http://www.w3.org/2000/svg">
<path d="M80 113.5C80 115.431 63.2107 117 42.5 117C21.7893 117 5 115.435 5 113.5C5 111.565 21.7893 110 42.5 110C63.2107 110 80 111.565 80 113.5Z" fill="#A2BC5C"/>
<path d="M58.4776 110.108C58.5989 110.759 58.7347 111.441 59.1624 111.947C59.59 112.452 60.4106 112.689 60.922 112.27C61.3699 111.902 61.3944 111.237 61.3814 110.659C61.0867 97.4914 60.7934 84.3242 60.4987 71.1569C60.4669 69.7093 60.4236 68.2125 59.8067 66.9023C59.1898 65.5921 57.8361 64.5132 56.4001 64.6911C55.1807 64.8415 54.2287 65.8292 53.5916 66.8806C50.0231 72.7607 52.9111 80.2619 54.0654 86.4457C55.5361 94.333 57.0069 102.22 58.4776 110.108Z" fill="#FFBD54"/>
<path d="M54.331 82.4355C54.6619 83.1658 55.0303 83.938 55.7151 84.3545C56.2178 84.6611 56.8246 84.7305 57.4097 84.7942C57.8503 84.8419 58.291 84.8896 58.7316 84.9373C58.8544 84.9503 58.9859 84.9619 59.0913 84.8997C59.1925 84.8404 59.2474 84.7291 59.2965 84.6235C59.8007 83.549 60.3092 82.4557 60.5028 81.2843C60.5534 80.9821 60.578 80.6553 60.4364 80.3819C60.3078 80.1346 60.0622 79.9741 59.8238 79.8309C58.9035 79.2814 57.9182 78.8447 56.8939 78.5323C56.5674 78.4325 56.2308 78.3443 55.8913 78.3674C55.3438 78.4036 54.8468 78.7246 54.4827 79.1353C53.4064 80.3516 53.7098 81.066 54.331 82.4355Z" fill="#B16C35"/>
<path d="M22.7934 76.2315C24.2236 80.2576 27.402 83.8296 27.2922 88.1015C27.2792 88.5961 27.2214 89.0951 27.3009 89.5824C27.4208 90.3171 27.8412 90.962 28.237 91.594C31.3807 96.6194 33.4929 102.288 34.4045 108.147C34.588 109.322 34.7296 110.529 35.2439 111.6C35.7582 112.672 36.7377 113.607 37.9224 113.703C40.1125 106.625 36.9588 99.1632 35.1702 91.9744C34.9708 91.1717 34.7859 90.3474 34.8524 89.5231C34.9318 88.5383 35.3623 87.62 35.7784 86.7234C38.3962 81.0718 40.7309 74.9834 40.127 68.7823C39.4942 62.2905 33.6778 57.5558 27.1419 60.2673C21.7734 62.4944 21.1551 71.6197 22.7934 76.2315Z" fill="#FFBD54"/>
<path d="M27.7324 87.5939C27.7873 87.7443 27.8509 87.9034 27.9824 87.9945C28.0922 88.0697 28.2323 88.0842 28.3667 88.0943C29.2248 88.1652 30.083 88.236 30.9426 88.3083C31.0249 88.3156 31.116 88.3199 31.1839 88.2722C31.2344 88.2375 31.2619 88.1796 31.2893 88.1247C31.9886 86.6626 32.5809 85.1485 33.0605 83.5996C31.5176 82.7276 29.8359 82.1029 28.0994 81.7529C27.9506 81.7225 27.7902 81.6965 27.6515 81.7587C27.5331 81.8136 27.4522 81.925 27.3785 82.032C27.0968 82.4398 26.711 82.904 26.5348 83.3682C26.3296 83.9077 26.464 84.1087 26.6691 84.6727C27.0231 85.6474 27.3785 86.6207 27.7368 87.5939H27.7324Z" fill="#B16C35"/>
<path d="M74.3608 24.2999C74.5125 25.8487 75.0196 27.3426 75.219 28.8857C75.4183 30.4244 75.3071 31.9862 75.1583 33.5307C74.8043 37.2098 74.2366 40.8685 73.4593 44.481C72.7413 47.8231 71.8095 51.2013 69.8735 54.017C69.3188 52.1384 69.4936 50.1355 69.534 48.176C69.6511 42.5027 68.5935 36.8627 68.543 31.188C68.5126 27.7634 68.8492 24.3375 68.6427 20.9188C68.5097 18.7119 68.1558 16.4444 68.8016 14.3301C68.9085 13.9816 69.0457 13.6345 69.2827 13.3583C69.5297 13.0719 69.8707 12.881 70.2304 12.7653C71.1203 12.479 72.1475 12.6598 72.8872 13.2324C73.5503 13.7458 74.017 14.6179 74.0069 15.4682C73.9953 16.3721 74.2813 17.1761 74.3724 18.1017C74.5775 20.1653 74.1571 22.2348 74.3594 24.2999H74.3608Z" fill="#804420"/>
<path d="M58.106 10.4081C56.6266 9.83543 55.3524 8.85059 53.9987 8.02339C52.645 7.19619 51.1151 6.50492 49.5345 6.6264C48.0479 6.74065 46.6495 7.56785 45.1614 7.4724C44.8869 7.45505 44.6052 7.40588 44.3423 7.48397C44.0779 7.56207 43.841 7.82093 43.9031 8.08991C43.9666 8.36179 44.2729 8.48038 44.52 8.60909C45.1426 8.93303 45.5616 9.53318 46.0022 10.0798C47.1464 11.4985 48.5883 12.6757 50.2078 13.513C51.5745 14.2187 53.1088 14.6873 54.6402 14.5528C56.2915 14.4067 57.8084 13.5737 59.1476 12.5961C59.5348 12.3141 59.9321 11.9902 60.0795 11.5332C60.5346 10.129 58.8197 10.6872 58.1089 10.411L58.106 10.4081Z" fill="#FFC052"/>
<path d="M49.5678 12.1955C49.0795 11.7993 48.6605 11.3264 48.243 10.855C47.6015 10.1304 46.9615 9.40591 46.3201 8.68138C46.2565 8.60907 46.1886 8.51218 46.2319 8.42686C46.2623 8.36757 46.3345 8.34298 46.3995 8.33141C46.8734 8.24609 47.3429 8.49049 47.824 8.51941C48.3687 8.55267 48.8902 8.31117 49.432 8.25043C49.9896 8.18824 50.5502 8.31984 51.0818 8.50061C51.8461 8.75947 52.5901 9.12969 53.1449 9.71539C53.6996 10.3011 54.0392 11.1283 53.8976 11.9237C53.7574 12.7118 52.9556 13.5896 52.096 13.4696C51.2422 13.351 50.2208 12.7292 49.5663 12.1984L49.5678 12.1955Z" fill="#9B6344"/>
<path d="M56.8203 4.07971C58.2087 2.30094 60.773 1.55183 62.8996 2.30238C62.9025 2.11728 62.9054 1.93361 62.9097 1.7485C64.876 1.75429 66.8235 2.65525 68.1006 4.15202C68.5152 4.01897 68.9515 4.26771 69.2881 4.54538C69.8978 5.04864 70.402 5.68061 70.7545 6.38778C70.9784 6.83465 71.1431 7.31477 71.4306 7.72403C71.7398 8.16511 72.1747 8.50207 72.5301 8.90844C73.2466 9.72696 73.6121 10.7942 73.878 11.8499C74.3764 13.8369 74.5801 15.8977 74.4775 17.944C72.2628 18.1335 70.0466 18.3229 67.8319 18.5124C67.7813 18.5167 67.7307 18.5211 67.6831 18.5023C67.5545 18.4531 67.5357 18.2824 67.5386 18.1451C67.5646 16.4907 67.4981 14.8174 67.0517 13.2238C66.6068 11.6301 65.7529 10.1102 64.4354 9.1109C63.6856 8.54111 62.7985 8.15644 61.8739 7.98868C61.036 7.83683 60.669 7.91203 60.3064 7.09785C59.9568 6.31258 59.6245 5.63433 58.9527 5.06021C58.7432 4.88089 57.076 3.74999 56.8188 4.07971H56.8203Z" fill="#804420"/>
<path d="M54.3587 51.2418C53.1494 52.6157 56.062 58.4119 56.7988 60.0562C57.4764 61.5645 58.9543 62.3628 60.3571 62.9586C61.5779 63.4763 62.9128 63.9275 64.1654 63.5197C65.6664 63.0309 69.1135 61.9651 69.375 60.263C70.4108 53.508 70.5755 46.3018 70.8399 39.2546C70.9685 35.8186 71.0956 32.3825 71.1115 28.9435C71.1375 23.2746 70.8356 17.4639 68.865 12.2476C68.5645 11.4522 68.1961 10.6337 67.5489 10.1709C66.8699 9.68646 65.9915 9.68357 65.2214 9.93954C63.612 10.4746 62.3913 12.0292 61.7108 13.7588C59.366 19.7141 60.3311 26.4532 59.9815 32.7802C59.5726 40.1614 58.4833 46.5577 54.3572 51.2433L54.3587 51.2418Z" fill="#F8C64C"/>
<path d="M59.8413 34.3608C60.1317 33.4816 60.6041 32.6746 61.0649 31.872C63.2999 27.9775 65.3413 23.9731 67.1818 19.8761C67.5979 18.9506 68.0068 18.0062 68.1513 17.0026C68.1094 17.2947 66.5953 18.0829 66.3295 18.2622C65.7039 18.6845 65.0726 19.0981 64.4369 19.5044C63.1497 20.3273 61.8408 21.1082 60.5203 21.8747C59.4266 22.5096 59.3775 23.049 59.4772 24.2623C59.6058 25.8386 59.7026 27.4178 59.7647 28.9985C59.8341 30.7845 59.8601 32.5734 59.8427 34.3608H59.8413Z" fill="#FFC052"/>
<path d="M52.3113 2.79261C52.2549 2.70873 52.1943 2.61618 52.2087 2.51639C52.2246 2.41227 52.3185 2.33852 52.4066 2.28067C52.8097 2.01747 53.2576 1.82513 53.7256 1.71378C54.6994 3.67477 56.1181 5.41305 57.8431 6.75942C58.1248 6.97924 58.4325 7.21352 58.5308 7.5577C58.6622 8.02047 58.3632 8.49337 58.0309 8.84189C56.9791 9.9482 54.4639 11.2497 54.3006 8.90841C54.1475 6.70881 53.5595 4.63212 52.3084 2.79261H52.3113Z" fill="#FFC052"/>
<path d="M55.4578 7.45069C54.0001 8.15208 53.0524 9.63294 52.2968 11.0632C51.8417 11.9237 51.4777 12.8434 50.8824 13.6142C49.9506 14.8218 48.5449 15.5521 47.1796 16.2289C45.813 16.9057 44.3971 17.5969 43.4075 18.7568C42.4179 19.9166 42.2127 21.5681 42.7747 22.9868C44.6297 27.6651 49.2282 27.8676 50.3753 27.7851C56.0632 27.3773 60.3958 25.1228 64.8716 22.4257C71.0462 18.7047 70.0754 12.2722 69.8587 11.5057C68.6061 7.07758 60.4262 5.06019 55.4578 7.45069Z" fill="#F8C64C"/>
<path d="M50.3744 27.7852C52.826 27.6087 55.0263 27.0896 57.0937 26.3404C57.2324 25.6448 57.2223 24.916 57.1414 24.2074C56.916 22.2391 56.133 20.2883 54.6984 18.9245C54.0295 18.2882 53.2363 17.7936 52.3998 17.4061C51.3452 16.9173 50.2053 16.615 49.0481 16.5066C48.1596 16.4227 47.2711 16.4617 46.4086 16.6136C45.2962 17.1805 44.2112 17.8139 43.4065 18.7568C42.4169 19.9166 42.2118 21.5681 42.7738 22.9868C44.6288 27.6651 49.2273 27.8676 50.3744 27.7852Z" fill="#804420"/>
<path d="M51.8479 3.71383C51.4289 3.83675 50.9377 3.9481 50.5852 3.68924C50.2182 3.42025 50.1908 2.87361 50.328 2.43976C50.5202 1.82948 50.9608 1.31754 51.4838 0.947323C52.0068 0.577107 52.6078 0.335598 53.216 0.136028C53.4327 0.0651663 53.6552 -0.00280319 53.8835 8.91267e-05C54.3891 0.00587376 54.8558 0.38766 55.006 0.870677C55.1563 1.35369 55.006 1.90757 54.6665 2.28213C53.9889 3.02835 52.7725 3.44339 51.8493 3.71238L51.8479 3.71383Z" fill="#804420"/>
<path d="M71.7761 2.9329C72.0462 3.18887 72.3164 3.44484 72.5865 3.70081C71.217 5.5707 70.1175 7.6387 69.3331 9.82096C69.047 10.6192 68.7899 11.4537 68.2466 12.103C67.7034 12.7523 66.7774 13.1732 65.9943 12.8507C64.944 12.4183 64.6248 10.9475 64.7707 9.93087C64.8978 9.04003 65.5913 8.74212 66.2833 8.28514C68.4345 6.86356 70.1248 4.88377 71.7775 2.93146L71.7761 2.9329Z" fill="#F8C64C"/>
<path d="M69.872 3.34505C69.9442 3.74419 70.1392 4.10863 70.3588 4.44847C70.6449 4.891 70.9844 5.30749 71.4149 5.60974C71.8454 5.91343 72.3756 6.09565 72.8986 6.03925C73.0951 6.01756 73.2901 5.9626 73.4563 5.85559C73.7163 5.68783 73.8839 5.40728 73.9908 5.1166C74.3072 4.25613 74.1295 3.2337 73.5415 2.53087C72.5591 1.35803 69.466 1.09483 69.872 3.34361V3.34505Z" fill="#804420"/>
<path d="M61.3523 10.5166C61.6874 10.2172 62.1411 10.0914 62.5817 9.99594C63.1582 9.87157 63.8039 9.79348 64.3009 10.1131C64.8022 10.4356 65.0016 11.082 64.9973 11.6778C64.9857 13.098 63.9181 14.4429 62.5398 14.7769C59.9336 15.4075 59.9769 11.7472 61.3537 10.518L61.3523 10.5166Z" fill="#FFC052"/>
<path d="M52.2262 11.2874C52.1308 11.5896 52.0427 11.902 52.0643 12.2173C52.0846 12.5325 52.2334 12.8579 52.5093 13.0112C52.9037 13.231 53.3935 13.0473 53.7966 12.8449C54.2487 12.6178 54.6952 12.3662 55.0607 12.0177C55.4276 11.6692 55.7108 11.2136 55.77 10.7104C55.8307 10.1883 55.6299 9.64164 55.2413 9.29023C53.7561 7.94819 52.609 10.0842 52.2262 11.2874Z" fill="#FFC052"/>
<path d="M60.6676 12.6569C60.4452 13.0589 60.422 13.5651 60.6041 13.9859C60.6835 14.1681 60.7991 14.3344 60.9335 14.4819C61.2036 14.7755 61.5793 15.0011 61.978 14.9809C62.4259 14.9577 62.8145 14.6208 62.998 14.2115C63.1829 13.8022 63.1915 13.3351 63.1366 12.8912C63.1193 12.7494 63.0948 12.6077 63.0341 12.479C62.9243 12.2433 62.6975 12.0726 62.449 11.996C61.7598 11.7834 61.0259 12.0076 60.6676 12.6569Z" fill="#6E562B"/>
<path d="M60.8857 12.8058C60.7065 13.0719 60.7224 13.4899 60.994 13.6591C61.0446 13.6909 61.1024 13.7126 61.1616 13.7126C61.3162 13.7126 61.4347 13.5766 61.5054 13.4393C61.5762 13.3019 61.6282 13.1471 61.7467 13.0502C61.8637 12.9533 62.0342 12.9244 62.1238 12.8015C62.3419 12.4964 61.9287 12.2809 61.673 12.3069C61.3899 12.3358 61.0431 12.5744 60.8857 12.8058Z" fill="white"/>
<path d="M52.2812 10.8824C52.0746 11.1934 51.9821 11.6243 52.037 12.0162C52.0616 12.1854 52.1107 12.3474 52.1772 12.4949C52.3087 12.7899 52.5196 13.043 52.7825 13.0878C53.0787 13.1384 53.3835 12.9085 53.5655 12.586C53.7476 12.2635 53.8256 11.8629 53.8574 11.4725C53.8675 11.3481 53.8733 11.2223 53.853 11.1023C53.8169 10.8824 53.6956 10.7002 53.5439 10.5961C53.1264 10.3054 52.612 10.3821 52.2798 10.8839L52.2812 10.8824Z" fill="#6E562B"/>
<path d="M52.4013 11.0459C52.2438 11.2454 52.1904 11.6084 52.3421 11.7964C52.3695 11.8311 52.4042 11.8601 52.4432 11.8687C52.5429 11.8933 52.6411 11.795 52.709 11.688C52.7755 11.5809 52.8333 11.4566 52.9257 11.3915C53.0167 11.3279 53.1323 11.3293 53.2089 11.2368C53.3981 11.0083 53.1612 10.7581 52.9907 10.7407C52.8015 10.7205 52.5385 10.8709 52.4013 11.0459Z" fill="white"/>
<path d="M45.6729 55.3778C40.1094 56.7271 34.3262 56.3916 28.6181 56.4769C25.6825 56.5203 22.5099 56.7705 20.2692 58.7821C18.2105 60.6288 17.3812 63.5949 17.0677 66.4337C16.6646 70.0896 17.0316 74.0564 19.1596 76.9647C21.9479 80.7782 26.9249 81.7919 31.4613 82.1781C36.2563 82.5859 41.0817 82.6003 45.8781 82.22C51.8635 81.7442 58.1581 80.4817 62.6223 76.23C65.7558 73.2466 67.6773 69.0354 68.6554 64.6925C69.6349 60.3497 69.7389 55.8421 69.7172 51.3778C69.7028 48.3061 69.1827 44.5273 66.4609 43.4716C62.6613 41.998 58.5121 47.0075 56.2988 49.4254C53.4729 52.5144 49.5881 54.4277 45.6715 55.3778H45.6729Z" fill="#F8C64C"/>
<path d="M11.6806 66.4684C10.0293 69.8568 9.47595 73.6573 8.92118 77.3869C8.36641 81.1151 7.76541 84.9171 6.0332 88.2635C6.2658 88.7465 7.00838 88.7538 7.41868 88.4081C7.82898 88.0625 7.98789 87.5115 8.12803 86.9938C9.50773 81.8628 10.8874 76.7333 12.2686 71.6023C12.6225 70.2849 12.9967 68.9284 13.8303 67.8481C14.9312 66.4236 16.7515 65.6557 18.5502 65.6167C19.404 65.5979 20.2809 65.7266 21.0972 65.4749C22.4465 65.0584 23.3394 63.5154 23.0288 62.1358C21.4338 55.0756 12.962 63.8379 11.6806 66.4684Z" fill="#F8C64C"/>
<path d="M3.12635 87.6691C2.64526 89.0849 2.82152 90.6265 2.79262 92.1219C2.76373 93.6172 2.44156 95.2528 1.27712 96.1899C1.72932 96.0366 2.13384 95.7459 2.42422 95.367C2.54413 96.0945 2.23352 96.8407 1.75243 97.3989C1.27279 97.9571 0.637117 98.3562 0 98.7265C2.59759 98.5081 5.10705 97.3497 6.95772 95.5131C9.19846 93.2889 11.406 88.8521 9.70122 85.766C7.99936 82.6871 3.99318 85.1196 3.12635 87.6691Z" fill="#804420"/>
<path d="M69.1566 12.1204C70.7357 12.265 72.3162 11.9512 73.8953 11.8123C75.4743 11.6735 77.1531 11.7357 78.5154 12.5484C79.7969 13.3134 80.6811 14.6757 82.0564 15.2527C82.3107 15.3598 82.5837 15.4407 82.786 15.6287C82.9883 15.8153 83.0851 16.1537 82.9102 16.3663C82.734 16.5818 82.406 16.5514 82.1272 16.5557C81.4265 16.5687 80.7836 16.9202 80.1465 17.2123C78.4909 17.9744 76.6763 18.3866 74.8545 18.4155C73.3174 18.4401 71.7354 18.1769 70.4222 17.3728C69.0078 16.5066 68.0196 15.0864 67.2539 13.6128C67.0329 13.1876 66.8205 12.7205 66.8913 12.2462C67.108 10.7856 68.3952 12.0495 69.1552 12.1189L69.1566 12.1204Z" fill="#F8C64C"/>
<path d="M75.7721 13.0661C77.2443 13.458 78.4506 14.761 79.9271 15.1327C80.0441 15.1616 80.1669 15.1876 80.2637 15.2686C80.362 15.3496 80.4256 15.5072 80.3735 15.6331C80.3331 15.7328 80.2377 15.7806 80.1511 15.8225C79.7292 16.0192 79.3073 16.2159 78.8855 16.4125C78.4145 16.6324 77.9392 16.8536 77.4408 16.9592C76.5422 17.1501 75.6118 16.9534 74.7421 16.6266C73.8723 16.2997 73.0416 15.8428 72.1777 15.4913C71.6692 15.2845 71.1491 15.1139 70.6232 14.9823C70.1031 14.8521 69.5397 14.7364 69.1684 14.2896C68.5804 13.5795 69.7188 13.6605 69.9846 13.6605C70.6333 13.6605 71.2762 13.5347 71.9119 13.3944C73.1774 13.1153 74.4863 12.7263 75.7721 13.069V13.0661Z" fill="#9B6344"/>
<path d="M47.4428 25.8733C48.0828 25.9341 48.7343 25.9471 49.3584 25.7923C50.6211 25.4785 51.6252 24.5154 52.3923 23.464C52.1424 24.1293 51.8072 24.7612 51.3955 25.3397C51.1138 25.7374 50.7916 26.1134 50.3914 26.3925C49.7138 26.8668 48.8485 27.0274 48.0264 26.9406C47.2044 26.8538 46.4199 26.5357 45.7033 26.125C45.0012 25.7229 44.2283 25.156 43.9307 24.3708C45.0084 25.2066 46.0616 25.7388 47.4428 25.8704V25.8733Z" fill="#2D2D2D"/>
<path d="M43.9149 20.9983C43.8615 21.2904 43.8629 21.6317 44.0811 21.8328C44.136 21.8834 44.2111 21.9224 44.2833 21.9065C44.3657 21.8877 44.4177 21.8038 44.4292 21.7214C44.4393 21.639 44.4177 21.5551 44.4003 21.4727C44.2718 20.9014 44.3209 20.2926 44.5361 19.7488C44.1735 20.0496 44.003 20.5225 43.9164 20.9969L43.9149 20.9983Z" fill="#2D2D2D"/>
<path d="M46.2494 21.2181C46.1959 21.5103 46.1974 21.8516 46.4155 22.0526C46.4704 22.1032 46.5455 22.1422 46.6178 22.1263C46.7001 22.1075 46.7521 22.0237 46.7637 21.9412C46.7738 21.8588 46.7521 21.7749 46.7334 21.6925C46.6048 21.1212 46.6539 20.5124 46.8692 19.9687C46.5065 20.2695 46.3361 20.7424 46.2494 21.2167V21.2181Z" fill="#2D2D2D"/>
<path d="M34.2195 112.504C34.1964 112.819 34.1747 113.148 34.2903 113.443C34.546 114.093 35.3435 114.323 36.0399 114.371C36.9616 114.435 37.8949 114.328 38.779 114.059C38.9481 114.007 39.1243 113.943 39.2384 113.807C39.3757 113.642 39.4234 113.409 39.393 113.198C39.1503 111.577 39.0362 110.103 38.6678 108.479C38.6129 108.786 37.8934 109.369 36.612 109.47C35.0647 109.594 34.5316 108.988 34.5316 108.988C34.5316 108.988 34.2889 111.561 34.2195 112.504Z" fill="#804420"/>
<path d="M57.374 110.691C57.3277 110.978 57.2815 111.278 57.3566 111.557C57.5228 112.173 58.1917 112.446 58.7869 112.545C59.5757 112.675 60.3891 112.65 61.1735 112.474C61.3238 112.439 61.4813 112.396 61.5896 112.28C61.7211 112.14 61.7832 111.93 61.7731 111.733C61.6994 110.228 61.4914 108.915 61.3093 107.396C61.2357 107.674 60.8008 108.103 59.6884 108.096C58.3448 108.089 57.9851 107.468 57.9851 107.468C57.9851 107.468 57.5127 109.832 57.374 110.691Z" fill="#804420"/>
<path d="M33.8768 80.1592C42.2128 82.5411 48.2026 80.6148 50.8854 78.1838C52.5743 76.6523 53.064 72.6436 53.6188 70.4309C54.4033 73.4867 57.7521 76.1678 60.5866 77.5475C58.616 79.831 55.8046 81.254 52.9022 82.0754C50.0012 82.8968 46.9775 83.1658 43.9811 83.4955C38.6328 84.0827 33.0924 84.8506 27.9709 83.1991C26.6807 82.7826 25.3285 82.1116 24.7954 80.8635C24.1005 79.238 25.0627 77.4347 25.8211 75.8396C26.8209 73.7368 27.5042 71.4837 27.838 69.1786C28.1067 67.3246 29.9227 68.1026 29.1238 69.3622C30.5526 69.6066 32.1287 69.2624 33.1169 70.8402C34.3117 72.7506 35.4299 78.1823 33.8768 80.1592Z" fill="#FFC052"/>
<path d="M62.2786 84.865C63.3463 87.6662 62.9316 90.842 61.9218 93.6649C60.5941 97.3815 57.9532 100.906 54.4859 102.447C55.1779 103.418 56.0851 104.449 56.7772 105.421C62.4476 100.855 66.6127 94.6425 69.0731 87.7877C70.3473 84.236 70.9151 80.34 69.8619 76.7174C68.1499 70.8286 61.9304 64.4265 57.212 65.0107C53.4659 65.4749 52.3101 73.7079 54.9482 77.0529C57.2467 79.9683 60.8209 81.0414 62.2786 84.865Z" fill="#F8C64C"/>
<path d="M53.6306 102.862C53.3807 103.01 53.1206 103.166 52.9545 103.403C52.5875 103.925 52.8057 104.615 53.1105 105.136C53.515 105.826 54.0539 106.436 54.6925 106.926C54.8153 107.02 54.9496 107.113 55.1085 107.123C55.3007 107.134 55.5015 107.048 55.646 106.915C56.7541 105.894 57.6296 104.894 58.6784 103.782C58.4184 103.902 57.8101 103.843 57.1037 102.984C56.2499 101.946 56.4955 101.272 56.4955 101.272C56.4955 101.272 54.379 102.421 53.6306 102.864V102.862Z" fill="#804420"/>
<path d="M16.0061 74.2517C16.8759 78.4354 19.5385 82.4065 18.8479 86.6235C18.7684 87.1109 18.6427 87.5968 18.6557 88.0914C18.6745 88.8362 19.0039 89.5332 19.3087 90.2115C21.7402 95.6187 23.0607 101.523 23.1661 107.451C23.1878 108.64 23.1632 109.855 23.5273 110.987C23.8914 112.119 24.7351 113.179 25.8952 113.435C29.0273 106.722 26.9195 98.9 26.1249 91.5347C26.0368 90.7118 25.966 89.8716 26.1437 89.0632C26.356 88.0972 26.9079 87.2468 27.4425 86.4153C30.8057 81.173 33.9465 75.4592 34.1921 69.2349C34.4493 62.7185 29.3307 57.2333 22.4857 59.0294C16.8643 60.5045 15.0107 69.4591 16.0061 74.2517Z" fill="#F8C64C"/>
<path d="M22.6255 112.44C22.5792 112.753 22.5345 113.08 22.6284 113.382C22.8364 114.049 23.6165 114.335 24.3071 114.432C25.2216 114.56 26.1607 114.521 27.0622 114.316C27.2341 114.277 27.4161 114.226 27.5375 114.098C27.6863 113.943 27.7513 113.714 27.734 113.5C27.6068 111.866 27.6733 110.359 27.2832 108.784C27.2066 109.087 26.5117 109.574 25.2259 109.584C23.6743 109.597 23.2005 108.961 23.2005 108.961C23.2005 108.961 22.7613 111.505 22.624 112.44H22.6255Z" fill="#804420"/>
<path d="M59.4426 6.32414C59.5293 6.76811 59.512 7.22654 59.5871 7.6734C59.6261 7.90334 59.7056 8.15208 59.9035 8.27501C60.035 8.35744 60.1997 8.36901 60.3542 8.35888C60.8715 8.32417 61.1835 7.90913 61.6501 7.68208C62.7886 7.1282 63.8057 7.00962 65.4338 7.35091C65.4772 7.35959 65.5639 7.15857 65.6 7.13399C65.6361 7.1094 65.6462 7.06023 65.652 7.01685C65.6794 6.78112 65.652 6.53961 65.5696 6.31691C65.4714 6.05226 65.3024 5.82232 65.1305 5.59961C64.8473 5.23229 64.5482 4.87509 64.2029 4.56561C63.4416 3.88302 62.4693 3.45062 61.4594 3.29733C60.4496 3.14403 59.4065 3.26262 58.4386 3.59379C58.2898 3.6444 57.5876 3.89748 57.6411 4.14188C57.6599 4.22865 57.891 4.27638 57.9632 4.31253C58.1164 4.39062 58.2594 4.4933 58.3938 4.60032C58.9269 5.03127 59.3126 5.64878 59.4426 6.32414Z" fill="#804420"/>
<path d="M68.5052 16.158C68.9559 16.7466 69.5223 17.2962 70.2634 17.2716C70.496 18.5138 70.7589 19.8978 70.8153 21.1502C70.7315 20.8826 70.5133 20.5124 70.379 20.2666C69.8473 19.2788 68.8765 18.6208 68.1209 17.7922C67.5127 17.1255 67.0388 16.3359 66.7354 15.4856C66.5852 15.0633 66.4754 14.6222 66.4681 14.1739C66.4595 13.633 66.6025 13.0517 66.903 12.599C67.0316 13.1413 67.0648 13.6244 67.3003 14.1435C67.6181 14.8435 68.0068 15.5665 68.5052 16.158Z" fill="#FFC052"/>
<path d="M60.6646 26.8336C60.4479 27.3918 60.5042 28.0151 60.5823 28.6095C60.7224 29.6767 60.9203 30.7368 61.1746 31.7823C61.1905 31.8474 61.2078 31.9154 61.2497 31.9674C61.3061 32.0398 61.3985 32.0716 61.4852 32.099C62.5124 32.423 63.6118 32.5126 64.6766 32.3608C64.8499 32.3362 65.0305 32.3015 65.1663 32.1902C65.2689 32.1063 65.3354 31.9862 65.3975 31.8691C65.8757 30.9609 66.234 29.9891 66.4579 28.9869C66.4868 28.8582 66.5128 28.7237 66.4752 28.5979C66.4377 28.475 66.3452 28.3795 66.2542 28.2899C65.3021 27.3499 64.2013 26.5603 63.005 25.963C62.196 25.5581 61.0027 25.9601 60.6646 26.8321V26.8336Z" fill="#B16C35"/>
<path d="M66.8294 21.7547C66.7673 21.7879 66.7023 21.8255 66.669 21.8877C66.6416 21.9412 66.6401 22.0034 66.6401 22.0641C66.6401 22.8769 66.6401 23.6896 66.6401 24.5024C66.6401 24.5631 66.6401 24.6296 66.6763 24.6802C66.708 24.7265 66.7615 24.7511 66.8121 24.7742C67.283 24.9897 67.7295 25.2587 68.1383 25.5754C68.2929 25.6954 68.4677 25.8299 68.6613 25.8054C68.8332 24.7873 69.0051 23.7706 69.177 22.7525C69.1958 22.6455 69.2132 22.5341 69.1886 22.4271C69.1178 22.1119 68.4706 21.5103 68.1672 21.4047C67.7367 21.2543 67.2094 21.5536 66.8294 21.7561V21.7547Z" fill="#B16C35"/>
<path d="M66.0534 33.9877C65.9638 34.1844 65.8786 34.4216 65.9884 34.6081C66.0418 34.6978 66.1314 34.7571 66.2181 34.8149C67.2698 35.5221 68.1887 36.4245 68.9154 37.4643C69.304 36.0037 69.603 34.5213 69.9021 33.0405C70.0769 32.1771 70.2994 29.1156 68.5975 29.5191C67.5198 29.775 66.4882 33.0202 66.0534 33.9877Z" fill="#B16C35"/>
<path d="M59.7185 39.6089C59.327 40.8917 58.9355 42.1744 58.5439 43.4586C58.5049 43.5873 58.4659 43.7247 58.5049 43.8534C58.5338 43.9489 58.6046 44.027 58.6711 44.1007C59.8976 45.4413 61.1256 46.7819 62.3522 48.1239C63.2696 46.86 64.723 46.0964 65.7704 44.938C65.9567 44.7312 66.1359 44.5013 66.1922 44.228C66.2399 43.9951 66.1937 43.7551 66.1474 43.5208C65.964 42.5938 65.7819 41.6668 65.5985 40.7398C65.5407 40.4506 65.4728 40.1397 65.2532 39.9416C65.0639 39.7709 64.7995 39.7203 64.5496 39.6755C64.0208 39.58 63.3736 39.5627 62.8723 39.3732C62.0517 39.0623 62.3594 38.8193 61.7107 38.3305C60.7226 37.5872 59.9843 38.7326 59.717 39.6075L59.7185 39.6089Z" fill="#B16C35"/>
<path d="M67.0491 48.3611C66.8627 48.4464 66.6634 48.5419 66.5622 48.7212C66.4871 48.8542 66.4785 49.0119 66.4712 49.1637C66.3672 51.466 66.3354 53.7712 66.3759 56.0764C66.3773 56.1631 66.3831 56.2615 66.4481 56.3193C66.5131 56.3772 66.6099 56.3743 66.6966 56.367C67.5808 56.2976 68.4635 56.2268 69.3476 56.1573C70.083 53.3764 70.4066 50.4869 70.3055 47.6105C69.2465 47.4356 67.9853 47.9345 67.0506 48.3596L67.0491 48.3611Z" fill="#B16C35"/>
<path d="M56.8954 50.7154C56.4042 51.1826 56.0834 51.7943 55.6905 52.3467C55.2845 52.9179 54.7948 53.4299 54.2414 53.8594C53.9872 54.0575 53.7141 54.2441 53.5306 54.5087C53.181 55.0134 53.2273 55.6917 53.3703 56.2889C53.6766 57.5702 54.3671 58.7575 55.3293 59.657C55.4839 59.8017 55.6529 59.9419 55.8566 59.9998C56.0574 60.0562 56.2727 60.0258 56.4793 59.994C57.8185 59.7915 59.1563 59.5905 60.4956 59.3881C60.708 59.3562 60.9304 59.3201 61.0966 59.1841C61.2945 59.0236 61.3696 58.759 61.4346 58.5117C61.7655 57.2477 62.0963 55.9824 62.4272 54.7184C62.4936 54.4639 62.5586 54.1833 62.4474 53.9447C62.3564 53.7495 62.1671 53.6237 61.9865 53.508C61.6196 53.2723 61.2526 53.0365 60.8857 52.8008C60.6285 52.6359 60.367 52.4667 60.1633 52.2382C59.2084 51.1681 58.6695 49.0249 56.8954 50.7111V50.7154Z" fill="#B16C35"/>
<path d="M20.6668 61.2941C19.8404 62.9282 19.8462 64.9587 20.6798 66.5885C20.9066 67.0324 21.2013 67.4562 21.6073 67.7454C21.8832 67.9406 22.1996 68.0665 22.5204 68.1749C23.3612 68.4569 24.2424 68.6203 25.1295 68.6579C25.4459 68.6709 25.7724 68.6666 26.0657 68.5437C26.5742 68.3311 26.8762 67.8148 27.1405 67.3304C27.8903 65.9522 28.6185 64.5639 29.3278 63.1654C29.5922 62.6448 29.8595 62.0577 29.6919 61.498C29.5994 61.19 29.3856 60.934 29.1646 60.7012C28.1504 59.6368 26.2636 58.2181 24.7076 58.2282C23.0693 58.2384 21.3487 59.9448 20.6668 61.2941Z" fill="#B16C35"/>
<path d="M28.9057 57.9578C28.9172 58.0576 28.9837 58.14 29.0487 58.2181C30.0831 59.4546 31.119 60.691 32.1534 61.9275C32.243 62.0345 32.3369 62.1444 32.4625 62.2066C32.698 62.3223 32.9783 62.2413 33.2268 62.1574C34.1948 61.8335 35.1627 61.5096 36.1307 61.1871C36.5265 61.0555 36.944 60.908 37.2026 60.5797C37.4006 60.3281 37.4771 60.0056 37.5378 59.6903C37.6678 59.0092 37.7458 58.3164 37.7704 57.6237C37.782 57.2853 37.769 56.9108 37.5393 56.662C37.2763 56.3786 36.84 56.3685 36.4528 56.3786C35.4155 56.4061 28.6673 55.7784 28.9071 57.9578H28.9057Z" fill="#B16C35"/>
<path d="M39.0001 62.237C38.9972 62.3801 39.0435 62.5175 39.0911 62.652C39.591 64.0548 40.2397 65.4026 41.0256 66.6666C41.1296 66.8343 41.2611 67.018 41.4561 67.044C41.5977 67.0643 41.735 66.9948 41.8621 66.9283C42.8691 66.3976 43.8746 65.8654 44.8815 65.3346C45.3626 65.0801 45.8582 64.8155 46.1962 64.3889C46.8261 63.5949 46.7568 62.4713 46.6571 61.4633C46.5849 60.7388 46.4433 59.9014 45.8076 59.5457C45.0116 59.1003 42.4674 59.0294 41.5211 59.1726C40.4203 59.3389 39.0261 61.1278 39.0001 62.237Z" fill="#B16C35"/>
<path d="M44.373 57.5977C44.5651 57.7004 44.7891 57.7221 45.0058 57.7438C46.7539 57.9115 48.502 58.0778 50.2515 58.2456C50.3787 58.2571 50.513 58.2687 50.6257 58.2109C50.7528 58.1458 50.8251 58.007 50.8843 57.8768C51.559 56.4075 51.8465 54.7618 51.7092 53.1508C50.9898 53.3576 50.2703 53.5644 49.5508 53.7712C49.064 53.9114 48.5771 54.0503 48.1032 54.2296C47.3968 54.4957 46.725 54.8457 46.0229 55.119C45.4565 55.3388 44.1924 55.3995 43.8659 55.9259C43.5813 56.3858 43.9295 57.3634 44.373 57.6006V57.5977Z" fill="#B16C35"/>
<path d="M49.1619 61.6238C49.068 61.8277 49.0376 62.0548 49.0131 62.2789C48.8455 63.793 48.9423 65.3346 49.2948 66.8155C49.3222 66.9298 49.3555 67.0527 49.4465 67.1264C49.5288 67.1944 49.6415 67.2089 49.7484 67.2204C50.6542 67.313 51.5687 67.3231 52.476 67.2494C52.6104 67.2378 52.752 67.2233 52.8603 67.1438C52.9889 67.0498 53.0424 66.8878 53.09 66.736C53.5133 65.3737 53.9381 64.01 54.3614 62.6477C54.4105 62.4901 54.4582 62.3136 54.3888 62.1632C54.331 62.0403 54.2053 61.9651 54.0869 61.8971C53.6419 61.644 53.1969 61.3895 52.7534 61.1364C51.7594 60.5696 49.7701 60.2977 49.1647 61.6252L49.1619 61.6238Z" fill="#B16C35"/>
<path d="M62.16 62.3888C62.2943 63.5342 62.4879 64.6709 62.7393 65.796C62.7942 66.0433 62.865 66.3108 63.0687 66.4612C63.1987 66.5581 63.3648 66.5914 63.5252 66.6174C64.1493 66.7186 64.785 66.749 65.4163 66.7114C65.6764 66.6955 65.9538 66.6608 66.156 66.4959C66.3121 66.3687 66.4045 66.1792 66.4869 65.9956C67.0156 64.83 67.4288 63.6123 67.7206 62.3671C67.6253 62.7764 64.7373 60.908 64.5018 60.8371C63.6365 60.5725 62.0328 61.3115 62.16 62.3903V62.3888Z" fill="#B16C35"/>
<path d="M55.5143 67.2725C55.4392 67.4229 55.4623 67.6008 55.4883 67.7657C55.6082 68.5148 55.7686 69.2581 55.9694 69.9884C56.0301 70.2082 56.1095 70.4483 56.3075 70.5611C56.436 70.6348 56.5921 70.6377 56.7394 70.6406C57.4936 70.6507 58.2491 70.6609 59.0033 70.671C59.0495 70.671 59.0972 70.671 59.1376 70.6522C59.2272 70.6088 59.2489 70.4946 59.2604 70.3948C59.3442 69.6471 59.5292 68.8459 59.519 68.0939C59.5032 66.9789 59.5089 67.2566 58.5034 66.8502C57.6034 66.4873 56.1485 65.9985 55.5129 67.2725H55.5143Z" fill="#B16C35"/>
<path d="M25.9845 71.611C25.8819 71.6486 25.7735 71.6949 25.7129 71.786C25.645 71.8901 25.658 72.0246 25.6738 72.1461C25.8515 73.5011 26.1289 74.8432 26.5031 76.1577C26.6418 76.6436 26.8571 77.1946 27.3382 77.3465C27.5447 77.4115 27.7672 77.3899 27.9825 77.3667C28.663 77.2944 29.3434 77.2235 30.0239 77.1512C30.2507 77.1267 30.4948 77.0963 30.661 76.9387C30.7881 76.8186 30.8474 76.6436 30.9023 76.4773C31.2244 75.4882 31.5451 74.499 31.8673 73.5113C31.9554 73.2394 32.0436 72.9386 31.9309 72.6768C31.8485 72.4845 31.6708 72.35 31.4975 72.2329C29.6815 71.0137 28.101 70.8272 25.9874 71.6096L25.9845 71.611Z" fill="#B16C35"/>
<path d="M17.5851 70.8503C17.5143 70.9009 17.4421 70.9559 17.406 71.0354C17.3626 71.1309 17.38 71.2408 17.3987 71.3449C17.5793 72.3659 17.7599 73.3854 17.9405 74.4064C17.9708 74.5814 18.0214 74.7839 18.1832 74.8576C18.2901 74.9068 18.4158 74.8822 18.5299 74.8576C19.0659 74.7405 19.6019 74.6233 20.1365 74.5062C20.2549 74.4802 20.3792 74.4512 20.4745 74.376C20.6031 74.2719 20.6537 74.1027 20.6941 73.9422C20.9311 73.034 21.1174 72.1113 21.2532 71.1815C21.2763 71.0267 21.2937 70.8561 21.2055 70.7274C21.142 70.6319 21.0336 70.5784 20.9267 70.535C19.7825 70.0607 18.5906 70.1402 17.5837 70.8517L17.5851 70.8503Z" fill="#B16C35"/>
<path d="M36.1453 70.8778C36.6669 70.3239 37.1884 69.77 37.71 69.2147C38.0971 68.804 38.5031 68.3513 38.5681 67.7902C38.6924 66.7172 37.5482 65.9218 37.2953 64.8719C37.2607 64.7302 37.2404 64.5754 37.1422 64.467C36.9515 64.2529 36.6062 64.3368 36.3375 64.4366C35.2193 64.8531 32.2894 65.3361 32.6766 66.9355C32.8138 67.501 36.258 70.7563 36.1439 70.8778H36.1453Z" fill="#B16C35"/>
<path d="M43.4772 71.3651C43.772 72.055 44.1173 72.7216 44.5088 73.3623C44.5926 73.4997 44.6923 73.6472 44.8468 73.6906C44.9523 73.7209 45.0635 73.6978 45.1704 73.6747C45.8682 73.5243 46.5964 73.3608 47.1483 72.9053C47.7623 72.3977 48.0642 71.5951 48.1653 70.804C48.226 70.3282 48.2144 69.8134 47.9501 69.4128C47.5874 68.8647 46.8723 68.6984 46.228 68.5755C45.4637 68.924 44.6995 69.2726 43.9352 69.6211C43.2475 69.9349 43.2114 70.7404 43.4787 71.3637L43.4772 71.3651Z" fill="#B16C35"/>
<path d="M62.1109 70.065C62.0011 70.1026 61.8855 70.1475 61.8147 70.24C61.7324 70.3456 61.7237 70.4888 61.7194 70.6232C61.663 72.1504 61.6067 73.6761 61.5503 75.2032C61.5475 75.2799 61.5475 75.3623 61.5951 75.4216C61.6414 75.4795 61.7223 75.4968 61.7945 75.5113C62.7365 75.6891 63.6798 75.8656 64.6218 76.0435C64.7446 76.0666 64.879 76.0883 64.9873 76.0247C65.1072 75.9538 65.1506 75.8034 65.1823 75.6674C65.4048 74.7303 65.6259 73.7932 65.8484 72.8561C65.9061 72.6117 65.9639 72.3615 65.9249 72.1128C65.8787 71.8265 65.7082 71.5792 65.5305 71.3507C64.5163 70.0592 63.729 69.5198 62.1138 70.0679L62.1109 70.065Z" fill="#B16C35"/>
<path d="M22.2123 77.8931C22.0808 77.896 21.9436 77.9032 21.8265 77.964C21.6041 78.0811 21.5203 78.3515 21.4581 78.5959C21.1923 79.6357 20.9265 80.6741 20.6607 81.7139C20.6289 81.8397 20.5956 81.9698 20.6217 82.0971C20.6462 82.2229 20.7228 82.3299 20.7993 82.4326C21.3801 83.2048 22.0577 83.9048 22.8104 84.5093C23.3883 83.7457 23.9647 82.9807 24.5426 82.2171C25.0425 81.5562 25.5683 80.7218 25.2491 79.9568C25.0771 79.5432 24.69 79.2612 24.4559 78.8794C24.336 78.6842 24.2565 78.4629 24.115 78.2807C23.7234 77.776 22.7642 77.8801 22.2108 77.8917L22.2123 77.8931Z" fill="#B16C35"/>
<path d="M56.2312 76.2893L56.8423 77.452C57.0243 77.7991 57.2454 78.1794 57.6224 78.285C57.8579 78.3515 58.1079 78.2951 58.3477 78.2474C59.0816 78.0985 59.8285 78.016 60.5769 78.0045C60.3096 76.7781 59.58 73.7687 58.1382 73.7253C56.89 73.6877 55.6504 75.1888 56.2297 76.2879L56.2312 76.2893Z" fill="#B16C35"/>
<path d="M23.1329 86.0465C22.9653 86.2447 22.802 86.4558 22.7312 86.7045C22.6763 86.8998 22.6821 87.1051 22.698 87.3076C22.7471 87.9468 22.8916 88.5788 23.1242 89.176C23.1545 89.2541 23.1993 89.3423 23.2817 89.3568C23.3669 89.3713 23.4391 89.2961 23.494 89.2281C24.121 88.4544 26.5395 86.3011 26.2289 85.3076C25.6568 83.4796 23.6703 85.4146 23.1329 86.0465Z" fill="#B16C35"/>
<path d="M21.1406 90.6425C20.7779 90.4559 20.3373 90.8521 20.3156 91.26C20.2954 91.6678 20.541 92.0351 20.7765 92.3692C21.0813 92.8016 21.3876 93.2354 21.6924 93.6678C21.782 93.7936 21.8932 93.9325 22.0478 93.9354C22.1085 93.9354 22.1677 93.9137 22.2241 93.8934C22.3021 93.8645 22.3787 93.8356 22.4567 93.8066C22.7052 93.7126 22.9753 93.6013 23.0996 93.3656C23.2643 93.0546 23.1025 92.6772 22.9435 92.3634C22.7196 91.9238 22.487 91.474 22.1186 91.1457C21.7502 90.8174 21.2113 90.6338 20.7534 90.8174L21.1406 90.6439V90.6425Z" fill="#B16C35"/>
<path d="M65.5318 78.2807C65.3353 78.4585 65.1316 78.6451 65.0363 78.8924C64.8846 79.2901 65.0478 79.7312 65.214 80.1216C65.5072 80.8086 65.815 81.4882 66.1386 82.1622C66.1863 82.2605 66.2383 82.3646 66.3336 82.4167C66.4347 82.4731 66.559 82.4586 66.6746 82.4427C67.2626 82.3603 67.8491 82.2778 68.4371 82.1954C68.5484 82.1795 68.6668 82.1607 68.7477 82.0841C68.8387 81.9973 68.859 81.8614 68.8734 81.7355C68.9789 80.7681 69.5539 77.4838 68.7434 76.8302C67.6671 75.961 66.1559 77.721 65.5332 78.2807H65.5318Z" fill="#B16C35"/>
<path d="M66.1243 85.4073C65.4207 85.0603 64.4557 85.4681 64.213 86.2143C64.0916 86.586 64.1349 86.9894 64.0844 87.377C64.0483 87.6561 63.9645 87.9323 63.9674 88.2143C63.9717 88.4963 64.0887 88.8029 64.3444 88.923C64.7894 89.1326 65.2459 88.6742 65.5276 88.2707C65.8585 87.7949 66.1893 87.3192 66.5216 86.8434C66.6935 86.5961 66.8741 86.3213 66.8467 86.022C66.8207 85.7226 66.4638 85.4507 66.2153 85.6214L66.1229 85.4088L66.1243 85.4073Z" fill="#B16C35"/>
<path d="M31.5797 89.3525C31.5089 89.4118 31.4367 89.4725 31.3962 89.5564C31.35 89.6518 31.3529 89.7617 31.3572 89.8673C31.3962 90.7596 31.5465 91.6461 31.8037 92.5008C31.86 92.6888 31.938 92.8956 32.1128 92.9838C32.1995 93.0272 32.2992 93.0344 32.396 93.0416C33.0461 93.0893 33.6977 93.1356 34.3478 93.1833C33.9866 93.1573 33.7381 89.124 33.7323 88.7017C33.7222 88.0075 33.8436 87.7863 33.1732 88.0567C32.6026 88.2867 32.0406 88.9663 31.5783 89.3539L31.5797 89.3525Z" fill="#B16C35"/>
<path d="M31.2939 95.8312C31.3647 96.0352 31.4413 96.2492 31.6075 96.388C31.7534 96.5109 31.947 96.5558 32.1333 96.5934C32.7054 96.7105 33.2819 96.8002 33.8626 96.8609C33.8886 96.4415 33.9147 96.0164 33.8337 95.6042C33.552 94.158 32.0163 93.8919 30.8389 94.4212C30.9198 94.8941 31.135 95.3714 31.2939 95.8298V95.8312Z" fill="#B16C35"/>
<path d="M55.5016 89.7183C55.5406 89.876 55.5868 90.0408 55.7024 90.1551C55.8787 90.3301 56.1589 90.333 56.4074 90.3243C56.9088 90.3069 57.465 90.2621 57.8074 89.8933C57.9388 89.7516 58.0241 89.5752 58.0992 89.3973C58.3549 88.7899 58.5023 88.1391 58.5355 87.4811C58.5413 87.3582 58.5413 87.2295 58.4792 87.1239C58.118 86.5151 56.1748 86.3777 55.5941 86.7465C54.6796 87.3278 55.2936 88.8897 55.5002 89.7183H55.5016Z" fill="#B16C35"/>
<path d="M59.2229 89.7342C59.1088 90.035 59.1117 90.3662 59.1174 90.6887L59.1391 92.038C59.142 92.2072 59.1463 92.3807 59.2171 92.534C59.4122 92.9519 59.9756 93.0026 60.4365 92.9939C60.5607 92.991 60.6994 92.9838 60.789 92.8984C60.8742 92.8175 60.8915 92.6902 60.9031 92.5745C61.0129 91.5101 61.3654 89.3655 60.8049 88.4486C60.214 88.748 59.4786 89.0661 59.2229 89.7357V89.7342Z" fill="#B16C35"/>
<path d="M57.0113 96.8696C57.0503 96.9839 57.0951 97.1039 57.189 97.1791C57.2757 97.2485 57.3913 97.2673 57.5025 97.2702C58.612 97.2991 59.7678 95.4914 58.573 94.8117C57.1356 93.9932 56.6631 95.8703 57.0113 96.8696Z" fill="#B16C35"/>
<path d="M0 98.7265C2.59759 98.5081 5.10705 97.3497 6.95772 95.5131C9.19846 93.2889 11.406 88.8521 9.70122 85.766C9.4484 85.3076 9.14357 84.9735 8.80695 84.7407C8.87196 84.9316 8.91963 85.1282 8.95142 85.3264C9.05255 85.9887 8.98031 86.6669 8.8734 87.3278C8.33886 90.615 6.84214 93.8486 4.23589 95.9195C4.45982 95.5261 4.62018 95.0966 4.70686 94.6526C4.11309 95.4292 3.44419 96.1465 2.71172 96.7958C3.52509 95.4654 3.94984 93.8992 3.9195 92.3402C3.69701 93.0995 3.27371 93.798 2.7045 94.3461C2.72472 93.8775 2.73772 93.4089 2.74495 92.9404C2.61926 94.1841 2.23208 95.4205 1.27712 96.1885C1.72932 96.0352 2.13384 95.7445 2.42422 95.3656C2.54413 96.093 2.23352 96.8392 1.75243 97.3974C1.27279 97.9557 0.637117 98.3548 0 98.725L0 98.7265Z" fill="#9B5D51"/>
<path d="M57.9156 3.71963C59.8458 4.032 60.8022 6.06385 60.3066 7.84262C60.2358 8.0957 60.6447 8.20416 60.6967 7.94964C61.0449 6.24317 59.9151 3.69504 57.9214 3.68347C57.9012 3.68347 57.8954 3.71673 57.9171 3.71963H57.9156Z" fill="#9B5D51"/>
<path d="M59.4151 3.01534C60.6676 3.63719 61.5908 5.24676 61.6197 6.6264C61.6197 6.69437 61.7194 6.69292 61.7237 6.6264C61.8046 5.27279 60.7254 3.44629 59.4252 2.99365C59.4122 2.98931 59.4035 3.00955 59.4151 3.01678V3.01534Z" fill="#9B5D51"/>
<path d="M61.6195 4.30674C61.8781 4.90834 61.9937 5.50416 62.0024 6.15638C62.0024 6.21278 62.0833 6.21133 62.0876 6.15638C62.1411 5.5056 61.9822 4.8476 61.6557 4.28505C61.6412 4.26046 61.608 4.28215 61.6181 4.30674H61.6195Z" fill="#9B5D51"/>
<path d="M63.2246 2.46868C63.5584 3.11077 63.7028 3.75865 63.7014 4.48607C63.6985 5.18167 63.4688 5.8122 63.3445 6.48611C63.3185 6.62494 63.4861 6.6958 63.5685 6.58011C64.2836 5.57647 64.3602 3.22791 63.2622 2.43108C63.2376 2.41372 63.2131 2.44699 63.2246 2.46868Z" fill="#9B5D51"/>
<path d="M64.6379 3.44341C64.8214 4.48175 64.7333 5.42898 64.3721 6.41671C64.3548 6.46588 64.4328 6.49914 64.4559 6.45286C64.9067 5.5172 64.9818 4.42535 64.6625 3.43762C64.6582 3.42172 64.6365 3.42895 64.6394 3.44485L64.6379 3.44341Z" fill="#9B5D51"/>
<path d="M65.4509 4.35447C65.4581 5.02115 65.3093 5.6054 65.1475 6.24315C65.1259 6.32848 65.2501 6.38632 65.2935 6.30389C65.5997 5.71531 65.6272 4.98644 65.5058 4.34724C65.5 4.31687 65.4509 4.3241 65.4524 4.35447H65.4509Z" fill="#9B5D51"/>
<path d="M66.4149 3.61695C66.6085 4.24602 66.7067 4.81147 66.5709 5.46658C66.4539 6.02914 66.1996 6.54686 66.045 7.09785C66.0176 7.19474 66.1577 7.25404 66.2068 7.16582C66.7659 6.18388 67.2456 4.58153 66.4669 3.58658C66.4481 3.56199 66.4077 3.58802 66.4163 3.61695H66.4149Z" fill="#9B5D51"/>
<path d="M53.5483 9.51727C53.8402 9.39868 54.1594 9.33505 54.4701 9.38422C54.7807 9.43339 55.0797 9.60838 55.2343 9.8817C55.2603 9.92798 55.2834 9.97715 55.3224 10.0104C55.3629 10.0437 55.4264 10.0567 55.4669 10.022C55.4842 10.0075 55.4944 9.98582 55.5001 9.96413C55.5406 9.84121 55.4972 9.70527 55.4395 9.58958C55.2329 9.17597 54.8182 8.87228 54.3631 8.79997C54.2692 8.78551 54.1739 8.77973 54.0814 8.79274C53.8127 8.83324 53.5108 9.05739 53.3244 9.24828C53.0687 9.51148 53.2088 9.65176 53.5469 9.51438L53.5483 9.51727Z" fill="#B16C35"/>
<path d="M63.3189 10.4254C63.8333 10.544 64.3187 10.8969 64.4704 11.403C64.505 11.5173 64.5267 11.646 64.6177 11.7212C64.7564 11.8369 64.9861 11.7545 65.0786 11.5997C65.1711 11.445 65.1624 11.2498 65.1321 11.0704C65.0858 10.7913 64.9934 10.5166 64.8301 10.2866C64.4241 9.71827 63.6584 9.53027 62.9621 9.54763C62.6602 9.55486 62.3539 9.5939 62.075 9.71393C61.8728 9.80215 61.0782 10.4081 61.6099 10.531C61.8266 10.5816 62.221 10.4052 62.4463 10.3821C62.7367 10.3531 63.0314 10.356 63.3175 10.4226L63.3189 10.4254Z" fill="#B16C35"/>
<path opacity="0.3" d="M51.241 1.58362C51.0272 1.79187 50.8393 2.05651 50.835 2.35587C50.8307 2.65522 51.0835 2.96615 51.3797 2.92566C51.4476 2.91698 51.514 2.8895 51.5632 2.84178C51.6267 2.78104 51.6571 2.69427 51.686 2.61039C51.7914 2.30381 51.9142 1.98565 52.1584 1.77307C52.3361 1.61833 52.5643 1.53445 52.7652 1.41153C52.8562 1.35513 52.9472 1.28716 52.9905 1.18882C53.1827 0.75931 52.391 0.824388 52.1757 0.908265C51.8478 1.03697 51.4866 1.33922 51.2395 1.58217L51.241 1.58362Z" fill="white"/>
<path opacity="0.3" d="M70.9757 2.04207C70.7706 2.11149 70.5669 2.21995 70.4513 2.40361C70.3256 2.60463 70.3328 2.88374 70.4744 3.07319C70.6174 3.26263 70.8876 3.34651 71.1101 3.26408C71.2416 3.21491 71.3499 3.11657 71.4727 3.05005C71.8859 2.82589 72.4147 2.98642 72.7787 3.28143C72.838 3.32916 72.9145 3.38411 72.9824 3.35229C73.007 3.34072 73.0258 3.31903 73.0417 3.29734C73.3349 2.89386 72.9015 2.36312 72.5649 2.13897C72.13 1.84974 71.4481 1.88155 70.9757 2.04063V2.04207Z" fill="white"/>
</svg>
