<svg width="71" height="117" viewBox="0 0 71 117" fill="none" xmlns="http://www.w3.org/2000/svg">
<path d="M69 105C69 107.207 55.3447 109 38.5 109C21.6553 109 8 107.211 8 105C8 102.789 21.6553 101 38.5 101C55.3447 101 69 102.789 69 105Z" fill="#A2BC5C"/>
<path d="M30.7764 103.29C31.4258 103.766 32.2011 104.087 33.025 104.213C32.8796 104.077 32.8602 103.854 32.9377 103.679C33.0153 103.504 33.18 103.368 33.3642 103.281C33.8973 103.009 34.5369 103.028 35.1475 103.057C34.8083 102.941 34.5466 102.649 34.4885 102.319C34.4303 101.989 34.566 101.639 34.8374 101.416C33.6937 101.484 32.55 101.455 31.4064 101.348C31.0381 101.309 30.6407 101.28 30.3402 101.474C30.0301 101.688 29.9429 102.105 30.0592 102.445C30.1755 102.785 30.4565 103.057 30.7667 103.281L30.7764 103.29Z" fill="#ED6969"/>
<path d="M35.7293 102.397C35.3416 102.416 34.7988 102.416 34.1882 102.329C34.0332 102.309 33.8781 102.29 33.723 102.261C33.5679 102.222 33.4129 102.193 33.2578 102.154L33.0252 102.105C32.9476 102.086 32.8701 102.057 32.7926 102.037C32.6375 101.989 32.2498 101.892 31.9494 101.756C32.9476 101.989 34.4887 101.756 34.8376 101.688C35.0605 101.649 34.9636 100.794 34.6632 100.823C34.3433 100.862 33.8684 100.92 33.3547 100.93C33.2287 100.93 33.093 100.93 32.9573 100.94C32.8216 100.94 32.686 100.94 32.5503 100.94C32.2789 100.94 32.0075 100.911 31.7361 100.901C31.5326 100.882 31.3388 100.862 31.1546 100.852L27.6073 80.5827C27.6073 80.5827 27.9756 77.4941 27.9659 77.3679C27.9174 76.1829 27.8884 74.493 27.8884 74.493L33.8975 59.8953L32.6569 59.3805C32.6569 59.3805 26.861 73.2109 26.4927 74.2405C26.1244 75.27 25.4847 75.5031 25.2327 76.9988C24.9807 78.5042 26.0953 79.6988 26.2698 80.6895C26.4442 81.6802 30.1175 99.0848 29.5263 101.581C29.4391 101.96 29.7105 102.513 30.0497 102.999C30.3889 103.484 30.9026 103.922 31.4357 104.155C31.9687 104.397 32.4921 104.485 32.8604 104.504C33.1027 104.504 33.1512 103.659 32.8992 103.63C32.6181 103.591 32.2304 103.504 31.8331 103.31C31.4357 103.125 31.0674 102.814 30.7766 102.465C30.5343 102.183 30.3889 101.746 30.4665 101.824C30.6409 101.979 30.8735 102.134 31.1255 102.309C31.2515 102.397 31.3969 102.455 31.5423 102.542C31.6877 102.61 31.8427 102.698 31.9978 102.766C32.1626 102.824 32.3274 102.882 32.4921 102.95C32.5793 102.979 32.6569 103.009 32.7441 103.038L33.0058 103.106C33.1803 103.145 33.3547 103.183 33.5292 103.232C33.7036 103.251 33.8781 103.281 34.0525 103.3C34.731 103.378 35.361 103.349 35.7874 103.3C36.0685 103.281 36.0491 102.416 35.7002 102.426L35.7293 102.397Z" fill="#F7A392"/>
<path d="M30.6601 64.9651C31.0769 65.2079 31.61 65.1496 32.0364 64.9263C32.4629 64.7029 32.7924 64.3435 33.1026 63.9744C34.1784 62.7215 35.1282 61.3618 35.9424 59.9244C34.0621 59.5165 32.1818 59.1182 30.3015 58.72C29.8848 60.2255 29.7588 61.8183 29.9235 63.3723C29.9914 63.9842 30.1465 64.664 30.6698 64.9748L30.6601 64.9651Z" fill="#ED6969"/>
<path d="M48.9976 101.94C48.7068 101.901 48.387 101.901 48.1544 102.086C47.9218 102.27 47.8442 102.61 47.8927 102.902C47.9411 103.193 48.1059 103.465 48.2804 103.708C48.8134 104.456 49.4822 105.106 50.2576 105.602C50.1994 105.476 50.2576 105.32 50.3545 105.233C50.4514 105.136 50.5871 105.087 50.7131 105.048C51.314 104.873 51.9634 104.883 52.5643 105.068C52.2251 104.776 52.0409 104.3 52.1185 103.854C52.1863 103.407 52.5061 103.009 52.9229 102.834C51.5854 102.96 50.3351 102.115 48.9976 101.94Z" fill="#F7827F"/>
<path d="M53.5722 104.582C53.107 104.543 52.4286 104.407 51.7307 104.096C51.0329 103.795 50.3157 103.329 49.7051 102.834C49.4822 102.649 49.2689 102.465 49.0751 102.28C49.2108 102.358 49.3562 102.455 49.5112 102.523C49.676 102.601 49.8505 102.669 50.0152 102.746C50.1025 102.785 50.1897 102.824 50.2769 102.853L50.5483 102.931C50.7325 102.979 50.9069 103.038 51.0911 103.086C51.2752 103.115 51.4594 103.154 51.6338 103.183C52.3413 103.3 52.9907 103.29 53.4366 103.261C53.7273 103.242 53.737 102.387 53.3784 102.387C52.981 102.387 52.4092 102.387 51.7889 102.261C51.6338 102.232 51.4787 102.202 51.314 102.173C51.1589 102.125 50.9941 102.076 50.8391 102.037L50.5968 101.969C50.5192 101.94 50.4417 101.911 50.3642 101.882C50.2091 101.824 50.054 101.765 49.9086 101.707C49.7632 101.649 49.6179 101.571 49.4822 101.503C49.3465 101.435 49.2011 101.387 49.0848 101.309C48.9006 101.202 48.7262 101.105 48.5711 101.018L37.9001 79.388C37.9001 79.388 37.6384 78.6013 37.619 78.4556C37.5512 77.9506 37.3379 77.1348 37.1053 76.3383C36.7564 75.1437 36.3784 73.9782 36.3784 73.9782L35.3413 59.0406L33.9941 59.1377L35.0409 74.3182C35.0409 74.3182 34.6144 75.8333 34.818 76.9697C35.0215 78.106 36.4656 79.5629 36.4656 79.5629L47.2724 101.455C47.2724 101.455 47.2724 101.464 47.2724 101.474C47.2433 101.931 47.3208 102.562 47.5728 103.193C47.8248 103.824 48.2125 104.456 48.6777 104.941C49.1333 105.437 49.6372 105.777 50.0055 105.99C50.2478 106.126 50.7034 105.398 50.4417 105.223C50.1509 105.029 49.7439 104.718 49.3756 104.3C48.9976 103.892 48.668 103.358 48.416 102.843C48.3967 102.814 48.387 102.775 48.3773 102.746C48.6002 103.009 48.8425 103.281 49.1236 103.533C49.7729 104.126 50.5677 104.65 51.3721 104.98C52.1766 105.32 52.9713 105.446 53.5335 105.476C53.9018 105.495 53.9987 104.64 53.5819 104.601L53.5722 104.582Z" fill="#FFBAA9"/>
<path d="M50.6553 21.5604C48.4358 18.4913 47.0692 16.4614 45.8673 12.761C45.6541 12.1103 45.9933 11.1196 46.507 11.3721C47.8639 12.052 49.5213 12.4502 50.9751 11.1487C52.4677 9.81815 52.5549 6.90443 51.5954 5.46699C50.0737 3.19429 45.5669 1.6306 42.6496 4.75799C40.6724 6.87529 40.5948 11.7606 41.4187 14.4801C42.6205 18.4622 45.5475 21.5993 47.5247 25.1929C50.5874 30.7484 54.755 40.3539 51.6148 45.1907C50.3936 42.0245 48.901 40.0723 46.1484 38.0618C43.3959 36.0513 40.0521 35.1578 36.7374 34.8761C28.3149 34.1574 19.2915 37.5859 14.3582 45.0159C12.8075 47.3566 11.5766 50.1246 9.07601 51.3581C8.63017 51.5815 8.25218 51.9505 8.09711 52.4556C7.66096 53.7668 8.8434 54.4078 9.82231 54.4175C10.5977 54.4175 12.1484 54.4466 12.1484 54.4466C12.1484 54.4466 10.6655 56.2531 12.0903 56.292C16.3354 56.3794 18.3029 55.0974 18.5937 54.9031C18.2351 55.1653 15.4341 57.2632 17.2077 57.1564C19.0977 57.0495 24.5156 58.5064 27.7237 59.4874C32.4631 60.9442 37.5903 61.7698 42.2716 60.109C43.4637 59.6913 45.877 58.0014 47.263 56.933C47.6216 56.661 48.0772 56.5736 48.5133 56.6708C55.4723 58.3122 58.0213 52.1545 58.6513 49.1534C60.4055 40.8007 55.4626 28.2037 50.665 21.5799L50.6553 21.5604Z" fill="#F7827F"/>
<path d="M51.508 6.46732C50.9458 6.37991 50.4321 5.9817 50.2577 5.43781C50.0832 4.89391 50.2674 4.24318 50.7326 3.91296C51.1784 3.60216 51.8278 3.62159 52.2543 3.97123C52.6323 4.28203 52.797 4.79679 52.797 5.29212C52.797 5.60292 52.7389 5.93314 52.5353 6.16624C52.293 6.4479 51.8763 6.53531 51.508 6.47703V6.46732Z" fill="#F7827F"/>
<path d="M46.0321 7.39C45.5669 7.32201 45.1405 6.98208 44.9951 6.53531C44.8497 6.08854 44.9951 5.54464 45.3925 5.2727C45.7608 5.01046 46.3035 5.02989 46.6524 5.32126C46.9626 5.58349 47.0983 6.01084 47.108 6.40905C47.108 6.66157 47.0595 6.93352 46.885 7.12776C46.6815 7.36086 46.3423 7.42885 46.0321 7.38029V7.39Z" fill="white"/>
<path d="M46.3518 6.0691C46.4778 6.25364 46.5554 6.50616 46.4391 6.70041C46.3809 6.79753 46.2646 6.86552 46.158 6.90437C45.9254 6.97236 45.654 6.90437 45.4892 6.72955C45.3245 6.55472 45.2857 6.26335 45.402 6.04968C45.5183 5.83601 45.7994 5.72917 46.032 5.80687C46.1677 5.85543 46.2743 5.95256 46.3518 6.0691Z" fill="black"/>
<path d="M51.5082 6.23421C51.043 6.16622 50.6165 5.82629 50.4712 5.37952C50.3258 4.93275 50.4712 4.38885 50.8685 4.1169C51.2368 3.85467 51.7796 3.87409 52.1285 4.16547C52.4387 4.4277 52.5743 4.85505 52.584 5.25326C52.584 5.50578 52.5356 5.77772 52.3611 5.97197C52.1576 6.20507 51.8184 6.27306 51.5082 6.22449V6.23421Z" fill="white"/>
<path d="M51.7992 4.87447C51.9058 5.02016 51.9639 5.23383 51.867 5.38923C51.8185 5.47664 51.7313 5.52521 51.6344 5.55434C51.4406 5.61262 51.2176 5.55434 51.0819 5.40866C50.9463 5.26297 50.9172 5.02016 51.0141 4.85505C51.111 4.68023 51.3436 4.59282 51.5278 4.6608C51.6344 4.69965 51.7216 4.78706 51.7895 4.87447H51.7992Z" fill="black"/>
<path d="M34.0816 51.2123C37.0086 51.9214 40.1489 51.7368 42.979 50.6879C44.8011 50.0177 46.6232 48.8328 47.2047 46.9777C47.9607 44.5496 46.284 42.005 44.2583 40.4704C40.4493 37.5761 35.2156 36.8574 30.5924 38.1297C25.9693 39.4021 21.3849 42.141 19.1654 46.3853C16.5194 51.4552 19.1654 53.1354 20.028 52.2224C23.5947 48.4346 26.4151 49.1048 28.3632 49.503C30.3113 49.9012 32.1432 50.7462 34.0816 51.2123Z" fill="#ED6969"/>
<path d="M41.5248 43.7046C40.9723 43.7046 40.4102 44.0057 40.0322 44.4914C39.3828 45.3072 39.441 46.2396 39.8771 47.036C38.1907 47.0943 37.0083 50.2217 39.5282 50.5519C39.7027 50.5713 40.0419 50.0954 39.9062 50.076C39.1793 49.9789 38.7238 49.6001 38.5008 48.9105C38.0259 47.4439 39.8577 47.3274 40.6428 47.9975C40.6719 48.0267 40.701 48.0461 40.73 48.0752C40.8463 48.1821 41.2728 47.7353 41.1662 47.6285C41.0983 47.5605 41.0305 47.4925 40.953 47.4342C40.4296 46.9292 40.0613 46.3464 39.9934 45.5888C39.8674 44.2777 41.2631 43.8989 42.0579 44.5496C42.1257 44.6176 42.1935 44.6953 42.2711 44.7633C42.3874 44.8701 42.8041 44.4428 42.7072 44.3165C42.6103 44.2 42.5134 44.0931 42.4068 44.0154C42.1645 43.7435 41.9997 43.4618 41.8834 43.0539C41.6217 42.1215 42.8623 41.7136 43.2597 42.5974C43.3275 42.7528 43.7831 42.3449 43.7152 42.1992C43.3566 41.4028 42.4165 41.4125 41.8834 42.0341C41.4182 42.5877 41.3406 43.1705 41.5345 43.7144L41.5248 43.7046Z" fill="#FFBAA9"/>
<path d="M36.7271 43.1413C36.1068 43.0539 35.4962 43.1802 35.0116 43.7532C34.4495 44.4428 34.5464 45.0935 34.9341 45.6471C34.5658 45.6471 34.1975 45.7928 33.8873 46.1522C32.8018 47.3759 34.1975 48.2306 35.3702 48.4831C35.5156 48.5123 35.8645 48.0364 35.7579 48.017C34.9147 47.8421 34.1103 47.609 33.9164 46.6669C33.7129 45.6665 35.283 46.2202 35.4575 46.2881C35.5253 46.3173 35.6029 46.3561 35.6707 46.395C35.8742 46.5601 36.0971 46.7058 36.3104 46.832C36.4364 46.9097 36.8241 46.4435 36.7465 46.3853C36.5721 46.259 36.3782 46.1327 36.1747 46.0259C35.6707 45.6763 35.2539 45.2586 35.0795 44.5982C34.9147 43.9669 35.6804 43.559 36.2425 43.559C36.7853 43.559 37.3281 43.8795 37.803 44.1223C37.9387 44.1903 38.3263 43.7338 38.2391 43.6755C37.4831 43.1413 36.8047 42.6169 36.6496 41.6456C36.4461 40.3442 37.803 40.4121 38.4426 40.4801C38.9563 40.5384 39.4409 40.8201 39.8674 41.092C40.0031 41.1794 40.3811 40.6938 40.3035 40.6452C39.1114 39.9071 37.7739 39.6837 36.7271 40.7715C35.9324 41.5971 36.165 42.442 36.7271 43.151V43.1413Z" fill="#FFBAA9"/>
<path d="M28.0819 47.745C28.2564 47.6965 28.5762 47.1914 28.2467 47.2885C26.6572 47.7547 25.3294 45.3461 27.1418 44.8313C27.1515 44.8313 27.1612 44.8313 27.1806 44.8313C27.2193 44.8313 27.2581 44.8119 27.2969 44.8022C27.2969 44.8022 27.3356 44.7925 27.355 44.7827C27.4907 44.7439 27.8202 44.2583 27.5682 44.3068C27.4616 44.3263 27.3647 44.3554 27.2581 44.3942C26.7929 44.5108 26.3664 44.5399 25.9593 44.1709C25.0871 43.3744 26.6959 42.3741 27.4422 42.1215C27.607 42.0633 27.9268 41.5485 27.607 41.6651C26.7444 41.9564 25.4554 42.4906 25.31 43.559C25.1743 44.5399 25.717 44.8993 26.4149 44.9187C26.1241 45.2101 25.9303 45.5792 25.8237 46.0356C25.5135 47.3857 27.0158 48.0752 28.0916 47.7645L28.0819 47.745Z" fill="#FFBAA9"/>
<path d="M29.5262 46.4824C29.1289 47.7741 30.9801 47.8324 31.7167 47.6382C31.9202 47.5896 32.2013 47.0749 31.8621 47.1623C31.5034 47.2885 31.1351 47.308 30.7571 47.24C29.5166 47.0457 30.6796 45.6083 31.4744 45.482C31.6101 45.4626 32.0268 45.0061 31.7845 44.9867C31.1836 44.9381 30.6893 44.8604 30.2144 44.4622C29.6522 43.7144 29.9527 43.1996 31.1158 42.8985C31.2321 42.8791 31.3484 42.8791 31.4647 42.8791C31.7264 42.9082 31.9784 42.9179 32.1722 42.9179C32.366 42.9179 32.7246 42.4323 32.4242 42.4129C32.2594 42.4129 32.085 42.3935 31.9202 42.4032C31.7845 42.3935 31.6585 42.3643 31.5228 42.3352C30.3501 42.1021 31.1642 40.7424 31.8136 40.3539C32.5114 39.9362 33.374 39.8391 34.1688 39.9071C34.382 39.9265 34.7309 39.4312 34.5274 39.4118C33.1026 39.2855 31.7264 39.7323 30.7378 40.7909C30.3695 41.1794 30.2725 41.6748 30.3888 42.1798C30.4276 42.3546 30.5245 42.4906 30.6505 42.5877C30.2241 42.7431 29.8558 43.0248 29.6232 43.5007C29.1289 44.4719 29.7879 45.045 30.5924 45.3072C30.1078 45.5306 29.7298 45.8899 29.5456 46.4921L29.5262 46.4824Z" fill="#FFBAA9"/>
<path d="M33.8975 58.283C32.7635 58.2636 31.6198 58.2344 30.4858 58.215C30.7378 59.7107 31.3194 61.1481 32.182 62.401C32.7344 63.2946 33.2966 64.1784 33.849 65.0622C34.101 65.4507 35.7874 65.713 36.1945 64.5281C36.7954 62.7021 37.2025 60.8179 37.3963 58.9046C36.2042 58.8949 35.0218 58.6812 33.8975 58.283Z" fill="#F7827F"/>
<path d="M56.5187 52.6498C56.5769 52.5527 56.3539 52.4653 56.3152 52.5236C56.1892 52.7178 55.9372 53.0674 55.6755 53.3297C55.5495 53.4657 55.4235 53.5822 55.3363 53.6793C55.249 53.7764 55.2006 53.8444 55.2296 53.8736C55.2587 53.9027 55.3363 53.8736 55.4526 53.8153C55.5689 53.757 55.7143 53.6502 55.8596 53.5142C56.1601 53.252 56.4121 52.8732 56.5381 52.6595L56.5187 52.6498Z" fill="#E04444"/>
<path d="M56.6934 50.6782C56.7709 50.5713 56.548 50.4742 56.4995 50.5325C56.3347 50.7559 56.0052 51.1444 55.6563 51.426C55.5691 51.494 55.4915 51.5717 55.414 51.63C55.3365 51.6883 55.2589 51.7368 55.2008 51.7854C55.0845 51.8825 55.0166 51.9602 55.036 51.9893C55.0554 52.0282 55.1523 51.9894 55.2977 51.9311C55.3655 51.9019 55.4528 51.8534 55.54 51.8048C55.6272 51.7563 55.7145 51.6786 55.8114 51.6106C56.1991 51.3386 56.5286 50.9016 56.6934 50.6685V50.6782Z" fill="#E04444"/>
<path d="M47.9897 54.3592C48.0576 54.2718 47.8443 54.1552 47.8056 54.2038C47.6602 54.3786 47.35 54.6797 47.0302 54.8642C46.9527 54.9128 46.8751 54.9613 46.8073 55.0002C46.7297 55.039 46.6619 55.0682 46.6134 55.0973C46.5068 55.1653 46.439 55.2139 46.4487 55.2527C46.4584 55.2916 46.5456 55.2916 46.6813 55.2527C46.7491 55.2333 46.8267 55.2139 46.9139 55.1847C47.0011 55.1556 47.0787 55.107 47.1659 55.0585C47.5342 54.8739 47.854 54.5243 48.0091 54.33L47.9897 54.3592Z" fill="#E04444"/>
<path d="M54.8904 53.1937C54.9389 53.1451 54.7547 52.98 54.7256 53.0189C54.5027 53.2325 53.863 53.7764 53.9793 53.893C54.086 54.0095 54.6869 53.4171 54.9001 53.1937H54.8904Z" fill="#E04444"/>
<path d="M53.146 53.1646C53.2139 53.0966 53.0297 52.9412 52.9812 52.9897C52.6905 53.2617 51.8473 53.9901 51.9636 54.1067C52.0702 54.2232 52.8746 53.4559 53.146 53.1646Z" fill="#E04444"/>
<path d="M50.9071 54.4563C50.9653 54.3786 50.7618 54.2524 50.723 54.3009C50.597 54.4563 50.3353 54.7283 50.0736 54.9322C49.8216 55.1459 49.589 55.3013 49.6278 55.379C49.6472 55.4178 49.7247 55.3984 49.8313 55.3596C49.9476 55.3207 50.0833 55.243 50.219 55.1362C50.5098 54.9419 50.7715 54.6311 50.8975 54.4563H50.9071Z" fill="#E04444"/>
<path d="M46.4582 53.8833C46.5455 53.8056 46.371 53.6405 46.3128 53.689C45.9155 53.9901 44.8203 54.7865 44.9172 54.9128C45.0141 55.039 46.0899 54.2038 46.4679 53.8833H46.4582Z" fill="#E04444"/>
<path d="M43.8902 53.1548C43.958 53.0966 43.7933 52.9217 43.7448 52.9606C43.4153 53.2034 42.4848 53.8347 42.5817 53.9707C42.6787 54.0969 43.5703 53.4268 43.8902 53.1646V53.1548Z" fill="#E04444"/>
<path d="M45.15 56.3891C45.2178 56.292 45.0046 56.1851 44.9562 56.2434C44.8011 56.4279 44.5006 56.7679 44.1808 56.9912C44.1129 57.0495 44.0354 57.0981 43.9579 57.1661C43.89 57.2146 43.8222 57.2535 43.764 57.302C43.6574 57.3797 43.5993 57.4477 43.609 57.4866C43.6283 57.5254 43.7156 57.506 43.8416 57.4574C43.9094 57.438 43.9869 57.3992 44.0645 57.3603C44.142 57.3215 44.2293 57.2632 44.3165 57.2049C44.6751 56.9815 44.9852 56.6125 45.1403 56.4085L45.15 56.3891Z" fill="#E04444"/>
<path d="M53.4273 55.1556C53.5242 55.0876 53.3498 54.9225 53.2819 54.9613C53.0881 55.0973 52.7004 55.3401 52.3321 55.4664C52.2449 55.4955 52.1673 55.5344 52.0704 55.5732C51.9832 55.6024 51.9153 55.6218 51.8475 55.6509C51.7215 55.6995 51.644 55.7481 51.6536 55.7869C51.6536 55.8257 51.7506 55.8355 51.8863 55.8258C51.9541 55.8258 52.0413 55.8063 52.1286 55.7966C52.2158 55.7772 52.3127 55.7481 52.4096 55.7092C52.807 55.5927 53.2141 55.3207 53.4176 55.1653L53.4273 55.1556Z" fill="#E04444"/>
<path d="M43.2598 55.6509C43.3373 55.5635 43.1338 55.4373 43.0757 55.4858C42.9109 55.6606 42.5814 55.9617 42.2421 56.1365C42.1549 56.1851 42.0774 56.2337 41.9998 56.2725C41.9223 56.3017 41.8544 56.3405 41.7963 56.3696C41.68 56.4279 41.6025 56.4862 41.6121 56.525C41.6121 56.5639 41.7091 56.5639 41.8448 56.5445C41.9126 56.5348 41.9901 56.5153 42.0871 56.4862C42.1743 56.4571 42.2615 56.4085 42.3584 56.3696C42.7461 56.2045 43.095 55.8549 43.2598 55.6606V55.6509Z" fill="#E04444"/>
<path d="M41.8935 53.1937C42.0001 53.0966 41.8063 52.9509 41.7384 53.0092C41.5058 53.2034 41.06 53.5531 40.6238 53.7959C40.4203 53.9318 40.2168 54.029 40.0714 54.1164C39.926 54.2038 39.8388 54.2718 39.8581 54.3106C39.8775 54.3495 39.9841 54.33 40.1489 54.2815C40.3137 54.2329 40.5366 54.1455 40.7595 54.0192C41.215 53.7862 41.6803 53.4074 41.9032 53.1937H41.8935Z" fill="#E04444"/>
<path d="M39.4023 52.9315C39.4508 52.8926 39.3248 52.6984 39.286 52.7178C39.0437 52.8538 38.375 53.1743 38.4525 53.3102C38.53 53.4559 39.1794 53.0772 39.4023 52.9315Z" fill="#E04444"/>
<path d="M40.6626 55.4178C40.7401 55.3401 40.5463 55.2042 40.4978 55.243C40.3427 55.3887 40.0229 55.6315 39.703 55.7578C39.6255 55.7966 39.548 55.8355 39.4801 55.8646C39.4123 55.884 39.3444 55.9132 39.2863 55.9326C39.1797 55.9812 39.1118 56.0297 39.1118 56.0686C39.1118 56.1074 39.199 56.1171 39.325 56.1074C39.3929 56.1074 39.4607 56.088 39.548 56.0783C39.6255 56.0589 39.7127 56.02 39.8 55.9909C40.1586 55.8743 40.4978 55.5829 40.6626 55.4178Z" fill="#E04444"/>
<path d="M42.2906 58.0207C42.3779 57.9722 42.2519 57.7682 42.1937 57.7974C41.777 57.9916 40.6333 58.4772 40.7011 58.6229C40.769 58.7686 41.8933 58.2344 42.3003 58.0207H42.2906Z" fill="#E04444"/>
<path d="M39.7321 57.642C39.8194 57.6128 39.7321 57.3895 39.674 57.4089C39.2863 57.4963 38.2298 57.7003 38.2686 57.8654C38.3074 58.0208 39.3541 57.7585 39.7321 57.6517V57.642Z" fill="#E04444"/>
<path d="M38.7046 55.0876C38.7918 55.0293 38.6173 54.8545 38.5689 54.8934C38.4041 55.0099 38.0649 55.1944 37.745 55.2819C37.6675 55.3013 37.59 55.3304 37.5221 55.3596C37.4543 55.379 37.3864 55.3887 37.3283 55.4081C37.2217 55.447 37.1538 55.4761 37.1538 55.515C37.1538 55.5538 37.2313 55.5732 37.3477 55.5829C37.4058 55.5829 37.4833 55.5829 37.5609 55.5829C37.6384 55.5829 37.7256 55.5538 37.8129 55.5344C38.1715 55.4567 38.5301 55.2333 38.7046 55.0973V55.0876Z" fill="#E04444"/>
<path d="M37.7357 53.0674C37.823 53.0092 37.6679 52.8343 37.6097 52.8635C37.4353 52.9703 37.0864 53.1451 36.7665 53.2326C36.6114 53.2908 36.4564 53.32 36.3498 53.3491C36.2431 53.3879 36.1753 53.4268 36.1753 53.4656C36.1753 53.5045 36.2528 53.5239 36.3788 53.5336C36.5048 53.5336 36.6696 53.5336 36.8441 53.4851C37.2027 53.4171 37.571 53.2034 37.7551 53.0869L37.7357 53.0674Z" fill="#E04444"/>
<path d="M36.5722 54.7088C36.6595 54.6603 36.5238 54.4563 36.4656 54.4952C36.0586 54.6991 34.9052 55.2333 34.9827 55.379C35.0506 55.5247 36.1749 54.9419 36.5722 54.7088Z" fill="#E04444"/>
<path d="M34.789 54.5243C34.8859 54.5049 34.8278 54.2718 34.7599 54.2815C34.3432 54.33 33.2189 54.4077 33.2286 54.5729C33.248 54.738 34.3722 54.5923 34.7793 54.5243H34.789Z" fill="#E04444"/>
<path d="M37.0472 57.0884C37.1344 57.0689 37.0569 56.8358 36.9987 56.8553C36.6014 56.9427 35.5062 57.1272 35.5352 57.2923C35.5643 57.4477 36.6498 57.2049 37.0472 57.0981V57.0884Z" fill="#E04444"/>
<path d="M39.4705 59.2057C39.5771 59.1862 39.5092 58.9531 39.4317 58.9629C38.9374 59.0405 37.5902 59.2251 37.6096 59.3805C37.6387 59.5456 38.9762 59.3028 39.4705 59.2057Z" fill="#E04444"/>
<path d="M40.8565 59.633C40.934 59.6136 40.8565 59.3805 40.7983 59.3999C40.4397 59.4873 39.4511 59.6816 39.4899 59.837C39.5286 59.9924 40.4979 59.7496 40.8468 59.6427L40.8565 59.633Z" fill="#E04444"/>
<path d="M36.1652 58.5841C36.2718 58.5646 36.1943 58.3413 36.1265 58.3413C35.9132 58.3704 35.4965 58.3898 35.1476 58.3121C35.0603 58.2927 34.9731 58.283 34.8956 58.2733C34.818 58.2538 34.7502 58.2344 34.692 58.2247C34.5757 58.2053 34.4885 58.2053 34.4691 58.2441C34.4497 58.283 34.5176 58.3315 34.6339 58.3995C34.692 58.4287 34.7599 58.4675 34.8374 58.4966C34.9149 58.5258 35.0119 58.5452 35.0991 58.5646C35.4771 58.6715 35.9326 58.6326 36.1652 58.5841Z" fill="#E04444"/>
<path d="M34.4015 56.6416C34.4694 56.6416 34.4694 56.3988 34.4209 56.3988C34.1301 56.3794 33.3354 56.2725 33.316 56.4376C33.3063 56.6028 34.1011 56.6416 34.4015 56.6416Z" fill="#E04444"/>
<path d="M32.6179 55.3207C32.6858 55.2916 32.5695 55.0779 32.5307 55.0973C32.4047 55.1362 32.1527 55.1944 31.9298 55.1653C31.8716 55.1653 31.8232 55.1653 31.7747 55.1556C31.7262 55.1459 31.6875 55.1362 31.639 55.1362C31.5615 55.1362 31.5033 55.1362 31.4839 55.175C31.4646 55.2139 31.5033 55.2527 31.5809 55.3013C31.6196 55.3207 31.6681 55.3498 31.7166 55.379C31.7747 55.3984 31.8329 55.4081 31.9007 55.4275C32.1624 55.4858 32.4725 55.4081 32.6179 55.3401V55.3207Z" fill="#E04444"/>
<path d="M32.938 57.2826C33.0253 57.2632 32.9284 57.0398 32.8702 57.0495C32.7054 57.0884 32.3856 57.1466 32.1045 57.1272C31.9688 57.1272 31.8331 57.1175 31.7362 57.1078C31.6393 57.1078 31.5715 57.1175 31.5618 57.1563C31.5521 57.1952 31.6005 57.234 31.6975 57.2826C31.7944 57.3312 31.9301 57.37 32.0851 57.3797C32.3953 57.4283 32.7539 57.3506 32.938 57.2923V57.2826Z" fill="#E04444"/>
<path d="M36.8826 60.2158C36.9601 60.1769 36.8148 59.9827 36.7663 60.0021C36.6015 60.0798 36.2914 60.1963 35.9909 60.1963C35.9231 60.1963 35.8455 60.2158 35.7874 60.2158C35.7195 60.2158 35.6614 60.2158 35.6129 60.2158C35.516 60.2158 35.4385 60.2352 35.4288 60.274C35.4191 60.3129 35.4772 60.3517 35.5839 60.3906C35.6323 60.41 35.7002 60.4294 35.768 60.4489C35.8358 60.4586 35.9231 60.4586 36.0006 60.4586C36.3398 60.478 36.6985 60.3226 36.8729 60.2255L36.8826 60.2158Z" fill="#E04444"/>
<path d="M33.529 59.5262C33.6259 59.5262 33.5871 59.2834 33.529 59.2834C33.3254 59.2834 32.9378 59.2639 32.6082 59.1668C32.4435 59.1377 32.2981 59.0891 32.1818 59.06C32.0655 59.0308 31.9879 59.0308 31.9685 59.06C31.9492 59.0988 32.0073 59.1474 32.1139 59.2154C32.2205 59.2834 32.3659 59.3513 32.5404 59.3999C32.8796 59.5165 33.3061 59.5262 33.529 59.5164V59.5262Z" fill="#E04444"/>
<path d="M30.6213 56.224C30.757 56.2628 30.7667 56.02 30.6891 55.9909C30.4178 55.9132 29.9138 55.7286 29.5164 55.4955C29.4195 55.447 29.3322 55.3984 29.2256 55.3401C29.1384 55.2819 29.0609 55.2333 28.993 55.2042C28.8573 55.1265 28.7604 55.0973 28.7313 55.1265C28.7022 55.1556 28.7701 55.243 28.8864 55.3499C28.9446 55.4081 29.0221 55.4664 29.0996 55.5344C29.1869 55.6024 29.2838 55.6509 29.3904 55.7189C29.7975 55.9812 30.3402 56.156 30.6213 56.224Z" fill="#E04444"/>
<path d="M30.505 57.943C30.6019 57.9819 30.6697 57.7488 30.6019 57.7197C30.1851 57.5351 29.0512 57.0009 28.9833 57.1466C28.9155 57.2923 30.0785 57.7876 30.505 57.943Z" fill="#E04444"/>
<path d="M28.2759 56.0103C28.3728 56.0297 28.3825 55.7869 28.3244 55.7675C28.1208 55.7286 27.7428 55.6218 27.4424 55.4664C27.2873 55.3984 27.1516 55.3207 27.045 55.2721C26.9384 55.2236 26.8608 55.2042 26.8415 55.2333C26.8124 55.2624 26.8608 55.3304 26.9481 55.4178C27.0353 55.5052 27.171 55.6121 27.3261 55.6898C27.6362 55.8743 28.053 55.9714 28.2759 56.0103Z" fill="#E04444"/>
<path d="M26.512 57.302C26.5799 57.3409 26.6962 57.1272 26.6477 57.0981C26.357 56.9038 25.5816 56.3308 25.4944 56.4668C25.4071 56.6028 26.2116 57.1272 26.512 57.302Z" fill="#E04444"/>
<path d="M28.5764 57.8556C28.6345 57.8945 28.7702 57.7002 28.7411 57.6711C28.5182 57.4768 27.9367 56.9038 27.8301 57.0301C27.7235 57.1563 28.3438 57.6808 28.5861 57.8556H28.5764Z" fill="#E04444"/>
<path d="M30.0689 59.3999C30.1465 59.4291 30.2143 59.196 30.1658 59.1765C29.8363 59.0406 28.9543 58.6326 28.8865 58.7783C28.8283 58.924 29.7297 59.2834 30.0689 59.3999Z" fill="#E04444"/>
<path d="M48.2222 11.4462L56.9451 16.3024V14.3599L51.6144 9.01813C50.0637 9.01813 48.5452 10.6369 48.2222 11.4462Z" fill="#FFBAA9" stroke="#FFBAA9"/>
<path d="M56.9453 17.7593C57.0444 16.692 56.2152 15.3342 55.4915 13.8743C55.1402 13.147 54.5035 12.4524 53.9043 11.8603C53.3051 11.2683 52.6063 10.8081 51.9076 10.4374C50.5008 9.69817 49.056 9.45519 48.0615 9.44953C48.0426 9.45377 48.0236 9.45802 47.9932 9.45491C47.8682 9.56258 47.7906 9.65963 47.7865 9.73022C47.7971 9.77761 47.8077 9.82499 47.8204 9.88186C47.8909 9.88595 47.9634 9.89952 48.0528 9.89937C48.9884 9.9083 50.3576 10.1683 51.6855 10.8655C52.3494 11.2141 53.0062 11.6638 53.5643 12.2054C54.1245 12.7565 54.5857 13.2413 55.0069 13.8743C55.9761 15.3312 56.973 16.7279 56.9453 17.7593C56.9281 18.7485 57.373 18.1681 57.4299 18.2449C57.5066 18.1879 56.8545 18.775 56.9453 17.7593Z" fill="#F7827F"/>
<path d="M54.7983 15.6526C55.6567 16.5018 56.2171 17.5193 56.6122 18.3122C57.039 19.1207 57.3088 19.7428 57.8136 19.7446C58.0593 19.7438 58.2751 19.5755 58.4612 19.2397C58.6289 18.9137 58.7625 18.4119 58.7652 17.8177C58.7921 16.7364 58.3691 15.4359 57.4297 14.1446C56.6512 13.8243 55.3268 14.8335 54.78 15.6623L54.7983 15.6526Z" fill="black"/>
</svg>
