<svg width="136" height="107" viewBox="0 0 136 107" fill="none" xmlns="http://www.w3.org/2000/svg">
<path d="M125.002 100.616C125.002 103.926 106.869 106.616 84.502 106.616C62.1344 106.616 44.002 103.932 44.002 100.616C44.002 97.2988 62.1344 94.6155 84.502 94.6155C106.869 94.6155 125.002 97.2988 125.002 100.616Z" fill="#A2BC5C"/>
<path d="M26.7721 21.0905C27.0721 21.6005 27.6121 21.9005 28.1421 22.1605C28.8821 22.5205 29.6521 22.8205 30.4321 23.0605C30.8721 23.2005 31.3421 23.3205 31.8021 23.2305C32.2621 23.1405 32.7021 22.8005 32.7421 22.3405C32.2621 21.6705 31.8721 20.9305 31.6121 20.1505C31.3721 19.4405 31.2321 18.6805 30.9021 18.0105C30.5721 17.3305 30.0021 16.7105 29.2621 16.5805C28.5521 16.4505 27.8021 16.8105 27.3321 17.3605C26.8621 17.9105 26.6421 18.6405 26.5421 19.3605C26.4621 19.9505 26.4721 20.5805 26.7721 21.0905Z" fill="#55626D"/>
<path d="M45.5921 17.4805C46.4821 17.4005 47.2321 18.1205 47.7221 18.8605C48.1421 19.4905 48.4921 20.2805 48.2321 20.9905C48.0021 21.6205 47.3721 21.9905 46.7921 22.3205C45.9221 22.8005 45.0321 23.3005 44.0521 23.5105C43.0721 23.7205 41.9821 23.6105 41.2021 22.9805C42.0421 22.5605 42.7421 21.8605 43.1421 21.0105C43.4721 20.3305 43.6121 19.5705 43.9321 18.8805C44.2521 18.1905 44.8421 17.5505 45.5921 17.4805Z" fill="#6A7984"/>
<path d="M42.792 23.0606C43.932 22.1006 44.822 20.8506 45.362 19.4606C45.492 19.1306 45.602 18.7806 45.842 18.5106C46.072 18.2406 46.462 18.0606 46.792 18.1906C47.102 18.3106 47.262 18.6606 47.392 18.9706C47.612 19.4906 47.832 20.0706 47.662 20.6206C47.512 21.1006 47.092 21.4406 46.672 21.7206C45.512 22.4706 44.172 22.9406 42.792 23.0606Z" fill="#55626D"/>
<path d="M104.902 98.9305C104.542 102.111 89.232 101.111 89.232 98.9305C89.232 84.9305 86.622 46.5605 97.072 46.5605C107.522 46.5605 106.482 84.9305 104.902 98.9305Z" fill="#55626D"/>
<path d="M98.1619 96.6105C97.2919 96.6105 96.5419 97.3905 96.1419 98.5405C95.8019 97.1705 94.9719 96.1905 94.0019 96.1905C93.1119 96.1905 92.3419 97.0105 91.9619 98.2005C91.6519 96.7305 90.7919 95.6605 89.7819 95.6605C89.5819 95.6605 89.3819 95.7105 89.1919 95.7905C89.2119 96.9305 89.2219 97.9805 89.2219 98.9205C89.2219 100.351 95.8019 101.271 100.432 100.841C100.442 100.681 100.452 100.511 100.452 100.341C100.452 98.2805 99.4219 96.6105 98.1519 96.6105H98.1619Z" fill="#6A7984"/>
<path d="M66.1921 98.9305C65.8321 102.111 50.5221 101.111 50.5221 98.9305C50.5221 84.9305 47.9121 46.5605 58.3621 46.5605C68.8121 46.5605 67.7721 84.9305 66.1921 98.9305Z" fill="#55626D"/>
<path d="M59.4519 96.6105C58.5819 96.6105 57.8319 97.3905 57.4319 98.5405C57.0919 97.1705 56.2619 96.1905 55.2919 96.1905C54.4019 96.1905 53.6319 97.0105 53.2519 98.2005C52.9419 96.7305 52.0819 95.6605 51.0719 95.6605C50.8719 95.6605 50.6719 95.7105 50.4819 95.7905C50.5019 96.9305 50.5119 97.9805 50.5119 98.9205C50.5119 100.351 57.0919 101.271 61.7219 100.841C61.7319 100.681 61.7419 100.511 61.7419 100.341C61.7419 98.2805 60.7119 96.6105 59.4419 96.6105H59.4519Z" fill="#6A7984"/>
<path d="M81.592 100.201C81.232 103.381 65.922 102.381 65.922 100.201C65.922 86.2005 63.312 47.8305 73.762 47.8305C84.212 47.8305 83.172 86.2005 81.592 100.201Z" fill="#667681"/>
<path d="M74.8518 97.8805C73.9818 97.8805 73.2318 98.6605 72.8318 99.8105C72.4918 98.4405 71.6618 97.4605 70.6918 97.4605C69.8018 97.4605 69.0318 98.2805 68.6518 99.4705C68.3418 98.0005 67.4818 96.9305 66.4718 96.9305C66.2718 96.9305 66.0718 96.9805 65.8818 97.0605C65.9018 98.2005 65.9118 99.2505 65.9118 100.191C65.9118 101.621 72.4918 102.541 77.1218 102.111C77.1318 101.951 77.1418 101.781 77.1418 101.611C77.1418 99.5505 76.1118 97.8805 74.8418 97.8805H74.8518Z" fill="#8EA3AF"/>
<path d="M120.302 100.201C119.942 103.381 104.632 102.381 104.632 100.201C104.632 86.2005 102.022 47.8305 112.472 47.8305C122.922 47.8305 121.882 86.2005 120.302 100.201Z" fill="#667681"/>
<path d="M113.562 97.8805C112.692 97.8805 111.942 98.6605 111.542 99.8105C111.202 98.4405 110.372 97.4605 109.402 97.4605C108.512 97.4605 107.742 98.2805 107.362 99.4705C107.052 98.0005 106.192 96.9305 105.182 96.9305C104.982 96.9305 104.782 96.9805 104.592 97.0605C104.612 98.2005 104.622 99.2505 104.622 100.191C104.622 101.621 111.202 102.541 115.832 102.111C115.842 101.951 115.852 101.781 115.852 101.611C115.852 99.5505 114.822 97.8805 113.552 97.8805H113.562Z" fill="#8EA3AF"/>
<path d="M115.242 81.9805C135.442 82.0105 129.172 32.4105 121.382 23.7305C116.032 17.7705 108.052 14.9105 100.212 13.2705C89.7521 11.0705 78.6121 10.6905 68.5821 14.3905C58.5521 18.0905 49.8321 26.4005 47.6321 36.8605C47.3921 32.9405 47.1221 28.9005 45.3121 25.4105C43.5121 21.9205 39.7521 19.1305 35.8721 19.7305C32.3621 20.2705 29.7221 23.4205 28.7021 26.8205C27.6821 30.2205 27.9721 33.8505 28.2721 37.3905C23.1521 32.3605 14.4221 31.5605 8.47209 35.5605C4.48209 38.2505 2.02209 42.9105 1.67209 47.6805C-0.317909 48.3705 -0.527909 51.0205 1.02209 51.1805C2.38209 51.3205 2.30209 53.5605 2.72209 54.5905C4.87209 59.8105 9.74209 63.5305 15.0221 65.5505C20.2921 67.5605 26.0121 68.0805 31.6421 68.5005C35.4221 68.7805 39.2021 69.0205 42.9921 69.2305C47.2321 69.4705 42.8821 78.1205 56.8821 80.8405C70.8821 83.5605 95.0421 81.9505 115.242 81.9805Z" fill="#667681"/>
<path d="M77.3319 17.3605C76.9719 17.3905 76.5219 17.4405 76.0219 17.5305C75.5119 17.6305 74.9619 17.7605 74.4019 17.9305C73.8519 18.0905 73.2919 18.3305 72.7819 18.5905C72.2719 18.8605 71.8219 19.1605 71.4619 19.5205C70.7519 20.2405 71.3119 20.9705 72.1419 21.5105C72.9819 22.0705 74.1019 22.4905 74.7119 22.4605C75.3219 22.4605 76.0919 22.4505 76.8719 22.3905C77.6519 22.3505 78.4419 22.2005 79.1219 21.9405C79.8019 21.6705 80.4119 21.1705 80.7919 20.6105C81.1719 20.0405 81.3219 19.3805 81.0419 18.7705C80.9119 18.4905 80.7119 18.2405 80.4619 18.0405C80.2019 17.8505 79.9019 17.6905 79.5619 17.5805C79.2219 17.4705 78.8519 17.3905 78.4719 17.3505C78.0919 17.3105 77.7019 17.3205 77.3319 17.3505V17.3605Z" fill="#8EA3AF"/>
<path d="M81.2022 26.4105C81.4722 26.9305 81.8822 27.3405 82.3722 27.6505C82.8522 27.9705 83.4022 28.2105 83.9522 28.3405C84.3522 28.4405 84.7722 28.5205 85.1822 28.5205C85.5922 28.5205 86.0022 28.4505 86.3922 28.2905C87.1522 27.9705 88.4422 27.5605 87.6722 26.3005C86.8822 25.0305 84.4322 25.0305 82.6922 24.7505C82.1922 24.6705 81.5922 24.6405 81.2422 24.9905C80.8922 25.3505 80.9722 25.9405 81.2022 26.3805V26.4105Z" fill="#8EA3AF"/>
<path d="M85.6523 21.4605C85.9323 21.7805 86.3123 21.9705 86.7323 22.1005C87.1523 22.2405 87.6123 22.3005 88.0523 22.3405C88.4623 22.3705 88.8523 22.4205 89.2423 22.4105C89.6323 22.4105 90.0223 22.3605 90.3823 22.2305C90.7523 22.1105 91.2523 21.6405 91.5723 21.0705C91.8923 20.4905 92.0323 19.8105 91.6423 19.2305C90.8423 18.0705 89.7823 18.4405 88.7823 18.3105C87.7423 18.2005 86.6223 18.3905 85.9023 19.0305C85.1823 19.6605 85.0323 20.7605 85.6523 21.4605Z" fill="#8EA3AF"/>
<path d="M67.0821 42.5205C67.7221 42.8105 68.2221 42.5405 68.6821 42.2805C68.8821 42.1605 69.0721 42.0005 69.2621 41.8405C69.4421 41.6805 69.6021 41.4805 69.7121 41.2205C69.7721 41.0905 69.7921 40.8705 69.7921 40.6105C69.7921 40.3505 69.7721 40.0505 69.7121 39.7405C69.5921 39.1205 69.3221 38.4705 68.7921 38.1405C68.2621 37.8105 67.9021 37.8805 67.5921 38.0305C67.4421 38.1105 67.3021 38.2205 67.1621 38.3305C67.0321 38.4505 66.8921 38.5705 66.7421 38.6605C66.4421 38.8505 66.1621 39.0805 65.9821 39.4005C65.8021 39.7205 65.7021 40.0805 65.7121 40.4805C65.7421 41.2805 66.3621 42.1905 67.0721 42.5105L67.0821 42.5205Z" fill="#8EA3AF"/>
<path d="M87.1121 33.8205C86.6221 34.5005 86.7821 35.5405 87.2721 36.1705C87.7621 36.7905 88.4821 37.0405 89.1921 37.1105C89.5521 37.1505 89.7121 37.1605 89.9821 37.1905C90.2521 37.2205 90.6021 37.2605 91.3421 37.3505C91.7121 37.4005 92.1221 37.3605 92.5021 37.2705C92.8821 37.1805 93.2221 37.0405 93.4621 36.8405C93.9321 36.4405 93.9521 35.7905 92.8521 35.0405L91.3821 34.3405L90.6421 33.9905L90.2721 33.8105L89.8921 33.6605C89.4321 33.4705 88.9621 33.2805 88.4621 33.2605C87.9621 33.2405 87.4321 33.4005 87.1121 33.8305V33.8205Z" fill="#8EA3AF"/>
<path d="M99.7323 33.3005C99.2423 32.9205 98.7323 32.5805 98.1723 32.3105C97.8923 32.1805 97.6023 32.0605 97.3123 31.9705C97.0123 31.8805 96.7023 31.8305 96.3723 31.7905C95.0823 31.6405 95.6223 33.7505 96.1423 34.5505C96.6723 35.3505 97.5523 35.7905 98.4123 36.1005C98.7423 36.2205 99.1323 36.3105 99.4923 36.3105C99.8523 36.3105 100.192 36.2005 100.452 35.9005C100.782 35.5105 100.822 34.9105 100.642 34.4405C100.462 33.9705 100.112 33.6005 99.7223 33.3105L99.7323 33.3005Z" fill="#8EA3AF"/>
<path d="M77.732 39.0105C77.152 39.0305 76.602 39.1605 76.072 39.3705C75.802 39.4705 75.562 39.6205 75.322 39.7805C75.082 39.9505 74.852 40.1205 74.652 40.3605C74.242 40.8205 74.482 41.3805 74.902 41.8705C75.312 42.3505 75.912 42.8005 76.302 42.9405C77.072 43.2305 77.812 42.9205 78.542 42.5305C78.822 42.3705 79.132 42.1805 79.372 41.8905C79.612 41.6105 79.792 41.2405 79.802 40.7705C79.822 40.1605 79.502 39.5905 79.092 39.3005C78.892 39.1605 78.662 39.0705 78.442 39.0205C78.222 38.9805 77.992 38.9805 77.762 38.9905L77.732 39.0105Z" fill="#8EA3AF"/>
<path d="M94.552 47.5305C95.152 47.6105 95.752 47.6505 96.392 47.5505C96.782 47.4805 98.592 46.6905 98.092 45.7505C97.972 45.5205 97.572 45.2105 97.042 44.9005C96.772 44.7405 96.472 44.5905 96.162 44.4405C95.842 44.3005 95.512 44.1505 95.172 44.0205C94.832 43.8905 94.492 43.7705 94.162 43.6605C93.832 43.5605 93.522 43.4905 93.242 43.4405C92.672 43.3405 92.222 43.3205 92.012 43.4205C91.152 43.8505 91.352 44.9005 91.542 45.6105C91.742 46.3205 92.212 46.8205 92.752 47.0705C93.022 47.1905 93.322 47.3005 93.622 47.3605C93.922 47.4305 94.232 47.4705 94.542 47.5105L94.552 47.5305Z" fill="#8EA3AF"/>
<path d="M103.962 46.2805C104.572 46.5205 105.192 46.6705 105.842 46.8305C106.212 46.9205 106.612 47.0105 106.972 46.8405C107.362 46.6705 108.802 45.0505 107.752 44.4805C107.492 44.3405 107.102 44.1005 106.652 43.8405C106.212 43.5805 105.702 43.2905 105.192 43.0205C104.682 42.7505 104.162 42.5005 103.702 42.3505C103.242 42.2005 102.842 42.1205 102.552 42.1805C101.402 42.4205 101.732 43.9205 102.102 44.7105C102.282 45.1105 102.552 45.4105 102.882 45.6705C103.212 45.9305 103.592 46.1305 103.972 46.2805H103.962Z" fill="#8EA3AF"/>
<path d="M74.8319 35.8505C75.1019 35.7105 75.3719 35.5805 75.6419 35.4305C75.9119 35.2805 76.1819 35.1205 76.4519 34.9505C76.7619 34.7705 77.0919 34.5805 77.2619 34.2205C77.4319 33.8305 77.5719 31.6505 76.4019 31.9105C76.1119 31.9705 75.6719 32.0705 75.1619 32.1905C74.9119 32.2505 74.6319 32.3005 74.3619 32.3905C74.0819 32.4705 73.8019 32.5605 73.5319 32.6505C72.9719 32.8205 72.4419 33.0705 72.0119 33.3005C71.5819 33.5305 71.2519 33.8105 71.1119 34.0805C70.8219 34.6105 71.0219 35.0505 71.3719 35.4005C71.7219 35.7505 72.2219 35.9705 72.6119 36.1205C73.0019 36.2605 73.3819 36.2705 73.7519 36.2005C74.1319 36.1505 74.5019 36.0205 74.8519 35.8605L74.8319 35.8505Z" fill="#8EA3AF"/>
<path d="M107.892 31.4405C107.702 32.2605 108.432 32.9305 109.102 33.3505C110.172 34.0005 111.232 34.8205 112.462 34.9505C113.692 35.0805 114.732 33.3005 113.332 32.9205C111.922 32.5405 111.922 31.8505 111.212 31.3205C110.682 30.9305 110.122 30.5305 109.472 30.4505C108.822 30.3805 108.052 30.7605 107.902 31.4405H107.892Z" fill="#8EA3AF"/>
<path d="M81.7623 41.8406C81.8923 42.2206 82.1323 42.4206 82.4123 42.5106C82.6923 42.6106 83.0123 42.6106 83.3023 42.5606C83.7623 42.4806 84.2423 42.4705 84.7223 42.3605C85.2023 42.2706 85.6723 42.1306 86.1123 41.8206C86.5723 41.5306 86.8223 40.8706 86.8023 40.3406C86.7823 39.8106 86.4823 39.3906 85.9123 39.6606C84.7723 40.1706 84.4823 39.6506 83.7623 39.6506C83.2423 39.6806 82.6923 39.7006 82.2523 40.0606C81.8123 40.4306 81.5423 41.2206 81.7623 41.8406Z" fill="#8EA3AF"/>
<path d="M29.6118 32.4505C28.7518 32.8105 27.6718 32.6205 27.0218 31.9505C26.3718 31.2805 26.2418 30.1505 26.7618 29.3705C27.0918 28.8805 27.6618 28.5505 28.2618 28.5205C28.8518 28.4805 29.4618 28.7305 29.8518 29.1805C30.1818 29.5505 30.3618 30.0405 30.4818 30.5205C30.5718 30.8905 30.6318 31.2905 30.4818 31.6405C30.3318 32.0305 29.9818 32.3005 29.6018 32.4605L29.6118 32.4505Z" fill="#6A7984"/>
<path d="M43.0818 30.3905C43.5018 31.0005 43.5318 31.8805 43.1218 32.5005C42.7018 33.1205 41.8418 33.4105 41.1518 33.1305C40.7118 32.9505 40.3618 32.5605 40.2418 32.1005C40.1118 31.6405 40.2118 31.1305 40.4918 30.7505C40.7318 30.4305 41.0718 30.2105 41.4418 30.0405C41.7118 29.9105 42.0118 29.8005 42.3118 29.8505C42.6318 29.9005 42.9018 30.1305 43.0918 30.4005L43.0818 30.3905Z" fill="white"/>
<path d="M41.0196 31.4147C40.9396 31.1047 41.1396 30.7547 41.4496 30.6547C41.7496 30.5447 42.1096 30.6747 42.2996 30.9447C42.5396 31.2947 42.4296 31.8347 42.0796 32.0547C41.7196 32.2847 41.1296 31.8347 41.0296 31.4247L41.0196 31.4147Z" fill="black"/>
<path d="M29.382 32.0805C28.692 32.3705 27.832 32.2205 27.312 31.6805C26.792 31.1405 26.692 30.2405 27.102 29.6205C27.372 29.2305 27.822 28.9705 28.292 28.9405C28.762 28.9105 29.252 29.1105 29.562 29.4605C29.832 29.7605 29.972 30.1405 30.062 30.5305C30.132 30.8205 30.182 31.1405 30.062 31.4205C29.942 31.7305 29.662 31.9405 29.362 32.0705L29.382 32.0805Z" fill="white"/>
<path d="M28.6817 29.7105C29.0217 29.7005 29.3317 29.9805 29.3717 30.3105C29.4117 30.6405 29.2017 30.9905 28.8917 31.1205C28.4817 31.2905 27.9517 31.0705 27.8017 30.6505C27.6417 30.2405 28.2317 29.7205 28.6817 29.7105Z" fill="black"/>
<path d="M121.812 36.1405C121.722 35.8405 121.842 35.5705 122.062 35.3905C122.282 35.2005 122.612 35.0805 122.952 35.0205C123.292 34.9505 123.642 34.9405 123.922 34.9805C124.192 35.0205 124.402 35.1005 124.452 35.2505C124.792 36.2605 125.542 37.7405 126.612 39.2505C127.672 40.7605 129.012 42.3205 130.372 43.6005C131.722 44.9005 133.092 45.9005 134.122 46.5505C134.642 46.8805 135.072 47.1405 135.372 47.3805C135.672 47.6105 135.852 47.8305 135.822 48.0605C135.792 48.2905 135.552 48.4605 135.122 48.5505C134.692 48.6305 134.062 48.6105 133.342 48.4405C132.612 48.2705 131.792 47.9505 130.962 47.4905C130.132 47.0305 129.272 46.4405 128.452 45.7605C126.812 44.4005 125.312 42.6805 124.152 40.9505C122.992 39.2305 122.192 37.4905 121.822 36.1505L121.812 36.1405Z" fill="#6A7984"/>
<path d="M25.4721 37.7405C24.6121 38.1005 23.5321 37.9105 22.8821 37.2405C22.2321 36.5705 22.1021 35.4405 22.6221 34.6605C22.9521 34.1705 23.5221 33.8405 24.1221 33.8105C24.7121 33.7705 25.3221 34.0205 25.7121 34.4705C26.0421 34.8405 26.2221 35.3305 26.3421 35.8105C26.4321 36.1805 26.4921 36.5805 26.3421 36.9305C26.1921 37.3205 25.8421 37.5905 25.4621 37.7505L25.4721 37.7405Z" fill="#6A7984"/>
<path d="M25.0121 36.9805C24.5021 37.1905 23.8521 37.0805 23.4721 36.6805C23.0921 36.2805 23.0021 35.6005 23.3221 35.1405C23.5221 34.8505 23.8621 34.6505 24.2121 34.6305C24.5621 34.6105 24.9221 34.7605 25.1621 35.0205C25.3621 35.2405 25.4721 35.5305 25.5421 35.8205C25.5921 36.0405 25.6321 36.2805 25.5421 36.4905C25.4521 36.7205 25.2421 36.8805 25.0221 36.9805H25.0121Z" fill="#55626D"/>
<path d="M8.74215 37.7405C7.88215 38.1005 6.80215 37.9105 6.15215 37.2405C5.50215 36.5705 5.37215 35.4405 5.89215 34.6605C6.22215 34.1705 6.79215 33.8405 7.39215 33.8105C7.98215 33.7705 8.59215 34.0205 8.98215 34.4705C9.31215 34.8405 9.49215 35.3305 9.61215 35.8105C9.70215 36.1805 9.76215 36.5805 9.61215 36.9305C9.46215 37.3205 9.11215 37.5905 8.73215 37.7505L8.74215 37.7405Z" fill="#6A7984"/>
<path d="M8.27198 36.9905C7.76198 37.2005 7.11198 37.0905 6.73198 36.6905C6.34198 36.2905 6.26198 35.6105 6.58198 35.1505C6.78198 34.8605 7.12198 34.6605 7.47198 34.6405C7.82198 34.6205 8.18198 34.7705 8.42198 35.0305C8.62198 35.2505 8.73198 35.5405 8.80198 35.8305C8.85198 36.0505 8.89198 36.2905 8.80198 36.5005C8.71198 36.7305 8.50198 36.8905 8.28198 36.9905H8.27198Z" fill="#55626D"/>
<path d="M40.3321 42.8905C40.2321 42.8905 40.1821 43.4405 40.1021 44.3905C40.0721 44.8705 40.0121 45.4405 39.9021 46.1005C39.8721 46.2605 39.8321 46.4305 39.8021 46.6005C39.7721 46.7705 39.7321 46.9505 39.6721 47.1205C39.5721 47.4705 39.4321 47.8305 39.2621 48.2005C39.0821 48.5605 38.8721 48.9205 38.6021 49.2405C38.3421 49.5805 38.0121 49.8705 37.6421 50.1105C36.8921 50.6005 35.9121 50.8405 34.8521 50.9305C32.6921 51.0605 30.2621 50.9305 27.8521 50.3505C27.2421 50.2305 26.6421 50.0405 26.0421 49.8605C25.7421 49.7705 25.4421 49.6505 25.1421 49.5505C24.8421 49.4405 24.5421 49.3405 24.2521 49.2105C23.0621 48.7505 21.9221 48.1405 20.7621 47.5305C18.4521 46.3105 16.1121 44.9305 13.4721 44.4805C12.1721 44.2705 10.9121 44.2705 9.70213 44.3505C9.10213 44.3905 8.51213 44.4705 7.94213 44.5505C7.37213 44.6505 6.82213 44.7405 6.28213 44.8705C5.74213 44.9805 5.23213 45.1405 4.73213 45.2705C4.24213 45.4305 3.76213 45.5705 3.31213 45.7405C2.78213 45.9205 2.29213 46.1305 1.83213 46.3405C1.76213 46.7705 1.71213 47.2105 1.68213 47.6405C2.29213 47.3605 2.95213 47.0605 3.70213 46.8105C4.13213 46.6505 4.59213 46.5205 5.06213 46.3705C5.54213 46.2505 6.03213 46.1005 6.54213 46.0005C7.05213 45.8805 7.58213 45.8005 8.12213 45.7005C8.66213 45.6305 9.22213 45.5605 9.79213 45.5205C10.9221 45.4505 12.1121 45.4605 13.2821 45.6505C13.5721 45.7105 13.8721 45.7405 14.1521 45.8305C14.4421 45.9105 14.7221 45.9805 15.0121 46.0905C15.3021 46.2005 15.5921 46.2905 15.8821 46.4205C16.1721 46.5405 16.4621 46.6705 16.7521 46.7905C17.9021 47.3205 19.0421 47.9505 20.2121 48.5705C21.3821 49.1805 22.5721 49.8205 23.8221 50.2905C24.1321 50.4205 24.4421 50.5305 24.7621 50.6405C25.0821 50.7505 25.3921 50.8705 25.7121 50.9605C26.3521 51.1405 26.9821 51.3305 27.6221 51.4505C30.1721 52.0305 32.6821 52.1305 34.9821 51.9405C36.1321 51.8205 37.2821 51.5105 38.1921 50.8705C38.6421 50.5505 39.0321 50.1705 39.3221 49.7605C39.6321 49.3605 39.8521 48.9305 40.0321 48.5105C40.2021 48.0905 40.3321 47.6805 40.4221 47.2805C40.4721 47.0805 40.5021 46.8905 40.5221 46.7005C40.5421 46.5105 40.5721 46.3305 40.5921 46.1605C40.6421 45.4605 40.6421 44.8605 40.6121 44.3705C40.5521 43.4005 40.4421 42.8705 40.3521 42.8705L40.3321 42.8905Z" fill="#55626D"/>
<path d="M76.532 12.9305C76.442 12.9205 76.322 12.9105 76.192 12.9105C76.192 12.9105 76.192 12.9105 76.182 12.9105C76.232 12.4805 76.222 10.2705 76.222 10.2705L75.822 10.0405C75.822 10.0405 75.912 12.4205 75.892 12.8705C75.862 12.8705 75.462 12.7605 75.342 12.7505C75.202 12.7505 74.872 12.7305 74.782 12.8805C74.702 13.0105 75.092 13.0405 75.152 13.0505C75.012 13.0905 74.692 13.1705 74.642 13.3305C74.602 13.4705 75.222 13.3305 75.282 13.3305C75.262 13.3505 75.252 13.3705 75.242 13.3805C75.202 13.4305 75.042 13.6905 75.212 13.6905C75.362 13.6905 75.542 13.4905 75.662 13.4105C75.692 13.3905 75.732 13.3605 75.762 13.3405C75.812 13.3105 75.872 13.2705 75.922 13.2405C76.032 13.2405 76.142 13.2305 76.252 13.2305C76.312 13.2305 76.482 13.2705 76.532 13.2305C76.602 13.1905 76.652 12.9505 76.532 12.9405C76.442 12.9305 76.652 12.9505 76.532 12.9405V12.9305Z" fill="#543622"/>
<path d="M79.5422 12.9305C79.4522 12.9205 79.3322 12.9105 79.2022 12.9105C79.2022 12.9105 79.2022 12.9105 79.1922 12.9105C79.2422 12.4805 79.2322 10.2705 79.2322 10.2705L78.8322 10.0405C78.8322 10.0405 78.9222 12.4205 78.9022 12.8705C78.8722 12.8705 78.4722 12.7605 78.3522 12.7505C78.2122 12.7505 77.8822 12.7305 77.7922 12.8805C77.7122 13.0105 78.1022 13.0405 78.1622 13.0505C78.0222 13.0905 77.7022 13.1705 77.6522 13.3305C77.6022 13.4705 78.2322 13.3305 78.2922 13.3305C78.2722 13.3505 78.2622 13.3705 78.2522 13.3805C78.2122 13.4305 78.0522 13.6905 78.2222 13.6905C78.3722 13.6905 78.5522 13.4905 78.6722 13.4105C78.7022 13.3905 78.7422 13.3605 78.7722 13.3405C78.8222 13.3105 78.8822 13.2705 78.9322 13.2405C79.0422 13.2405 79.1522 13.2305 79.2622 13.2305C79.3222 13.2305 79.4922 13.2705 79.5422 13.2305C79.6122 13.1905 79.6622 12.9505 79.5422 12.9405C79.4522 12.9305 79.6622 12.9505 79.5422 12.9405V12.9305Z" fill="#543622"/>
<path d="M85.962 8.43052C85.402 8.28052 84.612 8.53052 84.042 8.55052C84.612 8.44052 86.192 7.96052 86.112 7.15052C86.072 6.75052 85.412 7.29052 85.332 7.35052C84.882 7.71052 84.382 7.97052 83.832 8.14052C84.332 7.89052 85.722 7.06052 85.512 6.34052C85.412 6.00052 83.822 7.60052 83.592 7.77052C83.972 7.37052 84.372 6.77052 84.412 6.20052C84.462 5.51052 83.922 5.91052 83.792 6.31052C83.632 6.80052 83.412 7.29052 83.092 7.69052C83.032 7.76052 82.332 8.27052 82.352 8.35052C82.412 8.39052 82.472 8.40052 82.552 8.39052C82.502 8.40052 82.452 8.46052 82.462 8.51052C82.472 8.55052 82.682 8.54052 82.722 8.55052C82.612 8.63052 84.502 9.07052 84.702 9.08052C85.032 9.10052 85.392 9.08052 85.712 9.00052C85.962 8.94052 86.412 8.57052 85.952 8.45052L85.962 8.43052Z" fill="#543622"/>
<path d="M73.872 1.78054C73.742 2.36054 73.652 2.95054 73.572 3.55054C73.432 4.65054 73.292 5.75054 73.432 6.85054C73.572 7.95054 74.022 9.04054 74.882 9.74054C75.702 10.4005 76.792 10.6305 77.842 10.6805C79.752 10.7705 81.722 10.3305 83.302 9.25054C83.552 9.08054 83.812 8.86054 83.872 8.57054C83.952 8.15054 83.632 7.77054 83.302 7.49054C82.112 6.46054 80.612 5.73054 79.742 4.42054C79.232 3.65054 78.672 1.97054 78.172 1.21054C77.332 -0.0794605 74.472 -0.869461 73.872 1.79054V1.78054Z" fill="#72543F"/>
<path d="M77.6821 4.48052C77.6221 4.74052 77.5821 5.00052 77.5521 5.26052C77.4921 5.75052 77.4221 6.24052 77.4921 6.72052C77.5521 7.21052 77.7521 7.69052 78.1321 8.00052C78.4921 8.29052 78.9821 8.39052 79.4421 8.42052C80.2921 8.46052 81.1621 8.27052 81.8621 7.78052C81.9721 7.70052 82.0921 7.61052 82.1121 7.48052C82.1521 7.30052 82.0021 7.13052 81.8621 7.00052C81.3321 6.55052 80.6721 6.22052 80.2821 5.64052C80.0521 5.30052 79.9421 4.89052 79.7021 4.57052C79.4221 4.19052 78.9821 3.94052 78.5121 3.90052C78.2721 3.88052 78.0021 3.92052 77.8421 4.10052C77.7521 4.21052 77.7021 4.35052 77.6721 4.48052H77.6821Z" fill="#543622"/>
<path d="M74.1922 1.67054C74.3422 1.82054 74.3522 2.05054 74.2122 2.21054C74.1422 2.30054 74.0222 2.36054 73.8922 2.36054C73.7222 2.36054 73.6022 2.22054 73.5622 2.08054C73.5222 1.97054 73.5222 1.84054 73.5922 1.73054C73.6622 1.62054 73.8022 1.54054 73.9422 1.56054C74.0322 1.56054 74.1222 1.62054 74.1822 1.68054L74.1922 1.67054Z" fill="#72543F"/>
<path d="M77.4921 1.98055C77.6121 2.10055 77.6221 2.30055 77.5121 2.43055C77.4521 2.50055 77.3521 2.56055 77.2421 2.55055C77.1021 2.55055 77.0021 2.43055 76.9621 2.32055C76.9321 2.22055 76.9321 2.11055 76.9921 2.02055C77.0521 1.93055 77.1721 1.86055 77.2921 1.87055C77.3721 1.87055 77.4421 1.92055 77.4921 1.97055V1.98055Z" fill="white"/>
<path d="M77.2724 2.33055C77.2724 2.33055 77.2424 2.40055 77.2124 2.42055C77.1524 2.46055 77.0724 2.46055 77.0224 2.41055C76.9724 2.36055 76.9524 2.28055 76.9824 2.22055C77.0124 2.16055 77.0924 2.12055 77.1624 2.14055C77.2324 2.16055 77.2824 2.27055 77.2724 2.34055V2.33055Z" fill="black"/>
<path d="M74.142 1.71053C74.262 1.83053 74.272 2.03053 74.162 2.16053C74.102 2.23053 74.002 2.29053 73.892 2.28053C73.752 2.28053 73.652 2.16053 73.612 2.05053C73.582 1.95053 73.582 1.84053 73.642 1.75053C73.702 1.66053 73.822 1.59053 73.942 1.60053C74.022 1.60053 74.092 1.65053 74.142 1.70053V1.71053Z" fill="white"/>
<path d="M73.952 2.08055C73.952 2.08055 73.922 2.15055 73.892 2.17055C73.832 2.21055 73.752 2.21055 73.702 2.16055C73.652 2.11055 73.632 2.03055 73.662 1.97055C73.692 1.91055 73.772 1.87055 73.842 1.89055C73.912 1.91055 73.962 2.02055 73.952 2.09055V2.08055Z" fill="black"/>
<path d="M80.6522 9.86055C80.0322 9.67055 79.4222 9.46055 78.8122 9.24055C78.2822 9.04055 77.7322 8.82055 77.3522 8.40055C76.8622 7.87055 76.7022 7.12055 76.4722 6.43055C76.3222 5.98055 76.1222 5.54055 75.8122 5.18055C75.5022 4.82055 75.0822 4.54055 74.6122 4.48055C74.1722 4.43055 73.6922 4.59055 73.4222 4.94055C73.3722 5.58055 73.3522 6.22055 73.4322 6.86055C73.5722 7.96055 74.0222 9.05055 74.8822 9.75055C75.7022 10.4106 76.7922 10.6406 77.8422 10.6906C79.0322 10.7506 80.2422 10.6006 81.3622 10.2206C81.1822 10.0506 80.9022 9.95055 80.6522 9.87055V9.86055Z" fill="#BC885E"/>
<path d="M76.372 1.68054C76.622 1.39054 76.942 1.14054 77.322 1.03054C77.562 0.960536 77.822 0.960536 78.062 1.03054C77.292 0.0805359 75.452 -0.499464 74.452 0.590536C74.452 0.600536 74.452 0.620536 74.452 0.630536C74.382 1.26054 74.452 1.90054 74.662 2.49054C75.022 2.48054 75.392 2.53054 75.742 2.64054C75.932 2.30054 76.122 1.96054 76.372 1.67054V1.68054Z" fill="#543622"/>
<path d="M74.9524 3.25055C74.7624 3.27055 74.5624 3.36055 74.4224 3.49055C74.4824 3.18055 74.7124 2.88055 74.9924 2.74055C75.2724 2.60055 75.6324 2.56055 75.9424 2.60055C75.9424 2.95055 75.7824 3.15055 75.6824 3.20055C75.5924 3.24055 75.4824 3.24055 75.3824 3.24055C75.2424 3.24055 75.0924 3.24055 74.9424 3.25055H74.9524Z" fill="#FC7F03"/>
<path d="M74.8723 2.16054C74.7123 2.19054 74.1323 2.44054 74.4223 3.49054C74.8523 3.03054 75.7023 2.85054 75.7823 2.81054C75.8623 2.77054 75.9323 2.70054 75.9423 2.62054C75.9723 2.48054 75.8423 2.36054 75.7223 2.30054C75.4623 2.16054 75.1623 2.11054 74.8723 2.16054Z" fill="#FFAA4D"/>
<path d="M75.5322 2.32055C75.4522 2.29055 75.3622 2.32055 75.3022 2.38055C75.2422 2.44055 75.2121 2.52055 75.2021 2.61055C75.2621 2.57055 75.3222 2.53055 75.3922 2.52055C75.4322 2.52055 75.4821 2.52055 75.5221 2.51055C75.5621 2.50055 75.6122 2.47055 75.6122 2.42055C75.6122 2.38055 75.5722 2.34055 75.5322 2.32055Z" fill="#FC7F03"/>
<path d="M74.8322 2.22055C74.8322 2.22055 74.7922 2.27055 74.7822 2.30055C74.7622 2.37055 74.7422 2.44055 74.7422 2.51055C74.8122 2.42055 74.8922 2.34055 75.0022 2.29055C75.0222 2.29055 75.0322 2.27055 75.0422 2.26055C75.0422 2.24055 75.0422 2.22055 75.0222 2.21055C75.0022 2.20055 74.9922 2.20055 74.9722 2.19055C74.9222 2.19055 74.8722 2.18055 74.8422 2.20055L74.8322 2.22055Z" fill="#FC7F03"/>
<path d="M73.9621 5.03052C73.9621 5.03052 74.0421 5.03052 74.0321 5.04052C74.0221 5.11052 74.0021 5.24052 74.0121 5.35052C74.0121 5.41052 74.0121 5.46052 74.0121 5.50052C74.0121 5.54052 74.0121 5.56052 73.9921 5.57052C73.9821 5.57052 73.9721 5.55052 73.9521 5.51052C73.9421 5.47052 73.9321 5.42052 73.9221 5.36052C73.9121 5.24052 73.9321 5.10052 73.9521 5.03052H73.9621Z" fill="#72543F"/>
<path d="M74.4923 5.34054C74.4923 5.34054 74.5723 5.32054 74.5623 5.34054C74.5623 5.42054 74.5423 5.58054 74.5623 5.71054C74.5623 5.74054 74.5623 5.78054 74.5723 5.81054C74.5723 5.84054 74.5823 5.87054 74.5823 5.89054C74.5823 5.94054 74.5823 5.97054 74.5823 5.97054C74.5723 5.97054 74.5523 5.95054 74.5323 5.90054C74.5323 5.88054 74.5123 5.85054 74.5023 5.82054C74.5023 5.79054 74.4923 5.76054 74.4823 5.72054C74.4523 5.58054 74.4623 5.42054 74.4823 5.33054L74.4923 5.34054Z" fill="#72543F"/>
<path d="M73.6021 5.72051C73.6021 5.72051 73.6721 5.70051 73.6721 5.72051C73.6721 5.79051 73.6721 5.92051 73.7121 6.03051C73.7121 6.06051 73.7221 6.08051 73.7321 6.11051C73.7321 6.13051 73.7521 6.15051 73.7521 6.17051C73.7621 6.21051 73.7721 6.23051 73.7521 6.24051C73.7421 6.24051 73.7221 6.23051 73.7021 6.19051C73.6921 6.17051 73.6821 6.15051 73.6621 6.13051C73.6521 6.11051 73.6421 6.08051 73.6321 6.05051C73.5821 5.93051 73.5821 5.79051 73.5921 5.71051L73.6021 5.72051Z" fill="#72543F"/>
<path d="M74.6423 4.78053C74.6423 4.78053 74.7123 4.76053 74.7123 4.78053C74.7123 4.87053 74.7423 5.13053 74.6923 5.13053C74.6423 5.13053 74.6323 4.88053 74.6323 4.78053H74.6423Z" fill="#72543F"/>
<path d="M75.042 5.13053C75.042 5.13053 75.112 5.11053 75.112 5.13053C75.112 5.25053 75.162 5.58053 75.112 5.59053C75.062 5.59053 75.042 5.26053 75.042 5.14053V5.13053Z" fill="#72543F"/>
<path d="M75.4922 5.47052C75.4922 5.47052 75.5622 5.43052 75.5622 5.45052C75.5922 5.58052 75.6922 5.93052 75.6422 5.94052C75.5922 5.95052 75.5122 5.60052 75.4922 5.47052Z" fill="#72543F"/>
<path d="M75.2622 5.88051C75.2622 5.88051 75.3322 5.87051 75.3322 5.88051C75.3322 5.94051 75.3322 6.06051 75.3422 6.15051C75.3522 6.25051 75.3722 6.33051 75.3422 6.34051C75.3322 6.34051 75.3122 6.32051 75.3022 6.29051C75.2822 6.26051 75.2722 6.21051 75.2622 6.16051C75.2422 6.06051 75.2422 5.93051 75.2522 5.87051L75.2622 5.88051Z" fill="#72543F"/>
<path d="M74.042 5.93052C74.042 5.93052 74.112 5.89052 74.112 5.92052C74.132 6.07052 74.222 6.47052 74.172 6.48052C74.122 6.49052 74.062 6.08052 74.042 5.93052Z" fill="#72543F"/>
<path d="M74.7622 6.30054C74.7622 6.30054 74.8322 6.27054 74.8322 6.29054C74.8522 6.41054 74.9322 6.74054 74.8822 6.75054C74.8322 6.76054 74.7722 6.43054 74.7622 6.30054Z" fill="#72543F"/>
<path d="M73.8121 6.76052C73.8121 6.76052 73.8821 6.74052 73.8821 6.76052C73.8821 6.83052 73.8821 6.97052 73.9021 7.09052C73.9021 7.12052 73.9021 7.14052 73.9121 7.17052C73.9121 7.19052 73.9221 7.22052 73.9321 7.24052C73.9321 7.28052 73.9321 7.31052 73.9321 7.31052C73.9221 7.31052 73.9021 7.29052 73.8821 7.26052C73.8821 7.24052 73.8621 7.22052 73.8521 7.19052C73.8521 7.16052 73.8321 7.13052 73.8321 7.10052C73.8021 6.98052 73.8021 6.83052 73.8121 6.75052V6.76052Z" fill="#72543F"/>
<path d="M74.3824 6.98052C74.3824 6.98052 74.4524 6.96052 74.4524 6.98052C74.4524 7.05052 74.4624 7.19052 74.5024 7.30052C74.5124 7.33052 74.5224 7.35052 74.5224 7.38052C74.5324 7.40052 74.5424 7.43052 74.5524 7.44052C74.5624 7.48052 74.5724 7.51052 74.5524 7.51052C74.5424 7.51052 74.5224 7.50052 74.4924 7.46052C74.4824 7.44052 74.4624 7.42052 74.4524 7.40052C74.4424 7.38052 74.4324 7.35052 74.4124 7.32052C74.3624 7.20052 74.3524 7.05052 74.3624 6.97052L74.3824 6.98052Z" fill="#72543F"/>
<path d="M75.1921 6.72054C75.1921 6.72054 75.2621 6.68054 75.2621 6.72054C75.2721 6.81054 75.3021 6.98054 75.3421 7.12054C75.3621 7.19054 75.3821 7.26054 75.4021 7.30054C75.4121 7.35054 75.4221 7.38054 75.4021 7.39054C75.3921 7.39054 75.3721 7.37054 75.3421 7.32054C75.3121 7.27054 75.2821 7.21054 75.2621 7.14054C75.2121 6.99054 75.1821 6.82054 75.1821 6.72054H75.1921Z" fill="#72543F"/>
<path d="M75.7319 6.37052C75.7319 6.37052 75.8019 6.34052 75.8019 6.35052C75.8219 6.45052 75.8919 6.73052 75.8519 6.74052C75.8019 6.75052 75.7519 6.47052 75.7319 6.37052Z" fill="#72543F"/>
<path d="M76.0122 5.93052C76.0122 5.93052 76.0822 5.90052 76.0822 5.91052C76.1022 6.01052 76.1722 6.28052 76.1222 6.29052C76.0722 6.29052 76.0222 6.03052 76.0122 5.93052Z" fill="#72543F"/>
<path d="M75.8022 7.18054C75.8022 7.18054 75.8722 7.14054 75.8722 7.16054C75.9022 7.24054 75.9822 7.45054 75.9322 7.46054C75.8822 7.48054 75.8222 7.26054 75.8022 7.18054Z" fill="#72543F"/>
<path d="M76.212 6.70054C76.212 6.70054 76.282 6.68054 76.282 6.70054C76.282 6.77054 76.282 6.90054 76.302 7.02054C76.302 7.08054 76.322 7.13054 76.332 7.17054C76.332 7.21054 76.332 7.24054 76.332 7.24054C76.322 7.24054 76.302 7.22054 76.282 7.19054C76.262 7.15054 76.242 7.10054 76.232 7.04054C76.202 6.92054 76.202 6.78054 76.212 6.70054Z" fill="#72543F"/>
<path d="M75.002 7.47053C75.002 7.47053 75.072 7.45053 75.072 7.47053C75.072 7.53053 75.092 7.65053 75.142 7.75053C75.152 7.77053 75.162 7.80053 75.172 7.82053C75.182 7.84053 75.192 7.86053 75.202 7.87053C75.212 7.90053 75.222 7.93053 75.212 7.94053C75.202 7.95053 75.182 7.94053 75.162 7.90053C75.152 7.89053 75.132 7.87053 75.122 7.85053C75.112 7.83053 75.102 7.80053 75.082 7.78053C75.022 7.68053 75.012 7.55053 75.012 7.48053L75.002 7.47053Z" fill="#72543F"/>
<path d="M74.1123 7.71053C74.1123 7.71053 74.1723 7.66053 74.1823 7.68053C74.2323 7.81053 74.3923 8.15053 74.3423 8.17053C74.2923 8.19053 74.1623 7.84053 74.1123 7.71053Z" fill="#72543F"/>
<path d="M74.752 8.15053C74.752 8.15053 74.802 8.09053 74.812 8.11053C74.882 8.21053 75.072 8.47053 75.032 8.50053C74.992 8.53053 74.812 8.25053 74.752 8.15053Z" fill="#72543F"/>
<path d="M75.512 7.80051C75.512 7.80051 75.582 7.77051 75.582 7.78051C75.592 7.84051 75.632 7.95051 75.682 8.04051C75.692 8.06051 75.702 8.08051 75.712 8.10051C75.722 8.12051 75.732 8.14051 75.742 8.15051C75.762 8.18051 75.762 8.20051 75.762 8.21051C75.762 8.22051 75.732 8.21051 75.702 8.18051C75.692 8.17051 75.672 8.15051 75.652 8.14051C75.632 8.12051 75.622 8.10051 75.612 8.08051C75.542 7.99051 75.512 7.86051 75.502 7.80051H75.512Z" fill="#72543F"/>
<path d="M76.1421 7.55053C76.1421 7.55053 76.2121 7.51053 76.2121 7.53053C76.2321 7.59053 76.2721 7.70053 76.3221 7.79053C76.3421 7.84053 76.3721 7.87053 76.3921 7.90053C76.4121 7.93053 76.4121 7.95053 76.4121 7.96053C76.4121 7.97053 76.3821 7.96053 76.3521 7.93053C76.3221 7.91053 76.2921 7.87053 76.2621 7.82053C76.2021 7.73053 76.1621 7.61053 76.1421 7.54053V7.55053Z" fill="#72543F"/>
<path d="M76.062 8.16052C76.062 8.16052 76.122 8.11052 76.132 8.13052C76.182 8.26052 76.322 8.62052 76.282 8.63052C76.232 8.65052 76.112 8.29052 76.062 8.15052V8.16052Z" fill="#72543F"/>
<path d="M76.6021 7.74054C76.6021 7.74054 76.6621 7.69054 76.6721 7.70054C76.7221 7.79054 76.8621 8.03054 76.8221 8.05054C76.7821 8.07054 76.6521 7.83054 76.6121 7.73054L76.6021 7.74054Z" fill="#72543F"/>
<path d="M76.4922 8.49052C76.4922 8.49052 76.5322 8.43052 76.5522 8.44052C76.6322 8.54052 76.8722 8.79052 76.8322 8.82052C76.7922 8.85052 76.5722 8.59052 76.5022 8.49052H76.4922Z" fill="#72543F"/>
<path d="M75.4619 8.59053C75.4619 8.59053 75.5119 8.53053 75.5219 8.55053C75.5919 8.65053 75.8019 8.92053 75.7519 8.95053C75.7119 8.98053 75.5219 8.70053 75.4619 8.59053Z" fill="#72543F"/>
<path d="M74.4922 8.55051C74.4922 8.55051 74.5322 8.49051 74.5522 8.50051C74.6422 8.62051 74.9122 8.94051 74.8722 8.97051C74.8322 9.00051 74.5822 8.67051 74.4922 8.55051Z" fill="#72543F"/>
<path d="M73.9922 8.41052C73.9922 8.41052 74.0422 8.36052 74.0522 8.37052C74.1122 8.46052 74.2922 8.71052 74.2522 8.74052C74.2122 8.77052 74.0422 8.51052 73.9922 8.41052Z" fill="#72543F"/>
<path d="M75.3521 9.10053C75.3521 9.10053 75.3921 9.04053 75.4121 9.05053C75.4521 9.10053 75.542 9.19053 75.632 9.25053C75.652 9.26053 75.6721 9.28053 75.6921 9.29053C75.7121 9.30053 75.7321 9.31053 75.7521 9.32053C75.7821 9.34053 75.8021 9.36053 75.8021 9.37053C75.8021 9.38053 75.7721 9.38053 75.7321 9.37053C75.7121 9.37053 75.6921 9.36053 75.6621 9.35053C75.6421 9.34053 75.612 9.33053 75.592 9.31053C75.482 9.25053 75.3921 9.15053 75.3521 9.09053V9.10053Z" fill="#72543F"/>
<path d="M76.1421 9.03052C76.1421 9.03052 76.1821 8.96052 76.1921 8.97052C76.2621 9.02052 76.4621 9.17052 76.4321 9.21052C76.4021 9.25052 76.2121 9.09052 76.1521 9.03052H76.1421Z" fill="#72543F"/>
<path d="M77.2222 8.77051C77.2222 8.77051 77.2522 8.70051 77.2722 8.71051C77.3522 8.78051 77.5922 8.96051 77.5622 9.00051C77.5322 9.04051 77.3022 8.84051 77.2222 8.77051Z" fill="#72543F"/>
<path d="M76.812 9.11052C76.812 9.11052 76.872 9.07052 76.882 9.08052C76.902 9.12052 76.952 9.18052 77.002 9.22052C77.012 9.23052 77.022 9.24052 77.042 9.25052C77.052 9.25052 77.062 9.26052 77.072 9.27052C77.092 9.28052 77.102 9.30052 77.102 9.31052C77.102 9.32052 77.082 9.32052 77.052 9.32052C77.042 9.32052 77.022 9.32052 77.002 9.31052C76.982 9.31052 76.972 9.29052 76.952 9.28052C76.882 9.24052 76.832 9.16052 76.812 9.11052Z" fill="#72543F"/>
<path d="M76.3423 9.48053C76.3423 9.48053 76.3923 9.43053 76.4023 9.44053C76.4323 9.48053 76.4923 9.56053 76.5523 9.61053C76.5823 9.64053 76.6123 9.66053 76.6323 9.68053C76.6523 9.70053 76.6623 9.72053 76.6623 9.73053C76.6623 9.74053 76.6323 9.73053 76.6023 9.73053C76.5723 9.73053 76.5323 9.70053 76.4923 9.67053C76.4123 9.62053 76.3523 9.53053 76.3223 9.47053L76.3423 9.48053Z" fill="#72543F"/>
<path d="M74.8521 9.31051C74.8521 9.31051 74.9121 9.27051 74.9221 9.29051C74.9421 9.34051 74.9921 9.43051 75.0521 9.49051C75.0721 9.51051 75.082 9.52051 75.092 9.54051C75.112 9.55051 75.122 9.56051 75.132 9.57051C75.152 9.59051 75.1621 9.61051 75.1621 9.62051C75.1621 9.63051 75.1321 9.62051 75.1021 9.62051C75.0821 9.62051 75.0721 9.60051 75.0521 9.59051C75.0321 9.58051 75.0121 9.56051 75.0021 9.54051C74.9221 9.47051 74.8721 9.37051 74.8521 9.31051Z" fill="#72543F"/>
<path d="M75.7422 9.85053C75.7422 9.85053 75.7822 9.78053 75.7922 9.80053C75.8422 9.84053 75.9322 9.92053 76.0222 9.96053C76.0622 9.99053 76.1122 10.0105 76.1422 10.0205C76.1722 10.0405 76.1922 10.0505 76.1922 10.0705C76.1922 10.0805 76.1622 10.0805 76.1322 10.0705C76.0922 10.0705 76.0522 10.0505 76.0022 10.0205C75.9022 9.98053 75.8022 9.89053 75.7622 9.84053L75.7422 9.85053Z" fill="#72543F"/>
<path d="M77.072 9.72052C77.072 9.72052 77.082 9.64052 77.102 9.65052C77.182 9.69052 77.332 9.75052 77.462 9.78052C77.492 9.78052 77.522 9.80052 77.562 9.81052C77.592 9.81052 77.622 9.82052 77.642 9.83052C77.692 9.84052 77.722 9.85052 77.712 9.87052C77.712 9.88052 77.682 9.89052 77.632 9.89052C77.612 9.89052 77.582 9.89052 77.542 9.89052C77.512 9.89052 77.472 9.88052 77.442 9.87052C77.292 9.85052 77.142 9.77052 77.062 9.73052L77.072 9.72052Z" fill="#72543F"/>
<path d="M77.502 9.23053C77.502 9.23053 77.552 9.18053 77.562 9.19053C77.592 9.23053 77.642 9.29053 77.712 9.33053C77.732 9.34053 77.742 9.35053 77.762 9.36053C77.782 9.36053 77.792 9.37053 77.802 9.38053C77.822 9.39053 77.842 9.41053 77.832 9.42053C77.822 9.43053 77.812 9.44053 77.782 9.43053C77.762 9.43053 77.752 9.43053 77.732 9.43053C77.712 9.43053 77.692 9.41053 77.672 9.40053C77.592 9.36053 77.522 9.28053 77.502 9.24053V9.23053Z" fill="#72543F"/>
<path d="M76.7422 10.1305C76.7422 10.1305 76.7422 10.0505 76.7622 10.0605C76.8922 10.1105 77.2522 10.2205 77.2422 10.2705C77.2222 10.3205 76.8722 10.1905 76.7422 10.1305Z" fill="#72543F"/>
<path d="M78.2319 9.31052C78.2319 9.31052 78.2619 9.24052 78.2819 9.25052C78.3219 9.28052 78.4119 9.34052 78.4919 9.37052C78.5119 9.37052 78.5319 9.38052 78.5519 9.39052C78.5719 9.39052 78.5919 9.40052 78.6019 9.41052C78.6319 9.42052 78.6519 9.43052 78.6519 9.45052C78.6519 9.46052 78.6319 9.47052 78.6019 9.47052C78.5819 9.47052 78.5619 9.47052 78.5419 9.47052C78.5219 9.47052 78.5019 9.46052 78.4719 9.45052C78.3719 9.42052 78.2819 9.36052 78.2419 9.32052L78.2319 9.31052Z" fill="#72543F"/>
<path d="M77.9619 9.69051C77.9619 9.69051 77.9819 9.62051 77.9919 9.62051C78.0719 9.66051 78.3019 9.75051 78.2819 9.79051C78.2619 9.83051 78.0419 9.73051 77.9619 9.68051V9.69051Z" fill="#72543F"/>
<path d="M77.6323 10.1605C77.6323 10.1605 77.6523 10.0905 77.6723 10.1005C77.7223 10.1305 77.8323 10.1905 77.9323 10.2105C77.9823 10.2305 78.0223 10.2405 78.0623 10.2505C78.0923 10.2605 78.1123 10.2705 78.1123 10.2905C78.1123 10.3005 78.0923 10.3105 78.0523 10.3105C78.0123 10.3105 77.9623 10.3105 77.9123 10.2905C77.8023 10.2705 77.6923 10.2005 77.6423 10.1605H77.6323Z" fill="#72543F"/>
<path d="M78.502 10.2005C78.502 10.2005 78.502 10.1205 78.512 10.1305C78.622 10.1505 78.902 10.1805 78.902 10.2305C78.902 10.2805 78.612 10.2305 78.502 10.2005Z" fill="#72543F"/>
<path d="M78.7822 9.68051C78.7822 9.68051 78.7822 9.60051 78.8022 9.61051C78.9322 9.65051 79.2822 9.75051 79.2722 9.79051C79.2622 9.84051 78.9122 9.72051 78.7822 9.68051Z" fill="#72543F"/>
<path d="M78.2119 10.5405C78.2119 10.5405 78.2119 10.4605 78.2119 10.4705C78.3119 10.4805 78.5819 10.4905 78.5819 10.5405C78.5819 10.5905 78.3119 10.5605 78.2119 10.5405Z" fill="#72543F"/>
<path d="M77.1822 10.5105C77.1822 10.5105 77.1722 10.4405 77.1822 10.4405C77.2722 10.4405 77.5222 10.4405 77.5222 10.4905C77.5222 10.5405 77.2722 10.5305 77.1822 10.5205V10.5105Z" fill="#72543F"/>
<path d="M79.252 10.4005C79.252 10.4005 79.242 10.3205 79.252 10.3305C79.362 10.3305 79.652 10.3505 79.652 10.4005C79.652 10.4505 79.352 10.4205 79.252 10.4005Z" fill="#72543F"/>
<path d="M79.4121 10.0605C79.4121 10.0605 79.4121 9.98052 79.4221 9.99052C79.5021 10.0005 79.7121 10.0305 79.7021 10.0805C79.6921 10.1305 79.4821 10.0805 79.4121 10.0605Z" fill="#72543F"/>
<path d="M80.1521 10.2605C80.1521 10.2605 80.1421 10.1805 80.1521 10.1905C80.2721 10.1905 80.5821 10.2105 80.5821 10.2605C80.5821 10.3105 80.2621 10.2805 80.1421 10.2605H80.1521Z" fill="#72543F"/>
<path d="M79.9424 9.85053C79.9424 9.85053 79.9424 9.77053 79.9624 9.78053C80.0824 9.82053 80.4324 9.91053 80.4224 9.96053C80.4124 10.0105 80.0624 9.90053 79.9424 9.85053Z" fill="#72543F"/>
</svg>
