<svg width="91" height="116" viewBox="0 0 91 116" fill="none" xmlns="http://www.w3.org/2000/svg">
<g clip-path="url(#clip0_612_1049)">
<path d="M61.1523 29.8345C59.7583 24.9542 57.3145 20.9544 54.0733 18.0998C53.7865 17.0697 52.9776 15.9244 51.9507 14.6583C51.2337 13.772 50.3674 13.2137 49.4611 12.9145C49.2488 12.4138 48.9907 11.7174 48.744 10.8023C48.5834 10.2096 47.9753 9.8585 47.3787 10.0254C46.7878 10.1865 46.4379 10.8023 46.5985 11.3951C46.7247 11.8555 46.8624 12.2929 47.0058 12.7073C46.7362 12.3447 46.4493 11.8037 46.2428 11.0671C46.0822 10.4743 45.4684 10.1232 44.8775 10.2901C44.2866 10.4513 43.9367 11.0671 44.0973 11.6598C44.2809 12.3332 44.5505 12.9547 44.8775 13.5072C44.8373 13.536 44.7914 13.5648 44.7513 13.5936C44.3383 13.1447 43.9768 12.5289 43.7646 11.7519C43.604 11.1592 42.9901 10.8081 42.3993 10.975C41.8084 11.1361 41.4585 11.7519 41.6248 12.3447C41.8486 13.1677 42.1985 13.8986 42.6287 14.5144C42.4681 14.3878 42.319 14.2151 42.2559 13.9734C42.0952 13.3806 41.4872 13.0296 40.8905 13.1907C40.2997 13.3518 39.9497 13.9676 40.1104 14.5604C40.271 15.1532 40.6094 15.6827 41.0741 16.1028C40.8447 15.9992 40.5865 15.9647 40.3226 16.0337C39.7317 16.1949 39.3818 16.8107 39.5424 17.4034C39.749 18.1574 40.4546 18.5372 41.6535 18.5372C41.7224 18.5372 41.7912 18.5372 41.86 18.5372C42.1641 18.5257 42.4968 18.4912 42.8467 18.4394C43.2024 19.2854 44.0858 19.9299 45.7667 20.0508C48.1072 20.2235 50.0978 21.3745 51.7442 21.2594C54.3142 23.619 56.2589 26.9051 57.4063 30.9164C59.2764 37.4543 58.806 45.074 56.0811 52.3772L59.7239 53.747C62.7356 45.6668 63.2404 37.178 61.1408 29.8402L61.1523 29.8345Z" fill="#A66538"/>
<path d="M34.9531 18.3358C32.3545 18.3358 29.8418 18.2265 27.4152 18.0078C12.6205 16.6611 2.9256 11.2858 0.114655 2.87183C-0.269699 1.73232 0.34412 0.494969 1.47997 0.115131C2.61582 -0.264706 3.84919 0.351091 4.22781 1.4906C6.42494 8.06869 15.0184 12.5116 27.8053 13.6684C41.3954 14.9 58.1692 12.4598 75.0292 6.79106C76.165 6.41122 77.3984 7.02126 77.777 8.16653C78.1556 9.30604 77.5475 10.5434 76.4117 10.9232C61.9669 15.7805 47.5393 18.3358 34.9531 18.3358Z" fill="#67A121"/>
<g opacity="0.3">
<path d="M77.737 8.05139C77.5018 8.30461 77.2035 8.50028 76.8536 8.62114C62.4088 13.4785 47.9812 16.0337 35.395 16.0337C32.7964 16.0337 30.2837 15.9244 27.8571 15.7057C13.1255 14.3647 3.45355 9.03551 0.590974 0.684845C0.0632049 1.24885 -0.14905 2.08334 0.114835 2.87179C2.92578 11.2858 12.6207 16.661 27.4154 18.0077C29.8363 18.2264 32.3546 18.3358 34.9533 18.3358C47.5395 18.3358 61.9728 15.7747 76.4119 10.9232C77.5477 10.5433 78.1615 9.306 77.7772 8.16649C77.7657 8.1262 77.7485 8.09167 77.7313 8.05139H77.737Z" fill="#67A121"/>
</g>
<path d="M20.52 114.026L21.7706 113.796C21.7706 113.796 21.6042 114.509 22.1091 115.609C22.2467 115.914 20.87 116.167 20.8585 115.839C20.7954 114.279 20.52 114.026 20.52 114.026Z" fill="#FFE675"/>
<g opacity="0.4">
<path d="M20.9044 113.957L20.52 114.026C20.52 114.026 20.7954 114.279 20.8585 115.839C20.8585 115.96 21.0478 116 21.2715 115.994C21.2715 115.666 21.2314 115.298 21.1625 114.912C21.0994 114.561 21.0076 114.239 20.9101 113.957H20.9044Z" fill="#FFE675"/>
<path d="M21.3807 113.871C21.3693 114.176 21.3922 114.527 21.4611 114.901C21.5299 115.281 21.6389 115.626 21.7651 115.908C21.9946 115.839 22.1609 115.729 22.1093 115.614C21.6045 114.515 21.7708 113.802 21.7708 113.802L21.3807 113.871Z" fill="#FFE675"/>
</g>
<path d="M23.4341 105.543C23.543 105.405 23.6463 105.267 23.7553 105.123C24.2544 104.473 24.7592 103.805 25.3157 103.137C25.8779 102.464 26.4515 101.796 27.3177 101.123C27.4267 101.037 27.5415 100.956 27.6734 100.87L27.9144 100.72L28.0635 100.634L28.0979 100.617H28.1151L28.184 100.571L28.2127 100.559C28.2872 100.525 28.3618 100.49 28.4421 100.461L28.5569 100.421L28.6544 100.392L28.8494 100.34C29.0961 100.283 29.3141 100.26 29.5034 100.254C30.2606 100.231 30.7941 100.375 31.2932 100.548C32.2742 100.91 33.0429 101.474 33.6166 102.136C34.1845 102.798 34.5344 103.546 34.6721 104.214C34.8098 104.893 34.7639 105.48 34.6491 105.923C34.5918 106.147 34.5229 106.331 34.4484 106.493C34.3738 106.654 34.3049 106.798 34.2361 106.884C34.1099 107.068 34.0239 107.166 34.0239 107.166L33.6969 107.137C33.6969 107.137 33.6338 107.028 33.542 106.821C33.4961 106.717 33.4158 106.613 33.3527 106.493C33.2724 106.372 33.1978 106.234 33.0888 106.095C32.888 105.819 32.6413 105.531 32.3373 105.29C32.0447 105.042 31.6948 104.841 31.3219 104.668C30.9433 104.501 30.014 104.144 29.1076 104.887C28.8666 105.129 28.597 105.399 28.3331 105.687C27.8054 106.262 27.2489 106.89 26.658 107.511C26.0786 108.144 25.4419 108.76 24.7879 109.359C24.1167 109.946 23.4226 110.515 22.6539 110.982C22.4932 111.085 22.3269 111.183 22.1548 111.275L23.4283 105.526L23.4341 105.543Z" fill="#FFF6BA"/>
<path d="M26.3138 104.346C26.4056 104.196 26.4974 104.047 26.5892 103.897C27.0194 103.201 27.4611 102.493 27.8856 101.733C28.3159 100.968 28.7289 100.196 29.0444 99.1606C29.0846 99.0282 29.119 98.8958 29.1534 98.7404L29.2051 98.4699L29.228 98.303V98.2685L29.2337 98.2513V98.1707L29.2452 98.1419C29.2452 98.0613 29.251 97.9808 29.251 97.8944V97.7736L29.2395 97.6757L29.2165 97.4743C29.1764 97.2268 29.119 97.0254 29.0559 96.847C28.7978 96.1449 28.4593 95.7132 28.1151 95.3161C27.4095 94.5507 26.5949 94.0615 25.7574 93.7795C24.9255 93.5033 24.088 93.463 23.4053 93.5839C22.7112 93.7105 22.1777 93.9694 21.7991 94.2399C21.6098 94.3723 21.4606 94.5104 21.3344 94.6313C21.2082 94.7636 21.105 94.873 21.0418 94.9708C20.9156 95.155 20.8525 95.2643 20.8525 95.2643L20.996 95.5521C20.996 95.5521 21.1222 95.5694 21.3516 95.5809C21.4721 95.5809 21.5926 95.6154 21.7302 95.6327C21.8737 95.6614 22.0343 95.6787 22.2006 95.7248C22.5391 95.8053 22.9005 95.9262 23.2447 96.1103C23.5889 96.2888 23.9044 96.5305 24.2085 96.8125C24.5068 97.0945 25.1894 97.8139 24.8223 98.9188C24.6846 99.2296 24.5297 99.5692 24.3519 99.9202C24.0019 100.617 23.6176 101.359 23.2447 102.13C22.8604 102.896 22.5162 103.701 22.1892 104.524C21.8851 105.353 21.604 106.199 21.4434 107.074C21.4033 107.258 21.3746 107.448 21.3516 107.638L26.3081 104.352L26.3138 104.346Z" fill="#FFF6BA"/>
<path d="M29.2396 104.455C29.3945 104.3 29.5494 104.144 29.7158 103.989C30.146 103.58 30.605 103.183 31.0639 102.786C31.5285 102.401 32.0104 102.027 32.4866 101.664C32.9684 101.307 33.4446 100.956 33.9207 100.64C34.0412 100.559 34.1559 100.478 34.2707 100.398C34.3911 100.323 34.5059 100.248 34.6206 100.168C34.8443 100.007 35.0738 99.8742 35.2918 99.7303C35.5098 99.5807 35.7278 99.4598 35.9285 99.3217C36.1351 99.1836 36.3301 99.0685 36.5194 98.9476C36.9038 98.7059 37.2193 98.5102 37.4946 98.3318C37.77 98.1534 38.0339 98.0153 38.1945 97.9059C38.3609 97.7966 38.4469 97.739 38.4469 97.739C38.6477 97.6067 38.8141 97.4052 38.9001 97.152C39.1009 96.5535 38.7854 95.9089 38.2002 95.7017C38.2002 95.7017 38.1027 95.6672 37.9134 95.6039C37.8216 95.5751 37.7069 95.5348 37.5749 95.4945C37.4373 95.4542 37.2939 95.4082 37.1045 95.3737C36.7317 95.2989 36.2555 95.2183 35.745 95.178C35.4811 95.1435 35.2057 95.1377 34.9132 95.132C34.6206 95.1205 34.3108 95.1262 33.9896 95.1435C33.6683 95.1492 33.3298 95.1838 32.9857 95.2298C32.6357 95.2643 32.28 95.3219 31.9186 95.3967C31.1844 95.5406 30.4214 95.7593 29.6527 96.047C28.8782 96.3405 28.1038 96.7089 27.3408 97.152C26.6237 97.5836 25.9181 98.0728 25.2642 98.6311L29.2511 104.461L29.2396 104.455Z" fill="#FFF6BA"/>
<path d="M20.8528 107.103C20.0956 108.144 19.5621 109.255 19.499 110.533C19.4818 110.878 19.5105 111.194 19.585 111.534C19.694 112 19.7801 112.052 20.2677 112.012C21.4666 111.914 21.7477 111.028 22.264 110.043C23.1876 108.282 24.3981 106.705 25.4823 105.054C25.7691 104.622 25.9814 104.098 26.1363 103.609C26.1994 103.408 26.3542 103.039 26.2682 102.827C26.0846 102.366 25.6716 102.786 25.3905 102.976C23.6924 104.11 22.0632 105.445 20.8586 107.097L20.8528 107.103Z" fill="#FFF570"/>
<path d="M23.7498 106.89C23.3654 107.609 23.0155 108.323 22.6254 108.985C22.2583 109.652 21.8567 110.268 21.4551 110.826C21.0478 111.373 20.6233 111.862 20.1759 112.242C20.1013 112.305 20.0267 112.363 19.9521 112.42L21.3461 114.452C21.4092 114.423 21.4724 114.4 21.5412 114.371C22.3214 113.986 23.0614 113.468 23.7211 112.863C24.3923 112.265 24.9717 111.586 25.5281 110.895C26.0616 110.193 26.5779 109.474 27.0369 108.749C27.5015 108.029 27.9433 107.321 28.362 106.659C28.5686 106.331 28.7865 106.026 28.9816 105.739C29.7446 104.852 30.7255 105.042 31.1271 105.14C31.5286 105.244 31.9073 105.382 32.24 105.577C32.5784 105.762 32.8768 106.003 33.1234 106.245C33.2496 106.36 33.3529 106.487 33.4504 106.59C33.5365 106.7 33.6283 106.786 33.6971 106.878C33.8233 107.062 33.9093 107.16 33.9093 107.16L34.2306 107.131C34.2306 107.131 34.2937 107.022 34.3855 106.815C34.4371 106.717 34.4773 106.567 34.5232 106.395C34.5633 106.222 34.6035 106.026 34.6149 105.796C34.6494 105.342 34.592 104.755 34.3339 104.11C34.0757 103.471 33.5996 102.798 32.9226 102.245C32.24 101.699 31.3852 101.267 30.3526 101.083C29.8249 101.002 29.2742 100.95 28.5341 101.1C28.3506 101.14 28.1383 101.198 27.9088 101.296L27.7253 101.382L27.6335 101.428L27.5302 101.491C27.4614 101.532 27.3925 101.578 27.3237 101.629L27.295 101.647L27.2319 101.699L27.2147 101.71L27.186 101.733L27.0541 101.842L26.8476 102.027C26.7386 102.136 26.6353 102.234 26.5435 102.337C25.815 103.149 25.3675 103.903 24.9315 104.662C24.5013 105.416 24.1227 106.159 23.7441 106.89H23.7498Z" fill="#FFF570"/>
<path d="M21.7935 114.239C21.7418 114.147 21.6845 114.055 21.6271 113.951C21.4607 113.64 21.2772 113.261 21.128 112.823C20.9846 112.392 20.8928 111.902 20.8928 111.39C20.8928 110.878 20.9903 110.348 21.1911 109.796C21.3804 109.243 21.6845 108.679 22.0516 108.104C22.4302 107.528 22.8605 106.941 23.3596 106.354C23.8357 105.756 24.3807 105.169 24.9199 104.553C25.4649 103.943 26.0328 103.321 26.5835 102.648C27.14 101.969 27.6907 101.284 28.1841 100.317C28.2472 100.196 28.3045 100.064 28.3619 99.926L28.4594 99.667L28.5111 99.5058L28.5225 99.4713V99.454L28.5512 99.3792V99.3505C28.5799 99.2699 28.5971 99.1893 28.6086 99.1145L28.6315 98.9936L28.643 98.8958L28.6545 98.6944C28.6602 98.4469 28.6373 98.234 28.6086 98.0498C28.4766 97.3131 28.2242 96.8297 27.9546 96.3808C27.3981 95.506 26.6811 94.8787 25.9066 94.4586C25.1379 94.0442 24.3233 93.8601 23.6235 93.8601C22.9178 93.8601 22.3442 94.027 21.9311 94.2284C21.7189 94.3262 21.5468 94.4356 21.4034 94.5334C21.2542 94.637 21.1338 94.7349 21.0534 94.8154C20.8928 94.9766 20.8125 95.0744 20.8125 95.0744L20.9043 95.3794C20.9043 95.3794 21.0248 95.4197 21.2485 95.4658C21.3632 95.4888 21.478 95.5406 21.6099 95.5809C21.7476 95.6327 21.9025 95.6787 22.0574 95.7535C22.3729 95.8916 22.7113 96.07 23.0154 96.3118C23.3194 96.542 23.589 96.8355 23.8357 97.1693C24.0766 97.4973 24.6216 98.326 24.0652 99.3505C23.8701 99.6325 23.6579 99.9432 23.4284 100.254C22.958 100.876 22.4532 101.543 21.9484 102.234C21.4321 102.919 20.9502 103.655 20.4798 104.403C20.0323 105.169 19.6078 105.957 19.2923 106.786C18.9653 107.609 18.7473 108.478 18.6727 109.336C18.6096 110.193 18.6957 111.039 18.9424 111.753C19.0628 112.11 19.2063 112.438 19.3784 112.731C19.5447 113.025 19.7225 113.278 19.9119 113.502C20.279 113.951 20.6519 114.273 20.9674 114.509C21.237 114.705 21.7877 114.233 21.7877 114.233L21.7935 114.239Z" fill="#FFE675"/>
<g opacity="0.4">
<path d="M28.6199 98.2685V98.2858L28.6027 98.3261L28.5454 98.5045L28.4421 98.798C28.379 98.9591 28.3216 99.103 28.2528 99.2411C27.7365 100.335 27.1456 101.123 26.549 101.894C25.9582 102.665 25.3501 103.373 24.7592 104.075C24.1798 104.783 23.5947 105.457 23.0784 106.141C22.5449 106.815 22.0802 107.488 21.6786 108.139C21.2885 108.795 20.973 109.433 20.778 110.055C20.5715 110.677 20.4854 111.275 20.5026 111.839C20.5198 112.409 20.6403 112.95 20.8181 113.427C20.9673 113.836 21.1509 114.199 21.323 114.509C21.5582 114.423 21.7819 114.233 21.7819 114.233C21.7303 114.141 21.6729 114.049 21.6155 113.945C21.4492 113.635 21.2656 113.255 21.1164 112.817C20.973 112.386 20.8812 111.897 20.8812 111.384C20.8812 110.872 20.9788 110.343 21.1795 109.79C21.3689 109.238 21.6729 108.674 22.04 108.098C22.4187 107.523 22.8489 106.936 23.348 106.349C23.8241 105.75 24.3691 105.163 24.9084 104.547C25.4533 103.937 26.0213 103.316 26.572 102.642C27.1284 101.963 27.6791 101.278 28.1725 100.312C28.2356 100.191 28.293 100.058 28.3503 99.9202L28.4478 99.6612L28.4995 99.5001L28.5109 99.4656V99.4483L28.5396 99.3735V99.3447C28.5683 99.2641 28.5855 99.1836 28.597 99.1087L28.6199 98.9879L28.6314 98.8901L28.6429 98.6886C28.6429 98.516 28.6372 98.3606 28.6199 98.2167L28.6085 98.2685H28.6199Z" fill="#FFE675"/>
</g>
<path d="M84.6955 81.4176C75.8554 67.8988 58.3415 63.6976 45.6521 72.0482L43.5181 68.7851C58.003 59.2489 77.9378 63.9623 87.9539 79.2766L84.6955 81.4176Z" fill="#A66538"/>
<path d="M83.158 75.9962C84.9364 75.0927 87.1622 75.9214 88.1374 77.8494C89.1127 79.7773 88.4644 82.0736 86.6861 82.9772C84.9077 83.8807 82.6819 83.052 81.7067 81.124C80.7314 79.1961 81.3797 76.9055 83.158 75.9962Z" fill="#A66538"/>
<path d="M90.0129 84.3872C90.0129 84.3872 89.967 84.3872 89.9441 84.3872C89.4106 84.3469 89.0033 83.8807 89.0434 83.3455C89.1065 82.4477 88.8426 81.5844 88.3034 80.9111C87.7756 80.2608 87.0528 79.8752 86.2554 79.8176C85.7219 79.7773 85.3146 79.3112 85.3548 78.776C85.3949 78.2407 85.8596 77.8321 86.3931 77.8724C87.7355 77.9645 88.9459 78.6091 89.8179 79.6853C90.6726 80.7385 91.0857 82.0909 90.9881 83.4836C90.9537 84.0016 90.5235 84.3929 90.0187 84.3929L90.0129 84.3872Z" fill="#A66538"/>
<path d="M88.2006 86.5396C88.2006 86.5396 88.1547 86.5396 88.1318 86.5396C87.5925 86.4993 87.191 86.0332 87.2311 85.4979C87.386 83.2765 86.4051 81.3255 85.0914 81.2334C84.5579 81.1931 84.1506 80.7269 84.1907 80.1917C84.2309 79.6565 84.6898 79.2536 85.2291 79.2882C87.6786 79.4608 89.411 82.2463 89.1758 85.6361C89.1414 86.154 88.7112 86.5454 88.2064 86.5454L88.2006 86.5396Z" fill="#A66538"/>
<path d="M85.3265 87.9899C85.3265 87.9899 85.2806 87.9899 85.2576 87.9899C84.7241 87.9496 84.3168 87.4834 84.357 86.9482C84.5635 83.9498 83.9038 82.2405 83.5711 81.9815C83.0662 81.9125 82.6934 81.4636 82.7278 80.9456C82.7679 80.4104 83.2269 80.0018 83.7661 80.0421C85.8428 80.186 86.5369 83.6851 86.296 87.0863C86.2615 87.5985 85.8313 87.9956 85.3265 87.9956V87.9899Z" fill="#A66538"/>
<path d="M82.3492 87.2014C82.3492 87.2014 82.3033 87.2014 82.2803 87.2014C81.7468 87.1611 81.3395 86.695 81.3797 86.1598C81.5919 83.098 81.6837 81.2564 81.6837 80.8766C81.6723 80.8075 81.6723 80.7327 81.678 80.6579C81.7239 80.1226 82.1943 79.7198 82.7278 79.7658C83.6686 79.8406 83.6399 80.796 83.6227 81.2046C83.6112 81.4866 83.594 81.8952 83.5653 82.4017C83.508 83.4433 83.4219 84.8246 83.3187 86.2921C83.2842 86.8043 82.854 87.2014 82.3492 87.2014Z" fill="#A66538"/>
<path d="M79.1709 82.5686C79.1709 82.5686 79.1251 82.5686 79.1021 82.5686C78.5686 82.5283 78.1613 82.0621 78.2015 81.5269C78.276 80.468 78.7866 79.5011 79.6414 78.8162C80.4732 78.1486 81.5344 77.8264 82.6301 77.9012C83.1636 77.9415 83.5709 78.4076 83.5308 78.9429C83.4906 79.4781 83.0317 79.8867 82.4925 79.8464C81.8844 79.8061 81.305 79.9788 80.8575 80.3356C80.433 80.6751 80.1806 81.1413 80.1462 81.6535C80.1118 82.1657 79.6815 82.5628 79.1767 82.5628L79.1709 82.5686Z" fill="#A66538"/>
<path d="M31.9704 35.8313C31.0754 31.6531 31.282 27.7454 32.5211 24.3959C33.7086 23.3255 34.4314 21.2651 35.9803 19.6422C37.1448 18.4221 37.3742 17.3517 37.0759 16.4826C37.3685 16.2812 37.6439 16.0855 37.8733 15.8899C38.883 15.0381 39.2042 14.2324 38.8371 13.4957C38.5617 12.949 37.8963 12.7246 37.3456 13.0008C37.1046 13.1217 36.9325 13.3231 36.835 13.5533C36.8981 12.926 36.7949 12.3102 36.5195 11.7635C36.2441 11.211 35.5787 10.9923 35.028 11.2685C34.4773 11.5448 34.2593 12.2124 34.5346 12.7648C34.7125 13.1159 34.6207 13.4957 34.5232 13.749C34.4142 13.1447 34.1962 12.4886 33.8405 11.7692C33.5651 11.2167 32.8997 10.998 32.349 11.2743C31.7983 11.5505 31.5803 12.2181 31.8556 12.7706C32.0449 13.1562 32.2629 13.6626 32.349 14.1748C32.326 14.1748 32.2973 14.1864 32.2744 14.1921C32.1482 13.5648 31.9359 12.9202 31.6262 12.2987C31.3508 11.7462 30.6854 11.5275 30.1346 11.8037C29.5839 12.08 29.3659 12.7476 29.6413 13.3001C29.8191 13.6569 29.9453 13.9964 30.0314 14.2957C29.7331 13.7547 29.3717 13.231 28.9242 12.7821C28.4882 12.3447 27.7884 12.3447 27.3524 12.7821C26.9164 13.2195 26.9164 13.9216 27.3524 14.359C28.0293 15.0381 28.4137 15.9417 28.5972 16.6495C28.0522 17.5186 27.731 18.5775 27.7941 19.8091C27.8859 21.5069 28.0522 22.9571 28.5743 23.9125C27.3466 27.7454 27.186 32.0847 28.167 36.6716C29.7618 44.1302 34.1962 51.3816 40.6499 57.0792L43.2199 54.1498C37.3857 48.999 33.393 42.4957 31.9704 35.8486V35.8313Z" fill="#A66538"/>
<path d="M37.6951 64.3536C36.1577 56.5957 41.2633 50.2363 48.8184 48.7285C56.3736 47.2207 63.5156 51.1399 65.0531 58.8978C66.5905 66.6557 62.8502 79.9097 55.2951 81.4175C47.7399 82.9254 39.2325 72.1115 37.6951 64.3536Z" fill="#A66538"/>
<path d="M22.1891 83.0405C26.9276 75.2366 34.8212 70.4713 43.8391 69.9706L43.6212 66.0744C33.3067 66.6499 24.283 72.0943 18.8619 81.0089C14.525 88.151 13.154 96.6111 14.9438 104.052C14.3816 105.175 14.4046 106.608 15.1216 107.839C15.2364 108.041 15.3683 108.219 15.5117 108.392C15.4773 109.002 15.5576 109.629 15.7584 110.239C16.1829 111.528 17.0893 112.61 18.3169 113.278C18.4661 113.358 18.6267 113.399 18.7816 113.399C19.1258 113.399 19.4585 113.215 19.6363 112.892C19.8429 112.507 19.7683 112.046 19.4757 111.747C19.9461 112.179 20.4911 112.576 21.0992 112.91C21.2483 112.99 21.409 113.03 21.5639 113.03C21.908 113.03 22.2408 112.846 22.4186 112.524C22.6768 112.052 22.5047 111.459 22.0285 111.2C21.1852 110.734 20.4968 110.118 20.0379 109.474C20.0953 109.445 20.1469 109.422 20.1985 109.387C20.3821 109.278 20.5542 109.151 20.7091 109.013C21.5352 109.808 22.6309 110.596 23.8585 111.269C24.0077 111.35 24.1683 111.39 24.3232 111.39C24.6674 111.39 25.0001 111.206 25.1779 110.884C25.4361 110.412 25.264 109.819 24.7878 109.56C23.3307 108.76 22.3498 107.949 21.7589 107.316C21.8105 107.12 21.8564 106.918 21.8794 106.717C22.7169 107.189 23.7266 107.747 24.7993 108.34C24.9485 108.421 25.1091 108.461 25.264 108.461C25.6082 108.461 25.9409 108.277 26.1187 107.954C26.3769 107.482 26.2048 106.89 25.7286 106.631C23.325 105.313 21.8048 104.444 21.2828 104.133C21.0934 103.822 20.8755 103.552 20.6288 103.31C20.7837 103.206 20.95 103.114 21.1279 103.057C21.6442 102.884 22.1719 102.919 22.6194 103.166C23.0898 103.425 23.6807 103.252 23.9388 102.775C24.197 102.303 24.0249 101.71 23.5487 101.451C22.6194 100.939 21.5352 100.853 20.4968 101.204C19.8543 101.422 19.2749 101.802 18.8045 102.297C18.7013 102.274 18.6038 102.251 18.5005 102.24C17.2671 96.0183 18.5407 89.0373 22.1662 83.0693L22.1891 83.0405ZM19.252 111.563C18.5062 111.154 17.9498 110.51 17.663 109.744C17.7719 109.767 17.8809 109.79 17.9957 109.808C18.3169 110.458 18.7931 111.091 19.3954 111.661C19.3495 111.626 19.3094 111.592 19.2577 111.563H19.252Z" fill="#A66538"/>
<path d="M63.1658 67.6456C62.7355 65.7982 60.9457 64.1349 58.5879 64.3997C58.9952 64.6069 60.2688 65.3263 60.4007 65.9938C59.4255 65.1248 57.0849 64.532 55.1861 65.9536C57.0218 66.1665 58.3011 66.7593 58.7658 67.5707C56.4367 66.742 54.2166 65.5104 51.7441 69.4469C53.425 68.6585 56.3449 69.1994 57.911 70.4023C57.7045 70.3217 59.3624 70.149 60.2745 70.9087C59.6263 70.6785 57.8938 70.431 57.607 71.2598C58.4732 71.8353 59.8328 71.4324 60.7392 72.0194C61.1407 72.2784 61.0203 72.7043 61.5423 72.9288C63.4067 73.7115 63.4182 68.7103 63.1715 67.6398L63.1658 67.6456Z" fill="#863D21"/>
<path d="M70.2448 84.6231C68.4779 90.361 61.703 93.3594 55.1116 91.3163C48.5259 89.2733 44.6193 82.9657 46.3862 77.2221C48.1531 71.4785 54.9337 68.4858 61.5194 70.5289C68.1108 72.572 72.0174 78.8853 70.2448 84.6231Z" fill="#A66538"/>
<path d="M46.4093 77.2278C47.2698 74.4366 49.312 72.3014 51.9394 71.0698C51.2568 70.1836 50.293 69.4872 49.1285 69.1246C46.2028 68.2153 43.1165 69.7807 42.2445 72.618C41.3726 75.4552 43.0362 78.4939 45.9619 79.4033C45.9791 79.4033 45.9905 79.409 46.0077 79.4148C46.0536 78.6839 46.1913 77.953 46.4093 77.2336V77.2278Z" fill="#863D21"/>
<path d="M72.5394 76.3818C71.3863 76.025 70.2103 76.0538 69.1548 76.3818C70.6406 78.891 71.1339 81.8261 70.2677 84.6231C70.044 85.3483 69.7457 86.0216 69.3728 86.6547C72.3042 87.564 75.3848 85.9986 76.2625 83.1613C77.1344 80.3241 75.4708 77.2854 72.5394 76.3761V76.3818Z" fill="#863D21"/>
<path d="M72.7919 91.9149C71.1684 97.1923 61.5653 102.395 52.5646 99.5979C43.5581 96.8067 38.5615 87.0748 40.1849 81.8031C41.8084 76.5257 48.5833 80.4967 57.5898 83.2937C66.5963 86.0849 74.4211 86.6432 72.7919 91.9149Z" fill="#FDBC86"/>
<path d="M50.815 80.9744C52.8572 81.6938 55.1175 82.5283 57.544 83.2822C60.0051 84.0419 62.3685 84.6404 64.4854 85.2102C65.1336 84.6865 65.6843 83.9843 66.0629 83.1383C67.2045 80.5716 66.2809 77.6652 64.0092 76.6466C62.489 75.9675 60.7451 76.3013 59.4199 77.366C58.9208 75.7315 57.676 74.4711 56.0353 74.1719C53.5858 73.723 51.1879 75.6049 50.6888 78.3674C50.5224 79.2767 50.5855 80.1687 50.8265 80.9744H50.815Z" fill="white"/>
<path d="M54.4921 79.386C54.3028 79.9903 53.7693 80.3643 53.2931 80.2147C52.817 80.0651 52.5818 79.455 52.7711 78.8507C52.9547 78.2465 53.4939 77.8724 53.97 78.022C54.4462 78.1717 54.6814 78.7817 54.4921 79.386Z" fill="black"/>
<path d="M60.1141 81.1355C59.9306 81.7398 59.3913 82.1139 58.9152 81.9643C58.439 81.8146 58.2038 81.2046 58.3932 80.6003C58.5825 79.996 59.116 79.6219 59.5921 79.7716C60.0682 79.9212 60.3034 80.5312 60.1141 81.1355Z" fill="black"/>
<path d="M57.8136 82.557C55.5935 81.8664 53.3046 82.9081 53.0063 83.8922C52.7711 84.6519 54.4405 84.0534 55.3985 85.3195C55.8058 85.8605 55.7197 86.9367 56.4024 87.1496C57.0851 87.3626 57.6243 86.4245 58.2611 86.2115C59.7583 85.7051 60.8024 87.1439 61.0376 86.39C61.3416 85.4058 60.0337 83.2534 57.8136 82.5686V82.557Z" fill="#863D21"/>
<path d="M55.6851 96.7089C52.7136 96.6916 49.828 95.3104 47.7629 92.9278C46.1107 91.0171 45.2789 88.7668 45.5313 86.8964C45.5543 86.718 45.7206 86.5914 45.8985 86.6144C46.0763 86.6374 46.2025 86.8043 46.1795 86.9827C45.9501 88.6632 46.7303 90.7235 48.2562 92.4961C50.1952 94.7406 52.9029 96.0355 55.6909 96.0528C55.8687 96.0528 56.0179 96.2024 56.0179 96.3808C56.0179 96.5592 55.8687 96.7089 55.6909 96.7089H55.6851Z" fill="black"/>
<path d="M46.5412 87.4028C46.4437 87.4028 46.3461 87.3626 46.283 87.2762C46.1626 87.1208 45.9503 87.023 45.7323 87.0288C45.5602 87.0288 45.4225 87.0921 45.3824 87.1496C45.2791 87.2935 45.0726 87.328 44.9292 87.2187C44.7858 87.1151 44.7514 86.9079 44.8546 86.764C45.0267 86.5223 45.3537 86.3784 45.7208 86.3727C46.1511 86.3612 46.5527 86.5511 46.7993 86.8676C46.9083 87.0115 46.8854 87.2129 46.742 87.328C46.6846 87.3741 46.61 87.3971 46.5412 87.3971V87.4028Z" fill="black"/>
<path d="M49.8798 50.4378C49.8798 50.4378 49.8225 50.0925 49.7135 49.4364C49.6618 49.1084 49.5758 48.7285 49.5528 48.1875C49.5356 47.9286 49.5184 47.6466 49.4955 47.3473C49.484 47.1977 49.4783 47.0423 49.4668 46.8869C49.4668 46.7315 49.4725 46.5704 49.4783 46.4092C49.507 45.7531 49.5012 45.028 49.6332 44.251C49.6618 44.0554 49.6848 43.8539 49.7135 43.6525C49.7364 43.4453 49.7651 43.2439 49.8225 43.0367C49.92 42.6223 50.0232 42.1907 50.1265 41.7476C50.6313 39.9923 51.4517 38.0701 52.7424 36.2169C54.0274 34.3638 55.7828 32.5912 57.9799 31.2042C58.2553 31.0373 58.5249 30.8416 58.8175 30.692C59.1101 30.5424 59.4084 30.3927 59.7009 30.2431C60.2861 29.9151 60.9286 29.7079 61.5653 29.4547C61.726 29.3971 61.8808 29.328 62.0472 29.2762L62.5463 29.1381C62.879 29.046 63.2117 28.954 63.5502 28.8619L63.8026 28.7928L64.1124 28.741L64.5943 28.6604C64.927 28.6144 65.2138 28.5396 65.6154 28.5223C65.994 28.4993 66.3726 28.4763 66.757 28.4475C67.1298 28.4475 67.4913 28.4705 67.8641 28.482C68.0477 28.4936 68.2313 28.4878 68.4149 28.5108L68.9656 28.5856C69.3327 28.6432 69.7056 28.6662 70.067 28.764C70.4341 28.8504 70.7955 28.9367 71.1627 29.0288C71.5184 29.1439 71.8798 29.2705 72.2354 29.3913C72.5968 29.5007 72.9353 29.6791 73.2852 29.8345L73.8073 30.0762C73.9794 30.1568 74.14 30.2604 74.3064 30.3525C75.6545 31.0776 76.8878 32.056 77.9548 33.1897C79.0219 34.3177 79.9512 35.6126 80.6109 37.0456C80.8002 37.391 80.9379 37.7593 81.0756 38.1276C81.2075 38.4959 81.3739 38.8585 81.4657 39.2383L81.7754 40.3779L81.9705 41.5001C82.0164 41.8857 82.0393 42.3461 82.068 42.7662C82.0852 43.1921 82.0508 43.5777 82.0393 43.9863C82.0221 44.3892 81.9418 44.7863 81.8959 45.1834C81.8443 45.5805 81.7238 45.9661 81.6378 46.3574C80.8117 49.4652 78.7809 52.1528 76.1765 53.7873L75.6889 54.0923L75.1783 54.357C74.8399 54.5297 74.5014 54.7081 74.1457 54.8289L73.618 55.0304L73.3541 55.1282L73.0845 55.203L72.5452 55.3469L72.2756 55.4217L72.1437 55.4562L72.1092 55.4678C72.1092 55.4678 71.9142 55.5023 71.9888 55.4908L71.9314 55.5023L71.4667 55.5829C71.3004 55.6059 71.1856 55.6404 70.9562 55.6519L70.3366 55.698C70.1301 55.7152 69.9236 55.721 69.74 55.7095C68.9885 55.698 68.2428 55.6174 67.5257 55.4505C64.6402 54.8059 62.2709 52.97 60.8884 50.7773C60.1943 49.6839 59.7181 48.5041 59.46 47.353L59.4485 47.3013V47.2725L59.4198 47.1516L59.4026 47.0653L59.3739 46.8869C59.3567 46.7718 59.3338 46.6509 59.3166 46.5358C59.3051 46.4898 59.2994 46.4035 59.2936 46.3171L59.2764 46.0697C59.2649 45.9028 59.2535 45.7359 59.2477 45.5747C59.2363 45.2582 59.2592 44.9819 59.2707 44.6884C59.2879 44.4007 59.3395 44.1244 59.3739 43.8482C59.7583 41.644 60.8655 39.9174 62.0243 38.824C63.1831 37.7017 64.3591 37.1377 65.1622 36.8385C65.5637 36.6716 65.885 36.6083 66.0973 36.5449C66.3152 36.4874 66.4242 36.4586 66.4242 36.4586C67.583 36.1536 68.7705 36.85 69.0746 38.0125C69.3786 39.175 68.6845 40.3663 67.5257 40.6714H67.5085L67.3019 40.7289C67.3019 40.7289 67.2446 40.7462 67.1298 40.775C67.0151 40.8095 66.8373 40.8268 66.6308 40.9188C66.2005 41.057 65.5752 41.339 64.9442 41.9202C64.3017 42.4842 63.6821 43.405 63.4355 44.5906C63.4183 44.7402 63.3781 44.8899 63.3666 45.0452C63.3666 45.1949 63.3379 45.3733 63.3379 45.5057C63.3379 45.569 63.3379 45.6323 63.3379 45.7013V45.7992C63.3379 45.8279 63.3322 45.8625 63.3437 45.9315C63.3609 46.0466 63.3781 46.1675 63.3953 46.2826L63.4183 46.461L63.4297 46.5473C63.424 46.507 63.4527 46.6624 63.4183 46.4668V46.484L63.4297 46.5186C63.5731 47.2495 63.8485 47.9861 64.2673 48.6882C65.0876 50.0867 66.5677 51.3068 68.4091 51.773C68.8623 51.8996 69.3442 51.9571 69.8261 51.9802C69.9523 51.9974 70.0613 51.9859 70.1645 51.9802H70.4858C70.5718 51.9859 70.7669 51.9456 70.9103 51.9284L71.3807 51.8651C71.6101 51.8075 71.8453 51.7557 72.0748 51.6982L72.2699 51.6521L72.4592 51.5831L72.8378 51.4449C73.0959 51.3701 73.3369 51.2435 73.5835 51.1284L73.9564 50.9557L74.3064 50.7428C76.1994 49.6263 77.7426 47.7156 78.408 45.4596C78.4711 45.1719 78.5801 44.8956 78.6203 44.6021C78.6605 44.3086 78.735 44.0208 78.7522 43.7273C78.7637 43.4338 78.8039 43.123 78.7981 42.8468C78.7809 42.5648 78.7981 42.3231 78.7637 42.0123L78.6318 41.0512L78.408 40.1419C78.3507 39.8311 78.2187 39.5491 78.1269 39.2556C78.0237 38.9621 77.9262 38.6628 77.7827 38.3866C77.2951 37.2356 76.5838 36.1881 75.752 35.2616C74.9259 34.3292 73.9564 33.5178 72.8837 32.902C72.7517 32.8214 72.6255 32.7351 72.4879 32.666L72.0691 32.4646C71.788 32.3322 71.5241 32.1768 71.2315 32.0847C70.9447 31.9754 70.6579 31.8718 70.371 31.7625C70.0727 31.6819 69.7802 31.6071 69.4876 31.5265C69.195 31.4287 68.891 31.4171 68.5927 31.3538L68.1452 31.279C67.9961 31.256 67.8469 31.256 67.692 31.2445C67.3937 31.2272 67.0897 31.1985 66.7971 31.1927C66.516 31.2042 66.2349 31.21 65.9538 31.2215C65.6957 31.21 65.3343 31.2848 65.0188 31.3193L64.5369 31.3884L64.4164 31.4056H64.3533L64.3246 31.4171C64.2558 31.4287 64.382 31.4056 64.3648 31.4114L64.1468 31.4632C63.8542 31.5322 63.5674 31.6071 63.2806 31.6761L62.8503 31.7797C62.7126 31.82 62.575 31.8776 62.4316 31.9236C61.8808 32.1308 61.3187 32.2862 60.8138 32.5567C60.5557 32.6775 60.2975 32.8041 60.0394 32.9192C59.7812 33.0401 59.5518 33.207 59.3108 33.3451C57.3833 34.4904 55.8172 35.9867 54.6527 37.5751C53.4824 39.1635 52.7195 40.8325 52.2318 42.3634C52.1286 42.7547 52.0311 43.1288 51.9335 43.4914C51.8762 43.6698 51.8475 43.8539 51.8245 44.0323C51.7959 44.2108 51.7672 44.3892 51.7385 44.5618C51.5951 45.2467 51.5893 45.8912 51.5492 46.4668C51.5435 46.6106 51.5262 46.7545 51.5262 46.8869C51.5262 47.0193 51.5377 47.1516 51.5435 47.2725C51.5492 47.5199 51.5607 47.7559 51.5664 47.9746C51.5607 48.4005 51.641 48.8206 51.6811 49.1429C51.7729 49.799 51.8245 50.1443 51.8245 50.1443C51.8991 50.6795 51.532 51.1687 50.9985 51.2435C50.4764 51.3183 49.9946 50.9615 49.9028 50.4435L49.8798 50.4378Z" fill="#824E2D"/>
<path d="M10.9797 12.6152L11.1174 13.185C11.1174 13.185 10.9281 13.2483 10.6355 13.3403C10.3487 13.4612 9.97008 13.6339 9.60868 13.8526C9.41937 13.9504 9.24727 14.077 9.08091 14.1863C8.91454 14.2957 8.75392 14.3935 8.62771 14.4971C8.36957 14.687 8.19747 14.8137 8.19747 14.8137L7.8418 14.3475C7.8418 14.3475 8.01963 14.2151 8.28925 14.0195C8.4212 13.9159 8.58756 13.8123 8.75966 13.6972C8.93749 13.5821 9.11533 13.4555 9.31611 13.3519C9.70046 13.1217 10.1135 12.9317 10.429 12.7994C10.7617 12.69 10.9855 12.621 10.9855 12.621L10.9797 12.6152Z" fill="#67A121"/>
<path d="M2.3403 22.5946C2.58124 22.5197 2.82791 22.4104 3.06885 22.2953C3.29831 22.1802 3.54499 22.0536 3.80887 21.9212C4.04981 21.7889 4.30796 21.6507 4.57758 21.5126C4.83573 21.3687 5.09961 21.2133 5.36923 21.058C6.43051 20.4306 7.53768 19.671 8.34654 18.8537C9.14967 18.0308 9.49386 17.2423 9.59712 16.379C9.64875 15.9474 9.64301 15.4928 9.61433 15.0381C9.58565 14.5777 9.51681 14.0885 9.47092 13.6051C9.06935 13.3116 8.65058 13.0641 8.19739 12.8742C7.73846 12.6843 7.26232 12.5692 6.75749 12.5577C5.74211 12.5346 4.60626 12.926 3.48189 14.077C2.35751 15.2165 1.46259 16.9948 1.21592 18.7502C1.18724 18.9688 1.15855 19.1818 1.14708 19.389C1.14134 19.6077 1.14708 19.8206 1.14708 20.0278C1.15855 20.235 1.17003 20.4191 1.20445 20.6148C1.23887 20.8105 1.28476 20.9946 1.33639 21.1673C1.38802 21.34 1.44539 21.4953 1.51422 21.645C1.59454 21.8004 1.67485 21.9327 1.76664 22.0536C1.94447 22.2953 2.13952 22.4737 2.3403 22.5946Z" fill="#67A121"/>
<g opacity="0.4">
<path d="M4.50852 17.6739C3.98075 18.3588 3.43004 19.1415 3.02274 19.9932C2.6097 20.8392 2.3114 21.7313 2.25977 22.5485L2.33434 22.5946C2.57528 22.5197 2.82195 22.4104 3.06289 22.2953C3.29236 22.1802 3.53903 22.0536 3.80292 21.9212C4.04385 21.7888 4.302 21.6507 4.57162 21.5126C4.82977 21.3687 5.09366 21.2133 5.36328 21.0579C6.42455 20.4306 7.53172 19.671 8.34058 18.8537C9.14371 18.0308 9.48791 17.2423 9.59117 16.379C9.64279 15.9474 9.63706 15.4927 9.60838 15.0381C9.57969 14.5777 9.51085 14.0885 9.46496 13.6051L9.30433 13.4957C8.36353 14.0137 7.55467 14.6237 6.77449 15.3028C5.99431 15.9819 5.24281 16.7474 4.51426 17.6854L4.50852 17.6739Z" fill="#67A121"/>
</g>
<path d="M68.0936 11.7519L68.3059 12.1375C68.3059 12.1375 68.1797 12.2239 67.9846 12.3447C67.8011 12.4886 67.5601 12.69 67.3364 12.926C66.8832 13.3806 66.4989 13.9044 66.4989 13.9044L66.1489 13.6339C66.1489 13.6339 66.5505 13.0929 67.0266 12.6152C67.2561 12.3677 67.5257 12.149 67.7265 11.9879C67.9445 11.844 68.0936 11.7462 68.0936 11.7462V11.7519Z" fill="#67A121"/>
<path d="M63.7739 20.7472C63.9345 20.6436 64.0894 20.517 64.2443 20.3846C64.3934 20.2522 64.5483 20.1083 64.7089 19.9645C64.8638 19.8148 65.0245 19.6652 65.1851 19.5098C65.3457 19.3487 65.5063 19.1875 65.6727 19.0206C66.3209 18.353 66.9749 17.5819 67.4052 16.8222C67.8297 16.0625 67.9215 15.4179 67.8297 14.7676C67.7838 14.4396 67.6863 14.1115 67.5773 13.7892C67.4625 13.4554 67.3191 13.1159 67.1872 12.7763C66.8315 12.6382 66.4816 12.5461 66.1144 12.5001C65.7415 12.454 65.3744 12.4656 65.0015 12.5576C64.2558 12.7418 63.5043 13.2598 62.9134 14.3187C62.3168 15.3719 62.0185 16.8452 62.1848 18.1746C62.2078 18.3415 62.2307 18.4969 62.2594 18.6523C62.2996 18.8134 62.3455 18.9688 62.3914 19.1185C62.4774 19.4062 62.6093 19.6825 62.7585 19.9127C62.8331 20.0278 62.9019 20.1314 62.9822 20.2234C63.0683 20.3213 63.1543 20.4019 63.2461 20.4767C63.4239 20.6206 63.6018 20.7069 63.7739 20.7587V20.7472Z" fill="#67A121"/>
<g opacity="0.4">
<path d="M64.3818 16.7301C63.8655 17.9214 63.4582 19.5041 63.7106 20.7241L63.7737 20.7414C63.9344 20.6378 64.0892 20.5112 64.2441 20.3788C64.3933 20.2465 64.5482 20.1026 64.7088 19.9587C64.8637 19.8091 65.0243 19.6594 65.1849 19.5041C65.3456 19.3429 65.5062 19.1818 65.6726 19.0149C66.3208 18.3473 66.9748 17.5761 67.405 16.8164C67.8295 16.0567 67.9213 15.4122 67.8295 14.7618C67.7836 14.4338 67.6861 14.1058 67.5771 13.7835C67.4624 13.4497 67.319 13.1101 67.187 12.7706L67.0493 12.7188C66.4699 13.2828 65.9995 13.8871 65.5636 14.5374C65.1276 15.1877 64.7375 15.8956 64.3875 16.7243L64.3818 16.7301Z" fill="#67A121"/>
</g>
<path d="M19.3611 12.5001L19.0169 12.7878C19.0169 12.7878 18.8907 12.6209 18.7014 12.3677C18.6096 12.2411 18.4949 12.0972 18.3859 11.9361C18.2826 11.7692 18.1736 11.5908 18.0646 11.4124C18.0072 11.3203 17.9556 11.234 17.8982 11.1476C17.8524 11.0555 17.8065 10.9635 17.7606 10.8771C17.6745 10.6987 17.5885 10.5376 17.5196 10.3995C17.4451 10.2613 17.4049 10.1347 17.3705 10.0484C17.3361 9.96207 17.3188 9.91603 17.3188 9.91603L17.7319 9.74338C17.7319 9.74338 17.7491 9.78942 17.7835 9.86999C17.8179 9.95056 17.8581 10.0714 17.9269 10.2038C17.9958 10.3362 18.0761 10.4973 18.1621 10.6642C18.2023 10.7505 18.2482 10.8368 18.2941 10.9232C18.3457 11.0095 18.3973 11.0958 18.449 11.1764C18.5522 11.3491 18.6612 11.5217 18.7587 11.6828C18.862 11.8382 18.9767 11.9764 19.0628 12.0972C19.2464 12.3389 19.3668 12.5001 19.3668 12.5001H19.3611Z" fill="#67A121"/>
<path d="M17.7835 0.684844C17.4106 0.633048 16.8886 0.782681 16.378 1.16827C15.8789 1.54811 15.3799 2.13513 15.007 2.83726C14.6112 3.54513 14.353 4.36236 14.2039 5.20836C14.1465 5.62848 14.0891 6.06012 14.1006 6.47448C14.1006 6.68167 14.1006 6.88885 14.1178 7.09604C14.1408 7.29747 14.1694 7.49889 14.1981 7.69457C14.2555 8.08592 14.3587 8.43698 14.4735 8.75351C14.5825 9.07579 14.7202 9.35204 14.875 9.59951C15.1619 10.1002 15.5348 10.457 15.9019 10.716C16.2576 10.9807 16.6763 11.1189 17.0607 11.2109C17.2557 11.257 17.4508 11.28 17.6458 11.2973C17.8466 11.3088 18.0474 11.3088 18.2482 11.2973C18.3457 11.1304 18.4432 10.9635 18.5407 10.7966C18.6383 10.6297 18.7358 10.457 18.8276 10.2901C19.0111 9.95057 19.1374 9.62253 19.2636 9.26571C19.4873 8.55783 19.5446 7.82118 19.3668 6.81979C19.1947 5.8184 18.862 4.64436 18.5981 3.53362C18.2998 2.41713 18.099 1.4215 17.7778 0.679089L17.7835 0.684844Z" fill="#67A121"/>
<g opacity="0.4">
<path d="M16.8083 5.54216C16.728 3.96526 17.0091 2.00852 17.8122 0.753905L17.7835 0.684844C17.4106 0.633048 16.8886 0.782681 16.378 1.16827C15.8789 1.54811 15.3799 2.13513 15.007 2.83726C14.6112 3.54513 14.353 4.36236 14.2039 5.20836C14.1465 5.62848 14.0891 6.06012 14.1006 6.47448C14.1006 6.68167 14.1006 6.88885 14.1178 7.09604C14.1408 7.29747 14.1694 7.49889 14.1981 7.69457C14.2555 8.08592 14.3587 8.43698 14.4735 8.75351C14.5825 9.07579 14.7202 9.35204 14.875 9.59951C15.1619 10.1002 15.5348 10.457 15.9019 10.716C16.2576 10.9807 16.6763 11.1189 17.0607 11.2109C17.2557 11.257 17.4508 11.28 17.6458 11.2973C17.8466 11.3088 18.0474 11.3088 18.2482 11.2973L18.3228 11.1649C17.3992 9.43261 16.9058 7.71183 16.8025 5.54216H16.8083Z" fill="#67A121"/>
</g>
<path d="M59.5349 11.5447L59.2481 11.9188C59.2481 11.9188 59.1047 11.7922 58.8924 11.6023C58.6974 11.3951 58.4507 11.1189 58.2384 10.8196C57.8024 10.2268 57.4468 9.58801 57.4468 9.58801L57.8541 9.35205C57.8541 9.35205 58.1983 9.9736 58.6113 10.5318C58.8121 10.8196 59.0473 11.0728 59.2194 11.257C59.4087 11.4239 59.5292 11.539 59.5292 11.539L59.5349 11.5447Z" fill="#67A121"/>
<path d="M55.8059 1.59418C55.6166 1.62295 55.4158 1.69777 55.2093 1.83589C55.106 1.8992 55.0027 1.97977 54.8995 2.07761C54.8077 2.16969 54.7159 2.27328 54.6241 2.38838C54.5323 2.50348 54.4463 2.6301 54.3602 2.76822C54.2799 2.90634 54.2111 3.04447 54.1422 3.1941C54.0734 3.34373 54.0046 3.51063 53.9472 3.67753C53.8956 3.83867 53.8497 4.00557 53.8038 4.18398C53.4653 5.58822 53.5973 7.1939 54.0906 8.40823C54.5782 9.62831 55.3068 10.2844 56.0698 10.5894C56.4484 10.7448 56.8442 10.8139 57.24 10.8196C57.6358 10.8254 58.0259 10.7793 58.4218 10.693C58.6111 10.3477 58.8119 10.0024 58.9782 9.6686C59.1446 9.3348 59.288 9.001 59.3798 8.64994C59.5634 7.96508 59.5461 7.25145 59.1905 6.35941C58.8291 5.46737 58.221 4.52928 57.6129 3.71206C57.458 3.51063 57.3031 3.3092 57.154 3.11928C56.9991 2.92936 56.8442 2.7452 56.7008 2.56679C56.5459 2.38838 56.4025 2.22148 56.2591 2.05459C56.1156 1.89344 55.9608 1.73805 55.8059 1.60569V1.59418Z" fill="#67A121"/>
<g opacity="0.4">
<path d="M56.3336 5.899C55.9091 4.58683 55.5821 2.9121 55.8632 1.64022L55.8059 1.59418C55.6166 1.62295 55.4158 1.69777 55.2093 1.83589C55.106 1.8992 55.0027 1.97977 54.8995 2.07761C54.8077 2.16969 54.7159 2.27328 54.6241 2.38838C54.5323 2.50348 54.4463 2.6301 54.3602 2.76822C54.2799 2.90634 54.2111 3.04447 54.1422 3.1941C54.0734 3.34373 54.0046 3.51063 53.9472 3.67753C53.8956 3.83867 53.8497 4.00557 53.8038 4.18398C53.4653 5.58822 53.5973 7.1939 54.0906 8.40823C54.5782 9.62831 55.3068 10.2844 56.0698 10.5894C56.4484 10.7448 56.8442 10.8139 57.24 10.8196C57.6358 10.8254 58.0259 10.7793 58.4218 10.693L58.4963 10.5549C58.0202 9.84125 57.6473 9.12186 57.2917 8.36794C56.9417 7.61402 56.6147 6.81982 56.3336 5.91051V5.899Z" fill="#67A121"/>
</g>
<path d="M24.8454 16.5344L25.1666 16.8452C25.1666 16.8452 25.0347 16.9948 24.8339 17.225C24.7364 17.3401 24.6159 17.4668 24.4954 17.6164C24.3864 17.766 24.266 17.9329 24.1455 18.0941C24.0881 18.1746 24.025 18.2552 23.9676 18.3358C23.916 18.4221 23.8644 18.5027 23.8185 18.5832C23.721 18.7444 23.6292 18.894 23.5489 19.0264C23.4628 19.153 23.4227 19.2739 23.3768 19.3487C23.3366 19.4292 23.3137 19.4753 23.3137 19.4753L22.9121 19.2681C22.9121 19.2681 22.9351 19.2221 22.9752 19.1415C23.0211 19.0609 23.067 18.9401 23.153 18.8077C23.2334 18.6753 23.3309 18.5142 23.4341 18.3473C23.4858 18.261 23.5374 18.1746 23.5948 18.0883C23.6579 18.002 23.7152 17.9214 23.7783 17.8351C23.9045 17.6682 24.025 17.4955 24.1455 17.3401C24.266 17.1848 24.3922 17.0524 24.4954 16.9315C24.7019 16.6956 24.8454 16.5402 24.8454 16.5402V16.5344Z" fill="#67A121"/>
<path d="M22.6368 28.4936C23.0154 27.7857 23.2965 26.8016 23.6809 25.7196C24.0366 24.6376 24.4611 23.4924 24.7135 22.5082C24.9716 21.5241 24.9716 20.7875 24.8053 20.0623C24.7078 19.694 24.6102 19.3602 24.4553 19.0091C24.3808 18.8307 24.2947 18.6581 24.2144 18.4797C24.1341 18.307 24.048 18.1344 23.9677 17.956C23.7727 17.9329 23.5719 17.9157 23.3711 17.9099C23.1761 17.9099 22.981 17.9214 22.7802 17.9444C22.3902 18.002 21.9599 18.1113 21.5813 18.3415C21.1969 18.5717 20.7954 18.894 20.4684 19.366C20.2963 19.6019 20.1299 19.8666 19.998 20.1774C19.8603 20.4824 19.7226 20.8278 19.6366 21.2133C19.5907 21.4033 19.5448 21.6047 19.5104 21.8004C19.4817 22.0018 19.4587 22.209 19.4415 22.4162C19.3956 22.8305 19.4186 23.2622 19.4415 23.688C19.5218 24.5456 19.7112 25.38 20.0496 26.1167C20.3594 26.8476 20.8126 27.4749 21.2773 27.8893C21.7477 28.3152 22.2582 28.5108 22.6368 28.4878V28.4936Z" fill="#67A121"/>
<g opacity="0.4">
<path d="M21.6901 23.5327C21.5122 25.1498 21.7245 27.1872 22.5678 28.4936H22.6366C23.0152 27.7857 23.2963 26.8016 23.6807 25.7196C24.0363 24.6376 24.4608 23.4924 24.7133 22.5082C24.9714 21.5241 24.9714 20.7875 24.805 20.0623C24.7075 19.694 24.61 19.3602 24.4551 19.0091C24.3805 18.8307 24.2945 18.6581 24.2142 18.4797C24.1338 18.307 24.0478 18.1344 23.9675 17.956L23.8126 17.9387C22.6251 19.5616 21.9253 21.3054 21.6901 23.5327Z" fill="#67A121"/>
</g>
</g>
<defs>
<clipPath id="clip0_612_1049">
<rect width="91" height="116" fill="white"/>
</clipPath>
</defs>
</svg>
