<?xml version="1.0" encoding="UTF-8" standalone="no"?>
<!DOCTYPE svg PUBLIC "-//W3C//DTD SVG 1.1//EN" "http://www.w3.org/Graphics/SVG/1.1/DTD/svg11.dtd">
<svg width="100%" height="100%" viewBox="0 0 652 531" version="1.1" xmlns="http://www.w3.org/2000/svg" xmlns:xlink="http://www.w3.org/1999/xlink" xml:space="preserve" xmlns:serif="http://www.serif.com/" style="fill-rule:evenodd;clip-rule:evenodd;stroke-linecap:round;stroke-linejoin:round;stroke-miterlimit:1.5;">
    <g transform="matrix(1,0,0,1,0,-17)">
        <g id="Artboard2" transform="matrix(1,0,0,1,711,0)">
            <rect x="-711" y="17" width="652" height="531" style="fill:none;"/>
            <g transform="matrix(1,0,0,1,-1044.497876,-1116.409681)">
                <g>
                    <g transform="matrix(1.419643,0,0,1.419643,-343.633987,-1070.598214)">
                        <path d="M860.492,1881L569.508,1881C554.763,1855.461 547,1826.49 547,1797C547,1704.278 622.278,1629 715,1629C807.722,1629 883,1704.278 883,1797C883,1826.49 875.237,1855.461 860.492,1881Z" style="fill:none;stroke:rgb(78,34,62);stroke-width:27.88px;"/>
                    </g>
                    <g transform="matrix(2.020832,0,0,2.020832,-969.290603,-1123.192585)">
                        <circle cx="812.5" cy="1167.5" r="34.5" style="fill:rgb(254,198,18);"/>
                    </g>
                    <g transform="matrix(-0.784632,0.619962,-0.619962,-0.784632,1198.13981,1066.165115)">
                        <path d="M555.086,168.389C544.622,169.137 516.816,176.161 507.971,184.107C505.122,186.666 483.378,206.199 477.625,221.129L478.625,220.78" style="fill:none;stroke:rgb(242,163,20);stroke-width:9.5px;"/>
                    </g>
                    <g transform="matrix(-0.784632,0.619962,-0.619962,-0.784632,1107.654337,920.998386)">
                        <circle cx="494.5" cy="54.5" r="9.5" style="fill:rgb(242,163,20);"/>
                    </g>
                    <g transform="matrix(-0.784632,0.619962,-0.619962,-0.784632,1076.918385,1019.203789)">
                        <circle cx="494.5" cy="54.5" r="9.5" style="fill:rgb(242,163,20);"/>
                    </g>
                    <g transform="matrix(2.020832,0,0,2.020832,-785.569919,-1039.212042)">
                        <circle cx="812.5" cy="1167.5" r="34.5" style="fill:rgb(254,198,18);"/>
                    </g>
                    <g transform="matrix(2.020832,0,0,2.020832,-1151.450509,-1041.127403)">
                        <circle cx="812.5" cy="1167.5" r="34.5" style="fill:rgb(254,198,18);"/>
                    </g>
                    <g transform="matrix(0.575093,0.818088,-0.818088,0.575093,352.535774,782.709431)">
                        <path d="M555.086,168.389C544.622,169.137 516.816,176.161 507.971,184.107C505.122,186.666 483.378,206.199 477.625,221.129L478.625,220.78" style="fill:none;stroke:rgb(242,163,20);stroke-width:9.5px;"/>
                    </g>
                    <g transform="matrix(0.575093,0.818088,-0.818088,0.575093,202.534061,864.931607)">
                        <circle cx="494.5" cy="54.5" r="9.5" style="fill:rgb(242,163,20);"/>
                    </g>
                    <g transform="matrix(0.575093,0.818088,-0.818088,0.575093,298.866082,901.113671)">
                        <circle cx="494.5" cy="54.5" r="9.5" style="fill:rgb(242,163,20);"/>
                    </g>
                    <g transform="matrix(2.020832,0,0,2.020832,-1212.709152,-874.852322)">
                        <circle cx="812.5" cy="1167.5" r="34.5" style="fill:rgb(254,198,18);"/>
                    </g>
                    <g transform="matrix(1,0,0,1,-88.502124,1294.409681)">
                        <path d="M555.086,168.389C544.622,169.137 516.816,176.161 507.971,184.107C505.122,186.666 483.378,206.199 477.625,221.129L478.625,220.78" style="fill:none;stroke:rgb(242,163,20);stroke-width:9.5px;"/>
                    </g>
                    <g transform="matrix(1,0,0,1,-107.502124,1464.409681)">
                        <circle cx="494.5" cy="54.5" r="9.5" style="fill:rgb(242,163,20);"/>
                    </g>
                    <g transform="matrix(1,0,0,1,-22.502124,1406.409681)">
                        <circle cx="494.5" cy="54.5" r="9.5" style="fill:rgb(242,163,20);"/>
                    </g>
                    <g transform="matrix(2.020832,0,0,2.020832,-728.667512,-875.224194)">
                        <circle cx="812.5" cy="1167.5" r="34.5" style="fill:rgb(254,198,18);"/>
                    </g>
                    <g transform="matrix(0.583681,0.811983,-0.811983,0.583681,772.893715,946.192845)">
                        <path d="M555.086,168.389C544.622,169.137 516.816,176.161 507.971,184.107C505.122,186.666 483.378,206.199 477.625,221.129L478.625,220.78" style="fill:none;stroke:rgb(242,163,20);stroke-width:9.5px;"/>
                    </g>
                    <g transform="matrix(0.583681,0.811983,-0.811983,0.583681,623.76667,1029.990962)">
                        <circle cx="494.5" cy="54.5" r="9.5" style="fill:rgb(242,163,20);"/>
                    </g>
                    <g transform="matrix(0.583681,0.811983,-0.811983,0.583681,720.474579,1065.156008)">
                        <circle cx="494.5" cy="54.5" r="9.5" style="fill:rgb(242,163,20);"/>
                    </g>
                    <g transform="matrix(1,0,0,1,338.497876,1123.409681)">
                        <path d="M555.086,168.389C544.622,169.137 516.816,176.161 507.971,184.107C505.122,186.666 483.378,206.199 477.625,221.129L478.625,220.78" style="fill:none;stroke:rgb(242,163,20);stroke-width:9.5px;"/>
                    </g>
                    <g transform="matrix(1,0,0,1,319.497876,1293.409681)">
                        <circle cx="494.5" cy="54.5" r="9.5" style="fill:rgb(242,163,20);"/>
                    </g>
                    <g transform="matrix(1,0,0,1,404.497876,1235.409681)">
                        <circle cx="494.5" cy="54.5" r="9.5" style="fill:rgb(242,163,20);"/>
                    </g>
                    <g transform="matrix(1.488095,0,0,1.488095,-391.57744,-1198.203454)">
                        <path d="M860.492,1881L569.508,1881C554.763,1855.461 547,1826.49 547,1797C547,1704.278 622.278,1629 715,1629C807.722,1629 883,1704.278 883,1797C883,1826.49 875.237,1855.461 860.492,1881Z" style="fill:none;stroke:rgb(153,52,99);stroke-width:30.8px;"/>
                    </g>
                    <g transform="matrix(1.366071,0,0,1.366071,-303.988136,-984.217633)">
                        <path d="M860.492,1881L569.508,1881C554.763,1855.461 547,1826.49 547,1797C547,1704.278 622.278,1629 715,1629C807.722,1629 883,1704.278 883,1797C883,1826.49 875.237,1855.461 860.492,1881Z" style="fill:none;stroke:rgb(78,34,62);stroke-width:12.2px;"/>
                    </g>
                    <g transform="matrix(1,0,0,0.52381,9,773.333333)">
                        <path d="M816,1562.532L816,1601.468C816,1602.314 815.64,1603 815.198,1603L521.802,1603C521.36,1603 521,1602.314 521,1601.468L521,1562.532C521,1561.686 521.36,1561 521.802,1561L815.198,1561C815.64,1561 816,1561.686 816,1562.532Z" style="fill:none;stroke:rgb(153,52,99);stroke-width:57.42px;"/>
                    </g>
                </g>
            </g>
        </g>
    </g>
</svg>
