<?xml version="1.0" encoding="UTF-8"?>
<svg xmlns="http://www.w3.org/2000/svg" xmlns:serif="http://www.serif.com/" version="1.1" viewBox="0 0 615.81 489.35">
  <!-- Generator: Adobe Illustrator 29.6.1, SVG Export Plug-In . SVG Version: 2.1.1 Build 9)  -->
  <defs>
    <style>
      .st0, .st1, .st2, .st3, .st4, .st5 {
        fill: none;
      }

      .st6 {
        mix-blend-mode: multiply;
      }

      .st6, .st7 {
        opacity: .5;
      }

      .st6, .st8 {
        fill: #db9603;
      }

      .st1 {
        stroke: #872b59;
      }

      .st1, .st2, .st3, .st4, .st5 {
        stroke-linecap: round;
        stroke-linejoin: round;
      }

      .st1, .st4 {
        stroke-width: 14.49px;
      }

      .st9 {
        isolation: isolate;
      }

      .st7 {
        fill: #fcee64;
        mix-blend-mode: hard-light;
      }

      .st2 {
        stroke-width: 39.85px;
      }

      .st2, .st3 {
        stroke: #993463;
      }

      .st3 {
        stroke-width: 57.42px;
      }

      .st4, .st5 {
        stroke: #4e223e;
      }

      .st5 {
        stroke-width: 34.42px;
      }

      .st10 {
        fill: #c48414;
      }
    </style>
  </defs>
  <g class="st9">
    <g id="Warstwa_1">
      <rect class="st0" x="11.13" width="566.93" height="461.72"/>
      <path class="st5" d="M447.53,417.17H140.17c-15.57-26.98-23.77-57.58-23.77-88.73,0-97.94,79.52-177.46,177.46-177.46s177.46,79.52,177.46,177.46c0,31.15-8.2,61.75-23.77,88.73Z"/>
      <path class="st2" d="M455.68,418.03H133.5c-16.33-28.31-24.92-60.43-24.92-93.12,0-102.78,83.35-186.23,186.01-186.23s186.01,83.45,186.01,186.23c0,32.69-8.6,64.81-24.92,93.12Z"/>
      <path class="st4" d="M442.73,403.48H146.96c-14.99-25.31-22.88-54.02-22.88-83.25,0-91.89,76.51-166.5,170.76-166.5s170.76,74.61,170.76,166.5c0,29.23-7.89,57.94-22.88,83.25Z"/>
      <path class="st3" d="M408.13,411.26v15.18c0,.33-.27.6-.6.6h-218.3c-.33,0-.6-.27-.6-.6v-15.18c0-.33.27-.6.6-.6h218.3c.33,0,.6.27.6.6Z"/>
      <g>
        <path class="st8" d="M336.84,81.19c1.57-23.14-16.23-43.2-39.75-44.8-23.53-1.6-43.87,15.87-45.44,39.02-1.57,23.14,16.23,43.2,39.75,44.8,23.53,1.6,43.87-15.87,45.44-39.02Z"/>
        <ellipse class="st7" cx="297.25" cy="82.41" rx="36.78" ry="36.18" transform="translate(-3.52 13.95) rotate(-2.67)"/>
        <rect class="st8" x="248.4" y="79.45" width="91.64" height="3.17" transform="translate(1.31 -4.63) rotate(.9)"/>
        <rect class="st7" x="259.52" y="79.65" width="74.4" height="2.42" transform="translate(592.2 166.12) rotate(-179.15)"/>
        <path class="st10" d="M316.15,49.92s2.92,5.37,3.71,8.82c.51,2.2.72,4.57.81,6.47-2.12.93-3.6,3.04-3.59,5.5,0,3.31,2.69,5.98,6,5.97,3.31,0,5.98-2.69,5.97-6,0-2.4-1.43-4.47-3.48-5.42-.24-1.98-.61-4.8-1.05-7.86-.74-5.13-3.19-9.09-3.19-9.09,0,0-1.58-2.33-4.44-2.05-2.86.28-.75,3.65-.75,3.65Z"/>
        <path d="M319.86,58.75c.51,2.2.72,4.57.81,6.47-2.12.93-3.6,3.04-3.59,5.5,0,3.31,2.69,5.98,6,5.97.29,0,.58-.03.86-.07,1.82-1.03,3.04-2.98,3.04-5.22,0-2.4-1.43-4.47-3.48-5.42-.24-1.98-.61-4.8-1.05-7.86-.74-5.13-3.19-9.09-3.19-9.09,0,0-1.31-1.92-3.69-2.06-.6,1.07.58,2.95.58,2.95,0,0,2.92,5.37,3.71,8.82Z"/>
        <path class="st10" d="M265.72,74c2.22.43,4.55-1.94,5.19-5.28.41-2.12.04-4.12-.84-5.41.58-1.62,1.44-3.65,2.66-5.51,2.57-3.92,4.65-6.45,5.93-8.11.9-1.18,1.27-2.59-.15-3.12-1.7-.64-3.12.37-4.8,2.64-1.93,2.62-2.71,3.66-4.5,7.06-.83,1.58-1.69,3.77-2.37,5.67-1.8.44-3.44,2.51-3.97,5.25-.64,3.35.63,6.4,2.86,6.83Z"/>
        <path d="M268.57,63.13c-1.8.44-3.44,2.51-3.97,5.25-.43,2.22,0,4.31.98,5.59.05.01.09.03.14.04,2.22.43,4.55-1.94,5.19-5.28.41-2.12.04-4.12-.84-5.41.58-1.62,1.44-3.65,2.66-5.51,2.57-3.92,4.65-6.45,5.93-8.11.53-.69.86-1.46.77-2.09-1.35-.09-2.58.92-3.98,2.81-1.93,2.62-2.71,3.66-4.5,7.06-.83,1.58-1.69,3.77-2.37,5.67Z"/>
        <path class="st6" d="M251.55,77.73l85.38,1.35c0,.34-.03.69-.04,1.04l-85.32-1.34c0-.35-.01-.69,0-1.04Z"/>
      </g>
      <g>
        <path class="st8" d="M210.97,84.76c-12.05-19.82-38.16-25.95-58.31-13.7-20.15,12.25-26.71,38.25-14.65,58.07,12.05,19.82,38.16,25.95,58.31,13.7,20.15-12.25,26.71-38.25,14.65-58.07Z"/>
        <ellipse class="st7" cx="179.33" cy="108.57" rx="36.78" ry="36.18" transform="translate(-28.89 132.93) rotate(-37.86)"/>
        <rect class="st8" x="130.24" y="107.61" width="91.64" height="3.17" transform="translate(-30.92 118.17) rotate(-34.29)"/>
        <rect class="st7" x="140.8" y="106.4" width="74.4" height="2.42" transform="translate(385.67 96.06) rotate(145.66)"/>
        <path class="st10" d="M176.05,71.14s5.48,2.71,8.12,5.07c1.68,1.51,3.22,3.32,4.39,4.82-1.2,1.98-1.19,4.56.24,6.56,1.91,2.7,5.65,3.34,8.35,1.42,2.7-1.91,3.34-5.65,1.42-8.35-1.39-1.96-3.75-2.83-5.96-2.42-1.34-1.48-3.26-3.58-5.38-5.82-3.56-3.77-7.85-5.59-7.85-5.59,0,0-2.63-1-4.81.88-2.18,1.88,1.49,3.42,1.49,3.42Z"/>
        <path d="M184.17,76.21c1.68,1.51,3.22,3.32,4.39,4.82-1.2,1.98-1.19,4.56.24,6.56,1.91,2.7,5.65,3.34,8.35,1.42.24-.17.46-.36.66-.55.89-1.89.77-4.19-.53-6.02-1.39-1.96-3.75-2.83-5.96-2.42-1.34-1.48-3.26-3.58-5.38-5.82-3.56-3.77-7.85-5.59-7.85-5.59,0,0-2.17-.81-4.21.45.12,1.22,2.17,2.08,2.17,2.08,0,0,5.48,2.71,8.12,5.07Z"/>
        <path class="st10" d="M148.71,119.88c2.06-.93,2.6-4.2,1.2-7.31-.89-1.97-2.34-3.39-3.81-3.94-.47-1.66-.93-3.81-1-6.04-.16-4.69.09-7.95.17-10.05.06-1.48-.45-2.85-1.93-2.46-1.75.46-2.34,2.11-2.4,4.92-.07,3.25-.1,4.56.39,8.37.23,1.77.79,4.05,1.33,6-1.22,1.39-1.36,4.04-.22,6.57,1.4,3.11,4.21,4.87,6.27,3.94Z"/>
        <path d="M144.78,109.34c-1.22,1.39-1.36,4.04-.22,6.57.93,2.06,2.48,3.53,4.02,4.01.04-.02.09-.03.13-.05,2.06-.93,2.6-4.2,1.2-7.31-.89-1.97-2.34-3.39-3.81-3.94-.47-1.66-.93-3.81-1-6.04-.16-4.69.09-7.95.17-10.05.03-.87-.13-1.69-.57-2.15-1.16.71-1.58,2.24-1.63,4.58-.07,3.25-.1,4.56.39,8.37.23,1.77.79,4.05,1.33,6Z"/>
        <path class="st6" d="M139.28,131.09l70.55-48.11c.19.29.38.58.56.87l-70.5,48.07c-.2-.28-.41-.56-.61-.84Z"/>
      </g>
      <g>
        <path class="st8" d="M114.98,148.66c-19.38-12.75-45.6-7.11-58.55,12.6-12.96,19.7-7.75,46.01,11.64,58.75,19.38,12.75,45.6,7.11,58.55-12.6,12.96-19.7,7.75-46.01-11.64-58.75Z"/>
        <ellipse class="st7" cx="96.59" cy="183.73" rx="36.78" ry="36.18" transform="translate(-110.95 187.2) rotate(-63.23)"/>
        <rect class="st8" x="48.08" y="184.1" width="91.64" height="3.17" transform="translate(-113.79 172.91) rotate(-59.65)"/>
        <rect class="st7" x="57.77" y="182.22" width="74.4" height="2.42" transform="translate(301.26 193.96) rotate(120.3)"/>
        <path class="st10" d="M77.59,151.3s6.11.1,9.51,1.11c2.16.64,4.33,1.62,6.03,2.47-.23,2.3.88,4.63,3.02,5.83,2.88,1.62,6.53.59,8.15-2.29,1.62-2.88.59-6.53-2.29-8.15-2.1-1.18-4.6-.95-6.43.37-1.84-.76-4.48-1.83-7.36-2.95-4.83-1.88-9.48-1.69-9.48-1.69,0,0-2.81.23-3.97,2.86-1.16,2.63,2.81,2.45,2.81,2.45Z"/>
        <path d="M87.09,152.41c2.16.64,4.33,1.62,6.03,2.47-.23,2.3.88,4.63,3.02,5.83,2.88,1.62,6.53.59,8.15-2.29.14-.25.26-.52.36-.78,0-2.09-1.1-4.12-3.05-5.21-2.1-1.18-4.6-.95-6.43.37-1.84-.76-4.48-1.83-7.36-2.95-4.83-1.88-9.48-1.69-9.48-1.69,0,0-2.31.2-3.61,2.2.64,1.05,2.85.95,2.85.95,0,0,6.11.1,9.51,1.11Z"/>
        <path class="st10" d="M73.76,207.06c1.46-1.72.55-4.91-2.05-7.12-1.64-1.4-3.57-2.06-5.13-1.93-1.13-1.3-2.47-3.05-3.49-5.03-2.15-4.17-3.33-7.22-4.15-9.15-.58-1.37-1.63-2.38-2.8-1.4-1.39,1.16-1.21,2.9-.06,5.47,1.33,2.97,1.86,4.16,3.94,7.39.96,1.5,2.45,3.32,3.77,4.85-.5,1.78.5,4.23,2.62,6.03,2.6,2.21,5.89,2.6,7.35.87Z"/>
        <path d="M65.7,199.22c-.5,1.78.5,4.23,2.62,6.03,1.72,1.46,3.75,2.12,5.35,1.9.03-.03.07-.06.1-.1,1.46-1.72.55-4.91-2.05-7.12-1.64-1.4-3.57-2.06-5.13-1.93-1.13-1.3-2.47-3.05-3.49-5.03-2.15-4.17-3.33-7.22-4.15-9.15-.34-.8-.85-1.47-1.44-1.7-.74,1.14-.47,2.7.49,4.84,1.33,2.97,1.86,4.16,3.94,7.39.96,1.5,2.45,3.32,3.77,4.85Z"/>
        <path class="st6" d="M70.05,221.23l43.14-73.69c.3.17.59.37.88.55l-43.11,73.64c-.3-.17-.61-.33-.91-.5Z"/>
      </g>
      <g>
        <path class="st8" d="M521.72,220.47c18.9-13.45,23.13-39.93,9.46-59.14-13.68-19.21-40.08-23.88-58.98-10.42-18.9,13.45-23.13,39.93-9.46,59.14,13.68,19.21,40.08,23.88,58.98,10.42Z"/>
        <ellipse class="st7" cx="495.69" cy="190.63" rx="36.18" ry="36.78" transform="translate(-.23 380.65) rotate(-42)"/>
        <rect class="st8" x="449.01" y="185.83" width="91.64" height="3.17" transform="translate(334.11 -316.72) rotate(51.57)"/>
        <rect class="st7" x="459.35" y="188.02" width="74.4" height="2.42" transform="translate(657.37 695.7) rotate(-128.48)"/>
        <path class="st10" d="M532.79,184.66s-2.31,5.66-4.47,8.46c-1.38,1.79-3.08,3.46-4.49,4.73-2.06-1.05-4.63-.85-6.53.71-2.55,2.1-2.92,5.88-.82,8.43,2.1,2.55,5.88,2.92,8.43.82,1.86-1.53,2.55-3.94,1.99-6.12,1.37-1.44,3.33-3.51,5.42-5.79,3.5-3.83,5.01-8.23,5.01-8.23,0,0,.8-2.7-1.23-4.73-2.03-2.04-3.3,1.73-3.3,1.73Z"/>
        <path d="M528.32,193.12c-1.38,1.79-3.08,3.46-4.49,4.73-2.06-1.05-4.63-.85-6.53.71-2.55,2.1-2.92,5.88-.82,8.43.19.23.39.43.6.62,1.95.75,4.24.46,5.96-.96,1.86-1.53,2.55-3.94,1.99-6.12,1.37-1.44,3.33-3.51,5.42-5.79,3.5-3.83,5.01-8.23,5.01-8.23,0,0,.66-2.23-.75-4.16-1.21.21-1.92,2.32-1.92,2.32,0,0-2.31,5.66-4.47,8.46Z"/>
        <path class="st10" d="M482.21,160.91c1.08,1.99,4.38,2.29,7.38.67,1.9-1.03,3.21-2.58,3.65-4.08,1.62-.58,3.74-1.2,5.95-1.44,4.67-.5,7.94-.49,10.03-.56,1.48-.05,2.81-.65,2.32-2.1-.58-1.72-2.27-2.18-5.08-2.04-3.25.16-4.55.23-8.32.99-1.75.35-3.98,1.08-5.88,1.76-1.48-1.11-4.13-1.07-6.57.26-3,1.62-4.55,4.55-3.47,6.54Z"/>
        <path d="M492.43,156.23c-1.48-1.11-4.13-1.07-6.57.26-1.99,1.08-3.34,2.73-3.71,4.3.02.04.03.09.06.13,1.08,1.99,4.38,2.29,7.38.67,1.9-1.03,3.21-2.58,3.65-4.08,1.62-.58,3.74-1.2,5.95-1.44,4.67-.5,7.94-.49,10.03-.56.87-.03,1.68-.26,2.1-.73-.79-1.1-2.34-1.42-4.69-1.3-3.25.16-4.55.23-8.32.99-1.75.35-3.98,1.08-5.88,1.76Z"/>
        <path class="st6" d="M470.34,152.31l53.07,66.89c-.27.21-.55.42-.83.62l-53.04-66.85c.27-.22.53-.45.8-.67Z"/>
      </g>
      <g>
        <path class="st8" d="M540.08,331.41c23.19-.61,41.49-20.21,40.87-43.78-.62-23.57-19.92-42.19-43.11-41.58-23.19.61-41.49,20.21-40.87,43.78.62,23.57,19.92,42.19,43.11,41.58Z"/>
        <ellipse class="st7" cx="535.15" cy="292.12" rx="36.18" ry="36.78" transform="translate(-35.65 77.85) rotate(-8.05)"/>
        <rect class="st8" x="490.41" y="287.39" width="91.64" height="3.17" transform="translate(782.45 -268.19) rotate(85.52)"/>
        <rect class="st7" x="499.45" y="290.23" width="74.4" height="2.42" transform="translate(288.5 849.43) rotate(-94.53)"/>
        <path class="st6" d="M535.52,246.18l6.67,85.13c-.34.03-.69.04-1.04.05l-6.66-85.07c.34-.04.69-.08,1.03-.11Z"/>
      </g>
      <g>
        <path class="st8" d="M449.16,131.83c12-19.85,5.37-45.83-14.81-58.04-20.18-12.2-46.27-6-58.27,13.85-12,19.85-5.37,45.83,14.81,58.04,20.18,12.2,46.27,6,58.27-13.85Z"/>
        <ellipse class="st7" cx="413.42" cy="114.78" rx="36.18" ry="36.78" transform="translate(136.94 442.88) rotate(-65.4)"/>
        <rect class="st8" x="365.54" y="110.58" width="91.64" height="3.17" transform="translate(101.72 -180.95) rotate(28.18)"/>
        <rect class="st7" x="376.45" y="111.94" width="74.4" height="2.42" transform="translate(725.12 407.95) rotate(-151.87)"/>
        <path class="st10" d="M445.1,94.56s.13,6.11-.75,9.54c-.56,2.19-1.45,4.39-2.24,6.12-2.31-.15-4.59,1.05-5.71,3.24-1.51,2.94-.35,6.55,2.6,8.06,2.94,1.51,6.55.35,8.06-2.6,1.1-2.14.78-4.63-.61-6.41.69-1.87,1.66-4.55,2.67-7.46,1.7-4.9,1.33-9.54,1.33-9.54,0,0-.34-2.8-3.01-3.86-2.67-1.06-2.34,2.9-2.34,2.9Z"/>
        <path d="M444.35,104.11c-.56,2.19-1.45,4.39-2.24,6.12-2.31-.15-4.59,1.05-5.71,3.24-1.51,2.94-.35,6.55,2.6,8.06.26.13.53.24.8.33,2.09-.08,4.07-1.26,5.09-3.25,1.1-2.14.78-4.63-.61-6.41.69-1.87,1.66-4.55,2.67-7.46,1.7-4.9,1.33-9.54,1.33-9.54,0,0-.28-2.31-2.34-3.52-1.02.67-.84,2.89-.84,2.89,0,0,.13,6.11-.75,9.54Z"/>
        <path class="st10" d="M389.24,92.85c1.78,1.4,4.93.36,7.03-2.32,1.33-1.7,1.93-3.64,1.73-5.2,1.26-1.18,2.95-2.59,4.89-3.68,4.09-2.31,7.09-3.6,8.99-4.5,1.34-.63,2.32-1.72,1.3-2.85-1.22-1.35-2.95-1.1-5.47.15-2.92,1.44-4.09,2.02-7.24,4.21-1.46,1.02-3.23,2.57-4.7,3.95-1.8-.43-4.21.66-5.93,2.84-2.11,2.68-2.37,5.98-.59,7.38Z"/>
        <path d="M396.77,84.5c-1.8-.43-4.21.66-5.93,2.84-1.4,1.78-1.98,3.83-1.7,5.42.04.03.07.07.1.09,1.78,1.4,4.93.36,7.03-2.32,1.33-1.7,1.93-3.64,1.73-5.2,1.26-1.18,2.95-2.59,4.89-3.68,4.09-2.31,7.09-3.6,8.99-4.5.79-.37,1.44-.9,1.64-1.5-1.16-.7-2.71-.37-4.82.67-2.92,1.44-4.09,2.02-7.24,4.21-1.46,1.02-3.23,2.57-4.7,3.95Z"/>
        <path class="st6" d="M374.94,89.68l75.27,40.32c-.16.3-.34.6-.52.9l-75.22-40.3c.15-.31.3-.62.47-.93Z"/>
      </g>
      <path class="st10" d="M539.19,294.96c0,.1.03.19.04.28.72,3.58,3.73,6.31,7.11,6.24,2.93-.06,5.25-2.2,5.9-5.12,1.95-.08,5.79-.53,9.58-.94,5.59-.62,11.29-1.47,11.29-1.47,0,0,2.46-.07,2.22-2.61-.6-2.42-2.77-1.59-2.77-1.59,0,0-7.8.75-11.39,1.15-2.49.28-6.96.66-9.47.87-1.24-2.55-3.72-4.31-6.45-4.25-3.68.08-6.39,3.41-6.06,7.45Z"/>
      <path d="M540.8,295.21c0,.08.02.15.02.23.53,2.89,3.12,5,6.13,4.85,2.61-.14,4.73-1.94,5.4-4.33,1.73-.13,5.17-.6,8.55-1.05,4.98-.67,10.08-1.53,10.08-1.53,0,0,2.19-.13,2.05-2.19-.46-1.94-2.41-1.21-2.41-1.21,0,0-6.95.84-10.16,1.27-2.22.3-6.21.74-8.44.99-1.03-2.04-3.18-3.38-5.6-3.26-3.27.17-5.78,2.96-5.61,6.23Z"/>
      <g>
        <path class="st8" d="M61.99,244.3c-21.57-5.62-43.69,7.6-49.4,29.53-5.71,21.93,7.15,44.26,28.72,49.88,21.57,5.62,43.69-7.6,49.4-29.53,5.71-21.93-7.15-44.26-28.72-49.88Z"/>
        <ellipse class="st7" cx="56.07" cy="281.9" rx="35.34" ry="34.77" transform="translate(-230.9 297.97) rotate(-81.96)"/>
        <rect class="st8" x="10.2" y="282.98" width="88.06" height="3.05" transform="translate(-235.37 280.32) rotate(-78.38)"/>
        <rect class="st7" x="18.76" y="280.96" width="71.49" height="2.33" transform="translate(341.83 285.3) rotate(101.57)"/>
        <path class="st6" d="M43.49,324.21l16.53-80.37c.32.07.65.15.97.23l-16.52,80.32c-.33-.06-.66-.11-.98-.18Z"/>
      </g>
      <path class="st10" d="M54.57,277.46c.02-.1.02-.19.03-.28.16-3.65-2.12-7.01-5.42-7.75-2.86-.64-5.62.89-6.95,3.57-1.91-.38-5.75-.87-9.53-1.36-5.57-.73-11.32-1.25-11.32-1.25,0,0-2.4-.52-2.77,2.01,0,2.49,2.31,2.2,2.31,2.2,0,0,7.75,1.13,11.34,1.59,2.48.32,6.92,1.01,9.4,1.4.6,2.78,2.59,5.07,5.25,5.66,3.59.8,7.02-1.8,7.66-5.8Z"/>
      <path d="M53.32,277.25c.02-.08.03-.15.04-.23.29-2.92-1.61-5.67-4.55-6.36-2.55-.59-5.09.56-6.39,2.66-1.7-.36-5.13-.86-8.5-1.36-4.97-.74-10.11-1.32-10.11-1.32,0,0-2.14-.48-2.57,1.53-.1,1.99,1.98,1.83,1.98,1.83,0,0,6.92,1.12,10.11,1.6,2.22.33,6.17,1.01,8.39,1.39.42,2.24,2.12,4.13,4.48,4.68,3.19.74,6.37-1.24,7.12-4.43Z"/>
      <path d="M135.68,288.41"/>
      <path class="st4" d="M191.44,399.74"/>
      <path class="st1" d="M405.15,437.48s20.21-16.87,0-35.63"/>
      <path class="st1" d="M193.12,401.85s-20.21,16.87,0,35.63"/>
    </g>
  </g>
</svg>