<svg width="120" height="100" viewBox="0 0 120 100" fill="none" xmlns="http://www.w3.org/2000/svg">
<circle cx="60" cy="50" r="50" fill="#A1D99B"/>
<path d="M94.613 30.0407C94.356 33.677 94.8605 37.456 94.8605 37.456L97.2974 37.2085C97.2974 37.2085 95.9552 33.8007 96.4502 28.5748C96.9357 23.3488 99.7438 20.674 101.076 20.7882C102.78 20.9405 103.142 17.5327 100.715 17.6279C98.592 17.7135 99.2297 20.1028 99.2297 20.1028C99.2297 20.1028 95.0794 23.7201 94.632 30.0407H94.613Z" fill="#C48353"/>
<path d="M113.498 23.9676C114.964 24.8433 116.773 21.94 114.545 20.9596C112.604 20.1124 112.128 22.5397 112.128 22.5397C112.128 22.5397 106.816 23.9961 103.665 29.4791C101.847 32.6394 100.657 36.2662 100.657 36.2662L102.951 37.1038C102.951 37.1038 103.227 33.458 105.94 28.9555C108.653 24.453 112.347 23.2727 113.489 23.958L113.498 23.9676Z" fill="#C48353"/>
<path d="M37.8599 81.4981C44.6374 82.5833 55.7557 81.7646 67.6925 80.4129C79.6294 79.0612 83.694 74.178 87.7586 70.6464C91.8233 67.1149 92.9084 61.9651 96.9826 58.443C101.047 54.921 107.016 54.921 109.729 51.6655C112.441 48.41 111.899 40.5472 107.558 37.8343C103.218 35.1214 93.7271 35.1214 91.0142 39.7286C88.3012 44.3358 82.7802 50.3042 79.7912 51.656C76.8118 53.0077 77.6304 52.2461 68.9585 51.9701C60.2772 51.7035 43.2762 60.8799 42.2006 67.1149C42.2006 67.1149 35.147 72.5407 28.6359 70.0943C25.2948 68.8378 20.2306 71.7221 18.3268 72.8072C16.4325 73.8924 12.901 76.6053 10.7306 77.4144C8.5603 78.2236 8.83635 79.8513 16.1565 80.67C23.4766 81.4791 31.0728 80.4034 37.8504 81.4791L37.8599 81.4981Z" fill="#E19E67"/>
<g style="mix-blend-mode:multiply" opacity="0.5">
<path d="M37.8698 73.3904C32.7676 74.0853 27.8272 76.2175 22.687 75.9605C20.8117 75.8653 18.7842 75.3418 17.6514 73.8378C17.4705 73.5998 17.3373 73.3523 17.223 73.0953C15.2526 74.3613 12.3588 76.4841 10.4836 77.179C8.31323 77.9881 8.58929 79.6158 15.9094 80.4345C23.2296 81.2531 30.8257 80.1679 37.6033 81.2436C44.3808 82.3288 55.4991 81.5196 67.4359 80.1584C79.3728 78.8067 83.4374 73.9235 87.502 70.3919C91.5667 66.8603 92.6518 61.7105 96.726 58.1885C100.791 54.6665 106.759 54.6665 109.472 51.411C109.862 50.9445 110.167 50.3829 110.424 49.7642C107.083 51.3443 102.809 51.5728 99.0581 52.4295C93.5085 53.6955 88.3968 56.8273 84.7415 61.1965C82.2761 64.1379 80.4484 67.6409 77.5547 70.173C74.0802 73.2191 69.5301 74.4756 64.8467 74.7802C61.22 75.0181 58.945 70.8107 61.2676 68.0217C61.2866 68.0026 61.3057 67.9836 61.3152 67.9645C64.4089 64.3283 70.0346 61.425 77.1263 58.693C81.3052 57.0843 83.466 51.6204 84.5321 47.4034C82.6759 49.2977 80.8577 50.8017 79.5346 51.411C76.5552 52.7627 77.3738 52.0011 68.702 51.7251C63.5807 51.5633 55.5657 54.695 49.6353 58.5693C48.9405 61.444 48.3788 64.1284 48.0647 65.7752C47.5412 68.4786 48.3979 71.4771 50.0637 73.6855C45.9896 73.181 41.9249 72.8288 37.8698 73.3809V73.3904Z" fill="#E19E67"/>
</g>
<path d="M14.644 40.702C15.5197 34.8763 12.3118 31.9635 12.3118 31.9635C12.3118 31.9635 8.52326 30.5071 5.32487 32.8393C2.11695 35.1714 4.7442 42.4535 7.07637 45.6519C9.40853 48.8598 13.7778 46.5276 14.6535 40.702H14.644Z" fill="#C06D2B"/>
<path d="M14.644 40.702C15.5197 34.8763 12.3118 31.9635 12.3118 31.9635C12.3118 31.9635 8.52326 30.5071 5.32487 32.8393C2.11695 35.1714 4.7442 42.4535 7.07637 45.6519C9.40853 48.8598 13.7778 46.5276 14.6535 40.702H14.644Z" fill="#726658"/>
<g style="mix-blend-mode:multiply" opacity="0.5">
<path d="M8.57163 39.0362C7.01051 39.95 5.46843 39.7692 4.21191 39.2456C4.79257 41.6539 5.96342 44.1194 7.07714 45.6519C9.40931 48.8598 13.7785 46.5277 14.6543 40.702C15.53 34.8764 12.3221 31.9636 12.3221 31.9636C12.3221 31.9636 11.3702 31.5923 10.009 31.5257C10.9704 33.5818 11.8938 37.0848 8.57163 39.0267V39.0362Z" fill="#726658"/>
</g>
<path d="M9.69356 46.5276C5.61941 49.4405 11.4451 57.0081 16.9756 56.4274C22.5062 55.8468 28.3318 48.5647 26.2948 40.702C24.2577 32.8393 24.8383 30.8022 19.0127 28.7651C19.0127 28.7651 12.892 28.1845 12.3113 31.973C11.7306 35.7616 13.7677 43.6243 9.69356 46.5371V46.5276Z" fill="#726658"/>
<g style="mix-blend-mode:multiply" opacity="0.5">
<path d="M8.33302 49.1644C8.3235 52.5342 12.7308 56.8749 16.9763 56.4275C22.5069 55.8468 28.3325 48.5647 26.2954 40.702C24.2584 32.8393 24.839 30.8022 19.0134 28.7652C19.0134 28.7652 18.0805 28.6795 16.9097 28.7937C17.9282 31.4876 19.1752 36.5803 16.5479 41.3112C13.1306 47.4605 11.5505 49.6118 8.33302 49.1644Z" fill="#726658"/>
</g>
<path d="M14.3577 54.6855C9.69333 55.8468 16.1092 72.1624 28.6267 70.706C41.1537 69.2496 45.523 49.1549 41.7344 38.3794C37.9458 27.6038 26.0089 26.1474 26.0089 26.1474C26.0089 26.1474 17.3561 26.7376 19.022 28.7651C19.8501 29.7837 23.9052 34.4766 22.2299 41.2922C20.9543 46.4515 19.022 53.5241 14.3672 54.6855H14.3577Z" fill="#726658"/>
<g style="mix-blend-mode:multiply" opacity="0.5">
<path d="M20.743 63.3627C18.9918 63.9695 17.1109 63.9881 15.2578 64.1655C17.8707 67.7595 22.2347 70.8307 27.8681 70.1679C40.0615 68.7396 44.3143 49.0335 40.6267 38.4664C36.939 27.8992 25.3201 26.4709 25.3201 26.4709C25.3201 26.4709 24.1249 26.4709 22.735 26.6576C23.3929 28.3193 24.3472 29.8875 25.0977 31.5212C26.9138 35.4698 27.4975 39.8666 27.9237 44.198C28.2851 47.876 28.526 51.6473 27.5624 55.2226C26.5987 58.7886 24.2083 62.1585 20.743 63.3627Z" fill="#726658"/>
</g>
<path d="M28.6273 70.706C28.6273 70.706 36.49 76.8267 46.9799 77.1123C57.4604 77.4074 62.1247 54.1048 74.9373 52.0677C74.9373 52.0677 79.3066 32.5537 62.7054 21.1975C48.8076 11.688 37.0706 17.704 32.1207 20.0362C27.1708 22.3684 26 26.1569 26 26.1569C26 26.1569 35.6904 30.174 36.7755 43.3388C38.5842 65.1564 28.6177 70.7155 28.6177 70.7155L28.6273 70.706Z" fill="#726658"/>
<g style="mix-blend-mode:soft-light">
<path d="M41.6491 46.1374C41.6776 46.9465 41.7728 47.8128 42.3059 48.422C42.6962 48.8789 43.2864 49.1264 43.8765 49.2311C45.4091 49.4881 46.9988 48.8027 48.0935 47.6985C49.1882 46.5943 49.8545 45.1379 50.3019 43.6434C51.5489 39.4455 51.1776 34.7907 49.2643 30.8594C47.351 26.9185 43.9337 23.7391 39.8595 22.1304C38.3555 21.5307 36.6992 21.1404 35.1095 21.4736C33.5198 21.8068 32.0444 23.0062 31.7874 24.6149C31.5304 26.1855 32.4823 27.7181 33.6531 28.7937C34.8335 29.8599 36.2613 30.6214 37.4512 31.6875C39.117 33.182 40.2403 35.2191 40.9066 37.3513C41.3064 38.6269 41.5444 39.9596 41.63 41.2922C41.7348 42.9104 41.6015 44.5287 41.6586 46.1469L41.6491 46.1374Z" fill="white"/>
</g>
<path d="M108.645 40.7401C108.645 41.9395 107.674 42.92 106.465 42.92C105.256 42.92 104.285 41.949 104.285 40.7401C104.285 39.5312 105.256 38.5602 106.465 38.5602C107.674 38.5602 108.645 39.5312 108.645 40.7401Z" fill="#231F20"/>
<path d="M107.987 39.8929C107.987 40.2832 107.664 40.6068 107.273 40.6068C106.883 40.6068 106.56 40.2832 106.56 39.8929C106.56 39.5026 106.883 39.179 107.273 39.179C107.664 39.179 107.987 39.5026 107.987 39.8929Z" fill="white"/>
<path d="M101.458 41.3588C101.458 42.5582 100.487 43.5387 99.2785 43.5387C98.0696 43.5387 97.0986 42.5677 97.0986 41.3588C97.0986 40.1499 98.0696 39.179 99.2785 39.179C100.487 39.179 101.458 40.1499 101.458 41.3588Z" fill="#231F20"/>
<path d="M100.801 40.5021C100.801 40.8924 100.477 41.216 100.087 41.216C99.6967 41.216 99.373 40.8924 99.373 40.5021C99.373 40.1118 99.6967 39.7881 100.087 39.7881C100.477 39.7881 100.801 40.1118 100.801 40.5021Z" fill="white"/>
<g style="mix-blend-mode:multiply" opacity="0.5">
<path d="M74.9371 52.0677C74.9371 52.0677 79.3064 32.5537 62.7052 21.1975C53.9001 15.172 45.9707 15.3719 40.0785 16.9235C45.2949 18.5608 49.9211 21.7687 52.6341 26.4806C54.7663 30.174 55.604 34.4861 55.7849 38.7506C56.4036 52.8578 49.7117 67.0602 38.5078 75.6273C41.0113 76.4269 43.8765 77.0266 46.9702 77.1123C57.4507 77.4074 62.115 54.1048 74.9276 52.0677H74.9371Z" fill="#726658"/>
</g>
</svg>
