<svg width="100" height="104" viewBox="0 0 100 104" fill="none" xmlns="http://www.w3.org/2000/svg">
<circle cx="50" cy="53" r="50" fill="#A1D99B"/>
<g clip-path="url(#clip0_1029_807)">
<path d="M12.1504 61.5651C13.8328 60.9532 16.439 65.5592 21.4947 66.1711C26.5504 66.783 30.3854 56.4961 30.3854 56.4961C32.2246 53.883 29.4699 48.6651 27.7792 48.202C26.0967 47.7389 25.173 48.508 23.4906 50.658C21.8081 52.808 21.1895 56.802 19.0452 57.2651C16.9009 57.7282 11.6885 54.652 9.23901 56.033C6.78953 57.414 6.48437 62.483 7.55654 63.2521C8.6287 64.0211 10.4679 62.1771 12.1504 61.5651Z" fill="#DB6536"/>
<path d="M46.1294 49.0785C48.4552 56.0743 59.3088 68.9 58.5335 75.8875C57.7583 82.875 65.5109 91.045 65.5109 91.045C65.5109 91.045 67.8366 97.2635 79.8531 93.7656C91.8696 90.2677 96.1335 73.1669 87.6057 61.9042C79.0779 50.6332 74.4263 53.7424 69.7748 45.5806C65.1232 37.4189 77.915 32.3664 83.3418 36.2529V32.755C83.3418 32.755 91.482 34.3096 92.6449 36.6416C92.6449 36.6416 88.7686 26.9252 84.1171 23.8159L79.4655 20.7067L82.9542 18.7634C82.9542 18.7634 68.2243 12.5449 56.6036 19.9294C44.9748 27.3138 47.6882 41.3054 47.6882 41.3054L44.9748 36.6416C44.9748 36.6416 44.4387 43.9516 46.1377 49.0785H46.1294Z" fill="#DB6536"/>
<g style="mix-blend-mode:multiply" opacity="0.5">
<path d="M65.5031 91.045C65.5031 91.045 67.8288 97.2635 79.8453 93.7656C90.1711 90.7639 94.7649 77.715 90.4433 66.9484C90.2866 68.685 90.0886 70.5952 89.8412 72.4557C89.0577 78.2277 82.7732 81.3783 82.7732 81.3783C82.7732 81.3783 84.0845 77.7067 84.0845 75.3417C84.0845 72.9767 82.2536 66.9484 82.2536 66.9484C82.2536 66.9484 81.4701 70.3636 80.4227 72.7204C79.3752 75.0854 75.7134 76.3919 75.7134 76.3919C75.7134 76.3919 75.7134 74.8208 74.6659 68.5196C73.6185 62.2184 64.7196 57.2403 64.7196 57.2403L65.2391 61.962C65.7587 66.6838 62.0969 71.1492 62.0969 71.1492C62.0969 71.1492 60.4721 72.5963 58.5505 74.6802C58.5752 75.1019 58.5752 75.5154 58.534 75.904C57.7587 82.8998 65.5113 91.0616 65.5113 91.0616L65.5031 91.045Z" fill="#DB6536"/>
</g>
<path d="M46.13 49.0785C46.2042 49.2935 46.2784 49.5085 46.3691 49.7318C48.1588 51.4849 50.4269 53.3703 52.9176 54.6107C52.9176 54.6107 50.5918 44.9935 52.0434 39.7508L55.2434 44.1253C55.2434 44.1253 54.666 31.8867 60.7691 26.9335C66.8722 21.9802 73.8495 24.0227 73.8495 24.0227C73.8495 24.0227 68.0351 20.8142 61.6434 21.1119C61.6434 21.1119 73.0825 17.2253 82.7733 18.8875L82.9629 18.78C82.9629 18.78 68.2331 12.5615 56.6124 19.9459C44.9918 27.3304 47.697 41.322 47.697 41.322L44.9836 36.6581C44.9836 36.6581 44.4475 43.9681 46.1465 49.0951L46.13 49.0785Z" fill="#EC7136"/>
<path d="M16.4477 99.0993C15.8621 102.597 51.0374 101.77 57.726 100.315C64.4147 98.8595 74.3199 90.061 70.2456 76.9377C66.1714 63.8144 54.2539 61.4824 46.1054 56.2315C37.9652 50.9805 37.6683 38.4443 37.6683 38.4443C23.1281 35.2358 19.0539 42.8187 19.6395 53.6101C20.225 64.4015 22.5508 73.7292 22.5508 73.7292C22.5508 73.7292 20.5137 74.8952 19.6395 81.891C18.7652 88.8868 25.1652 95.3037 25.1652 95.3037C25.1652 95.3037 17.025 95.5931 16.4395 99.091L16.4477 99.0993Z" fill="#EC7136"/>
<path d="M16.4476 99.0993C16.1754 100.737 23.6971 101.423 32.4723 101.547C30.6662 97.6025 26.8888 87.0592 26.493 85.0994C26.0393 82.8419 25.3631 78.5419 24.8022 76.5077C24.5136 75.4657 23.194 74.7546 21.9816 74.308C21.3136 75.1763 20.2249 77.2436 19.6476 81.891C18.7734 88.8868 25.1734 95.3037 25.1734 95.3037C25.1734 95.3037 17.0332 95.5931 16.4476 99.091V99.0993Z" fill="#DC7355"/>
<g style="mix-blend-mode:multiply" opacity="0.5">
<path d="M48.15 57.4553C47.4489 57.0584 46.7644 56.6615 46.1046 56.2315C40.3479 52.5269 38.517 45.1755 37.9397 41.1897C35.3747 42.3474 32.917 45.0514 32.917 45.0514C32.917 45.0514 33.8572 53.2049 38.3355 56.8682C42.55 60.3165 48.5376 60.4157 48.15 57.4553Z" fill="#DB6536"/>
</g>
<path d="M42.641 72.9767C37.2142 71.0334 34.8885 67.9242 32.1751 63.0701C29.4617 58.2161 29.272 51.4105 29.074 45.7791C28.9586 42.4962 27.1359 40.2718 25.4452 38.9901C20.7359 41.3716 19.2596 45.3739 18.9792 52.1299C18.5338 63.0371 20.2658 76.2761 24.4225 88.3327C26.2782 93.7326 31.9194 101.274 32.5132 101.274C32.0019 100.199 31.8122 98.9505 32.7524 97.6605C34.8802 94.7497 42.4431 94.7497 42.4431 94.7497C42.4431 94.7497 33.7256 94.1708 34.3029 84.8431C34.8802 75.5154 42.6328 72.9933 42.6328 72.9933L42.641 72.9767Z" fill="#FFC9A1"/>
<path d="M28.3483 73.018C35.771 72.6046 33.503 65.9892 33.503 65.9892C33.503 65.9892 27.9359 64.7488 27.1112 64.7488C26.4761 64.7488 21.5277 64.2526 19.3174 64.0294C19.5153 66.2703 19.7957 68.5444 20.1504 70.835C21.7174 72.0092 24.3318 73.2413 28.3483 73.018Z" fill="#E29052"/>
<path d="M18.4267 65.7163C20.1092 65.1044 22.7154 69.7104 27.7711 70.3223C32.8267 70.9342 36.6618 60.6473 36.6618 60.6473C38.5009 58.0342 35.7463 52.8163 34.0556 52.3532C32.3731 51.8901 31.4494 52.6592 29.7669 54.8092C28.0845 56.9592 27.4659 60.9532 25.3216 61.4163C23.1772 61.8794 17.9649 58.8032 15.5154 60.1842C13.0659 61.5652 12.7607 66.6342 13.8329 67.4032C14.9051 68.1723 16.7442 66.3282 18.4267 65.7163Z" fill="#EC7136"/>
<path d="M10.7402 26.3629C7.68041 29.1083 6.07217 36.4514 8.8598 40.3958C11.6474 44.3403 20.9258 49.5499 30.3031 50.1618C39.6804 50.7737 48.0021 46.821 48.6124 39.1554C49.2144 31.4898 46.2619 29.6375 45.165 23.9565C44.068 18.2673 43.334 17.7132 43.3588 17.3494C43.3835 16.9855 46.2454 6.99627 42.8722 5.49127C39.5072 3.98626 34.3196 14.0251 34.3196 14.0251C34.3196 14.0251 30.9052 13.1321 28.4227 13.438C28.4227 13.438 26.1217 1.50548 21.899 2.67145C17.6763 3.82915 19.1278 15.0753 19.1278 15.0753C19.1278 15.0753 13.8 23.6175 10.7485 26.3629H10.7402Z" fill="#EC7136"/>
<path d="M30.1045 50.1453C30.1705 50.1453 30.2365 50.1536 30.3024 50.1618C39.6798 50.7738 48.0014 46.8211 48.6117 39.1554C49.2138 31.4898 46.2612 29.6375 45.1643 23.9565C44.0674 18.2673 43.3334 17.7133 43.3581 17.3494C43.3828 16.9856 46.2447 6.99629 42.8715 5.49129C39.5066 3.98628 34.3189 14.0252 34.3189 14.0252C34.3189 14.0252 33.8406 13.9011 33.1066 13.7605C34.7808 14.4634 37.0406 15.5384 38.6571 16.8119C41.5437 19.086 40.3066 27.3552 41.1313 29.0008C41.956 30.6546 47.5231 33.7556 45.255 40.3628C43.754 44.7289 37.4035 48.4666 30.1127 50.1453H30.1045Z" fill="#E65724"/>
<path d="M28.9171 50.6001C38.2944 51.212 48.8346 47.7886 48.6037 39.1554C48.579 38.2789 48.6944 37.4933 48.6779 36.7574C37.2305 29.1 26.2202 35.8395 26.2202 35.8395C19.1357 29.6375 11.5893 31.0929 7.67175 32.5235C7.13567 35.3102 7.27588 39.3208 8.73567 41.3964C11.5233 45.3491 19.5233 49.9882 28.9089 50.6001H28.9171Z" fill="#FFC9A1"/>
<g style="mix-blend-mode:multiply" opacity="0.5">
<path d="M39.6801 44.7041C33.5027 46.391 21.5522 50.4678 10.3027 43.1578C13.9151 46.6143 20.9089 50.0791 28.9172 50.6001C38.2945 51.212 48.8347 47.7885 48.6038 39.1554C48.579 38.2789 48.6945 37.4933 48.678 36.7573C47.746 36.1372 46.8223 35.6162 45.9069 35.1779C45.8904 35.1862 45.8739 35.1945 45.8574 35.2027C45.8574 35.2027 46.4759 42.8518 39.6718 44.7124L39.6801 44.7041Z" fill="#FFC9A1"/>
</g>
<path d="M26.3525 36.9558C27.2102 36.5506 28.5546 35.7485 28.7525 34.69C29.0412 33.1106 26.4432 32.7964 26.4432 32.7964C26.4432 32.7964 23.8948 32.2175 23.6061 33.7887C23.4164 34.8472 24.3896 36.0462 25.0576 36.7243C25.3958 37.0633 25.9154 37.1543 26.3525 36.9476V36.9558Z" fill="#682616"/>
<path d="M25.2223 43.2983C26.278 43.6126 26.8553 40.1891 26.8553 40.1891L25.3708 38.0308L23.1027 39.3539C23.0532 39.4283 22.3522 42.0166 22.7893 42.6368C23.3831 43.4637 24.1914 42.6037 24.7687 40.4124C24.7687 40.4124 24.1584 42.9841 25.2141 43.2983H25.2223Z" fill="white"/>
<path d="M22.616 39.2299C20.7356 39.8087 18.8799 38.6345 18.8799 38.6345C21.5933 41.4709 25.2469 38.7006 25.2469 38.7006C27.0036 42.3391 30.8634 41.1484 30.8634 41.1484C30.8634 41.1484 29.2222 41.2889 27.4572 40.0651C25.6923 38.8412 25.8737 36.4183 25.8737 36.4183C25.8737 36.4183 24.4881 38.651 22.6077 39.2299H22.616Z" fill="#682616"/>
<path d="M26.8141 13.0411C26.8883 12.3217 25.7666 9.05534 25.5357 8.92303C25.3048 8.79073 25.0739 10.213 25.0739 10.213C25.0739 10.213 24.8842 9.18765 24.3068 7.59168C23.7295 5.99572 22.5254 4.58994 22.278 4.54033C22.0388 4.49071 21.478 4.69744 20.9584 6.21899C20.4388 7.74053 20.6945 10.0063 20.5625 10.2213C20.4306 10.4363 19.8862 9.09669 19.911 10.0807C19.9357 11.0648 20.7605 14.1906 20.7605 14.1906C22.4099 13.314 23.6388 13.5042 24.2409 13.4711C24.8429 13.4381 23.5893 12.5946 23.5893 12.5946C23.5893 12.5946 26.7233 13.7606 26.8058 13.0411H26.8141Z" fill="#FFC9A1"/>
<path d="M37.8325 10.5851C37.585 10.6678 35.8448 13.6613 35.7871 14.389C35.7211 15.1084 39.0283 14.5626 39.0283 14.5626C39.0283 14.5626 37.6345 15.1498 38.2201 15.2986C38.8057 15.4475 40.0428 15.4888 41.4943 16.6713C41.4943 16.6713 42.9046 13.7605 43.1273 12.8013C43.35 11.8338 42.55 13.0494 42.4675 12.8178C42.3768 12.578 43.0613 10.4115 42.8551 8.8155C42.6407 7.21954 42.1376 6.91357 41.8902 6.91357C41.6428 6.91357 40.183 8.07127 39.3088 9.52666C38.4345 10.9821 38.0469 11.9496 38.0469 11.9496C38.0469 11.9496 38.0881 10.5107 37.8407 10.5934L37.8325 10.5851Z" fill="#FFC9A1"/>
<path d="M38.5415 27.7769C38.5415 29.6375 37.0405 31.1425 35.1848 31.1425C33.3292 31.1425 31.8281 29.6375 31.8281 27.7769C31.8281 25.9163 33.3292 24.4113 35.1848 24.4113C37.0405 24.4113 38.5415 25.9163 38.5415 27.7769Z" fill="#231F20"/>
<path d="M37.519 26.4704C37.519 27.0823 37.0242 27.5702 36.4221 27.5702C35.82 27.5702 35.3252 27.074 35.3252 26.4704C35.3252 25.8667 35.82 25.3705 36.4221 25.3705C37.0242 25.3705 37.519 25.8667 37.519 26.4704Z" fill="white"/>
<path d="M24.7525 25.875C24.7525 27.7356 23.2514 29.2406 21.3958 29.2406C19.5401 29.2406 18.0391 27.7356 18.0391 25.875C18.0391 24.0144 19.5401 22.5094 21.3958 22.5094C23.2514 22.5094 24.7525 24.0144 24.7525 25.875Z" fill="#231F20"/>
<path d="M23.7299 24.5602C23.7299 25.1721 23.2351 25.66 22.633 25.66C22.031 25.66 21.5361 25.1639 21.5361 24.5602C21.5361 23.9565 22.031 23.4604 22.633 23.4604C23.2351 23.4604 23.7299 23.9565 23.7299 24.5602Z" fill="white"/>
</g>
<defs>
<clipPath id="clip0_1029_807">
<rect width="88" height="104" fill="white" transform="translate(6)"/>
</clipPath>
</defs>
</svg>
