<svg width="115" height="118" viewBox="0 0 115 118" fill="none" xmlns="http://www.w3.org/2000/svg">
<g clip-path="url(#clip0_815_988)">
<circle cx="57.5" cy="58" r="50" fill="#C4ECFE"/>
<path d="M91.5213 112.992C93.4079 111.578 94.3212 109.146 94.4077 106.788C94.4941 104.431 93.8588 102.112 93.1601 99.8602C90.5057 91.3009 86.8629 83.0486 82.3263 75.3211C80.5867 72.3582 78.7981 68.3106 81.186 65.8386C82.363 64.6177 84.1819 64.3157 85.8725 64.1888C91.96 63.7341 98.1282 64.7171 104.165 63.804C108.819 63.0984 112.362 61.2908 114.929 58.1881C114.864 57.6995 114.748 57.2195 114.591 56.7632C114.308 55.9409 113.89 55.2115 113.422 54.6068C113.073 54.1528 112.695 53.7636 112.316 53.4299C111.745 52.9268 111.167 52.5398 110.609 52.222C110.05 51.9041 109.509 51.6555 108.994 51.4436C108.886 51.4011 108.781 51.3578 108.675 51.3196C107.528 51.4371 106.346 51.4076 105.2 51.3564C97.9373 51.035 90.6951 50.2285 83.5379 48.9463C78.6195 48.0663 73.0412 46.4079 71.0805 41.8105C70.4668 40.3668 70.2932 38.7834 70.1023 37.2259C68.9807 28.0793 67.0387 19.0342 64.3051 10.2342C63.1453 6.50018 61.7054 3.04288 59.2102 0.152793L59.1634 0.142703C58.7124 0.0497297 58.2385 0 57.758 0C57.109 0 56.452 0.0908108 55.8311 0.261622C55.1598 0.444685 54.5208 0.700541 53.9287 1.01189C53.5722 1.39459 53.2444 1.78523 52.9656 2.18595C50.4344 5.84288 49.1688 10.2587 48.2648 14.5636C46.7593 21.7564 45.9943 29.1049 45.9856 36.4533C45.9842 39.0832 46.062 41.809 45.0247 44.227C44.6826 45.0249 44.2079 45.7896 43.5142 46.3106C42.2363 47.2649 40.4967 47.2166 38.9034 47.151C32.1409 46.8685 25.364 46.9845 18.6152 47.4998C15.2275 48.3445 11.8391 49.1892 8.44923 50.0368C8.14597 50.1117 7.83046 50.1975 7.50271 50.2969C6.02243 51.6562 4.98228 53.3672 5.05215 55.3377C5.17604 58.8613 8.70062 61.1899 11.9306 62.6025C15.5798 64.1982 19.3874 65.4306 23.2787 66.2732C25.5736 66.7712 27.9327 67.1474 30.026 68.2068C32.1207 69.2685 33.9511 71.1856 34.1895 73.5222C34.2904 74.5276 34.0944 75.5395 33.8257 76.5146C32.5659 81.0638 29.7537 84.9888 27.4285 89.0933C25.2985 92.8519 23.5466 96.826 22.2075 100.935C20.8072 105.24 20.2648 110.854 23.9687 113.455C25.6853 114.659 28.0775 114.99 29.8834 115.93C29.9604 115.885 30.0339 115.841 30.1074 115.795C30.2644 115.699 30.4107 115.606 30.5511 115.515C30.7939 114.778 31.319 114.033 31.8405 113.456C38.0375 106.591 44.2367 99.7283 50.4337 92.8656C51.6755 91.4883 53.0189 90.0497 54.8054 89.5604C56.8057 89.0105 58.9818 89.8054 60.5867 91.1214C62.1909 92.4375 63.3297 94.2234 64.4412 95.9741C66.1304 98.64 67.8196 101.303 69.5109 103.967C71.2397 105.478 73.0167 106.984 74.8471 108.434C77.3992 110.455 80.0573 112.368 82.8536 114.026C83.0308 114.058 83.2073 114.089 83.3845 114.12C86.1613 114.6 89.266 114.683 91.5206 112.993L91.5213 112.992Z" fill="#F07D72"/>
<path d="M114.935 58.2292L114.929 58.1881C112.362 61.2908 108.819 63.0984 104.165 63.804C98.1283 64.7164 91.9608 63.7341 85.8726 64.1888C84.1819 64.3157 82.3631 64.6184 81.1861 65.8386C78.7982 68.3106 80.5861 72.3582 82.3264 75.3211C86.863 83.0486 90.5057 91.3009 93.1601 99.8602C93.8589 102.112 94.4942 104.431 94.4078 106.788C94.3206 109.146 93.4079 111.578 91.5214 112.992C89.266 114.682 86.1614 114.599 83.3853 114.119C83.2081 114.089 83.0309 114.058 82.8544 114.025C83.6107 114.475 84.3779 114.905 85.1544 115.315C85.6406 115.669 86.2162 116.081 86.9134 116.492C87.3363 116.741 87.8023 116.987 88.3253 117.212C88.8482 117.436 89.4274 117.635 90.0584 117.78C90.6995 117.927 91.3442 117.999 91.9932 117.999C92.5565 117.999 93.1248 117.945 93.6982 117.829C94.559 117.655 95.44 117.34 96.295 116.815C96.7207 116.551 97.1378 116.234 97.5289 115.859C97.9179 115.483 98.2781 115.049 98.5857 114.567C99.0215 113.885 99.3233 113.151 99.5026 112.449C99.682 111.745 99.7432 111.077 99.744 110.472C99.7425 109.521 99.5985 108.719 99.4342 108.03C99.2657 107.339 99.0712 106.757 98.9019 106.275C97.0434 100.959 95.3233 95.5467 93.4101 90.1067C91.4947 84.6703 89.3856 79.2036 86.7298 73.8018C86.492 73.3196 86.3012 72.924 86.1708 72.6148C86.3033 72.5766 86.4517 72.5355 86.6123 72.4973C86.9581 72.4159 87.3572 72.3366 87.7886 72.2659C88.4333 72.1564 89.1457 72.0613 89.8841 71.9517C90.2543 71.8991 90.6311 71.84 91.0172 71.7694C91.4054 71.7002 91.8045 71.6187 92.228 71.5092C96.8064 70.3229 101.582 69.2995 106.439 67.9712C107.19 67.7658 107.988 67.502 108.81 67.1539C109.424 66.8894 110.053 66.5787 110.689 66.1924C111.163 65.8998 111.641 65.564 112.111 65.1611C112.466 64.8584 112.814 64.5182 113.147 64.1254C113.646 63.5373 114.114 62.8274 114.457 61.987C114.628 61.5697 114.766 61.12 114.858 60.6523C114.952 60.1859 115.001 59.6995 115.001 59.213C115.001 58.885 114.979 58.5557 114.936 58.2321V58.2299L114.935 58.2292Z" fill="#E2473A"/>
<path d="M70.1026 37.2245C70.2928 38.782 70.4671 40.3654 71.0808 41.809C73.0415 46.4065 78.619 48.0649 83.5382 48.9449C90.6947 50.227 97.9376 51.0335 105.201 51.355C106.346 51.4068 107.528 51.4357 108.676 51.3182C108.157 51.1164 107.669 50.955 107.219 50.8187C98.279 48.0959 89.3368 45.3737 80.3968 42.6508C79.8861 42.4937 79.4554 42.3366 79.0952 42.1795C78.4627 41.9041 78.0521 41.6432 77.7388 41.391C77.5011 41.1993 77.3117 41.0061 77.1208 40.7654C76.9781 40.5845 76.8341 40.3726 76.6857 40.1139C76.4602 39.7247 76.2247 39.2259 75.979 38.5946C75.7312 37.9654 75.4755 37.2058 75.2032 36.3243C72.291 26.916 69.3729 17.5121 66.4404 8.11172C66.207 7.36649 65.9146 6.59676 65.5407 5.81117C65.2584 5.22451 64.9306 4.62847 64.5344 4.03532C64.2355 3.58919 63.8984 3.14523 63.5015 2.70775C63.2025 2.38199 62.8712 2.05766 62.4952 1.75063C61.9297 1.28865 61.2548 0.854058 60.4509 0.528292C60.0641 0.373337 59.6492 0.242887 59.2119 0.150635C61.7064 3.04072 63.1471 6.49802 64.3068 10.2321C67.0405 19.0314 68.9818 28.0771 70.104 37.2238L70.1026 37.2245Z" fill="#E2473A"/>
<path d="M22.2085 100.933C23.5476 96.8245 25.2994 92.8497 27.4295 89.0912C29.7554 84.9867 32.5668 81.0616 33.8267 76.5124C34.0961 75.5373 34.292 74.5261 34.1905 73.52C33.952 71.1834 32.1217 69.2663 30.027 68.2047C27.9344 67.1452 25.5746 66.769 23.2796 66.271C19.3884 65.4285 15.58 64.1967 11.9315 62.6004C8.70159 61.1877 5.17701 58.8591 5.05312 55.3355C4.98324 53.365 6.0234 51.654 7.50368 50.2948C7.09669 50.4144 6.6717 50.5571 6.2359 50.7236C5.64811 50.9492 5.03511 51.2216 4.41058 51.5755C3.94237 51.84 3.46407 52.1513 2.99009 52.5333C2.63569 52.8202 2.28201 53.1474 1.94201 53.5279C1.4349 54.0958 0.958759 54.7892 0.607959 55.6036C0.253556 56.4137 0.0374572 57.3398 0.00648297 58.2659C0.00216099 58.3575 0 58.4512 0 58.547C0 59.2656 0.105168 59.982 0.301818 60.6458C0.472537 61.2281 0.712407 61.7658 0.986852 62.2458C1.47091 63.0912 2.05438 63.7586 2.64361 64.2991C3.08661 64.7041 3.5361 65.0422 3.98126 65.334C4.64613 65.7737 5.30307 66.1146 5.93192 66.4C6.56005 66.6854 7.1644 66.9139 7.7241 67.1034C14.8921 69.5423 22.0767 71.9892 29.3347 74.3322C29.1878 74.8144 28.9594 75.4313 28.6908 76.1211C28.4134 76.8375 28.0979 77.6267 27.8083 78.5139C25.1021 86.9052 21.8419 95.2778 18.8136 103.864L18.8114 103.867C18.5665 104.563 18.3266 105.381 18.1307 106.315C18.0327 106.781 17.947 107.274 17.8858 107.795C17.8224 108.316 17.7814 108.863 17.7814 109.444C17.7828 110.138 17.8354 110.881 18.0162 111.693C18.1538 112.3 18.3634 112.951 18.7106 113.619C18.9706 114.12 19.3099 114.628 19.7435 115.101C20.067 115.458 20.443 115.79 20.8579 116.079C21.4781 116.515 22.184 116.841 22.8957 117.041C23.6074 117.245 24.3198 117.327 25.0034 117.327C25.4327 117.327 25.8498 117.295 26.2589 117.24H26.2611C26.9223 117.149 27.5289 116.987 28.0698 116.791C28.7757 116.535 29.3743 116.228 29.8851 115.927C28.0792 114.987 25.687 114.657 23.9704 113.452C20.2672 110.85 20.8096 105.237 22.2092 100.933L22.2085 100.933Z" fill="#E2473A"/>
<path d="M31.6968 94.7207C28.6376 96.0245 28.0095 100.979 31.2063 102.52C34.5494 104.131 37.3925 99.1149 36.137 96.2883C35.4303 94.6977 33.2974 94.0382 31.6968 94.7207Z" fill="#E2473A"/>
<path d="M34.1823 105.121C33.5275 104.868 32.849 105.386 32.3368 105.866C31.6078 106.55 30.8537 107.27 30.5158 108.211C30.0807 109.423 30.9905 110.941 32.375 110.382C33.4591 109.945 34.3588 108.347 34.7182 107.308C34.8544 106.915 34.9502 106.494 34.8861 106.083C34.822 105.671 34.5706 105.27 34.1816 105.121H34.1823Z" fill="#E2473A"/>
<path d="M26.2538 103.385C25.63 103.456 25.1366 103.951 24.7995 104.481C23.9581 105.808 23.7002 108.485 25.6062 109.093C27.5389 109.71 28.2981 106.375 28.0784 105.039C27.9315 104.144 27.1535 103.284 26.2531 103.386L26.2538 103.385Z" fill="#E2473A"/>
<path d="M20.8553 51.1013C19.3714 50.5398 17.5692 50.9355 16.4663 52.0771C12.5448 56.1355 19.1517 61.6656 22.8744 57.0314C23.3865 56.3942 23.5868 55.5424 23.532 54.7272C23.4262 53.1431 22.3392 51.6627 20.8553 51.102V51.1013Z" fill="#E2473A"/>
<path d="M24.5975 59.4674C24.0969 60.5456 24.7697 62.9146 25.5303 63.7132C25.9805 64.1859 26.6922 64.4512 27.3074 64.2328C28.2164 63.9099 28.5111 62.764 28.4822 61.7989C28.4599 61.0313 28.3108 60.245 27.8851 59.6058C27.1439 58.4915 25.2516 58.0591 24.5968 59.4674H24.5975Z" fill="#E2473A"/>
<path d="M99.2208 59.9431C100.326 59.8695 101.441 59.347 102.029 58.4079C102.617 57.4688 102.546 56.1038 101.72 55.365C101.491 55.1604 101.22 55.0097 100.942 54.8786C99.2568 54.0786 97.1931 53.9517 95.5457 54.8267C94.9795 55.1272 94.4536 55.5632 94.2109 56.1571C93.1606 58.7258 97.4286 60.062 99.2215 59.9431H99.2208Z" fill="#E2473A"/>
<path d="M86.0426 109.032C89.5059 106.949 86.8919 100.763 84.3887 99.0256C83.1346 98.155 81.4166 97.7831 80.0682 98.4988C78.536 99.311 77.9345 101.312 78.2875 103.01C78.8414 105.673 82.8047 110.979 86.0433 109.032H86.0426Z" fill="#E2473A"/>
<path d="M72.8674 94.9348C72.1615 94.7416 71.3324 94.9067 70.8519 95.4587C70.6301 95.7131 70.4932 96.0303 70.3938 96.3524C69.7592 98.4029 70.8764 102.299 73.6324 101.934C76.3949 101.568 75.7869 97.7939 74.6027 96.2148C74.1633 95.6288 73.5733 95.1272 72.8674 94.934V94.9348Z" fill="#E2473A"/>
<path d="M53.1669 32.0382C54.7315 29.8833 55.2429 25.4717 53.383 23.3759C52.4956 22.3762 50.8287 21.995 49.7951 22.8433C49.2808 23.2656 48.9998 23.9063 48.7909 24.5384C48.2968 26.0353 48.1052 27.6317 48.2327 29.2029C48.43 31.6447 51.0679 34.9305 53.1669 32.0382Z" fill="#E2473A"/>
<path d="M55.3567 14.2083C54.7574 15.0948 54.6645 16.24 54.8136 17.3002C55.0686 19.1128 56.6872 21.053 58.7041 20.005C60.3486 19.151 60.2017 16.4886 59.6557 15.0342C59.369 14.2717 58.8972 13.5157 58.1459 13.2029C57.1576 12.7921 55.9568 13.3218 55.3575 14.2083H55.3567Z" fill="#E2473A"/>
<path d="M59.4047 33.084C59.7728 33.8832 60.6531 34.4 61.5326 34.3892C62.4121 34.3784 63.2556 33.8667 63.7231 33.1214C64.2036 32.3553 64.2951 31.4126 64.3174 30.5081C64.334 29.8292 64.3174 29.138 64.1135 28.4901C63.9104 27.8422 63.4991 27.2339 62.894 26.9254C60.2497 25.5777 59.2347 29.755 59.1663 31.5157C59.1454 32.049 59.1807 32.5996 59.4047 33.0847V33.084Z" fill="#E2473A"/>
<path d="M38.9043 47.1503C40.497 47.2166 42.2366 47.2641 43.5151 46.3099C44.2095 45.7888 44.6835 45.0241 45.0257 44.2263C46.063 41.8083 45.9852 39.0825 45.9866 36.4526C45.9945 29.1041 46.7602 21.7564 48.2657 14.5629C49.1697 10.258 50.4354 5.84144 52.9666 2.18522C53.2454 1.7845 53.5731 1.39387 53.9297 1.01117C53.5126 1.22666 53.1179 1.46883 52.7534 1.72901C51.974 2.28252 51.312 2.91315 50.7444 3.57189C49.7525 4.72937 49.0379 5.96685 48.4617 7.19784C48.0316 8.1218 47.6837 9.05009 47.3862 9.95748C46.9396 11.3189 46.6118 12.6422 46.3439 13.8364C46.081 15.0292 45.8786 16.0995 45.7158 16.8959C44.453 23.0854 43.5339 29.2079 42.3929 35.1286C42.1991 36.1384 42.0197 37.0991 41.8137 37.9661C41.661 38.6155 41.4939 39.2094 41.3102 39.7268C41.1734 40.1153 41.0293 40.4576 40.878 40.7503C40.654 41.1921 40.4256 41.5157 40.1937 41.7614C39.9596 42.0094 39.7255 42.1931 39.3797 42.3697C38.6515 42.738 37.7295 43.0854 36.6771 43.396C35.0981 43.8631 33.2339 44.2429 31.2955 44.6061C30.3252 44.7885 29.334 44.9694 28.3407 45.164C27.3473 45.3586 26.3511 45.5683 25.3635 45.8133C23.1147 46.374 20.8644 46.9362 18.6162 47.4969C25.365 46.9816 32.1419 46.8656 38.9043 47.1481V47.1503Z" fill="#F1BCBA"/>
<path d="M60.5874 91.12C58.9832 89.804 56.8064 89.009 54.806 89.5589C53.0196 90.0483 51.6762 91.4868 50.4343 92.8641C44.2373 99.7268 38.0381 106.59 31.8411 113.454C31.3196 114.032 30.7945 114.777 30.5518 115.514C30.9162 115.276 31.2274 115.05 31.4983 114.858C37.047 110.886 42.1822 106.586 47.2483 102.42C47.7331 102.022 48.1991 101.598 48.6911 101.142C49.5505 100.345 50.4783 99.4479 51.4536 98.5449C52.1847 97.8674 52.9375 97.1921 53.6808 96.5694C54.2362 96.1031 54.7858 95.6699 55.3088 95.2923C56.0903 94.725 56.815 94.2912 57.338 94.0541C57.58 93.9445 57.773 93.8768 57.8977 93.8429C58.0316 93.9121 58.2355 94.0404 58.4977 94.24C58.7786 94.4519 59.1157 94.7373 59.5126 95.0789C61.3732 96.6782 63.3109 98.4295 65.3207 100.236C66.685 101.462 68.0817 102.717 69.5115 103.966C67.8202 101.303 66.131 98.6393 64.4418 95.9733C63.3297 94.222 62.1915 92.436 60.5874 91.1207V91.12Z" fill="#F1BCBA"/>
<path d="M88.3402 58.2905C89.3898 58.1441 89.9747 56.7986 90.01 55.858C90.0164 55.6937 90.01 55.5258 89.9538 55.3715C89.8911 55.2029 89.7701 55.0631 89.652 54.9276C89.379 54.6141 89.0764 54.2818 88.6687 54.1982C88.4137 54.1456 88.1501 54.1996 87.8965 54.2573C87.5364 54.3402 87.1675 54.4375 86.8737 54.6623C86.4451 54.991 86.247 55.5322 86.0856 56.0483C86.028 56.2313 85.9718 56.4202 85.9855 56.6119C86.0517 57.5229 87.4838 58.4094 88.3395 58.2897L88.3402 58.2905Z" fill="#F1BCBA"/>
<path d="M29.6732 52.1888C29.4967 51.9986 29.2518 51.8832 28.9996 51.8227C26.9885 51.334 25.7387 53.982 27.2211 55.3283C28.9766 56.9232 30.6254 54.4331 29.9728 52.7142C29.9008 52.5247 29.8115 52.338 29.6732 52.1888Z" fill="#F1BCBA"/>
<path d="M41.1091 94.0836C40.5724 94.2544 40.141 94.6775 39.8651 95.1683C39.2866 96.1961 39.5402 97.8335 40.8498 98.1687C42.2004 98.5139 42.933 96.7755 43.0244 95.6937C43.0619 95.2519 42.961 94.782 42.665 94.4512C42.289 94.031 41.6464 93.9128 41.1091 94.0836Z" fill="#F1BCBA"/>
<path d="M86.1927 96.2061C88.0324 95.4227 87.4957 92.596 85.9715 91.7723C85.0488 91.2735 83.7227 91.556 83.2343 92.4851C83.1212 92.6998 83.0549 92.9362 83.0138 93.1748C82.712 94.9312 84.2852 97.0191 86.1927 96.2061Z" fill="#F1BCBA"/>
<path d="M54.0834 10.2422C54.7829 10.3524 55.1877 9.5337 55.5162 9.05514C56.3748 7.80397 57.7845 6.14343 57.1845 4.50811C57.1045 4.28973 56.9849 4.08216 56.8099 3.92937C56.5823 3.73189 56.2754 3.6418 55.9743 3.63604C55.339 3.62451 54.7339 3.96973 54.3176 4.44973C53.9012 4.92973 53.6534 5.5337 53.4777 6.14487C53.2724 6.85838 53.1557 7.59784 53.1326 8.34018C53.1124 8.98739 53.2565 10.111 54.0842 10.2414L54.0834 10.2422Z" fill="#F1BCBA"/>
<path d="M45.0448 63.8494C47.1236 63.8508 48.8099 61.8465 48.8114 59.3737C48.8128 56.9002 47.1287 54.8944 45.0498 54.893C42.9709 54.8915 41.2846 56.8959 41.2832 59.3694C41.2818 61.8429 42.9659 63.8486 45.0448 63.8501V63.8494Z" fill="#151C2A"/>
<path d="M72.412 59.3874C72.4134 56.9139 70.7293 54.9081 68.6504 54.9067C66.5715 54.9052 64.8852 56.9095 64.8838 59.3823C64.8823 61.8558 66.5665 63.8616 68.6454 63.8631C70.7242 63.8638 72.4105 61.8602 72.412 59.3867V59.3874Z" fill="#151C2A"/>
<path d="M62.3593 65.0962C59.4737 68.0858 55.0033 68.3315 51.8749 65.5438C50.9003 64.6753 49.456 66.1096 50.4364 66.9831C54.3744 70.493 60.1097 70.3553 63.7978 66.5355C64.7076 65.5928 63.2705 64.1514 62.3593 65.0962Z" fill="#151C2A"/>
<path d="M43.6189 74.0252C44.2586 73.6432 44.739 73.0241 45.0257 72.3366C45.5688 71.0299 45.3988 69.4451 44.569 68.2984C43.7392 67.1517 42.2712 66.4944 40.8672 66.6638C39.4626 66.8339 38.1855 67.8364 37.71 69.1697C37.1957 70.6119 37.6294 72.2818 38.5788 73.4825C39.6686 74.8627 42.1574 74.898 43.6196 74.0252H43.6189Z" fill="#F3B65A"/>
<path d="M72.8087 66.6825C71.404 66.8519 70.1261 67.8551 69.6514 69.1877C69.1371 70.6299 69.5708 72.2998 70.5202 73.5013C71.61 74.8814 74.0988 74.916 75.561 74.044C76.2007 73.662 76.6811 73.0429 76.9678 72.3553C77.511 71.0486 77.341 69.4631 76.5112 68.3171C75.6813 67.1712 74.2126 66.5132 72.8087 66.6825Z" fill="#F3B65A"/>
<path d="M69.2403 52.4461C69.9491 52.5578 70.7408 52.7078 71.3336 52.3027C71.8998 51.9164 72.0705 51.1106 71.8616 50.4577C71.6527 49.8047 71.1362 49.2908 70.5665 48.9096C68.466 47.5041 65.4031 47.7687 63.5749 49.5142C62.609 50.4353 62.1256 52.2674 63.809 52.5456C64.4689 52.6544 65.2936 52.3647 65.9556 52.3135C67.0498 52.2285 68.1562 52.2753 69.2403 52.4469V52.4461Z" fill="#E2473A"/>
<path d="M49.7088 50.116C47.8821 48.369 44.82 48.1009 42.718 49.5034C42.1475 49.884 41.6311 50.3971 41.4214 51.0501C41.2118 51.7031 41.3818 52.5088 41.9473 52.8959C42.5401 53.3009 43.331 53.1532 44.0406 53.0414C45.1247 52.8713 46.2311 52.8259 47.3253 52.9124C47.9872 52.9643 48.8113 53.2555 49.4718 53.1467C51.156 52.8699 50.6741 51.0378 49.7096 50.1153L49.7088 50.116Z" fill="#E2473A"/>
<path d="M48.6967 77.4753C46.9888 78.6537 45.7541 80.6061 44.4611 82.2105C43.1718 83.8097 41.4876 85.4955 40.6643 87.3888C40.5649 87.618 40.7947 87.9683 41.0554 87.7809C42.8123 86.5196 44.1579 84.4389 45.5027 82.7604C46.7504 81.2036 48.3272 79.6454 49.0972 77.7845C49.188 77.5654 48.8818 77.347 48.696 77.476L48.6967 77.4753Z" fill="#E2473A"/>
<path d="M73.1262 84.547C71.8332 83.0674 70.2888 80.8598 68.3857 80.1867C68.1609 80.1074 68.0248 80.3733 68.1054 80.5514C68.8942 82.2847 70.8924 83.6541 72.1559 85.0717C73.5936 86.6854 74.7966 88.7034 76.4382 90.098C76.6291 90.2609 77.0131 90.1117 76.9057 89.8256C76.1681 87.8623 74.4926 86.1103 73.1262 84.5463V84.547Z" fill="#E2473A"/>
<path d="M57.4833 36.2984C57.4567 35.9481 56.9935 35.9625 56.9496 36.2984C56.8062 37.3859 56.776 38.48 56.7378 39.5762C56.7054 40.5196 56.5613 41.5351 56.8545 42.4396C56.9193 42.64 57.1757 42.6249 57.2471 42.4396C57.5856 41.5589 57.4985 40.5131 57.5165 39.5762C57.5381 38.4822 57.5683 37.3903 57.4833 36.2984Z" fill="#E2473A"/>
<path d="M37.5107 56.6126C35.5853 56.1283 32.9129 55.5503 30.9982 56.2674C30.8146 56.3359 30.7836 56.6162 30.9982 56.6724C31.9772 56.9283 33.0065 56.8187 34.0114 56.8663C35.1538 56.9211 36.2991 57.0386 37.4344 57.1748C37.7578 57.2137 37.8176 56.6897 37.5107 56.6126Z" fill="#E2473A"/>
<path d="M77.2255 56.7971C78.0805 57.0292 79.0061 56.8541 79.8777 56.7697C80.7724 56.6825 81.6606 56.5867 82.5329 56.3647C82.8016 56.2962 82.7252 55.9222 82.4702 55.9027C81.4725 55.8249 80.4742 55.8984 79.4787 55.9834C78.6885 56.0512 77.8983 56.0533 77.1722 56.3906C76.9935 56.4735 77.0519 56.7503 77.2255 56.7978V56.7971Z" fill="#E2473A"/>
</g>
<defs>
<clipPath id="clip0_815_988">
<rect width="115" height="118" fill="white"/>
</clipPath>
</defs>
</svg>
