<svg width="117" height="114" viewBox="0 0 117 114" fill="none" xmlns="http://www.w3.org/2000/svg">
<g clip-path="url(#clip0_815_1128)">
<circle cx="58.5" cy="57" r="50" fill="#C4ECFE"/>
<g clip-path="url(#clip1_815_1128)">
<path d="M33.6152 61.7882C33.6152 61.7882 37.578 67.5484 31.4148 73.5161C25.2495 79.4839 9.77879 76.8917 3.63615 72.7328C-2.50648 68.5738 -0.182686 67.5911 5.55688 67.3022C13.9554 66.879 21.4739 62.132 20.3407 58.4777C19.2076 54.8234 33.6172 61.7882 33.6172 61.7882H33.6152Z" fill="#B3B821"/>
<path d="M31.4143 73.5141C25.249 79.4818 9.77833 76.8896 3.6357 72.7328C0.133552 70.3623 -0.617054 69.0235 0.446133 68.2605C1.02811 68.9055 1.98231 69.6807 3.36836 70.6187C9.51099 74.7756 24.9817 77.3698 31.147 71.4C33.845 68.7916 34.6039 66.2197 34.6039 64.1525C35.1673 66.3805 35.1385 69.9127 31.4143 73.5141Z" fill="#7C992D"/>
<path d="M79.1244 54.7298C79.1244 54.7298 87.1157 57.143 85.8963 67.1943C84.6768 77.2457 68.4226 86.2248 59.6168 86.8962C50.8111 87.5677 52.2239 84.9511 57.3136 80.4625C64.7641 73.8946 68.1511 63.9775 64.3569 61.4321C60.5648 58.8847 79.1223 54.7318 79.1223 54.7318L79.1244 54.7298Z" fill="#B3B821"/>
<path d="M85.8986 67.1943C84.6771 77.2437 68.4249 86.2248 59.6191 86.8942C54.2436 87.3032 52.6765 86.4873 53.4292 84.77C54.441 84.9185 55.8599 84.9226 57.7498 84.7802C66.5556 84.1107 82.8077 75.1296 84.0293 65.0803C84.494 61.2469 83.62 58.5245 82.3574 56.6241C84.4138 58.3902 86.5752 61.6152 85.9006 67.1943H85.8986Z" fill="#7C992D"/>
<path d="M78.2609 59.7392C77.8805 59.9569 77.4918 60.1706 77.0908 60.3822C76.2661 60.8135 75.3963 61.2286 74.4853 61.6193C74.1912 61.7495 73.893 61.8736 73.5886 61.9977C72.5131 62.4332 71.38 62.8442 70.1955 63.2247C69.7965 63.3549 69.3914 63.479 68.9801 63.599C68.8382 63.6418 68.6943 63.6825 68.5503 63.7232C68.1555 63.8391 67.7524 63.947 67.3452 64.0528C67.2383 64.0853 67.1314 64.1138 67.0224 64.1382C66.9134 64.1667 66.8065 64.1932 66.6975 64.2217C66.4774 64.2766 66.2594 64.3295 66.0373 64.3824C65.4369 64.5289 64.824 64.6652 64.203 64.7975C63.8925 64.8646 63.5799 64.9277 63.2652 64.9867C62.9465 65.0477 62.6298 65.1088 62.311 65.1657C62.0067 65.2207 61.6982 65.2736 61.3918 65.3265C61.363 65.3326 61.3363 65.3346 61.3054 65.3407C61.0196 65.3875 60.7317 65.4343 60.4397 65.4791C60.197 65.5157 59.9502 65.5523 59.7055 65.5869C59.4587 65.6236 59.214 65.6581 58.9652 65.6907C58.8418 65.709 58.7164 65.7253 58.5909 65.7375C58.0994 65.8046 57.6059 65.8616 57.1062 65.9145C56.8573 65.943 56.6064 65.9694 56.3555 65.9939C56.1849 66.0101 56.0142 66.0264 55.8435 66.0407C55.3582 66.0875 54.8646 66.1302 54.369 66.1648C54.0503 66.1912 53.7274 66.2116 53.4066 66.234C53.1125 66.2523 52.8184 66.2686 52.5244 66.2848C52.1501 66.3052 51.7717 66.3255 51.3913 66.3377C51.2103 66.3459 51.0252 66.354 50.8401 66.3581C50.6797 66.3642 50.5173 66.3682 50.3548 66.3744C50.1923 66.3805 50.0299 66.3845 49.8654 66.3886C49.561 66.3967 49.2587 66.4028 48.9605 66.4069C48.6582 66.413 48.3621 66.415 48.0639 66.4171C47.1323 66.4252 46.2172 66.4232 45.3227 66.4089C45.0759 66.4069 44.8312 66.4008 44.5865 66.3947C43.7762 66.3764 42.9865 66.3499 42.2092 66.3153C41.765 66.295 41.327 66.2706 40.8951 66.2462C40.8211 66.2441 40.745 66.238 40.673 66.2319C40.416 66.2156 40.163 66.1994 39.9121 66.1851C39.7209 66.1709 39.5296 66.1587 39.3404 66.1424C38.376 66.0712 37.4403 65.9857 36.5293 65.8881C35.7704 65.8067 35.028 65.7171 34.3062 65.6154C34.1479 65.5951 33.9916 65.5727 33.8332 65.5483C33.3294 65.4771 32.8317 65.3997 32.3444 65.3204C31.8981 65.2471 31.458 65.1698 31.0282 65.0884C22.0806 63.4342 16.559 60.4392 14.7534 57.3485C14.447 56.8215 14.2455 56.2945 14.155 55.7675C14.1303 55.6434 14.1139 55.5172 14.1077 55.3931C14.0625 54.7909 14.2332 53.9811 14.6013 53.0166C14.6218 52.9637 14.6445 52.9088 14.665 52.8538C15.5493 50.6442 17.4412 47.6572 20.164 44.4811C20.8077 43.7283 21.4986 42.9673 22.2348 42.2002C22.6009 41.8197 22.9772 41.4372 23.3679 41.0526C28.0649 36.4237 34.3206 31.8274 41.6293 28.9564C42.055 28.7875 42.4806 28.6268 42.9146 28.4722C43.5212 28.2524 44.132 28.0469 44.753 27.8536C45.2712 27.6888 45.7956 27.5382 46.3221 27.3958C46.8054 27.2635 47.2948 27.1415 47.7863 27.0275C48.6788 26.822 49.5816 26.6409 50.4946 26.4944C50.9347 26.4232 51.381 26.3601 51.8272 26.3052C52.7897 26.1811 53.7603 26.0936 54.7474 26.0427C62.3398 25.6541 68.8814 27.6074 74.0678 30.5475C74.4853 30.7836 74.8904 31.0237 75.2893 31.2719C76.0852 31.7663 76.8502 32.2872 77.5741 32.8203C77.644 32.8732 77.716 32.9261 77.7859 32.979C78.4995 33.5121 79.1781 34.0635 79.8156 34.6291C80.1117 34.8916 80.4017 35.152 80.6814 35.4186C81.3538 36.0534 81.979 36.6984 82.5507 37.3454C82.9064 37.7402 83.2375 38.1349 83.5522 38.5296C85.6683 41.1869 86.9412 43.8117 87.2579 45.8769C88.0661 51.1793 84.6421 56.0585 78.265 59.7331L78.2609 59.7392Z" fill="#A3A932"/>
<path d="M21.1511 52.5853C21.1511 52.5853 14.1078 57.4095 5.16629 55.2649C-3.77312 53.1204 9.63703 66.9237 21.8277 59.5541C34.0184 52.1824 21.1511 52.5853 21.1511 52.5853Z" fill="#B3B821"/>
<path d="M21.8249 59.5541C10.5802 66.354 -1.70304 55.1368 3.47718 55.0371C5.47605 57.9345 14.3332 62.718 22.6269 57.7045C24.8767 56.3454 26.273 55.2487 27.0544 54.3697C27.2539 55.3972 26.0303 57.0148 21.8269 59.5561L21.8249 59.5541Z" fill="#7C992D"/>
<path d="M116.365 46.0885C115.806 47.7386 114.847 49.3257 113.381 50.7276C108.861 55.0472 99.5288 57.5967 82.2422 54.7298L82.6473 45.3499C82.6473 45.3499 90.2315 48.0296 94.838 40.6579C100.275 31.9555 105.404 27.524 112.312 31.9454C115.477 33.9719 118.3 40.3975 116.365 46.0885Z" fill="#B3B821"/>
<path d="M116.908 43.7018C116.809 44.5035 116.632 45.3031 116.365 46.0885C115.806 47.7386 114.847 49.3257 113.381 50.7276C108.861 55.0472 99.5288 57.5967 82.2422 54.7298L82.343 52.3635C99.6439 54.7522 109.122 52.2312 113.803 48.0703C115.289 46.7457 116.293 45.2522 116.906 43.7018H116.908Z" fill="#7C992D"/>
<path d="M107.102 45.1647C104.044 45.1647 101.554 42.7028 101.552 39.6772C101.552 38.2102 102.126 36.8307 103.174 35.7909C104.221 34.7532 105.615 34.1795 107.098 34.1795C110.162 34.1795 112.653 36.6414 112.655 39.667C112.655 41.134 112.081 42.5135 111.032 43.5533C109.985 44.591 108.591 45.1647 107.108 45.1647H107.102Z" fill="#353C2C"/>
<path d="M107.102 44.1087C104.044 44.1087 101.554 41.6468 101.552 38.6212C101.552 37.1542 102.126 35.7747 103.174 34.7349C104.221 33.6972 105.615 33.1235 107.098 33.1235C110.162 33.1235 112.653 35.5854 112.655 38.611C112.655 40.078 112.081 41.4575 111.032 42.4973C109.985 43.535 108.591 44.1087 107.108 44.1087H107.102Z" fill="#7C992D"/>
<path d="M107.103 43.4027C109.775 43.4027 111.941 41.2592 111.941 38.6151C111.941 35.971 109.775 33.8275 107.103 33.8275C104.43 33.8275 102.264 35.971 102.264 38.6151C102.264 41.2592 104.43 43.4027 107.103 43.4027Z" fill="#FCF3D9"/>
<path d="M110.006 38.6131C110.006 40.2001 108.708 41.486 107.104 41.4881C105.5 41.4881 104.2 40.2042 104.198 38.6171C104.198 37.0301 105.496 35.7441 107.1 35.7421C108.704 35.7421 110.004 37.026 110.006 38.6131Z" fill="black"/>
<path d="M108.781 36.9955C108.781 37.5652 108.314 38.0271 107.738 38.0291C107.162 38.0291 106.695 37.5672 106.693 36.9975C106.693 36.4278 107.16 35.9659 107.736 35.9639C108.312 35.9639 108.779 36.4258 108.781 36.9955Z" fill="#FAFAFA"/>
<path d="M110.697 33.2659C110.578 33.2659 110.457 33.2252 110.356 33.1438C109.447 32.3971 108.291 31.9861 107.1 31.9861C105.91 31.9861 104.758 32.3971 103.849 33.1438C103.621 33.331 103.286 33.2984 103.097 33.0746C102.907 32.8508 102.938 32.5171 103.166 32.3299C104.267 31.4245 105.665 30.928 107.1 30.928C108.536 30.928 109.938 31.4265 111.039 32.3299C111.265 32.5171 111.298 32.8488 111.108 33.0746C111.004 33.2008 110.851 33.2659 110.697 33.2659Z" fill="#353C2C"/>
<path d="M116.365 46.0885C115.805 47.7386 114.847 49.3257 113.381 50.7276C111.442 50.4305 109.942 48.524 109.942 46.2126V46.1923C109.944 45.6185 110.763 45.358 111.166 45.8036C111.88 46.589 112.846 47.0692 113.909 47.0692C114.837 47.0692 115.688 46.705 116.365 46.0885Z" fill="#60612F"/>
<path d="M70.1955 63.2226C69.7966 63.3528 69.3915 63.477 68.9802 63.597C68.8383 63.6397 68.6943 63.6804 68.5504 63.7211C68.1555 63.8371 67.7525 63.9449 67.3453 64.0507C67.2384 64.0833 67.1314 64.1118 67.0224 64.1362C66.9134 64.1647 66.8065 64.1911 66.6975 64.2196C66.4775 64.2746 66.2595 64.3275 66.0374 64.3804C65.4369 64.5289 64.8241 64.6652 64.203 64.7954C63.8925 64.8626 63.5799 64.9257 63.2653 64.9847C62.9465 65.0457 62.6298 65.1067 62.3111 65.1637C62.0067 65.2186 61.6983 65.2716 61.3918 65.3245C61.3631 65.3306 61.3363 65.3326 61.3055 65.3387C61.0196 65.3855 60.7317 65.4323 60.4397 65.4771C60.197 65.5137 59.9503 65.5503 59.7056 65.5849C59.4588 65.6215 59.2141 65.6561 58.9652 65.6887C58.8418 65.707 58.7164 65.7232 58.591 65.7355C58.0995 65.8026 57.6059 65.8596 57.1062 65.9125C56.8574 65.941 56.6065 65.9674 56.3556 65.9918C56.1849 66.0081 56.0142 66.0244 55.8435 66.0386C55.3582 66.0854 54.8647 66.1282 54.3691 66.1627C54.0503 66.1892 53.7274 66.2095 53.4066 66.2319C53.1126 66.2502 52.8185 66.2665 52.5244 66.2828C52.1501 66.3031 51.7717 66.3235 51.3913 66.3357C51.2103 66.3438 51.0253 66.352 50.8402 66.356C50.6798 66.3621 50.5173 66.3662 50.3548 66.3723C50.1924 66.3784 50.0299 66.3825 49.8654 66.3866C49.5611 66.3947 49.2588 66.4008 48.9606 66.4049C48.6583 66.411 48.3621 66.413 48.064 66.415C47.1324 66.4232 46.2173 66.4211 45.3227 66.4069C45.0759 66.4049 44.8312 66.3988 44.5865 66.3927C43.7762 66.3744 42.9866 66.3479 42.2092 66.3133C41.765 66.293 41.327 66.2685 40.8952 66.2441C40.8211 66.2421 40.745 66.236 40.6731 66.2299C40.416 66.2136 40.1631 66.1973 39.9122 66.1831C39.7209 66.1688 39.5297 66.1566 39.3405 66.1404C38.376 66.0691 37.4403 65.9837 36.5293 65.886C36.8234 59.4055 37.8598 48.6705 41.471 46.7844C46.7067 44.0457 59.3518 40.7556 62.963 44.1881C65.8852 46.9654 69.9817 56.6546 70.1976 63.2165L70.1955 63.2226Z" fill="#60612F"/>
<path d="M61.5395 48.345C58.1978 44.7273 47.3787 48.2778 43.4961 50.5933C41.2649 51.9199 39.8686 57.145 39.3359 66.1465C39.5251 66.1627 39.7164 66.175 39.9076 66.1892C40.1585 66.2055 40.4115 66.2218 40.6685 66.236C41.1621 58.1196 42.4474 52.7582 44.1809 51.7246C48.3041 49.2687 58.0517 46.528 60.5524 49.2341C62.6356 51.4906 65.3912 58.7504 66.0349 64.3824C66.257 64.3295 66.475 64.2766 66.695 64.2217C66.804 64.1932 66.911 64.1667 67.0199 64.1382C67.1289 64.1138 67.2359 64.0853 67.3428 64.0528C66.623 58.0993 63.7522 50.7439 61.5374 48.345H61.5395Z" fill="#A3A932"/>
<path d="M78.2606 59.7392C77.8802 59.9569 77.4915 60.1706 77.0905 60.3822C76.2659 60.8135 75.396 61.2286 74.485 61.6193C72.4573 57.5825 69.2451 50.4631 69.2451 45.7914C69.2451 40.8777 75.7929 36.9548 80.6728 35.4247C81.3453 36.0595 81.9705 36.7045 82.5422 37.3515C82.8979 37.7463 83.229 38.141 83.5437 38.5357C85.6597 41.193 86.9327 43.8178 87.2494 45.883C88.0596 51.1854 84.6336 56.0646 78.2565 59.7392H78.2606Z" fill="#60612F"/>
<path d="M83.4505 38.4482L83.5471 38.5357C83.2325 38.141 82.9014 37.7463 82.5456 37.3515C78.2764 38.7921 72.6582 42.2266 72.6582 46.762C72.6582 50.754 75.2144 56.618 77.0899 60.3822C77.4909 60.1706 77.8816 59.9569 78.26 59.7392C76.6313 56.4512 73.9928 50.5465 73.9928 46.762C73.9928 42.7882 79.6481 39.6222 83.4505 38.4482Z" fill="#A3A932"/>
<path d="M33.8303 65.5544C33.3265 65.4832 32.8288 65.4058 32.3414 65.3265C31.8952 65.2532 31.4551 65.1759 31.0253 65.0945C22.0777 63.4403 16.5561 60.4453 14.7505 57.3546C14.4441 56.8276 14.2426 56.3006 14.1521 55.7736C14.1274 55.6495 14.111 55.5234 14.1048 55.3992C14.0595 54.797 14.2302 53.9872 14.5983 53.0227C14.6189 52.9698 14.6415 52.9149 14.6621 52.8599C16.4327 50.2108 18.7771 47.6349 21.1646 47.7162C26.0405 47.8811 32.543 48.3267 33.89 50.0684C34.8935 51.3665 35.4878 59.5541 33.8303 65.5544Z" fill="#60612F"/>
<path d="M31.7658 53.216C30.7273 51.7836 27.1922 51.0348 20.3113 50.7907C20.2702 50.7886 20.2311 50.7886 20.1921 50.7886C18.259 50.7886 16.2313 52.4652 14.1543 55.7757C14.2448 56.3026 14.4463 56.8296 14.7527 57.3566C16.7516 53.9098 18.7032 52.0603 20.264 52.1092C27.9469 52.3838 30.172 53.2832 30.682 53.9892C31.2373 54.7522 31.7576 60.1563 31.0275 65.0966C31.4573 65.178 31.8974 65.2553 32.3436 65.3285C33.1189 60.1869 32.6459 54.4226 31.7658 53.2181V53.216Z" fill="#A3A932"/>
<path d="M45.0813 39.6711C42.9138 42.2633 36.8637 46.1312 33.5219 46.2085C30.6881 46.2757 25.3043 44.4851 20.1611 44.4851C20.8048 43.7323 21.4958 42.9713 22.232 42.2043C22.598 41.8238 22.9744 41.4413 23.3651 41.0567C28.062 36.4278 34.3178 31.8314 41.6264 28.9605C42.0521 28.7916 42.4778 28.6308 42.9117 28.4762C43.5184 28.2565 44.1291 28.051 44.7502 27.8577C45.5769 32.0206 46.457 38.023 45.0813 39.669V39.6711Z" fill="#60612F"/>
<path d="M42.9122 28.4783C42.4804 28.6309 42.0526 28.7936 41.627 28.9625C42.0938 32.5721 42.0115 35.0361 41.3596 35.8153C39.1613 38.4482 33.2901 42.0435 30.3 42.1107C29.1237 42.1371 27.423 41.8136 25.4529 41.4413C24.7764 41.311 24.0792 41.1788 23.3636 41.0547C22.9728 41.4372 22.5965 41.8218 22.2305 42.2022C23.2546 42.3691 24.2499 42.5563 25.202 42.7394C27.1577 43.1117 28.8584 43.4353 30.1581 43.4353C30.2177 43.4353 30.2753 43.4332 30.3308 43.4332C32.1919 43.3905 34.6617 42.3487 36.9382 40.9916C39.2168 39.6324 41.3 37.9599 42.3899 36.6577C43.3277 35.5346 43.4983 32.7898 42.9102 28.4803L42.9122 28.4783Z" fill="#A3A932"/>
<path d="M77.7797 32.9851C74.3496 35.7238 68.8403 38.8613 67.8368 39.2275C65.3978 40.1228 51.3378 40.9875 49.777 39.9417C47.3277 38.3038 47.9529 32.0939 47.7822 27.0357C48.6747 26.8302 49.5775 26.6491 50.4906 26.5026C50.9307 26.4314 51.3769 26.3683 51.8232 26.3133C52.7856 26.1892 53.7562 26.1017 54.7433 26.0509C62.3358 25.6622 68.8773 27.6155 74.0637 30.5557C74.4812 30.7917 74.8863 31.0318 75.2853 31.28C76.0811 31.7744 76.8461 32.2953 77.57 32.8284C77.6399 32.8813 77.7119 32.9342 77.7797 32.9871V32.9851Z" fill="#60612F"/>
<path d="M74.0634 30.5536C71.39 32.5944 67.4889 34.8082 66.7918 35.0625C64.7888 35.7991 54.161 36.2894 53.0999 35.6994C51.8516 34.8652 51.8475 31.5201 51.8434 28.5698C51.8413 27.819 51.8413 27.0519 51.8228 26.3093C51.3766 26.3642 50.9303 26.4273 50.4902 26.4985C50.5067 27.1781 50.5067 27.8841 50.5087 28.5678C50.5149 32.1651 50.517 35.5651 52.3513 36.79C52.8819 37.146 54.5332 37.2864 56.5588 37.2864C60.5628 37.2864 66.035 36.7472 67.2545 36.2976C68.184 35.9598 72.5437 33.4449 75.2829 31.2719C74.8839 31.0237 74.4788 30.7836 74.0613 30.5475L74.0634 30.5536Z" fill="#A3A932"/>
<path d="M76.994 68.0815C76.994 68.5474 76.6115 68.9259 76.1405 68.9259C75.6696 68.9259 75.2871 68.5474 75.2871 68.0815C75.2871 67.6155 75.6696 67.2371 76.1405 67.2371C76.6115 67.2371 76.994 67.6155 76.994 68.0815Z" fill="#60612F"/>
<path d="M75.285 72.2892C76.0562 72.2892 76.6813 71.6707 76.6813 70.9076C76.6813 70.1446 76.0562 69.5261 75.285 69.5261C74.5138 69.5261 73.8887 70.1446 73.8887 70.9076C73.8887 71.6707 74.5138 72.2892 75.285 72.2892Z" fill="#60612F"/>
<path d="M74.9657 74.6942C74.9657 74.9892 74.723 75.2314 74.4228 75.2314C74.1225 75.2314 73.8799 74.9913 73.8799 74.6942C73.8799 74.3971 74.1225 74.157 74.4228 74.157C74.723 74.157 74.9657 74.3971 74.9657 74.6942Z" fill="#60612F"/>
<path d="M71.398 73.219C71.398 73.7379 70.9744 74.157 70.45 74.157C69.9256 74.157 69.502 73.7379 69.502 73.219C69.502 72.7002 69.9256 72.2811 70.45 72.2811C70.9744 72.2811 71.398 72.7002 71.398 73.219Z" fill="#60612F"/>
<path d="M74.1973 68.6634C74.1973 69.284 73.6873 69.7886 73.0601 69.7886C72.4329 69.7886 71.9229 69.286 71.9229 68.6634C71.9229 68.0408 72.4329 67.5382 73.0601 67.5382C73.6873 67.5382 74.1973 68.0428 74.1973 68.6634Z" fill="#60612F"/>
<path d="M73.2487 73.219C73.2487 73.4347 73.0718 73.6097 72.8538 73.6097C72.6358 73.6097 72.459 73.4347 72.459 73.219C72.459 73.0034 72.6358 72.8284 72.8538 72.8284C73.0718 72.8284 73.2487 73.0034 73.2487 73.219Z" fill="#60612F"/>
<path d="M72.5273 76.5254C72.5273 76.855 72.258 77.1216 71.9248 77.1216C71.5917 77.1216 71.3223 76.855 71.3223 76.5254C71.3223 76.1958 71.5917 75.9293 71.9248 75.9293C72.258 75.9293 72.5273 76.1958 72.5273 76.5254Z" fill="#60612F"/>
<path d="M78.5855 69.2433C78.5855 69.5444 78.3387 69.7865 78.0364 69.7865C77.7341 69.7865 77.4873 69.5424 77.4873 69.2433C77.4873 68.9442 77.7341 68.7 78.0364 68.7C78.3387 68.7 78.5855 68.9442 78.5855 69.2433Z" fill="#60612F"/>
<path d="M94.9512 50.1782C94.7353 50.3451 94.4227 50.3084 94.2541 50.0948C94.0854 49.8812 94.1225 49.5719 94.3384 49.405C94.5543 49.2382 94.8669 49.2748 95.0355 49.4885C95.2042 49.7021 95.1671 50.0114 94.9512 50.1782Z" fill="#353C2C"/>
<path d="M93.5341 51.0491C93.1824 51.3217 92.6724 51.2607 92.3948 50.9127C92.1172 50.5648 92.1809 50.0602 92.5326 49.7855C92.8842 49.5129 93.3942 49.5739 93.6718 49.9219C93.9474 50.2698 93.8857 50.7744 93.5341 51.0491Z" fill="#353C2C"/>
<path d="M91.1686 51.629C91.0328 51.7348 90.8334 51.7124 90.7264 51.5761C90.6195 51.4418 90.6421 51.2444 90.7799 51.1386C90.9156 51.0328 91.1151 51.0552 91.222 51.1915C91.329 51.3278 91.3063 51.5232 91.1686 51.629Z" fill="#353C2C"/>
<path d="M90.573 49.4885C90.3344 49.6736 89.9869 49.6329 89.7997 49.3949C89.6126 49.1568 89.6537 48.815 89.8943 48.6298C90.1349 48.4447 90.4804 48.4854 90.6676 48.7234C90.8547 48.9615 90.8136 49.3033 90.573 49.4885Z" fill="#353C2C"/>
<path d="M93.6799 49.1202C93.392 49.342 92.9787 49.2931 92.7525 49.0083C92.5263 48.7234 92.5777 48.3144 92.8656 48.0906C93.1535 47.8668 93.5668 47.9177 93.7931 48.2025C94.0172 48.4874 93.9679 48.8984 93.6799 49.1202Z" fill="#353C2C"/>
<path d="M91.2346 50.3247C91.1359 50.402 90.9919 50.3837 90.9138 50.2861C90.8356 50.1884 90.8541 50.046 90.9528 49.9686C91.0516 49.8913 91.1955 49.9096 91.2736 50.0073C91.3518 50.105 91.3333 50.2474 91.2346 50.3247Z" fill="#353C2C"/>
<path d="M89.4498 51.1834C89.2976 51.3014 89.0776 51.2749 88.9583 51.1243C88.8391 50.9738 88.8658 50.7561 89.018 50.6381C89.1701 50.52 89.3902 50.5465 89.5095 50.6971C89.6287 50.8476 89.602 51.0653 89.4498 51.1834Z" fill="#353C2C"/>
<path d="M94.9862 51.3136C94.8484 51.4214 94.6468 51.397 94.5378 51.2607C94.4289 51.1244 94.4535 50.925 94.5913 50.8171C94.7291 50.7093 94.9306 50.7337 95.0396 50.87C95.1486 51.0084 95.1239 51.2057 94.9862 51.3136Z" fill="#353C2C"/>
<path d="M27.1355 72.8261C27.224 72.368 26.9205 71.9257 26.4575 71.8382C25.9945 71.7507 25.5475 72.051 25.459 72.5091C25.3706 72.9671 25.6741 73.4094 26.1371 73.497C26.6 73.5845 27.0471 73.2842 27.1355 72.8261Z" fill="#60612F"/>
<path d="M24.2451 74.6983C23.6076 75.1276 22.7398 74.9648 22.3059 74.3361C21.872 73.7053 22.0365 72.8467 22.672 72.4174C23.3095 71.9881 24.1773 72.1508 24.6112 72.7796C25.0451 73.4103 24.8826 74.2689 24.2451 74.6983Z" fill="#60612F"/>
<path d="M20.1184 75.4287C19.8717 75.5956 19.5344 75.5325 19.3658 75.2883C19.1971 75.0442 19.2609 74.7105 19.5077 74.5436C19.7544 74.3768 20.0917 74.4399 20.2603 74.684C20.429 74.9282 20.3652 75.2619 20.1184 75.4287Z" fill="#60612F"/>
<path d="M19.3389 71.6829C18.9071 71.9738 18.3169 71.8639 18.0207 71.4367C17.7246 71.0094 17.8377 70.4254 18.2696 70.1324C18.7014 69.8394 19.2916 69.9513 19.5878 70.3786C19.8818 70.8059 19.7708 71.3899 19.3389 71.6829Z" fill="#60612F"/>
<path d="M24.7205 71.4041C24.2022 71.7541 23.4948 71.6218 23.1411 71.1091C22.7874 70.5963 22.9211 69.8964 23.4393 69.5464C23.9575 69.1965 24.6649 69.3287 25.0186 69.8415C25.3724 70.3542 25.2387 71.0541 24.7205 71.4041Z" fill="#60612F"/>
<path d="M20.3835 73.1967C20.2026 73.3188 19.9579 73.272 19.8365 73.0949C19.7152 72.9179 19.7604 72.6738 19.9393 72.5517C20.1183 72.4296 20.365 72.4764 20.4864 72.6534C20.6097 72.8325 20.5624 73.0746 20.3835 73.1967Z" fill="#60612F"/>
<path d="M17.2143 74.4683C16.9387 74.6535 16.5644 74.5843 16.3752 74.3117C16.186 74.039 16.258 73.6687 16.5336 73.4815C16.8091 73.2964 17.1834 73.3655 17.3726 73.6382C17.5618 73.9108 17.4898 74.2812 17.2143 74.4683Z" fill="#60612F"/>
<path d="M26.7093 75.3168C26.4584 75.4857 26.117 75.4226 25.9443 75.1744C25.7736 74.9262 25.8373 74.5884 26.0882 74.4175C26.3391 74.2486 26.6805 74.3117 26.8532 74.5599C27.0239 74.8081 26.9601 75.1479 26.7093 75.3168Z" fill="#60612F"/>
<g opacity="0.5">
<path d="M78.2605 59.7392C77.88 59.9569 77.4913 60.1706 77.0903 60.3822C76.2657 60.8135 75.3958 61.2286 74.4848 61.6193C74.1907 61.7495 73.8925 61.8736 73.5882 61.9977C72.5127 62.4332 71.3796 62.8442 70.195 63.2247C69.7961 63.3549 69.391 63.479 68.9797 63.599C68.8378 63.6418 68.6938 63.6825 68.5499 63.7232C68.155 63.8391 67.752 63.947 67.3448 64.0528C67.2379 64.0853 67.1309 64.1138 67.0219 64.1382C66.9129 64.1667 66.806 64.1932 66.697 64.2237C66.477 64.2786 66.259 64.3315 66.0369 64.3844C65.4364 64.5289 64.8236 64.6672 64.2025 64.7995C63.892 64.8666 63.5794 64.9297 63.2648 64.9887C62.946 65.0498 62.6293 65.1108 62.3106 65.1678C62.0062 65.2227 61.6978 65.2756 61.3914 65.3285C61.3626 65.3346 61.3358 65.3367 61.305 65.3428C61.0191 65.3896 60.7312 65.4364 60.4392 65.4811C60.1965 65.5177 59.9498 65.5544 59.7051 65.589C59.4583 65.6256 59.2136 65.6602 58.9647 65.6927C58.8414 65.711 58.7159 65.7273 58.5905 65.7395C58.099 65.8067 57.6054 65.8636 57.1057 65.9165C56.8569 65.945 56.606 65.9715 56.3551 65.9959L55.843 66.0427C55.3577 66.0895 54.8642 66.1322 54.3686 66.1668C54.0498 66.1933 53.7269 66.2136 53.4061 66.236C53.1121 66.2543 52.818 66.2706 52.5239 66.2869C52.1496 66.3072 51.7713 66.3276 51.3908 66.3398C51.2098 66.3479 51.0248 66.356 50.8397 66.3601C50.6793 66.3662 50.5168 66.3703 50.3544 66.3764C50.1919 66.3825 50.0294 66.3866 49.8649 66.3906C49.5606 66.3988 49.2583 66.4049 48.9601 66.4089C48.6578 66.4151 48.3616 66.4171 48.0635 66.4191C47.1319 66.4273 46.2168 66.4252 45.3222 66.411C45.0754 66.4089 44.8307 66.4028 44.586 66.3967C43.7757 66.3784 42.9861 66.352 42.2087 66.3174C41.7645 66.297 41.3265 66.2726 40.8947 66.2482C40.8206 66.2462 40.7445 66.2401 40.6726 66.234C40.4155 66.2177 40.1626 66.2014 39.9117 66.1872C39.7204 66.1729 39.5292 66.1607 39.34 66.1444C38.3755 66.0732 37.4398 65.9878 36.5288 65.8901C35.77 65.8087 35.0276 65.7192 34.3058 65.6175C34.1474 65.5971 33.9911 65.5747 33.8328 65.5503C33.329 65.4791 32.8313 65.4018 32.3439 65.3224C31.8977 65.2492 31.4576 65.1719 31.0278 65.0905C22.0801 63.4363 16.5586 60.4412 14.753 57.3505C14.4466 56.8235 14.245 56.2965 14.1546 55.7696C14.1299 55.6454 14.1134 55.5193 14.1073 55.3952C14.0929 55.2182 14.099 55.0249 14.1237 54.8173C16.8958 56.9558 21.5886 58.8664 28.0891 60.0689C28.5189 60.1502 28.961 60.2276 29.4052 60.3008C29.8906 60.3802 30.3882 60.4575 30.8941 60.5287C31.0525 60.5531 31.2087 60.5735 31.3671 60.5958C32.0889 60.6955 32.8313 60.7851 33.5901 60.8685C34.5011 60.9661 35.4368 61.0516 36.4013 61.1228C36.5905 61.1391 36.7817 61.1513 36.973 61.1655C37.2239 61.1818 37.4768 61.1981 37.7339 61.2123C37.8059 61.2185 37.8799 61.2225 37.956 61.2266C38.3899 61.251 38.8259 61.2734 39.2701 61.2958C40.0474 61.3304 40.8371 61.3568 41.6473 61.3751C41.8941 61.3812 42.1388 61.3853 42.3835 61.3894C43.2781 61.4036 44.1932 61.4056 45.1248 61.3975C45.423 61.3955 45.7212 61.3914 46.0214 61.3873C46.3196 61.3812 46.6219 61.3772 46.9262 61.369C47.0887 61.367 47.2512 61.3609 47.4157 61.3548C47.5781 61.3487 47.7406 61.3446 47.901 61.3385C48.0861 61.3324 48.2691 61.3243 48.4521 61.3182C48.8326 61.3039 49.211 61.2856 49.5852 61.2652C49.8793 61.249 50.1734 61.2327 50.4675 61.2144C50.7883 61.194 51.1111 61.1717 51.4299 61.1452C51.9275 61.1106 52.419 61.0679 52.9044 61.0211L53.4164 60.9743C53.6673 60.9499 53.9182 60.9234 54.167 60.8949C54.6667 60.842 55.1603 60.783 55.6518 60.7179C55.7772 60.7037 55.9027 60.6894 56.0261 60.6711C56.2749 60.6386 56.5196 60.604 56.7664 60.5674C57.0132 60.5328 57.2579 60.4961 57.5005 60.4595C57.7926 60.4147 58.0805 60.37 58.3663 60.3212C58.3951 60.315 58.4218 60.313 58.4527 60.3069C58.7591 60.254 59.0676 60.2011 59.3719 60.1462C59.6907 60.0872 60.0074 60.0282 60.3261 59.9671C60.6407 59.9061 60.9533 59.843 61.2639 59.7779C61.887 59.6456 62.4977 59.5073 63.0982 59.3628C63.3203 59.3099 63.5383 59.257 63.7583 59.2021C63.8673 59.1736 63.9743 59.1471 64.0833 59.1187C64.1922 59.0942 64.2992 59.0658 64.4061 59.0332C64.8133 58.9274 65.2164 58.8196 65.6112 58.7036C65.7551 58.6629 65.8991 58.6222 66.041 58.5795C66.4523 58.4574 66.8595 58.3333 67.2564 58.2051C68.4409 57.8246 69.5719 57.4136 70.6495 56.9782C70.9539 56.854 71.2541 56.7299 71.5461 56.5997C72.4571 56.209 73.325 55.794 74.1517 55.3626C74.5527 55.151 74.9434 54.9374 75.3218 54.7197C81.6989 51.045 85.1229 46.1658 84.3147 40.8634C84.216 40.2205 84.0268 39.5266 83.745 38.7921C85.7439 41.3619 86.949 43.8849 87.2533 45.8871C88.0636 51.1895 84.6375 56.0687 78.2605 59.7433V59.7392Z" fill="#A3A932"/>
</g>
</g>
</g>
<defs>
<clipPath id="clip0_815_1128">
<rect width="117" height="114" fill="white"/>
</clipPath>
<clipPath id="clip1_815_1128">
<rect width="117" height="61" fill="white" transform="translate(0 26)"/>
</clipPath>
</defs>
</svg>
