<svg width="116" height="100" viewBox="0 0 116 100" fill="none" xmlns="http://www.w3.org/2000/svg">
<circle cx="60" cy="50" r="50" fill="#C4ECFE"/>
<g clip-path="url(#clip0_905_807)">
<mask id="mask0_905_807" style="mask-type:luminance" maskUnits="userSpaceOnUse" x="0" y="11" width="116" height="77">
<path d="M116 11H0V88H116V11Z" fill="white"/>
</mask>
<g mask="url(#mask0_905_807)">
<path d="M114.216 68.6713C114.07 68.9075 113.914 69.1403 113.752 69.3661C103.922 83.027 65.4912 78.2054 47.8028 76.3781C32.6175 74.8131 23.7837 70.8269 19.864 66.2309C19.0818 65.3156 18.4977 64.3776 18.0945 63.4293C15.6713 57.7165 14.5971 56.2366 12.3774 57.2441C10.1559 58.255 7.53463 57.918 6.99577 54.2878C6.45692 50.6576 0.0688677 49.6501 -0.000662156 47.2306C-0.0667154 44.8094 10.2914 43.4667 15.5392 49.0474C15.5392 49.0474 18.5638 41.1148 25.6958 39.298C32.8243 37.4847 30.6064 43.2635 28.251 45.4833C25.8975 47.6996 27.1733 53.0528 24.2148 53.9508C22.6678 54.4233 19.6415 55.5662 19.8414 59.1269C20.043 62.691 31.2112 61.9511 39.6852 48.1061C48.1591 34.2592 56.6505 22.2465 82.7342 23.2349C114.619 24.4473 119.373 60.3653 114.216 68.6731V68.6713Z" fill="#295C8E"/>
<path d="M98.9319 65.5206C95.3115 65.5206 92.361 62.5764 92.3594 58.9585C92.3594 57.2041 93.0412 55.554 94.2801 54.3121C95.5214 53.0702 97.1714 52.3859 98.9264 52.3842C102.555 52.3842 105.502 55.3282 105.506 58.9463C105.508 60.7005 104.824 62.3506 103.585 63.5926C102.344 64.8345 100.695 65.5189 98.939 65.5206H98.9319Z" fill="#235D84"/>
<path d="M98.9319 64.2561C95.3115 64.2561 92.361 61.312 92.3594 57.6939C92.3594 55.9397 93.0412 54.2896 94.2801 53.0476C95.5214 51.8057 97.1714 51.1214 98.9264 51.1196C102.555 51.1196 105.502 54.0638 105.506 57.6818C105.508 59.4361 104.824 61.0862 103.585 62.3281C102.344 63.57 100.695 64.2543 98.939 64.2561H98.9319Z" fill="#6EAFE5"/>
<path d="M98.93 63.4154C102.094 63.4154 104.659 60.8523 104.659 57.6905C104.659 54.5287 102.094 51.9655 98.93 51.9655C95.7656 51.9655 93.2002 54.5287 93.2002 57.6905C93.2002 60.8523 95.7656 63.4154 98.93 63.4154Z" fill="#FCF3D9"/>
<path d="M102.111 59.0076C102.831 57.2522 101.991 55.2452 100.235 54.5249C98.4775 53.8046 96.4692 54.6437 95.7488 56.3992C95.0275 58.1546 95.8671 60.1616 97.6245 60.8818C99.3811 61.6022 101.389 60.763 102.111 59.0076Z" fill="black"/>
<path d="M100.844 55.8476C100.844 56.5285 100.293 57.0826 99.6098 57.0826C98.9264 57.0826 98.374 56.5319 98.374 55.8493C98.374 55.1667 98.9248 54.6143 99.6082 54.6143C100.291 54.6143 100.844 55.1649 100.844 55.8476Z" fill="#FAFAFA"/>
<path d="M103.189 50.0271C103.046 50.0271 102.903 49.9802 102.786 49.8812C101.71 48.9884 100.34 48.4951 98.9318 48.4951C97.524 48.4951 96.1573 48.9867 95.0817 49.8812C94.8118 50.1035 94.4141 50.0671 94.1916 49.7995C93.9691 49.5303 94.0054 49.1326 94.2737 48.9103C95.5773 47.8282 97.2321 47.2324 98.9318 47.2324C100.632 47.2324 102.292 47.8282 103.594 48.9103C103.863 49.1326 103.9 49.5321 103.675 49.7995C103.551 49.9507 103.37 50.0271 103.189 50.0271Z" fill="#6EAFE5"/>
<path d="M113.75 69.3661C103.92 83.0271 65.4895 78.2054 47.8011 76.3781C32.6158 74.8132 23.7821 70.8269 19.8623 66.2309C31.3747 73.2777 47.3631 71.1968 61.6132 66.9223C79.1003 61.6802 80.0418 63.1583 95.4934 68.6696C102.857 71.2976 109.163 70.7035 113.75 69.3644V69.3661Z" fill="#5C9FD6"/>
<g opacity="0.3">
<path d="M114.216 68.6714C114.07 68.9076 113.914 69.1403 113.752 69.3661C103.922 83.0271 65.4916 78.2054 47.8032 76.3781C32.6179 74.8132 23.7842 70.8269 19.8644 66.231C19.0822 65.3156 18.4981 64.3777 18.0949 63.4293C17.7368 62.5834 17.4083 61.8314 17.1006 61.1644C21.8599 64.9665 30.6085 68.1312 44.3093 69.4843C62.7677 71.3115 102.867 76.1332 113.125 62.4723C113.295 62.2464 113.456 62.0137 113.61 61.7775C114.722 60.0596 115.393 57.1555 115.461 53.6243C116.543 60.1569 115.922 65.9235 114.216 68.6697V68.6714Z" fill="white"/>
</g>
<path d="M104.87 38.1315C106.123 35.9616 102.941 31.7797 97.7602 28.7911C92.5797 25.8024 87.3636 25.1387 86.1097 27.3087C84.8566 29.4787 88.0391 33.6605 93.2197 36.6492C98.4002 39.6378 103.616 40.3015 104.87 38.1315Z" fill="#5C9FD6"/>
<path d="M39.776 58.0309C40.2098 58.0309 40.5616 57.6794 40.5616 57.2458C40.5616 56.8122 40.2098 56.4608 39.776 56.4608C39.342 56.4608 38.9902 56.8122 38.9902 57.2458C38.9902 57.6794 39.342 58.0309 39.776 58.0309Z" fill="#155375"/>
<path d="M37.3581 63.2713C38.2624 63.2713 38.9955 62.5387 38.9955 61.6351C38.9955 60.7314 38.2624 59.9988 37.3581 59.9988C36.4538 59.9988 35.7207 60.7314 35.7207 61.6351C35.7207 62.5387 36.4538 63.2713 37.3581 63.2713Z" fill="#155375"/>
<path d="M44.5505 56.3288C45.4548 56.3288 46.1879 55.5962 46.1879 54.6925C46.1879 53.7889 45.4548 53.0563 44.5505 53.0563C43.6462 53.0563 42.9131 53.7889 42.9131 54.6925C42.9131 55.5962 43.6462 56.3288 44.5505 56.3288Z" fill="#155375"/>
<path d="M42.9155 60.2038C42.9155 60.7231 42.4931 61.1452 41.9734 61.1452C41.4537 61.1452 41.0312 60.7231 41.0312 60.2038C41.0312 59.6844 41.4537 59.2623 41.9734 59.2623C42.4931 59.2623 42.9155 59.6844 42.9155 60.2038Z" fill="#155375"/>
<path d="M41.0309 65.7585C42.0707 65.7585 42.9135 64.9163 42.9135 63.8774C42.9135 62.8385 42.0707 61.9963 41.0309 61.9963C39.9913 61.9963 39.1484 62.8385 39.1484 63.8774C39.1484 64.9163 39.9913 65.7585 41.0309 65.7585Z" fill="#155375"/>
<path d="M42.2426 57.8954C42.354 57.8954 42.4443 57.8052 42.4443 57.6939C42.4443 57.5826 42.354 57.4924 42.2426 57.4924C42.1313 57.4924 42.041 57.5826 42.041 57.6939C42.041 57.8052 42.1313 57.8954 42.2426 57.8954Z" fill="#155375"/>
<path d="M37.3546 58.5103C37.6205 58.5103 37.8361 58.2949 37.8361 58.0292C37.8361 57.7635 37.6205 57.548 37.3546 57.548C37.0886 57.548 36.873 57.7635 36.873 58.0292C36.873 58.2949 37.0886 58.5103 37.3546 58.5103Z" fill="#155375"/>
<path d="M41.4344 54.6925C41.732 54.6925 41.9732 54.4514 41.9732 54.1541C41.9732 53.8567 41.732 53.6156 41.4344 53.6156C41.1367 53.6156 40.8955 53.8567 40.8955 54.1541C40.8955 54.4514 41.1367 54.6925 41.4344 54.6925Z" fill="#155375"/>
<path d="M82.584 22.382C82.584 22.382 82.5249 17.265 86.3963 16.5511C90.2669 15.8372 89.1945 18.9307 86.8129 19.7644C84.4314 20.5982 83.0015 20.5982 82.5856 22.382H82.584Z" fill="#48A3FF"/>
<path d="M80.6751 20.2491C80.6751 20.2491 80.7343 15.132 76.8634 14.4164C72.9923 13.7008 74.0648 16.796 76.4462 17.6297C78.8276 18.4635 80.2561 18.4635 80.6735 20.2491H80.6751Z" fill="#48A3FF"/>
<path d="M82.0948 15.9502C82.0948 15.9502 82.0443 11.6843 85.2725 11.0885C88.4984 10.4928 87.6052 13.0738 85.6197 13.7669C83.6351 14.4617 82.4428 14.4617 82.0948 15.9502Z" fill="#55B0FB"/>
<path d="M73.2263 69.3453C83.2297 67.8897 86.5148 78.4833 79.6471 84.005C72.7796 89.5267 61.8791 88.6305 62.3258 85.497C62.7743 82.3636 68.8964 81.9154 68.4479 74.9035C68.0933 69.3626 73.2263 69.3453 73.2263 69.3453Z" fill="#4685C4"/>
<g opacity="0.3">
<path d="M79.2613 70.1634C78.1717 69.9671 76.9533 69.9463 75.613 70.1391C75.613 70.1391 70.4817 70.1547 70.8381 75.699C71.2831 82.711 65.1627 83.1574 64.7142 86.2908C64.6274 86.8953 64.9646 87.4181 65.6164 87.8262C63.5062 87.4841 62.1625 86.6382 62.3259 85.4953C62.7744 82.3619 68.8947 81.9155 68.4498 74.9035C68.0934 69.3592 73.2247 69.3436 73.2247 69.3436C75.6478 68.9909 77.6746 69.347 79.2613 70.1634Z" fill="#4685C4"/>
</g>
</g>
</g>
<defs>
<clipPath id="clip0_905_807">
<rect width="116" height="77" fill="white" transform="translate(0 11)"/>
</clipPath>
</defs>
</svg>
