<svg width="116" height="110" viewBox="0 0 116 110" fill="none" xmlns="http://www.w3.org/2000/svg">
<path d="M49.7931 12.3091C50.7059 11.9943 51.7035 12.4776 52.027 13.3855L78.9016 90.782C79.2252 91.6897 78.7482 92.683 77.8357 92.998L72.6818 94.7798C71.772 95.0961 70.7726 94.6118 70.4491 93.704L43.5732 16.3069C43.2499 15.3991 43.7304 14.4069 44.6401 14.0906L49.7931 12.3091Z" fill="#88411C"/>
<rect x="46.0654" y="23.5963" width="9.03626" height="2.34708" transform="rotate(-18.8762 46.0654 23.5963)" fill="#7C992D"/>
<rect x="47.2045" y="26.9277" width="9.03626" height="2.34708" transform="rotate(-18.8762 47.2045 26.9277)" fill="#237C82"/>
<rect x="48.3437" y="30.2589" width="9.03626" height="2.34708" transform="rotate(-18.8762 48.3437 30.2589)" fill="#7C992D"/>
<path d="M76.5417 18.0015C77.2971 18.6029 77.4243 19.7027 76.8317 20.4628L25.9364 84.6666C25.3438 85.4267 24.2484 85.5575 23.493 84.9561L19.2257 81.5626C18.4706 80.9645 18.3423 79.8607 18.9348 79.1006L69.8316 14.8966C70.4241 14.1369 71.5186 14.0096 72.2736 14.6073L76.5417 18.0015Z" fill="#88411C"/>
<rect x="65.018" y="20.911" width="9.03626" height="2.34708" transform="rotate(38.6776 65.018 20.911)" fill="#7C992D"/>
<rect x="62.8178" y="23.6595" width="9.03626" height="2.34708" transform="rotate(38.6776 62.8178 23.6595)" fill="#237C82"/>
<rect x="60.6176" y="26.4079" width="9.03626" height="2.34708" transform="rotate(38.6776 60.6176 26.4079)" fill="#7C992D"/>
</svg>
