<svg width="120" height="111" viewBox="0 0 120 111" fill="none" xmlns="http://www.w3.org/2000/svg">
<g clip-path="url(#clip0_24_3)">
<path d="M4.79137 71.104L6.39706 70.8137V80.0139H6.40133L6.39706 80.1335L7.09742 81.4228C10.6846 83.4549 15.0661 83.4549 18.6533 81.4228V68.5852L20.9807 68.1625V77.4823L21.7707 79.0363C25.375 80.9702 29.7565 80.9702 33.3437 79.0661V65.9212L35.6796 65.4985V72.4702L35.5686 74.1138L36.4739 75.4373C40.0611 77.1578 44.4426 77.1578 48.0298 75.4373V63.2572L50.1522 62.873V71.7017L51.16 72.9868C54.7472 74.5792 59.1287 74.5792 62.7159 72.9868V60.5932L64.7316 60.226V68.7688L65.8419 70.0111C69.4291 71.4498 73.8106 71.4498 77.3978 70.0111V57.9292L79.3109 57.5834V65.6693L80.5237 66.8647C84.1109 68.1412 88.4924 68.1412 92.0796 66.8647V55.2695L93.8903 54.9407V60.4523L95.2056 61.5666C98.7928 62.5741 103.174 62.5741 106.761 61.5666V52.6055L109.401 52.1273C111.075 51.8242 112.185 50.2104 111.886 48.5241L111.378 45.6765C111.16 44.4598 110.263 43.5376 109.153 43.2345C108.547 42.6026 107.68 42.2398 106.766 42.291V35.6993H108.756C110.447 35.6993 111.822 34.3289 111.822 32.634V29.6626C111.822 28.1214 110.682 26.8492 109.2 26.6357C108.687 26.243 108.051 26.0082 107.359 26.0082H106.766V21.5895C106.313 21.4614 105.843 21.3504 105.369 21.2565V21.0729C101.808 20.0782 97.4561 20.0782 93.8946 21.0729V26.0082H92.0839V16.2871C91.6611 16.1377 91.2298 16.0053 90.7899 15.8901V15.8474C87.2284 14.5922 82.8768 14.5922 79.3152 15.8474V26.0039H77.402V13.1364C76.9152 12.94 76.4156 12.7735 75.9031 12.6327C72.4013 11.3305 68.1949 11.369 64.7358 12.7437V26.0039H62.7202V10.1608C62.0796 9.87473 61.4134 9.64419 60.7302 9.46061C57.3522 8.25669 53.4234 8.37196 50.1565 9.81496V26.0082H48.0341V7.70596C47.4746 7.437 46.8939 7.215 46.3003 7.03142C42.9138 5.7165 38.9636 5.83604 35.6839 7.39858V26.0039H33.3479V4.28631C32.4426 3.80388 31.486 3.44527 30.5038 3.20619C27.3821 2.21146 23.923 2.48042 20.9892 4.02161V25.9996H18.6618V1.7205C17.6668 1.15696 16.612 0.755652 15.5316 0.503768C12.4996 -0.409848 9.20276 -0.0811171 6.39279 1.4985V26.0039H3.68532C2.0113 26.0039 0.653289 27.3615 0.653289 29.035V31.9381C0.653289 32.9115 1.1145 33.7739 1.82767 34.3289C2.37856 35.1528 3.31379 35.695 4.37713 35.695H6.38852V60.3285L2.51094 61.0286C0.849731 61.3275 -0.256319 62.9156 0.0426134 64.5764L0.546528 67.3813C0.649019 67.9533 0.909517 68.4571 1.26824 68.8627C1.6782 70.4039 3.19849 71.3943 4.78283 71.1083L4.79137 71.104ZM92.0753 35.695H93.886V44.5793L92.0753 44.9038V35.695ZM77.3892 35.695H79.3024V47.2049L77.3892 47.5507V35.695ZM62.7074 35.695H64.723V49.8305L62.7074 50.1933V35.695ZM48.0213 35.695H50.1437V52.456L48.0213 52.836V35.695ZM33.3351 35.695H35.6711V55.0603L33.3351 55.4786V35.695ZM18.649 35.695H20.9764V57.7029L18.649 58.1213V35.695Z" fill="#AC482D"/>
<path d="M110.981 91.9208C106.663 91.8952 103.05 94.9477 102.218 99.0205L99.2754 99.0035L4.07399 98.4442L3.46332 100.002L3.49748 103.332L101.991 103.913C102.777 107.994 106.356 111.094 110.669 111.12C115.413 111.149 119.308 107.457 119.594 102.777C119.735 102.163 119.812 101.522 119.816 100.861C119.846 95.951 115.888 91.9464 110.976 91.9208H110.981Z" fill="#AC482D"/>
<path d="M109.584 67.8295C105.31 68.4187 102.162 71.9536 101.919 76.1033L99.0063 76.5046L4.68891 89.4489L4.30457 91.0798L4.81275 94.3714L102.393 80.9745C103.747 84.9065 107.731 87.4637 112.006 86.8746C116.707 86.2299 120.038 82.0247 119.658 77.3542C119.71 76.7224 119.697 76.0777 119.607 75.4245C118.937 70.5619 114.453 67.1593 109.589 67.8253L109.584 67.8295Z" fill="#AC482D"/>
<path d="M17.8676 80.0139C14.3061 82.0162 9.95872 82.0162 6.39716 80.0139V80.1335L7.09324 81.4228C10.6804 83.4549 15.0619 83.4549 18.6491 81.4228V68.5852L17.8676 68.7261V80.0097V80.0139Z" fill="#B0292A"/>
<path d="M18.6491 35.695H17.8676V58.2622L18.6491 58.1213V35.695Z" fill="#B0292A"/>
<path d="M17.8676 21.8115V26.0039H18.6491V1.7205C17.6541 1.15696 16.5993 0.755654 15.5189 0.503769C16.326 0.747115 17.116 1.07585 17.8676 1.4985V21.8115Z" fill="#B0292A"/>
<path d="M47.1459 74.1181C43.5844 75.813 39.2328 75.813 35.6712 74.1181V72.4745L35.5602 74.1181L36.4655 75.4416C40.0527 77.1621 44.4342 77.1621 48.0214 75.4416V63.2615L47.1459 63.4194V74.1181Z" fill="#CA9E23"/>
<path d="M48.0214 35.695H47.1459V52.994L48.0214 52.836V35.695Z" fill="#CA9E23"/>
<path d="M47.1459 21.8115V26.0039H48.0213V7.70595C47.4619 7.43699 46.8811 7.21499 46.2875 7.03141C46.5779 7.14241 46.864 7.26195 47.1459 7.39856V21.8158V21.8115Z" fill="#CA9E23"/>
<path d="M76.1978 21.8115V26.0039H77.3893V13.1364C76.9025 12.94 76.4028 12.7735 75.8904 12.6326C75.9929 12.6711 76.0954 12.7052 76.1978 12.7436V21.8115Z" fill="#3D84A7"/>
<path d="M76.1979 59.7009V68.7688C72.6363 70.1862 68.2847 70.1862 64.7231 68.7688L65.8335 70.0111C69.4207 71.4498 73.8021 71.4498 77.3893 70.0111V57.9292L76.1979 58.1469V59.7009Z" fill="#3D84A7"/>
<path d="M77.3893 35.695H76.1978V47.7641L77.3893 47.5464V35.695Z" fill="#3D84A7"/>
<path d="M105.361 42.513L106.394 42.3251C106.518 42.3038 106.638 42.291 106.762 42.2825V35.6908H105.365V42.5087L105.361 42.513Z" fill="#B0292A"/>
<path d="M105.361 26.0039H106.757V21.5852C106.305 21.4572 105.835 21.3462 105.361 21.2522V26.0082V26.0039Z" fill="#B0292A"/>
<path d="M105.361 55.7305V60.448C101.799 61.4428 97.4477 61.4428 93.8861 60.448L95.2014 61.5623C98.7886 62.5698 103.17 62.5698 106.757 61.5623V52.6012L105.361 52.8531V55.7305Z" fill="#B0292A"/>
<path d="M90.7815 59.7009V65.665C87.2199 66.9202 82.8683 66.9202 79.3068 65.665L80.5196 66.8604C84.1068 68.1369 88.4883 68.1369 92.0754 66.8604V55.2652L90.7815 55.5V59.7009Z" fill="#5B437D"/>
<path d="M92.0754 35.695H90.7815V45.1386L92.0754 44.9038V35.695Z" fill="#5B437D"/>
<path d="M90.7815 26.0039H92.0754V16.2829C91.6527 16.1334 91.2214 16.0011 90.7815 15.8858V25.9996V26.0039Z" fill="#5B437D"/>
<path d="M62.7075 35.695H61.6143V50.3897L62.7075 50.1933V35.695Z" fill="#7C992D"/>
<path d="M61.6143 71.7017C58.0527 73.2728 53.7011 73.2728 50.1395 71.7017L51.1474 72.9868C54.7345 74.5792 59.116 74.5792 62.7032 72.9868V60.5932L61.6143 60.7896V71.6975V71.7017Z" fill="#7C992D"/>
<path d="M61.6143 21.8115V26.0039H62.7032V10.1565C62.0627 9.87048 61.3965 9.63994 60.7132 9.45636C61.0164 9.56736 61.3196 9.67836 61.6143 9.81071V21.8115Z" fill="#7C992D"/>
<path d="M33.3352 35.695H32.4512V55.6366L33.3352 55.4786V35.695Z" fill="#BC5C21"/>
<path d="M32.4512 21.8115V26.0039H33.3352V4.28631C32.4299 3.80389 31.4733 3.44528 30.4911 3.2062C31.1658 3.41966 31.8192 3.68862 32.4512 4.02162V21.8115Z" fill="#BC5C21"/>
<path d="M32.4512 77.4865C28.8897 79.3607 24.5381 79.3607 20.9765 77.4865L21.7665 79.0405C25.3708 80.9745 29.7523 80.9745 33.3395 79.0704V65.9255L32.4555 66.0877V77.4908L32.4512 77.4865Z" fill="#BC5C21"/>
<path d="M4.79145 71.104L6.39714 70.8137V69.4348L4.10817 69.8446C3.0192 70.041 1.96013 69.6311 1.27686 68.8584C1.68682 70.3996 3.2071 71.3901 4.79145 71.104Z" fill="#2E120C"/>
<path d="M17.8676 67.3685V68.7303L18.6491 68.5895L20.9765 68.1668V66.8092L17.8676 67.3685Z" fill="#2E120C"/>
<path d="M110.451 47.5977C110.75 49.2584 109.644 50.8465 107.983 51.1454L105.361 51.615V52.8488L106.757 52.5969L109.396 52.1188C111.07 51.8157 112.181 50.2019 111.882 48.5155L111.374 45.668C111.156 44.4512 110.259 43.5291 109.149 43.226C109.546 43.6444 109.832 44.178 109.943 44.7928L110.447 47.5977H110.451Z" fill="#2E120C"/>
<path d="M64.7232 58.9325L61.6143 59.496V59.7009V60.7896L62.7075 60.5932L64.7232 60.226V59.7009V58.9325Z" fill="#2E120C"/>
<path d="M47.1459 62.1002V63.4194L48.0214 63.2572L50.1395 62.873V61.558L47.1459 62.1002Z" fill="#2E120C"/>
<path d="M76.1978 56.8704V58.1469L77.3893 57.9292L79.3067 57.5834V56.3112L76.1978 56.8704Z" fill="#2E120C"/>
<path d="M90.7815 54.2448V55.5L92.0754 55.2652L93.8861 54.9365V53.6856L90.7815 54.2448Z" fill="#2E120C"/>
<path d="M32.4512 64.7429V66.0834L33.3352 65.9254L35.6712 65.4985V64.1665L32.4512 64.7429Z" fill="#2E120C"/>
<path d="M20.9765 35.695V34.965H17.8676V35.695H18.6491H20.9765Z" fill="#2E120C"/>
<path d="M79.3067 35.695V34.965H76.1978V35.695H77.3893H79.3067Z" fill="#2E120C"/>
<path d="M50.1395 35.695V34.965H47.1459V35.695H48.0214H50.1395Z" fill="#2E120C"/>
<path d="M110.383 29.035V31.9381C110.383 33.6117 109.025 34.9693 107.351 34.9693H105.361V35.695H108.752C110.443 35.695 111.818 34.3246 111.818 32.6297V29.6583C111.818 28.1172 110.678 26.8449 109.196 26.6315C109.917 27.1865 110.383 28.0531 110.383 29.035Z" fill="#2E120C"/>
<path d="M35.6712 35.695V34.965H32.4512V35.695H33.3352H35.6712Z" fill="#2E120C"/>
<path d="M93.8861 35.695V34.965H90.7815V35.695H92.0754H93.8861Z" fill="#2E120C"/>
<path d="M64.7232 35.695V34.965H61.6143V35.695H62.7075H64.7232Z" fill="#2E120C"/>
<path d="M3.68541 34.965C2.98505 34.965 2.34021 34.7259 1.82776 34.3289C2.37865 35.1529 3.31388 35.6951 4.37722 35.6951H6.38861V34.9693H3.68114L3.68541 34.965Z" fill="#2E120C"/>
<path d="M105.361 42.513V51.6193L107.983 51.1497C109.644 50.8508 110.75 49.2627 110.451 47.6019L109.947 44.7971C109.836 44.1866 109.55 43.6486 109.153 43.2302C108.547 42.5984 107.68 42.2355 106.766 42.2867C106.646 42.2953 106.522 42.3081 106.399 42.3294L105.365 42.513H105.361Z" fill="#602110"/>
<path d="M4.10389 69.8489L6.39285 69.439V60.3328L2.51527 61.0329C0.854064 61.3318 -0.251985 62.9199 0.0469469 64.5807L0.550861 67.3855C0.653353 67.9576 0.913851 68.4614 1.27257 68.867C1.95584 69.6397 3.01492 70.0495 4.10389 69.8532V69.8489Z" fill="#602110"/>
<path d="M20.9765 59.7009V57.7029L18.6491 58.1213L17.8676 58.2622V59.7009V67.3685L20.9765 66.8092V59.7009Z" fill="#602110"/>
<path d="M93.8861 44.5793L92.0754 44.9038L90.7815 45.1386V54.2448L93.8861 53.6856V44.5793Z" fill="#602110"/>
<path d="M35.6712 59.7009V55.0603L33.3352 55.4786L32.4512 55.6366V59.7009V64.7429L35.6712 64.1665V59.7009Z" fill="#602110"/>
<path d="M64.7232 49.8262L62.7075 50.1934L61.6143 50.3897V59.496L64.7232 58.9325V49.8262Z" fill="#602110"/>
<path d="M50.1395 59.7009V52.4518L48.0214 52.836L47.1459 52.994V59.7009V62.1002L50.1395 61.558V59.7009Z" fill="#602110"/>
<path d="M79.3067 47.2049L77.3893 47.5464L76.1978 47.7642V56.8704L79.3067 56.3112V47.2049Z" fill="#602110"/>
<path d="M17.8676 34.965H20.9765V26.0039H18.6491H17.8676V34.965Z" fill="#602110"/>
<path d="M47.1459 34.965H50.1395V26.0039H48.0214H47.1459V34.965Z" fill="#602110"/>
<path d="M76.1978 34.965H79.3067V26.0039H77.3893H76.1978V34.965Z" fill="#602110"/>
<path d="M105.361 34.965H107.351C109.025 34.965 110.383 33.6074 110.383 31.9339V29.0308C110.383 28.0489 109.917 27.1822 109.196 26.6272C108.683 26.2344 108.047 25.9996 107.355 25.9996H105.365V34.9607L105.361 34.965Z" fill="#602110"/>
<path d="M90.7815 34.965H93.8861V26.0039H92.0754H90.7815V34.965Z" fill="#602110"/>
<path d="M61.6143 34.965H64.7232V26.0039H62.7075H61.6143V34.965Z" fill="#602110"/>
<path d="M32.4512 34.965H35.6712V26.0039H33.3352H32.4512V34.965Z" fill="#602110"/>
<path d="M6.39288 34.965V26.0039H3.68541C2.01139 26.0039 0.653381 27.3615 0.653381 29.035V31.9381C0.653381 32.9115 1.11459 33.7739 1.82776 34.3289C2.34021 34.7259 2.98505 34.965 3.68541 34.965H6.39288Z" fill="#602110"/>
<path d="M6.39288 70.8137V80.0139H6.39715C9.95872 82.0162 14.3061 82.0162 17.8676 80.0139V1.4985C17.116 1.07584 16.326 0.747114 15.5189 0.503768C12.4996 -0.409848 9.20285 -0.0811171 6.39288 1.4985V70.8137ZM8.97224 17.0855C8.64342 16.2957 9.01495 15.3906 9.80498 15.0618C10.595 14.7331 11.5004 15.1088 11.8292 15.8943C12.158 16.6842 11.7865 17.5892 10.9964 17.918C10.2064 18.2467 9.30107 17.8753 8.97224 17.0855ZM12.4954 65.8998C11.4918 66.0791 10.5352 65.4089 10.3559 64.4099C10.1765 63.4066 10.847 62.4503 11.8463 62.271C12.8456 62.0917 13.8064 62.762 13.9858 63.761C14.1651 64.7642 13.4947 65.7205 12.4911 65.8998H12.4954ZM12.1708 32.0534C11.1502 32.0534 10.326 31.2294 10.326 30.2091C10.326 29.1887 11.1502 28.3648 12.1708 28.3648C13.1915 28.3648 14.0157 29.1887 14.0157 30.2091C14.0157 31.2294 13.1915 32.0534 12.1708 32.0534ZM14.6093 2.07058C15.3993 1.74184 16.3046 2.11754 16.6335 2.90308C16.9623 3.68861 16.5907 4.59796 15.8007 4.92669C15.0107 5.25542 14.1053 4.87973 13.7765 4.09419C13.4477 3.30438 13.8235 2.39931 14.6093 2.07058ZM9.7452 5.83177C11.4619 5.11881 13.4349 5.92996 14.1523 7.64619C14.8655 9.36242 14.0541 11.3348 12.3374 12.052C10.6164 12.7693 8.64769 11.9538 7.93025 10.2376C7.21708 8.52138 8.02847 6.549 9.7452 5.83177Z" fill="#DF4447"/>
<path d="M35.6712 35.695V74.1181C39.2328 75.813 43.5844 75.813 47.1459 74.1181V7.39858C46.8641 7.26623 46.578 7.14669 46.2876 7.03142C42.9011 5.7165 38.9509 5.83604 35.6712 7.39858V35.695ZM41.731 60.7298C40.7274 60.9091 39.7708 60.2388 39.5915 59.2398C39.4121 58.2408 40.0826 57.2803 41.0819 57.101C42.0854 56.9217 43.042 57.5919 43.2214 58.5909C43.4007 59.5942 42.7303 60.5505 41.7267 60.7298H41.731ZM41.4064 28.3648C42.4271 28.3648 43.2513 29.1887 43.2513 30.2091C43.2513 31.2294 42.4271 32.0534 41.4064 32.0534C40.3858 32.0534 39.5616 31.2294 39.5616 30.2091C39.5616 29.1887 40.3901 28.3648 41.4064 28.3648Z" fill="#FAC83E"/>
<path d="M64.7231 35.695V68.7688C68.2847 70.1862 72.6363 70.1862 76.1979 68.7688V12.7437C76.0997 12.7052 75.9929 12.6668 75.8904 12.6327C72.3886 11.3305 68.1822 11.369 64.7231 12.7437V35.695ZM70.6719 55.611C69.6683 55.7903 68.7118 55.12 68.5324 54.121C68.353 53.122 69.0235 52.1615 70.0228 51.9822C71.0263 51.8029 71.9829 52.4731 72.1623 53.4721C72.3416 54.4754 71.6712 55.4317 70.6719 55.611ZM70.3473 28.3648C71.368 28.3648 72.1922 29.1887 72.1922 30.2091C72.1922 31.2294 71.368 32.0534 70.3473 32.0534C69.3267 32.0534 68.5025 31.2294 68.5025 30.2091C68.5025 29.1887 69.3267 28.3648 70.3473 28.3648Z" fill="#5EAFD6"/>
<path d="M93.8861 35.695V60.448C97.4477 61.4428 101.799 61.4428 105.361 60.448V21.0686C101.799 20.0739 97.4477 20.0739 93.8861 21.0686V35.695ZM99.6427 28.3648C100.663 28.3648 101.488 29.1887 101.488 30.2091C101.488 31.2294 100.663 32.0534 99.6427 32.0534C98.622 32.0534 97.7978 31.2294 97.7978 30.2091C97.7978 29.1887 98.622 28.3648 99.6427 28.3648ZM99.9672 50.4922C98.9637 50.6715 98.0071 50.0012 97.8277 49.0022C97.6484 47.9989 98.3188 47.0426 99.3181 46.8633C100.322 46.684 101.278 47.3543 101.458 48.3533C101.637 49.3566 100.967 50.3129 99.9672 50.4922ZM99.4462 56.0891C102.965 53.8179 104.007 46.3894 104.233 50.2232C104.464 54.057 103.362 57.2888 100.804 59.0178C99.0192 60.226 96.1751 59.8247 95.4833 59.2356C95.1459 58.9495 94.9366 58.5311 94.9494 58.0914C94.9751 56.9387 96.743 57.8353 99.4462 56.0891Z" fill="#DF4447"/>
<path d="M79.3068 35.695V65.665C82.8683 66.9202 87.2199 66.9202 90.7815 65.665V15.8474C87.2199 14.5922 82.8683 14.5922 79.3068 15.8474V35.695ZM85.4989 53.0494C84.4954 53.2288 83.5388 52.5585 83.3594 51.5595C83.1801 50.5605 83.8505 49.5999 84.8498 49.4206C85.8534 49.2413 86.81 49.9116 86.9893 50.9106C87.1687 51.9096 86.4982 52.8701 85.4989 53.0494ZM85.1744 28.3648C86.195 28.3648 87.0192 29.1887 87.0192 30.2091C87.0192 31.2294 86.195 32.0534 85.1744 32.0534C84.1537 32.0534 83.3295 31.2294 83.3295 30.2091C83.3295 29.1887 84.1537 28.3648 85.1744 28.3648Z" fill="#8669AC"/>
<path d="M50.1395 35.695V71.7017C53.7011 73.2728 58.0527 73.2728 61.6143 71.7017V9.81068C61.3196 9.68261 61.0164 9.56734 60.7132 9.45634C57.3353 8.25241 53.4064 8.36768 50.1395 9.81068V35.6908V35.695ZM56.2292 58.0957C55.2256 58.275 54.2691 57.6047 54.0897 56.6015C53.9103 55.5982 54.5808 54.6419 55.5801 54.4626C56.5794 54.2833 57.5402 54.9535 57.7196 55.9525C57.899 56.9558 57.2328 57.9121 56.2292 58.0914V58.0957ZM55.9047 28.3648C56.9253 28.3648 57.7495 29.1887 57.7495 30.2091C57.7495 31.2294 56.9253 32.0534 55.9047 32.0534C54.884 32.0534 54.0598 31.2294 54.0598 30.2091C54.0598 29.1887 54.884 28.3648 55.9047 28.3648Z" fill="#A7C94C"/>
<path d="M20.9765 35.695V77.4908C24.5381 79.365 28.8897 79.365 32.4512 77.4908V4.02588C31.8192 3.69288 31.1616 3.42391 30.4911 3.21045C27.3694 2.21572 23.9103 2.48468 20.9765 4.02588V35.695ZM27.2626 63.2871C26.2591 63.4664 25.3025 62.7961 25.1231 61.7971C24.9438 60.7981 25.6142 59.8375 26.6178 59.6582C27.6213 59.4789 28.5779 60.1492 28.7573 61.1482C28.9366 62.1515 28.2705 63.1078 27.2669 63.2871H27.2626ZM26.9381 28.3648C27.9587 28.3648 28.7829 29.1887 28.7829 30.2091C28.7829 31.2294 27.9587 32.0534 26.9381 32.0534C25.9174 32.0534 25.0932 31.2294 25.0932 30.2091C25.0932 29.1887 25.9174 28.3648 26.9381 28.3648Z" fill="#EB7E3B"/>
<path d="M11.8462 62.2667C10.8427 62.446 10.1765 63.4023 10.3558 64.4056C10.5352 65.4089 11.4918 66.0749 12.4953 65.8956C13.4989 65.7163 14.1651 64.76 13.99 63.7567C13.8106 62.7534 12.8541 62.0874 11.8505 62.2667H11.8462Z" fill="#2E120C"/>
<path d="M26.6135 59.654C25.61 59.8333 24.9438 60.7896 25.1189 61.7928C25.2982 62.7961 26.2548 63.4621 27.2584 63.2828C28.2619 63.1035 28.9281 62.1472 28.7488 61.1439C28.5694 60.1407 27.6128 59.4746 26.6093 59.654H26.6135Z" fill="#2E120C"/>
<path d="M41.0819 57.0967C40.0783 57.276 39.4121 58.2323 39.5915 59.2356C39.7708 60.2388 40.7274 60.9048 41.731 60.7255C42.7345 60.5462 43.4007 59.5899 43.2214 58.5867C43.042 57.5834 42.0854 56.9174 41.0819 57.0967Z" fill="#2E120C"/>
<path d="M55.5843 54.4626C54.5808 54.6419 53.9146 55.5982 54.0939 56.6015C54.2733 57.6047 55.2299 58.2707 56.2334 58.0957C57.237 57.9164 57.9032 56.9601 57.7238 55.9568C57.5445 54.9535 56.5879 54.2833 55.5843 54.4626Z" fill="#2E120C"/>
<path d="M70.0227 51.9779C69.0192 52.1572 68.353 53.1135 68.5323 54.1168C68.7117 55.12 69.6683 55.786 70.6719 55.6067C71.6754 55.4274 72.3416 54.4711 72.1622 53.4678C71.9829 52.4646 71.0263 51.7943 70.0227 51.9736V51.9779Z" fill="#2E120C"/>
<path d="M84.8498 49.4206C83.8463 49.5999 83.1801 50.5562 83.3594 51.5595C83.5388 52.5628 84.4954 53.2288 85.4989 53.0495C86.5025 52.8702 87.1687 51.9139 86.9893 50.9106C86.81 49.9073 85.8534 49.2413 84.8498 49.4206Z" fill="#2E120C"/>
<path d="M99.3181 46.8591C98.3146 47.0384 97.6484 47.9947 97.8278 48.998C98.0071 50.0012 98.9637 50.6672 99.9673 50.4879C100.971 50.3086 101.637 49.3523 101.458 48.349C101.278 47.3458 100.322 46.6798 99.3181 46.8591Z" fill="#2E120C"/>
<path d="M12.1708 28.3648C11.1502 28.3648 10.326 29.1887 10.326 30.2091C10.326 31.2294 11.1502 32.0534 12.1708 32.0534C13.1915 32.0534 14.0157 31.2294 14.0157 30.2091C14.0157 29.1887 13.1915 28.3648 12.1708 28.3648Z" fill="#2E120C"/>
<path d="M26.9381 32.0534C27.9587 32.0534 28.7829 31.2294 28.7829 30.2091C28.7829 29.1887 27.9587 28.3648 26.9381 28.3648C25.9175 28.3648 25.0933 29.1887 25.0933 30.2091C25.0933 31.2294 25.9175 32.0534 26.9381 32.0534Z" fill="#2E120C"/>
<path d="M41.4064 32.0534C42.4271 32.0534 43.2513 31.2294 43.2513 30.2091C43.2513 29.1887 42.4271 28.3648 41.4064 28.3648C40.3858 28.3648 39.5616 29.1887 39.5616 30.2091C39.5616 31.2294 40.3901 32.0534 41.4064 32.0534Z" fill="#2E120C"/>
<path d="M55.9046 32.0534C56.9252 32.0534 57.7494 31.2294 57.7494 30.2091C57.7494 29.1887 56.9252 28.3648 55.9046 28.3648C54.884 28.3648 54.0598 29.1887 54.0598 30.2091C54.0598 31.2294 54.884 32.0534 55.9046 32.0534Z" fill="#2E120C"/>
<path d="M70.3473 32.0534C71.368 32.0534 72.1922 31.2294 72.1922 30.2091C72.1922 29.1887 71.368 28.3648 70.3473 28.3648C69.3267 28.3648 68.5025 29.1887 68.5025 30.2091C68.5025 31.2294 69.3267 32.0534 70.3473 32.0534Z" fill="#2E120C"/>
<path d="M85.1744 32.0534C86.195 32.0534 87.0192 31.2294 87.0192 30.2091C87.0192 29.1887 86.195 28.3648 85.1744 28.3648C84.1537 28.3648 83.3295 29.1887 83.3295 30.2091C83.3295 31.2294 84.1537 32.0534 85.1744 32.0534Z" fill="#2E120C"/>
<path d="M99.6427 32.0534C100.663 32.0534 101.488 31.2294 101.488 30.2091C101.488 29.1887 100.663 28.3648 99.6427 28.3648C98.6221 28.3648 97.7979 29.1887 97.7979 30.2091C97.7979 31.2294 98.6221 32.0534 99.6427 32.0534Z" fill="#2E120C"/>
<path d="M15.8007 4.92669C16.5908 4.59795 16.9623 3.69288 16.6335 2.90307C16.3046 2.11326 15.3993 1.74184 14.6093 2.07057C13.8192 2.3993 13.4477 3.30438 13.7765 4.09419C14.1053 4.88399 15.0107 5.25542 15.8007 4.92669Z" fill="#EA555B"/>
<path d="M10.9964 17.9222C11.7864 17.5935 12.158 16.6884 11.8291 15.8986C11.5003 15.1088 10.595 14.7374 9.80494 15.0661C9.01491 15.3948 8.64338 16.2999 8.9722 17.0897C9.30103 17.8795 10.2064 18.251 10.9964 17.9222Z" fill="#EA555B"/>
<path d="M12.3331 12.052C14.0498 11.3391 14.8655 9.36669 14.1481 7.64619C13.4349 5.92995 11.4619 5.11453 9.74094 5.83176C8.01994 6.54899 7.20855 8.51711 7.92599 10.2376C8.64343 11.9538 10.6121 12.7693 12.3331 12.052Z" fill="#EA555B"/>
<path d="M95.4876 59.2356C96.1794 59.8247 99.0235 60.226 100.809 59.0178C103.367 57.2888 104.468 54.057 104.238 50.2232C104.007 46.3895 102.965 53.8179 99.4505 56.0891C96.7473 57.8353 94.9794 56.9387 94.9537 58.0914C94.9452 58.5311 95.1545 58.9495 95.4876 59.2356Z" fill="#EA555B"/>
<path d="M4.05691 101.919L4.07827 98.4485L3.46759 100.007L3.50175 103.337L101.996 103.917C101.906 103.456 101.855 102.982 101.842 102.496L4.05691 101.919Z" fill="#6B2613"/>
<path d="M110.878 109.702C106.561 109.677 102.982 106.581 102.201 102.496H101.842C101.855 102.978 101.906 103.452 101.996 103.913C102.781 107.994 106.36 111.094 110.673 111.12C115.418 111.149 119.312 107.457 119.599 102.777C118.697 106.761 115.127 109.724 110.874 109.698L110.878 109.702Z" fill="#803019"/>
<path d="M92.2804 101.228L4.05267 101.919L101.838 102.496H102.196C102.09 101.936 102.034 101.356 102.034 100.762C102.034 100.169 102.102 99.5883 102.214 99.0291L99.2712 99.012C99.2584 100.929 94.1936 101.245 92.2762 101.232L92.2804 101.228Z" fill="#973C24"/>
<path d="M105.135 99.6609C104.451 99.7591 103.977 100.391 104.075 101.074C104.174 101.757 104.806 102.231 105.489 102.133C106.172 102.035 106.646 101.403 106.548 100.72C106.45 100.037 105.818 99.5627 105.135 99.6609Z" fill="#C25435"/>
<path d="M115.358 103.042C114.675 103.14 114.201 103.772 114.299 104.455C114.397 105.138 115.029 105.612 115.712 105.514C116.396 105.416 116.87 104.784 116.772 104.101C116.673 103.418 116.041 102.944 115.358 103.042Z" fill="#C25435"/>
<path d="M109.49 101.864C107.846 102.099 106.706 103.623 106.941 105.266C107.176 106.91 108.7 108.05 110.344 107.815C111.989 107.58 113.129 106.056 112.894 104.413C112.659 102.769 111.135 101.629 109.49 101.864Z" fill="#C25435"/>
<path d="M5.15872 92.8899L4.6847 89.4489L4.30035 91.0798L4.80854 94.3713L102.389 80.9745C102.235 80.5305 102.115 80.0651 102.034 79.5913L5.15872 92.8899Z" fill="#6B2613"/>
<path d="M112.006 85.4444C107.731 86.0335 103.747 83.4763 102.393 79.5443L102.038 79.5913C102.12 80.0694 102.239 80.5305 102.393 80.9745C103.747 84.9065 107.731 87.4637 112.006 86.8746C116.707 86.2299 120.038 82.0247 119.658 77.3542C119.329 81.4228 116.216 84.8638 112.006 85.4401V85.4444Z" fill="#803019"/>
<path d="M92.3957 79.6937L5.15869 92.8899L102.034 79.5913L102.389 79.5443C102.201 79.0021 102.064 78.4343 101.983 77.8494C101.902 77.2645 101.88 76.6797 101.915 76.1076L99.0021 76.5089C99.2626 78.4087 94.2918 79.4376 92.3914 79.698L92.3957 79.6937Z" fill="#973C24"/>
<path d="M104.9 76.321C104.238 76.5132 103.858 77.209 104.054 77.8708C104.246 78.5325 104.942 78.9125 105.604 78.7161C106.266 78.524 106.646 77.8281 106.45 77.1663C106.253 76.5046 105.562 76.1247 104.9 76.321Z" fill="#C25435"/>
<path d="M116.199 80.6159C116.861 80.4238 117.241 79.7279 117.045 79.0661C116.853 78.4044 116.157 78.0245 115.495 78.2208C114.833 78.4172 114.453 79.1088 114.649 79.7706C114.846 80.4323 115.537 80.8123 116.199 80.6159Z" fill="#C25435"/>
<path d="M109.52 77.8836C107.927 78.3489 107.014 80.0225 107.483 81.6149C107.949 83.2073 109.623 84.1209 111.216 83.6556C112.809 83.1902 113.722 81.5167 113.257 79.9243C112.791 78.3319 111.117 77.4182 109.525 77.8836H109.52Z" fill="#C25435"/>
</g>
<defs>
<clipPath id="clip0_24_3">
<rect width="120" height="111" fill="white"/>
</clipPath>
</defs>
</svg>
