<svg width="120" height="111" viewBox="0 0 120 111" fill="none" xmlns="http://www.w3.org/2000/svg">
<g clip-path="url(#clip0_24_138)">
<path d="M119.944 28.672C119.918 28.2525 119.884 27.8421 119.841 27.4317C119.823 27.2721 119.802 27.108 119.78 26.9484C119.75 26.6885 119.715 26.4285 119.681 26.1686C119.655 25.9862 119.625 25.8084 119.595 25.6306C119.556 25.3889 119.513 25.1518 119.47 24.9101C119.435 24.7277 119.396 24.5453 119.357 24.3584C119.306 24.1213 119.254 23.8887 119.198 23.6562C119.155 23.4738 119.112 23.2959 119.064 23.1181C119.004 22.881 118.935 22.6439 118.87 22.4113C118.823 22.2381 118.771 22.0693 118.719 21.8961C118.641 21.6453 118.555 21.3945 118.473 21.1437C118.421 20.9932 118.374 20.8427 118.322 20.6923C118.201 20.3503 118.068 20.0174 117.934 19.68C117.912 19.6253 117.891 19.566 117.869 19.5113C117.71 19.1237 117.537 18.7407 117.36 18.3622C117.3 18.23 117.231 18.1023 117.17 17.9746C117.045 17.7238 116.925 17.473 116.791 17.2222C116.713 17.0763 116.631 16.9304 116.549 16.7845C116.424 16.5565 116.295 16.3285 116.161 16.1051C116.071 15.9546 115.98 15.8041 115.889 15.6582C115.756 15.4393 115.613 15.225 115.475 15.0107C115.38 14.8648 115.281 14.7189 115.182 14.5775C115.031 14.3587 114.88 14.1444 114.72 13.9346C114.621 13.8024 114.522 13.6656 114.423 13.5333C114.246 13.3053 114.065 13.0774 113.879 12.8539C113.789 12.7445 113.702 12.6305 113.612 12.5256C113.331 12.1973 113.042 11.869 112.745 11.5498C112.447 11.2306 112.141 10.9251 111.83 10.6242C111.731 10.5284 111.623 10.4372 111.524 10.3415C111.313 10.1454 111.097 9.94931 110.881 9.75779C110.756 9.64836 110.631 9.54348 110.502 9.43861C110.299 9.26989 110.1 9.10574 109.893 8.94614C109.76 8.84127 109.622 8.73639 109.484 8.63607C109.281 8.4856 109.078 8.33512 108.871 8.19377C108.733 8.09345 108.591 7.9977 108.453 7.90194C108.241 7.76059 108.03 7.62379 107.814 7.487C107.676 7.40036 107.538 7.31372 107.4 7.22709C107.167 7.08573 106.93 6.9535 106.688 6.82126C106.568 6.75286 106.447 6.68447 106.322 6.61607C105.964 6.42456 105.601 6.24216 105.235 6.06889C105.183 6.04609 105.131 6.02329 105.079 6.00049C104.765 5.85458 104.445 5.71322 104.122 5.58099C103.984 5.52171 103.837 5.47155 103.699 5.41683C103.462 5.32564 103.225 5.23444 102.987 5.1478C102.828 5.09308 102.664 5.03837 102.504 4.98365C102.28 4.91069 102.056 4.83773 101.831 4.76934C101.663 4.71918 101.495 4.66902 101.322 4.62342C101.102 4.56414 100.878 4.50487 100.658 4.45015C100.485 4.40911 100.313 4.36807 100.14 4.32703C99.9118 4.27687 99.6875 4.23128 99.4588 4.18568C99.2906 4.15376 99.1224 4.11728 98.9541 4.08992C98.7083 4.04888 98.4581 4.0124 98.2122 3.97592C98.0612 3.95313 97.9103 3.93033 97.7593 3.91209C97.3711 3.86193 96.9785 3.82545 96.586 3.79353C89.2442 3.24179 81.5703 5.90017 75.5744 11.7048C75.2811 11.9876 74.9921 12.2703 74.7117 12.5712C74.5133 12.781 74.3192 12.9907 74.1251 13.2096C74.069 13.2734 74.0129 13.3373 73.9568 13.4011C73.8145 13.5607 73.6721 13.7248 73.5341 13.889C73.478 13.9574 73.422 14.0212 73.3659 14.0851C73.202 14.2766 73.0424 14.4727 72.8871 14.6687L72.8051 14.769C72.611 15.0153 72.4169 15.2615 72.2228 15.5169L72.2012 15.5442C72.02 15.7859 71.8432 16.0276 71.6663 16.2738C71.6404 16.3148 71.6102 16.3513 71.5844 16.3924C71.4161 16.6295 71.2522 16.8666 71.0883 17.1037L71.0452 17.1675C70.6871 17.6965 70.3377 18.2436 69.997 18.7954L69.9625 18.8455C69.0048 20.4187 68.1292 22.0785 67.3484 23.8066C67.2018 24.1304 67.0637 24.4541 66.9257 24.7779C66.9084 24.8144 66.8955 24.8508 66.8782 24.8873C66.5978 25.5531 66.3304 26.2279 66.0802 26.9073L66.05 26.9894C65.9335 27.304 65.8214 27.6232 65.7092 27.9424L65.6747 28.0427C65.4418 28.7267 65.2218 29.4152 65.0191 30.1083C65.0061 30.1494 64.9932 30.195 64.9846 30.236C64.8897 30.5597 64.7991 30.8881 64.7128 31.2164L64.6999 31.2711C64.605 31.6313 64.5144 31.9915 64.4281 32.3472C64.3461 32.6846 64.2685 33.0266 64.1952 33.3686C64.1822 33.4142 64.1736 33.4644 64.165 33.5145C64.0183 34.2122 63.8846 34.9098 63.7681 35.612L63.7509 35.7078C63.6991 36.027 63.6517 36.3462 63.6085 36.6608C63.6042 36.7018 63.5956 36.7474 63.5913 36.793C63.4964 37.4861 63.423 38.1792 63.3626 38.8678C63.3626 38.9134 63.354 38.9635 63.3497 39.0091C63.3238 39.3237 63.3023 39.6384 63.285 39.9484V40.0396C63.2634 40.3543 63.2505 40.6735 63.2419 40.9881C63.2419 41.02 63.2419 41.0565 63.2376 41.093C63.1383 45.2835 63.7638 49.287 65.2822 52.7297L63.0176 54.7633L53.2084 63.4681L48.4203 56.2818C51.0689 52.9348 52.7555 48.5528 53.5923 43.7513L53.6053 43.6738C53.6657 43.3318 53.7174 42.9899 53.7692 42.6479L53.7778 42.5977C53.8857 41.859 53.9719 41.1112 54.0366 40.3543L54.0453 40.2813C54.11 39.5289 54.1574 38.772 54.1833 38.0105V37.9376C54.2135 37.1715 54.2178 36.3963 54.2092 35.6257V35.5892C54.2006 35.2062 54.1919 34.8278 54.179 34.4447V34.4128C54.1445 33.6376 54.097 32.8625 54.028 32.0919L54.0194 32.0143C53.9504 31.2483 53.8641 30.4822 53.7606 29.7207L53.7476 29.6295C53.6441 28.8681 53.519 28.1066 53.3767 27.3542L53.3637 27.2903C53.2947 26.9164 53.2214 26.5425 53.1394 26.1732C53.0575 25.781 52.9712 25.4026 52.8806 25.0196V25.0287C52.57 23.7382 52.2163 22.4752 51.8065 21.244L51.7893 21.203C51.6124 20.6695 51.4226 20.1405 51.2242 19.6207C51.2112 19.5842 51.1983 19.5478 51.181 19.5113C50.9912 19.0097 50.7885 18.5172 50.5771 18.0293C50.5556 17.9837 50.5383 17.9336 50.5167 17.888C50.3054 17.4046 50.0897 16.9304 49.8611 16.4653C49.8438 16.4288 49.8266 16.3923 49.8093 16.3559C49.5678 15.8588 49.3133 15.3755 49.0501 14.9013C48.7741 14.4043 48.485 13.9164 48.1831 13.4421L48.1313 13.3601C47.8423 12.9041 47.5404 12.4527 47.2341 12.0149C42.8601 5.80898 36.6356 1.81456 30.0315 0.487653H30.0185C29.6346 0.410136 29.255 0.346298 28.8668 0.28702C28.7158 0.264221 28.5605 0.245982 28.4052 0.227742C28.1594 0.195824 27.9135 0.163905 27.6676 0.136546C27.4951 0.118306 27.3225 0.104627 27.15 0.0909474C26.9214 0.0727081 26.6927 0.0544688 26.4598 0.0407893C26.2829 0.0316696 26.1061 0.0271098 25.9292 0.0179901C25.7006 0.00887044 25.472 0.00431061 25.2477 0.00431061C25.0708 0.00431061 24.894 0.00431061 24.7171 0.00431061C24.4842 0.00431061 24.2512 0.0179901 24.0183 0.0271098C23.8501 0.0362294 23.6775 0.0407893 23.5093 0.0544688C23.2591 0.0727081 23.0089 0.0955073 22.7587 0.122866C22.6078 0.136546 22.4568 0.150225 22.3101 0.168465C21.9694 0.209503 21.6286 0.259661 21.2878 0.314379C21.2274 0.323499 21.1713 0.328059 21.1109 0.341738C20.7141 0.410136 20.3216 0.487653 19.929 0.57429C19.7953 0.606209 19.6616 0.642687 19.5235 0.674606C19.2604 0.738444 19.0016 0.802281 18.7385 0.875239C18.5832 0.916277 18.4279 0.966435 18.2726 1.01203C18.031 1.08499 17.7938 1.15795 17.5565 1.23547C17.3969 1.29018 17.2373 1.3449 17.0777 1.40418C16.8448 1.48626 16.6119 1.57745 16.3789 1.66865C16.2236 1.73249 16.064 1.79176 15.9087 1.86016C15.6715 1.96048 15.4386 2.06536 15.2013 2.17023C15.0547 2.23863 14.908 2.30247 14.757 2.37542C14.5025 2.49854 14.248 2.63077 13.9978 2.76301C13.8727 2.82685 13.7519 2.89068 13.6269 2.95452C13.2559 3.15971 12.8849 3.37403 12.5183 3.59746C12.1516 3.82545 11.7936 4.06256 11.4442 4.30423C11.3277 4.38175 11.2199 4.46839 11.1034 4.55046C10.8705 4.71918 10.6375 4.88789 10.4132 5.06117C10.2838 5.16148 10.1544 5.26636 10.0293 5.37123C9.82657 5.53539 9.62383 5.69954 9.42541 5.86826C9.296 5.98225 9.16659 6.09625 9.03718 6.21024C8.84739 6.37896 8.6619 6.55223 8.48073 6.7255C8.35563 6.84406 8.23054 6.96262 8.10976 7.08573C7.92859 7.26812 7.74742 7.45052 7.57056 7.63747C7.45841 7.75603 7.34194 7.87458 7.22979 7.9977C7.03999 8.20289 6.85882 8.41264 6.68196 8.62239C6.59137 8.73183 6.49216 8.83671 6.40157 8.94614C6.13844 9.26533 5.87963 9.58908 5.62944 9.92195C5.59493 9.96755 5.56042 10.0177 5.52591 10.0679C5.31455 10.3551 5.10318 10.647 4.90044 10.9433C4.81417 11.071 4.7279 11.2033 4.64594 11.3355C4.50359 11.5544 4.36124 11.7732 4.22321 11.9967C4.13262 12.1471 4.04204 12.2976 3.95576 12.4527C3.83067 12.6624 3.70989 12.8722 3.59342 13.0865C3.50715 13.2461 3.42088 13.4102 3.33461 13.5698C3.22245 13.7796 3.11461 13.9939 3.00677 14.2082C2.92481 14.3723 2.84286 14.5365 2.76521 14.7052C2.66168 14.9241 2.56247 15.1475 2.46757 15.3709C2.39424 15.5351 2.32091 15.6993 2.25189 15.8634C2.15268 16.1051 2.05778 16.3513 1.96288 16.593C1.9068 16.7435 1.84641 16.8894 1.79034 17.0398C1.64799 17.4274 1.51427 17.8196 1.38917 18.2117C-1.06095 25.9498 -0.375089 34.9417 3.97302 42.7938C4.11537 43.0491 4.26203 43.2999 4.40869 43.5553C4.45183 43.6282 4.49496 43.7012 4.54241 43.7741C4.65457 43.9611 4.76672 44.1435 4.88319 44.3304C4.93064 44.4034 4.97809 44.4809 5.02122 44.5539C5.15494 44.7682 5.29298 44.9779 5.43533 45.1877C5.46121 45.2242 5.48278 45.2606 5.50866 45.2971C5.68552 45.557 5.86237 45.817 6.04786 46.0769L6.06943 46.1042C6.24197 46.3505 6.41883 46.5921 6.6 46.8292C6.6302 46.8657 6.65608 46.9067 6.68627 46.9432C6.85882 47.1758 7.03567 47.4038 7.21684 47.6318L7.26429 47.691C7.47566 47.9555 7.69134 48.2245 7.91133 48.4845C7.98035 48.5665 8.04506 48.644 8.11407 48.7216C8.25211 48.8857 8.39446 49.0544 8.53681 49.214C9.73599 50.582 11.043 51.8952 12.432 53.1218C12.6908 53.3498 12.9539 53.5778 13.2171 53.8012L13.3033 53.8742C13.8425 54.3302 14.3947 54.7679 14.9554 55.1965L15.0201 55.2467C15.279 55.4473 15.5464 55.6388 15.8095 55.8349L15.8915 55.8942C16.4609 56.3046 17.0389 56.7013 17.6212 57.0797C17.6558 57.1025 17.6903 57.1253 17.7248 57.1481C18.0008 57.326 18.2769 57.4992 18.5573 57.6725L18.6004 57.6999C18.9067 57.8868 19.213 58.0692 19.5192 58.2471C19.8082 58.4158 20.1016 58.5799 20.3949 58.7395C20.4337 58.7623 20.4768 58.7851 20.5157 58.8079C21.1196 59.1317 21.7278 59.4417 22.336 59.7336L22.4223 59.7746C22.6983 59.9068 22.9787 60.0345 23.2591 60.1576C23.2979 60.1759 23.3368 60.1941 23.3756 60.2078C23.9881 60.4768 24.6006 60.7276 25.2175 60.9556C25.2606 60.9738 25.3038 60.9875 25.3469 61.0012C25.6273 61.1061 25.9077 61.2064 26.1924 61.3021L26.2743 61.3295C26.559 61.4253 26.848 61.5165 27.1327 61.6031L27.2276 61.6305C31.0408 62.775 34.8627 63.1306 38.3955 62.4375L39.6939 65.2646L42.9679 72.4965L41.6135 73.7003L28.1249 85.6653L26.4943 87.1108C26.4943 87.1108 26.5073 87.6033 26.6151 88.4012C26.628 88.4879 26.641 88.5836 26.6539 88.6794C26.7273 89.1582 26.8351 89.7281 26.9861 90.3574C27.0465 90.6082 27.1155 90.8681 27.1931 91.1371C27.2578 91.356 27.3268 91.584 27.4045 91.8165C27.439 91.9169 27.4735 92.0172 27.508 92.1175C27.6159 92.4276 27.7366 92.7376 27.8704 93.0568C28.0386 93.4626 28.2284 93.873 28.4441 94.2834C28.539 94.4704 28.6425 94.6573 28.7503 94.8397C28.8668 95.0404 28.9833 95.241 29.1127 95.4416C29.5785 96.1666 30.1221 96.8734 30.7691 97.5346C34.7333 101.917 40.5998 102.122 40.5998 102.122L50.0811 90.3483L50.7022 89.5777L59.3337 108.651L60.2525 110.681C60.2525 110.681 61.5078 110.986 63.3497 110.986C63.5956 110.986 63.8501 110.982 64.1132 110.968C64.2469 110.963 64.3807 110.954 64.5144 110.945C64.7861 110.927 65.0665 110.899 65.3555 110.863C65.6445 110.826 65.9379 110.781 66.2355 110.726C66.5331 110.671 66.8351 110.603 67.1414 110.526C68.3664 110.211 69.6432 109.705 70.864 108.916C75.8678 105.947 77.5199 99.9969 77.5199 99.9969L61.5811 76.0714L73.4004 61.3979C77.1273 63.272 81.566 63.9104 86.1686 63.5684L86.242 63.5638C86.5698 63.5365 86.8976 63.5091 87.2255 63.4726H87.2686C87.9717 63.3905 88.6792 63.2948 89.3909 63.1717L89.4599 63.158C90.1673 63.0349 90.8705 62.8935 91.5779 62.7339L91.6426 62.7203C92.3543 62.5561 93.0618 62.3691 93.7692 62.1685L93.7994 62.1594C94.1488 62.0591 94.4939 61.9542 94.8433 61.8402L94.8692 61.8311C95.5723 61.6077 96.2668 61.3614 96.9613 61.1015L97.0303 61.0742C97.7161 60.8142 98.3934 60.5315 99.0663 60.2351L99.1439 60.2032C99.8169 59.9023 100.481 59.5877 101.137 59.2593L101.189 59.232C101.723 58.9629 102.245 58.6757 102.767 58.3839C102.836 58.3474 102.901 58.3063 102.97 58.2699C103.031 58.2379 103.091 58.206 103.147 58.1695H103.138C104.243 57.5312 105.312 56.8472 106.335 56.1222V56.1313C106.792 55.8075 107.241 55.4747 107.681 55.1327L107.767 55.0643C108.181 54.7405 108.582 54.4122 108.975 54.0748C109.013 54.0429 109.052 54.011 109.087 53.979C109.479 53.6416 109.859 53.2996 110.23 52.9531L110.316 52.871C110.51 52.6841 110.709 52.4971 110.898 52.3056C111.088 52.1141 111.278 51.9226 111.464 51.7311C111.744 51.4347 112.011 51.1383 112.275 50.8373C112.374 50.7233 112.477 50.6093 112.576 50.4908C112.771 50.2628 112.96 50.0348 113.146 49.8022C113.318 49.5879 113.491 49.3691 113.659 49.1456V49.1365C118.24 43.1175 120.35 35.758 119.923 28.6674L119.944 28.672Z" fill="#F59E5D"/>
<path d="M68.845 63.1902C69.5913 61.5121 69.0348 60.1898 68.6983 59.4648C67.4862 56.8246 63.0087 54.759 63.0087 54.759L53.1996 63.4592L61.0029 75.1734C64.76 70.4859 67.6329 65.9169 68.845 63.1947V63.1902Z" fill="#E89353"/>
<path d="M29.9795 86.0441C31.2606 84.6305 32.3822 87.7813 37.4765 88.6933C41.0007 89.3271 45.2798 87.3345 47.9284 86.0897L41.6391 73.7097L28.1505 85.6747C28.5431 86.3085 28.9528 86.8831 29.3713 87.412C29.436 86.9059 29.6344 86.4225 29.9752 86.0441H29.9795Z" fill="#E89353"/>
<path d="M65.2734 52.7208L63.0088 54.7545C63.0088 54.7545 67.4863 56.8201 68.6984 59.4648C69.0306 60.1898 69.5913 61.5121 68.8451 63.1902C67.633 65.9124 64.7601 70.4813 61.003 75.1688L53.1997 63.4546L48.4116 56.2683C47.1434 57.8688 45.6638 59.2368 43.947 60.2992C42.2302 61.3617 40.371 62.0639 38.4213 62.4469L39.7197 65.274C39.7197 65.274 42.7306 61.2066 45.4524 60.623C46.1987 60.4634 47.5488 60.2171 48.9033 61.4027C52.9797 64.9776 61.4818 76.0124 65.4632 86.6824C65.5538 86.8055 65.6487 86.9378 65.7565 87.0882C69.4231 92.332 70.7733 97.9543 68.8451 102.788C67.4992 106.157 63.3194 108.223 61.8743 108.022C61.6586 107.995 61.4516 107.931 61.2531 107.849C60.6665 108.15 60.0367 108.424 59.3595 108.67L60.2783 110.699C60.2783 110.699 61.5335 111.005 63.3754 111.005C63.6213 111.005 63.8758 111 64.1389 110.986C64.2727 110.982 64.4064 110.973 64.5401 110.964C64.8119 110.945 65.0922 110.918 65.3813 110.881C65.6703 110.845 65.9636 110.799 66.2612 110.745C66.5589 110.69 66.8608 110.622 67.1671 110.544C68.3922 110.229 69.669 109.723 70.8897 108.934C75.8935 105.966 77.5456 100.015 77.5456 100.015L61.6069 76.0899L73.4261 61.4164C71.6446 60.5181 70.0227 59.3417 68.6208 57.8551C67.2188 56.3595 66.1103 54.6313 65.2734 52.7345V52.7208Z" fill="#D48548"/>
<path d="M48.7825 87.7631C45.0296 92.2409 40.509 94.6393 35.9064 93.9189C32.4814 93.3808 29.5524 89.619 29.3713 88.0868C29.3454 87.8589 29.3497 87.6309 29.3756 87.4074C28.9572 86.8831 28.5474 86.3085 28.1548 85.6701L26.5243 87.1156C26.5243 87.1156 26.5372 87.6081 26.6451 88.406C26.658 88.4927 26.671 88.5884 26.6839 88.6842C26.7572 89.163 26.8651 89.733 27.016 90.3622C27.0764 90.613 27.1454 90.8729 27.2231 91.1419C27.2878 91.3608 27.3568 91.5888 27.4345 91.8214C27.469 91.9217 27.5035 92.022 27.538 92.1223C27.6458 92.4324 27.7666 92.7424 27.9003 93.0616C28.0686 93.4675 28.2584 93.8778 28.474 94.2882C28.5689 94.4752 28.6725 94.6621 28.7803 94.8445C28.8968 95.0452 29.0132 95.2458 29.1426 95.4464C29.6085 96.1714 30.152 96.8782 30.7991 97.5394C34.7633 101.921 40.6298 102.127 40.6298 102.127L50.111 90.3531L48.7911 87.7585L48.7825 87.7631Z" fill="#D48548"/>
<path d="M113.176 46.7884C112.421 44.2349 110.937 41.8501 108.893 40.2542C107.741 39.3559 106.563 38.5716 105.243 37.9788C103.94 37.3952 102.59 36.9118 101.227 36.506C98.9497 35.8266 96.6333 35.2794 94.3902 34.4723C93.2945 34.0209 92.2377 33.492 91.2456 32.8308C90.7021 32.3931 90.1974 31.9143 89.7358 31.3853C89.1405 30.5463 88.6445 29.6435 88.2174 28.695C86.9061 25.4165 86.0822 21.9054 84.2662 18.8731C82.2129 15.4533 79.12 13.0594 75.5613 11.7051C75.268 11.9878 74.979 12.2705 74.6986 12.5715C74.5002 12.7812 74.3061 12.991 74.112 13.2098C74.0559 13.2737 73.9998 13.3375 73.9437 13.4014C73.8014 13.5609 73.659 13.7251 73.521 13.8893C73.4649 13.9576 73.4088 14.0215 73.3528 14.0853C73.1889 14.2768 73.0292 14.4729 72.874 14.669L72.792 14.7693C72.5979 15.0155 72.4038 15.2618 72.2097 15.5171L72.1881 15.5445C72.0069 15.7861 71.8301 16.0278 71.6532 16.274C71.6273 16.3151 71.5971 16.3516 71.5713 16.3926C71.403 16.6297 71.2391 16.8668 71.0752 17.1039L71.0321 17.1678C70.674 17.6967 70.3246 18.2439 69.9839 18.7956L69.9493 18.8458C70.2987 18.8321 70.6525 18.8367 71.0019 18.8549C71.7524 18.9643 72.49 19.1376 73.2147 19.3793C73.9955 19.7167 74.7417 20.1225 75.4492 20.6013C76.0531 21.0938 76.6138 21.6364 77.1315 22.2337C77.7397 23.0864 78.2487 24.0075 78.6844 24.9742C80.1165 28.5582 80.9533 32.5162 83.1964 35.6579C84.7018 37.7645 86.5437 39.4334 88.7566 40.6737C90.7452 41.7863 92.9322 42.525 95.0933 43.1634C97.0776 43.7516 99.1006 44.2213 101.055 44.9098C102.06 45.3202 103.035 45.8126 103.945 46.4282C104.316 46.7428 104.665 47.0757 104.993 47.4405C105.217 47.7688 105.42 48.1154 105.606 48.4756C105.821 49.0638 105.989 49.6657 106.115 50.2858C106.365 52.2238 106.339 54.1799 106.365 56.1361V56.1452C106.822 55.8215 107.271 55.4886 107.711 55.1466L107.797 55.0782C108.211 54.7545 108.612 54.4262 109.005 54.0887C109.043 54.0568 109.082 54.0249 109.117 53.993C109.509 53.6555 109.889 53.3136 110.26 52.967L110.346 52.8849C110.54 52.698 110.739 52.511 110.929 52.3195C111.118 52.128 111.308 51.9365 111.489 51.745C111.77 51.4486 112.037 51.1522 112.3 50.8512C112.399 50.7373 112.503 50.6233 112.602 50.5047C112.796 50.2767 112.986 50.0487 113.172 49.8162C113.344 49.6019 113.517 49.383 113.685 49.1596V49.1504C113.568 48.357 113.405 47.5727 113.176 46.7976V46.7884Z" fill="#DF4447"/>
<path d="M119.944 28.6722C119.918 28.2527 119.884 27.8423 119.84 27.432C119.823 27.2724 119.802 27.1082 119.78 26.9486C119.75 26.6887 119.715 26.4288 119.681 26.1689C119.655 25.9865 119.625 25.8086 119.595 25.6308C119.556 25.3891 119.513 25.152 119.469 24.9104C119.435 24.728 119.396 24.5456 119.357 24.3586C119.306 24.1215 119.254 23.889 119.198 23.6564C119.155 23.474 119.111 23.2962 119.064 23.1183C119.004 22.8812 118.935 22.6441 118.87 22.4116C118.822 22.2383 118.771 22.0696 118.719 21.8963C118.641 21.6455 118.555 21.3947 118.473 21.1439C118.421 20.9935 118.374 20.843 118.322 20.6925C118.201 20.3505 118.068 20.0177 117.934 19.6802C117.912 19.6255 117.891 19.5662 117.869 19.5115C117.71 19.1239 117.537 18.7409 117.36 18.3624C117.3 18.2302 117.231 18.1025 117.17 17.9749C117.045 17.7241 116.924 17.4733 116.791 17.2225C116.713 17.0766 116.631 16.9307 116.549 16.7847C116.424 16.5568 116.295 16.3288 116.161 16.1053C116.07 15.9549 115.98 15.8044 115.889 15.6585C115.755 15.4396 115.613 15.2253 115.475 15.011C115.38 14.8651 115.281 14.7191 115.182 14.5778C115.031 14.3589 114.88 14.1446 114.72 13.9348C114.621 13.8026 114.522 13.6658 114.423 13.5336C114.246 13.3056 114.065 13.0776 113.879 12.8542C113.788 12.7447 113.702 12.6307 113.612 12.5259C113.331 12.1975 113.042 11.8692 112.745 11.5501C112.447 11.2309 112.141 10.9254 111.83 10.6244C111.731 10.5287 111.623 10.4375 111.524 10.3417C111.312 10.1456 111.097 9.94955 110.881 9.75804C110.756 9.6486 110.631 9.54373 110.502 9.43885C110.299 9.27014 110.1 9.10598 109.893 8.94639C109.76 8.84151 109.622 8.73664 109.484 8.63632C109.281 8.48585 109.078 8.33537 108.871 8.19402C108.733 8.0937 108.591 7.99794 108.453 7.90219C108.241 7.76083 108.03 7.62404 107.814 7.48724C107.676 7.40061 107.538 7.31397 107.4 7.22733C107.167 7.08598 106.93 6.95374 106.688 6.82151C106.568 6.75311 106.447 6.68471 106.322 6.61631C105.964 6.4248 105.601 6.24241 105.235 6.06913C105.183 6.04634 105.131 6.02354 105.079 6.00074C104.764 5.85482 104.445 5.71347 104.122 5.58123C103.984 5.52195 103.837 5.4718 103.699 5.41708C103.462 5.32588 103.224 5.23468 102.987 5.14805C102.828 5.09333 102.664 5.03861 102.504 4.98389C102.28 4.91094 102.055 4.83798 101.831 4.76958C101.663 4.71942 101.495 4.66927 101.322 4.62367C101.102 4.56439 100.878 4.50511 100.658 4.45039C100.485 4.40936 100.313 4.36832 100.14 4.32728C99.9116 4.27712 99.6873 4.23152 99.4587 4.18592C99.2905 4.154 99.1222 4.11753 98.954 4.09017C98.7081 4.04913 98.4579 4.01265 98.2121 3.97617C98.0611 3.95337 97.9101 3.93057 97.7591 3.91233C97.3709 3.86218 96.9784 3.8257 96.5858 3.79378C96.4608 9.11054 99.0662 15.5034 103.984 20.7381C108.901 25.9728 114.932 28.7725 119.961 28.6768L119.944 28.6722ZM115.177 22.8083C115.885 23.2551 116.114 24.2264 115.691 24.9742C115.268 25.722 114.349 25.9637 113.642 25.5168C112.934 25.07 112.706 24.0987 113.128 23.3509C113.551 22.6031 114.47 22.3614 115.177 22.8083ZM109.423 16.2786C110.273 14.783 112.106 14.2996 113.521 15.1934C114.936 16.0916 115.393 18.0296 114.548 19.5252C113.698 21.0208 111.865 21.5042 110.45 20.6104C109.035 19.7122 108.578 17.7742 109.427 16.2786H109.423ZM105.959 12.0106C106.382 11.2628 107.301 11.0211 108.008 11.468C108.716 11.9148 108.944 12.8861 108.522 13.6339C108.099 14.3817 107.18 14.6234 106.473 14.1765C105.765 13.7297 105.537 12.7584 105.959 12.0106Z" fill="#DF4447"/>
<path d="M99.0704 58.5255C98.1819 59.4602 96.7454 59.4557 95.8611 58.5118C95.2313 57.8415 95.0545 56.8748 95.3306 56.0358C93.7561 55.4704 92.2679 54.8457 90.8617 54.1708C90.7495 54.4672 90.5813 54.7499 90.3527 54.987C89.4641 55.9218 88.0276 55.9172 87.1434 54.9733C86.3798 54.1571 86.2806 52.9077 86.8457 51.9821C85.2195 50.9835 83.7227 49.9074 82.3466 48.7811C82.3121 48.8221 82.2776 48.8632 82.2431 48.9042C81.3545 49.839 79.9181 49.8344 79.0338 48.8905C78.1926 47.9968 78.1581 46.5833 78.9216 45.6439C77.6017 44.2897 76.4241 42.8944 75.3715 41.4854C74.4829 42.1648 73.232 42.0827 72.434 41.2346C71.5497 40.2952 71.554 38.7768 72.4469 37.8421C72.5461 37.7372 72.654 37.646 72.7661 37.5685C71.7222 35.7993 70.8509 34.0437 70.1219 32.352C69.2462 32.9038 68.0988 32.7852 67.3482 31.9872C66.464 31.0479 66.4683 29.5295 67.3612 28.5947C67.6804 28.2618 68.0686 28.0475 68.4741 27.9563C67.9867 26.4334 67.6157 25.0244 67.3396 23.7932C67.193 24.117 67.0549 24.4407 66.9169 24.7645C66.8996 24.8009 66.8867 24.8374 66.8694 24.8739C66.5891 25.5396 66.3216 26.2145 66.0714 26.8939L66.0412 26.976C65.9248 27.2906 65.8126 27.6098 65.7005 27.929L65.6659 28.0293C65.433 28.7133 65.213 29.4018 65.0103 30.0949C64.9973 30.1359 64.9844 30.1815 64.9758 30.2226C64.8809 30.5463 64.7903 30.8746 64.704 31.2029L64.6911 31.2577C64.5962 31.6179 64.5056 31.9781 64.4193 32.3338C64.3374 32.6712 64.2597 33.0132 64.1864 33.3552C64.1734 33.4008 64.1648 33.4509 64.1562 33.5011C64.0095 34.1988 63.8758 34.8964 63.7593 35.5986L63.7421 35.6944C63.6903 36.0136 63.6429 36.3328 63.5997 36.6474C63.5954 36.6884 63.5868 36.734 63.5825 36.7796C63.4876 37.4727 63.4142 38.1658 63.3539 38.8543C63.3539 38.8999 63.3452 38.9501 63.3409 38.9957C63.315 39.3103 63.2935 39.625 63.2762 39.935V40.0262C63.2546 40.3408 63.2417 40.66 63.2331 40.9747C63.2331 41.0066 63.2331 41.0431 63.2288 41.0795C70.2642 53.9337 79.793 60.4406 86.19 63.5686L86.2634 63.5641C86.5912 63.5367 86.919 63.5094 87.2469 63.4729H87.29C87.9931 63.3908 88.7006 63.295 89.4123 63.1719L89.4813 63.1582C90.1888 63.0351 90.8919 62.8938 91.5993 62.7342L91.664 62.7205C92.3757 62.5564 93.0832 62.3694 93.7906 62.1688L93.8208 62.1596C94.1702 62.0593 94.5153 61.9544 94.8647 61.8405L94.8906 61.8313C95.5937 61.6079 96.2882 61.3617 96.9827 61.1018L97.0517 61.0744C97.7376 60.8145 98.4148 60.5318 99.0877 60.2354L99.1654 60.2035C99.8383 59.9025 100.503 59.5879 101.158 59.2596L101.21 59.2322C101.745 58.9632 102.267 58.6759 102.789 58.3841C102.858 58.3476 102.922 58.3066 102.992 58.2701C103.052 58.2382 103.112 58.2063 103.168 58.1698H103.16C101.956 57.9327 100.796 57.6682 99.67 57.3764C99.5751 57.7959 99.3724 58.1971 99.0618 58.5209L99.0704 58.5255Z" fill="#63B55D"/>
<path d="M113.128 23.3509C112.706 24.0987 112.934 25.07 113.642 25.5168C114.349 25.9637 115.268 25.722 115.691 24.9742C116.113 24.2264 115.885 23.2551 115.177 22.8083C114.47 22.3614 113.551 22.6031 113.128 23.3509Z" fill="#EA5357"/>
<path d="M106.473 14.1765C107.18 14.6234 108.099 14.3817 108.522 13.6339C108.944 12.8861 108.716 11.9148 108.008 11.468C107.301 11.0211 106.382 11.2628 105.959 12.0106C105.537 12.7584 105.765 13.7297 106.473 14.1765Z" fill="#EA5357"/>
<path d="M110.445 20.6059C111.86 21.5042 113.693 21.0163 114.543 19.5206C115.393 18.025 114.931 16.0871 113.517 15.1888C112.102 14.2905 110.268 14.7784 109.419 16.274C108.569 17.7697 109.026 19.7076 110.441 20.6059H110.445Z" fill="#EA5357"/>
<path d="M85.9743 16.4884L89.3303 15.0429L89.0197 14.3544L86.2806 15.5353L85.7759 11.7416L82.7391 12.1884V11.737L82.4415 11.8875L82.4329 13.1414L85.4739 12.6946L85.9743 16.4884Z" fill="#E89353"/>
<path d="M88.7781 12.2067L90.7236 11.9194L90.3914 11.0622L88.3899 11.354L88.7781 12.2067Z" fill="#E89353"/>
<path d="M85.2496 7.72891H84.8182L85.0857 9.74436L85.4868 9.53917L85.2496 7.72891Z" fill="#E89353"/>
<path d="M112.839 38.6309L112.395 41.841L113.577 41.8456L114.919 38.9546L117.533 39.3559V38.3573L115.225 37.9971L113.883 40.8926L112.697 40.888L113.146 37.6779L109.621 37.1307L109.25 38.0746L112.839 38.6309Z" fill="#E89353"/>
<path d="M113.771 33.1591L113.607 33.0861L113.366 34.8326L113.525 34.9192L113.771 33.1591Z" fill="#E89353"/>
<path d="M116.157 36.2826L116.955 34.559L116.842 34.5088L116.049 36.2233L116.157 36.2826Z" fill="#E89353"/>
<path d="M98.2853 33.1272L99.5104 32.1103L99.3853 31.513L98.5916 32.1742L96.6202 28.5719L92.1514 29.2331L92.1557 28.385L91.8537 28.54L91.8451 30.1861L96.3183 29.5295L98.2853 33.1272Z" fill="#E89353"/>
<path d="M99.3853 29.0735L102.754 28.581L102.422 27.7192L99.2041 28.1934L99.3853 29.0735Z" fill="#E89353"/>
<path d="M93.4843 22.8402L92.7726 23.05L94.58 26.3513L95.227 26.023L93.4843 22.8402Z" fill="#E89353"/>
<path d="M85.7759 11.7416L86.2806 15.5353L89.0197 14.3544L89.6366 14.0899L88.7782 12.2067L88.39 11.354L90.3915 11.0622L91.0299 10.9664L89.6582 7.41885L87.1735 8.68192L86.3065 6.78047L85.1246 6.77591L85.2497 7.72891L85.4869 9.53917L85.0857 9.74436L82.7435 10.9345L82.7391 11.737V12.1884L85.7759 11.7416Z" fill="#FFE879"/>
<path d="M112.697 40.888L113.883 40.8926L115.225 37.9971L117.533 38.3573L117.835 38.4029L117.839 37.1535L116.157 36.2826L116.049 36.2233L116.842 34.5088L117.261 33.606L113.909 32.1331L113.771 33.1591L113.525 34.9192L113.366 34.8326L110.946 33.5832L109.557 37.1216L109.621 37.1307L113.146 37.6779L112.697 40.888Z" fill="#FFE879"/>
<path d="M96.6203 28.5719L98.5916 32.1742L99.3853 31.513L99.8166 31.1573L99.3853 29.0735L99.2041 28.1934L102.422 27.7192L103.056 27.628L101.257 22.9542L98.4233 24.3951L97.6685 20.7244L93.0788 22.097L93.4843 22.8402L95.227 26.023L94.5799 26.3513L92.1557 27.587V28.385L92.1514 29.2331L96.6203 28.5719Z" fill="#FFE879"/>
<path d="M67.3483 31.9918C68.0988 32.7898 69.2462 32.9129 70.1219 32.3566C70.2772 32.2608 70.4238 32.1423 70.5576 32.0009C71.4462 31.0661 71.4505 29.5477 70.5705 28.6084C70.0054 28.0065 69.2074 27.7876 68.4784 27.9563C68.0729 28.0521 67.6847 28.2618 67.3655 28.5947C66.4769 29.5295 66.4726 31.0479 67.3526 31.9872L67.3483 31.9918Z" fill="#FFE879"/>
<path d="M72.4339 41.2391C73.2319 42.0872 74.4786 42.1739 75.3715 41.4899C75.4664 41.417 75.557 41.3394 75.6432 41.2482C76.5318 40.3135 76.5362 38.795 75.6562 37.8557C74.8711 37.0213 73.6504 36.9255 72.7661 37.5685C72.6539 37.6505 72.5461 37.7417 72.4469 37.842C71.5583 38.7768 71.5539 40.2952 72.4382 41.2346L72.4339 41.2391Z" fill="#FFE879"/>
<path d="M79.0337 48.9042C79.918 49.8435 81.3544 49.8481 82.243 48.9179C82.2819 48.8769 82.3164 48.8358 82.3466 48.7948C83.1273 47.8555 83.0971 46.4282 82.2517 45.5254C81.3674 44.586 79.9309 44.5815 79.0423 45.5117C78.9992 45.5573 78.9604 45.6075 78.9216 45.6531C78.1581 46.5924 78.1926 48.0105 79.0337 48.9042Z" fill="#FFE879"/>
<path d="M87.1433 54.9779C88.0276 55.9172 89.4641 55.9218 90.3527 54.9916C90.5813 54.7499 90.7495 54.4718 90.8617 54.1754C91.1852 53.3136 91.017 52.3013 90.3656 51.5991C89.4813 50.6597 88.0449 50.6552 87.1563 51.5854C87.0355 51.7085 86.9363 51.8453 86.85 51.9867C86.2849 52.9123 86.3798 54.1617 87.1477 54.9779H87.1433Z" fill="#FFE879"/>
<path d="M95.8611 58.5118C96.7454 59.4511 98.1818 59.4557 99.0704 58.5255C99.381 58.1971 99.5838 57.8004 99.6787 57.3764C99.8555 56.5966 99.6571 55.744 99.0834 55.1329C98.1991 54.1936 96.7627 54.189 95.8741 55.1193C95.6196 55.3837 95.4427 55.7029 95.3305 56.0358C95.0545 56.8748 95.2313 57.8415 95.8611 58.5118Z" fill="#FFE879"/>
<path d="M41.6434 73.7097L47.9283 86.0896L48.7824 87.7631L50.1024 90.3622L50.1067 90.3576L50.7279 89.5916L42.9979 72.5059L41.6434 73.7097Z" fill="#C4793E"/>
<path d="M60.1531 106.887C59.1782 105.223 62.3401 104.862 64.4537 99.874C67.1195 93.5678 62.3789 82.4919 65.4674 86.6778C61.4817 76.0124 52.9839 64.973 48.9075 61.3981C47.5574 60.2126 46.2072 60.4588 45.4566 60.6184C42.7348 61.2021 39.7239 65.2694 39.7239 65.2694L42.9979 72.5013L50.7279 89.587L59.3594 108.661C60.0409 108.415 60.6707 108.141 61.253 107.84C60.8044 107.649 60.4119 107.325 60.1531 106.882V106.887Z" fill="#E89353"/>
<path d="M9.86094 45.9996C10.3656 45.2837 10.9221 44.6225 11.5389 44.0206C12.1428 43.5236 12.7769 43.0859 13.4542 42.7028C14.3902 42.2924 15.3565 42.0052 16.3486 41.7954C19.9893 41.2209 23.8197 41.3577 27.262 39.8393C29.5655 38.8224 31.5583 37.3587 33.245 35.4025C34.759 33.647 35.9798 31.5905 37.1056 29.534C38.1366 27.6463 39.0726 25.6947 40.1942 23.8662C40.824 22.936 41.5141 22.065 42.3035 21.2853C42.6831 20.9844 43.0756 20.7108 43.4941 20.4691C43.8521 20.3232 44.2188 20.2001 44.594 20.1043C45.1893 20.0313 45.7803 20.0085 46.3799 20.0359C48.2218 20.2593 50.0076 20.7792 51.8064 21.2443L51.7891 21.2032C51.6123 20.6697 51.4225 20.1408 51.224 19.621C51.2111 19.5845 51.1982 19.548 51.1809 19.5115C50.9911 19.0099 50.7884 18.5175 50.577 18.0296C50.5554 17.984 50.5382 17.9338 50.5166 17.8882C50.3052 17.4049 50.0896 16.9307 49.8609 16.4656C49.8437 16.4291 49.8264 16.3926 49.8092 16.3561C49.5676 15.8591 49.3131 15.3758 49.05 14.9015C48.7739 14.4045 48.4849 13.9166 48.1829 13.4424L48.1312 13.3603C47.8422 12.9043 47.5402 12.4529 47.234 12.0152C46.4791 11.9331 45.7156 11.9012 44.9434 11.9422C42.4157 12.079 39.862 13.0001 37.8907 14.6963C36.7821 15.6539 35.7684 16.6616 34.8971 17.8609C34.0387 19.0464 33.2579 20.3095 32.5462 21.6045C31.3556 23.7658 30.2772 26.0047 28.9788 28.0977C28.2929 29.1054 27.5424 30.0584 26.6883 30.9065C26.1534 31.3534 25.584 31.7501 24.9887 32.0921C24.0699 32.4934 23.1209 32.7761 22.1461 32.9767C18.816 33.5011 15.391 33.4692 12.1601 34.5727C8.5151 35.8175 5.55165 38.3938 3.42505 41.6951C3.61053 42.0645 3.80033 42.4292 4.00307 42.794C4.14542 43.0494 4.29208 43.3002 4.43874 43.5555C4.48188 43.6285 4.52502 43.7014 4.57247 43.7744C4.68462 43.9613 4.79677 44.1437 4.91324 44.3307C4.96069 44.4036 5.00814 44.4812 5.05128 44.5541C5.185 44.7684 5.32303 44.9782 5.46538 45.1879C5.49126 45.2244 5.51283 45.2609 5.53871 45.2974C5.71557 45.5573 5.89243 45.8172 6.07791 46.0771L6.09948 46.1045C6.27202 46.3507 6.44888 46.5924 6.63005 46.8295C6.66025 46.866 6.68613 46.907 6.71632 46.9435C6.88887 47.176 7.06573 47.404 7.2469 47.632L7.29435 47.6913C7.50571 47.9558 7.72139 48.2248 7.94139 48.4847C8.0104 48.5668 8.07511 48.6443 8.14413 48.7218C8.28216 48.886 8.42451 49.0547 8.56686 49.2143C8.6445 48.8495 8.73509 48.4893 8.83861 48.1336C9.12331 47.3903 9.4684 46.679 9.86957 45.9996H9.86094Z" fill="#DF4447"/>
<path d="M18.7728 14.8605C24.7946 11.1305 28.8623 5.65875 30.0313 0.483342H30.0184C29.6345 0.405825 29.2549 0.341987 28.8667 0.28271C28.7157 0.25991 28.5604 0.241671 28.4051 0.223432C28.1592 0.191513 27.9134 0.159594 27.6675 0.132235C27.4949 0.113996 27.3224 0.100316 27.1498 0.0866368C26.9212 0.0683975 26.6926 0.0501582 26.4597 0.0364787C26.2828 0.027359 26.106 0.0227992 25.9291 0.0136795C25.7005 0.00455983 25.4719 0 25.2475 0C25.0707 0 24.8938 0 24.717 0C24.484 0 24.2511 0.0136795 24.0182 0.0227992C23.8499 0.0319188 23.6774 0.0364787 23.5092 0.0501582C23.259 0.0683975 23.0088 0.0911966 22.7586 0.118556C22.6076 0.132235 22.4567 0.145915 22.31 0.164154C21.9692 0.205192 21.6284 0.255351 21.2877 0.310069C21.2273 0.319188 21.1712 0.323748 21.1108 0.337428C20.714 0.405825 20.3214 0.483342 19.9289 0.569979C19.7952 0.601898 19.6614 0.638376 19.5234 0.670295C19.2603 0.734133 19.0015 0.797971 18.7383 0.870928C18.583 0.911966 18.4278 0.962125 18.2725 1.00772C18.0309 1.08068 17.7937 1.15364 17.5564 1.23115C17.3968 1.28587 17.2372 1.34059 17.0776 1.39987C16.8447 1.48195 16.6117 1.57314 16.3788 1.66434C16.2235 1.72818 16.0639 1.78745 15.9086 1.85585C15.6714 1.95617 15.4384 2.06104 15.2012 2.16592C15.0545 2.23432 14.9079 2.29816 14.7569 2.37111C14.5024 2.49423 14.2479 2.62646 13.9977 2.7587C13.8726 2.82254 13.7518 2.88637 13.6267 2.95021C13.2557 3.1554 12.8848 3.36972 12.5181 3.59315C12.1515 3.82114 11.7934 4.05825 11.444 4.29992C11.3276 4.37744 11.2197 4.46408 11.1033 4.54615C10.8703 4.71487 10.6374 4.88358 10.4131 5.05685C10.2837 5.15717 10.1543 5.26205 10.0292 5.36692C9.82644 5.53108 9.6237 5.69523 9.42527 5.86394C9.29586 5.97794 9.16646 6.09194 9.03705 6.20593C8.84725 6.37464 8.66177 6.54792 8.48059 6.72119C8.3555 6.83975 8.2304 6.9583 8.10962 7.08142C7.92845 7.26381 7.74728 7.44621 7.57042 7.63316C7.45827 7.75171 7.3418 7.87027 7.22965 7.99339C7.03985 8.19858 6.85868 8.40833 6.68182 8.61808C6.59124 8.72752 6.49202 8.83239 6.40144 8.94183C6.13831 9.26102 5.87949 9.58477 5.62931 9.91763C5.5948 9.96323 5.56029 10.0134 5.52578 10.0635C5.31441 10.3508 5.10305 10.6426 4.90031 10.939C4.81403 11.0667 4.72776 11.1989 4.6458 11.3312C4.50346 11.5501 4.36111 11.7689 4.22307 11.9924C4.13249 12.1428 4.0419 12.2933 3.95563 12.4483C3.83053 12.6581 3.70975 12.8678 3.59329 13.0822C3.50701 13.2418 3.42074 13.4059 3.33447 13.5655C3.22232 13.7753 3.11448 13.9896 3.00664 14.2039C2.92468 14.368 2.84272 14.5322 2.76508 14.7009C2.66155 14.9198 2.56234 15.1432 2.46744 15.3666C2.39411 15.5308 2.32078 15.6949 2.25176 15.8591C2.15254 16.1008 2.05765 16.347 1.96275 16.5887C1.90667 16.7391 1.84628 16.8851 1.7902 17.0355C1.64785 17.4231 1.51413 17.8153 1.38904 18.2074C6.2289 19.662 12.7338 18.5904 18.7556 14.8605H18.7728ZM23.4703 3.90322C24.057 3.2922 25.0017 3.29676 25.584 3.9169C26.162 4.53703 26.1577 5.53564 25.5711 6.15121C24.9844 6.76223 24.0397 6.75767 23.4574 6.13753C22.8794 5.5174 22.8837 4.51879 23.4703 3.90322ZM16.0812 3.70258C17.2545 2.48055 19.1481 2.49423 20.3042 3.7345C21.4602 4.97478 21.4473 6.97198 20.274 8.19858C19.1007 9.42061 17.2113 9.40693 16.051 8.16666C14.8949 6.92638 14.9079 4.92462 16.0812 3.70258ZM11.2931 8.41289C11.8797 7.80187 12.8244 7.80643 13.4067 8.42657C13.9847 9.04671 13.9804 10.0453 13.3895 10.6609C12.8028 11.2719 11.8581 11.2673 11.2758 10.6472C10.6978 10.0271 10.7064 9.02847 11.2931 8.41289Z" fill="#DF4447"/>
<path d="M53.5835 43.7379L53.5965 43.6604C53.6569 43.3184 53.7086 42.9764 53.7604 42.6344L53.769 42.5843C53.8769 41.8456 53.9631 41.0978 54.0278 40.3408L54.0365 40.2679C54.1012 39.5155 54.1486 38.7586 54.1745 37.9971V37.9241C54.2047 37.1581 54.209 36.3829 54.2004 35.6123V35.5758C54.1917 35.1928 54.1831 34.8143 54.1702 34.4313V34.3994C54.1357 33.6242 54.0882 32.849 54.0192 32.0784L54.0106 32.0009C53.9416 31.2349 53.8553 30.4688 53.7518 29.7073L53.7388 29.6161C53.6353 28.8546 53.5102 28.0931 53.3679 27.3408L53.3549 27.2769C53.2859 26.903 53.2126 26.5291 53.1306 26.1598C53.0486 25.7676 52.9624 25.3892 52.8718 25.0061V25.0152C52.3542 26.1871 51.8193 27.3088 51.2714 28.385C51.6338 28.5856 51.9487 28.8911 52.173 29.2924C52.8071 30.4369 52.4447 31.9052 51.362 32.5754C50.5899 33.0542 49.6625 32.9904 48.9637 32.5025C48.0535 33.9753 47.1131 35.3387 46.1426 36.6155C46.3885 36.8024 46.5998 37.0486 46.7637 37.3405C47.3978 38.485 47.0355 39.9533 45.9528 40.6236C45.0167 41.2027 43.8477 40.9929 43.1403 40.1812C41.816 41.5948 40.4616 42.8579 39.0855 43.9887C39.1157 44.0343 39.1459 44.0799 39.1718 44.1301C39.8059 45.2746 39.4436 46.7428 38.3608 47.4131C37.3342 48.0515 36.0272 47.7323 35.3586 46.7155C33.7927 47.7278 32.2183 48.585 30.6611 49.31C31.0622 50.3907 30.674 51.6492 29.6991 52.2511C28.6164 52.9214 27.2274 52.5384 26.5933 51.3939C26.52 51.2662 26.4639 51.134 26.4208 51.0017C24.5358 51.631 22.7111 52.087 20.9857 52.4062C21.2747 53.4412 20.8778 54.5858 19.959 55.1512C18.8763 55.8215 17.4873 55.4384 16.8532 54.2939C16.6246 53.8835 16.5297 53.4321 16.547 52.9944C15.0286 53.1129 13.6482 53.1403 12.4534 53.1175C12.7122 53.3455 12.9753 53.5735 13.2384 53.7969L13.3247 53.8699C13.8639 54.3258 14.4161 54.7636 14.9768 55.1922L15.0415 55.2424C15.3003 55.443 15.5678 55.6345 15.8309 55.8306L15.9129 55.8899C16.4823 56.3003 17.0603 56.697 17.6426 57.0754C17.6771 57.0982 17.7116 57.121 17.7462 57.1438C18.0222 57.3217 18.2983 57.4949 18.5787 57.6682L18.6218 57.6956C18.9281 57.8825 19.2343 58.0649 19.5406 58.2427C19.8296 58.4115 20.1229 58.5756 20.4163 58.7352C20.4551 58.758 20.4982 58.7808 20.5371 58.8036C21.141 59.1274 21.7492 59.4374 22.3574 59.7293L22.4437 59.7703C22.7197 59.9025 23.0001 60.0302 23.2805 60.1533C23.3193 60.1716 23.3581 60.1898 23.397 60.2035C24.0095 60.4725 24.622 60.7233 25.2389 60.9513C25.282 60.9695 25.3251 60.9832 25.3683 60.9969C25.6487 61.1018 25.9291 61.2021 26.2137 61.2978L26.2957 61.3252C26.5804 61.421 26.8694 61.5121 27.1541 61.5988L27.249 61.6261C40.7765 57.6272 49.1146 49.497 53.5749 43.7242L53.5835 43.7379Z" fill="#63B55D"/>
<path d="M25.5667 6.15121C26.1533 5.5402 26.1619 4.54159 25.5796 3.9169C25.0016 3.29676 24.0569 3.28764 23.4659 3.90322C22.8793 4.51424 22.8707 5.51284 23.4487 6.13754C24.0267 6.75767 24.9757 6.76679 25.5623 6.15121H25.5667Z" fill="#EA5357"/>
<path d="M13.3894 10.6609C13.9761 10.0499 13.9847 9.05127 13.4067 8.42657C12.8287 7.80643 11.884 7.79731 11.293 8.41289C10.7021 9.02847 10.6978 10.0225 11.2801 10.6472C11.8581 11.2673 12.8028 11.2765 13.3894 10.6609Z" fill="#EA5357"/>
<path d="M20.2739 8.19858C21.4472 6.97654 21.4601 4.97478 20.3041 3.7345C19.1437 2.49423 17.2544 2.48055 16.0811 3.70258C14.9078 4.92462 14.8948 6.92638 16.0509 8.16666C17.2069 9.40693 19.1006 9.42061 20.2739 8.19858Z" fill="#EA5357"/>
<path d="M7.17351 28.2801L7.39782 26.219L6.52647 26.3467L6.29785 28.467L7.17351 28.2801Z" fill="#E89353"/>
<path d="M3.99873 31.4492L3.90815 30.9841L2.19134 30.7789L2.0835 31.2166L3.99873 31.4492Z" fill="#E89353"/>
<path d="M5.99589 31.2348L5.6508 34.4586L5.23669 34.3447L5.3014 34.6912L6.44882 35.0104L6.7939 31.7866L10.3958 32.2198L9.90832 28.4214L9.20089 28.5719L9.60206 31.6726L5.99589 31.2348Z" fill="#E89353"/>
<path d="M36.0573 6.26065L34.677 5.01125L34.6036 5.11613L35.9754 6.3564L36.0573 6.26065Z" fill="#E89353"/>
<path d="M39.711 9.7398L39.4134 10.9482L36.5837 9.6942L35.2076 13.1597L35.9798 13.7753L37.3817 10.2414L40.2114 11.4953L40.5091 10.287L38.197 8.19402L39.2193 5.61771L38.3005 5.36692L37.3989 7.64228L39.711 9.7398Z" fill="#E89353"/>
<path d="M32.6022 7.92499L32.4944 8.0709L34.0343 8.75488L34.1508 8.61352L32.6022 7.92499Z" fill="#E89353"/>
<path d="M25.2734 21.6318L25.6573 18.0615L24.786 18.1846L24.4193 21.5954L25.2734 21.6318Z" fill="#E89353"/>
<path d="M24.1259 24.3358L23.6126 29.0781L22.8362 28.8637L22.9009 29.2103L24.4106 29.6252L24.924 24.8876L28.7113 23.7658L28.0815 22.2611L27.5035 22.2383L27.9133 23.2187L24.1259 24.3358Z" fill="#E89353"/>
<path d="M18.0869 26.1187L18.1042 26.8985L21.5809 25.8725L21.4386 25.1292L18.0869 26.1187Z" fill="#E89353"/>
<path d="M3.99865 31.4492L4.50335 34.144L5.23666 34.3447L5.65076 34.4587L5.99585 31.2349L9.60202 31.6726L9.20085 28.5719L9.11458 27.8743L7.17346 28.2801L6.2978 28.467L6.52642 26.3467L6.59975 25.6719L3.00653 26.1871L3.54141 29.0461L1.58304 29.4565L1.2854 30.6694L2.19126 30.7789L3.90807 30.9841L3.99865 31.4492Z" fill="#FFE879"/>
<path d="M34.1507 8.61352L34.0343 8.75488L32.2829 10.9208L35.1817 13.2281L35.2076 13.1597L36.5836 9.6942L39.4133 10.9482L39.711 9.7398L37.3989 7.64228L38.3004 5.36692L38.4212 5.07053L37.2738 4.7559L36.0573 6.26065L35.9754 6.3564L34.6037 5.11613L33.879 4.46407L31.6963 7.52372L32.6021 7.92499L34.1507 8.61352Z" fill="#FFE879"/>
<path d="M18.0869 26.1187L21.4386 25.1292L21.5809 25.8725L22.1072 28.6585L22.8362 28.8637L23.6126 29.0781L24.1259 24.3358L27.9133 23.2187L27.5035 22.2383L27.2878 21.7094L25.2733 21.6318L24.4192 21.5954L24.7859 18.1846L24.8592 17.5098L20.1315 18.1892L20.7441 21.4495L17.194 21.3035L17.3061 26.3467L18.0869 26.1187Z" fill="#FFE879"/>
<path d="M17.6599 51.0154C16.9654 51.444 16.5686 52.2055 16.5427 52.9944C16.5254 53.4367 16.6246 53.8835 16.849 54.2939C17.4831 55.4384 18.872 55.8215 19.9547 55.1512C20.8735 54.5812 21.2704 53.4367 20.9814 52.4062C20.9296 52.2238 20.8606 52.0414 20.7657 51.8727C20.1316 50.7281 18.7426 50.3451 17.6599 51.0154Z" fill="#FFE879"/>
<path d="M27.4043 48.1154C26.4424 48.7081 26.0498 49.9347 26.4208 51.0017C26.4683 51.134 26.5243 51.2662 26.5934 51.3939C27.2275 52.5384 28.6164 52.9214 29.6992 52.2511C30.6783 51.6447 31.0666 50.3907 30.6611 49.31C30.618 49.196 30.5705 49.082 30.5101 48.9726C29.876 47.8281 28.487 47.4451 27.4043 48.1154Z" fill="#FFE879"/>
<path d="M36.066 43.2728C34.9833 43.9431 34.6209 45.4114 35.255 46.5559C35.2852 46.6106 35.3198 46.6653 35.3543 46.7155C36.0229 47.7323 37.3299 48.047 38.3565 47.4131C39.4392 46.7428 39.8016 45.2746 39.1675 44.1301C39.1416 44.0799 39.1114 44.0389 39.0812 43.9887C38.4169 42.9582 37.097 42.6299 36.0617 43.2728H36.066Z" fill="#FFE879"/>
<path d="M43.6579 36.4878C42.5752 37.1581 42.2129 38.6263 42.847 39.7709C42.9289 39.9213 43.0325 40.0627 43.1403 40.1858C43.8477 40.9975 45.0167 41.2072 45.9528 40.6281C47.0355 39.9578 47.3978 38.4895 46.7637 37.345C46.5998 37.0486 46.3884 36.807 46.1426 36.62C45.4351 36.0774 44.4646 35.9908 43.6579 36.4878Z" fill="#FFE879"/>
<path d="M49.0672 28.4442C47.9845 29.1145 47.6222 30.5828 48.2563 31.7273C48.4374 32.0556 48.679 32.3155 48.9594 32.5116C49.6582 32.9995 50.5856 33.0633 51.3577 32.5846C52.4405 31.9143 52.8028 30.446 52.1687 29.3015C51.9487 28.9002 51.6295 28.5947 51.2672 28.3941C50.5986 28.0202 49.766 28.0111 49.0629 28.4442H49.0672Z" fill="#FFE879"/>
</g>
<defs>
<clipPath id="clip0_24_138">
<rect width="120" height="111" rx="12" fill="white"/>
</clipPath>
</defs>
</svg>
