<svg width="120" height="111" viewBox="0 0 120 111" fill="none" xmlns="http://www.w3.org/2000/svg">
<path d="M116.992 34.2724C116.451 33.4016 115.829 32.5863 115.107 31.8308C114.98 31.6942 114.312 31.0155 113.322 30.0081C112.904 29.419 112.45 28.8513 111.942 28.322C111.419 27.7714 101.996 18.1883 98.1359 14.2612C95.4747 11.4951 93.3403 9.284 93.3403 9.284L93.2722 9.3395L93.2631 9.33096C93.1859 9.24986 93.1041 9.17302 93.0224 9.09192C92.6863 8.6864 92.3367 8.28515 91.9688 7.89671C78.758 -5.98481 48.8487 -1.08445 25.1747 18.8372C2.20914 38.1654 -6.45574 64.5284 5.11106 78.7556L5.10198 78.7471C5.48799 79.2252 5.89217 79.6905 6.3236 80.1429C6.43713 80.2624 6.55067 80.3734 6.66874 80.4887C10.3336 84.8299 20.8922 97.3283 21.6007 98.0711C21.9413 98.4296 22.3046 98.7669 22.6815 99.087C23.8486 100.453 24.657 101.392 24.8341 101.58C25.0884 101.845 25.3564 102.096 25.6289 102.344C26.9141 103.847 27.8087 104.892 27.9994 105.093C28.8033 105.934 29.7024 106.668 30.6788 107.317C36.4736 111.171 45.1748 111.675 55.0704 109.238C66.56 106.403 79.6481 99.6206 91.6328 89.5381C103.127 79.8697 111.519 68.925 115.947 58.8596C120.184 49.2297 120.793 40.4064 116.987 34.2767L116.992 34.2724Z" fill="#EA5443"/>
<path d="M117.476 34.5477C116.936 33.6769 116.314 32.8616 115.592 32.106C115.464 31.9694 114.797 31.2907 113.807 30.2833C113.984 30.5309 114.152 30.7828 114.311 31.0389C118.116 37.1643 117.508 45.9876 113.266 55.6175C108.839 65.6829 100.446 76.6276 88.952 86.296C76.9628 96.3785 63.8747 103.166 52.3896 105.996C42.4895 108.437 33.7883 107.934 27.9981 104.079C27.3305 103.635 26.7038 103.149 26.1134 102.619C27.3986 104.122 28.2932 105.168 28.484 105.368C29.2878 106.209 30.187 106.943 31.1634 107.592C36.9581 111.447 45.6593 111.95 55.5549 109.513C67.0445 106.679 80.1327 99.8958 92.1173 89.8134C103.611 80.145 112.004 69.2003 116.432 59.1349C120.669 49.5049 121.277 40.6774 117.476 34.5519V34.5477Z" fill="#DF3F2F"/>
<path d="M14.9063 83.3101C14.9108 82.1319 15.9326 81.18 17.1861 81.1843C18.4395 81.1886 19.4522 82.149 19.4476 83.3314C19.4476 83.5534 19.4113 83.7626 19.3432 83.9632C26.2279 84.4028 34.2615 82.8832 42.5858 79.575C42.5676 79.4342 42.554 79.289 42.554 79.1396C42.5631 77.3724 44.0935 75.9467 45.9782 75.9553C46.9546 75.9595 47.831 76.3522 48.4487 76.9755C55.129 73.6972 61.8638 69.3261 68.2217 63.9477C68.3307 63.8538 68.4397 63.7598 68.5487 63.6659C67.9764 63.0897 67.6222 62.3171 67.6268 61.4633C67.6358 59.6961 69.1663 58.2704 71.0509 58.2789C71.9819 58.2832 72.8266 58.6418 73.4397 59.2138C78.4669 54.3219 82.6768 49.1697 85.9874 44.0133C84.6159 43.5949 83.6214 42.3826 83.6304 40.9527C83.6395 39.1855 85.17 37.7597 87.0546 37.7683C87.8675 37.7683 88.6078 38.0415 89.1936 38.4897C92.3907 32.313 94.2254 26.2729 94.5251 20.8219C94.2754 20.9115 94.0029 20.9585 93.7213 20.9585C92.4679 20.9542 91.4552 19.9938 91.4597 18.8114C91.4643 17.6333 92.4861 16.6814 93.744 16.6856C93.9938 16.6856 94.2345 16.7283 94.457 16.7966C94.0892 12.8866 92.804 9.3863 90.5288 6.50499C90.9965 6.91477 91.4461 7.34163 91.8775 7.79411C92.2408 8.17401 92.5814 8.56246 92.9084 8.95944C92.9493 9.00212 92.9902 9.04054 93.031 9.08323C92.695 8.67771 92.3453 8.27646 91.9774 7.88801C78.7576 -5.98497 48.8483 -1.08033 25.1743 18.8413C2.20416 38.1653 -6.46072 64.5325 5.11062 78.7597C7.76276 81.052 11.0916 82.5759 14.9063 83.3741V83.3101ZM82.7676 10.2358C84.1391 9.65095 85.7513 10.2229 86.3734 11.5121C86.9956 12.8012 86.387 14.3165 85.0156 14.9013C83.6441 15.4861 82.0319 14.9141 81.4097 13.625C80.7876 12.3359 81.3961 10.8205 82.7631 10.2358H82.7676ZM68.9619 3.73466C71.7321 2.55652 74.9928 3.70905 76.2508 6.3129C77.5087 8.91675 76.278 11.9816 73.5078 13.164C70.7376 14.3464 67.4769 13.1896 66.2189 10.5858C64.9655 7.98192 66.1917 4.91706 68.9619 3.73466ZM58.0627 9.72352C59.4342 9.13872 61.0463 9.71071 61.6685 10.9998C62.2907 12.289 61.6821 13.8043 60.3107 14.3891C58.9392 14.9739 57.327 14.4019 56.7048 13.1128C56.0827 11.8237 56.6912 10.3083 58.0627 9.72352ZM5.1197 62.5433C4.21143 52.6999 10.3922 43.4541 21.0189 36.2999C31.6457 29.1457 14.2387 46.7067 15.7737 60.0205C16.9499 70.2524 23.108 72.8349 20.1152 75.2211C18.9708 76.1345 17.4177 76.4547 15.9417 76.1943C12.9036 75.6607 5.75549 69.4072 5.1197 62.5433Z" fill="#EDD9AD"/>
<path d="M73.0948 69.0401C49.7068 88.8208 20.1699 93.8876 6.72302 80.544C7.04092 80.9281 7.37243 81.3038 7.72212 81.6709C20.9738 95.5182 50.8694 90.5453 74.4935 70.5682C98.1085 50.5954 106.519 23.1824 93.2765 9.33502L93.2674 9.32649C93.1902 9.24538 93.1085 9.16855 93.0267 9.08744C92.9858 9.04476 92.945 9.00634 92.9041 8.96365C104.653 23.1354 96.074 49.6094 73.0948 69.0401Z" fill="#E34C3B"/>
<path d="M73.0948 69.0401C96.074 49.6051 104.653 23.1354 92.8996 8.96364C92.5681 8.56666 92.2275 8.17822 91.8687 7.79831C91.4373 7.35011 90.9877 6.91898 90.5199 6.50919C92.7951 9.3905 94.0803 12.8908 94.4482 16.8008C95.3519 17.0868 96.0013 17.8893 95.9922 18.8327C95.9877 19.7462 95.3746 20.5188 94.5163 20.8218C94.212 26.2729 92.3819 32.3129 89.1848 38.4896C89.9523 39.0787 90.4427 39.9794 90.4382 40.9825C90.4291 42.7497 88.8987 44.1754 87.014 44.1711C86.6552 44.1711 86.3056 44.1156 85.9831 44.0175C82.6725 49.1697 78.4581 54.3262 73.4354 59.218C74.0575 59.8028 74.4436 60.6095 74.439 61.5017C74.4299 63.2689 72.8995 64.6989 71.0148 64.6903C70.0385 64.6861 69.162 64.2934 68.5444 63.6744C68.4354 63.7683 68.3264 63.8622 68.2174 63.9561C61.8595 69.3346 55.1247 73.7056 48.4444 76.9839C49.0166 77.5602 49.3708 78.3328 49.3663 79.1823C49.3572 80.9495 47.8268 82.3752 45.9421 82.3667C44.2164 82.3581 42.804 81.1458 42.586 79.5835C34.2618 82.8874 26.2281 84.4113 19.3434 83.9716C19.0528 84.8424 18.1854 85.4699 17.1681 85.4657C15.9374 85.4614 14.9383 84.5308 14.9111 83.3826C11.0964 82.5843 7.76755 81.0605 5.11541 78.7682L5.10632 78.7597C5.49234 79.2378 5.89652 79.703 6.32795 80.1555C6.44148 80.275 6.55501 80.386 6.67309 80.5013L6.72758 80.5568C20.1745 93.9004 49.7114 88.8379 73.0993 69.0529L73.0948 69.0401Z" fill="#E3CC98"/>
<path d="M67.627 61.4633C67.627 62.3127 67.9766 63.0896 68.5488 63.6659C69.1665 64.2848 70.0429 64.6775 71.0193 64.6818C72.8995 64.6903 74.4344 63.2646 74.4435 61.4932C74.4481 60.601 74.062 59.7943 73.4399 59.2095C72.8268 58.6375 71.9866 58.2789 71.0511 58.2746C69.171 58.2661 67.636 59.6918 67.627 61.4633Z" fill="#DF4447"/>
<path d="M83.6261 40.9526C83.617 42.3826 84.6116 43.5949 85.9831 44.0132C86.3101 44.1114 86.6552 44.1669 87.014 44.1669C88.8941 44.1754 90.4291 42.7497 90.4381 40.9782C90.4427 39.9751 89.9522 39.0744 89.1847 38.4854C88.6034 38.0372 87.8587 37.764 87.0458 37.764C85.1656 37.7554 83.6307 39.1811 83.6216 40.9526H83.6261Z" fill="#DF4447"/>
<path d="M42.5497 79.1439C42.5497 79.289 42.5633 79.4341 42.5815 79.5793C42.7995 81.1416 44.2164 82.3539 45.9376 82.3624C47.8177 82.3709 49.3526 80.9452 49.3617 79.178C49.3663 78.3286 49.0166 77.5559 48.4398 76.9797C47.8222 76.3565 46.9457 75.9637 45.9693 75.9595C44.0892 75.9509 42.5542 77.3767 42.5452 79.1439H42.5497Z" fill="#DF4447"/>
<path d="M17.1862 81.1843C15.9328 81.18 14.911 82.1276 14.9065 83.31V83.3698C14.9383 84.518 15.9328 85.4486 17.1681 85.4529C18.1853 85.4571 19.0527 84.8297 19.3434 83.9589C19.4115 83.7582 19.4478 83.5491 19.4478 83.3271C19.4524 82.149 18.4397 81.1885 17.1862 81.18V81.1843Z" fill="#DF4447"/>
<path d="M91.4555 18.8113C91.4509 19.9895 92.4591 20.9499 93.717 20.9584C94.0032 20.9584 94.2711 20.9115 94.5209 20.8218C95.3792 20.5188 95.9923 19.7461 95.9968 18.8327C95.9968 17.8893 95.3519 17.0868 94.4527 16.8008C94.2302 16.7282 93.9895 16.6898 93.7398 16.6898C92.4863 16.6855 91.4645 17.6375 91.4555 18.8156V18.8113Z" fill="#DF4447"/>
<path d="M87.8587 68.6132C87.9495 68.7071 88.0221 68.8095 88.0948 68.9077C88.1993 69.0443 88.2901 69.1895 88.3718 69.3346C88.8805 68.6089 89.2892 67.9644 89.5935 67.4436C90.0794 66.6155 89.9613 65.591 89.3028 64.8739L88.6261 64.1354C87.5635 62.9701 85.5971 63.1152 84.7433 64.4257C84.0258 65.527 83.2719 66.5557 82.4999 67.5119C84.6888 67.0466 86.6688 67.3753 87.8496 68.6132H87.8587Z" fill="#B53324"/>
<path d="M75.0475 74.5722C76.8504 73.3001 78.7941 71.6652 80.6833 69.6248H80.7015C81.0194 69.2791 81.3328 68.9205 81.6461 68.5534C78.9803 71.6226 76.142 73.8849 73.6715 75.5027C74.1211 75.2167 74.5798 74.9094 75.0521 74.5764L75.0475 74.5722Z" fill="#B53324"/>
<path d="M71.6279 81.9355C72.4726 81.6325 73.2855 81.308 74.0666 80.9623C73.9394 80.8641 73.8123 80.7617 73.6987 80.6507L73.6306 80.5909C72.5589 79.464 72.35 77.7992 72.8767 76.0064C71.6597 76.762 70.5561 77.3553 69.6297 77.8035C68.2491 78.478 67.904 80.1854 68.9167 81.2952C69.5843 82.0252 70.6697 82.277 71.6233 81.9355H71.6279Z" fill="#B53324"/>
<path d="M73.6306 80.5866L73.6988 80.6464C73.8123 80.7617 73.9394 80.8598 74.0666 80.958C76.4281 82.7722 81.0285 81.8758 84.7206 78.7682C88.2765 75.7759 89.7569 71.7762 88.3809 69.3346C88.2992 69.1852 88.2083 69.0401 88.1039 68.9077C88.0267 68.8096 87.954 68.7071 87.8677 68.6132C86.687 67.3753 84.707 67.0466 82.518 67.5119H82.4953C82.2138 67.8747 81.9322 68.2162 81.6461 68.5534C81.3328 68.9205 81.0194 69.2791 80.7015 69.6206C82.0049 69.4285 83.1992 69.706 83.9304 70.5085C85.2928 71.9982 84.5435 74.7088 82.2501 76.5571C79.9567 78.4097 76.9958 78.6999 75.6334 77.2102C75.0067 76.5229 74.8295 75.5753 75.0475 74.5722C74.5752 74.9051 74.1166 75.2125 73.667 75.4985C73.399 75.6692 73.1356 75.8357 72.8813 75.9894V76.0022C72.3545 77.795 72.5589 79.4597 73.6352 80.5866H73.6306Z" fill="#B5B5B5"/>
<path d="M75.0476 74.5722C74.8341 75.5753 75.0067 76.5229 75.6334 77.2102C76.9958 78.6999 79.9568 78.4097 82.2501 76.5571C84.539 74.7045 85.2928 71.9982 83.9304 70.5085C83.1993 69.706 82.0049 69.4242 80.7015 69.6206H80.6834C78.7942 71.6653 76.8505 73.3001 75.0476 74.5722Z" fill="#A1A0A0"/>
<path d="M98.876 48.4483C99.6707 48.7001 100.547 48.4483 101.069 47.8336C101.533 47.2872 101.955 46.7366 102.35 46.1902C102.218 46.1731 102.082 46.1518 101.951 46.1133L101.878 46.0963C100.62 45.7249 99.7343 44.6364 99.3029 43.168C98.7852 44.1754 98.272 45.0291 97.8224 45.7121C97.1503 46.7323 97.668 48.0684 98.876 48.4483Z" fill="#B53324"/>
<path d="M100.188 41.3026C100.888 39.6976 101.528 37.781 101.946 35.5998L101.955 35.5912C102.032 35.1857 102.1 34.7717 102.159 34.3491C101.637 37.7426 100.574 40.5812 99.4982 42.754C99.7298 42.3015 99.9614 41.8191 100.184 41.2984L100.188 41.3026Z" fill="#B53324"/>
<path d="M106.551 32.0654C106.655 32.0952 106.751 32.1379 106.851 32.1806C106.987 32.2361 107.114 32.3001 107.237 32.3727C107.273 31.6598 107.268 31.0452 107.255 30.5585C107.227 29.7859 106.687 29.1115 105.906 28.8639L105.102 28.6121C103.835 28.2108 102.514 29.0859 102.5 30.3451C102.486 31.408 102.409 32.4239 102.291 33.4057C103.626 32.2105 105.166 31.6641 106.551 32.0696V32.0654Z" fill="#B53324"/>
<path d="M101.878 46.0963L101.95 46.1134C102.082 46.1475 102.214 46.1689 102.35 46.1902C104.821 46.536 107.654 44.0943 108.871 40.4532C110.039 36.9487 109.298 33.5508 107.241 32.3727C107.118 32.3001 106.987 32.2361 106.855 32.1806C106.755 32.1422 106.66 32.0995 106.555 32.0654C105.17 31.6598 103.626 32.2105 102.296 33.4014L102.286 33.41C102.255 33.7301 102.214 34.046 102.168 34.3533C102.109 34.7759 102.041 35.19 101.964 35.5955C102.795 34.9467 103.762 34.6735 104.634 34.9467C106.26 35.4589 106.937 37.6615 106.151 39.8641C105.366 42.071 103.408 43.4412 101.787 42.929C101.038 42.6942 100.493 42.0923 100.197 41.3026C99.9704 41.8191 99.7388 42.3058 99.5117 42.7582C99.4436 42.8948 99.3755 43.0272 99.3074 43.1552V43.168C99.7388 44.6364 100.629 45.7249 101.887 46.0963H101.878Z" fill="#B5B5B5"/>
<path d="M100.188 41.3027C100.484 42.0923 101.029 42.6942 101.778 42.929C103.404 43.4412 105.357 42.0667 106.142 39.8641C106.928 37.6573 106.251 35.4589 104.625 34.9467C103.753 34.6692 102.786 34.9467 101.955 35.5955L101.946 35.6041C101.528 37.7853 100.888 39.7019 100.188 41.3069V41.3027Z" fill="#A1A0A0"/>
<path d="M48.8348 94.2377C48.8485 94.3401 48.8485 94.4383 48.853 94.5407C48.853 94.6773 48.8485 94.8139 48.8348 94.9505C49.5342 94.6773 50.1246 94.4169 50.5878 94.195C51.3235 93.8449 51.7413 93.0979 51.6459 92.3296L51.5506 91.5399C51.3962 90.2892 49.9929 89.5422 48.7758 90.063C47.7449 90.5026 46.7367 90.8697 45.7422 91.1856C47.4588 91.8131 48.6441 92.893 48.8394 94.2419L48.8348 94.2377Z" fill="#B53324"/>
<path d="M37.2318 92.7522C39.0756 92.6668 41.1918 92.3979 43.4716 91.8259H43.4852C43.9075 91.7277 44.3344 91.6082 44.7659 91.4801C41.2736 92.479 38.0901 92.7778 35.5378 92.7863C36.0692 92.7906 36.6368 92.7821 37.2272 92.7522H37.2318Z" fill="#B53324"/>
<path d="M31.319 96.2695C32.041 96.4317 32.7495 96.5555 33.4489 96.6622C33.408 96.5384 33.3717 96.4189 33.3535 96.2909L33.3353 96.2226C33.1582 94.9975 33.8303 93.7766 35.061 92.7863C33.8667 92.7735 32.8267 92.701 31.982 92.607C30.715 92.4705 29.6478 93.4778 29.7931 94.6688C29.8884 95.4499 30.5015 96.0902 31.319 96.2738V96.2695Z" fill="#B53324"/>
<path d="M33.3353 96.2226L33.3535 96.2909C33.3762 96.4189 33.4125 96.5384 33.4488 96.6622C34.1664 98.9118 37.7222 100.286 41.7413 99.774C45.6151 99.2789 48.5715 97.2043 48.8304 94.9548C48.844 94.8182 48.8531 94.6816 48.8485 94.545C48.8485 94.4426 48.8485 94.3444 48.8304 94.2419C48.6351 92.893 47.4498 91.8131 45.7332 91.1856H45.7241C45.4016 91.288 45.0792 91.3862 44.7613 91.4801C44.3299 91.6082 43.903 91.7277 43.4807 91.8344C44.457 92.2656 45.1337 92.9699 45.2382 93.8321C45.4334 95.4329 43.6033 96.944 41.1464 97.2129C38.6895 97.4818 36.5369 96.4018 36.3417 94.8011C36.2508 94.0626 36.596 93.3455 37.2318 92.7565C36.6369 92.7821 36.0737 92.7949 35.5424 92.7906C35.3834 92.7906 35.2245 92.7906 35.0701 92.7821L35.061 92.7906C33.8303 93.7809 33.1582 94.9975 33.3353 96.2268V96.2226Z" fill="#B5B5B5"/>
<path d="M37.2319 92.7522C36.5961 93.3413 36.2509 94.0584 36.3418 94.7969C36.537 96.3976 38.6896 97.4775 41.1465 97.2086C43.6034 96.9397 45.4381 95.4286 45.2382 93.8279C45.1338 92.9699 44.4571 92.2613 43.4807 91.8302H43.4671C41.1874 92.3979 39.0711 92.6668 37.2273 92.7522H37.2319Z" fill="#A1A0A0"/>
<path d="M85.0158 14.9013C86.3873 14.3165 86.9913 12.8011 86.3737 11.512C85.7515 10.2229 84.1393 9.65517 82.7678 10.2357C81.3964 10.8205 80.7924 12.3359 81.4145 13.625C82.0367 14.9141 83.6489 15.4818 85.0204 14.9013H85.0158Z" fill="#FFECC2"/>
<path d="M60.3109 14.3848C61.6824 13.8 62.2864 12.2846 61.6688 10.9955C61.0512 9.7064 59.4345 9.13867 58.063 9.71921C56.6915 10.2997 56.0875 11.8194 56.7051 13.1085C57.3273 14.3976 58.9395 14.9653 60.3109 14.3848Z" fill="#FFECC2"/>
<path d="M73.5081 13.1597C76.2784 11.9773 77.5045 8.91241 76.2511 6.30856C74.9977 3.70471 71.7325 2.55218 68.9623 3.73032C66.192 4.90846 64.9659 7.97759 66.2193 10.5814C67.4772 13.1853 70.7379 14.3378 73.5081 13.1597Z" fill="#FFECC2"/>
<path d="M20.1109 75.221C23.1036 72.8348 16.9501 70.2523 15.7694 60.0205C14.2344 46.7067 31.6459 29.1456 21.0146 36.2998C10.3879 43.454 4.20256 52.7041 5.11537 62.5432C5.75116 69.4114 12.8992 75.6649 15.9374 76.1942C17.4133 76.4546 18.9665 76.1345 20.1109 75.221Z" fill="#FFECC2"/>
<path d="M100.275 65.48C99.8977 65.9154 99.8205 66.5216 100.243 66.9527L100.275 66.9868C100.674 67.3625 101.492 67.4351 101.882 66.9868C107.305 60.7675 111.133 53.3572 112.909 45.4859C113.417 43.2278 113.758 40.9355 113.935 38.6305C113.98 38.0798 113.431 37.6103 112.877 37.5719L112.8 37.5633C112.15 37.5633 111.71 38.0542 111.664 38.6305C111.074 46.2542 108.481 53.7072 104.239 60.2254C103.045 62.0566 101.728 63.8153 100.279 65.4758L100.275 65.48Z" fill="#DF3F2F"/>
<path d="M28.5351 102.361C28.6532 102.455 28.794 102.532 28.9484 102.583C33.1854 104.034 37.7086 104.657 42.2136 104.388C47.1455 104.094 51.9548 102.852 56.5461 101.174C59.6615 100.034 62.6951 98.7069 65.6742 97.2769C66.2192 97.0165 66.3781 96.2951 66.0829 95.817C66.0239 95.7189 65.9467 95.642 65.8649 95.5695C65.5062 95.2664 64.9748 95.2194 64.5298 95.4329C55.9012 99.5777 46.3326 103.193 36.5097 102.122C34.2844 101.878 31.7867 101.285 29.5569 100.521C28.9801 100.325 28.3126 100.743 28.1582 101.268C28.031 101.703 28.2081 102.1 28.5396 102.357L28.5351 102.361Z" fill="#DF3F2F"/>
</svg>
